<?xml version="1.0" encoding="utf-8" standalone="no"?><!DOCTYPE svg PUBLIC "-//W3C//DTD SVG 1.1//EN" "http://www.w3.org/Graphics/SVG/1.1/DTD/svg11-flat-20030114.dtd"><svg width="482" height="534" version="1.1" xmlns="http://www.w3.org/2000/svg" xmlns:xlink="http://www.w3.org/1999/xlink">

<path style="fill:#7f7f7f;stroke:#000;stroke-width:2" d="M15,360 l0,-216 19,0 20,1 21,1 19,0 26,-1 26,-1 26,-3 25,-4 25,-5 24,-6 23,-7 23,-9 22,-8 21,-10 20,-11 19,-12 18,-12 16,-13 15,-14 14,-15 30,26 -21,51 -23,46 -24,41 -25,37 -26,32 -26,29 -28,24 -27,21 -28,18 -28,15 -29,11 -28,10 -28,6 -28,5 -27,2 -27,1 -9,-10 -11,-11 -9,-9z" />
<path style="fill:#b2b2b2;stroke:#000;stroke-width:2" d="M45,390 l0,-216 19,0 20,1 21,1 19,0 26,-1 26,-1 26,-3 25,-4 25,-5 24,-7 23,-7 23,-8 22,-9 21,-10 20,-11 19,-11 18,-13 16,-13 15,-14 14,-14 -1,474 -14,-15 -15,-14 -17,-13 -17,-12 -19,-12 -20,-11 -21,-10 -22,-9 -22,-8 -24,-7 -24,-6 -24,-6 -25,-4 -26,-3 -26,-1 -26,-1 -19,0 -21,1 -20,1 -19,1z" />
<path style="fill:none;stroke:#000;stroke-width:2" d="M45,173 l-30,-29" />

</svg>
