<?xml version="1.0" encoding="utf-8" standalone="no"?><!DOCTYPE svg PUBLIC "-//W3C//DTD SVG 1.1//EN" "http://www.w3.org/Graphics/SVG/1.1/DTD/svg11-flat-20030114.dtd"><svg width="530" height="354" version="1.1" xmlns="http://www.w3.org/2000/svg" xmlns:xlink="http://www.w3.org/1999/xlink">

<path style="fill:#7f7f7f;stroke:#000;stroke-width:2" d="M15,310 l0,-295 12,5 12,6 12,5 14,4 13,5 15,4 14,3 15,4 15,3 16,2 16,3 16,2 16,1 16,1 17,1 33,0 16,-1 17,-1 16,-1 16,-2 16,-3 15,-2 15,-3 15,-4 15,-3 14,-4 13,-5 14,-4 12,-5 12,-6 12,-5 30,30 -6,3 -14,9 -23,14 -29,17 -34,21 -38,23 -41,24 -42,26 -43,26 -42,26 -39,25 -36,22 -31,20 -25,17 -18,13 -10,8 -5,-5 -10,-10 -9,-9 -5,-5z" />
<path style="fill:#b2b2b2;stroke:#000;stroke-width:2" d="M44,339 l0,-295 12,5 12,6 13,5 13,4 14,5 14,4 14,3 15,4 16,3 15,2 16,3 16,2 16,1 16,1 17,1 33,0 16,-1 17,-1 16,-1 16,-2 16,-3 15,-2 16,-3 15,-4 14,-3 14,-4 14,-5 13,-4 13,-5 12,-6 11,-5 1,295 -12,-6 -12,-5 -12,-5 -14,-5 -13,-5 -14,-4 -15,-3 -15,-4 -15,-2 -16,-3 -15,-2 -17,-2 -16,-1 -16,-1 -17,-1 -34,0 -16,1 -17,1 -16,1 -16,2 -16,2 -15,3 -15,2 -15,4 -15,3 -14,4 -13,5 -14,5 -12,5 -12,5 -12,6z" />
<path style="fill:none;stroke:#000;stroke-width:2" d="M44,45 l-29,-30" />

</svg>
