<?xml version="1.0" encoding="utf-8" standalone="no"?><!DOCTYPE svg PUBLIC "-//W3C//DTD SVG 1.1//EN" "http://www.w3.org/Graphics/SVG/1.1/DTD/svg11-flat-20030114.dtd"><svg width="530" height="301" version="1.1" xmlns="http://www.w3.org/2000/svg" xmlns:xlink="http://www.w3.org/1999/xlink">

<path style="fill:#333" d="M57,250 l-42,0 0,10 42,0 0,-10z" />
<path style="fill:#333" d="M473,250 l-41,15 -334,0 -41,-15 0,5 41,31 334,0 41,-31 0,-5z" />
<path style="fill:#333" d="M515,250 l-42,0 0,10 42,0 0,-10z" />
<path style="fill:#4c4c4c" d="M57,223 l-42,0 0,26 42,0 0,-26z" />
<path style="fill:#4c4c4c" d="M473,223 l-41,11 -334,0 -41,-11 0,27 41,15 334,0 41,-15 0,-27z" />
<path style="fill:#4c4c4c" d="M515,223 l-42,0 0,26 42,0 0,-26z" />
<path style="fill:#666" d="M57,177 l-42,0 0,46 42,0 0,-46z" />
<path style="fill:#666" d="M473,177 l-41,5 -334,0 -41,-5 0,46 41,11 334,0 41,-11 0,-46z" />
<path style="fill:#666" d="M515,177 l-42,0 0,46 42,0 0,-46z" />
<path style="fill:#7f7f7f" d="M57,109 l-42,0 0,68 42,0 0,-68z" />
<path style="fill:#7f7f7f" d="M473,109 l-41,-5 -334,0 -41,5 0,68 41,5 334,0 41,-5 0,-68z" />
<path style="fill:#7f7f7f" d="M515,109 l-42,0 0,68 42,0 0,-68z" />
<path style="fill:#999" d="M57,62 l-42,0 0,47 42,0 0,-47z" />
<path style="fill:#999" d="M473,62 l-41,-11 -334,0 -41,11 0,47 41,-5 334,0 41,5 0,-47z" />
<path style="fill:#999" d="M515,62 l-42,0 0,47 42,0 0,-47z" />
<path style="fill:#b2b2b2" d="M57,52 l-42,0 0,10 42,0 0,-10z" />
<path style="fill:#b2b2b2" d="M473,52 l-41,-26 -334,0 -41,26 0,10 41,-10 334,0 41,10 0,-10z" />
<path style="fill:#b2b2b2" d="M515,52 l-42,0 0,10 42,0 0,-10z" />
<path style="fill:#999" d="M57,41 l-42,0 0,11 42,0 0,-11z" />
<path style="fill:#999" d="M473,46 l-41,-31 -334,0 -41,31 0,6 41,-21 334,0 41,21 0,-6z" />
<path style="fill:#999" d="M515,41 l-42,0 0,11 42,0 0,-11z" />
<path style="fill:#e5e5e5" d="M57,54 l-42,0 0,3 42,0 0,-3z" />
<path style="fill:#e5e5e5" d="M452,46 l-20,-10 -334,0 -21,10 32,-5 312,0 31,5z" />
<path style="fill:#e5e5e5" d="M515,54 l-42,0 0,3 42,0 0,-3z" />
<path style="fill:none;stroke:#000;stroke-width:2" d="M432,275 l0,-67" />
<path style="fill:none;stroke:#000;stroke-width:2" d="M98,275 l0,-67" />
<path style="fill:none;stroke:#000;stroke-width:2" d="M473,255 l0,-209 -41,-31 -334,0 -41,31 0,209 41,31 334,0 41,-31" />
<path style="fill:none;stroke:#000;stroke-width:2" d="M36,41 l-21,0 0,219 21,0 0,-219" />
<path style="fill:none;stroke:#000;stroke-width:2" d="M57,41 l-21,0 0,219 21,0 0,-219" />
<path style="fill:none;stroke:#000;stroke-width:2" d="M494,41 l-21,0 0,219 21,0 0,-219" />
<path style="fill:none;stroke:#000;stroke-width:2" d="M515,41 l-21,0 0,219 21,0 0,-219" />
<path style="fill:none;stroke:#7f7f7f;stroke-width:2" d="M432,104 l0,-84" />
<path style="fill:none;stroke:#7f7f7f;stroke-width:2" d="M98,104 l0,-84" />

</svg>
