<?xml version="1.0" encoding="utf-8" standalone="no"?><!DOCTYPE svg PUBLIC "-//W3C//DTD SVG 1.1//EN" "http://www.w3.org/Graphics/SVG/1.1/DTD/svg11-flat-20030114.dtd"><svg width="822" height="999" version="1.1" xmlns="http://www.w3.org/2000/svg" xmlns:xlink="http://www.w3.org/1999/xlink">

<path style="fill:#000;stroke:#000;stroke-width:2" d="M470,234 l-118,0 0,88 118,0 0,-88z" />
<circle style="fill:#000;stroke:#000;stroke-width:2" cx="411" cy="145" r="118" />
<circle style="fill:#7f7f7f;stroke:#000;stroke-width:2" cx="410" cy="145" r="102" />
<circle style="fill:#000;stroke:#000;stroke-width:2" cx="411" cy="145" r="59" />
<path style="fill:#7f7f7f;stroke:#000;stroke-width:2" d="M322,499 l30,-177 118,0 29,177 0,236 -177,0 0,-236z" />
<path style="fill:#7f7f7f;stroke:#000;stroke-width:2" d="M529,617 l-236,0 0,235 236,0 0,-235z" />
<path style="fill:#7f7f7f;stroke:#000;stroke-width:2" d="M529,646 l117,0 0,177 -117,0 0,-177z" />
<path style="fill:#7f7f7f;stroke:#000;stroke-width:2" d="M293,646 l-118,0 0,177 118,0 0,-177z" />
<path style="fill:#7f7f7f;stroke:#000;stroke-width:2" d="M646,646 l89,-29 -1,235 -88,-29 0,-177z" />
<path style="fill:#7f7f7f;stroke:#000;stroke-width:2" d="M175,823 l-88,29 0,-235 87,29 1,177z" />
<path style="fill:#7f7f7f;stroke:#000;stroke-width:2" d="M794,499 l-59,0 0,471 59,0 0,-471z" />
<path style="fill:#7f7f7f;stroke:#000;stroke-width:2" d="M87,499 l-59,0 0,471 59,0 0,-471z" />
<path style="fill:#000;stroke:#000;stroke-width:2" d="M558,646 l-29,0 0,177 29,0 0,-177z" />
<path style="fill:#000;stroke:#000;stroke-width:2" d="M293,646 l-30,0 0,177 30,0 0,-177z" />

</svg>
