<?xml version="1.0" encoding="utf-8" standalone="no"?><!DOCTYPE svg PUBLIC "-//W3C//DTD SVG 1.1//EN" "http://www.w3.org/Graphics/SVG/1.1/DTD/svg11-flat-20030114.dtd"><svg width="215" height="530" version="1.1" xmlns="http://www.w3.org/2000/svg" xmlns:xlink="http://www.w3.org/1999/xlink">

<path style="fill:#7f7f7f" d="M16,108 l0,407 184,0 0,-407 -184,0z" />
<path style="fill:#999" d="M27,108 l0,407 161,0 0,-407 -161,0z" />
<path style="fill:#b2b2b2" d="M44,108 l0,407 127,0 0,-407 -127,0z" />
<path style="fill:#ccc" d="M67,108 l0,407 81,0 0,-407 -81,0z" />
<path style="fill:#e5e5e5" d="M87,108 l0,407 41,0 0,-407 -41,0z" />
<path style="fill:#fff" d="M105,108 l0,407 5,0 0,-407 -5,0z" />
<path style="fill:none;stroke:#000;stroke-width:2" d="M15,108 l0,407 185,0 0,-407 -185,0" />
<path style="fill:#7f7f7f" d="M107,108 l93,0 -2,-19 -5,-17 -9,-16 -11,-14 -14,-11 -16,-9 -17,-5 -19,-2 -19,2 -17,5 -16,9 -13,11 -11,14 -9,16 -5,17 -2,19 92,0z" />
<path style="fill:#999" d="M107,108 l81,0 -2,-19 -4,-17 -8,-16 -10,-14 -12,-11 -13,-9 -16,-5 -16,-2 -16,2 -15,5 -14,9 -12,11 -10,14 -8,16 -4,17 -2,19 81,0z" />
<path style="fill:#b2b2b2" d="M107,108 l64,0 -1,-19 -4,-17 -6,-16 -8,-14 -9,-11 -11,-9 -12,-5 -13,-2 -13,2 -12,5 -10,9 -10,11 -7,14 -6,16 -4,17 -1,19 63,0z" />
<path style="fill:#ccc" d="M107,108 l41,0 -1,-19 -2,-17 -4,-16 -5,-14 -6,-11 -7,-9 -8,-5 -8,-2 -8,2 -8,5 -6,9 -6,11 -5,14 -4,16 -2,17 -1,19 40,0z" />
<path style="fill:#e5e5e5" d="M107,108 l21,0 0,-19 -2,-17 -1,-16 -3,-14 -3,-11 -4,-9 -4,-5 -4,-2 -4,2 -4,5 -3,9 -3,11 -3,14 -1,16 -2,17 0,19 20,0z" />
<ellipse style="fill:#fff" cx="107" cy="61" rx="2" ry="46" />
<path style="fill:none;stroke:#000;stroke-width:2" d="M107,108 l93,0 -2,-19 -5,-17 -9,-16 -11,-14 -14,-11 -16,-9 -17,-5 -19,-2 -19,2 -17,5 -16,9 -13,11 -11,14 -9,16 -5,17 -2,19 92,0" />
<path style="fill:#000;stroke:#000;stroke-width:2" d="M117,145 l-19,0 0,259 19,0 0,-259z" />
<path style="fill:#000;stroke:#000;stroke-width:2" d="M117,24 l-19,0 0,65 19,0 0,-65z" />

</svg>
