<?xml version="1.0" encoding="utf-8" standalone="no"?><!DOCTYPE svg PUBLIC "-//W3C//DTD SVG 1.1//EN" "http://www.w3.org/Graphics/SVG/1.1/DTD/svg11-flat-20030114.dtd"><svg width="999" height="821" version="1.1" xmlns="http://www.w3.org/2000/svg" xmlns:xlink="http://www.w3.org/1999/xlink">

<path style="fill:#000;stroke:#000;stroke-width:2" d="M263,101 l-111,0 0,66 111,0 0,-66z" />
<path style="fill:#e5e5e5;stroke:#000;stroke-width:2" d="M757,197 l-22,-111 -472,0 -22,111 516,0z" />
<path style="fill:#4040c6;stroke:#000;stroke-width:2" d="M116,205 l-88,0 0,588 88,0 0,-588z" />
<path style="fill:#4040c6;stroke:#000;stroke-width:2" d="M882,322 l-766,0 0,354 766,0 0,-354z" />
<path style="fill:#4040c6;stroke:#000;stroke-width:2" d="M970,205 l-88,0 0,588 88,0 0,-588z" />
<path style="fill:#0000b2" d="M109,623 l-74,0 0,162 74,0 0,-162z" />
<path style="fill:#0000b2" d="M874,557 l-750,0 0,112 750,0 0,-112z" />
<path style="fill:#0000b2" d="M963,623 l-74,0 0,162 74,0 0,-162z" />
<path style="fill:#0000b2" d="M742,263 l-486,0 0,59 486,0 0,-59z" />
<path style="fill:#6666d1" d="M109,278 l-74,0 0,66 74,0 0,-66z" />
<path style="fill:#6666d1" d="M874,360 l-750,0 0,35 750,0 0,-35z" />
<path style="fill:#6666d1" d="M963,278 l-74,0 0,66 74,0 0,-66z" />
<path style="fill:#2727be;stroke:#000;stroke-width:2" d="M622,388 l-247,0 0,228 247,0 0,-228z" />
<path style="fill:#ccc;stroke:#000;stroke-width:2" d="M838,197 l-678,0 0,59 678,0 0,-59z" />
<path style="fill:#000;stroke:#000;stroke-width:2" d="M831,256 l-664,0 0,7 664,0 0,-7z" />
<path style="fill:#e5e5e5;stroke:#000;stroke-width:2" d="M256,182 l-96,0 0,74 96,0 0,-74z" />
<path style="fill:#e5e5e5;stroke:#000;stroke-width:2" d="M838,182 l-96,0 0,74 96,0 0,-74z" />
<path style="fill:#999;stroke:#000;stroke-width:2" d="M241,182 l-21,0 0,-30 21,0 0,30z" />
<path style="fill:#999;stroke:#000;stroke-width:2" d="M823,182 l-22,0 0,-30 22,0 0,30z" />
<path style="fill:#666;stroke:#000;stroke-width:2" d="M220,182 l-45,0 0,-30 45,0 0,30z" />
<path style="fill:#666;stroke:#000;stroke-width:2" d="M801,182 l-44,0 0,-30 44,0 0,30z" />
<path style="fill:#5252cb;stroke:#000;stroke-width:2" d="M256,263 l-96,0 0,74 96,0 0,-74z" />
<path style="fill:#5252cb;stroke:#000;stroke-width:2" d="M838,263 l-96,0 0,74 96,0 0,-74z" />
<path style="fill:#c93;stroke:#000;stroke-width:2" d="M248,88 l22,-16 23,-11 28,-10 32,-9 26,-5 29,-4 29,-3 31,-2 10,0 10,0 11,0 32,0 30,2 29,3 28,4 26,5 32,8 28,10 24,11 18,12 4,3 -502,2z" />
<path style="fill:#d1a300;stroke:#000;stroke-width:2" d="M557,86 l-15,-23 -86,0 -15,23 116,0z" />
<path style="fill:#ccc" d="M735,124 l-8,-30 -456,0 -8,30 472,0z" />

</svg>
