<?xml version="1.0" encoding="utf-8" standalone="no"?><!DOCTYPE svg PUBLIC "-//W3C//DTD SVG 1.1//EN" "http://www.w3.org/Graphics/SVG/1.1/DTD/svg11-flat-20030114.dtd"><svg width="498" height="999" version="1.1" xmlns="http://www.w3.org/2000/svg" xmlns:xlink="http://www.w3.org/1999/xlink">

<path style="fill:#000;stroke:#000;stroke-width:2" d="M433,970 l37,-36 -1,-405 -404,0 -37,37 0,404 405,0z" />
<path style="fill:#7f7f7f;stroke:#000;stroke-width:2" d="M433,565 l-405,0 0,405 405,0 0,-405z" />
<path style="fill:#7f7f7f;stroke:#000;stroke-width:2" d="M208,543 l0,4 2,3 4,3 4,3 5,2 7,2 7,0 7,1 7,-1 7,0 6,-2 6,-2 4,-3 4,-3 2,-3 1,-4 0,-95 -73,0 0,95z" />
<path style="fill:#000;stroke:#000;stroke-width:2" d="M214,544 l0,-83 12,0 0,89 -12,-6z" />
<path style="fill:#e5e5e5;stroke:#000;stroke-width:2" d="M56,469 l386,0 3,-1 10,-26 6,-38 4,-33 2,-37 2,-42 0,-22 0,-22 0,-44 -2,-42 -2,-37 -4,-32 -4,-27 -7,-29 -5,-8 -3,-1 -387,0 -2,1 -11,26 -6,38 -3,33 -3,37 -2,41 0,21 0,23 0,44 2,42 3,37 3,33 4,27 8,28 5,9 3,1z" />
<path style="fill:none;stroke:#000;stroke-width:2" d="M442,28 l-3,1 -11,26 -6,38 -4,33 -2,37 -2,42 0,21 0,45 1,43 2,39 3,36 4,29 7,33 8,17 3,1" />
<path style="fill:#fff" d="M400,161 l-364,0 0,58 364,0 0,-58z" />
<path style="fill:#000" d="M425,461 l-7,-32 -370,0 7,32 370,0z" />
<path style="fill:#7f7f7f" d="M425,34 l-7,32 -370,0 7,-32 370,0z" />

</svg>
