<?xml version="1.0" encoding="utf-8" standalone="no"?><!DOCTYPE svg PUBLIC "-//W3C//DTD SVG 1.1//EN" "http://www.w3.org/Graphics/SVG/1.1/DTD/svg11-flat-20030114.dtd"><svg width="999" height="999" version="1.1" xmlns="http://www.w3.org/2000/svg" xmlns:xlink="http://www.w3.org/1999/xlink">

<path style="fill:#000;stroke:#000;stroke-width:2" d="M764,588 l-530,0 0,58 530,0 0,-58z" />
<path style="fill:#000;stroke:#000;stroke-width:2" d="M676,146 l-354,0 0,-73 354,0 0,73z" />
<path style="fill:#ff9e59;stroke:#000;stroke-width:2" d="M913,264 l-828,0 0,294 828,0 0,-294z" />
<path style="fill:#ffbe90" d="M905,272 l-812,0 0,42 812,0 0,-42z" />
<path style="fill:#ff7d21" d="M905,493 l-812,0 0,58 812,0 0,-58z" />
<path style="fill:#ff7d21;stroke:#000;stroke-width:2" d="M764,706 l-30,264 -470,0 -30,-264 530,0z" />
<path style="fill:#333;stroke:#000;stroke-width:2" d="M691,73 l0,-30 -30,-15 -324,0 -30,15 0,30 384,0z" />
<path style="fill:#333;stroke:#000;stroke-width:2" d="M706,249 l0,-73 -30,-30 -354,0 -30,30 0,73 414,0z" />
<path style="fill:#ff9143;stroke:#000;stroke-width:2" d="M85,176 l-57,0 0,470 57,0 0,-470z" />
<path style="fill:#ff9143;stroke:#000;stroke-width:2" d="M734,249 l-470,0 0,309 470,0 0,-309z" />
<path style="fill:#ff9143;stroke:#000;stroke-width:2" d="M970,176 l-57,0 0,470 57,0 0,-470z" />
<path style="fill:#999;stroke:#000;stroke-width:2" d="M558,525 l-30,0 0,194 30,0 0,-194z" />
<path style="fill:#999;stroke:#000;stroke-width:2" d="M734,525 l-28,0 0,194 28,0 0,-194z" />
<path style="fill:#999;stroke:#000;stroke-width:2" d="M646,525 l-30,0 0,194 30,0 0,-194z" />
<path style="fill:#999;stroke:#000;stroke-width:2" d="M470,525 l-30,0 0,194 30,0 0,-194z" />
<path style="fill:#999;stroke:#000;stroke-width:2" d="M382,525 l-30,0 0,194 30,0 0,-194z" />
<path style="fill:#999;stroke:#000;stroke-width:2" d="M292,525 l-28,0 0,194 28,0 0,-194z" />
<path style="fill:#ff9e59;stroke:#000;stroke-width:2" d="M794,528 l-590,0 0,60 590,0 0,-60z" />
<path style="fill:#ff9e59;stroke:#000;stroke-width:2" d="M794,646 l-590,0 0,60 590,0 0,-60z" />
<path style="fill:#ff7d21" d="M83,518 l-50,0 0,125 50,0 0,-125z" />
<path style="fill:#ff7d21" d="M968,518 l-53,0 0,125 53,0 0,-125z" />
<path style="fill:#ffbe90" d="M83,179 l-50,0 0,100 50,0 0,-100z" />
<path style="fill:#ffbe90" d="M968,179 l-53,0 0,100 53,0 0,-100z" />

</svg>
