<?xml version="1.0" encoding="utf-8" standalone="no"?><!DOCTYPE svg PUBLIC "-//W3C//DTD SVG 1.1//EN" "http://www.w3.org/Graphics/SVG/1.1/DTD/svg11-flat-20030114.dtd"><svg width="132" height="530" version="1.1" xmlns="http://www.w3.org/2000/svg" xmlns:xlink="http://www.w3.org/1999/xlink">

<path style="fill:#e5e5e5" d="M110,21 l-7,-6 -59,0 -7,6 0,3 73,0 0,-3z" />
<path style="fill:#999;stroke:#000;stroke-width:2" d="M110,38 l7,-9 0,-7 -7,-1 0,17z" />
<path style="fill:#ccc" d="M110,88 l0,-67 -73,0 0,67 73,0z" />
<path style="fill:#b2b2b2" d="M101,88 l0,-50 9,-9 0,59 -9,0z" />
<path style="fill:#b2b2b2" d="M47,88 l0,-50 -10,-9 0,59 10,0z" />
<path style="fill:none;stroke:#000;stroke-width:2" d="M110,21 l-7,-6 -59,0 -7,6 0,3 73,0 0,-3" />
<path style="fill:none;stroke:#000;stroke-width:2" d="M110,88 l0,-64 -73,0 0,64 73,0" />
<ellipse style="fill:#ccc;stroke:#000;stroke-width:2" cx="33" cy="34" rx="3" ry="8" />
<circle style="fill:#7f7f7f;stroke:#000;stroke-width:2" cx="33" cy="39" r="2" />
<path style="fill:#999;stroke:#000;stroke-width:2" d="M103,92 l0,-4 -4,0 0,4 4,0z" />
<path style="fill:#999;stroke:#000;stroke-width:2" d="M49,92 l0,-4 -5,0 0,4 5,0z" />
<path style="fill:#ccc;stroke:#000;stroke-width:2" d="M103,95 l0,-3 -4,0 0,3 4,0z" />
<path style="fill:#ccc;stroke:#000;stroke-width:2" d="M49,95 l0,-3 -5,0 0,3 5,0z" />
<path style="fill:#b2b2b2;stroke:#000;stroke-width:2" d="M82,88 l-16,0 0,16 16,0 0,-16z" />
<path style="fill:#999;stroke:#000;stroke-width:2" d="M82,90 l-4,0 0,10 4,0 0,-10z" />
<path style="fill:#999;stroke:#000;stroke-width:2" d="M76,90 l-3,0 0,10 3,0 0,-10z" />
<path style="fill:#999;stroke:#000;stroke-width:2" d="M70,90 l-3,0 0,10 3,0 0,-10z" />
<path style="fill:#7f7f7f" d="M81,515 l0,-411 -14,0 0,411 14,0z" />
<path style="fill:#999" d="M80,515 l0,-411 -12,0 0,411 12,0z" />
<path style="fill:#b2b2b2" d="M78,515 l0,-411 -9,0 0,411 9,0z" />
<path style="fill:#ccc" d="M77,515 l0,-411 -6,0 0,411 6,0z" />
<path style="fill:#e5e5e5" d="M75,515 l0,-411 -3,0 0,411 3,0z" />
<path style="fill:none;stroke:#000;stroke-width:2" d="M81,515 l0,-411 -14,0 0,411 14,0" />
<path style="fill:#7f7f7f" d="M117,170 l0,-7 -102,0 0,7 102,0z" />
<path style="fill:#999" d="M110,170 l0,-7 -89,0 0,7 89,0z" />
<path style="fill:#b2b2b2" d="M101,170 l0,-7 -70,0 0,7 70,0z" />
<path style="fill:#ccc" d="M88,170 l0,-7 -44,0 0,7 44,0z" />
<path style="fill:#e5e5e5" d="M77,170 l0,-7 -22,0 0,7 22,0z" />
<path style="fill:#fff" d="M67,170 l0,-7 -3,0 0,7 3,0z" />
<path style="fill:none;stroke:#000;stroke-width:2" d="M117,170 l0,-7 -102,0 0,7 102,0" />
<path style="fill:#7f7f7f" d="M62,260 l6,0 0,-12 -6,0 0,12z" />
<path style="fill:#999" d="M62,260 l6,0 0,-11 -6,0 0,11z" />
<path style="fill:#b2b2b2" d="M62,258 l7,0 0,-8 -7,0 0,8z" />
<path style="fill:#ccc" d="M62,257 l10,0 0,-6 -10,0 0,6z" />
<path style="fill:#e5e5e5" d="M62,256 l11,0 0,-3 -11,0 0,3z" />
<path style="fill:none;stroke:#000;stroke-width:2" d="M67,248 l-5,0 0,12 5,0" />
<path style="fill:#7f7f7f" d="M62,484 l6,0 0,-12 -6,0 0,12z" />
<path style="fill:#999" d="M62,483 l6,0 0,-11 -6,0 0,11z" />
<path style="fill:#b2b2b2" d="M62,482 l7,0 0,-8 -7,0 0,8z" />
<path style="fill:#ccc" d="M62,481 l10,0 0,-6 -10,0 0,6z" />
<path style="fill:#e5e5e5" d="M62,479 l11,0 0,-2 -11,0 0,2z" />
<path style="fill:none;stroke:#000;stroke-width:2" d="M67,472 l-5,0 0,12 5,0" />
<path style="fill:#ccc;fill-rule:evenodd" d="M62,480 l-17,0 0,1 17,0 0,-1z M62,475 l-17,0 0,1 17,0 0,-1z M67,452 l-32,19 0,13 32,20 0,-3 -30,-18 0,-11 30,-17 0,-3z M62,256 l-17,0 0,1 17,0 0,-1z M62,251 l-17,0 0,2 17,0 0,-2z M67,229 l-32,18 0,13 32,20 0,-3 -30,-18 0,-11 30,-17 0,-2z " />
<path style="fill:none;stroke:#000;stroke-width:2" d="M62,480 l-17,0 0,1 17,0 0,-1" />
<path style="fill:none;stroke:#000;stroke-width:2" d="M62,475 l-17,0 0,1 17,0 0,-1" />
<path style="fill:none;stroke:#000;stroke-width:2" d="M67,452 l-32,19 0,13 32,20 0,-3 -30,-18 0,-11 30,-17 0,-3" />
<path style="fill:none;stroke:#000;stroke-width:2" d="M62,256 l-17,0 0,1 17,0 0,-1" />
<path style="fill:none;stroke:#000;stroke-width:2" d="M62,251 l-17,0 0,2 17,0 0,-2" />
<path style="fill:none;stroke:#000;stroke-width:2" d="M67,229 l-32,18 0,13 32,20 0,-3 -30,-18 0,-11 30,-17 0,-2" />

</svg>
