<?xml version="1.0" encoding="utf-8" standalone="no"?><!DOCTYPE svg PUBLIC "-//W3C//DTD SVG 1.1//EN" "http://www.w3.org/Graphics/SVG/1.1/DTD/svg11-flat-20030114.dtd"><svg width="999" height="527" version="1.1" xmlns="http://www.w3.org/2000/svg" xmlns:xlink="http://www.w3.org/1999/xlink">

<path style="fill:#0ff;stroke:#000;stroke-width:2" d="M852,28 l-392,0 0,471 392,0 0,-471z" />
<path style="fill:#0ff;stroke:#000;stroke-width:2" d="M852,381 l79,0 39,-39 0,-157 -39,-39 -79,0 0,235z" />
<path style="fill:#0ff;stroke:#000;stroke-width:2" d="M460,146 l-256,0 0,235 256,0 0,-235z" />
<path style="fill:#0ff;stroke:#000;stroke-width:2" d="M204,204 l-117,0 0,118 117,0 0,-118z" />
<path style="fill:#0ff;stroke:#000;stroke-width:2" d="M87,224 l-59,0 0,79 59,0 0,-79z" />
<path style="fill:none;stroke:#000;stroke-width:2" d="M185,322 l0,-118" />
<path style="fill:none;stroke:#000;stroke-width:2" d="M165,322 l0,-118" />
<path style="fill:none;stroke:#000;stroke-width:2" d="M146,322 l0,-118" />
<path style="fill:none;stroke:#000;stroke-width:2" d="M126,322 l0,-118" />
<path style="fill:none;stroke:#000;stroke-width:2" d="M106,322 l0,-118" />
<path style="fill:none;stroke:#000;stroke-width:2" d="M735,28 l0,471" />
<path style="fill:none;stroke:#000;stroke-width:2" d="M931,381 l0,-235" />

</svg>
