<?xml version="1.0" encoding="utf-8" standalone="no"?><!DOCTYPE svg PUBLIC "-//W3C//DTD SVG 1.1//EN" "http://www.w3.org/Graphics/SVG/1.1/DTD/svg11-flat-20030114.dtd"><svg width="999" height="743" version="1.1" xmlns="http://www.w3.org/2000/svg" xmlns:xlink="http://www.w3.org/1999/xlink">

<path style="fill:#0ff;stroke:#000;stroke-width:2" d="M950,715 l0,-118 20,-19 0,-216 -20,-20 0,-98 -58,0 0,98 -59,-20 0,-39 -13,-2 5,-22 -74,-14 -4,21 -12,-3 -20,40 -39,0 0,-20 29,0 0,-20 -10,0 0,-58 -9,-10 -59,0 -10,10 0,-40 -20,-19 0,-98 -19,-20 -158,0 -19,20 0,98 -20,19 0,40 -10,-10 -59,0 -9,10 0,58 -10,0 0,20 29,0 0,20 -176,78 -40,-19 0,-118 -59,0 0,98 -19,20 0,216 19,19 0,118 59,0 0,-78 59,-59 177,0 39,19 39,79 158,0 19,-39 255,-59 40,19 0,118 58,0z" />
<path style="fill:none;stroke:#000;stroke-width:2" d="M597,637 l-98,0 -118,-40" />
<path style="fill:none;stroke:#000;stroke-width:2" d="M342,578 l-39,-20 -49,-10 -50,10 -39,20" />
<path style="fill:none;stroke:#000;stroke-width:2" d="M950,597 l0,-255" />
<path style="fill:none;stroke:#000;stroke-width:2" d="M47,597 l0,-255" />
<path style="fill:none;stroke:#000;stroke-width:2" d="M676,283 l-354,0" />
<circle style="fill:none;stroke:#000;stroke-width:2" cx="793" cy="460" r="58" />
<circle style="fill:none;stroke:#000;stroke-width:2" cx="204" cy="460" r="58" />
<path style="fill:none;stroke:#000;stroke-width:2" d="M892,342 l0,255" />
<path style="fill:none;stroke:#000;stroke-width:2" d="M106,637 l0,-275" />
<path style="fill:none;stroke:#000;stroke-width:2" d="M695,205 l-392,0" />
<path style="fill:none;stroke:#000;stroke-width:2" d="M401,146 l196,0" />
<path style="fill:none;stroke:#000;stroke-width:2" d="M381,165 l236,0" />
<path style="fill:none;stroke:#000;stroke-width:2" d="M499,146 l0,19" />
<path style="fill:none;stroke:#000;stroke-width:2" d="M538,146 l0,19" />
<path style="fill:none;stroke:#000;stroke-width:2" d="M460,146 l0,19" />
<path style="fill:none;stroke:#000;stroke-width:2" d="M820,281 l-73,-15" />
<path style="fill:none;stroke:#000;stroke-width:2" d="M801,277 l4,-22" />
<path style="fill:none;stroke:#000;stroke-width:2" d="M766,269 l4,-21" />
<path style="fill:none;stroke:#000;stroke-width:2" d="M695,263 l0,20" />
<path style="fill:none;stroke:#000;stroke-width:2" d="M303,263 l0,20" />

</svg>
