<?xml version="1.0" encoding="utf-8" standalone="no"?><!DOCTYPE svg PUBLIC "-//W3C//DTD SVG 1.1//EN" "http://www.w3.org/Graphics/SVG/1.1/DTD/svg11-flat-20030114.dtd"><svg width="763" height="999" version="1.1" xmlns="http://www.w3.org/2000/svg" xmlns:xlink="http://www.w3.org/1999/xlink">

<path style="fill:#e5e5e5;stroke:#000;stroke-width:2" d="M145,499 l-117,0 0,471 117,0 0,-471z" />
<path style="fill:#e5e5e5;stroke:#000;stroke-width:2" d="M616,618 l-471,0 0,235 471,0 0,-235z" />
<path style="fill:#e5e5e5;stroke:#000;stroke-width:2" d="M735,499 l-119,0 0,471 119,0 0,-471z" />
<path style="fill:#b2b2b2" d="M456,28 l-142,0 0,81 142,0 0,-81z" />
<path style="fill:#ccc" d="M437,28 l-104,0 0,81 104,0 0,-81z" />
<path style="fill:#e5e5e5" d="M409,28 l-48,0 0,81 48,0 0,-81z" />
<path style="fill:#fff" d="M390,28 l-10,0 0,81 10,0 0,-81z" />
<path style="fill:none;stroke:#000;stroke-width:2" d="M456,28 l-142,0 0,81 142,0 0,-81" />
<path style="fill:#ccc" d="M139,801 l-104,0 0,162 104,0 0,-162z" />
<path style="fill:#ccc" d="M610,776 l-458,0 0,70 458,0 0,-70z" />
<path style="fill:#ccc" d="M727,801 l-104,0 0,162 104,0 0,-162z" />
<path style="fill:#fff" d="M139,550 l-104,0 0,73 104,0 0,-73z" />
<path style="fill:#fff" d="M610,638 l-458,0 0,33 458,0 0,-33z" />
<path style="fill:#fff" d="M727,550 l-104,0 0,73 104,0 0,-73z" />
<path style="fill:#4c4c4c;stroke:#000;stroke-width:2" d="M333,637 l1,3 3,3 5,3 6,3 8,2 9,1 10,1 11,1 10,-1 10,-1 9,-1 7,-2 6,-3 5,-3 3,-3 1,-3 0,-230 -104,0 0,230z" />
<path style="fill:#999;stroke:#000;stroke-width:2" d="M456,516 l-142,0 0,49 142,0 0,-49z" />
<path style="fill:#999;stroke:#000;stroke-width:2" d="M456,388 l-142,0 0,66 142,0 0,-66z" />
<path style="fill:#b2b2b2" d="M427,388 l-84,0 0,66 84,0 0,-66z" />
<path style="fill:#ccc" d="M399,388 l-28,0 0,66 28,0 0,-66z" />
<path style="fill:#ccc;stroke:#000;stroke-width:2" d="M409,516 l-70,0 0,49 70,0 0,-49z" />
<path style="fill:#b2b2b2" d="M456,478 l-142,0 0,23 142,0 0,-23z" />
<path style="fill:#b2b2b2;stroke:#000;stroke-width:2" d="M456,580 l-142,0 0,23 142,0 0,-23z" />
<path style="fill:#ccc" d="M441,478 l-110,0 0,23 110,0 0,-23z" />
<path style="fill:#ccc" d="M441,580 l-110,0 0,23 110,0 0,-23z" />
<path style="fill:#e5e5e5" d="M416,478 l-62,0 0,23 62,0 0,-23z" />
<path style="fill:#e5e5e5" d="M416,580 l-62,0 0,23 62,0 0,-23z" />
<path style="fill:#fff" d="M393,580 l-17,0 0,23 17,0 0,-23z" />
<path style="fill:#fff" d="M393,478 l-17,0 0,23 17,0 0,-23z" />
<path style="fill:none;stroke:#000;stroke-width:2" d="M456,478 l-142,0 0,23 142,0 0,-23" />
<circle style="fill:#ccc" cx="381" cy="248" r="169" />
<path style="fill:#fff" d="M380,248 l121,121 21,-26 15,-29 10,-32 3,-34 -4,-34 -9,-31 -16,-29 -20,-25 -26,-21 -28,-16 -32,-10 -35,-3 -32,3 -32,10 -29,16 -25,22 118,118z" />
<circle style="fill:#e5e5e5;stroke:#7f7f7f;stroke-width:2" cx="381" cy="248" r="159" />
<circle style="fill:none;stroke:#000;stroke-width:2" cx="381" cy="248" r="169" />
<path style="fill:#ccc" d="M378,139 l6,-6 -72,-15 -3,6 7,30 62,-15z" />
<path style="fill:#ccc" d="M444,384 l6,-6 -72,-15 -3,6 7,30 62,-15z" />
<path style="fill:#fff;stroke:#7f7f7f;stroke-width:2" d="M382,133 l-7,-32 -61,17 8,32 60,-17z" />
<path style="fill:#fff;stroke:#7f7f7f;stroke-width:2" d="M448,378 l-7,-30 -63,15 10,32 60,-17z" />
<circle style="fill:#e5e5e5;stroke:#7f7f7f;stroke-width:2" cx="422" cy="237" r="21" />

</svg>
