<?xml version="1.0" encoding="utf-8" standalone="no"?><!DOCTYPE svg PUBLIC "-//W3C//DTD SVG 1.1//EN" "http://www.w3.org/Graphics/SVG/1.1/DTD/svg11-flat-20030114.dtd"><svg width="530" height="416" version="1.1" xmlns="http://www.w3.org/2000/svg" xmlns:xlink="http://www.w3.org/1999/xlink">

<path style="fill:#7f7f7f;stroke:#000;stroke-width:2" d="M142,136 l-98,30 -29,-30 0,-117 294,0 18,1 19,3 18,5 17,7 18,9 17,10 15,11 15,13 14,14 13,15 11,15 9,17 8,17 5,17 4,18 1,18 -1,18 -3,18 -5,17 -7,17 -8,17 -10,15 -11,15 -13,13 -13,13 -15,11 -15,10 -17,8 -17,7 -17,5 -18,3 -18,1 -18,-1 -18,-4 -17,-5 -17,-8 -17,-9 -15,-11 -15,-13 -14,-14 -13,-15 -11,-16 -10,-16 -9,-18 -7,-18 -5,-18 -3,-19 -1,-18 1,-14 1,-15 3,-15 4,-14z" />
<path style="fill:#b2b2b2;stroke:#000;stroke-width:2" d="M172,166 l-128,0 0,-118 295,0 18,1 17,3 17,4 16,6 16,7 14,9 14,10 12,12 12,12 10,14 9,14 7,16 6,16 4,17 3,17 1,18 -1,18 -3,17 -4,17 -6,17 -7,15 -9,15 -10,13 -12,13 -12,11 -14,11 -14,8 -16,8 -16,6 -17,4 -17,3 -18,1 -18,-1 -17,-3 -17,-4 -17,-6 -15,-8 -15,-8 -13,-11 -13,-11 -11,-13 -11,-13 -8,-15 -8,-15 -6,-17 -4,-17 -3,-17 -1,-18 1,-15 2,-14 3,-15 4,-14z" />
<path style="fill:none;stroke:#000;stroke-width:2" d="M44,48 l-29,-33" />

</svg>
