<?xml version="1.0" encoding="utf-8" standalone="no"?><!DOCTYPE svg PUBLIC "-//W3C//DTD SVG 1.1//EN" "http://www.w3.org/Graphics/SVG/1.1/DTD/svg11-flat-20030114.dtd"><svg width="998" height="684" version="1.1" xmlns="http://www.w3.org/2000/svg" xmlns:xlink="http://www.w3.org/1999/xlink">

<path style="fill:#366" d="M146,301 l-60,0 0,158 60,0 0,-158z" />
<path style="fill:#366" d="M184,28 l-38,0 0,175 38,0 0,-175z" />
<path style="fill:#699" d="M139,301 l-46,0 0,158 46,0 0,-158z" />
<path style="fill:#699" d="M180,28 l-30,0 0,175 30,0 0,-175z" />
<path style="fill:#9cc" d="M129,301 l-28,0 0,158 28,0 0,-158z" />
<path style="fill:#9cc" d="M174,28 l-18,0 0,175 18,0 0,-175z" />
<path style="fill:#033;stroke:#000;stroke-width:2" d="M303,224 l511,0 0,432 -511,0 0,-432z" />
<path style="fill:#001919" d="M612,337 l-270,0 0,102 93,0 0,118 177,0 0,-220z" />
<path style="fill:none;stroke:#000;stroke-width:2" d="M146,301 l-60,0 0,158 60,0 0,-158" />
<path style="fill:none;stroke:#000;stroke-width:2" d="M184,28 l-38,0 0,175 38,0 0,-175" />
<path style="fill:#0d4040" d="M361,459 l-333,0 0,197 333,0 0,-197z" />
<path style="fill:#8f8f8f" d="M735,65 l-236,0 0,315 236,0 0,-315z" />
<path style="fill:#194c4c" d="M361,463 l-333,0 0,187 333,0 0,-187z" />
<path style="fill:#265959" d="M361,469 l-333,0 0,177 333,0 0,-177z" />
<path style="fill:#366" d="M361,474 l-333,0 0,166 333,0 0,-166z" />
<path style="fill:none;stroke:#000;stroke-width:2" d="M361,459 l-333,0 0,197 333,0 0,-197" />
<path style="fill:#0d4040" d="M52,463 l-6,0 0,187 6,0 0,-187z" />
<path style="fill:#0d4040" d="M184,463 l-4,0 0,187 4,0 0,-187z" />
<path style="fill:#0d4040" d="M308,463 l-5,0 0,187 5,0 0,-187z" />
<path style="fill:#366" d="M303,420 l-119,0 0,230 119,0 0,-230z" />
<path style="fill:#0d4040" d="M303,420 l-119,0 0,24 119,0 0,-24z" />
<path style="fill:#194c4c" d="M303,429 l-119,0 0,19 119,0 0,-19z" />
<path style="fill:#265959" d="M303,439 l-119,0 0,9 119,0 0,-9z" />
<path style="fill:none;stroke:#000;stroke-width:2" d="M303,420 l-119,0 0,230 119,0 0,-230" />
<path style="fill:#366" d="M278,656 l-9,-21 -49,0 -12,21 70,0z" />
<path style="fill:#9cc" d="M271,640 l-2,-5 -49,0 -4,5 55,0z" />
<path style="fill:none;stroke:#000;stroke-width:2" d="M278,656 l-9,-21 -49,0 -12,21 70,0" />
<path style="fill:#366" d="M303,420 l-119,0 0,-98 -59,0 0,-21 -39,0 0,-77 39,0 0,-21 59,0 0,-98 119,0 0,315z" />
<path style="fill:#3b6e6e" d="M303,403 l-119,0 0,-89 -59,0 0,-17 -39,0 0,-70 39,0 0,-18 59,0 0,-87 119,0 0,281z" />
<path style="fill:#427575" d="M303,386 l-119,0 0,-78 -59,0 0,-15 -39,0 0,-62 39,0 0,-15 59,0 0,-77 119,0 0,247z" />
<path style="fill:#4a7d7d" d="M303,369 l-119,0 0,-66 -59,0 0,-13 -39,0 0,-55 39,0 0,-13 59,0 0,-66 119,0 0,213z" />
<path style="fill:#4f8282" d="M303,352 l-119,0 0,-57 -59,0 0,-11 -39,0 0,-43 39,0 0,-12 59,0 0,-56 119,0 0,179z" />
<path style="fill:#578a8a" d="M303,335 l-119,0 0,-45 -59,0 0,-10 -39,0 0,-35 39,0 0,-10 59,0 0,-45 119,0 0,145z" />
<path style="fill:#5e9191" d="M303,318 l-119,0 0,-34 -59,0 0,-7 -39,0 0,-29 39,0 0,-7 59,0 0,-34 119,0 0,111z" />
<path style="fill:#699" d="M303,301 l-119,0 0,-24 -59,0 0,-4 -39,0 0,-21 39,0 0,-4 59,0 0,-24 119,0 0,77z" />
<path style="fill:none;stroke:#000;stroke-width:2" d="M303,420 l-119,0 0,-98 -59,0 0,-21 -39,0 0,-77 39,0 0,-21 59,0 0,-98 119,0 0,315" />
<path style="fill:none;stroke:#000;stroke-width:2" d="M184,322 l0,-119" />
<path style="fill:none;stroke:#000;stroke-width:2" d="M125,224 l0,77" />
<path style="fill:#366;stroke:#000;stroke-width:2" d="M833,203 l-80,0 0,177 80,0 0,-177z" />
<path style="fill:#366;stroke:#000;stroke-width:2" d="M970,459 l-314,0 0,197 314,0 0,-197z" />
<path style="fill:#366;stroke:#000;stroke-width:2" d="M578,537 l-217,0 0,119 217,0 0,-119z" />
<path style="fill:#366;stroke:#000;stroke-width:2" d="M539,420 l-80,0 0,117 80,0 0,-117z" />
<path style="fill:#8a8a8a" d="M735,288 l-236,-176 0,268 236,0 0,-92z" />
<path style="fill:#858585" d="M735,314 l-236,-177 0,243 236,0 0,-66z" />
<path style="fill:#7f7f7f" d="M735,341 l-236,-176 0,215 236,0 0,-39z" />
<path style="fill:none;stroke:#000;stroke-width:2" d="M735,65 l-236,0 0,315 236,0 0,-315" />
<path style="fill:none;stroke:#033;stroke-width:2" d="M205,105 l0,315" />
<path style="fill:#033" d="M529,518 l-11,0 0,9 11,0 0,-9z" />
<path style="fill:#033" d="M480,518 l-11,0 0,9 11,0 0,-9z" />
<path style="fill:#033" d="M480,429 l-11,0 0,10 11,0 0,-10z" />
<path style="fill:#033" d="M529,429 l-9,0 0,10 9,0 0,-10z" />
<path style="fill:#033" d="M529,473 l-9,0 0,11 9,0 0,-11z" />
<path style="fill:#033" d="M480,473 l-11,0 0,11 11,0 0,-11z" />
<path style="fill:#033" d="M823,361 l-9,0 0,10 9,0 0,-10z" />
<path style="fill:#033" d="M774,361 l-9,0 0,10 9,0 0,-10z" />
<path style="fill:#033" d="M823,312 l-9,0 0,10 9,0 0,-10z" />
<path style="fill:#033" d="M774,312 l-9,0 0,10 9,0 0,-10z" />
<path style="fill:#033" d="M823,261 l-9,0 0,12 9,0 0,-12z" />
<path style="fill:#033" d="M774,261 l-9,0 0,12 9,0 0,-12z" />
<path style="fill:#033" d="M823,214 l-9,0 0,10 9,0 0,-10z" />
<path style="fill:#033" d="M774,214 l-9,0 0,10 9,0 0,-10z" />
<path style="fill:#366" d="M578,597 l0,59 349,0 0,-59 -349,0z" />
<path style="fill:#699" d="M578,603 l0,47 349,0 0,-47 -349,0z" />
<path style="fill:#9cc" d="M578,612 l0,28 349,0 0,-28 -349,0z" />
<path style="fill:none;stroke:#000;stroke-width:2" d="M578,597 l0,59 349,0 0,-59 -349,0" />
<path style="fill:#699" d="M965,494 l-304,0 0,5 304,0 0,-5z" />
<path style="fill:#033" d="M965,499 l-304,0 0,4 304,0 0,-4z" />
<path style="fill:#194c4c" d="M952,503 l-138,0 0,34 138,0 0,-34z" />
<path style="fill:#001919" d="M814,503 l-153,0 0,15 74,0 0,58 79,0 0,-73z" />
<path style="fill:none;stroke:#9cc;stroke-width:2" d="M952,537 l-138,0" />
<path style="fill:#ccc" d="M676,144 l-119,0 0,59 119,0 0,-59z" />
<path style="fill:#063" d="M667,154 l-49,0 0,9 49,0 0,-9z" />
<path style="fill:#fff" d="M667,169 l-25,0 0,30 25,0 0,-30z" />
<path style="fill:#4c4c4c" d="M661,175 l-15,0 0,19 15,0 0,-19z" />
<path style="fill:#4c4c4c" d="M603,169 l-21,0 0,30 21,0 0,-30z" />
<path style="fill:#fc0" d="M578,169 l-9,0 0,30 9,0 0,-30z" />
<path style="fill:#7f0000" d="M578,190 l-9,0 0,4 9,0 0,-4z" />
<path style="fill:#fff" d="M667,95 l-98,0 0,19 98,0 0,-19z" />
<path style="fill:#194c4c" d="M557,557 l-175,0 0,19 175,0 0,-19z" />

</svg>
