<?xml version="1.0" encoding="utf-8" standalone="no"?><!DOCTYPE svg PUBLIC "-//W3C//DTD SVG 1.1//EN" "http://www.w3.org/Graphics/SVG/1.1/DTD/svg11-flat-20030114.dtd"><svg width="998" height="809" version="1.1" xmlns="http://www.w3.org/2000/svg" xmlns:xlink="http://www.w3.org/1999/xlink">

<path style="fill:#0cc;stroke:#000;stroke-width:2" d="M738,755 l-95,26 -100,0 -96,-26 -85,-49 -70,-70 -51,-87 -24,-94 0,-93 -189,0 0,-334 615,0 97,24 85,51 70,70 49,85 26,97 0,100 -24,94 -51,87 -70,70 -87,49z" />
<path style="fill:#00e5e5" d="M731,736 l-91,25 -93,0 -91,-25 -81,-47 -66,-66 -47,-81 -25,-91 0,-95 25,-90 47,-80 66,-66 81,-47 91,-24 93,0 91,24 81,47 66,66 47,81 24,89 0,95 -24,91 -47,81 -66,66 -81,47z" />
<path style="fill:#099" d="M413,640 l-55,-55 -37,-68 -21,-73 0,-78 21,-76 37,-66 55,-55 66,-38 75,-20 78,0 74,19 68,39 -361,471z" />
<path style="fill:#7fffff" d="M706,677 l-74,21 -78,0 -73,-21 -68,-37 361,-471 55,55 38,66 20,76 0,78 -20,73 -38,68 -55,55 -68,37z" />
<path style="fill:#b2b2b2" d="M698,659 l-70,18 -70,0 -69,-18 -63,-36 -51,-51 -36,-63 -18,-69 0,-72 18,-68 36,-63 51,-51 63,-35 68,-20 71,0 70,20 63,35 51,51 35,63 20,68 0,72 -20,69 -35,63 -51,51 -63,36z" />
<path style="fill:#a1a1a1" d="M685,625 l-60,17 -63,0 -60,-17 -53,-31 -45,-43 -33,-55 -15,-60 0,-63 15,-62 33,-53 43,-45 55,-30 60,-18 63,0 60,18 55,30 43,45 32,53 18,62 0,63 -18,60 -32,55 -43,43 -55,31z" />
<path style="fill:#919191" d="M672,593 l-51,15 -55,0 -51,-15 -45,-27 -38,-38 -27,-47 -15,-51 0,-53 15,-51 27,-47 38,-38 45,-26 51,-13 55,0 51,13 47,26 36,38 28,47 13,51 0,53 -13,51 -26,47 -38,38 -47,27z" />
<path style="fill:#7f7f7f" d="M659,560 l-44,12 -43,0 -44,-12 -38,-22 -32,-30 -20,-40 -12,-42 0,-45 12,-42 22,-37 30,-32 38,-23 44,-11 43,0 44,11 37,23 32,32 21,37 12,42 0,45 -12,42 -21,40 -32,30 -37,22z" />
<path style="fill:#6e6e6e" d="M645,528 l-33,8 -37,0 -33,-10 -29,-17 -26,-24 -17,-30 -10,-35 0,-34 10,-33 17,-31 26,-24 29,-17 33,-10 37,0 33,10 31,17 24,24 17,31 10,33 0,34 -10,35 -17,30 -24,24 -31,19z" />
<circle style="fill:#5e5e5e" cx="593" cy="403" r="97" />
<circle style="fill:#4c4c4c" cx="593" cy="404" r="63" />
<path style="fill:none;stroke:#000;stroke-width:2" d="M698,659 l-70,18 -70,0 -69,-18 -63,-36 -51,-51 -36,-63 -18,-69 0,-72 18,-68 36,-63 51,-51 63,-35 68,-20 71,0 70,20 63,35 51,51 35,63 20,68 0,72 -20,69 -35,63 -51,51 -63,36" />
<path style="fill:#ccc" d="M585,424 l-13,-11 0,-19 13,-11 17,0 13,11 0,19 -13,11 -17,0z" />
<path style="fill:none;stroke:#fff;stroke-width:2" d="M572,413 l0,-19 13,-11 17,0" />

</svg>
