<?xml version="1.0" encoding="utf-8" standalone="no"?><!DOCTYPE svg PUBLIC "-//W3C//DTD SVG 1.1//EN" "http://www.w3.org/Graphics/SVG/1.1/DTD/svg11-flat-20030114.dtd"><svg width="999" height="544" version="1.1" xmlns="http://www.w3.org/2000/svg" xmlns:xlink="http://www.w3.org/1999/xlink">

<path style="fill:#7f7f7f;stroke:#000;stroke-width:2" d="M574,348 l0,-66 -15,0 0,66 15,0z" />
<path style="fill:#7f7f7f" d="M452,382 l0,-24 -23,0 0,24 23,0z" />
<path style="fill:#b2b2b2;fill-rule:evenodd" d="M742,182 l0,27 -7,0 0,-13 0,-14 -14,-7 -3,-13 5,-15 15,-6 14,6 7,15 -6,13 -11,7z M736,148 l10,4 4,10 -4,7 -10,4 -7,-4 -4,-7 4,-10 7,-4z " />
<path style="fill:none;stroke:#000;stroke-width:2" d="M742,182 l0,27 -7,0 0,-13 0,-14 -14,-7 -3,-13 5,-15 15,-6 14,6 7,15 -6,13 -11,7" />
<path style="fill:none;stroke:#000;stroke-width:2" d="M736,148 l10,4 4,10 -4,7 -10,4 -7,-4 -4,-7 4,-10 7,-4" />
<path style="fill:#7f7f7f;fill-rule:evenodd" d="M865,433 l7,-119 -7,-117 -276,0 -11,4 -4,10 0,211 4,7 11,4 131,0 0,21 -138,0 0,19 6,0 0,34 -170,0 0,-48 -32,0 0,48 -45,0 0,9 45,0 32,0 170,0 34,0 216,0 32,0 0,0 0,-43 0,-6 0,-13 -126,0 0,-21 121,0z M622,507 l216,0 0,-34 -216,0 0,34z " />
<path style="fill:none;stroke:#000;stroke-width:2" d="M865,433 l7,-119 -7,-117 -276,0 -11,4 -4,10 0,211 4,7 11,4 131,0 0,21 -138,0 0,19 6,0 0,34 -170,0 0,-48 -32,0 0,48 -45,0 0,9 529,0 0,-62 -126,0 0,-21 121,0" />
<path style="fill:none;stroke:#000;stroke-width:2" d="M622,507 l216,0 0,-34 -216,0 0,34" />
<path style="fill:#f0f0f0" d="M452,260 l0,-8 -23,0 0,8 23,0z" />
<path style="fill:#e5e5e5;stroke:#000;stroke-width:2" d="M865,190 l0,22 -276,0 -7,-5 11,-15 6,-2 266,0z" />
<path style="fill:#e5e5e5;stroke:#000;stroke-width:2" d="M865,212 l2,21 -283,0 -2,-4 7,-11 12,-6 264,0z" />
<path style="fill:#d1d1d1;stroke:#000;stroke-width:2" d="M867,239 l1,15 -284,0 -2,-2 17,-13 268,0z" />
<path style="fill:#d1d1d1;stroke:#000;stroke-width:2" d="M868,262 l2,16 -286,0 -2,-3 19,-13 267,0z" />
<path style="fill:#d1d1d1;stroke:#000;stroke-width:2" d="M870,286 l0,13 -284,0 -4,-4 19,-9 269,0z" />
<path style="fill:#b2b2b2;stroke:#000;stroke-width:2" d="M872,320 l0,-6 0,-3 -273,0 -19,9 6,0 286,0z" />
<path style="fill:#b2b2b2;stroke:#000;stroke-width:2" d="M870,331 l0,13 -286,0 -2,-1 19,-12 269,0z" />
<path style="fill:#b2b2b2;stroke:#000;stroke-width:2" d="M868,352 l0,17 -282,0 -2,-2 17,-15 267,0z" />
<path style="fill:#b2b2b2;stroke:#000;stroke-width:2" d="M868,376 l-1,17 -281,0 -4,-1 19,-16 267,0z" />
<path style="fill:#b2b2b2;stroke:#000;stroke-width:2" d="M867,397 l-2,21 -279,0 -4,-4 19,-17 266,0z" />
<path style="fill:none;stroke:#000;stroke-width:2" d="M452,382 l0,-134 -23,0 0,134 23,0" />
<path style="fill:#7f7f7f;stroke:#000;stroke-width:2" d="M559,218 l-107,0 0,289 107,0 0,-289z" />
<path style="fill:#7f7f7f" d="M376,463 l0,32 -13,0 0,-32 -26,0 0,-54 92,0 0,54 -53,0z" />
<path style="fill:#b2b2b2" d="M41,86 l324,0 0,-58 -324,0 0,58z" />
<path style="fill:#b2b2b2;stroke:#000;stroke-width:2" d="M28,86 l350,0 0,10 -350,0 0,-10z" />
<path style="fill:#7f7f7f" d="M28,86 l350,0 0,10 -350,0 0,-10z" />
<path style="fill:#e0e0e0" d="M35,86 l25,0 0,10 -25,0 0,-10z" />
<path style="fill:#e0e0e0" d="M162,96 l11,0 0,116 6,46 9,26 15,28 -21,-26 -13,-26 -7,-48 0,-116z" />
<path style="fill:#e0e0e0" d="M49,86 l22,0 0,-58 -22,0 0,58z" />
<path style="fill:#e0e0e0" d="M363,137 l13,0 0,15 -13,0 0,-15z" />
<path style="fill:#e0e0e0" d="M337,169 l92,0 0,11 -92,0 0,-11z" />
<path style="fill:#e0e0e0" d="M557,220 l-103,0 0,17 103,0 0,-17z" />
<path style="fill:#b2b2b2" d="M452,382 l0,-134 -23,0 0,134 23,0z" />
<path style="fill:#b2b2b2" d="M363,409 l-26,0 0,-230 26,0 0,-27 13,0 0,27 53,0 0,230 -53,0 0,18 -13,0 0,-18z" />
<path style="fill:none;stroke:#000;stroke-width:2" d="M337,167 l92,0 0,296 -92,0 0,-296" />
<path style="fill:#7f7f7f;stroke:#000;stroke-width:2" d="M337,271 l0,83 -40,0 -26,-2 -26,-9 -25,-12 -21,-17 -17,-20 -13,-25 -7,-26 -2,-27 0,-120 83,0 0,120 3,21 14,17 17,13 20,4 40,0z" />
<path style="fill:#7f7f7f;stroke:#000;stroke-width:2" d="M277,86 l101,0 0,10 -101,0 0,-10z" />
<path style="fill:#7f7f7f;stroke:#000;stroke-width:2" d="M271,86 l94,0 0,-58 -94,0 0,58z" />
<path style="fill:none;stroke:#000;stroke-width:2" d="M41,86 l324,0 0,-58 -324,0 0,58" />
<path style="fill:#7f7f7f" d="M863,182 l36,0 24,6 25,13 3,4 -86,0 -2,-23z" />
<path style="fill:#7f7f7f" d="M963,409 l-17,18 -23,14 -24,3 -36,0 4,-35 96,0z" />
<path style="fill:#b2b2b2" d="M951,205 l14,15 1,8 -99,0 -2,-23 86,0z" />
<path style="fill:#b2b2b2" d="M970,367 l0,17 -5,25 -2,0 -96,0 1,-42 102,0z" />
<path style="fill:#e5e5e5" d="M966,228 l4,15 0,9 -102,0 -1,-24 99,0z" />
<path style="fill:#e5e5e5" d="M970,312 l0,-28 -100,0 2,28 98,0z" />
<path style="fill:#f0f0f0" d="M970,284 l0,-32 -102,0 2,32 100,0z" />
<path style="fill:#e0e0e0" d="M970,312 l0,2 0,27 -100,0 2,-27 0,-2 98,0z" />
<path style="fill:#ccc" d="M970,367 l0,-26 -100,0 -2,26 102,0z" />
<path style="fill:none;stroke:#000;stroke-width:2" d="M863,182 l36,0 24,6 25,13 15,19 7,23 0,71 0,72 -7,23 -17,18 -23,14 -24,5 -36,0 9,-132 -9,-132" />
<path style="fill:none;stroke:#000;stroke-width:2" d="M363,137 l13,0 0,358 -13,0 0,-358" />

</svg>
