<?xml version="1.0" encoding="utf-8" standalone="no"?><!DOCTYPE svg PUBLIC "-//W3C//DTD SVG 1.1//EN" "http://www.w3.org/Graphics/SVG/1.1/DTD/svg11-flat-20030114.dtd"><svg width="999" height="999" version="1.1" xmlns="http://www.w3.org/2000/svg" xmlns:xlink="http://www.w3.org/1999/xlink">

<path style="fill:#ccc" d="M970,28 l-942,0 0,942 942,0 0,-942z" />
<path style="fill:#c7c7c7" d="M970,697 l-942,-394 0,667 942,0 0,-273z" />
<path style="fill:#c2c2c2" d="M970,736 l-942,-394 0,628 942,0 0,-234z" />
<path style="fill:#bdbdbd" d="M970,795 l-942,-394 0,569 942,0 0,-175z" />
<path style="fill:none;stroke:#000;stroke-width:2" d="M970,28 l-942,0 0,942 942,0 0,-942" />
<path style="fill:#7f7f7f;stroke:#000;stroke-width:2" d="M333,901 l109,30 114,0 109,-30 98,-57 81,-79 59,-100 28,-109 0,-114 -30,-111 -57,-98 -79,-79 -100,-59 -109,-28 -114,0 -111,28 -98,59 -79,79 -59,98 -28,111 0,114 28,109 59,100 79,79 100,57z" />
<path style="fill:#191919" d="M340,884 l104,28 110,0 104,-28 94,-55 77,-77 55,-94 28,-104 -2,-110 -26,-105 -55,-93 -77,-77 -94,-55 -104,-28 -110,0 -104,28 -94,55 -77,77 -55,94 -28,104 0,110 28,104 55,94 77,77 94,55z" />
<path style="fill:#b2b2b2" d="M246,805 l163,-282 114,66 -163,282 -114,-66z" />
<path style="fill:#ccc" d="M246,805 l28,-16 27,-19 24,-22 21,-24 19,-26 15,-28 13,-30 9,-30 5,-32 2,-33 0,-11 0,-11 7,4 28,17 29,16 29,17 21,12 1,11 0,11 -3,32 -6,32 -9,31 -13,29 -15,28 -19,26 -21,25 -23,22 -27,19 -18,11 -10,5 -7,-4 -28,-16 -29,-17 -29,-16 -14,-8 -7,-5z" />
<path style="fill:none;stroke:#000;stroke-width:2" d="M246,805 l163,-282 114,66 1,11 -2,32 -5,32 -8,32 -11,30 -15,28 -17,27 -20,25 -23,23 -26,20 -27,17 -10,5 -114,-66" />
<path style="fill:#b2b2b2" d="M106,433 l329,0 -2,130 -326,1 -1,-131z" />
<path style="fill:#ccc" d="M106,433 l29,17 30,13 31,10 31,6 33,3 32,-1 32,-3 32,-8 30,-11 30,-14 9,-6 10,-6 0,9 -1,32 0,33 0,40 -1,16 -28,17 -30,14 -31,10 -31,7 -22,2 -10,0 -11,0 -32,-1 -32,-6 -31,-8 -30,-12 -29,-16 -9,-6 -1,-33 0,-81 0,-9 0,-8z" />
<path style="fill:none;stroke:#000;stroke-width:2" d="M106,433 l329,0 -2,130 -28,17 -30,14 -31,10 -31,7 -32,2 -33,0 -32,-4 -31,-8 -30,-11 -30,-14 -18,-12 -1,-131" />
<path style="fill:#b2b2b2" d="M359,126 l163,284 -112,66 -165,-285 114,-65z" />
<path style="fill:#ccc" d="M359,126 l0,33 4,33 7,32 10,30 14,30 16,27 19,26 22,23 25,22 27,18 9,5 10,5 -7,4 -28,17 -28,16 -28,17 -14,8 -7,4 -10,-5 -28,-17 -26,-21 -23,-23 -20,-25 -18,-27 -15,-29 -11,-30 -8,-31 -5,-32 -1,-12 0,-10 0,-11 0,-12 29,-16 28,-16 28,-16 22,-13 7,-4z" />
<path style="fill:none;stroke:#000;stroke-width:2" d="M359,126 l163,284 -112,66 -29,-17 -26,-19 -25,-22 -21,-24 -18,-27 -16,-28 -13,-30 -9,-31 -6,-32 -2,-32 0,-23 114,-65" />
<path style="fill:#b2b2b2" d="M752,193 l-163,282 -114,-66 163,-283 114,67z" />
<path style="fill:#ccc" d="M752,193 l-29,16 -26,19 -24,22 -21,24 -19,26 -15,28 -13,30 -9,30 -5,32 -3,33 1,11 0,11 -7,-4 -29,-17 -21,-12 -29,-17 -28,-16 -1,-11 0,-11 3,-33 6,-31 9,-31 13,-30 15,-28 19,-26 21,-24 23,-22 27,-19 18,-12 10,-5 7,5 28,16 29,17 22,12 21,12 7,5z" />
<path style="fill:none;stroke:#000;stroke-width:2" d="M752,193 l-163,282 -114,-66 -1,-11 2,-33 5,-32 8,-31 11,-30 15,-29 17,-26 20,-25 23,-23 26,-20 27,-18 10,-5 114,67" />
<path style="fill:#b2b2b2" d="M892,565 l-329,-1 2,-129 326,-1 1,131z" />
<path style="fill:#ccc" d="M892,565 l-29,-17 -30,-14 -31,-9 -31,-6 -33,-3 -32,0 -32,4 -32,8 -31,11 -29,14 -10,5 -9,6 0,-8 1,-32 0,-41 0,-32 1,-16 28,-17 30,-14 31,-10 31,-7 32,-2 11,-1 11,1 32,3 31,6 31,10 30,13 28,17 1,33 0,81 0,8 0,9z" />
<path style="fill:none;stroke:#000;stroke-width:2" d="M892,565 l-329,-1 2,-129 28,-17 30,-14 31,-10 31,-7 32,-2 11,-1 32,2 32,6 31,8 30,12 29,16 9,6 1,131" />
<path style="fill:#b2b2b2" d="M639,871 l-163,-283 112,-66 164,285 -113,64z" />
<path style="fill:#ccc" d="M639,871 l0,-33 -4,-32 -7,-32 -10,-31 -14,-29 -16,-27 -19,-26 -22,-24 -25,-21 -27,-18 -9,-5 -10,-5 7,-4 28,-17 28,-16 28,-17 14,-8 7,-4 10,5 28,17 25,21 24,22 20,26 17,27 15,29 12,30 8,31 5,32 0,12 1,10 0,11 -1,12 -28,15 -29,17 -28,16 -21,12 -7,4z" />
<path style="fill:none;stroke:#000;stroke-width:2" d="M639,871 l-163,-283 112,-66 28,16 27,20 24,22 21,24 19,26 16,29 12,29 10,32 5,32 3,32 -1,23 -113,64" />
<circle style="fill:#666;stroke:#000;stroke-width:2" cx="499" cy="499" r="115" />
<circle style="fill:#e5e5e5" cx="499" cy="499" r="99" />
<circle style="fill:#7f7f7f" cx="499" cy="499" r="34" />
<path style="fill:#000" d="M912,946 l-59,0 0,18 59,0 0,-18z" />
<path style="fill:#000" d="M832,946 l-58,0 0,18 58,0 0,-18z" />
<path style="fill:#000" d="M695,946 l-58,0 0,18 58,0 0,-18z" />
<path style="fill:#000" d="M86,964 l59,0 0,-18 -59,0 0,18z" />
<path style="fill:#000" d="M166,964 l58,0 0,-18 -58,0 0,18z" />
<path style="fill:#000" d="M303,964 l58,0 0,-18 -58,0 0,18z" />

</svg>
