<?xml version="1.0" encoding="utf-8" standalone="no"?><!DOCTYPE svg PUBLIC "-//W3C//DTD SVG 1.1//EN" "http://www.w3.org/Graphics/SVG/1.1/DTD/svg11-flat-20030114.dtd"><svg width="999" height="999" version="1.1" xmlns="http://www.w3.org/2000/svg" xmlns:xlink="http://www.w3.org/1999/xlink">

<path style="fill:#b2b2b2" d="M433,891 l0,-326 132,0 0,326 -132,0z" />
<path style="fill:#ccc" d="M433,891 l17,-28 13,-30 10,-31 6,-31 3,-32 0,-32 -4,-32 -8,-31 -11,-31 -15,-29 -5,-10 -6,-9 8,0 124,0 17,29 12,29 10,31 6,32 2,21 1,10 0,11 -2,32 -5,32 -8,31 -12,30 -15,29 -6,9 -8,0 -124,0z" />
<path style="fill:none;stroke:#000;stroke-width:2" d="M433,891 l0,-326 132,0 17,29 12,29 10,31 6,32 3,31 -1,32 -4,32 -7,32 -11,30 -14,29 -11,19 -132,0" />
<path style="fill:#b2b2b2" d="M126,639 l285,-165 63,113 -282,165 -66,-113z" />
<path style="fill:#ccc" d="M126,639 l33,0 33,-4 31,-7 31,-10 29,-14 28,-17 26,-19 23,-22 21,-25 19,-27 5,-10 6,-10 3,7 16,29 16,28 17,28 8,14 3,7 -4,10 -17,29 -21,25 -22,24 -25,20 -27,18 -29,14 -30,12 -32,8 -32,4 -10,1 -12,0 -10,0 -11,0 -17,-29 -16,-28 -17,-28 -12,-21 -4,-7z" />
<path style="fill:none;stroke:#000;stroke-width:2" d="M126,639 l285,-165 63,113 -16,30 -19,26 -21,24 -24,22 -27,18 -28,16 -30,12 -31,10 -32,5 -33,2 -21,0 -66,-113" />
<path style="fill:#b2b2b2" d="M192,246 l282,165 -63,113 -285,-165 66,-113z" />
<path style="fill:#ccc" d="M192,246 l16,29 20,26 21,24 24,22 27,18 28,16 29,13 31,9 32,6 33,2 10,0 11,0 -3,7 -16,28 -16,28 -16,28 -12,22 -12,0 -11,0 -33,-2 -32,-6 -31,-9 -30,-13 -28,-16 -26,-18 -25,-22 -21,-24 -20,-26 -11,-19 -5,-10 4,-7 16,-28 17,-28 16,-29 9,-14 4,-7z" />
<path style="fill:none;stroke:#000;stroke-width:2" d="M192,246 l282,165 -63,113 -12,0 -33,-1 -32,-5 -32,-8 -30,-12 -29,-14 -27,-18 -25,-20 -22,-23 -21,-26 -17,-28 -5,-10 66,-113" />
<path style="fill:#b2b2b2" d="M565,107 l0,326 -132,0 0,-326 132,0z" />
<path style="fill:#ccc" d="M565,107 l-17,28 -13,30 -10,31 -6,31 -3,32 1,32 4,32 7,31 11,31 15,29 5,10 6,9 -8,0 -124,0 -17,-29 -12,-29 -10,-31 -6,-32 -2,-21 -1,-10 0,-11 2,-32 5,-32 8,-31 12,-30 15,-29 6,-9 8,0 124,0z" />
<path style="fill:none;stroke:#000;stroke-width:2" d="M565,107 l0,326 -132,0 -17,-29 -12,-29 -10,-31 -6,-32 -3,-31 1,-32 4,-32 7,-32 11,-30 14,-29 11,-19 132,0" />
<path style="fill:#b2b2b2" d="M872,359 l-285,165 -63,-113 282,-165 66,113z" />
<path style="fill:#ccc" d="M872,359 l-33,0 -33,4 -31,7 -31,10 -29,14 -28,17 -26,19 -23,22 -21,25 -19,27 -5,10 -6,10 -3,-7 -16,-29 -16,-28 -17,-28 -8,-14 -3,-7 4,-10 17,-29 21,-25 22,-24 25,-20 27,-18 29,-14 30,-12 32,-8 32,-4 10,-1 12,0 10,0 11,0 17,29 16,28 17,28 12,21 4,7z" />
<path style="fill:none;stroke:#000;stroke-width:2" d="M872,359 l-285,165 -63,-113 16,-30 19,-26 21,-24 24,-22 27,-18 28,-16 30,-12 31,-10 32,-5 33,-2 21,0 66,113" />
<path style="fill:#b2b2b2" d="M806,752 l-282,-165 63,-113 285,165 -66,113z" />
<path style="fill:#ccc" d="M806,752 l-16,-29 -20,-26 -21,-24 -24,-22 -27,-18 -28,-16 -29,-13 -31,-9 -32,-6 -33,-2 -10,0 -11,0 3,-7 16,-28 16,-28 16,-28 12,-22 12,0 11,0 33,2 32,6 31,9 30,13 28,16 26,18 25,22 21,24 20,26 11,19 5,10 -4,7 -16,28 -17,28 -16,29 -9,14 -4,7z" />
<path style="fill:none;stroke:#000;stroke-width:2" d="M806,752 l-282,-165 63,-113 12,0 33,1 32,5 32,8 30,12 29,14 27,18 25,20 22,23 21,26 17,28 5,10 -66,113" />
<circle style="fill:#666;stroke:#000;stroke-width:2" cx="499" cy="499" r="115" />
<circle style="fill:#e5e5e5" cx="499" cy="499" r="98" />
<circle style="fill:#7f7f7f" cx="499" cy="499" r="32" />

</svg>
