<?xml version="1.0" encoding="utf-8" standalone="no"?><!DOCTYPE svg PUBLIC "-//W3C//DTD SVG 1.1//EN" "http://www.w3.org/Graphics/SVG/1.1/DTD/svg11-flat-20030114.dtd"><svg width="660" height="504" version="1.1" xmlns="http://www.w3.org/2000/svg" xmlns:xlink="http://www.w3.org/1999/xlink">

<path style="fill:#808080;stroke:#000;stroke-width:2" d="M188,174 l-6,19 -4,19 -3,20 -1,19 1,24 4,23 6,23 8,21 9,21 12,19 14,18 15,17 17,15 18,14 19,11 20,10 22,8 22,6 23,4 24,1 24,-1 23,-4 22,-6 22,-8 20,-10 20,-11 18,-14 16,-15 15,-17 14,-18 12,-19 10,-21 7,-21 6,-23 4,-23 1,-24 -1,-24 -4,-23 -6,-22 -7,-21 -10,-21 -12,-19 -14,-18 -15,-17 -16,-15 -18,-13 -20,-12 -20,-10 -22,-7 -22,-6 -23,-4 -24,-1 -390,0 0,156 170,0z" />

</svg>
