<?xml version="1.0" encoding="utf-8" standalone="no"?><!DOCTYPE svg PUBLIC "-//W3C//DTD SVG 1.1//EN" "http://www.w3.org/Graphics/SVG/1.1/DTD/svg11-flat-20030114.dtd"><svg width="999" height="999" version="1.1" xmlns="http://www.w3.org/2000/svg" xmlns:xlink="http://www.w3.org/1999/xlink">

<path style="fill:#0ff;stroke:#000;stroke-width:2" d="M342,735 l-27,-22 -24,-24 -23,-26 -19,-27 -17,-30 -15,-30 -12,-32 -9,-33 -7,-33 -4,-35 0,-23 -157,0 0,-392 550,0 39,2 39,6 38,9 36,14 34,16 33,20 30,23 28,25 25,28 23,30 20,33 16,34 14,36 9,38 6,39 2,19 0,20 0,12 -3,34 -5,34 -9,33 -11,33 -14,31 -17,30 -18,28 -22,26 -24,25 -25,22 -9,7 118,235 -707,0 118,-235z" />
<path style="fill:none;stroke:#000;stroke-width:2" d="M341,735 l26,18 28,16 28,13 30,11 31,9 30,6 32,4 16,1 8,0 8,0 31,-1 31,-4 31,-7 30,-9 30,-11 28,-13 27,-16 20,-13 6,-4" />
<circle style="fill:#0ff;stroke:#000;stroke-width:2" cx="577" cy="420" r="196" />

</svg>
