<?xml version="1.0" encoding="utf-8" standalone="no"?><!DOCTYPE svg PUBLIC "-//W3C//DTD SVG 1.1//EN" "http://www.w3.org/Graphics/SVG/1.1/DTD/svg11-flat-20030114.dtd"><svg width="999" height="827" version="1.1" xmlns="http://www.w3.org/2000/svg" xmlns:xlink="http://www.w3.org/1999/xlink">

<path style="fill:#8ca0bf;stroke:#000;stroke-width:2" d="M199,413 l2,40 6,38 10,37 13,35 16,34 19,32 22,29 25,28 28,25 29,22 32,19 34,16 35,13 37,10 38,6 20,2 20,0 20,0 38,-4 38,-8 36,-11 35,-15 33,-18 30,-21 29,-23 26,-27 24,-28 21,-31 17,-33 15,-34 11,-36 8,-38 4,-39 0,-20 0,-20 -4,-38 -8,-38 -11,-36 -15,-35 -17,-32 -21,-31 -24,-29 -26,-26 -29,-24 -30,-21 -33,-17 -35,-15 -36,-11 -38,-8 -38,-4 -20,0 -557,0 0,385 171,0z" />
<circle style="fill:none;stroke:#000;stroke-width:2" cx="584" cy="413" r="214" />

</svg>
