<?xml version="1.0" encoding="utf-8" standalone="no"?><!DOCTYPE svg PUBLIC "-//W3C//DTD SVG 1.1//EN" "http://www.w3.org/Graphics/SVG/1.1/DTD/svg11-flat-20030114.dtd"><svg width="998" height="618" version="1.1" xmlns="http://www.w3.org/2000/svg" xmlns:xlink="http://www.w3.org/1999/xlink">

<path style="fill:#e5b24c;stroke:#000;stroke-width:2" d="M899,425 l20,-5 34,-32 12,-23 5,-24 0,-27 -5,-26 -12,-23 -34,-32 -20,-6 0,-145 -19,-18 -36,0 0,-36 -364,0 0,36 -36,0 -17,35 -380,0 -19,19 0,362 19,19 52,0 0,72 55,0 0,-72 273,0 17,36 291,0 0,55 90,0 0,-55 55,0 19,-17 0,-93z" />
<path style="fill:none;stroke:#000;stroke-width:2" d="M899,227 l0,198" />
<path style="fill:none;stroke:#000;stroke-width:2" d="M844,64 l0,180 -364,0 0,-180" />

</svg>
