<?xml version="1.0" encoding="utf-8" standalone="no"?><!DOCTYPE svg PUBLIC "-//W3C//DTD SVG 1.1//EN" "http://www.w3.org/Graphics/SVG/1.1/DTD/svg11-flat-20030114.dtd"><svg width="527" height="278" version="1.1" xmlns="http://www.w3.org/2000/svg" xmlns:xlink="http://www.w3.org/1999/xlink">

<path style="fill:#7f7f7f" d="M513,264 l0,-250 -499,250 0,-250 499,250z" />
<path style="fill:#999" d="M513,251 l0,-224 -499,224 0,-224 499,224z" />
<path style="fill:#b2b2b2" d="M513,225 l0,-173 -499,173 0,-173 499,173z" />
<path style="fill:#ccc" d="M513,200 l0,-122 -499,122 0,-122 499,122z" />
<path style="fill:#e5e5e5" d="M513,180 l0,-83 -499,83 0,-83 499,83z" />
<path style="fill:#fff" d="M513,155 l0,-32 -499,32 0,-32 499,32z" />
<path style="fill:none;stroke:#000;stroke-width:2" d="M513,264 l0,-250 -499,250 0,-250 499,250" />

</svg>
