<?xml version="1.0" encoding="utf-8" standalone="no"?><!DOCTYPE svg PUBLIC "-//W3C//DTD SVG 1.1//EN" "http://www.w3.org/Graphics/SVG/1.1/DTD/svg11-flat-20030114.dtd"><svg width="474" height="524" version="1.1" xmlns="http://www.w3.org/2000/svg" xmlns:xlink="http://www.w3.org/1999/xlink">

<path style="fill:#000;stroke:#000;stroke-width:2" d="M93,130 l-79,79 79,79 79,-79 -79,-79z" />
<path style="fill:#000;stroke:#000;stroke-width:2" d="M385,27 l-137,0 0,137 137,0 0,-137z" />
<path style="fill:#7f7f7f" d="M347,444 l0,-294 -35,0 0,294 35,0z" />
<path style="fill:#b2b2b2" d="M343,444 l0,-294 -27,0 0,294 27,0z" />
<path style="fill:#e5e5e5" d="M339,444 l0,-294 -19,0 0,294 19,0z" />
<path style="fill:#fff" d="M333,444 l0,-294 -7,0 0,294 7,0z" />
<path style="fill:none;stroke:#000;stroke-width:2" d="M312,444 l0,-294" />
<path style="fill:none;stroke:#000;stroke-width:2" d="M347,150 l0,294" />
<path style="fill:#7f7f7f" d="M158,215 l124,0 0,-34 -124,0 0,34z" />
<path style="fill:#b2b2b2" d="M158,212 l124,0 0,-28 -124,0 0,28z" />
<path style="fill:#e5e5e5" d="M158,208 l124,0 0,-19 -124,0 0,19z" />
<path style="fill:#fff" d="M158,201 l124,0 0,-6 -124,0 0,6z" />
<path style="fill:none;stroke:#000;stroke-width:2" d="M158,181 l124,0" />
<path style="fill:none;stroke:#000;stroke-width:2" d="M282,215 l-124,0" />
<path style="fill:#7f7f7f" d="M278,181 l34,0 0,-18 35,0 0,70 -35,0 0,-17 -34,0 0,-35z" />
<path style="fill:#b2b2b2" d="M278,184 l38,0 0,-21 28,0 0,70 -28,0 0,-21 -38,0 0,-28z" />
<path style="fill:#e5e5e5" d="M278,189 l43,0 0,-26 18,0 0,70 -18,0 0,-25 -43,0 0,-19z" />
<path style="fill:#fff" d="M278,195 l49,0 0,-32 7,0 0,70 -7,0 0,-31 -49,0 0,-7z" />
<path style="fill:none;stroke:#000;stroke-width:2" d="M278,181 l34,0 0,-18" />
<path style="fill:none;stroke:#000;stroke-width:2" d="M278,216 l34,0 0,17" />
<path style="fill:none;stroke:#000;stroke-width:2" d="M347,233 l0,-70" />
<path style="fill:#7f7f7f;stroke:#000;stroke-width:2" d="M109,117 l-79,79 79,79 79,-79 -79,-79z" />
<path style="fill:#7f7f7f;stroke:#000;stroke-width:2" d="M401,14 l-137,0 0,136 137,0 0,-136z" />
<path style="fill:none;stroke:#000;stroke-width:2" d="M138,233 l0,-74 -62,0 0,37 50,0 -50,37" />
<path style="fill:none;stroke:#000;stroke-width:2" d="M358,126 l-50,0 0,-43 50,0 0,-44 -50,0" />
<path style="fill:#7f7f7f" d="M460,510 l-130,-65 130,-65 0,130z" />
<path style="fill:#999" d="M460,504 l-130,-59 130,-59 0,118z" />
<path style="fill:#b2b2b2" d="M460,490 l-130,-45 130,-45 0,90z" />
<path style="fill:#ccc" d="M460,477 l-130,-32 130,-33 0,65z" />
<path style="fill:#e5e5e5" d="M460,467 l-130,-22 130,-22 0,44z" />
<path style="fill:#fff" d="M460,453 l-130,-8 130,-8 0,16z" />
<path style="fill:none;stroke:#000;stroke-width:2" d="M460,510 l-130,-65 130,-65 0,130" />
<path style="fill:#7f7f7f" d="M200,510 l130,-65 -130,-65 0,130z" />
<path style="fill:#999" d="M200,504 l130,-59 -130,-59 0,118z" />
<path style="fill:#b2b2b2" d="M200,490 l130,-45 -130,-45 0,90z" />
<path style="fill:#ccc" d="M200,477 l130,-32 -130,-33 0,65z" />
<path style="fill:#e5e5e5" d="M200,467 l130,-22 -130,-22 0,44z" />
<path style="fill:#fff" d="M200,453 l130,-8 -130,-8 0,16z" />
<path style="fill:none;stroke:#000;stroke-width:2" d="M200,510 l130,-65 -130,-65 0,130" />
<path style="fill:#7f7f7f" d="M460,510 l-130,-65 -130,65 260,0z" />
<path style="fill:#999" d="M448,510 l-118,-65 -118,65 236,0z" />
<path style="fill:#b2b2b2" d="M419,510 l-89,-65 -89,65 178,0z" />
<path style="fill:#ccc" d="M395,510 l-65,-65 -65,65 130,0z" />
<path style="fill:#e5e5e5" d="M375,510 l-45,-65 -45,65 90,0z" />
<path style="fill:#fff" d="M346,510 l-16,-65 -16,65 32,0z" />
<path style="fill:none;stroke:#000;stroke-width:2" d="M460,510 l-130,-65 -130,65 260,0" />

</svg>
