<?xml version="1.0" encoding="utf-8" standalone="no"?><!DOCTYPE svg PUBLIC "-//W3C//DTD SVG 1.1//EN" "http://www.w3.org/Graphics/SVG/1.1/DTD/svg11-flat-20030114.dtd"><svg width="360" height="521" version="1.1" xmlns="http://www.w3.org/2000/svg" xmlns:xlink="http://www.w3.org/1999/xlink">

<path style="fill:#7f7f7f" d="M161,145 l0,282 33,0 0,-282 -33,0z" />
<path style="fill:#b2b2b2" d="M164,145 l0,282 27,0 0,-282 -27,0z" />
<path style="fill:#e5e5e5" d="M168,145 l0,282 18,0 0,-282 -18,0z" />
<path style="fill:#fff" d="M174,145 l0,282 6,0 0,-282 -6,0z" />
<path style="fill:none;stroke:#000;stroke-width:2" d="M194,145 l0,282" />
<path style="fill:none;stroke:#000;stroke-width:2" d="M161,427 l0,-282" />
<path style="fill:#7f7f7f" d="M180,149 l135,0 -3,-27 -8,-25 -12,-23 -16,-20 -20,-17 -23,-12 -26,-8 -27,-3 -27,3 -25,8 -23,12 -20,17 -17,20 -12,23 -8,25 -3,27 135,0z" />
<path style="fill:#999" d="M180,149 l123,0 -2,-27 -8,-25 -11,-23 -15,-20 -18,-17 -21,-12 -23,-8 -25,-3 -24,3 -23,8 -21,12 -18,17 -15,20 -11,23 -8,25 -2,27 122,0z" />
<path style="fill:#b2b2b2" d="M180,149 l97,0 -2,-27 -6,-25 -8,-23 -12,-20 -15,-17 -16,-12 -18,-8 -20,-3 -19,3 -19,8 -16,12 -14,17 -12,20 -9,23 -6,25 -2,27 97,0z" />
<path style="fill:#ccc" d="M180,149 l72,0 -1,-27 -5,-25 -6,-23 -9,-20 -11,-17 -12,-12 -13,-8 -15,-3 -14,3 -14,8 -12,12 -10,17 -9,20 -6,23 -5,25 -1,27 71,0z" />
<path style="fill:#e5e5e5" d="M180,149 l47,0 -1,-27 -3,-25 -4,-23 -6,-20 -7,-17 -8,-12 -9,-8 -9,-3 -9,3 -9,8 -8,12 -6,17 -6,20 -4,23 -3,25 -1,27 46,0z" />
<path style="fill:none;stroke:#000;stroke-width:2" d="M180,149 l135,0 -3,-27 -8,-25 -12,-23 -16,-20 -20,-17 -23,-12 -26,-8 -27,-3 -27,3 -25,8 -23,12 -20,17 -17,20 -12,23 -8,25 -3,27 135,0" />
<path style="fill:#fff" d="M180,149 l13,0 0,-27 -1,-25 -1,-23 -2,-20 -2,-17 -2,-12 -2,-8 -3,-3 -3,3 -2,8 -2,12 -2,17 -1,20 -1,23 -1,25 0,27 12,0z" />
<path style="fill:#7f7f7f" d="M346,507 l0,-166 -332,166 0,-166 332,166z" />
<path style="fill:#999" d="M346,499 l0,-149 -332,149 0,-149 332,149z" />
<path style="fill:#b2b2b2" d="M346,482 l0,-115 -332,115 0,-115 332,115z" />
<path style="fill:#ccc" d="M346,465 l0,-81 -332,81 0,-81 332,81z" />
<path style="fill:#e5e5e5" d="M346,452 l0,-55 -332,55 0,-55 332,55z" />
<path style="fill:#fff" d="M346,435 l0,-21 -332,21 0,-21 332,21z" />
<path style="fill:none;stroke:#000;stroke-width:2" d="M346,507 l0,-166 -332,166 0,-166 332,166" />

</svg>
