<?xml version="1.0" encoding="utf-8" standalone="no"?><!DOCTYPE svg PUBLIC "-//W3C//DTD SVG 1.1//EN" "http://www.w3.org/Graphics/SVG/1.1/DTD/svg11-flat-20030114.dtd"><svg width="601" height="999" version="1.1" xmlns="http://www.w3.org/2000/svg" xmlns:xlink="http://www.w3.org/1999/xlink">

<path style="fill:#000;stroke:#000;stroke-width:2" d="M546,54 l-518,0 0,518 518,0 0,-518z" />
<path style="fill:#7f7f7f" d="M282,542 l0,302 62,0 0,-302 -62,0z" />
<path style="fill:#b2b2b2" d="M288,542 l0,302 51,0 0,-302 -51,0z" />
<path style="fill:#e5e5e5" d="M296,542 l0,302 35,0 0,-302 -35,0z" />
<path style="fill:#fff" d="M307,542 l0,302 13,0 0,-302 -13,0z" />
<path style="fill:none;stroke:#000;stroke-width:2" d="M344,542 l0,302" />
<path style="fill:none;stroke:#000;stroke-width:2" d="M282,844 l0,-302" />
<path style="fill:#7f7f7f" d="M572,970 l0,-258 -522,258 0,-258 522,258z" />
<path style="fill:#999" d="M572,957 l0,-232 -522,232 0,-232 522,232z" />
<path style="fill:#b2b2b2" d="M572,931 l0,-179 -522,179 0,-179 522,179z" />
<path style="fill:#ccc" d="M572,904 l0,-126 -522,126 0,-126 522,126z" />
<path style="fill:#e5e5e5" d="M572,884 l0,-87 -522,87 0,-87 522,87z" />
<path style="fill:#fff" d="M572,857 l0,-34 -522,34 0,-34 522,34z" />
<path style="fill:none;stroke:#000;stroke-width:2" d="M572,970 l0,-258 -522,258 0,-258 522,258" />
<path style="fill:#7f7f7f;stroke:#000;stroke-width:2" d="M572,28 l-518,0 0,518 518,0 0,-518z" />
<path style="fill:#000" d="M312,286 l5,0 0,256 -9,0 0,-256 4,0z" />
<path style="fill:#000" d="M54,286 l0,-5 518,0 0,10 -518,0 0,-5z" />

</svg>
