<?xml version="1.0" encoding="utf-8" standalone="no"?><!DOCTYPE svg PUBLIC "-//W3C//DTD SVG 1.1//EN" "http://www.w3.org/Graphics/SVG/1.1/DTD/svg11-flat-20030114.dtd"><svg width="304" height="530" version="1.1" xmlns="http://www.w3.org/2000/svg" xmlns:xlink="http://www.w3.org/1999/xlink">

<path style="fill:#7f7f7f" d="M137,245 l31,0 0,-163 -31,0 0,163z" />
<path style="fill:#b2b2b2" d="M140,245 l25,0 0,-163 -25,0 0,163z" />
<path style="fill:#e5e5e5" d="M144,245 l17,0 0,-163 -17,0 0,163z" />
<path style="fill:#fff" d="M149,245 l6,0 0,-163 -6,0 0,163z" />
<path style="fill:none;stroke:#000;stroke-width:2" d="M168,245 l0,-164" />
<path style="fill:none;stroke:#000;stroke-width:2" d="M137,245 l0,-164" />
<path style="fill:#7f7f7f" d="M220,241 l-68,137 -68,-137 136,0z" />
<path style="fill:#999" d="M214,241 l-62,137 -62,-137 124,0z" />
<path style="fill:#b2b2b2" d="M199,241 l-47,137 -47,-137 94,0z" />
<path style="fill:#ccc" d="M186,241 l-34,137 -34,-137 68,0z" />
<path style="fill:#e5e5e5" d="M176,241 l-24,137 -23,-137 47,0z" />
<path style="fill:#fff" d="M161,241 l-9,137 -8,-137 17,0z" />
<path style="fill:none;stroke:#000;stroke-width:2" d="M220,241 l-68,137 -68,-137 136,0" />
<path style="fill:#7f7f7f" d="M220,515 l-68,-137 -68,137 136,0z" />
<path style="fill:#999" d="M214,515 l-62,-137 -62,137 124,0z" />
<path style="fill:#b2b2b2" d="M199,515 l-47,-137 -47,137 94,0z" />
<path style="fill:#ccc" d="M186,515 l-34,-137 -34,137 68,0z" />
<path style="fill:#e5e5e5" d="M176,515 l-24,-137 -23,137 47,0z" />
<path style="fill:#fff" d="M161,515 l-9,-137 -8,137 17,0z" />
<path style="fill:none;stroke:#000;stroke-width:2" d="M220,515 l-68,-137 -68,137 136,0" />
<path style="fill:#7f7f7f" d="M15,15 l137,68 -137,69 0,-137z" />
<path style="fill:#999" d="M15,21 l137,62 -137,62 0,-124z" />
<path style="fill:#b2b2b2" d="M15,36 l137,47 -137,47 0,-94z" />
<path style="fill:#ccc" d="M15,49 l137,34 -137,34 0,-68z" />
<path style="fill:#e5e5e5" d="M15,60 l137,23 -137,24 0,-47z" />
<path style="fill:#fff" d="M15,75 l137,8 -137,9 0,-17z" />
<path style="fill:none;stroke:#000;stroke-width:2" d="M15,15 l137,68 -137,69 0,-137" />
<path style="fill:#7f7f7f" d="M289,15 l-137,68 137,69 0,-137z" />
<path style="fill:#999" d="M289,21 l-137,62 137,62 0,-124z" />
<path style="fill:#b2b2b2" d="M289,36 l-137,47 137,47 0,-94z" />
<path style="fill:#ccc" d="M289,49 l-137,34 137,34 0,-68z" />
<path style="fill:#e5e5e5" d="M289,60 l-137,23 137,24 0,-47z" />
<path style="fill:#fff" d="M289,75 l-137,8 137,9 0,-17z" />
<path style="fill:none;stroke:#000;stroke-width:2" d="M289,15 l-137,68 137,69 0,-137" />

</svg>
