<?xml version="1.0" encoding="utf-8" standalone="no"?><!DOCTYPE svg PUBLIC "-//W3C//DTD SVG 1.1//EN" "http://www.w3.org/Graphics/SVG/1.1/DTD/svg11-flat-20030114.dtd"><svg width="525" height="498" version="1.1" xmlns="http://www.w3.org/2000/svg" xmlns:xlink="http://www.w3.org/1999/xlink">

<path style="fill:#7f7f7f" d="M231,124 l0,242 59,0 0,-242 -59,0z" />
<path style="fill:#b2b2b2" d="M237,124 l0,242 47,0 0,-242 -47,0z" />
<path style="fill:#e5e5e5" d="M244,124 l0,242 33,0 0,-242 -33,0z" />
<path style="fill:#fff" d="M255,124 l0,242 11,0 0,-242 -11,0z" />
<path style="fill:none;stroke:#000;stroke-width:2" d="M290,124 l0,242" />
<path style="fill:none;stroke:#000;stroke-width:2" d="M231,366 l0,-242" />
<path style="fill:#7f7f7f" d="M483,14 l-441,0 0,58 441,0 0,-58z" />
<path style="fill:#b2b2b2" d="M483,19 l-441,0 0,48 441,0 0,-48z" />
<path style="fill:#e5e5e5" d="M483,27 l-441,0 0,32 441,0 0,-32z" />
<path style="fill:#fff" d="M483,38 l-441,0 0,11 441,0 0,-11z" />
<path style="fill:none;stroke:#000;stroke-width:2" d="M483,72 l-441,0" />
<path style="fill:none;stroke:#000;stroke-width:2" d="M42,14 l441,0" />
<path style="fill:#7f7f7f" d="M231,131 l0,-59 -30,0 0,-58 119,0 0,58 -30,0 0,59 -59,0z" />
<path style="fill:#b2b2b2" d="M237,131 l0,-65 -36,0 0,-47 119,0 0,47 -35,0 0,65 -48,0z" />
<path style="fill:#e5e5e5" d="M245,131 l0,-73 -44,0 0,-31 119,0 0,31 -43,0 0,73 -32,0z" />
<path style="fill:#fff" d="M255,131 l0,-82 -54,0 0,-12 119,0 0,12 -53,0 0,82 -12,0z" />
<path style="fill:none;stroke:#000;stroke-width:2" d="M231,131 l0,-59 -30,0" />
<path style="fill:none;stroke:#000;stroke-width:2" d="M290,131 l0,-59 30,0" />
<path style="fill:none;stroke:#000;stroke-width:2" d="M320,14 l-119,0" />
<path style="fill:#7f7f7f" d="M511,484 l0,-249 -497,249 0,-249 497,249z" />
<path style="fill:#999" d="M511,471 l0,-224 -497,224 0,-224 497,224z" />
<path style="fill:#b2b2b2" d="M511,445 l0,-172 -497,172 0,-172 497,172z" />
<path style="fill:#ccc" d="M511,420 l0,-122 -497,122 0,-122 497,122z" />
<path style="fill:#e5e5e5" d="M511,401 l0,-84 -497,84 0,-84 497,84z" />
<path style="fill:#fff" d="M511,375 l0,-32 -497,32 0,-32 497,32z" />
<path style="fill:none;stroke:#000;stroke-width:2" d="M511,484 l0,-249 -497,249 0,-249 497,249" />

</svg>
