<?xml version="1.0" encoding="utf-8" standalone="no"?><!DOCTYPE svg PUBLIC "-//W3C//DTD SVG 1.1//EN" "http://www.w3.org/Graphics/SVG/1.1/DTD/svg11-flat-20030114.dtd"><svg width="530" height="436" version="1.1" xmlns="http://www.w3.org/2000/svg" xmlns:xlink="http://www.w3.org/1999/xlink">

<path style="fill:#7f7f7f" d="M484,280 l31,0 0,-125 -31,0 0,125z" />
<path style="fill:#b2b2b2" d="M487,280 l25,0 0,-125 -25,0 0,125z" />
<path style="fill:#e5e5e5" d="M491,280 l17,0 0,-125 -17,0 0,125z" />
<path style="fill:#fff" d="M496,280 l6,0 0,-125 -6,0 0,125z" />
<path style="fill:none;stroke:#000;stroke-width:2" d="M515,280 l0,-125" />
<path style="fill:none;stroke:#000;stroke-width:2" d="M484,280 l0,-125" />
<path style="fill:#7f7f7f" d="M484,249 l31,0 0,-62 -31,0 0,15 -31,0 0,31 31,0 0,16z" />
<path style="fill:#b2b2b2" d="M487,249 l25,0 0,-44 0,-18 -25,0 0,18 -34,0 0,26 34,0 0,18z" />
<path style="fill:#e5e5e5" d="M491,249 l17,0 0,-40 0,-22 -17,0 0,23 -38,-1 0,17 38,0 0,23z" />
<path style="fill:#fff" d="M496,249 l6,0 0,-34 0,-28 -6,0 0,28 -43,0 0,6 43,0 0,28z" />
<path style="fill:none;stroke:#000;stroke-width:2" d="M484,249 l0,-16 -31,0" />
<path style="fill:none;stroke:#000;stroke-width:2" d="M453,202 l31,0 0,-15" />
<path style="fill:none;stroke:#000;stroke-width:2" d="M515,187 l0,15 0,47" />
<path style="fill:#7f7f7f" d="M202,202 l0,31 250,0 0,-31 -250,0z" />
<path style="fill:#b2b2b2" d="M202,205 l0,25 250,0 0,-25 -250,0z" />
<path style="fill:#e5e5e5" d="M202,209 l0,17 250,0 0,-17 -250,0z" />
<path style="fill:#fff" d="M202,215 l0,6 250,0 0,-6 -250,0z" />
<path style="fill:none;stroke:#000;stroke-width:2" d="M202,233 l250,0" />
<path style="fill:none;stroke:#000;stroke-width:2" d="M202,202 l250,0" />
<path style="fill:#7f7f7f" d="M15,421 l203,-203 -203,-203 0,406z" />
<path style="fill:#999" d="M15,402 l203,-184 -203,-184 0,368z" />
<path style="fill:#b2b2b2" d="M15,357 l203,-139 -203,-140 0,279z" />
<path style="fill:#ccc" d="M15,319 l203,-101 -203,-102 0,203z" />
<path style="fill:#e5e5e5" d="M15,288 l203,-70 -203,-70 0,140z" />
<path style="fill:#fff" d="M15,243 l203,-25 -203,-25 0,50z" />
<path style="fill:none;stroke:#000;stroke-width:2" d="M15,421 l203,-203 -203,-203 0,406" />
<path style="fill:#7f7f7f" d="M421,15 l-203,203 -203,-203 406,0z" />
<path style="fill:#999" d="M402,15 l-184,203 -184,-203 368,0z" />
<path style="fill:#b2b2b2" d="M358,15 l-140,203 -140,-203 280,0z" />
<path style="fill:#ccc" d="M320,15 l-102,203 -101,-203 203,0z" />
<path style="fill:#e5e5e5" d="M288,15 l-70,203 -70,-203 140,0z" />
<path style="fill:#fff" d="M243,15 l-25,203 -25,-203 50,0z" />
<path style="fill:none;stroke:#000;stroke-width:2" d="M421,15 l-203,203 -203,-203 406,0" />

</svg>
