<?xml version="1.0" encoding="utf-8" standalone="no"?><!DOCTYPE svg PUBLIC "-//W3C//DTD SVG 1.1//EN" "http://www.w3.org/Graphics/SVG/1.1/DTD/svg11-flat-20030114.dtd"><svg width="480" height="465" version="1.1" xmlns="http://www.w3.org/2000/svg" xmlns:xlink="http://www.w3.org/1999/xlink">

<path style="fill:#7f7f7f" d="M213,37 l-14,-24 -186,107 14,24 186,-107z" />
<path style="fill:#b2b2b2" d="M212,34 l-12,-19 -186,107 12,20 186,-108z" />
<path style="fill:#e5e5e5" d="M210,31 l-8,-13 -186,108 8,12 186,-107z" />
<path style="fill:#fff" d="M207,27 l-2,-5 -186,108 2,4 186,-107z" />
<path style="fill:none;stroke:#000;stroke-width:2" d="M199,13 l-186,107" />
<path style="fill:none;stroke:#000;stroke-width:2" d="M213,37 l-186,107" />
<path style="fill:#7f7f7f" d="M439,447 l28,0 0,-178 -28,0 0,178z" />
<path style="fill:#b2b2b2" d="M442,447 l22,0 0,-178 -22,0 0,178z" />
<path style="fill:#e5e5e5" d="M446,447 l14,0 0,-178 -14,0 0,178z" />
<path style="fill:#fff" d="M450,447 l6,0 0,-178 -6,0 0,178z" />
<path style="fill:none;stroke:#000;stroke-width:2" d="M467,447 l0,-178" />
<path style="fill:none;stroke:#000;stroke-width:2" d="M439,447 l0,-178" />
<path style="fill:#7f7f7f" d="M413,240 l14,24 12,-7 -14,-24 -12,7z" />
<path style="fill:#b2b2b2" d="M415,242 l11,19 12,-6 -11,-20 -12,7z" />
<path style="fill:#e5e5e5" d="M416,245 l8,13 12,-7 -8,-13 -12,7z" />
<path style="fill:#fff" d="M419,249 l2,5 12,-7 -2,-4 -12,6z" />
<path style="fill:none;stroke:#000;stroke-width:2" d="M427,264 l12,-7" />
<path style="fill:none;stroke:#000;stroke-width:2" d="M413,240 l12,-7" />
<path style="fill:#7f7f7f" d="M439,257 l28,0 0,-4 -1,-3 -1,-4 -2,-3 -3,-4 -4,-4 -5,-3 -5,-2 -5,-1 -6,0 -5,2 -5,2 14,24z" />
<path style="fill:#b2b2b2" d="M439,257 l25,0 0,-4 -1,-3 -1,-3 -1,-3 -3,-4 -4,-3 -4,-3 -4,-2 -5,0 -5,0 -4,1 -5,2 12,22z" />
<path style="fill:#e5e5e5" d="M439,257 l21,0 0,-3 -1,-3 -1,-3 -1,-2 -5,-6 -7,-4 -9,0 -8,2 11,19z" />
<path style="fill:#fff" d="M439,257 l17,0 0,-2 -1,-2 -1,-2 -1,-2 -4,-5 -6,-3 -6,0 -6,2 8,14z" />
<path style="fill:#e5e5e5" d="M439,257 l11,0 0,-2 0,-1 0,-2 -1,-1 -3,-3 -4,-2 -4,0 -5,1 6,10z" />
<path style="fill:#b2b2b2" d="M439,257 l7,0 0,-1 -1,-1 0,-1 -2,-2 -2,-2 -3,0 -2,1 3,6z" />
<path style="fill:#7f7f7f" d="M439,257 l3,0 0,-1 -1,0 0,-1 -1,-1 -1,0 -1,1 1,2z" />
<path style="fill:none;stroke:#000;stroke-width:2" d="M467,257 l0,-4 -1,-3 -1,-4 -2,-3 -3,-4 -4,-4 -5,-3 -5,-2 -5,-1 -6,0 -5,2 -5,2" />
<path style="fill:#7f7f7f" d="M467,257 l-28,0 0,14 28,0 0,-14z" />
<path style="fill:#b2b2b2" d="M464,257 l-22,0 0,14 22,0 0,-14z" />
<path style="fill:#e5e5e5" d="M460,257 l-14,0 0,14 14,0 0,-14z" />
<path style="fill:#fff" d="M456,257 l-6,0 0,14 6,0 0,-14z" />
<path style="fill:none;stroke:#000;stroke-width:2" d="M439,257 l0,14" />
<path style="fill:none;stroke:#000;stroke-width:2" d="M467,257 l0,14" />
<path style="fill:#7f7f7f" d="M90,229 l-27,0 0,183 27,0 0,-183z" />
<path style="fill:#b2b2b2" d="M88,229 l-23,0 0,183 23,0 0,-183z" />
<path style="fill:#e5e5e5" d="M84,229 l-15,0 0,183 15,0 0,-183z" />
<path style="fill:#fff" d="M79,229 l-5,0 0,183 5,0 0,-183z" />
<path style="fill:none;stroke:#000;stroke-width:2" d="M63,229 l0,183" />
<path style="fill:none;stroke:#000;stroke-width:2" d="M90,229 l0,183" />
<path style="fill:#7f7f7f" d="M116,441 l-14,-24 -12,7 14,24 12,-7z" />
<path style="fill:#b2b2b2" d="M115,439 l-11,-19 -12,7 11,19 12,-7z" />
<path style="fill:#e5e5e5" d="M113,436 l-7,-13 -12,7 7,13 12,-7z" />
<path style="fill:#fff" d="M111,432 l-3,-5 -12,7 3,5 12,-7z" />
<path style="fill:none;stroke:#000;stroke-width:2" d="M102,417 l-12,7" />
<path style="fill:none;stroke:#000;stroke-width:2" d="M116,441 l-12,7" />
<path style="fill:#7f7f7f" d="M90,424 l-27,0 0,4 1,3 1,4 1,3 3,4 4,4 5,3 5,2 5,1 6,0 5,-2 5,-2 -14,-24z" />
<path style="fill:#b2b2b2" d="M90,424 l-25,0 0,4 1,3 1,3 2,3 3,4 3,3 4,3 5,2 5,0 4,0 5,-1 5,-2 -13,-22z" />
<path style="fill:#e5e5e5" d="M90,424 l-21,0 0,3 1,3 1,3 1,2 6,6 7,4 8,1 8,-3 -11,-19z" />
<path style="fill:#fff" d="M90,424 l-16,0 0,2 1,2 0,3 1,2 5,4 5,3 7,1 6,-2 -9,-15z" />
<path style="fill:#e5e5e5" d="M90,424 l-11,0 0,1 1,2 0,1 1,2 3,3 4,2 4,0 4,-1 -6,-10z" />
<path style="fill:#b2b2b2" d="M90,424 l-6,0 0,1 0,1 0,1 1,1 1,2 2,1 3,0 3,-1 -4,-6z" />
<path style="fill:#7f7f7f" d="M90,424 l-2,0 0,1 0,1 1,1 1,0 1,0 1,0 -2,-3z" />
<path style="fill:none;stroke:#000;stroke-width:2" d="M63,424 l0,4 1,3 1,4 1,3 3,4 4,4 5,3 5,2 5,1 6,0 5,-2 5,-2" />
<path style="fill:#7f7f7f" d="M63,424 l27,0 0,-13 -27,0 0,13z" />
<path style="fill:#b2b2b2" d="M65,424 l23,0 0,-13 -23,0 0,13z" />
<path style="fill:#e5e5e5" d="M69,424 l15,0 0,-13 -15,0 0,13z" />
<path style="fill:#fff" d="M74,424 l5,0 0,-13 -5,0 0,13z" />
<path style="fill:none;stroke:#000;stroke-width:2" d="M90,424 l0,-13" />
<path style="fill:none;stroke:#000;stroke-width:2" d="M63,424 l0,-13" />
<path style="fill:#7f7f7f" d="M101,419 l14,24 312,-180 -13,-24 -313,180z" />
<path style="fill:#b2b2b2" d="M103,421 l11,20 312,-180 -11,-20 -312,180z" />
<path style="fill:#e5e5e5" d="M105,425 l7,12 312,-180 -7,-13 -312,181z" />
<path style="fill:#fff" d="M107,429 l3,4 312,-180 -3,-4 -312,180z" />
<path style="fill:none;stroke:#000;stroke-width:2" d="M115,443 l312,-180" />
<path style="fill:none;stroke:#000;stroke-width:2" d="M101,419 l313,-180" />
<path style="fill:#7f7f7f" d="M234,343 l14,24 48,-28 -14,-24 -12,7 -14,-24 -24,14 14,24 -12,7z" />
<path style="fill:#b2b2b2" d="M235,345 l11,20 34,-20 14,-8 -11,-20 -14,9 -15,-27 -20,12 15,26 -14,8z" />
<path style="fill:#e5e5e5" d="M237,349 l7,12 31,-17 18,-10 -8,-13 -18,10 -17,-30 -12,8 17,29 -18,11z" />
<path style="fill:#fff" d="M239,353 l3,4 26,-15 22,-13 -2,-4 -22,12 -20,-33 -4,2 19,34 -22,13z" />
<path style="fill:none;stroke:#000;stroke-width:2" d="M234,343 l12,-7 -14,-24" />
<path style="fill:none;stroke:#000;stroke-width:2" d="M256,298 l14,24 12,-7" />
<path style="fill:none;stroke:#000;stroke-width:2" d="M296,339 l-12,7 -36,21" />
<path style="fill:#7f7f7f" d="M233,313 l24,-13 -111,-193 -24,14 111,192z" />
<path style="fill:#b2b2b2" d="M235,312 l20,-11 -111,-192 -20,11 111,192z" />
<path style="fill:#e5e5e5" d="M239,310 l12,-7 -111,-192 -12,7 111,192z" />
<path style="fill:#fff" d="M243,308 l4,-3 -111,-192 -4,3 111,192z" />
<path style="fill:none;stroke:#000;stroke-width:2" d="M257,300 l-111,-193" />
<path style="fill:none;stroke:#000;stroke-width:2" d="M233,313 l-111,-192" />
<path style="fill:#7f7f7f" d="M144,76 l-14,-24 -48,28 14,24 12,-7 14,24 24,-14 -14,-24 12,-7z" />
<path style="fill:#b2b2b2" d="M143,74 l-12,-19 -33,19 -15,8 12,20 14,-8 15,26 20,-11 -16,-27 15,-8z" />
<path style="fill:#e5e5e5" d="M141,71 l-8,-13 -30,18 -18,10 8,13 17,-11 17,30 13,-7 -17,-30 18,-10z" />
<path style="fill:#fff" d="M138,67 l-2,-5 -27,15 -21,13 2,4 22,-12 20,34 4,-3 -19,-34 21,-12z" />
<path style="fill:none;stroke:#000;stroke-width:2" d="M144,76 l-12,7 14,24" />
<path style="fill:none;stroke:#000;stroke-width:2" d="M122,121 l-14,-24 -12,7" />
<path style="fill:none;stroke:#000;stroke-width:2" d="M82,80 l12,-7 36,-21" />

</svg>
