<?xml version="1.0" encoding="utf-8" standalone="no"?><!DOCTYPE svg PUBLIC "-//W3C//DTD SVG 1.1//EN" "http://www.w3.org/Graphics/SVG/1.1/DTD/svg11-flat-20030114.dtd"><svg width="370" height="530" version="1.1" xmlns="http://www.w3.org/2000/svg" xmlns:xlink="http://www.w3.org/1999/xlink">

<path style="fill:#7f7f7f" d="M170,152 l0,281 33,0 0,-281 -33,0z" />
<path style="fill:#b2b2b2" d="M173,152 l0,281 27,0 0,-281 -27,0z" />
<path style="fill:#e5e5e5" d="M177,152 l0,281 18,0 0,-281 -18,0z" />
<path style="fill:#fff" d="M183,152 l0,281 6,0 0,-281 -6,0z" />
<path style="fill:none;stroke:#000;stroke-width:2" d="M203,152 l0,281" />
<path style="fill:none;stroke:#000;stroke-width:2" d="M170,433 l0,-281" />
<path style="fill:#7f7f7f" d="M136,231 l34,0 0,-17 33,0 0,66 -33,0 0,-16 -34,0 0,-33z" />
<path style="fill:#b2b2b2" d="M136,234 l37,0 0,-20 27,0 0,66 -27,0 0,-20 -37,0 0,-26z" />
<path style="fill:#e5e5e5" d="M136,238 l42,0 0,-24 17,0 0,66 -17,0 0,-24 -42,0 0,-18z" />
<path style="fill:#fff" d="M136,244 l47,0 0,-30 7,0 0,66 -7,0 0,-30 -47,0 0,-6z" />
<path style="fill:none;stroke:#000;stroke-width:2" d="M136,231 l34,0 0,-17" />
<path style="fill:none;stroke:#000;stroke-width:2" d="M136,264 l34,0 0,16" />
<path style="fill:none;stroke:#000;stroke-width:2" d="M203,280 l0,-66" />
<path style="fill:#7f7f7f" d="M140,230 l-62,0 0,33 62,0 0,-33z" />
<path style="fill:#b2b2b2" d="M140,233 l-62,0 0,27 62,0 0,-27z" />
<path style="fill:#e5e5e5" d="M140,238 l-62,0 0,18 62,0 0,-18z" />
<path style="fill:#fff" d="M140,244 l-62,0 0,6 62,0 0,-6z" />
<path style="fill:none;stroke:#000;stroke-width:2" d="M140,263 l-62,0" />
<path style="fill:none;stroke:#000;stroke-width:2" d="M78,230 l62,0" />
<path style="fill:#7f7f7f" d="M49,300 l0,-102 -34,0 0,102 34,0z" />
<path style="fill:#b2b2b2" d="M46,300 l0,-102 -27,0 0,102 27,0z" />
<path style="fill:#e5e5e5" d="M41,300 l0,-102 -18,0 0,102 18,0z" />
<path style="fill:#fff" d="M35,300 l0,-102 -6,0 0,102 6,0z" />
<path style="fill:none;stroke:#000;stroke-width:2" d="M15,300 l0,-102" />
<path style="fill:none;stroke:#000;stroke-width:2" d="M49,198 l0,102" />
<path style="fill:#7f7f7f" d="M82,263 l-33,0 0,17 -33,0 0,-66 33,0 0,16 33,0 0,33z" />
<path style="fill:#b2b2b2" d="M82,260 l-37,0 0,20 -26,0 0,-66 26,0 0,20 37,0 0,26z" />
<path style="fill:#e5e5e5" d="M82,256 l-41,0 0,24 -18,0 0,-66 18,0 0,24 41,0 0,18z" />
<path style="fill:#fff" d="M82,250 l-47,0 0,30 -6,0 0,-66 6,0 0,30 47,0 0,6z" />
<path style="fill:none;stroke:#000;stroke-width:2" d="M82,263 l-33,0 0,17" />
<path style="fill:none;stroke:#000;stroke-width:2" d="M82,230 l-33,0 0,-16" />
<path style="fill:none;stroke:#000;stroke-width:2" d="M16,214 l0,66" />
<path style="fill:#7f7f7f" d="M187,152 l137,0 -3,-28 -8,-25 -13,-24 -16,-20 -21,-17 -23,-12 -26,-8 -27,-3 -27,3 -26,8 -23,12 -21,17 -16,20 -13,24 -8,25 -3,28 137,0z" />
<path style="fill:#999" d="M187,152 l124,0 -3,-27 -7,-26 -11,-23 -16,-21 -18,-16 -21,-13 -23,-8 -25,-3 -25,3 -23,8 -21,13 -18,16 -15,21 -11,23 -8,26 -2,27 123,0z" />
<path style="fill:#b2b2b2" d="M187,152 l98,0 -2,-27 -6,-26 -9,-23 -12,-21 -14,-16 -17,-13 -18,-8 -20,-3 -20,3 -18,8 -17,13 -14,16 -12,21 -9,23 -6,26 -2,27 98,0z" />
<path style="fill:#ccc" d="M187,152 l73,0 -1,-28 -5,-25 -7,-24 -9,-20 -10,-17 -13,-12 -13,-8 -15,-3 -15,3 -13,8 -12,12 -11,17 -9,20 -6,24 -5,25 -1,28 72,0z" />
<path style="fill:#e5e5e5" d="M187,152 l47,0 -1,-28 -3,-25 -4,-24 -6,-20 -7,-17 -8,-12 -9,-8 -9,-3 -9,3 -9,8 -8,12 -7,17 -6,20 -4,24 -3,25 -1,28 47,0z" />
<path style="fill:none;stroke:#000;stroke-width:2" d="M187,152 l137,0 -3,-28 -8,-25 -13,-24 -16,-20 -21,-17 -23,-12 -26,-8 -27,-3 -27,3 -26,8 -23,12 -21,17 -16,20 -13,24 -8,25 -3,28 137,0" />
<path style="fill:#fff" d="M187,152 l13,0 0,-28 -1,-25 -1,-24 -2,-20 -2,-17 -2,-12 -2,-8 -3,-3 -3,3 -2,8 -2,12 -2,17 -2,20 -1,24 -1,25 0,28 13,0z" />
<path style="fill:#7f7f7f" d="M355,515 l0,-168 -336,168 0,-168 336,168z" />
<path style="fill:#999" d="M355,506 l0,-151 -336,151 0,-151 336,151z" />
<path style="fill:#b2b2b2" d="M355,489 l0,-116 -336,116 0,-116 336,116z" />
<path style="fill:#ccc" d="M355,472 l0,-82 -336,82 0,-82 336,82z" />
<path style="fill:#e5e5e5" d="M355,459 l0,-57 -336,57 0,-57 336,57z" />
<path style="fill:#fff" d="M355,441 l0,-21 -336,21 0,-21 336,21z" />
<path style="fill:none;stroke:#000;stroke-width:2" d="M355,515 l0,-168 -336,168 0,-168 336,168" />

</svg>
