<?xml version="1.0" encoding="utf-8" standalone="no"?><!DOCTYPE svg PUBLIC "-//W3C//DTD SVG 1.1//EN" "http://www.w3.org/Graphics/SVG/1.1/DTD/svg11-flat-20030114.dtd"><svg width="526" height="277" version="1.1" xmlns="http://www.w3.org/2000/svg" xmlns:xlink="http://www.w3.org/1999/xlink">

<path style="fill:#7f7f7f" d="M512,263 l0,-249 -498,249 0,-249 498,249z" />
<path style="fill:#999" d="M512,250 l0,-224 -498,224 0,-224 498,224z" />
<path style="fill:#b2b2b2" d="M512,224 l0,-172 -498,172 0,-172 498,172z" />
<path style="fill:#ccc" d="M512,199 l0,-122 -498,122 0,-122 498,122z" />
<path style="fill:#e5e5e5" d="M512,180 l0,-84 -498,84 0,-84 498,84z" />
<path style="fill:#fff" d="M512,154 l0,-32 -498,32 0,-32 498,32z" />
<path style="fill:none;stroke:#000;stroke-width:2" d="M512,263 l0,-249 -498,249 0,-249 498,249" />
<circle style="fill:#7f7f7f" cx="263" cy="138" r="58" />
<circle style="fill:#999" cx="263" cy="138" r="53" />
<circle style="fill:#b2b2b2" cx="263" cy="138" r="45" />
<circle style="fill:#ccc" cx="263" cy="138" r="33" />
<circle style="fill:#e5e5e5" cx="263" cy="138" r="24" />
<circle style="fill:none;stroke:#000;stroke-width:2" cx="263" cy="138" r="58" />
<circle style="fill:#fff" cx="263" cy="138" r="14" />

</svg>
