<?xml version="1.0" encoding="utf-8" standalone="no"?><!DOCTYPE svg PUBLIC "-//W3C//DTD SVG 1.1//EN" "http://www.w3.org/Graphics/SVG/1.1/DTD/svg11-flat-20030114.dtd"><svg width="361" height="523" version="1.1" xmlns="http://www.w3.org/2000/svg" xmlns:xlink="http://www.w3.org/1999/xlink">

<path style="fill:#7f7f7f" d="M291,246 l-227,0 0,33 227,0 0,-33z" />
<path style="fill:#b2b2b2" d="M291,249 l-227,0 0,27 227,0 0,-27z" />
<path style="fill:#e5e5e5" d="M291,253 l-227,0 0,18 227,0 0,-18z" />
<path style="fill:#fff" d="M291,259 l-227,0 0,6 227,0 0,-6z" />
<path style="fill:none;stroke:#000;stroke-width:2" d="M291,279 l-227,0" />
<path style="fill:none;stroke:#000;stroke-width:2" d="M64,246 l227,0" />
<path style="fill:#7f7f7f" d="M161,145 l0,283 33,0 0,-283 -33,0z" />
<path style="fill:#b2b2b2" d="M164,145 l0,283 27,0 0,-283 -27,0z" />
<path style="fill:#e5e5e5" d="M168,145 l0,283 19,0 0,-283 -19,0z" />
<path style="fill:#fff" d="M175,145 l0,283 6,0 0,-283 -6,0z" />
<path style="fill:none;stroke:#000;stroke-width:2" d="M194,145 l0,283" />
<path style="fill:none;stroke:#000;stroke-width:2" d="M161,428 l0,-283" />
<path style="fill:#7f7f7f" d="M160,229 l0,16 -16,0 0,33 16,0 0,17 33,0 0,-17 17,0 0,-33 -17,0 0,-16 -33,0z" />
<path style="fill:#b2b2b2" d="M164,229 l0,20 -20,0 0,26 20,0 0,20 26,0 0,-20 20,0 0,-26 -20,0 0,-20 -26,0z" />
<path style="fill:#e5e5e5" d="M168,229 l0,24 -24,0 0,18 24,0 0,24 18,0 0,-24 24,0 0,-18 -24,0 0,-24 -18,0z" />
<path style="fill:#fff" d="M174,229 l0,30 -30,0 0,6 30,0 0,30 6,0 0,-30 30,0 0,-6 -30,0 0,-30 -6,0z" />
<path style="fill:none;stroke:#000;stroke-width:2" d="M160,229 l0,17 -16,0" />
<path style="fill:none;stroke:#000;stroke-width:2" d="M144,279 l16,0 0,16" />
<path style="fill:none;stroke:#000;stroke-width:2" d="M193,295 l0,-16 17,0" />
<path style="fill:none;stroke:#000;stroke-width:2" d="M210,246 l-17,0 0,-17" />
<path style="fill:#7f7f7f" d="M291,192 l-227,0 0,33 227,0 0,-33z" />
<path style="fill:#b2b2b2" d="M291,195 l-227,0 0,27 227,0 0,-27z" />
<path style="fill:#e5e5e5" d="M291,199 l-227,0 0,18 227,0 0,-18z" />
<path style="fill:#fff" d="M291,205 l-227,0 0,6 227,0 0,-6z" />
<path style="fill:none;stroke:#000;stroke-width:2" d="M291,225 l-227,0" />
<path style="fill:none;stroke:#000;stroke-width:2" d="M64,192 l227,0" />
<path style="fill:#7f7f7f" d="M160,175 l0,16 -16,0 0,33 16,0 0,17 33,0 0,-17 17,0 0,-33 -17,0 0,-16 -33,0z" />
<path style="fill:#b2b2b2" d="M164,175 l0,20 -20,0 0,26 20,0 0,20 26,0 0,-20 20,0 0,-26 -20,0 0,-20 -26,0z" />
<path style="fill:#e5e5e5" d="M168,175 l0,24 -24,0 0,18 24,0 0,24 18,0 0,-24 24,0 0,-18 -24,0 0,-24 -18,0z" />
<path style="fill:#fff" d="M174,175 l0,30 -30,0 0,6 30,0 0,30 6,0 0,-30 30,0 0,-6 -30,0 0,-30 -6,0z" />
<path style="fill:none;stroke:#000;stroke-width:2" d="M160,175 l0,16 -16,0" />
<path style="fill:none;stroke:#000;stroke-width:2" d="M144,224 l16,0 0,17" />
<path style="fill:none;stroke:#000;stroke-width:2" d="M193,241 l0,-17 17,0" />
<path style="fill:none;stroke:#000;stroke-width:2" d="M210,191 l-17,0 0,-16" />
<path style="fill:#7f7f7f" d="M181,149 l135,0 -3,-27 -8,-25 -12,-23 -17,-20 -20,-17 -23,-12 -25,-8 -27,-3 -27,3 -26,8 -23,12 -20,17 -17,20 -12,23 -8,25 -3,27 136,0z" />
<path style="fill:#999" d="M181,149 l122,0 -2,-27 -8,-25 -11,-23 -15,-20 -18,-17 -21,-12 -23,-8 -24,-3 -25,3 -23,8 -21,12 -18,17 -15,20 -11,23 -8,25 -2,27 123,0z" />
<path style="fill:#b2b2b2" d="M181,150 l97,0 -2,-27 -6,-26 -9,-23 -12,-20 -14,-17 -16,-12 -19,-8 -19,-3 -20,3 -18,8 -17,12 -14,17 -12,20 -9,23 -6,26 -2,27 98,0z" />
<path style="fill:#ccc" d="M181,149 l71,0 -1,-27 -5,-25 -6,-23 -9,-20 -10,-17 -12,-12 -14,-8 -14,-3 -15,3 -13,8 -12,12 -11,17 -9,20 -6,23 -5,25 -1,27 72,0z" />
<path style="fill:#e5e5e5" d="M180,149 l47,0 -1,-27 -3,-25 -4,-23 -6,-20 -7,-17 -8,-12 -9,-8 -9,-3 -9,3 -9,8 -8,12 -6,17 -6,20 -4,23 -3,25 -1,27 46,0z" />
<path style="fill:none;stroke:#000;stroke-width:2" d="M181,149 l135,0 -3,-27 -8,-25 -12,-23 -17,-20 -20,-17 -23,-12 -25,-8 -27,-3 -27,3 -26,8 -23,12 -20,17 -17,20 -12,23 -8,25 -3,27 136,0" />
<path style="fill:#fff" d="M181,149 l12,0 0,-27 -1,-25 -1,-23 -1,-20 -2,-17 -2,-12 -2,-8 -3,-3 -3,3 -2,8 -3,12 -2,17 -1,20 -1,23 -1,25 0,27 13,0z" />
<path style="fill:#7f7f7f" d="M347,509 l0,-166 -333,166 0,-166 333,166z" />
<path style="fill:#999" d="M347,501 l0,-150 -333,150 0,-150 333,150z" />
<path style="fill:#b2b2b2" d="M347,484 l0,-116 -333,116 0,-116 333,116z" />
<path style="fill:#ccc" d="M347,467 l0,-82 -333,82 0,-82 333,82z" />
<path style="fill:#e5e5e5" d="M347,454 l0,-56 -333,56 0,-56 333,56z" />
<path style="fill:#fff" d="M347,437 l0,-22 -333,22 0,-22 333,22z" />
<path style="fill:none;stroke:#000;stroke-width:2" d="M347,509 l0,-166 -333,166 0,-166 333,166" />

</svg>
