<?xml version="1.0" encoding="utf-8" standalone="no"?><!DOCTYPE svg PUBLIC "-//W3C//DTD SVG 1.1//EN" "http://www.w3.org/Graphics/SVG/1.1/DTD/svg11-flat-20030114.dtd"><svg width="413" height="530" version="1.1" xmlns="http://www.w3.org/2000/svg" xmlns:xlink="http://www.w3.org/1999/xlink">

<path style="fill:#7f7f7f" d="M152,441 l0,-361 35,0 0,361 -35,0z" />
<path style="fill:#b2b2b2" d="M156,441 l0,-361 28,0 0,361 -28,0z" />
<path style="fill:#e5e5e5" d="M160,441 l0,-361 19,0 0,361 -19,0z" />
<path style="fill:#fff" d="M167,441 l0,-361 6,0 0,361 -6,0z" />
<path style="fill:none;stroke:#000;stroke-width:2" d="M187,441 l0,-361" />
<path style="fill:none;stroke:#000;stroke-width:2" d="M152,80 l0,361" />
<path style="fill:#7f7f7f" d="M221,50 l0,-35 -69,0 35,35 34,0z" />
<path style="fill:#7f7f7f" d="M187,84 l-35,0 0,-69 35,35 0,34z" />
<path style="fill:#b2b2b2" d="M155,84 l29,0 0,-37 -29,-29 0,66z" />
<path style="fill:#b2b2b2" d="M221,18 l0,29 -37,0 -29,-29 66,0z" />
<path style="fill:#e5e5e5" d="M160,84 l19,0 0,-42 -19,-19 0,61z" />
<path style="fill:#e5e5e5" d="M221,23 l0,19 -42,0 -19,-19 61,0z" />
<path style="fill:#fff" d="M221,29 l0,7 -48,0 -7,-7 55,0z" />
<path style="fill:#fff" d="M166,84 l7,0 0,-48 -7,-7 0,55z" />
<path style="fill:none;stroke:#000;stroke-width:2" d="M152,84 l0,-69" />
<path style="fill:none;stroke:#000;stroke-width:2" d="M187,50 l0,34" />
<path style="fill:none;stroke:#000;stroke-width:2" d="M222,15 l-70,0" />
<path style="fill:none;stroke:#000;stroke-width:2" d="M187,50 l35,0" />
<path style="fill:#7f7f7f" d="M363,85 l35,0 0,-70 -35,35 0,35z" />
<path style="fill:#7f7f7f" d="M328,50 l0,-35 70,0 -35,35 -35,0z" />
<path style="fill:#b2b2b2" d="M328,18 l0,29 38,0 29,-29 -67,0z" />
<path style="fill:#b2b2b2" d="M395,85 l-29,0 0,-38 29,-29 0,67z" />
<path style="fill:#e5e5e5" d="M328,23 l0,19 43,0 19,-19 -62,0z" />
<path style="fill:#e5e5e5" d="M390,85 l-19,0 0,-43 19,-19 0,62z" />
<path style="fill:#fff" d="M383,85 l-6,0 0,-49 6,-6 0,55z" />
<path style="fill:#fff" d="M328,29 l0,7 49,0 7,-7 -56,0z" />
<path style="fill:none;stroke:#000;stroke-width:2" d="M328,15 l70,0" />
<path style="fill:none;stroke:#000;stroke-width:2" d="M363,50 l-35,0" />
<path style="fill:none;stroke:#000;stroke-width:2" d="M398,85 l0,-70" />
<path style="fill:none;stroke:#000;stroke-width:2" d="M363,50 l0,35" />
<path style="fill:#7f7f7f" d="M363,441 l0,-356 35,0 0,356 -35,0z" />
<path style="fill:#b2b2b2" d="M366,441 l0,-356 28,0 0,356 -28,0z" />
<path style="fill:#e5e5e5" d="M371,441 l0,-356 19,0 0,356 -19,0z" />
<path style="fill:#fff" d="M377,441 l0,-356 7,0 0,356 -7,0z" />
<path style="fill:none;stroke:#000;stroke-width:2" d="M398,441 l0,-356" />
<path style="fill:none;stroke:#000;stroke-width:2" d="M363,85 l0,356" />
<path style="fill:#7f7f7f" d="M332,50 l-114,0 0,-35 114,0 0,35z" />
<path style="fill:#b2b2b2" d="M332,46 l-114,0 0,-28 114,0 0,28z" />
<path style="fill:#e5e5e5" d="M332,42 l-114,0 0,-19 114,0 0,19z" />
<path style="fill:#fff" d="M332,36 l-114,0 0,-7 114,0 0,7z" />
<path style="fill:none;stroke:#000;stroke-width:2" d="M332,15 l-114,0" />
<path style="fill:none;stroke:#000;stroke-width:2" d="M218,50 l114,0" />
<path style="fill:#7f7f7f" d="M171,187 l-125,0 3,-25 7,-24 12,-21 15,-18 19,-16 21,-11 23,-7 25,-3 25,3 24,7 21,11 18,16 16,18 11,21 7,24 3,25 -125,0z" />
<path style="fill:#999" d="M171,187 l-113,0 2,-25 7,-24 10,-21 14,-18 17,-16 19,-11 21,-7 23,-3 23,3 21,7 20,11 17,16 14,18 10,21 7,24 2,25 -114,0z" />
<path style="fill:#b2b2b2" d="M171,187 l-89,0 2,-25 5,-24 8,-21 11,-18 13,-16 15,-11 17,-7 18,-3 18,3 17,7 15,11 14,16 11,18 8,21 5,24 2,25 -90,0z" />
<path style="fill:#ccc" d="M171,187 l-66,0 1,-25 4,-24 6,-21 8,-18 10,-16 11,-11 13,-7 13,-3 14,3 12,7 11,11 10,16 9,18 6,21 4,24 1,25 -67,0z" />
<path style="fill:#e5e5e5" d="M171,187 l-43,0 1,-25 2,-24 5,-21 5,-18 6,-16 8,-11 8,-7 8,-3 9,3 8,7 7,11 6,16 6,18 4,21 2,24 1,25 -43,0z" />
<path style="fill:none;stroke:#000;stroke-width:2" d="M171,187 l-125,0 3,-25 7,-24 12,-21 15,-18 19,-16 21,-11 23,-7 25,-3 25,3 24,7 21,11 18,16 16,18 11,21 7,24 3,25 -125,0" />
<path style="fill:#fff" d="M171,187 l-11,0 0,-25 1,-24 1,-21 1,-18 2,-16 2,-11 2,-7 2,-3 3,3 2,7 2,11 2,16 1,18 1,21 1,24 0,25 -12,0z" />
<path style="fill:#7f7f7f" d="M15,515 l0,-152 309,152 0,-152 -309,152z" />
<path style="fill:#999" d="M15,507 l0,-137 309,137 0,-137 -309,137z" />
<path style="fill:#b2b2b2" d="M15,492 l0,-106 309,106 0,-106 -309,106z" />
<path style="fill:#ccc" d="M15,476 l0,-74 309,74 0,-74 -309,74z" />
<path style="fill:#e5e5e5" d="M15,464 l0,-51 309,51 0,-51 -309,51z" />
<path style="fill:#fff" d="M15,449 l0,-20 309,20 0,-20 -309,20z" />
<path style="fill:none;stroke:#000;stroke-width:2" d="M15,515 l0,-152 309,152 0,-152 -309,152" />

</svg>
