<?xml version="1.0" encoding="utf-8" standalone="no"?><!DOCTYPE svg PUBLIC "-//W3C//DTD SVG 1.1//EN" "http://www.w3.org/Graphics/SVG/1.1/DTD/svg11-flat-20030114.dtd"><svg width="530" height="280" version="1.1" xmlns="http://www.w3.org/2000/svg" xmlns:xlink="http://www.w3.org/1999/xlink">

<path style="fill:#7f7f7f" d="M15,265 l250,-125 -250,-125 0,250z" />
<path style="fill:#7f7f7f;stroke:#000;stroke-width:2" d="M515,265 l-250,-125 250,-125 0,250z" />
<path style="fill:#999" d="M15,253 l250,-113 -250,-114 0,227z" />
<path style="fill:#999" d="M515,253 l-250,-113 250,-114 0,227z" />
<path style="fill:#b2b2b2" d="M15,226 l250,-86 -250,-86 0,172z" />
<path style="fill:#b2b2b2" d="M515,226 l-250,-86 250,-86 0,172z" />
<path style="fill:#ccc" d="M15,202 l250,-62 -250,-63 0,125z" />
<path style="fill:#ccc" d="M515,202 l-250,-62 250,-63 0,125z" />
<path style="fill:#e5e5e5" d="M15,183 l250,-43 -250,-43 0,86z" />
<path style="fill:#e5e5e5" d="M515,183 l-250,-43 250,-43 0,86z" />
<path style="fill:#fff" d="M15,155 l250,-15 -250,-16 0,31z" />
<path style="fill:#fff" d="M515,155 l-250,-15 250,-16 0,31z" />
<path style="fill:none;stroke:#000;stroke-width:2" d="M15,265 l250,-125 -250,-125 0,250" />
<path style="fill:#7f7f7f;stroke:#000;stroke-width:2" d="M347,214 l-4,0 0,-148 4,0 0,148z" />
<path style="fill:#7f7f7f;stroke:#000;stroke-width:2" d="M187,214 l-4,0 0,-148 4,0 0,148z" />

</svg>
