<?xml version="1.0" encoding="utf-8" standalone="no"?><!DOCTYPE svg PUBLIC "-//W3C//DTD SVG 1.1//EN" "http://www.w3.org/Graphics/SVG/1.1/DTD/svg11-flat-20030114.dtd"><svg width="481" height="524" version="1.1" xmlns="http://www.w3.org/2000/svg" xmlns:xlink="http://www.w3.org/1999/xlink">

<path style="fill:#000;stroke:#000;stroke-width:2" d="M412,29 l-375,0 0,144 375,0 0,-144z" />
<path style="fill:#7f7f7f" d="M225,157 l0,244 33,0 0,-244 -33,0z" />
<path style="fill:#b2b2b2" d="M228,157 l0,244 27,0 0,-244 -27,0z" />
<path style="fill:#e5e5e5" d="M232,157 l0,244 18,0 0,-244 -18,0z" />
<path style="fill:#fff" d="M238,157 l0,244 6,0 0,-244 -6,0z" />
<path style="fill:none;stroke:#000;stroke-width:2" d="M258,157 l0,244" />
<path style="fill:none;stroke:#000;stroke-width:2" d="M225,401 l0,-244" />
<path style="fill:#7f7f7f" d="M467,510 l0,-229 -453,229 0,-229 453,229z" />
<path style="fill:#999" d="M467,498 l0,-205 -453,205 0,-205 453,205z" />
<path style="fill:#b2b2b2" d="M467,474 l0,-158 -453,158 0,-158 453,158z" />
<path style="fill:#ccc" d="M467,451 l0,-112 -453,112 0,-112 453,112z" />
<path style="fill:#e5e5e5" d="M467,433 l0,-76 -453,76 0,-76 453,76z" />
<path style="fill:#fff" d="M467,410 l0,-29 -453,29 0,-29 453,29z" />
<path style="fill:none;stroke:#000;stroke-width:2" d="M467,510 l0,-229 -453,229 0,-229 453,229" />
<path style="fill:#7f7f7f;stroke:#000;stroke-width:2" d="M428,14 l-374,0 0,144 374,0 0,-144z" />

</svg>
