<?xml version="1.0" encoding="utf-8" standalone="no"?><!DOCTYPE svg PUBLIC "-//W3C//DTD SVG 1.1//EN" "http://www.w3.org/Graphics/SVG/1.1/DTD/svg11-flat-20030114.dtd"><svg width="518" height="465" version="1.1" xmlns="http://www.w3.org/2000/svg" xmlns:xlink="http://www.w3.org/1999/xlink">

<path style="fill:#7f7f7f" d="M230,40 l-15,-26 -201,116 15,26 201,-116z" />
<path style="fill:#b2b2b2" d="M228,37 l-12,-21 -201,116 13,21 200,-116z" />
<path style="fill:#e5e5e5" d="M226,34 l-8,-14 -201,116 8,14 201,-116z" />
<path style="fill:#fff" d="M224,29 l-3,-5 -201,116 3,5 201,-116z" />
<path style="fill:none;stroke:#000;stroke-width:2" d="M215,14 l-201,116" />
<path style="fill:none;stroke:#000;stroke-width:2" d="M230,40 l-201,116" />
<path style="fill:#7f7f7f" d="M251,339 l26,-15 -120,-208 -25,15 119,208z" />
<path style="fill:#b2b2b2" d="M254,337 l21,-12 -120,-207 -21,12 120,207z" />
<path style="fill:#e5e5e5" d="M257,335 l14,-8 -120,-207 -13,8 119,207z" />
<path style="fill:#fff" d="M262,333 l5,-3 -120,-208 -5,3 120,208z" />
<path style="fill:none;stroke:#000;stroke-width:2" d="M277,324 l-120,-208" />
<path style="fill:none;stroke:#000;stroke-width:2" d="M251,339 l-119,-208" />
<path style="fill:#7f7f7f" d="M155,83 l-15,-26 -52,30 15,26 13,-8 15,26 26,-15 -15,-26 13,-7z" />
<path style="fill:#b2b2b2" d="M154,80 l-12,-21 -37,21 -15,9 12,21 15,-9 17,29 21,-12 -17,-29 16,-9z" />
<path style="fill:#e5e5e5" d="M152,77 l-8,-14 -33,19 -19,11 8,14 19,-11 18,32 14,-8 -18,-32 19,-11z" />
<path style="fill:#fff" d="M149,72 l-3,-5 -28,17 -24,13 3,5 24,-13 21,36 5,-3 -21,-36 23,-14z" />
<path style="fill:none;stroke:#000;stroke-width:2" d="M155,83 l-13,7 15,26" />
<path style="fill:none;stroke:#000;stroke-width:2" d="M131,131 l-15,-26 -13,8" />
<path style="fill:none;stroke:#000;stroke-width:2" d="M88,87 l13,-8 39,-22" />
<path style="fill:#7f7f7f" d="M504,451 l0,-240 -479,240 0,-240 479,240z" />
<path style="fill:#999" d="M504,439 l0,-215 -479,215 0,-215 479,215z" />
<path style="fill:#b2b2b2" d="M504,414 l0,-166 -479,166 0,-166 479,166z" />
<path style="fill:#ccc" d="M504,390 l0,-117 -479,117 0,-117 479,117z" />
<path style="fill:#e5e5e5" d="M504,371 l0,-80 -479,80 0,-80 479,80z" />
<path style="fill:#fff" d="M504,346 l0,-30 -479,30 0,-30 479,30z" />
<path style="fill:none;stroke:#000;stroke-width:2" d="M504,451 l0,-240 -479,240 0,-240 479,240" />

</svg>
