<?xml version="1.0" encoding="utf-8" standalone="no"?><!DOCTYPE svg PUBLIC "-//W3C//DTD SVG 1.1//EN" "http://www.w3.org/Graphics/SVG/1.1/DTD/svg11-flat-20030114.dtd"><svg width="690" height="999" version="1.1" xmlns="http://www.w3.org/2000/svg" xmlns:xlink="http://www.w3.org/1999/xlink">

<path style="fill:#7f7f7f" d="M555,469 l-432,0 0,63 432,0 0,-63z" />
<path style="fill:#b2b2b2" d="M555,475 l-432,0 0,52 432,0 0,-52z" />
<path style="fill:#e5e5e5" d="M555,483 l-432,0 0,34 432,0 0,-34z" />
<path style="fill:#fff" d="M555,494 l-432,0 0,12 432,0 0,-12z" />
<path style="fill:none;stroke:#000;stroke-width:2" d="M555,532 l-432,0" />
<path style="fill:none;stroke:#000;stroke-width:2" d="M123,469 l432,0" />
<path style="fill:#7f7f7f" d="M307,277 l0,539 63,0 0,-539 -63,0z" />
<path style="fill:#b2b2b2" d="M313,277 l0,539 52,0 0,-539 -52,0z" />
<path style="fill:#e5e5e5" d="M321,277 l0,539 36,0 0,-539 -36,0z" />
<path style="fill:#fff" d="M334,277 l0,539 11,0 0,-539 -11,0z" />
<path style="fill:none;stroke:#000;stroke-width:2" d="M370,277 l0,539" />
<path style="fill:none;stroke:#000;stroke-width:2" d="M307,816 l0,-539" />
<path style="fill:#7f7f7f" d="M305,437 l0,30 -30,0 0,64 30,0 0,32 63,0 0,-32 33,0 0,-64 -33,0 0,-30 -63,0z" />
<path style="fill:#b2b2b2" d="M313,437 l0,38 -38,0 0,50 38,0 0,38 50,0 0,-38 38,0 0,-50 -38,0 0,-38 -50,0z" />
<path style="fill:#e5e5e5" d="M321,437 l0,46 -46,0 0,34 46,0 0,46 34,0 0,-46 46,0 0,-34 -46,0 0,-46 -34,0z" />
<path style="fill:#fff" d="M332,437 l0,57 -57,0 0,12 57,0 0,57 11,0 0,-57 58,0 0,-12 -58,0 0,-57 -11,0z" />
<path style="fill:none;stroke:#000;stroke-width:2" d="M305,437 l0,32 -30,0" />
<path style="fill:none;stroke:#000;stroke-width:2" d="M275,532 l30,0 0,31" />
<path style="fill:none;stroke:#000;stroke-width:2" d="M368,563 l0,-31 33,0" />
<path style="fill:none;stroke:#000;stroke-width:2" d="M401,469 l-33,0 0,-32" />
<path style="fill:#7f7f7f" d="M345,285 l258,0 -6,-52 -15,-48 -10,-22 -29,-41 -35,-35 -41,-28 -22,-11 -48,-15 -52,-5 -52,5 -24,7 -24,8 -23,11 -41,28 -35,35 -28,41 -11,22 -15,48 -5,52 258,0z" />
<path style="fill:#999" d="M345,285 l233,0 -5,-52 -14,-48 -21,-44 -29,-38 -34,-31 -40,-24 -43,-15 -47,-5 -47,5 -44,15 -40,24 -34,31 -29,38 -21,44 -14,48 -5,52 234,0z" />
<path style="fill:#b2b2b2" d="M345,286 l185,0 -4,-52 -11,-48 -17,-44 -23,-38 -27,-32 -31,-24 -35,-15 -37,-5 -37,5 -35,15 -32,24 -28,32 -22,38 -18,44 -10,48 -4,52 186,0z" />
<path style="fill:#ccc" d="M345,285 l136,0 -1,-26 -2,-26 -4,-24 -4,-24 -6,-22 -6,-22 -8,-19 -9,-19 -10,-16 -10,-15 -11,-13 -12,-11 -13,-8 -12,-7 -14,-4 -14,-1 -14,1 -13,4 -14,7 -12,8 -12,11 -11,13 -11,15 -10,16 -9,19 -7,19 -7,22 -6,22 -5,24 -3,24 -2,26 -1,26 137,0z" />
<path style="fill:#e5e5e5" d="M343,285 l90,0 0,-26 -2,-26 -2,-24 -3,-24 -4,-22 -4,-22 -5,-19 -6,-19 -6,-16 -8,-15 -7,-13 -8,-11 -8,-8 -9,-7 -9,-4 -9,-1 -8,1 -9,4 -8,7 -8,8 -8,11 -7,13 -7,15 -6,16 -6,19 -5,19 -4,22 -4,22 -3,24 -2,24 -2,26 0,26 87,0z" />
<path style="fill:none;stroke:#000;stroke-width:2" d="M345,285 l258,0 -6,-52 -15,-48 -10,-22 -29,-41 -35,-35 -41,-28 -22,-11 -48,-15 -52,-5 -52,5 -24,7 -24,8 -23,11 -41,28 -35,35 -28,41 -11,22 -15,48 -5,52 258,0" />
<path style="fill:#fff" d="M345,285 l23,0 0,-26 0,-26 0,-24 -1,-24 -1,-22 -1,-22 -2,-19 -1,-19 -2,-16 -1,-15 -2,-13 -2,-11 -3,-8 -4,-11 -3,-1 -2,1 -6,11 -2,8 -2,11 -2,13 -2,15 -2,16 -1,19 -1,19 -1,22 -1,22 -1,24 -1,24 0,26 0,26 24,0z" />
<path style="fill:#7f7f7f" d="M662,970 l0,-316 -634,316 0,-316 634,316z" />
<path style="fill:#999" d="M662,955 l0,-285 -634,285 0,-285 634,285z" />
<path style="fill:#b2b2b2" d="M662,923 l0,-221 -634,221 0,-221 634,221z" />
<path style="fill:#ccc" d="M662,890 l0,-156 -634,156 0,-156 634,156z" />
<path style="fill:#e5e5e5" d="M662,866 l0,-107 -634,107 0,-107 634,107z" />
<path style="fill:#fff" d="M662,833 l0,-42 -634,42 0,-42 634,42z" />
<path style="fill:none;stroke:#000;stroke-width:2" d="M662,970 l0,-316 -634,316 0,-316 634,316" />

</svg>
