<?xml version="1.0" encoding="utf-8" standalone="no"?><!DOCTYPE svg PUBLIC "-//W3C//DTD SVG 1.1//EN" "http://www.w3.org/Graphics/SVG/1.1/DTD/svg11-flat-20030114.dtd"><svg width="512" height="497" version="1.1" xmlns="http://www.w3.org/2000/svg" xmlns:xlink="http://www.w3.org/1999/xlink">

<path style="fill:#000;stroke:#000;stroke-width:2" d="M100,29 l-86,87 86,86 87,-86 -87,-87z" />
<path style="fill:#7f7f7f" d="M141,149 l137,138 22,-23 -137,-137 -22,22z" />
<path style="fill:#b2b2b2" d="M143,147 l137,137 18,-17 -137,-138 -18,18z" />
<path style="fill:#e5e5e5" d="M146,144 l137,138 12,-13 -137,-137 -12,12z" />
<path style="fill:#fff" d="M150,140 l137,138 4,-5 -137,-137 -4,4z" />
<path style="fill:none;stroke:#000;stroke-width:2" d="M163,127 l137,137" />
<path style="fill:none;stroke:#000;stroke-width:2" d="M278,287 l-137,-138" />
<path style="fill:#7f7f7f;stroke:#000;stroke-width:2" d="M114,14 l-85,87 85,86 87,-86 -87,-87z" />
<path style="fill:none;stroke:#000;stroke-width:2" d="M158,112 l-32,32 -27,-28 31,-31 -27,-27 -32,31" />
<path style="fill:#7f7f7f" d="M498,483 l-112,-111 112,-112 0,223z" />
<path style="fill:#999" d="M498,473 l-112,-101 112,-101 0,202z" />
<path style="fill:#b2b2b2" d="M498,448 l-112,-76 112,-77 0,153z" />
<path style="fill:#ccc" d="M498,427 l-112,-55 112,-56 0,111z" />
<path style="fill:#e5e5e5" d="M498,410 l-112,-38 112,-39 0,77z" />
<path style="fill:#fff" d="M498,385 l-112,-13 112,-14 0,27z" />
<path style="fill:none;stroke:#000;stroke-width:2" d="M498,483 l-112,-111 112,-112 0,223" />
<path style="fill:#7f7f7f" d="M275,483 l111,-111 -111,-112 0,223z" />
<path style="fill:#999" d="M275,473 l111,-101 -111,-101 0,202z" />
<path style="fill:#b2b2b2" d="M275,448 l111,-76 -111,-77 0,153z" />
<path style="fill:#ccc" d="M275,427 l111,-55 -111,-56 0,111z" />
<path style="fill:#e5e5e5" d="M275,410 l111,-38 -111,-39 0,77z" />
<path style="fill:#fff" d="M275,385 l111,-13 -111,-14 0,27z" />
<path style="fill:none;stroke:#000;stroke-width:2" d="M275,483 l111,-111 -111,-112 0,223" />
<path style="fill:#7f7f7f" d="M498,260 l-112,112 -111,-112 223,0z" />
<path style="fill:#999" d="M488,260 l-102,112 -101,-112 203,0z" />
<path style="fill:#b2b2b2" d="M463,260 l-77,112 -76,-112 153,0z" />
<path style="fill:#ccc" d="M442,260 l-56,112 -55,-112 111,0z" />
<path style="fill:#e5e5e5" d="M425,260 l-39,112 -38,-112 77,0z" />
<path style="fill:#fff" d="M400,260 l-14,112 -13,-112 27,0z" />
<path style="fill:none;stroke:#000;stroke-width:2" d="M498,260 l-112,112 -111,-112 223,0" />
<path style="fill:#7f7f7f" d="M498,483 l-112,-111 -111,111 223,0z" />
<path style="fill:#999" d="M488,483 l-102,-111 -101,111 203,0z" />
<path style="fill:#b2b2b2" d="M463,483 l-77,-111 -76,111 153,0z" />
<path style="fill:#ccc" d="M442,483 l-56,-111 -55,111 111,0z" />
<path style="fill:#e5e5e5" d="M425,483 l-39,-111 -38,111 77,0z" />
<path style="fill:#fff" d="M400,483 l-14,-111 -13,111 27,0z" />
<path style="fill:none;stroke:#000;stroke-width:2" d="M498,483 l-112,-111 -111,111 223,0" />

</svg>
