<?xml version="1.0" encoding="utf-8" standalone="no"?><!DOCTYPE svg PUBLIC "-//W3C//DTD SVG 1.1//EN" "http://www.w3.org/Graphics/SVG/1.1/DTD/svg11-flat-20030114.dtd"><svg width="477" height="563" version="1.1" xmlns="http://www.w3.org/2000/svg" xmlns:xlink="http://www.w3.org/1999/xlink">

<path style="fill:#000;stroke:#000;stroke-width:2" d="M296,311 l-88,0 0,89 88,0 0,-89z" />
<path style="fill:#7f7f7f" d="M296,111 l0,367 33,0 0,-367 -33,0z" />
<path style="fill:#b2b2b2" d="M299,111 l0,367 27,0 0,-367 -27,0z" />
<path style="fill:#e5e5e5" d="M303,111 l0,367 19,0 0,-367 -19,0z" />
<path style="fill:#fff" d="M310,111 l0,367 6,0 0,-367 -6,0z" />
<path style="fill:none;stroke:#000;stroke-width:2" d="M329,111 l0,367" />
<path style="fill:none;stroke:#000;stroke-width:2" d="M296,478 l0,-367" />
<path style="fill:#7f7f7f" d="M44,111 l0,156 33,0 0,-156 -33,0z" />
<path style="fill:#b2b2b2" d="M47,111 l0,156 27,0 0,-156 -27,0z" />
<path style="fill:#e5e5e5" d="M51,111 l0,156 19,0 0,-156 -19,0z" />
<path style="fill:#fff" d="M58,111 l0,156 6,0 0,-156 -6,0z" />
<path style="fill:none;stroke:#000;stroke-width:2" d="M77,111 l0,156" />
<path style="fill:none;stroke:#000;stroke-width:2" d="M44,267 l0,-156" />
<path style="fill:#7f7f7f" d="M263,296 l-156,0 0,34 156,0 0,-34z" />
<path style="fill:#b2b2b2" d="M263,299 l-156,0 0,27 156,0 0,-27z" />
<path style="fill:#e5e5e5" d="M263,304 l-156,0 0,18 156,0 0,-18z" />
<path style="fill:#fff" d="M263,310 l-156,0 0,6 156,0 0,-6z" />
<path style="fill:none;stroke:#000;stroke-width:2" d="M263,330 l-156,0" />
<path style="fill:none;stroke:#000;stroke-width:2" d="M107,296 l156,0" />
<path style="fill:#7f7f7f" d="M263,82 l0,-33 66,0 -33,33 -33,0z" />
<path style="fill:#7f7f7f" d="M296,115 l33,0 0,-67 -33,33 0,34z" />
<path style="fill:#b2b2b2" d="M326,115 l-27,0 0,-36 27,-28 0,64z" />
<path style="fill:#b2b2b2" d="M263,52 l0,27 36,0 27,-27 -63,0z" />
<path style="fill:#e5e5e5" d="M322,115 l-18,0 0,-41 18,-18 0,59z" />
<path style="fill:#e5e5e5" d="M263,56 l0,18 40,0 19,-18 -59,0z" />
<path style="fill:#fff" d="M263,62 l0,6 46,0 7,-6 -53,0z" />
<path style="fill:#fff" d="M316,115 l-6,0 0,-47 6,-6 0,53z" />
<path style="fill:none;stroke:#000;stroke-width:2" d="M329,115 l0,-67" />
<path style="fill:none;stroke:#000;stroke-width:2" d="M296,81 l0,34" />
<path style="fill:none;stroke:#000;stroke-width:2" d="M263,48 l66,0" />
<path style="fill:none;stroke:#000;stroke-width:2" d="M296,82 l-33,0" />
<path style="fill:#7f7f7f" d="M78,114 l-33,0 0,-66 33,33 0,33z" />
<path style="fill:#7f7f7f" d="M111,81 l0,-33 -67,0 33,33 34,0z" />
<path style="fill:#b2b2b2" d="M111,51 l0,27 -36,0 -27,-27 63,0z" />
<path style="fill:#b2b2b2" d="M48,114 l27,0 0,-36 -27,-27 0,63z" />
<path style="fill:#e5e5e5" d="M111,56 l0,18 -41,0 -18,-18 59,0z" />
<path style="fill:#e5e5e5" d="M52,114 l18,0 0,-40 -18,-18 0,58z" />
<path style="fill:#fff" d="M58,114 l6,0 0,-46 -6,-6 0,52z" />
<path style="fill:#fff" d="M111,62 l0,6 -47,0 -6,-6 53,0z" />
<path style="fill:none;stroke:#000;stroke-width:2" d="M111,48 l-67,0" />
<path style="fill:none;stroke:#000;stroke-width:2" d="M77,81 l34,0" />
<path style="fill:none;stroke:#000;stroke-width:2" d="M44,114 l0,-66" />
<path style="fill:none;stroke:#000;stroke-width:2" d="M78,81 l0,33" />
<path style="fill:#7f7f7f" d="M267,48 l-160,0 0,34 160,0 0,-34z" />
<path style="fill:#b2b2b2" d="M267,51 l-160,0 0,27 160,0 0,-27z" />
<path style="fill:#e5e5e5" d="M267,56 l-160,0 0,18 160,0 0,-18z" />
<path style="fill:#fff" d="M267,62 l-160,0 0,6 160,0 0,-6z" />
<path style="fill:none;stroke:#000;stroke-width:2" d="M267,82 l-160,0" />
<path style="fill:none;stroke:#000;stroke-width:2" d="M107,48 l160,0" />
<path style="fill:#7f7f7f" d="M110,296 l0,33 -66,0 33,-33 33,0z" />
<path style="fill:#7f7f7f" d="M77,263 l-33,0 0,66 33,-33 0,-33z" />
<path style="fill:#b2b2b2" d="M47,263 l27,0 0,36 -27,27 0,-63z" />
<path style="fill:#b2b2b2" d="M110,326 l0,-27 -36,0 -27,27 63,0z" />
<path style="fill:#e5e5e5" d="M52,263 l18,0 0,40 -18,19 0,-59z" />
<path style="fill:#e5e5e5" d="M110,321 l0,-18 -40,0 -18,18 58,0z" />
<path style="fill:#fff" d="M110,315 l0,-6 -46,0 -6,6 52,0z" />
<path style="fill:#fff" d="M58,263 l6,0 0,46 -6,7 0,-53z" />
<path style="fill:none;stroke:#000;stroke-width:2" d="M44,263 l0,66" />
<path style="fill:none;stroke:#000;stroke-width:2" d="M77,296 l0,-33" />
<path style="fill:none;stroke:#000;stroke-width:2" d="M111,329 l-67,0" />
<path style="fill:none;stroke:#000;stroke-width:2" d="M77,296 l34,0" />
<path style="fill:#7f7f7f" d="M263,295 l33,0 0,-16 34,0 0,66 -34,0 0,-17 -33,0 0,-33z" />
<path style="fill:#b2b2b2" d="M263,299 l37,0 0,-20 26,0 0,66 -26,0 0,-20 -37,0 0,-26z" />
<path style="fill:#e5e5e5" d="M263,303 l41,0 0,-24 18,0 0,66 -18,0 0,-24 -41,0 0,-18z" />
<path style="fill:#fff" d="M263,308 l47,0 0,-29 6,0 0,66 -6,0 0,-30 -47,0 0,-7z" />
<path style="fill:none;stroke:#000;stroke-width:2" d="M263,295 l33,0 0,-16" />
<path style="fill:none;stroke:#000;stroke-width:2" d="M263,328 l33,0 0,17" />
<path style="fill:none;stroke:#000;stroke-width:2" d="M330,345 l0,-66" />
<path style="fill:#7f7f7f" d="M462,548 l0,-148 -297,148 0,-148 297,148z" />
<path style="fill:#999" d="M462,541 l0,-134 -297,134 0,-134 297,134z" />
<path style="fill:#b2b2b2" d="M462,525 l0,-102 -297,102 0,-102 297,102z" />
<path style="fill:#ccc" d="M462,510 l0,-72 -297,72 0,-72 297,72z" />
<path style="fill:#e5e5e5" d="M462,499 l0,-50 -297,50 0,-50 297,50z" />
<path style="fill:#fff" d="M462,483 l0,-19 -297,19 0,-19 297,19z" />
<path style="fill:none;stroke:#000;stroke-width:2" d="M462,548 l0,-148 -297,148 0,-148 297,148" />
<path style="fill:#000" d="M48,200 l10,-24 22,22 -20,20 -22,-22 10,-24 -10,24 -23,-24 33,0z" />
<path style="fill:#000" d="M80,176 l-10,24 -22,0 0,-28 22,0 -10,24 20,-20 23,24 -33,0z" />
<path style="fill:#000" d="M48,164 l10,-10 22,22 -20,20 -22,-22 10,-10z" />
<path style="fill:#000" d="M173,48 l24,-10 22,22 -20,20 -22,-22 24,-10 -28,0 0,-33 24,23z" />
<path style="fill:#000" d="M197,60 l-24,10 0,-22 28,0 0,22 -24,10 24,-10 0,33 -24,-23z" />
<path style="fill:#000" d="M164,48 l10,-10 23,22 -20,20 -23,-22 10,-10z" />
<path style="fill:#7f7f7f;stroke:#000;stroke-width:2" d="M313,297 l-88,0 0,88 88,0 0,-88z" />
<path style="fill:#7f7f7f" d="M314,232 l121,0 -2,-25 -8,-24 -11,-21 -15,-18 -18,-16 -20,-11 -23,-7 -24,-3 -24,3 -23,7 -21,11 -18,16 -14,18 -12,21 -7,24 -2,25 121,0z" />
<path style="fill:#999" d="M314,232 l109,0 -2,-25 -7,-24 -10,-21 -13,-18 -16,-16 -19,-11 -20,-7 -22,-3 -22,3 -21,7 -19,11 -16,16 -13,18 -10,21 -7,24 -2,25 110,0z" />
<path style="fill:#b2b2b2" d="M314,232 l87,0 -2,-25 -5,-24 -8,-21 -11,-18 -12,-16 -15,-11 -16,-7 -18,-3 -18,3 -16,7 -15,11 -13,16 -10,18 -8,21 -5,24 -2,25 87,0z" />
<path style="fill:#ccc" d="M314,232 l64,0 -1,-25 -4,-24 -6,-21 -8,-18 -9,-16 -11,-11 -12,-7 -13,-3 -13,3 -12,7 -11,11 -10,16 -8,18 -6,21 -4,24 -1,25 65,0z" />
<path style="fill:#e5e5e5" d="M314,232 l41,0 -1,-25 -2,-24 -4,-21 -5,-18 -6,-16 -7,-11 -8,-7 -8,-3 -8,3 -8,7 -7,11 -7,16 -5,18 -4,21 -2,24 -1,25 42,0z" />
<path style="fill:none;stroke:#000;stroke-width:2" d="M314,232 l121,0 -2,-25 -8,-24 -11,-21 -15,-18 -18,-16 -20,-11 -23,-7 -24,-3 -24,3 -23,7 -21,11 -18,16 -14,18 -12,21 -7,24 -2,25 121,0" />
<path style="fill:#fff" d="M314,232 l11,0 0,-25 -1,-24 -1,-21 -1,-18 -2,-16 -2,-11 -2,-7 -2,-3 -3,3 -2,7 -2,11 -2,16 -1,18 -1,21 -1,24 0,25 12,0z" />

</svg>
