<?xml version="1.0" encoding="utf-8" standalone="no"?><!DOCTYPE svg PUBLIC "-//W3C//DTD SVG 1.1//EN" "http://www.w3.org/Graphics/SVG/1.1/DTD/svg11-flat-20030114.dtd"><svg width="543" height="515" version="1.1" xmlns="http://www.w3.org/2000/svg" xmlns:xlink="http://www.w3.org/1999/xlink">

<path style="fill:#7f7f7f" d="M239,129 l0,250 61,0 0,-250 -61,0z" />
<path style="fill:#b2b2b2" d="M245,129 l0,250 49,0 0,-250 -49,0z" />
<path style="fill:#e5e5e5" d="M253,129 l0,250 33,0 0,-250 -33,0z" />
<path style="fill:#fff" d="M264,129 l0,250 11,0 0,-250 -11,0z" />
<path style="fill:none;stroke:#000;stroke-width:2" d="M300,129 l0,250" />
<path style="fill:none;stroke:#000;stroke-width:2" d="M239,379 l0,-250" />
<path style="fill:#7f7f7f" d="M186,15 l-142,0 0,61 142,0 0,-61z" />
<path style="fill:#b2b2b2" d="M186,21 l-142,0 0,49 142,0 0,-49z" />
<path style="fill:#e5e5e5" d="M186,28 l-142,0 0,34 142,0 0,-34z" />
<path style="fill:#fff" d="M186,39 l-142,0 0,12 142,0 0,-12z" />
<path style="fill:none;stroke:#000;stroke-width:2" d="M186,76 l-142,0" />
<path style="fill:none;stroke:#000;stroke-width:2" d="M44,15 l142,0" />
<path style="fill:#7f7f7f" d="M180,76 l0,-60 120,0 -60,60 -60,0z" />
<path style="fill:#7f7f7f" d="M240,136 l60,0 0,-121 -60,61 0,60z" />
<path style="fill:#b2b2b2" d="M295,136 l-50,0 0,-65 50,-50 0,115z" />
<path style="fill:#b2b2b2" d="M180,21 l0,50 65,0 50,-50 -115,0z" />
<path style="fill:#e5e5e5" d="M287,136 l-33,0 0,-74 33,-33 0,107z" />
<path style="fill:#e5e5e5" d="M180,30 l0,33 73,0 33,-33 -106,0z" />
<path style="fill:#fff" d="M180,41 l0,11 84,0 11,-11 -95,0z" />
<path style="fill:#fff" d="M276,136 l-11,0 0,-84 11,-12 0,96z" />
<path style="fill:none;stroke:#000;stroke-width:2" d="M300,136 l0,-121" />
<path style="fill:none;stroke:#000;stroke-width:2" d="M240,76 l0,60" />
<path style="fill:none;stroke:#000;stroke-width:2" d="M179,15 l121,0" />
<path style="fill:none;stroke:#000;stroke-width:2" d="M240,76 l-61,0" />
<path style="fill:#7f7f7f" d="M528,500 l0,-257 -513,257 0,-257 513,257z" />
<path style="fill:#999" d="M528,487 l0,-231 -513,231 0,-231 513,231z" />
<path style="fill:#b2b2b2" d="M528,460 l0,-177 -513,177 0,-177 513,177z" />
<path style="fill:#ccc" d="M528,434 l0,-125 -513,125 0,-125 513,125z" />
<path style="fill:#e5e5e5" d="M528,414 l0,-86 -513,86 0,-86 513,86z" />
<path style="fill:#fff" d="M528,388 l0,-33 -513,33 0,-33 513,33z" />
<path style="fill:none;stroke:#000;stroke-width:2" d="M528,500 l0,-257 -513,257 0,-257 513,257" />

</svg>
