<?xml version="1.0" encoding="utf-8" standalone="no"?><!DOCTYPE svg PUBLIC "-//W3C//DTD SVG 1.1//EN" "http://www.w3.org/Graphics/SVG/1.1/DTD/svg11-flat-20030114.dtd"><svg width="413" height="530" version="1.1" xmlns="http://www.w3.org/2000/svg" xmlns:xlink="http://www.w3.org/1999/xlink">

<path style="fill:#7f7f7f" d="M244,426 l-185,-185 -24,24 185,185 24,-24z" />
<path style="fill:#b2b2b2" d="M242,428 l-185,-185 -20,20 185,185 20,-20z" />
<path style="fill:#e5e5e5" d="M239,431 l-185,-185 -14,14 185,185 14,-14z" />
<path style="fill:#fff" d="M234,436 l-185,-185 -4,4 185,185 4,-4z" />
<path style="fill:none;stroke:#000;stroke-width:2" d="M220,450 l-185,-185" />
<path style="fill:none;stroke:#000;stroke-width:2" d="M59,241 l185,185" />
<path style="fill:#7f7f7f" d="M261,441 l0,-361 -35,0 0,361 35,0z" />
<path style="fill:#b2b2b2" d="M257,441 l0,-361 -28,0 0,361 28,0z" />
<path style="fill:#e5e5e5" d="M253,441 l0,-361 -19,0 0,361 19,0z" />
<path style="fill:#fff" d="M247,441 l0,-361 -7,0 0,361 7,0z" />
<path style="fill:none;stroke:#000;stroke-width:2" d="M226,441 l0,-361" />
<path style="fill:none;stroke:#000;stroke-width:2" d="M261,80 l0,361" />
<path style="fill:#7f7f7f" d="M192,50 l0,-35 69,0 -35,35 -34,0z" />
<path style="fill:#7f7f7f" d="M227,85 l34,0 0,-70 -34,35 0,35z" />
<path style="fill:#b2b2b2" d="M258,85 l-28,0 0,-38 28,-29 0,67z" />
<path style="fill:#b2b2b2" d="M192,18 l0,29 37,0 29,-29 -66,0z" />
<path style="fill:#e5e5e5" d="M253,85 l-19,0 0,-43 19,-19 0,62z" />
<path style="fill:#e5e5e5" d="M192,23 l0,19 42,0 19,-19 -61,0z" />
<path style="fill:#fff" d="M192,30 l0,6 48,0 7,-6 -55,0z" />
<path style="fill:#fff" d="M247,85 l-6,0 0,-49 6,-7 0,56z" />
<path style="fill:none;stroke:#000;stroke-width:2" d="M261,85 l0,-70" />
<path style="fill:none;stroke:#000;stroke-width:2" d="M227,50 l0,35" />
<path style="fill:none;stroke:#000;stroke-width:2" d="M192,15 l69,0" />
<path style="fill:none;stroke:#000;stroke-width:2" d="M226,50 l-34,0" />
<path style="fill:#7f7f7f" d="M50,85 l-34,0 0,-70 34,35 0,35z" />
<path style="fill:#7f7f7f" d="M85,50 l0,-35 -70,0 35,35 35,0z" />
<path style="fill:#b2b2b2" d="M85,18 l0,29 -38,0 -28,-29 66,0z" />
<path style="fill:#b2b2b2" d="M19,85 l28,0 0,-38 -28,-28 0,66z" />
<path style="fill:#e5e5e5" d="M85,23 l0,19 -43,0 -19,-19 62,0z" />
<path style="fill:#e5e5e5" d="M24,85 l18,0 0,-43 -18,-19 0,62z" />
<path style="fill:#fff" d="M30,85 l6,0 0,-49 -6,-6 0,55z" />
<path style="fill:#fff" d="M85,29 l0,7 -49,0 -6,-7 55,0z" />
<path style="fill:none;stroke:#000;stroke-width:2" d="M85,15 l-70,0" />
<path style="fill:none;stroke:#000;stroke-width:2" d="M50,50 l35,0" />
<path style="fill:none;stroke:#000;stroke-width:2" d="M15,85 l0,-70" />
<path style="fill:none;stroke:#000;stroke-width:2" d="M50,50 l0,35" />
<path style="fill:#7f7f7f" d="M50,231 l-24,24 -5,-5 -3,-6 -2,-6 -1,-7 35,0z" />
<path style="fill:#b2b2b2" d="M50,231 l-22,22 -4,-5 -3,-5 -1,-6 -1,-6 31,0z" />
<path style="fill:#e5e5e5" d="M50,231 l-19,19 -3,-4 -3,-5 -1,-5 -1,-5 27,0z" />
<path style="fill:#fff" d="M50,231 l-14,14 -3,-3 -2,-3 -1,-4 0,-4 20,0z" />
<path style="fill:#e5e5e5" d="M50,231 l-10,10 -1,-2 -2,-3 -1,-2 0,-3 14,0z" />
<path style="fill:#b2b2b2" d="M50,231 l-5,5 -1,-1 -1,-1 -1,-2 0,-1 8,0z" />
<path style="fill:#7f7f7f;stroke:#7f7f7f;stroke-width:2" d="M50,231 l-2,2 -1,0 0,-1 0,-1 3,0z" />
<path style="fill:none;stroke:#000;stroke-width:2" d="M26,255 l-5,-5 -3,-6 -2,-6 -1,-7" />
<path style="fill:#7f7f7f" d="M50,213 l0,18 -35,0 0,-18 35,0z" />
<path style="fill:#b2b2b2" d="M47,213 l0,18 -29,0 0,-18 29,0z" />
<path style="fill:#e5e5e5" d="M42,213 l0,18 -19,0 0,-18 19,0z" />
<path style="fill:#fff" d="M36,213 l0,18 -6,0 0,-18 6,0z" />
<path style="fill:none;stroke:#000;stroke-width:2" d="M15,213 l0,18" />
<path style="fill:none;stroke:#000;stroke-width:2" d="M50,231 l0,-18" />
<path style="fill:#7f7f7f" d="M50,231 l12,12 -24,25 -12,-13 24,-24z" />
<path style="fill:#b2b2b2" d="M48,233 l12,12 -20,21 -12,-13 20,-20z" />
<path style="fill:#e5e5e5" d="M45,237 l12,12 -14,13 -12,-12 14,-13z" />
<path style="fill:#fff" d="M40,241 l12,12 -4,5 -12,-12 4,-5z" />
<path style="fill:none;stroke:#000;stroke-width:2" d="M26,255 l12,13" />
<path style="fill:none;stroke:#000;stroke-width:2" d="M62,243 l-12,-12" />
<path style="fill:#7f7f7f" d="M50,218 l0,-133 -35,0 0,133 35,0z" />
<path style="fill:#b2b2b2" d="M47,218 l0,-133 -28,0 0,133 28,0z" />
<path style="fill:#e5e5e5" d="M42,218 l0,-133 -19,0 0,133 19,0z" />
<path style="fill:#fff" d="M36,218 l0,-133 -6,0 0,133 6,0z" />
<path style="fill:none;stroke:#000;stroke-width:2" d="M15,218 l0,-133" />
<path style="fill:none;stroke:#000;stroke-width:2" d="M50,85 l0,133" />
<path style="fill:#7f7f7f" d="M82,50 l113,0 0,-35 -113,0 0,35z" />
<path style="fill:#b2b2b2" d="M82,46 l113,0 0,-28 -113,0 0,28z" />
<path style="fill:#e5e5e5" d="M82,42 l113,0 0,-19 -113,0 0,19z" />
<path style="fill:#fff" d="M82,36 l113,0 0,-7 -113,0 0,7z" />
<path style="fill:none;stroke:#000;stroke-width:2" d="M82,15 l113,0" />
<path style="fill:none;stroke:#000;stroke-width:2" d="M195,50 l-113,0" />
<path style="fill:#7f7f7f" d="M242,187 l125,0 -3,-25 -7,-24 -11,-21 -16,-18 -18,-16 -21,-11 -24,-7 -25,-3 -25,3 -24,7 -21,11 -18,16 -16,18 -11,21 -7,24 -3,25 125,0z" />
<path style="fill:#999" d="M242,187 l113,0 -2,-25 -7,-24 -10,-21 -14,-18 -17,-16 -19,-11 -21,-7 -23,-3 -23,3 -21,7 -19,11 -17,16 -14,18 -10,21 -7,24 -2,25 113,0z" />
<path style="fill:#b2b2b2" d="M242,187 l90,0 -2,-25 -5,-24 -9,-21 -11,-18 -13,-16 -15,-11 -17,-7 -18,-3 -18,3 -17,7 -15,11 -14,16 -11,18 -8,21 -5,24 -2,25 90,0z" />
<path style="fill:#ccc" d="M242,187 l66,0 -1,-25 -4,-24 -6,-21 -9,-18 -9,-16 -12,-11 -12,-7 -13,-3 -14,3 -12,7 -11,11 -10,16 -9,18 -6,21 -4,24 -1,25 67,0z" />
<path style="fill:#e5e5e5" d="M242,187 l43,0 -1,-25 -2,-24 -5,-21 -5,-18 -6,-16 -8,-11 -8,-7 -8,-3 -9,3 -8,7 -7,11 -7,16 -5,18 -4,21 -2,24 -1,25 43,0z" />
<path style="fill:none;stroke:#000;stroke-width:2" d="M242,187 l125,0 -3,-25 -7,-24 -11,-21 -16,-18 -18,-16 -21,-11 -24,-7 -25,-3 -25,3 -24,7 -21,11 -18,16 -16,18 -11,21 -7,24 -3,25 125,0" />
<path style="fill:#fff" d="M242,187 l12,0 0,-25 -1,-24 -1,-21 -2,-18 -2,-16 -2,-11 -2,-7 -2,-3 -3,3 -2,7 -2,11 -2,16 -1,18 -1,21 -1,24 0,25 12,0z" />
<path style="fill:#7f7f7f" d="M398,515 l0,-152 -308,152 0,-152 308,152z" />
<path style="fill:#999" d="M398,507 l0,-137 -308,137 0,-137 308,137z" />
<path style="fill:#b2b2b2" d="M398,491 l0,-105 -308,105 0,-105 308,105z" />
<path style="fill:#ccc" d="M398,476 l0,-74 -308,74 0,-74 308,74z" />
<path style="fill:#e5e5e5" d="M398,464 l0,-51 -308,51 0,-51 308,51z" />
<path style="fill:#fff" d="M398,448 l0,-19 -308,19 0,-19 308,19z" />
<path style="fill:none;stroke:#000;stroke-width:2" d="M398,515 l0,-152 -308,152 0,-152 308,152" />

</svg>
