<?xml version="1.0" encoding="utf-8" standalone="no"?><!DOCTYPE svg PUBLIC "-//W3C//DTD SVG 1.1//EN" "http://www.w3.org/Graphics/SVG/1.1/DTD/svg11-flat-20030114.dtd"><svg width="999" height="423" version="1.1" xmlns="http://www.w3.org/2000/svg" xmlns:xlink="http://www.w3.org/1999/xlink">

<path style="fill:#7f7f7f" d="M970,337 l-471,0 0,58 471,0 0,-58z" />
<path style="fill:#b2b2b2" d="M970,218 l-471,0 0,119 471,0 0,-119z" />
<path style="fill:#ccc" d="M970,160 l-471,0 0,58 471,0 0,-58z" />
<path style="fill:none;stroke:#000;stroke-width:2" d="M970,160 l-471,0 0,235 471,0 0,-235" />
<path style="fill:#666" d="M814,337 l0,58 -11,0 0,-49 -215,0 0,-9 226,0z" />
<path style="fill:#999" d="M588,218 l9,0 0,119 -9,0 0,-119z" />
<path style="fill:#b2b2b2;stroke:#000;stroke-width:2" d="M814,218 l-217,0 0,119 217,0 0,-119z" />
<path style="fill:#b2b2b2" d="M803,160 l11,0 0,58 -11,0 0,-58z" />
<path style="fill:#7f7f7f" d="M814,160 l77,0 0,235 -77,0 0,-235z" />
<path style="fill:#999" d="M814,175 l77,0 0,205 -77,0 0,-205z" />
<path style="fill:#b2b2b2" d="M814,199 l77,0 0,157 -77,0 0,-157z" />
<path style="fill:#ccc" d="M814,228 l77,0 0,97 -77,0 0,-97z" />
<path style="fill:#e5e5e5" d="M814,258 l77,0 0,39 -77,0 0,-39z" />
<path style="fill:none;stroke:#000;stroke-width:2" d="M814,160 l77,0 0,235 -77,0 0,-235" />
<path style="fill:#b2b2b2;stroke:#000;stroke-width:2" d="M814,165 l0,-45 -60,0 -15,-3 -13,-2 -12,-1 -6,-1 -6,0 -5,0 -12,1 -11,2 -12,2 -7,2 0,3 0,42 13,3 12,2 11,2 6,0 5,0 12,0 12,-2 13,-2 15,-3 60,0z" />
<path style="fill:#999" d="M689,169 l-28,-4 0,-45 28,-6 0,55z" />
<path style="fill:#ccc" d="M720,169 l30,-4 0,-45 -30,-6 0,55z" />
<path style="fill:#b2b2b2;stroke:#000;stroke-width:2" d="M744,56 l-79,0 0,30 79,0 0,-30z" />
<path style="fill:#ccc;stroke:#000;stroke-width:2" d="M744,105 l-79,0 0,9 79,0 0,-9z" />
<path style="fill:#e5e5e5;stroke:#000;stroke-width:2" d="M725,56 l-39,0 0,30 39,0 0,-30z" />
<path style="fill:#f60" d="M573,28 l-545,0 0,37 545,0 0,-37z" />
<path style="fill:#d94000" d="M573,65 l-545,0 0,12 545,0 0,-12z" />
<path style="fill:#ff8c00" d="M573,41 l-545,0 0,11 545,0 0,-11z" />
<path style="fill:none;stroke:#000;stroke-width:2" d="M573,28 l-545,0 0,49 545,0 0,-49" />
<path style="fill:#e5e5e5;stroke:#000;stroke-width:2" d="M735,52 l-59,0 0,4 59,0 0,-4z" />
<path style="fill:#e5e5e5" d="M774,120 l-1,-9 -5,-6 -11,0 -126,0 -9,-7 -5,-7 -5,-8 -6,-8 -5,-7 -7,-6 -11,0 -8,0 -2,0 0,-3 0,-15 0,-3 3,0 27,0 8,7 5,7 5,8 6,9 5,7 7,7 11,0 134,0 6,6 2,9 1,9 0,3 0,2 0,3 0,2 -2,0 -17,0z" />
<path style="fill:#b2b2b2" d="M774,120 l-1,-9 -5,-6 -11,0 -126,0 -9,-7 -5,-7 -5,-8 -6,-8 -5,-7 -7,-6 -11,0 -8,0 -2,0 0,-3 0,-5 0,-2 2,0 22,0 9,7 5,7 6,8 5,8 6,7 7,6 11,1 123,0 9,4 5,11 1,5 0,4 -3,0 -7,0z" />
<path style="fill:none;stroke:#000;stroke-width:2" d="M774,120 l-1,-9 -5,-6 -11,0 -126,0 -9,-7 -5,-7 -5,-8 -6,-8 -5,-7 -7,-6 -11,0 -8,0 -2,0 0,-3 0,-15 0,-3 3,0 27,0 8,7 5,7 5,8 6,9 5,7 7,7 11,0 134,0 6,6 2,9 1,9 0,3 0,2 0,3 0,2 -2,0 -17,0" />

</svg>
