<?xml version="1.0" encoding="utf-8" standalone="no"?><!DOCTYPE svg PUBLIC "-//W3C//DTD SVG 1.1//EN" "http://www.w3.org/Graphics/SVG/1.1/DTD/svg11-flat-20030114.dtd"><svg width="910" height="999" version="1.1" xmlns="http://www.w3.org/2000/svg" xmlns:xlink="http://www.w3.org/1999/xlink">

<path style="fill:#000" d="M722,313 l-19,-37 -142,0 -18,37 179,0z" />
<path style="fill:#999" d="M454,970 l0,-35 -106,0 0,-178 106,0 0,-35 52,0 0,16 357,0 19,72 0,72 -19,72 -357,0 0,16 -52,0z" />
<path style="fill:#b2b2b2" d="M454,935 l0,-25 -106,0 0,-128 106,0 0,-25 52,0 0,13 357,0 19,51 0,51 -19,49 -357,0 0,14 -52,0z" />
<path style="fill:#ccc" d="M454,899 l0,-15 -106,0 0,-76 106,0 0,-15 52,0 0,8 357,0 19,30 0,30 -19,30 -357,0 0,8 -52,0z" />
<path style="fill:#e5e5e5" d="M454,863 l0,-4 -106,0 0,-26 106,0 0,-4 52,0 0,2 357,0 19,9 0,11 -19,10 -357,0 0,2 -52,0z" />
<path style="fill:none;stroke:#000;stroke-width:2" d="M454,970 l0,-35 -106,0 0,-178 106,0 0,-35 52,0 0,16 357,0 19,72 0,72 -19,72 -357,0 0,16 -52,0" />
<path style="fill:#ff4000" d="M490,313 l-36,-285 -390,0 -36,285 462,0z" />
<path style="fill:#fa3b00" d="M490,313 l-10,-82 -432,-90 -20,172 462,0z" />
<path style="fill:#333" d="M28,313 l710,0 0,212 0,53 -213,0 0,-53 -143,0 0,-71 -354,0 0,-141z" />
<path style="fill:#404040" d="M738,454 l-356,0 0,19 356,0 0,-19z" />
<path style="fill:none;stroke:#000;stroke-width:2" d="M738,454 l-356,0" />
<path style="fill:none;stroke:#999;stroke-width:2" d="M738,473 l-356,0" />
<path style="fill:#f63" d="M490,313 l-36,-285 -17,0 17,285 36,0z" />
<path style="fill:#e52600" d="M64,313 l17,-285 -17,0 -36,285 36,0z" />
<path style="fill:none;stroke:#000;stroke-width:2" d="M490,313 l-36,-285 -390,0 -36,285 462,0" />
<path style="fill:#333" d="M686,241 l-108,0 0,-142 304,0 0,70 -196,19 0,53z" />
<path style="fill:#4c4c4c" d="M667,241 l-70,0 0,-142 70,0 0,142z" />
<path style="fill:#666" d="M650,241 l-36,0 0,-142 36,0 0,142z" />
<path style="fill:none;stroke:#000;stroke-width:2" d="M686,241 l-108,0 0,-142 304,0 0,70 -196,19 0,53" />
<path style="fill:none;stroke:#7f7f7f;stroke-width:2" d="M686,188 l0,-72" />
<path style="fill:#333" d="M680,241 l-96,0 0,72 96,0 0,-72z" />
<path style="fill:#4c4c4c" d="M665,241 l-66,0 0,72 66,0 0,-72z" />
<path style="fill:#666" d="M648,241 l-32,0 0,72 32,0 0,-72z" />
<path style="fill:#7f7f7f" d="M637,241 l-10,0 0,72 10,0 0,-72z" />
<path style="fill:none;stroke:#000;stroke-width:2" d="M680,241 l-96,0 0,72 96,0 0,-72" />
<path style="fill:none;stroke:#666;stroke-width:2" d="M525,525 l213,0" />
<path style="fill:none;stroke:#000;stroke-width:2" d="M28,313 l710,0 0,212 0,53 -213,0 0,-53 -143,0 0,-71 -354,0 0,-141" />
<path style="fill:#999" d="M543,757 l0,-143 179,0 0,143 -25,34 -41,19 -47,0 -42,-19 -24,-34z" />
<path style="fill:#b2b2b2" d="M561,757 l0,-143 142,0 0,143 -19,34 -34,19 -38,0 -32,-19 -19,-34z" />
<path style="fill:#ccc" d="M578,757 l0,-143 108,0 0,143 -16,34 -24,19 -28,0 -25,-19 -15,-34z" />
<path style="fill:#e5e5e5" d="M614,757 l0,-143 36,0 0,143 -6,34 -7,19 -10,0 -9,-19 -4,-34z" />
<path style="fill:none;stroke:#000;stroke-width:2" d="M543,757 l0,-143 179,0 0,143 -25,34 -41,19 -47,0 -42,-19 -24,-34" />
<path style="fill:#999;stroke:#000;stroke-width:2" d="M738,578 l-213,0 0,36 213,0 0,-36z" />
<path style="fill:none;stroke:#000;stroke-width:2" d="M506,954 l0,-216" />
<path style="fill:none;stroke:#000;stroke-width:2" d="M454,757 l0,178" />

</svg>
