<?xml version="1.0" encoding="utf-8" standalone="no"?><!DOCTYPE svg PUBLIC "-//W3C//DTD SVG 1.1//EN" "http://www.w3.org/Graphics/SVG/1.1/DTD/svg11-flat-20030114.dtd"><svg width="375" height="999" version="1.1" xmlns="http://www.w3.org/2000/svg" xmlns:xlink="http://www.w3.org/1999/xlink">

<path style="fill:#fff091;stroke:#000;stroke-width:2" d="M197,405 l-20,0 0,139 20,0 0,-139z" />
<path style="fill:#fff" d="M190,410 l-6,0 0,127 6,0 0,-127z" />
<path style="fill:#333;stroke:#000;stroke-width:2" d="M201,491 l-26,0 0,14 26,0 0,-14z" />
<path style="fill:#00c;stroke:#000;stroke-width:2" d="M256,695 l-138,0 0,8 138,0 0,-8z" />
<path style="fill:#00c;stroke:#000;stroke-width:2" d="M228,358 l-80,0 0,7 80,0 0,-7z" />
<path style="fill:#00c;stroke:#000;stroke-width:2" d="M207,365 l-40,0 0,40 40,0 0,-40z" />
<path style="fill:#00c;stroke:#000;stroke-width:2" d="M207,444 l-40,0 0,40 40,0 0,-40z" />
<path style="fill:#00c;stroke:#000;stroke-width:2" d="M220,484 l-66,0 0,7 66,0 0,-7z" />
<path style="fill:#00c;stroke:#000;stroke-width:2" d="M228,544 l-80,0 0,19 80,0 0,-19z" />
<path style="fill:#00c;stroke:#000;stroke-width:2" d="M241,571 l-106,0 0,105 106,0 0,-105z" />
<path style="fill:#00f;stroke:#000;stroke-width:2" d="M305,970 l0,-26 -27,-13 -184,0 -27,13 0,26 238,0z" />
<path style="fill:#00f;stroke:#000;stroke-width:2" d="M320,769 l-14,-4 -13,-7 -13,-7 -6,-2 -7,-1 -10,0 -148,0 -15,3 -13,7 -13,7 -6,3 -8,1 0,5 0,81 14,3 13,7 13,6 13,3 0,51 0,2 2,0 156,0 0,-53 15,-3 12,-6 14,-7 6,-2 8,-1 0,-6 0,-80z" />
<path style="fill:#00f;stroke:#000;stroke-width:2" d="M267,703 l-158,0 0,45 158,0 0,-45z" />
<path style="fill:#00f;stroke:#000;stroke-width:2" d="M267,676 l-158,0 0,19 158,0 0,-19z" />
<path style="fill:#00f;stroke:#000;stroke-width:2" d="M263,663 l-18,0 0,13 18,0 0,-13z" />
<path style="fill:#00f;stroke:#000;stroke-width:2" d="M131,663 l-20,0 0,13 20,0 0,-13z" />
<path style="fill:#00f;stroke:#000;stroke-width:2" d="M197,663 l-20,0 0,13 20,0 0,-13z" />
<path style="fill:#00f;stroke:#000;stroke-width:2" d="M162,663 l-21,0 0,13 21,0 0,-13z" />
<path style="fill:#00f;stroke:#000;stroke-width:2" d="M233,663 l-19,0 0,13 19,0 0,-13z" />
<path style="fill:#00f;stroke:#000;stroke-width:2" d="M54,748 l-26,0 0,126 26,0 0,-126z" />
<path style="fill:#00f;stroke:#000;stroke-width:2" d="M346,748 l-26,0 0,126 26,0 0,-126z" />
<path style="fill:#00f;stroke:#000;stroke-width:2" d="M267,361 l-1,-4 -6,-9 -9,-7 -10,-4 -4,-2 0,3 0,18 10,3 3,4 0,2 0,219 -1,4 -1,3 -3,1 -11,1 -101,0 -8,-4 -1,-3 0,-221 0,-2 8,-6 5,-1 0,-21 -8,4 -10,6 -7,7 -2,5 -1,4 0,15 0,213 2,9 6,7 8,4 5,1 5,0 7,0 99,0 10,-1 8,-4 6,-7 1,-4 1,-5 0,-14 0,-214z" />
<path style="fill:#0000e5;stroke:#000;stroke-width:2" d="M346,67 l-318,0 0,14 318,0 0,-14z" />
<path style="fill:#00f;stroke:#000;stroke-width:2" d="M267,154 l-21,13 0,11 0,11 -1,11 0,11 0,11 -1,12 0,11 -1,11 0,11 0,11 0,11 -1,11 0,11 0,12 -1,11 0,10 -2,10 -2,2 -3,1 0,1 -1,0 -93,0 0,-1 -2,-1 -3,-12 -7,-177 -19,-13 0,-21 158,0 0,21z" />
<path style="fill:#00f;stroke:#000;stroke-width:2" d="M54,41 l0,8 0,4 0,1 0,6 0,7 1,0 264,0 1,0 0,-7 0,-19 -5,-9 -6,-4 -2,0 -15,0 -223,0 -10,4 -5,9z" />
<path style="fill:#00c;stroke:#000;stroke-width:2" d="M246,167 l21,-13 -158,0 19,13 118,0z" />
<path style="fill:#00c;stroke:#000;stroke-width:2" d="M346,81 l-318,0 0,13 318,0 0,-13z" />
<path style="fill:#00c;stroke:#000;stroke-width:2" d="M320,120 l0,-7 0,-5 0,-1 0,-6 0,-7 -1,0 -264,0 -1,0 0,7 0,19 5,10 6,3 2,0 15,0 225,0 8,-3 5,-10z" />
<path style="fill:#4c4cff;stroke:#000;stroke-width:2" d="M167,292 l40,0 9,-4 4,-10 -4,-9 -9,-4 -40,0 -9,4 -4,9 4,10 9,4z" />
<ellipse style="fill:#00007f;stroke:#000;stroke-width:2" cx="167" cy="279" rx="4" ry="2" />
<circle style="fill:#00007f;stroke:#000;stroke-width:2" cx="208" cy="279" r="3" />
<path style="fill:#00007f;stroke:#000;stroke-width:2" d="M220,563 l-66,0 0,8 66,0 0,-8z" />
<ellipse style="fill:#4c4cff" cx="189" cy="804" rx="105" ry="49" />
<path style="fill:#4c4cff" d="M343,752 l-19,0 0,26 19,0 0,-26z" />
<path style="fill:#4c4cff" d="M52,752 l-20,0 0,26 20,0 0,-26z" />
<path style="fill:#4c4cff;stroke:#000;stroke-width:2" d="M339,67 l-13,0 0,-5 13,0 0,5z" />
<path style="fill:#4c4cff;stroke:#000;stroke-width:2" d="M49,67 l-14,0 0,-5 14,0 0,5z" />
<path style="fill:#4c4cff;stroke:#000;stroke-width:2" d="M194,67 l-14,0 0,-5 14,0 0,5z" />
<path style="fill:#4c4cff;stroke:#000;stroke-width:2" d="M294,67 l-14,0 0,-5 14,0 0,5z" />
<path style="fill:#4c4cff;stroke:#000;stroke-width:2" d="M246,67 l-13,0 0,-5 13,0 0,5z" />
<path style="fill:#4c4cff;stroke:#000;stroke-width:2" d="M141,67 l-13,0 0,-5 13,0 0,5z" />
<path style="fill:#4c4cff;stroke:#000;stroke-width:2" d="M94,67 l-13,0 0,-5 13,0 0,5z" />
<path style="fill:#00c;stroke:#000;stroke-width:2" d="M339,101 l-13,0 0,-7 13,0 0,7z" />
<path style="fill:#00c;stroke:#000;stroke-width:2" d="M49,101 l-14,0 0,-7 14,0 0,7z" />
<path style="fill:#00c;stroke:#000;stroke-width:2" d="M194,101 l-14,0 0,-7 14,0 0,7z" />
<path style="fill:#00c;stroke:#000;stroke-width:2" d="M294,101 l-14,0 0,-7 14,0 0,7z" />
<path style="fill:#00c;stroke:#000;stroke-width:2" d="M246,101 l-13,0 0,-7 13,0 0,7z" />
<path style="fill:#00c;stroke:#000;stroke-width:2" d="M141,101 l-13,0 0,-7 13,0 0,7z" />
<path style="fill:#00c;stroke:#000;stroke-width:2" d="M94,101 l-13,0 0,-7 13,0 0,7z" />
<path style="fill:#00c" d="M263,882 l-152,0 0,41 152,0 0,-41z" />
<path style="fill:#00c" d="M52,831 l-20,0 0,39 20,0 0,-39z" />
<path style="fill:#00c" d="M343,831 l-19,0 0,39 19,0 0,-39z" />
<path style="fill:#0000b2;stroke:#000;stroke-width:2" d="M263,927 l-152,0 0,4 152,0 0,-4z" />
<path style="fill:none;stroke:#000;stroke-width:2" d="M305,944 l-238,0" />
<path style="fill:none;stroke:#000;stroke-width:2" d="M239,944 l-6,-13" />
<path style="fill:none;stroke:#000;stroke-width:2" d="M133,944 l8,-13" />
<path style="fill:none;stroke:#000;stroke-width:2" d="M186,944 l0,-13" />
<path style="fill:none;stroke:#000;stroke-width:2" d="M292,944 l-15,-13" />
<path style="fill:none;stroke:#000;stroke-width:2" d="M81,944 l20,-13" />

</svg>
