<?xml version="1.0" encoding="utf-8" standalone="no"?><!DOCTYPE svg PUBLIC "-//W3C//DTD SVG 1.1//EN" "http://www.w3.org/Graphics/SVG/1.1/DTD/svg11-flat-20030114.dtd"><svg width="409" height="999" version="1.1" xmlns="http://www.w3.org/2000/svg" xmlns:xlink="http://www.w3.org/1999/xlink">

<path style="fill:#fff091;stroke:#000;stroke-width:2" d="M214,448 l-22,0 0,155 22,0 0,-155z" />
<path style="fill:#fff" d="M207,454 l-8,0 0,141 8,0 0,-141z" />
<path style="fill:#00c;stroke:#000;stroke-width:2" d="M280,772 l-154,0 0,6 154,0 0,-6z" />
<path style="fill:#00c;stroke:#000;stroke-width:2" d="M248,395 l-88,0 0,8 88,0 0,-8z" />
<path style="fill:#00c;stroke:#000;stroke-width:2" d="M226,403 l-44,0 0,45 44,0 0,-45z" />
<path style="fill:#00c;stroke:#000;stroke-width:2" d="M226,491 l-44,0 0,46 44,0 0,-46z" />
<path style="fill:#00c;stroke:#000;stroke-width:2" d="M241,537 l-74,0 0,5 74,0 0,-5z" />
<path style="fill:#00c;stroke:#000;stroke-width:2" d="M248,603 l-88,0 0,20 88,0 0,-20z" />
<path style="fill:#00c;stroke:#000;stroke-width:2" d="M263,631 l-118,0 0,119 118,0 0,-119z" />
<path style="fill:#00f;stroke:#000;stroke-width:2" d="M292,399 l-18,-21 -10,-5 -4,-2 0,2 0,19 13,26 0,231 -4,7 -4,1 -123,0 -9,-26 0,-228 1,-3 13,-8 1,0 0,-21 -26,15 -6,8 -2,5 0,8 0,247 20,21 5,1 6,0 7,0 111,0 26,-13 2,-4 1,-5 0,-9 0,-246z" />
<path style="fill:#0000e5;stroke:#000;stroke-width:2" d="M380,71 l-352,0 0,15 352,0 0,-15z" />
<path style="fill:#00f;stroke:#000;stroke-width:2" d="M292,167 l-23,15 0,13 -1,12 0,12 0,13 -1,12 0,13 -1,12 0,12 0,13 0,12 -1,13 0,13 0,12 -1,13 0,12 -1,13 -2,10 -1,2 -3,1 -1,0 0,0 -104,0 -4,-1 -3,-12 -8,-200 -23,-15 0,-20 178,0 0,20z" />
<path style="fill:#00f;stroke:#000;stroke-width:2" d="M56,43 l0,9 0,4 0,2 0,6 0,9 1,0 292,0 1,0 0,-9 -2,-29 -8,-7 -3,0 -8,0 -258,0 -15,15z" />
<path style="fill:#00c;stroke:#000;stroke-width:2" d="M269,182 l23,-15 -178,0 23,15 132,0z" />
<path style="fill:#00c;stroke:#000;stroke-width:2" d="M380,86 l-352,0 0,15 352,0 0,-15z" />
<path style="fill:#00c;stroke:#000;stroke-width:2" d="M350,131 l0,-8 0,-5 0,-1 0,-7 0,-9 -1,0 -292,0 -1,0 0,9 3,29 9,7 3,1 8,0 258,0 13,-16z" />
<ellipse style="fill:#4c4cff;stroke:#000;stroke-width:2" cx="204" cy="308" rx="37" ry="14" />
<circle style="fill:#00007f;stroke:#000;stroke-width:2" cx="181" cy="308" r="2" />
<circle style="fill:#00007f;stroke:#000;stroke-width:2" cx="225" cy="308" r="3" />
<path style="fill:#00007f;stroke:#000;stroke-width:2" d="M241,623 l-74,0 0,8 74,0 0,-8z" />
<path style="fill:#333;stroke:#000;stroke-width:2" d="M218,542 l-30,0 0,15 30,0 0,-15z" />
<path style="fill:#00f;stroke:#000;stroke-width:2" d="M350,853 l-29,-11 -21,-10 -8,-1 -11,0 -167,0 -28,11 -22,10 -8,1 0,7 0,88 30,11 21,10 7,1 12,0 166,0 29,-11 22,-10 7,-1 0,-7 0,-88z" />
<path style="fill:#00f;stroke:#000;stroke-width:2" d="M292,778 l-178,0 0,53 178,0 0,-53z" />
<path style="fill:#00f;stroke:#000;stroke-width:2" d="M292,750 l-178,0 0,22 178,0 0,-22z" />
<path style="fill:#00f;stroke:#000;stroke-width:2" d="M288,735 l-21,0 0,15 21,0 0,-15z" />
<path style="fill:#00f;stroke:#000;stroke-width:2" d="M141,735 l-23,0 0,15 23,0 0,-15z" />
<path style="fill:#00f;stroke:#000;stroke-width:2" d="M214,735 l-22,0 0,15 22,0 0,-15z" />
<path style="fill:#00f;stroke:#000;stroke-width:2" d="M175,735 l-23,0 0,15 23,0 0,-15z" />
<path style="fill:#00f;stroke:#000;stroke-width:2" d="M256,735 l-23,0 0,15 23,0 0,-15z" />
<path style="fill:#00f;stroke:#000;stroke-width:2" d="M56,831 l-28,0 0,139 28,0 0,-139z" />
<path style="fill:#00f;stroke:#000;stroke-width:2" d="M380,831 l-30,0 0,139 30,0 0,-139z" />
<ellipse style="fill:#4c4cff" cx="206" cy="893" rx="116" ry="55" />
<path style="fill:#4c4cff" d="M376,835 l-22,0 0,28 22,0 0,-28z" />
<path style="fill:#4c4cff" d="M52,835 l-20,0 0,28 20,0 0,-28z" />
<path style="fill:#4c4cff;stroke:#000;stroke-width:2" d="M373,71 l-15,0 0,-6 15,0 0,6z" />
<path style="fill:#4c4cff;stroke:#000;stroke-width:2" d="M49,71 l-16,0 0,-6 16,0 0,6z" />
<path style="fill:#4c4cff;stroke:#000;stroke-width:2" d="M211,71 l-15,0 0,-6 15,0 0,6z" />
<path style="fill:#4c4cff;stroke:#000;stroke-width:2" d="M322,71 l-15,0 0,-6 15,0 0,6z" />
<path style="fill:#4c4cff;stroke:#000;stroke-width:2" d="M269,71 l-13,0 0,-6 13,0 0,6z" />
<path style="fill:#4c4cff;stroke:#000;stroke-width:2" d="M152,71 l-15,0 0,-6 15,0 0,6z" />
<path style="fill:#4c4cff;stroke:#000;stroke-width:2" d="M101,71 l-15,0 0,-6 15,0 0,6z" />
<path style="fill:#00c;stroke:#000;stroke-width:2" d="M373,109 l-15,0 0,-8 15,0 0,8z" />
<path style="fill:#00c;stroke:#000;stroke-width:2" d="M49,109 l-16,0 0,-8 16,0 0,8z" />
<path style="fill:#00c;stroke:#000;stroke-width:2" d="M211,109 l-15,0 0,-8 15,0 0,8z" />
<path style="fill:#00c;stroke:#000;stroke-width:2" d="M322,109 l-15,0 0,-8 15,0 0,8z" />
<path style="fill:#00c;stroke:#000;stroke-width:2" d="M269,109 l-13,0 0,-8 13,0 0,8z" />
<path style="fill:#00c;stroke:#000;stroke-width:2" d="M152,109 l-15,0 0,-8 15,0 0,8z" />
<path style="fill:#00c;stroke:#000;stroke-width:2" d="M101,109 l-15,0 0,-8 15,0 0,8z" />
<path style="fill:#00c" d="M376,923 l-22,0 0,43 22,0 0,-43z" />
<path style="fill:#00c" d="M52,923 l-20,0 0,43 20,0 0,-43z" />

</svg>
