<?xml version="1.0" encoding="utf-8" standalone="no"?><!DOCTYPE svg PUBLIC "-//W3C//DTD SVG 1.1//EN" "http://www.w3.org/Graphics/SVG/1.1/DTD/svg11-flat-20030114.dtd"><svg width="534" height="467" version="1.1" xmlns="http://www.w3.org/2000/svg" xmlns:xlink="http://www.w3.org/1999/xlink">

<path style="fill:#7f7f7f" d="M428,228 l-322,0 0,168 322,0 0,-168z" />
<path style="fill:#999" d="M428,238 l-322,0 0,148 322,0 0,-148z" />
<path style="fill:#b2b2b2" d="M428,256 l-322,0 0,112 322,0 0,-112z" />
<path style="fill:#ccc" d="M428,274 l-322,0 0,77 322,0 0,-77z" />
<path style="fill:#e5e5e5" d="M428,287 l-322,0 0,50 322,0 0,-50z" />
<path style="fill:#fff" d="M428,302 l-322,0 0,20 322,0 0,-20z" />
<path style="fill:none;stroke:#000;stroke-width:2" d="M428,396 l-322,0" />
<path style="fill:none;stroke:#000;stroke-width:2" d="M106,228 l322,0" />
<path style="fill:#7f7f7f;stroke:#000;stroke-width:2" d="M427,230 l-13,-5 0,-35 13,-6 0,46z" />
<path style="fill:#7f7f7f;stroke:#000;stroke-width:2" d="M427,335 l-13,-5 0,-35 13,-6 0,46z" />
<path style="fill:#7f7f7f;stroke:#000;stroke-width:2" d="M427,440 l-13,-5 0,-35 13,-6 0,46z" />
<path style="fill:#7f7f7f;stroke:#000;stroke-width:2" d="M506,230 l13,-5 0,-35 -13,-6 0,46z" />
<path style="fill:#7f7f7f;stroke:#000;stroke-width:2" d="M506,335 l13,-5 0,-35 -13,-6 0,46z" />
<path style="fill:#7f7f7f;stroke:#000;stroke-width:2" d="M506,440 l13,-5 0,-35 -13,-6 0,46z" />
<path style="fill:#b2b2b2;stroke:#000;stroke-width:2" d="M427,222 l-13,-3 0,-29 13,-6 0,38z" />
<path style="fill:#b2b2b2;stroke:#000;stroke-width:2" d="M427,327 l-13,-3 0,-29 13,-6 0,38z" />
<path style="fill:#b2b2b2;stroke:#000;stroke-width:2" d="M427,432 l-13,-3 0,-29 13,-6 0,38z" />
<path style="fill:#b2b2b2;stroke:#000;stroke-width:2" d="M506,222 l13,-3 0,-29 -13,-6 0,38z" />
<path style="fill:#b2b2b2;stroke:#000;stroke-width:2" d="M506,327 l13,-3 0,-29 -13,-6 0,38z" />
<path style="fill:#b2b2b2;stroke:#000;stroke-width:2" d="M506,432 l13,-3 0,-29 -13,-6 0,38z" />
<path style="fill:#7f7f7f" d="M506,172 l-40,0 0,280 40,0 0,-280z" />
<path style="fill:#999" d="M506,189 l-40,0 0,246 40,0 0,-246z" />
<path style="fill:#b2b2b2" d="M506,219 l-40,0 0,187 40,0 0,-187z" />
<path style="fill:#ccc" d="M506,248 l-40,0 0,129 40,0 0,-129z" />
<path style="fill:#e5e5e5" d="M506,271 l-40,0 0,82 40,0 0,-82z" />
<path style="fill:#fff" d="M506,295 l-40,0 0,34 40,0 0,-34z" />
<path style="fill:none;stroke:#000;stroke-width:2" d="M506,172 l-40,0 0,280 40,0 0,-280" />
<path style="fill:#e5e5e5;stroke:#000;stroke-width:2" d="M519,195 l0,-5 -13,-6 0,9 13,2z" />
<path style="fill:#e5e5e5;stroke:#000;stroke-width:2" d="M519,300 l0,-5 -13,-6 0,9 13,2z" />
<path style="fill:#e5e5e5;stroke:#000;stroke-width:2" d="M519,405 l0,-5 -13,-6 0,8 13,3z" />
<path style="fill:#e5e5e5;stroke:#000;stroke-width:2" d="M414,195 l0,-5 13,-6 0,9 -13,2z" />
<path style="fill:#e5e5e5;stroke:#000;stroke-width:2" d="M414,300 l0,-5 13,-6 0,9 -13,2z" />
<path style="fill:#e5e5e5;stroke:#000;stroke-width:2" d="M414,405 l0,-5 13,-6 0,8 -13,3z" />
<path style="fill:#7f7f7f" d="M427,172 l39,0 0,280 -39,0 0,-280z" />
<path style="fill:#999" d="M427,189 l39,0 0,246 -39,0 0,-246z" />
<path style="fill:#b2b2b2" d="M427,219 l39,0 0,187 -39,0 0,-187z" />
<path style="fill:#ccc" d="M427,248 l39,0 0,129 -39,0 0,-129z" />
<path style="fill:#e5e5e5" d="M427,271 l39,0 0,82 -39,0 0,-82z" />
<path style="fill:#fff" d="M427,295 l39,0 0,34 -39,0 0,-34z" />
<path style="fill:none;stroke:#000;stroke-width:2" d="M427,172 l39,0 0,280 -39,0 0,-280" />
<path style="fill:#7f7f7f;stroke:#000;stroke-width:2" d="M28,230 l-13,-5 0,-35 13,-6 0,46z" />
<path style="fill:#7f7f7f;stroke:#000;stroke-width:2" d="M28,335 l-13,-5 0,-35 13,-6 0,46z" />
<path style="fill:#7f7f7f;stroke:#000;stroke-width:2" d="M28,440 l-13,-5 0,-35 13,-6 0,46z" />
<path style="fill:#7f7f7f;stroke:#000;stroke-width:2" d="M107,230 l13,-5 0,-35 -13,-6 0,46z" />
<path style="fill:#7f7f7f;stroke:#000;stroke-width:2" d="M107,335 l13,-5 0,-35 -13,-6 0,46z" />
<path style="fill:#7f7f7f;stroke:#000;stroke-width:2" d="M107,440 l13,-5 0,-35 -13,-6 0,46z" />
<path style="fill:#b2b2b2;stroke:#000;stroke-width:2" d="M28,222 l-13,-3 0,-29 13,-6 0,38z" />
<path style="fill:#b2b2b2;stroke:#000;stroke-width:2" d="M28,327 l-13,-3 0,-29 13,-6 0,38z" />
<path style="fill:#b2b2b2;stroke:#000;stroke-width:2" d="M28,432 l-13,-3 0,-29 13,-6 0,38z" />
<path style="fill:#b2b2b2;stroke:#000;stroke-width:2" d="M107,222 l13,-3 0,-29 -13,-6 0,38z" />
<path style="fill:#b2b2b2;stroke:#000;stroke-width:2" d="M107,327 l13,-3 0,-29 -13,-6 0,38z" />
<path style="fill:#b2b2b2;stroke:#000;stroke-width:2" d="M107,432 l13,-3 0,-29 -13,-6 0,38z" />
<path style="fill:#7f7f7f" d="M107,172 l-39,0 0,280 39,0 0,-280z" />
<path style="fill:#999" d="M107,189 l-39,0 0,246 39,0 0,-246z" />
<path style="fill:#b2b2b2" d="M107,219 l-39,0 0,187 39,0 0,-187z" />
<path style="fill:#ccc" d="M107,248 l-39,0 0,129 39,0 0,-129z" />
<path style="fill:#e5e5e5" d="M107,271 l-39,0 0,82 39,0 0,-82z" />
<path style="fill:#fff" d="M107,295 l-39,0 0,34 39,0 0,-34z" />
<path style="fill:none;stroke:#000;stroke-width:2" d="M107,172 l-39,0 0,280 39,0 0,-280" />
<path style="fill:#e5e5e5;stroke:#000;stroke-width:2" d="M120,195 l0,-5 -13,-6 0,9 13,2z" />
<path style="fill:#e5e5e5;stroke:#000;stroke-width:2" d="M120,300 l0,-5 -13,-6 0,9 13,2z" />
<path style="fill:#e5e5e5;stroke:#000;stroke-width:2" d="M120,405 l0,-5 -13,-6 0,8 13,3z" />
<path style="fill:#e5e5e5;stroke:#000;stroke-width:2" d="M15,195 l0,-5 13,-6 0,9 -13,2z" />
<path style="fill:#e5e5e5;stroke:#000;stroke-width:2" d="M15,300 l0,-5 13,-6 0,9 -13,2z" />
<path style="fill:#e5e5e5;stroke:#000;stroke-width:2" d="M15,405 l0,-5 13,-6 0,8 -13,3z" />
<path style="fill:#7f7f7f" d="M28,172 l40,0 0,280 -40,0 0,-280z" />
<path style="fill:#999" d="M28,189 l40,0 0,246 -40,0 0,-246z" />
<path style="fill:#b2b2b2" d="M28,219 l40,0 0,187 -40,0 0,-187z" />
<path style="fill:#ccc" d="M28,248 l40,0 0,129 -40,0 0,-129z" />
<path style="fill:#e5e5e5" d="M28,271 l40,0 0,82 -40,0 0,-82z" />
<path style="fill:#fff" d="M28,295 l40,0 0,34 -40,0 0,-34z" />
<path style="fill:none;stroke:#000;stroke-width:2" d="M28,172 l40,0 0,280 -40,0 0,-280" />
<path style="fill:#4c4c4c;stroke:#000;stroke-width:2" d="M411,188 l-119,-118 25,-25 119,119 -25,24z" />
<path style="fill:#666;stroke:#000;stroke-width:2" d="M446,154 l-119,-119 -10,10 119,119 10,-10z" />
<path style="fill:#999;stroke:#000;stroke-width:2" d="M436,144 l-30,-30 15,-15 30,30 -15,15z" />
<path style="fill:#b2b2b2;stroke:#000;stroke-width:2" d="M421,99 l-50,-49 -14,15 49,49 15,-15z" />
<path style="fill:#ccc;stroke:#000;stroke-width:2" d="M371,50 l-19,-20 -15,15 20,20 14,-15z" />
<path style="fill:#7f7f7f" d="M436,15 l-50,50 30,29 50,-49 -30,-30z" />
<path style="fill:#999" d="M438,17 l-50,49 26,27 50,-50 -26,-26z" />
<path style="fill:#b2b2b2" d="M441,20 l-50,50 20,19 50,-49 -20,-20z" />
<path style="fill:#ccc" d="M444,23 l-50,50 14,13 49,-49 -13,-14z" />
<path style="fill:#e5e5e5" d="M446,26 l-49,49 9,9 49,-50 -9,-8z" />
<path style="fill:#fff" d="M449,28 l-50,50 4,3 49,-49 -3,-4z" />
<path style="fill:none;stroke:#000;stroke-width:2" d="M465,45 l-29,-30 -50,50 30,29 49,-49" />
<path style="fill:#7f7f7f" d="M278,322 l133,-133 -119,-119 -158,158 42,95 102,-1z" />
<path style="fill:#999" d="M264,322 l140,-141 -104,-104 -162,161 38,84 88,0z" />
<path style="fill:#b2b2b2" d="M239,323 l152,-154 -79,-79 -168,166 32,66 63,1z" />
<path style="fill:#ccc" d="M215,323 l164,-167 -54,-54 -173,172 24,48 39,1z" />
<path style="fill:#e5e5e5" d="M194,322 l175,-175 -35,-35 -175,175 17,35 18,0z" />
<path style="fill:#fff" d="M173,323 l186,-186 -15,-15 -178,180 7,21z" />
<path style="fill:none;stroke:#000;stroke-width:2" d="M292,70 l-158,158" />
<path style="fill:none;stroke:#000;stroke-width:2" d="M278,322 l133,-133" />

</svg>
