<?xml version="1.0" encoding="utf-8" standalone="no"?><!DOCTYPE svg PUBLIC "-//W3C//DTD SVG 1.1//EN" "http://www.w3.org/Graphics/SVG/1.1/DTD/svg11-flat-20030114.dtd"><svg width="871" height="999" version="1.1" xmlns="http://www.w3.org/2000/svg" xmlns:xlink="http://www.w3.org/1999/xlink">

<path style="fill:#7f7f7f" d="M425,198 l0,602 313,0 0,-602 -313,0z" />
<path style="fill:#999" d="M444,198 l0,602 276,0 0,-602 -276,0z" />
<path style="fill:#b2b2b2" d="M477,198 l0,602 209,0 0,-602 -209,0z" />
<path style="fill:#ccc" d="M511,198 l0,602 143,0 0,-602 -143,0z" />
<path style="fill:#e5e5e5" d="M535,198 l0,602 93,0 0,-602 -93,0z" />
<path style="fill:#fff" d="M563,198 l0,602 37,0 0,-602 -37,0z" />
<path style="fill:none;stroke:#000;stroke-width:2" d="M738,198 l0,602" />
<path style="fill:none;stroke:#000;stroke-width:2" d="M425,800 l0,-602" />
<path style="fill:#7f7f7f;stroke:#000;stroke-width:2" d="M429,200 l-10,24 -65,0 -11,-24 86,0z" />
<path style="fill:#7f7f7f;stroke:#000;stroke-width:2" d="M625,200 l-10,24 -65,0 -11,-24 86,0z" />
<path style="fill:#7f7f7f;stroke:#000;stroke-width:2" d="M820,200 l-9,24 -65,0 -12,-24 86,0z" />
<path style="fill:#7f7f7f;stroke:#000;stroke-width:2" d="M429,52 l-10,-24 -65,0 -11,24 86,0z" />
<path style="fill:#7f7f7f;stroke:#000;stroke-width:2" d="M625,52 l-10,-24 -65,0 -11,24 86,0z" />
<path style="fill:#7f7f7f;stroke:#000;stroke-width:2" d="M820,52 l-9,-24 -65,0 -12,24 86,0z" />
<path style="fill:#b2b2b2;stroke:#000;stroke-width:2" d="M414,200 l-6,24 -54,0 -11,-24 71,0z" />
<path style="fill:#b2b2b2;stroke:#000;stroke-width:2" d="M610,200 l-6,24 -54,0 -11,-24 71,0z" />
<path style="fill:#b2b2b2;stroke:#000;stroke-width:2" d="M805,200 l-5,24 -54,0 -12,-24 71,0z" />
<path style="fill:#b2b2b2;stroke:#000;stroke-width:2" d="M414,52 l-6,-24 -54,0 -11,24 71,0z" />
<path style="fill:#b2b2b2;stroke:#000;stroke-width:2" d="M610,52 l-6,-24 -54,0 -11,24 71,0z" />
<path style="fill:#b2b2b2;stroke:#000;stroke-width:2" d="M805,52 l-5,-24 -54,0 -12,24 71,0z" />
<path style="fill:#7f7f7f" d="M321,52 l0,75 522,0 0,-75 -522,0z" />
<path style="fill:#999" d="M352,52 l0,75 459,0 0,-75 -459,0z" />
<path style="fill:#b2b2b2" d="M408,52 l0,75 349,0 0,-75 -349,0z" />
<path style="fill:#ccc" d="M462,52 l0,75 241,0 0,-75 -241,0z" />
<path style="fill:#e5e5e5" d="M505,52 l0,75 153,0 0,-75 -153,0z" />
<path style="fill:#fff" d="M550,52 l0,75 63,0 0,-75 -63,0z" />
<path style="fill:none;stroke:#000;stroke-width:2" d="M321,52 l0,75 522,0 0,-75 -522,0" />
<path style="fill:#e5e5e5;stroke:#000;stroke-width:2" d="M363,28 l-9,0 -11,24 17,0 3,-24z" />
<path style="fill:#e5e5e5;stroke:#000;stroke-width:2" d="M559,28 l-9,0 -11,24 17,0 3,-24z" />
<path style="fill:#e5e5e5;stroke:#000;stroke-width:2" d="M755,28 l-9,0 -12,24 15,0 6,-24z" />
<path style="fill:#e5e5e5;stroke:#000;stroke-width:2" d="M363,224 l-9,0 -11,-24 17,0 3,24z" />
<path style="fill:#e5e5e5;stroke:#000;stroke-width:2" d="M559,224 l-9,0 -11,-24 17,0 3,24z" />
<path style="fill:#e5e5e5;stroke:#000;stroke-width:2" d="M755,224 l-9,0 -12,-24 15,0 6,24z" />
<path style="fill:#7f7f7f" d="M321,200 l0,-73 522,0 0,73 -522,0z" />
<path style="fill:#999" d="M352,200 l0,-73 459,0 0,73 -459,0z" />
<path style="fill:#b2b2b2" d="M408,200 l0,-73 349,0 0,73 -349,0z" />
<path style="fill:#ccc" d="M462,200 l0,-73 241,0 0,73 -241,0z" />
<path style="fill:#e5e5e5" d="M505,200 l0,-73 153,0 0,73 -153,0z" />
<path style="fill:#fff" d="M550,200 l0,-73 63,0 0,73 -63,0z" />
<path style="fill:none;stroke:#000;stroke-width:2" d="M321,200 l0,-73 522,0 0,73 -522,0" />
<path style="fill:#7f7f7f;stroke:#000;stroke-width:2" d="M429,946 l-10,24 -65,0 -11,-24 86,0z" />
<path style="fill:#7f7f7f;stroke:#000;stroke-width:2" d="M625,946 l-10,24 -65,0 -11,-24 86,0z" />
<path style="fill:#7f7f7f;stroke:#000;stroke-width:2" d="M820,946 l-9,24 -65,0 -12,-24 86,0z" />
<path style="fill:#7f7f7f;stroke:#000;stroke-width:2" d="M429,798 l-10,-24 -65,0 -11,24 86,0z" />
<path style="fill:#7f7f7f;stroke:#000;stroke-width:2" d="M625,798 l-10,-24 -65,0 -11,24 86,0z" />
<path style="fill:#7f7f7f;stroke:#000;stroke-width:2" d="M820,798 l-9,-24 -65,0 -12,24 86,0z" />
<path style="fill:#b2b2b2;stroke:#000;stroke-width:2" d="M414,946 l-6,24 -54,0 -11,-24 71,0z" />
<path style="fill:#b2b2b2;stroke:#000;stroke-width:2" d="M610,946 l-6,24 -54,0 -11,-24 71,0z" />
<path style="fill:#b2b2b2;stroke:#000;stroke-width:2" d="M805,946 l-5,24 -54,0 -12,-24 71,0z" />
<path style="fill:#b2b2b2;stroke:#000;stroke-width:2" d="M414,798 l-6,-24 -54,0 -11,24 71,0z" />
<path style="fill:#b2b2b2;stroke:#000;stroke-width:2" d="M610,798 l-6,-24 -54,0 -11,24 71,0z" />
<path style="fill:#b2b2b2;stroke:#000;stroke-width:2" d="M805,798 l-5,-24 -54,0 -12,24 71,0z" />
<path style="fill:#7f7f7f" d="M321,798 l0,73 522,0 0,-73 -522,0z" />
<path style="fill:#999" d="M352,798 l0,73 459,0 0,-73 -459,0z" />
<path style="fill:#b2b2b2" d="M408,798 l0,73 349,0 0,-73 -349,0z" />
<path style="fill:#ccc" d="M462,798 l0,73 241,0 0,-73 -241,0z" />
<path style="fill:#e5e5e5" d="M505,798 l0,73 153,0 0,-73 -153,0z" />
<path style="fill:#fff" d="M550,798 l0,73 63,0 0,-73 -63,0z" />
<path style="fill:none;stroke:#000;stroke-width:2" d="M321,798 l0,73 522,0 0,-73 -522,0" />
<path style="fill:#e5e5e5;stroke:#000;stroke-width:2" d="M363,774 l-9,0 -11,24 17,0 3,-24z" />
<path style="fill:#e5e5e5;stroke:#000;stroke-width:2" d="M559,774 l-9,0 -11,24 17,0 3,-24z" />
<path style="fill:#e5e5e5;stroke:#000;stroke-width:2" d="M755,774 l-9,0 -12,24 15,0 6,-24z" />
<path style="fill:#e5e5e5;stroke:#000;stroke-width:2" d="M363,970 l-9,0 -11,-24 17,0 3,24z" />
<path style="fill:#e5e5e5;stroke:#000;stroke-width:2" d="M559,970 l-9,0 -11,-24 17,0 3,24z" />
<path style="fill:#e5e5e5;stroke:#000;stroke-width:2" d="M755,970 l-9,0 -12,-24 15,0 6,24z" />
<path style="fill:#7f7f7f" d="M321,946 l0,-75 522,0 0,75 -522,0z" />
<path style="fill:#999" d="M352,946 l0,-75 459,0 0,75 -459,0z" />
<path style="fill:#b2b2b2" d="M408,946 l0,-75 349,0 0,75 -349,0z" />
<path style="fill:#ccc" d="M462,946 l0,-75 241,0 0,75 -241,0z" />
<path style="fill:#e5e5e5" d="M505,946 l0,-75 153,0 0,75 -153,0z" />
<path style="fill:#fff" d="M550,946 l0,-75 63,0 0,75 -63,0z" />
<path style="fill:none;stroke:#000;stroke-width:2" d="M321,946 l0,-75 522,0 0,75 -522,0" />
<path style="fill:#4c4c4c;stroke:#000;stroke-width:2" d="M350,230 l-220,222 -46,-46 222,-223 44,47z" />
<path style="fill:#666;stroke:#000;stroke-width:2" d="M287,164 l-222,223 19,19 222,-223 -19,-19z" />
<path style="fill:#999;stroke:#000;stroke-width:2" d="M268,183 l-56,56 -28,-28 56,-56 28,28z" />
<path style="fill:#b2b2b2;stroke:#000;stroke-width:2" d="M184,211 l-91,94 28,26 91,-92 -28,-28z" />
<path style="fill:#ccc;stroke:#000;stroke-width:2" d="M93,305 l-37,35 28,28 37,-37 -28,-26z" />
<path style="fill:#7f7f7f" d="M28,183 l93,93 54,-56 -91,-93 -56,56z" />
<path style="fill:#999" d="M32,179 l91,94 50,-49 -93,-93 -48,48z" />
<path style="fill:#b2b2b2" d="M37,174 l93,93 36,-37 -92,-94 -37,38z" />
<path style="fill:#ccc" d="M43,168 l93,94 24,-27 -91,-91 -26,24z" />
<path style="fill:#e5e5e5" d="M48,164 l92,92 16,-17 -93,-92 -15,17z" />
<path style="fill:#fff" d="M52,159 l93,93 6,-7 -91,-92 -8,6z" />
<path style="fill:none;stroke:#000;stroke-width:2" d="M84,129 l-56,54 93,93 54,-56 -91,-91" />
<path style="fill:#7f7f7f" d="M600,478 l-248,-248 -222,222 295,296 177,-79 -2,-191z" />
<path style="fill:#999" d="M600,505 l-263,-262 -194,194 301,303 156,-71 0,-164z" />
<path style="fill:#b2b2b2" d="M602,551 l-287,-284 -147,148 309,314 123,-60 2,-118z" />
<path style="fill:#ccc" d="M602,596 l-311,-306 -101,101 321,323 89,-45 2,-73z" />
<path style="fill:#e5e5e5" d="M600,635 l-326,-327 -65,66 326,327 65,-32 0,-34z" />
<path style="fill:#fff" d="M602,675 l-347,-348 -28,28 336,333 39,-13z" />
<path style="fill:none;stroke:#000;stroke-width:2" d="M130,452 l295,296" />
<path style="fill:none;stroke:#000;stroke-width:2" d="M600,478 l-248,-248" />

</svg>
