<?xml version="1.0" encoding="utf-8" standalone="no"?><!DOCTYPE svg PUBLIC "-//W3C//DTD SVG 1.1//EN" "http://www.w3.org/Graphics/SVG/1.1/DTD/svg11-flat-20030114.dtd"><svg width="609" height="998" version="1.1" xmlns="http://www.w3.org/2000/svg" xmlns:xlink="http://www.w3.org/1999/xlink">

<path style="fill:#ff0;stroke:#000;stroke-width:2" d="M581,200 l-95,0 0,122 95,0 0,-122z" />
<path style="fill:#ff0;stroke:#000;stroke-width:2" d="M581,28 l-52,0 0,103 52,0 0,-103z" />
<path style="fill:#ff0;stroke:#000;stroke-width:2" d="M80,28 l-52,0 0,103 52,0 0,-103z" />
<path style="fill:#ff0;stroke:#000;stroke-width:2" d="M123,200 l-95,0 0,122 95,0 0,-122z" />
<path style="fill:#fc0;stroke:#000;stroke-width:2" d="M486,304 l-363,0 0,346 363,0 0,-346z" />
<path style="fill:#fc0;stroke:#000;stroke-width:2" d="M356,650 l-104,0 0,52 104,0 0,-52z" />
<path style="fill:#ff6;stroke:#000;stroke-width:2" d="M166,893 l0,-70 -35,0 0,70 35,0z" />
<path style="fill:#ff6;stroke:#000;stroke-width:2" d="M227,702 l0,35 43,0 0,-35 -43,0z" />
<path style="fill:#ff6;stroke:#000;stroke-width:2" d="M477,893 l0,-70 -35,0 0,70 35,0z" />
<path style="fill:#ff9;stroke:#000;stroke-width:2" d="M166,780 l-35,0 0,43 35,0 0,-43z" />
<path style="fill:#ff9;stroke:#000;stroke-width:2" d="M340,702 l-70,0 0,35 70,0 0,-35z" />
<path style="fill:#ff9;stroke:#000;stroke-width:2" d="M477,780 l-35,0 0,43 35,0 0,-43z" />
<path style="fill:#ff9;stroke:#000;stroke-width:2" d="M529,28 l-449,0 0,103 449,0 0,-103z" />
<path style="fill:#ff6;stroke:#000;stroke-width:2" d="M529,200 l-449,0 0,104 449,0 0,-104z" />
<path style="fill:#ff0;stroke:#000;stroke-width:2" d="M581,131 l-553,0 0,69 553,0 0,-69z" />
<path style="fill:#ff0;stroke:#000;stroke-width:2" d="M477,304 l-346,0 0,346 346,0 0,-346z" />
<path style="fill:#ff0;stroke:#000;stroke-width:2" d="M477,892 l-35,0 0,44 35,0 0,-44z" />
<path style="fill:#ff0;stroke:#000;stroke-width:2" d="M200,936 l4,1 6,4 7,8 6,9 3,3 10,3 10,2 10,2 9,0 10,1 10,0 9,0 10,1 10,-1 10,0 10,0 9,-1 10,0 10,-2 10,-2 9,-3 7,-7 6,-9 7,-6 3,-2 3,-1 34,-9 1,-138 -52,-17 0,-18 -173,0 0,18 -52,17 0,138 9,2 8,2 9,3 8,2z" />
<path style="fill:#ff0;stroke:#000;stroke-width:2" d="M166,892 l-35,0 0,44 35,0 0,-44z" />
<path style="fill:#ff0;stroke:#000;stroke-width:2" d="M339,702 l0,35 44,0 0,-35 -44,0z" />
<path style="fill:#ff0;stroke:#000;stroke-width:2" d="M391,737 l-173,0 0,17 173,0 0,-17z" />
<path style="fill:#000" d="M28,166 l0,-8 553,0 0,16 -553,0 0,-8z" />
<path style="fill:#ccc;stroke:#000;stroke-width:2" d="M546,131 l-43,0 0,-25 43,0 0,25z" />
<path style="fill:#ccc" d="M105,131 l-43,0 0,-25 43,0 0,25z" />
<path style="fill:#ccc" d="M400,131 l-44,0 0,-25 44,0 0,25z" />
<path style="fill:#ccc" d="M252,131 l-43,0 0,-25 43,0 0,25z" />
<path style="fill:#ccc" d="M546,235 l-43,0 0,-25 43,0 0,25z" />
<path style="fill:#ccc" d="M105,235 l-43,0 0,-25 43,0 0,25z" />
<path style="fill:#ccc" d="M400,235 l-44,0 0,-25 44,0 0,25z" />
<path style="fill:#ccc" d="M252,235 l-43,0 0,-25 43,0 0,25z" />
<path style="fill:#ccc" d="M555,200 l-60,0 0,9 60,0 0,-9z" />
<path style="fill:#ccc" d="M409,200 l-61,0 0,9 61,0 0,-9z" />
<path style="fill:#ccc" d="M261,200 l-61,0 0,9 61,0 0,-9z" />
<path style="fill:#ccc" d="M114,200 l-60,0 0,9 60,0 0,-9z" />
<path style="fill:#ccc" d="M538,235 l-26,0 0,17 26,0 0,-17z" />
<path style="fill:#ccc" d="M391,235 l-26,0 0,17 26,0 0,-17z" />
<path style="fill:#ccc" d="M244,235 l-26,0 0,17 26,0 0,-17z" />
<path style="fill:#ccc" d="M97,235 l-26,0 0,17 26,0 0,-17z" />
<path style="fill:none;stroke:#000;stroke-width:2" d="M521,106 l0,25" />
<path style="fill:none;stroke:#000;stroke-width:2" d="M105,131 l-43,0 0,-25 43,0 0,25" />
<path style="fill:none;stroke:#000;stroke-width:2" d="M88,106 l0,25" />
<path style="fill:none;stroke:#000;stroke-width:2" d="M400,131 l-44,0 0,-25 44,0 0,25" />
<path style="fill:none;stroke:#000;stroke-width:2" d="M374,106 l0,25" />
<path style="fill:none;stroke:#000;stroke-width:2" d="M252,131 l-43,0 0,-25 43,0 0,25" />
<path style="fill:none;stroke:#000;stroke-width:2" d="M235,106 l0,25" />
<path style="fill:none;stroke:#000;stroke-width:2" d="M546,235 l-43,0 0,-25 43,0 0,25" />
<path style="fill:none;stroke:#000;stroke-width:2" d="M521,210 l0,25" />
<path style="fill:none;stroke:#000;stroke-width:2" d="M105,235 l-43,0 0,-25 43,0 0,25" />
<path style="fill:none;stroke:#000;stroke-width:2" d="M88,210 l0,25" />
<path style="fill:none;stroke:#000;stroke-width:2" d="M400,235 l-44,0 0,-25 44,0 0,25" />
<path style="fill:none;stroke:#000;stroke-width:2" d="M374,210 l0,25" />
<path style="fill:none;stroke:#000;stroke-width:2" d="M252,235 l-43,0 0,-25 43,0 0,25" />
<path style="fill:none;stroke:#000;stroke-width:2" d="M235,210 l0,25" />
<path style="fill:none;stroke:#000;stroke-width:2" d="M555,200 l-60,0 0,9 60,0 0,-9" />
<path style="fill:none;stroke:#000;stroke-width:2" d="M409,200 l-61,0 0,9 61,0 0,-9" />
<path style="fill:none;stroke:#000;stroke-width:2" d="M261,200 l-61,0 0,9 61,0 0,-9" />
<path style="fill:none;stroke:#000;stroke-width:2" d="M114,200 l-60,0 0,9 60,0 0,-9" />
<path style="fill:none;stroke:#000;stroke-width:2" d="M538,235 l-26,0 0,17 26,0 0,-17" />
<path style="fill:none;stroke:#000;stroke-width:2" d="M391,235 l-26,0 0,17 26,0 0,-17" />
<path style="fill:none;stroke:#000;stroke-width:2" d="M244,235 l-26,0 0,17 26,0 0,-17" />
<path style="fill:none;stroke:#000;stroke-width:2" d="M97,235 l-26,0 0,17 26,0 0,-17" />
<path style="fill:#ff6" d="M221,912 l10,3 10,4 10,4 10,2 11,2 11,2 10,1 22,0 10,-1 12,-2 11,-2 10,-2 10,-4 10,-4 9,-4 7,14 -10,5 -11,4 -11,3 -11,3 -12,3 -11,1 -12,1 -24,0 -11,-1 -11,-1 -12,-3 -12,-3 -11,-3 -10,-4 -10,-5z" />
<circle style="fill:#ccc;stroke:#000;stroke-width:2" cx="450" cy="460" r="17" />
<circle style="fill:#ccc" cx="166" cy="460" r="17" />
<path style="fill:none;stroke:#000;stroke-width:2" d="M452,443 l0,34" />
<circle style="fill:none;stroke:#000;stroke-width:2" cx="166" cy="460" r="17" />
<path style="fill:none;stroke:#000;stroke-width:2" d="M167,443 l0,34" />

</svg>
