<?xml version="1.0" encoding="utf-8" standalone="no"?><!DOCTYPE svg PUBLIC "-//W3C//DTD SVG 1.1//EN" "http://www.w3.org/Graphics/SVG/1.1/DTD/svg11-flat-20030114.dtd"><svg width="548" height="999" version="1.1" xmlns="http://www.w3.org/2000/svg" xmlns:xlink="http://www.w3.org/1999/xlink">

<path style="fill:#7f7f7f;stroke:#000;stroke-width:2" d="M337,422 l-169,0 0,141 169,0 0,-141z" />
<path style="fill:#7f7f7f;stroke:#000;stroke-width:2" d="M454,225 l-100,14 -200,-1 -101,-13 3,-127 100,-13 201,0 100,13 -3,127z" />
<path style="fill:#7f7f7f;stroke:#000;stroke-width:2" d="M478,142 l-451,0 0,25 451,0 0,-25z" />
<path style="fill:none;stroke:#000;stroke-width:2" d="M478,154 l-451,0" />
<path style="fill:#000;stroke:#000;stroke-width:2" d="M323,239 l-141,0 0,14 141,0 0,-14z" />
<path style="fill:#7f7f7f;stroke:#000;stroke-width:2" d="M309,253 l-112,0 0,169 112,0 0,-169z" />
<circle style="fill:#000;stroke:#000;stroke-width:2" cx="253" cy="421" r="42" />
<circle style="fill:#7f7f7f;stroke:#7f7f7f;stroke-width:2" cx="252" cy="422" r="28" />
<circle style="fill:#fff;stroke:#000;stroke-width:2" cx="295" cy="520" r="28" />
<circle style="fill:#fff;stroke:#000;stroke-width:2" cx="211" cy="520" r="28" />
<path style="fill:none;stroke:#f00;stroke-width:2" d="M295,520 l-14,-14" />
<path style="fill:none;stroke:#000;stroke-width:2" d="M323,520 l-28,0" />
<path style="fill:none;stroke:#f00;stroke-width:2" d="M211,520 l0,-14" />
<path style="fill:none;stroke:#000;stroke-width:2" d="M183,520 l28,0" />
<path style="fill:#000;stroke:#000;stroke-width:2" d="M323,563 l-141,0 0,27 141,0 0,-27z" />
<path style="fill:#7f7f7f;stroke:#000;stroke-width:2" d="M309,590 l-28,0 0,71 28,0 0,-71z" />
<path style="fill:#7f7f7f;stroke:#000;stroke-width:2" d="M225,590 l-28,0 0,71 28,0 0,-71z" />
<path style="fill:#7f7f7f;stroke:#000;stroke-width:2" d="M337,435 l29,29 -1,197 -28,28 -169,0 -28,-28 0,-198 28,-28 0,198 15,28 140,0 14,-28 0,-198z" />
<path style="fill:#7f7f7f;stroke:#000;stroke-width:2" d="M337,773 l-28,-84 -112,0 -29,84 169,0z" />
<path style="fill:#7f7f7f;stroke:#000;stroke-width:2" d="M366,773 l-226,0 0,15 226,0 0,-15z" />
<path style="fill:#7f7f7f;stroke:#000;stroke-width:2" d="M366,788 l0,28 42,13 0,85 -42,43 -226,0 -42,-43 0,-85 42,-14 0,-27 226,0z" />
<path style="fill:#000;stroke:#000;stroke-width:2" d="M408,914 l14,0 0,-84 -14,0 0,84z" />
<path style="fill:#000;stroke:#000;stroke-width:2" d="M84,914 l14,0 0,-84 -14,0 0,84z" />
<path style="fill:#7f7f7f;stroke:#000;stroke-width:2" d="M450,773 l-28,0 0,198 28,0 0,-198z" />
<path style="fill:#7f7f7f;stroke:#000;stroke-width:2" d="M84,773 l-28,0 0,198 28,0 0,-198z" />
<path style="fill:#000;stroke:#000;stroke-width:2" d="M366,759 l-14,0 0,14 14,0 0,-14z" />
<path style="fill:#000;stroke:#000;stroke-width:2" d="M154,759 l-14,0 0,14 14,0 0,-14z" />
<path style="fill:#fff;stroke:#000;stroke-width:2" d="M337,548 l183,0 0,-521 -267,0 0,57 14,0 0,-43 239,0 0,493 -169,0 0,14z" />

</svg>
