<?xml version="1.0" encoding="utf-8" standalone="no"?><!DOCTYPE svg PUBLIC "-//W3C//DTD SVG 1.1//EN" "http://www.w3.org/Graphics/SVG/1.1/DTD/svg11-flat-20030114.dtd"><svg width="418" height="530" version="1.1" xmlns="http://www.w3.org/2000/svg" xmlns:xlink="http://www.w3.org/1999/xlink">

<path style="fill:#7f7f7f" d="M301,349 l-286,0 0,142 286,0 0,-142z" />
<path style="fill:#999" d="M301,357 l-286,0 0,126 286,0 0,-126z" />
<path style="fill:#b2b2b2" d="M301,373 l-286,0 0,95 286,0 0,-95z" />
<path style="fill:#ccc" d="M301,387 l-286,0 0,66 286,0 0,-66z" />
<path style="fill:#e5e5e5" d="M301,399 l-286,0 0,42 286,0 0,-42z" />
<path style="fill:#fff" d="M301,411 l-286,0 0,18 286,0 0,-18z" />
<path style="fill:none;stroke:#000;stroke-width:2" d="M301,491 l-286,0" />
<path style="fill:none;stroke:#000;stroke-width:2" d="M15,349 l286,0" />
<path style="fill:#7f7f7f" d="M277,325 l-48,0 0,190 48,0 0,-190z" />
<path style="fill:#999" d="M277,336 l-48,0 0,168 48,0 0,-168z" />
<path style="fill:#b2b2b2" d="M277,357 l-48,0 0,127 48,0 0,-127z" />
<path style="fill:#ccc" d="M277,376 l-48,0 0,88 48,0 0,-88z" />
<path style="fill:#e5e5e5" d="M277,392 l-48,0 0,56 48,0 0,-56z" />
<path style="fill:#fff" d="M277,408 l-48,0 0,23 48,0 0,-23z" />
<path style="fill:none;stroke:#000;stroke-width:2" d="M277,325 l-48,0 0,190 48,0 0,-190" />
<path style="fill:#7f7f7f" d="M86,325 l-47,0 0,190 47,0 0,-190z" />
<path style="fill:#999" d="M86,336 l-47,0 0,168 47,0 0,-168z" />
<path style="fill:#b2b2b2" d="M86,357 l-47,0 0,127 47,0 0,-127z" />
<path style="fill:#ccc" d="M86,376 l-47,0 0,88 47,0 0,-88z" />
<path style="fill:#e5e5e5" d="M86,392 l-47,0 0,56 47,0 0,-56z" />
<path style="fill:#fff" d="M86,408 l-47,0 0,23 47,0 0,-23z" />
<path style="fill:none;stroke:#000;stroke-width:2" d="M86,325 l-47,0 0,190 47,0 0,-190" />
<path style="fill:#7f7f7f" d="M182,348 l0,-71 -48,0 0,71 2,9 5,8 8,5 9,2 9,-2 8,-5 5,-8 2,-9z" />
<path style="fill:#999" d="M179,360 l-4,5 -5,4 -6,2 -6,1 -7,-1 -5,-2 -5,-4 -4,-5 0,-83 42,0 0,83z" />
<path style="fill:#b2b2b2" d="M174,366 l-4,3 -4,1 -4,2 -4,0 -4,0 -5,-2 -4,-1 -3,-3 0,-89 32,0 0,89z" />
<path style="fill:#ccc" d="M169,370 l-3,1 -3,0 -3,1 -2,0 -3,0 -3,-1 -3,0 -2,-1 0,-93 22,0 0,93z" />
<path style="fill:#e5e5e5" d="M165,371 l-2,1 -2,0 -1,0 -2,0 -2,0 -2,0 -2,0 -2,-1 0,-94 15,0 0,94z" />
<path style="fill:#fff" d="M161,372 l-1,0 -1,0 -1,0 -1,0 -1,0 -1,0 0,-95 6,0 0,95z" />
<path style="fill:none;stroke:#000;stroke-width:2" d="M134,277 l0,71 2,9 5,8 8,5 9,2 9,-2 8,-5 5,-8 2,-9 0,-71" />
<path style="fill:#999;stroke:#000;stroke-width:2" d="M260,275 l20,-20 0,-204 -20,-21 -204,0 -21,21 0,204 21,20 204,0z" />
<path style="fill:#7f7f7f" d="M45,40 l-10,11 0,204 21,20 204,0 10,-10 -18,-18 -8,8 -173,0 -15,-16 0,-173 7,-8 -18,-18z" />
<path style="fill:#ccc" d="M270,265 l10,-10 0,-204 -20,-21 -204,0 -11,10 18,18 8,-7 173,0 16,15 0,173 -8,8 18,18z" />
<path style="fill:none;stroke:#000;stroke-width:2" d="M260,275 l20,-20 0,-204 -20,-21 -204,0 -21,21 0,204 21,20 204,0" />
<path style="fill:#999;stroke:#000;stroke-width:2" d="M17,173 l281,0 3,-2 0,-36 -3,-3 -281,0 -2,3 0,36 2,2z" />
<path style="fill:#ccc" d="M298,173 l3,-2 0,-36 -3,-3 -281,0 3,5 276,0 0,31 2,5z" />
<path style="fill:#7f7f7f" d="M17,132 l-2,3 0,36 2,2 281,0 -2,-5 -276,0 0,-31 -3,-5z" />
<path style="fill:none;stroke:#000;stroke-width:2" d="M17,173 l281,0 3,-2 0,-36 -3,-3 -281,0 -2,3 0,36 2,2" />
<path style="fill:#7f7f7f;stroke:#000;stroke-width:2" d="M209,30 l3,-15 24,0 3,15 -30,0z" />
<path style="fill:#b2b2b2;stroke:#000;stroke-width:2" d="M214,30 l2,-15 20,0 3,15 -25,0z" />
<path style="fill:#e5e5e5;stroke:#000;stroke-width:2" d="M232,15 l4,0 3,15 -5,0 -2,-15z" />
<path style="fill:#7f7f7f;stroke:#000;stroke-width:2" d="M280,250 l16,0 0,-62 -16,0 0,62z" />
<path style="fill:#999;stroke:#000;stroke-width:2" d="M296,209 l86,0 16,5 5,15 0,120 -21,0 0,-115 -5,-5 -81,0 0,-20z" />
<path style="fill:#ccc" d="M392,349 l11,0 0,-120 -5,-15 -16,-5 -86,0 0,10 86,0 8,3 2,7 0,120z" />
<path style="fill:none;stroke:#000;stroke-width:2" d="M296,209 l86,0 16,5 5,15 0,120 -21,0 0,-115 -5,-5 -81,0 0,-20" />

</svg>
