<?xml version="1.0" encoding="utf-8" standalone="no"?><!DOCTYPE svg PUBLIC "-//W3C//DTD SVG 1.1//EN" "http://www.w3.org/Graphics/SVG/1.1/DTD/svg11-flat-20030114.dtd"><svg width="618" height="999" version="1.1" xmlns="http://www.w3.org/2000/svg" xmlns:xlink="http://www.w3.org/1999/xlink">

<path style="fill:#ccc;stroke:#000;stroke-width:2" d="M314,320 l-33,0 0,177 33,0 0,-177z" />
<path style="fill:#fff" d="M303,320 l-11,0 0,177 11,0 0,-177z" />
<path style="fill:#999;stroke:#000;stroke-width:2" d="M492,573 l-22,0 0,11 22,0 0,-11z" />
<path style="fill:#999;stroke:#000;stroke-width:2" d="M436,347 l92,0 0,65 -92,0 0,-65z" />
<path style="fill:#999;stroke:#000;stroke-width:2" d="M331,286 l-67,0 0,34 67,0 0,-34z" />
<path style="fill:#999;stroke:#000;stroke-width:2" d="M387,347 l-17,0 0,84 17,0 0,-84z" />
<path style="fill:#4c4c4c;stroke:#000;stroke-width:2" d="M392,409 l0,-6 -39,0 0,-100 -114,0 0,6 108,0 0,100 45,0z" />
<path style="fill:#4c4c4c;stroke:#000;stroke-width:2" d="M331,534 l-67,0 0,11 67,0 0,-11z" />
<path style="fill:#4c4c4c;stroke:#000;stroke-width:2" d="M436,359 l-72,0 0,11 72,0 0,-11z" />
<path style="fill:#ccc;stroke:#000;stroke-width:2" d="M228,253 l-45,0 0,94 45,0 0,-94z" />
<path style="fill:#666;stroke:#000;stroke-width:2" d="M387,926 l-181,0 0,44 181,0 0,-44z" />
<path style="fill:#666;stroke:#000;stroke-width:2" d="M94,837 l0,78 45,0 0,-78 -45,0z" />
<path style="fill:#666;stroke:#000;stroke-width:2" d="M453,837 l0,78 45,0 0,-78 -45,0z" />
<path style="fill:#666;stroke:#000;stroke-width:2" d="M387,600 l-181,0 0,45 181,0 0,-45z" />
<path style="fill:#666;stroke:#000;stroke-width:2" d="M353,545 l-114,0 0,33 114,0 0,-33z" />
<path style="fill:#999;stroke:#000;stroke-width:2" d="M320,545 l-56,0 0,33 56,0 0,-33z" />
<path style="fill:#999;stroke:#000;stroke-width:2" d="M353,600 l-89,0 0,45 89,0 0,-45z" />
<path style="fill:#999;stroke:#000;stroke-width:2" d="M94,748 l0,89 45,0 0,-89 -45,0z" />
<path style="fill:#999;stroke:#000;stroke-width:2" d="M453,748 l0,89 45,0 0,-89 -45,0z" />
<path style="fill:#999;stroke:#000;stroke-width:2" d="M337,926 l-92,0 0,44 92,0 0,-44z" />
<path style="fill:#00f;stroke:#000;stroke-width:2" d="M431,286 l-11,-23 -24,-17 -15,-7 -32,3 -30,0 -10,0 0,33 72,0 22,17 0,264 -27,17 -170,0 -17,-28 0,-253 22,-17 75,0 0,-33 0,-2 -11,-1 -6,-1 -6,0 -34,1 -18,0 -23,12 -21,20 -4,7 -2,8 0,12 0,269 14,25 22,8 9,0 11,0 170,0 30,-8 13,-17 1,-8 0,-12 0,-269z" />
<path style="fill:#b2b2b2;stroke:#000;stroke-width:2" d="M320,501 l-48,0 0,33 48,0 0,-33z" />
<path style="fill:#0000e5;stroke:#000;stroke-width:2" d="M567,139 l-539,0 0,22 539,0 0,-22z" />
<path style="fill:#00f;stroke:#000;stroke-width:2" d="M72,94 l0,13 0,7 0,2 0,10 0,13 1,0 446,0 1,0 0,-13 0,-32 -18,-21 -4,-1 -13,0 -391,0 -21,18 -1,4z" />
<path style="fill:#00c;stroke:#000;stroke-width:2" d="M520,231 l0,-13 0,-7 0,-2 0,-10 0,-13 -1,0 -446,0 -1,0 0,13 0,32 18,21 4,1 13,0 391,0 22,-18 0,-4z" />
<path style="fill:#00c;stroke:#000;stroke-width:2" d="M567,161 l-539,0 0,25 539,0 0,-25z" />
<path style="fill:#4c4cff;stroke:#000;stroke-width:2" d="M556,139 l-22,0 0,-11 22,0 0,11z" />
<path style="fill:#4c4cff;stroke:#000;stroke-width:2" d="M61,139 l-22,0 0,-11 22,0 0,11z" />
<path style="fill:#4c4cff;stroke:#000;stroke-width:2" d="M309,139 l-23,0 0,-11 23,0 0,11z" />
<path style="fill:#4c4cff;stroke:#000;stroke-width:2" d="M476,139 l-23,0 0,-11 23,0 0,11z" />
<path style="fill:#4c4cff;stroke:#000;stroke-width:2" d="M398,139 l-23,0 0,-11 23,0 0,11z" />
<path style="fill:#4c4cff;stroke:#000;stroke-width:2" d="M217,139 l-22,0 0,-11 22,0 0,11z" />
<path style="fill:#4c4cff;stroke:#000;stroke-width:2" d="M139,139 l-22,0 0,-11 22,0 0,11z" />
<path style="fill:#00c;stroke:#000;stroke-width:2" d="M556,197 l-25,0 0,-11 25,0 0,11z" />
<path style="fill:#00c;stroke:#000;stroke-width:2" d="M61,197 l-25,0 0,-11 25,0 0,11z" />
<path style="fill:#00c;stroke:#000;stroke-width:2" d="M309,197 l-25,0 0,-11 25,0 0,11z" />
<path style="fill:#00c;stroke:#000;stroke-width:2" d="M478,197 l-25,0 0,-11 25,0 0,11z" />
<path style="fill:#00c;stroke:#000;stroke-width:2" d="M398,197 l-25,0 0,-11 25,0 0,11z" />
<path style="fill:#00c;stroke:#000;stroke-width:2" d="M217,197 l-22,0 0,-11 22,0 0,11z" />
<path style="fill:#00c;stroke:#000;stroke-width:2" d="M139,197 l-22,0 0,-11 22,0 0,11z" />
<path style="fill:#00c;stroke:#000;stroke-width:2" d="M342,253 l-89,0 0,33 89,0 0,-33z" />
<path style="fill:#999" d="M387,645 l-181,0 0,33 181,0 0,-33z" />
<path style="fill:#b2b2b2" d="M370,645 l-147,0 0,33 147,0 0,-33z" />
<path style="fill:#ccc" d="M347,645 l-102,0 0,33 102,0 0,-33z" />
<path style="fill:#e5e5e5" d="M325,645 l-55,0 0,33 55,0 0,-33z" />
<path style="fill:#fff" d="M303,645 l-11,0 0,33 11,0 0,-33z" />
<path style="fill:none;stroke:#000;stroke-width:2" d="M387,645 l-181,0 0,33 181,0 0,-33" />
<path style="fill:#b2b2b2;stroke:#000;stroke-width:2" d="M528,484 l0,17 -11,0 0,-6 -69,0 0,6 -12,0 0,-17 92,0z" />
<path style="fill:#b2b2b2;stroke:#000;stroke-width:2" d="M517,495 l-69,0 0,78 69,0 0,-78z" />
<path style="fill:#b2b2b2;stroke:#000;stroke-width:2" d="M387,678 l0,23 11,11 44,0 11,-11 0,203 -11,-11 -44,0 -11,11 0,22 -181,0 0,-22 -11,-11 -45,0 -11,11 0,-203 11,11 45,0 11,-11 0,-23 181,0z" />
<path style="fill:#ccc;stroke:#000;stroke-width:2" d="M94,689 l0,59 45,0 0,-59 -45,0z" />
<path style="fill:#ccc;stroke:#000;stroke-width:2" d="M453,689 l0,59 45,0 0,-59 -45,0z" />
<path style="fill:#999" d="M448,837 l-61,0 0,50 61,0 0,-50z" />
<path style="fill:#999" d="M381,893 l-170,0 0,27 170,0 0,-27z" />
<path style="fill:#999" d="M217,881 l3,-12 2,-9 1,-10 1,-10 1,-10 0,-11 0,-10 0,-17 0,-11 -1,-11 -1,-10 -1,-10 -1,-9 -2,-9 -1,-5 -1,-4 4,1 8,2 9,2 10,2 10,1 11,1 12,1 11,1 11,0 11,-1 10,-1 11,-1 10,-1 9,-2 9,-2 9,-2 3,-1 -1,4 -2,9 -1,9 -1,10 -1,10 -1,11 -1,11 0,11 0,16 0,11 1,10 1,10 1,10 2,10 1,8 1,4 1,4 -3,-1 -9,-2 -9,-1 -9,-1 -10,-2 -11,0 -10,-1 -11,0 -17,0 -11,0 -11,1 -11,1 -10,1 -9,1 -9,2 -8,2z" />
<path style="fill:#999" d="M206,837 l-61,0 0,50 61,0 0,-50z" />
<path style="fill:#666;stroke:#000;stroke-width:2" d="M206,303 l-8,3 -3,8 3,8 8,3 8,-3 3,-8 -3,-8 -8,-3z" />
<path style="fill:#666;stroke:#000;stroke-width:2" d="M436,412 l92,0 0,72 -92,0 0,-72z" />
<path style="fill:#ffedcc;stroke:#000;stroke-width:2" d="M476,347 l20,-32 15,-23 16,-23 15,-23 18,-30 7,-30 0,-96 -11,-23 -28,-10 -30,-1 -139,0 -39,0 0,-23 4,0 5,0 5,0 169,0 28,2 29,8 23,18 6,16 0,6 0,7 0,107 -11,32 -15,29 -17,27 -19,26 -18,27 -6,9 -3,0 -24,0z" />
<path style="fill:#c93;stroke:#000;stroke-width:2" d="M275,72 l0,-44 45,0 0,33 -11,0 0,11 -34,0z" />
<path style="fill:#c93;stroke:#000;stroke-width:2" d="M331,28 l28,0 0,33 -28,0 0,-33z" />
<path style="fill:none;stroke:#000;stroke-width:2" d="M309,61 l-11,-11" />
<path style="fill:none;stroke:#000;stroke-width:2" d="M206,303 l0,22" />

</svg>
