<?xml version="1.0" encoding="utf-8" standalone="no"?><!DOCTYPE svg PUBLIC "-//W3C//DTD SVG 1.1//EN" "http://www.w3.org/Graphics/SVG/1.1/DTD/svg11-flat-20030114.dtd"><svg width="999" height="999" version="1.1" xmlns="http://www.w3.org/2000/svg" xmlns:xlink="http://www.w3.org/1999/xlink">

<path style="fill:#7f0000" d="M420,499 l0,-314 158,0 0,314 -158,0z" />
<path style="fill:#7f0000" d="M342,28 l0,157 314,0 0,-157 -314,0z" />
<path style="fill:#900" d="M427,499 l0,-314 144,0 0,314 -144,0z" />
<path style="fill:#900" d="M355,28 l0,157 288,0 0,-157 -288,0z" />
<path style="fill:#b20000" d="M440,499 l0,-314 118,0 0,314 -118,0z" />
<path style="fill:#b20000" d="M381,28 l0,157 236,0 0,-157 -236,0z" />
<path style="fill:#c00" d="M447,499 l0,-314 104,0 0,314 -104,0z" />
<path style="fill:#c00" d="M394,28 l0,157 210,0 0,-157 -210,0z" />
<path style="fill:#e50000" d="M457,499 l0,-314 85,0 0,314 -85,0z" />
<path style="fill:#e50000" d="M414,28 l0,157 170,0 0,-157 -170,0z" />
<path style="fill:#f00" d="M480,499 l0,-314 39,0 0,314 -39,0z" />
<path style="fill:#f00" d="M460,28 l0,157 78,0 0,-157 -78,0z" />
<path style="fill:#7f7f7f" d="M970,617 l-942,0 0,235 942,0 0,-235z" />
<path style="fill:#999" d="M970,627 l-942,0 0,216 942,0 0,-216z" />
<path style="fill:#a6a6a6" d="M970,646 l-942,0 0,177 942,0 0,-177z" />
<path style="fill:#b2b2b2" d="M970,656 l-942,0 0,157 942,0 0,-157z" />
<path style="fill:#ccc" d="M970,671 l-942,0 0,127 942,0 0,-127z" />
<path style="fill:#e5e5e5" d="M970,705 l-942,0 0,59 942,0 0,-59z" />
<path style="fill:none;stroke:#000;stroke-width:2" d="M970,617 l-942,0 0,235 942,0 0,-235" />
<path style="fill:#7f0000" d="M656,499 l-314,0 0,471 314,0 0,-471z" />
<path style="fill:#900" d="M656,518 l-314,0 0,433 314,0 0,-433z" />
<path style="fill:#b20000" d="M656,558 l-314,0 0,353 314,0 0,-353z" />
<path style="fill:#c00" d="M656,578 l-314,0 0,314 314,0 0,-314z" />
<path style="fill:#e50000" d="M656,607 l-314,0 0,255 314,0 0,-255z" />
<path style="fill:#f00" d="M656,676 l-314,0 0,118 314,0 0,-118z" />
<path style="fill:#7f7f7f" d="M146,538 l-79,0 0,393 79,0 0,-393z" />
<path style="fill:#7f7f7f" d="M283,518 l-79,0 0,433 79,0 0,-433z" />
<path style="fill:#7f7f7f" d="M793,518 l-78,0 0,433 78,0 0,-433z" />
<path style="fill:#7f7f7f" d="M931,538 l-79,0 0,393 79,0 0,-393z" />
<path style="fill:#999" d="M146,555 l-79,0 0,360 79,0 0,-360z" />
<path style="fill:#999" d="M283,536 l-79,0 0,397 79,0 0,-397z" />
<path style="fill:#999" d="M793,536 l-78,0 0,397 78,0 0,-397z" />
<path style="fill:#999" d="M931,555 l-79,0 0,360 79,0 0,-360z" />
<path style="fill:#a6a6a6" d="M146,587 l-79,0 0,295 79,0 0,-295z" />
<path style="fill:#a6a6a6" d="M283,573 l-79,0 0,324 79,0 0,-324z" />
<path style="fill:#a6a6a6" d="M793,572 l-78,0 0,325 78,0 0,-325z" />
<path style="fill:#a6a6a6" d="M931,587 l-79,0 0,295 79,0 0,-295z" />
<path style="fill:#bfbfbf" d="M146,604 l-79,0 0,262 79,0 0,-262z" />
<path style="fill:#bfbfbf" d="M283,590 l-79,0 0,289 79,0 0,-289z" />
<path style="fill:#bfbfbf" d="M793,590 l-78,0 0,289 78,0 0,-289z" />
<path style="fill:#bfbfbf" d="M931,604 l-79,0 0,262 79,0 0,-262z" />
<path style="fill:#d9d9d9" d="M146,628 l-79,0 0,213 79,0 0,-213z" />
<path style="fill:#d9d9d9" d="M283,617 l-79,0 0,235 79,0 0,-235z" />
<path style="fill:#d9d9d9" d="M793,618 l-78,0 0,233 78,0 0,-233z" />
<path style="fill:#d9d9d9" d="M931,628 l-79,0 0,213 79,0 0,-213z" />
<path style="fill:#fff" d="M146,685 l-79,0 0,99 79,0 0,-99z" />
<path style="fill:#fff" d="M283,681 l-79,0 0,108 79,0 0,-108z" />
<path style="fill:#fff" d="M793,680 l-78,0 0,109 78,0 0,-109z" />
<path style="fill:#fff" d="M931,686 l-79,0 0,98 79,0 0,-98z" />
<path style="fill:none;stroke:#000;stroke-width:2" d="M656,499 l-314,0 0,471 314,0 0,-471" />
<path style="fill:none;stroke:#000;stroke-width:2" d="M283,518 l-79,0 0,433 79,0 0,-433" />
<path style="fill:none;stroke:#000;stroke-width:2" d="M146,538 l-79,0 0,393 79,0 0,-393" />
<path style="fill:none;stroke:#000;stroke-width:2" d="M793,518 l-78,0 0,433 78,0 0,-433" />
<path style="fill:none;stroke:#000;stroke-width:2" d="M931,538 l-79,0 0,393 79,0 0,-393" />
<path style="fill:none;stroke:#000;stroke-width:2" d="M656,28 l-314,0 0,157 314,0 0,-157" />
<path style="fill:none;stroke:#000;stroke-width:2" d="M578,499 l-158,0 0,-314 158,0 0,314" />
<path style="fill:#7f7f7f" d="M361,303 l0,78 276,0 0,-78 -276,0z" />
<path style="fill:#999" d="M373,303 l0,78 252,0 0,-78 -252,0z" />
<path style="fill:#a6a6a6" d="M396,303 l0,78 206,0 0,-78 -206,0z" />
<path style="fill:#bfbfbf" d="M407,303 l0,78 184,0 0,-78 -184,0z" />
<path style="fill:#d9d9d9" d="M425,303 l0,78 148,0 0,-78 -148,0z" />
<path style="fill:#fff" d="M465,303 l0,78 68,0 0,-78 -68,0z" />
<path style="fill:none;stroke:#000;stroke-width:2" d="M637,303 l-276,0 0,78 276,0 0,-78" />
<path style="fill:#7f0000;stroke:#000;stroke-width:2" d="M636,381 l-58,39 -158,0 -59,-39 275,0z" />

</svg>
