<?xml version="1.0" encoding="utf-8" standalone="no"?><!DOCTYPE svg PUBLIC "-//W3C//DTD SVG 1.1//EN" "http://www.w3.org/Graphics/SVG/1.1/DTD/svg11-flat-20030114.dtd"><svg width="388" height="999" version="1.1" xmlns="http://www.w3.org/2000/svg" xmlns:xlink="http://www.w3.org/1999/xlink">

<path style="fill:#fff091;stroke:#000;stroke-width:2" d="M205,422 l-21,0 0,145 21,0 0,-145z" />
<path style="fill:#fff" d="M197,427 l-7,0 0,132 7,0 0,-132z" />
<path style="fill:#00c;stroke:#000;stroke-width:2" d="M248,593 l-109,0 0,25 109,0 0,-25z" />
<path style="fill:#4c4c4c;stroke:#000;stroke-width:2" d="M267,725 l-145,0 0,8 145,0 0,-8z" />
<path style="fill:#00c;stroke:#000;stroke-width:2" d="M235,373 l-83,0 0,7 83,0 0,-7z" />
<path style="fill:#00c;stroke:#000;stroke-width:2" d="M214,380 l-41,0 0,42 41,0 0,-42z" />
<path style="fill:#00c;stroke:#000;stroke-width:2" d="M214,463 l-41,0 0,42 41,0 0,-42z" />
<path style="fill:#00c;stroke:#000;stroke-width:2" d="M228,505 l-68,0 0,5 68,0 0,-5z" />
<path style="fill:#00c;stroke:#000;stroke-width:2" d="M235,567 l-83,0 0,21 83,0 0,-21z" />
<path style="fill:#00f;stroke:#000;stroke-width:2" d="M277,376 l-1,-4 -21,-20 -4,-2 -5,-2 0,3 0,18 2,0 11,9 1,31 0,201 -2,4 -30,4 -92,0 -7,-4 -1,-4 0,-230 0,-2 13,-9 2,0 0,-21 -25,15 -7,9 0,4 0,16 0,222 17,20 5,0 6,1 7,0 102,0 24,-8 4,-8 1,-5 0,-15 0,-223z" />
<path style="fill:#0000e5;stroke:#000;stroke-width:2" d="M360,69 l-332,0 0,13 332,0 0,-13z" />
<path style="fill:#00f;stroke:#000;stroke-width:2" d="M277,160 l-21,13 -1,12 0,11 0,12 -1,12 0,11 0,12 -1,12 0,11 -1,12 0,11 -1,12 0,12 -1,11 0,12 -1,12 -1,12 -2,9 -1,3 -2,0 0,1 0,0 -99,0 0,-1 -2,-1 -3,-11 -8,-187 -20,-13 0,-21 166,0 0,21z" />
<path style="fill:#00f;stroke:#000;stroke-width:2" d="M56,41 l0,8 0,4 0,2 0,6 0,8 1,0 273,0 1,0 0,-8 0,-20 -4,-9 -6,-4 -3,0 -8,0 -241,0 -9,4 -4,9z" />
<path style="fill:#00c;stroke:#000;stroke-width:2" d="M256,173 l21,-13 -166,0 20,13 125,0z" />
<path style="fill:#00c;stroke:#000;stroke-width:2" d="M360,82 l-332,0 0,16 332,0 0,-16z" />
<path style="fill:#00c;stroke:#000;stroke-width:2" d="M331,124 l0,-8 0,-4 0,-1 0,-6 0,-7 -1,0 -273,0 -1,0 0,7 0,19 4,10 7,5 2,0 8,0 241,0 9,-5 4,-7 0,-3z" />
<path style="fill:#4c4cff;stroke:#000;stroke-width:2" d="M173,305 l41,0 10,-5 3,-8 1,-2 -4,-10 -10,-3 -41,0 -10,3 -3,10 3,10 10,5z" />
<circle style="fill:#00007f;stroke:#000;stroke-width:2" cx="173" cy="290" r="4" />
<circle style="fill:#00007f;stroke:#000;stroke-width:2" cx="214" cy="290" r="3" />
<path style="fill:#00007f;stroke:#000;stroke-width:2" d="M228,588 l-68,0 0,5 68,0 0,-5z" />
<path style="fill:#333;stroke:#000;stroke-width:2" d="M207,510 l-27,0 0,15 27,0 0,-15z" />
<path style="fill:#e5e5e5;stroke:#000;stroke-width:2" d="M277,733 l-166,0 0,124 166,0 0,-124z" />
<path style="fill:#4c4cff;stroke:#000;stroke-width:2" d="M352,69 l-13,0 0,-7 13,0 0,7z" />
<path style="fill:#4c4cff;stroke:#000;stroke-width:2" d="M49,69 l-14,0 0,-7 14,0 0,7z" />
<path style="fill:#4c4cff;stroke:#000;stroke-width:2" d="M201,69 l-15,0 0,-7 15,0 0,7z" />
<path style="fill:#4c4cff;stroke:#000;stroke-width:2" d="M305,69 l-15,0 0,-7 15,0 0,7z" />
<path style="fill:#4c4cff;stroke:#000;stroke-width:2" d="M256,69 l-13,0 0,-7 13,0 0,7z" />
<path style="fill:#4c4cff;stroke:#000;stroke-width:2" d="M147,69 l-16,0 0,-7 16,0 0,7z" />
<path style="fill:#4c4cff;stroke:#000;stroke-width:2" d="M98,69 l-16,0 0,-7 16,0 0,7z" />
<path style="fill:#00c;stroke:#000;stroke-width:2" d="M352,103 l-13,0 0,-5 13,0 0,5z" />
<path style="fill:#00c;stroke:#000;stroke-width:2" d="M49,103 l-14,0 0,-5 14,0 0,5z" />
<path style="fill:#00c;stroke:#000;stroke-width:2" d="M201,103 l-15,0 0,-5 15,0 0,5z" />
<path style="fill:#00c;stroke:#000;stroke-width:2" d="M305,103 l-15,0 0,-5 15,0 0,5z" />
<path style="fill:#00c;stroke:#000;stroke-width:2" d="M256,103 l-13,0 0,-5 13,0 0,5z" />
<path style="fill:#00c;stroke:#000;stroke-width:2" d="M147,103 l-16,0 0,-5 16,0 0,5z" />
<path style="fill:#00c;stroke:#000;stroke-width:2" d="M98,103 l-16,0 0,-5 16,0 0,5z" />
<path style="fill:#b2b2b2;stroke:#000;stroke-width:2" d="M248,870 l-109,0 0,100 109,0 0,-100z" />
<path style="fill:#666;stroke:#000;stroke-width:2" d="M218,735 l-49,0 0,20 49,0 0,-20z" />
<path style="fill:#b2b2b2;stroke:#000;stroke-width:2" d="M277,925 l-166,0 0,28 166,0 0,-28z" />
<path style="fill:#b2b2b2" d="M277,704 l-166,0 0,21 166,0 0,-21z" />
<path style="fill:#b2b2b2" d="M277,836 l54,0 15,-15 0,-54 -15,-14 -54,0 0,83z" />
<path style="fill:#b2b2b2" d="M263,857 l-139,0 0,13 139,0 0,-13z" />
<path style="fill:#b2b2b2" d="M248,635 l-109,0 0,69 109,0 0,-69z" />
<path style="fill:#ccc" d="M256,925 l-125,0 0,28 125,0 0,-28z" />
<path style="fill:#ccc" d="M256,704 l-125,0 0,21 125,0 0,-21z" />
<path style="fill:#ccc" d="M277,825 l54,0 15,-9 0,-44 -15,-9 -54,0 0,62z" />
<path style="fill:#ccc" d="M246,857 l-103,0 0,13 103,0 0,-13z" />
<path style="fill:#ccc" d="M235,635 l-83,0 0,69 83,0 0,-69z" />
<path style="fill:#e5e5e5" d="M228,925 l-68,0 0,28 68,0 0,-28z" />
<path style="fill:#e5e5e5" d="M228,704 l-68,0 0,21 68,0 0,-21z" />
<path style="fill:#e5e5e5" d="M277,812 l54,0 15,-6 0,-24 -15,-6 -54,0 0,36z" />
<path style="fill:#e5e5e5" d="M222,857 l-57,0 0,13 57,0 0,-13z" />
<path style="fill:#e5e5e5" d="M216,635 l-45,0 0,69 45,0 0,-69z" />
<path style="fill:#fff" d="M201,925 l-15,0 0,28 15,0 0,-28z" />
<path style="fill:#fff" d="M277,801 l54,0 15,-2 0,-10 -15,-2 -54,0 0,14z" />
<path style="fill:#fff" d="M201,704 l-15,0 0,21 15,0 0,-21z" />
<path style="fill:#fff" d="M201,857 l-15,0 0,13 15,0 0,-13z" />
<path style="fill:#fff" d="M199,635 l-11,0 0,69 11,0 0,-69z" />
<path style="fill:none;stroke:#000;stroke-width:2" d="M331,753 l0,83" />
<path style="fill:none;stroke:#000;stroke-width:2" d="M277,836 l54,0 15,-15 0,-54 -15,-14 -54,0 0,83" />
<path style="fill:none;stroke:#000;stroke-width:2" d="M277,704 l-166,0 0,21 166,0 0,-21" />
<path style="fill:none;stroke:#000;stroke-width:2" d="M263,857 l-139,0 0,13 139,0 0,-13" />
<path style="fill:none;stroke:#000;stroke-width:2" d="M248,635 l-109,0 0,69 109,0 0,-69" />
<path style="fill:#ccc;stroke:#000;stroke-width:2" d="M243,912 l-21,0 0,13 21,0 0,-13z" />
<path style="fill:#ccc;stroke:#000;stroke-width:2" d="M165,912 l-18,0 0,13 18,0 0,-13z" />
<path style="fill:#ccc;stroke:#000;stroke-width:2" d="M205,912 l-21,0 0,13 21,0 0,-13z" />
<path style="fill:#ccc;stroke:#000;stroke-width:2" d="M135,912 l-21,0 0,13 21,0 0,-13z" />
<path style="fill:#ccc;stroke:#000;stroke-width:2" d="M273,912 l-21,0 0,13 21,0 0,-13z" />
<path style="fill:#ccc;stroke:#000;stroke-width:2" d="M243,691 l-21,0 0,13 21,0 0,-13z" />
<path style="fill:#ccc;stroke:#000;stroke-width:2" d="M165,691 l-18,0 0,13 18,0 0,-13z" />
<path style="fill:#ccc;stroke:#000;stroke-width:2" d="M205,691 l-21,0 0,13 21,0 0,-13z" />
<path style="fill:#ccc;stroke:#000;stroke-width:2" d="M135,691 l-21,0 0,13 21,0 0,-13z" />
<path style="fill:#ccc;stroke:#000;stroke-width:2" d="M273,691 l-21,0 0,13 21,0 0,-13z" />

</svg>
