<?xml version="1.0" encoding="utf-8" standalone="no"?><!DOCTYPE svg PUBLIC "-//W3C//DTD SVG 1.1//EN" "http://www.w3.org/Graphics/SVG/1.1/DTD/svg11-flat-20030114.dtd"><svg width="998" height="787" version="1.1" xmlns="http://www.w3.org/2000/svg" xmlns:xlink="http://www.w3.org/1999/xlink">

<path style="fill:#7f7f7f" d="M658,220 l0,539 267,0 0,-539 -267,0z" />
<path style="fill:#999" d="M673,220 l0,539 237,0 0,-539 -237,0z" />
<path style="fill:#b2b2b2" d="M703,220 l0,539 179,0 0,-539 -179,0z" />
<path style="fill:#ccc" d="M729,220 l0,539 125,0 0,-539 -125,0z" />
<path style="fill:#e5e5e5" d="M752,220 l0,539 79,0 0,-539 -79,0z" />
<path style="fill:#fff" d="M774,220 l0,539 34,0 0,-539 -34,0z" />
<path style="fill:none;stroke:#000;stroke-width:2" d="M925,220 l0,539" />
<path style="fill:none;stroke:#000;stroke-width:2" d="M658,759 l0,-539" />
<path style="fill:#7f7f7f" d="M612,265 l0,91 359,0 0,-91 -359,0z" />
<path style="fill:#999" d="M633,265 l0,91 317,0 0,-91 -317,0z" />
<path style="fill:#b2b2b2" d="M673,265 l0,91 239,0 0,-91 -239,0z" />
<path style="fill:#ccc" d="M708,265 l0,91 167,0 0,-91 -167,0z" />
<path style="fill:#e5e5e5" d="M738,265 l0,91 106,0 0,-91 -106,0z" />
<path style="fill:#fff" d="M769,265 l0,91 43,0 0,-91 -43,0z" />
<path style="fill:none;stroke:#000;stroke-width:2" d="M612,265 l0,91 359,0 0,-91 -359,0" />
<path style="fill:#7f7f7f" d="M612,626 l0,88 359,0 0,-88 -359,0z" />
<path style="fill:#999" d="M633,626 l0,88 317,0 0,-88 -317,0z" />
<path style="fill:#b2b2b2" d="M673,626 l0,88 239,0 0,-88 -239,0z" />
<path style="fill:#ccc" d="M708,626 l0,88 167,0 0,-88 -167,0z" />
<path style="fill:#e5e5e5" d="M738,626 l0,88 106,0 0,-88 -106,0z" />
<path style="fill:#fff" d="M769,626 l0,88 43,0 0,-88 -43,0z" />
<path style="fill:none;stroke:#000;stroke-width:2" d="M612,626 l0,88 359,0 0,-88 -359,0" />
<path style="fill:#7f7f7f" d="M656,444 l-135,0 0,91 135,0 17,-4 15,-10 9,-14 4,-18 -4,-16 -9,-16 -15,-9 -17,-4z" />
<path style="fill:#999" d="M678,450 l10,7 7,10 4,11 2,11 -2,14 -4,9 -7,9 -10,8 -157,0 0,-79 157,0z" />
<path style="fill:#b2b2b2" d="M690,459 l5,8 2,8 4,7 0,7 0,8 -4,10 -2,7 -5,6 -169,0 0,-61 169,0z" />
<path style="fill:#ccc" d="M697,469 l2,6 0,5 2,6 0,3 0,6 -2,6 0,6 -2,3 -176,0 0,-41 176,0z" />
<path style="fill:#e5e5e5" d="M699,476 l2,4 0,4 0,2 0,3 0,4 0,4 0,4 -2,4 -178,0 0,-29 178,0z" />
<path style="fill:#fff" d="M701,484 l0,2 0,2 0,1 0,2 0,2 0,2 -180,0 0,-11 180,0z" />
<path style="fill:none;stroke:#000;stroke-width:2" d="M521,535 l135,0 17,-4 15,-10 9,-14 4,-18 -4,-16 -9,-16 -15,-9 -17,-4 -135,0" />
<path style="fill:#999;stroke:#000;stroke-width:2" d="M518,297 l-38,-38 -385,0 -40,38 0,385 40,40 385,0 38,-40 0,-385z" />
<path style="fill:#7f7f7f" d="M75,703 l20,19 385,0 38,-40 0,-385 -19,-19 -34,34 15,15 0,326 -30,29 -327,0 -15,-13 -33,34z" />
<path style="fill:#ccc" d="M499,278 l-19,-19 -385,0 -40,38 0,385 20,21 33,-34 -13,-16 0,-326 28,-30 327,0 15,15 34,-34z" />
<path style="fill:none;stroke:#000;stroke-width:2" d="M518,297 l-38,-38 -385,0 -40,38 0,385 40,40 385,0 38,-40 0,-385" />
<path style="fill:#999;stroke:#000;stroke-width:2" d="M325,756 l0,-530 -3,-6 -68,0 -6,6 0,530 6,3 68,0 3,-3z" />
<path style="fill:#ccc" d="M325,226 l-3,-6 -68,0 -6,6 0,530 10,-6 0,-521 58,0 9,-3z" />
<path style="fill:#7f7f7f" d="M248,756 l6,3 68,0 3,-3 0,-530 -9,3 0,521 -58,0 -10,6z" />
<path style="fill:none;stroke:#000;stroke-width:2" d="M325,756 l0,-530 -3,-6 -68,0 -6,6 0,530 6,3 68,0 3,-3" />
<path style="fill:#7f7f7f;stroke:#000;stroke-width:2" d="M55,393 l-28,-5 0,-46 28,-5 0,56z" />
<path style="fill:#b2b2b2;stroke:#000;stroke-width:2" d="M55,384 l-28,-4 0,-38 28,-5 0,47z" />
<path style="fill:#e5e5e5;stroke:#000;stroke-width:2" d="M27,350 l0,-8 28,-5 0,9 -28,4z" />
<path style="fill:#7f7f7f;stroke:#000;stroke-width:2" d="M471,259 l0,-30 -117,0 0,30 117,0z" />
<path style="fill:#999;stroke:#000;stroke-width:2" d="M393,229 l0,-162 10,-30 28,-10 227,0 0,40 -217,0 -10,9 0,153 -38,0z" />
<path style="fill:#ccc" d="M658,48 l0,-21 -227,0 -28,10 -10,30 0,162 19,0 0,-162 6,-15 13,-4 227,0z" />
<path style="fill:none;stroke:#000;stroke-width:2" d="M393,229 l0,-162 10,-30 28,-10 227,0 0,40 -217,0 -10,9 0,153 -38,0" />

</svg>
