<?xml version="1.0" encoding="utf-8" standalone="no"?><!DOCTYPE svg PUBLIC "-//W3C//DTD SVG 1.1//EN" "http://www.w3.org/Graphics/SVG/1.1/DTD/svg11-flat-20030114.dtd"><svg width="999" height="741" version="1.1" xmlns="http://www.w3.org/2000/svg" xmlns:xlink="http://www.w3.org/1999/xlink">

<path style="fill:#f00;stroke:#000;stroke-width:2" d="M488,49 l-460,0 0,300 460,0 0,-300z" />
<path style="fill:#fff;stroke:#fff;stroke-width:2" d="M477,60 l-439,0 0,43 439,0 0,-43z" />
<path style="fill:#000;stroke:#000;stroke-width:2" d="M477,317 l-439,0 0,21 439,0 0,-21z" />
<path style="fill:#f00;stroke:#000;stroke-width:2" d="M939,392 l-22,0 0,32 22,0 0,-32z" />
<path style="fill:#f00;stroke:#000;stroke-width:2" d="M917,49 l11,0 0,311 -11,0 0,-311z" />
<path style="fill:#f00;stroke:#000;stroke-width:2" d="M970,713 l0,-257 -53,-53 0,-375 -375,0 0,375 53,53 0,257 375,0z" />
<path style="fill:#f00;stroke:#000;stroke-width:2" d="M949,113 l-21,0 0,33 21,0 0,-33z" />
<path style="fill:#f00;stroke:#000;stroke-width:2" d="M874,403 l-225,0 0,289 225,0 0,-289z" />
<circle style="fill:#000;stroke:#000;stroke-width:2" cx="761" cy="547" r="91" />
<circle style="fill:#b2b2b2" cx="761" cy="547" r="26" />
<path style="fill:none;stroke:#fff;stroke-width:2" d="M826,612 l6,-7 5,-7 5,-8 4,-8 3,-8 2,-9 1,-9 1,-4 0,-5 -1,-9 -1,-9 -2,-9 -3,-8 -4,-8 -5,-7 -5,-8 -6,-6 -6,-6 -8,-5 -7,-5 -8,-4 -8,-3 -9,-2 -9,-2 -9,0 -9,0 -9,2 -9,2 -8,3 -8,4 -8,5 -7,5 -7,6" />
<circle style="fill:#000;stroke:#7f7f7f;stroke-width:2" cx="761" cy="429" r="16" />
<circle style="fill:#000;stroke:#7f7f7f;stroke-width:2" cx="761" cy="665" r="16" />
<path style="fill:none;stroke:#000;stroke-width:2" d="M906,38 l-354,0 0,354 354,0 0,-354" />
<path style="fill:#000;stroke:#000;stroke-width:2" d="M895,70 l-332,0 0,311 332,0 0,-311z" />
<circle style="fill:#f00;stroke:#7f7f7f;stroke-width:2" cx="868" cy="97" r="16" />
<path style="fill:none;stroke:#fff;stroke-width:2" d="M880,109 l1,-2 1,-1 1,-1 0,-2 1,-1 0,-2 1,-1 0,-2 -1,-3 -1,-3 -1,-3 -2,-2 -3,-2 -2,-2 -3,-1 -3,0 -2,0 -2,0 -2,1 -2,1 -1,1 -2,1 -1,2 -1,1" />
<circle style="fill:#f00;stroke:#7f7f7f;stroke-width:2" cx="590" cy="97" r="16" />
<path style="fill:none;stroke:#fff;stroke-width:2" d="M602,109 l1,-2 1,-1 0,-1 1,-2 1,-1 0,-2 0,-1 0,-2 0,-3 -1,-3 -1,-3 -2,-2 -3,-2 -3,-2 -3,-1 -3,0 -2,0 -2,0 -1,1 -2,1 -2,1 -1,1 -1,2 -2,1" />
<circle style="fill:#f00;stroke:#7f7f7f;stroke-width:2" cx="868" cy="354" r="16" />
<path style="fill:none;stroke:#fff;stroke-width:2" d="M880,366 l1,-2 1,-1 1,-1 0,-2 1,-1 0,-2 1,-1 0,-2 -1,-3 -1,-3 -1,-3 -2,-2 -3,-2 -2,-1 -3,-1 -3,-1 -2,0 -2,1 -2,0 -2,1 -1,1 -2,1 -1,2 -1,1" />
<circle style="fill:#f00;stroke:#7f7f7f;stroke-width:2" cx="590" cy="354" r="16" />
<path style="fill:none;stroke:#fff;stroke-width:2" d="M602,366 l1,-2 1,-1 0,-1 1,-2 1,-1 0,-2 0,-1 0,-2 0,-3 -1,-3 -1,-3 -2,-2 -3,-2 -3,-1 -3,-1 -3,-1 -2,0 -2,1 -1,0 -2,1 -2,1 -1,1 -1,2 -2,1" />
<path style="fill:#fff;stroke:#fff;stroke-width:2" d="M820,306 l-182,0 0,43 182,0 0,-43z" />
<path style="fill:#fff;stroke:#fff;stroke-width:2" d="M820,81 l-182,0 0,32 182,0 0,-32z" />
<path style="fill:#f00;stroke:#000;stroke-width:2" d="M595,574 l-53,0 0,107 53,0 0,-107z" />
<path style="fill:#fff" d="M595,177 l11,-10 -11,-11 0,21z" />
<path style="fill:#fff" d="M622,151 l-11,0 0,11 11,0 0,-11z" />
<path style="fill:#fff" d="M622,172 l-11,0 0,11 11,0 0,-11z" />
<path style="fill:#fff" d="M858,151 l-11,0 0,11 11,0 0,-11z" />
<path style="fill:#fff" d="M858,172 l-11,0 0,11 11,0 0,-11z" />
<path style="fill:#fff" d="M842,177 l11,-10 -11,-11 0,21z" />
<path style="fill:#fff" d="M729,248 l11,0 12,0 11,1 11,0 11,1 10,1 10,2 10,1 10,1 9,2 8,2 8,2 15,5 12,4 -4,9 -12,-5 -14,-4 -7,-2 -8,-1 -9,-2 -9,-2 -10,-1 -10,-1 -10,-1 -11,-1 -11,-1 -11,0 -11,-1 -11,0z" />
<path style="fill:#fff" d="M583,269 l13,-4 14,-5 8,-2 9,-1 9,-2 9,-1 10,-2 10,-1 10,-1 10,-1 11,-1 11,0 11,0 11,0 0,9 -11,0 -11,1 -10,0 -11,1 -10,1 -10,1 -10,1 -10,1 -8,2 -9,1 -9,2 -14,3 -13,5 -6,2z" />
<path style="fill:#fff" d="M735,188 l4,0 0,65 -9,0 0,-65 5,0z" />
<path style="fill:#fff" d="M659,210 l5,-1 6,48 -10,2 -5,-49 4,0z" />
<path style="fill:#fff" d="M595,236 l5,0 6,32 -10,1 -5,-32 4,-1z" />
<path style="fill:#fff" d="M804,210 l5,0 -5,49 -10,-2 6,-48 4,1z" />
<path style="fill:#fff" d="M869,236 l4,1 -5,32 -10,-1 6,-32 5,0z" />
<path style="fill:#e5e5e5;stroke:#fff;stroke-width:2" d="M708,81 l-70,0 0,32 70,0 0,-32z" />
<circle style="fill:#000;stroke:#7f7f7f;stroke-width:2" cx="868" cy="97" r="5" />
<circle style="fill:#000;stroke:#7f7f7f;stroke-width:2" cx="590" cy="97" r="5" />
<circle style="fill:#000;stroke:#7f7f7f;stroke-width:2" cx="868" cy="354" r="5" />
<circle style="fill:#000;stroke:#7f7f7f;stroke-width:2" cx="590" cy="354" r="5" />
<path style="fill:#f00;stroke:#000;stroke-width:2" d="M199,28 l-118,0 0,342 118,0 0,-342z" />
<path style="fill:#fff;stroke:#fff;stroke-width:2" d="M188,38 l-96,0 0,54 96,0 0,-54z" />
<path style="fill:#000;stroke:#000;stroke-width:2" d="M188,349 l-96,0 0,11 96,0 0,-11z" />
<path style="fill:#f00;stroke:#000;stroke-width:2" d="M542,49 l-54,0 0,300 54,0 0,-300z" />
<path style="fill:none;stroke:#fff;stroke-width:2" d="M906,38 l-354,0" />
<path style="fill:none;stroke:#fff;stroke-width:2" d="M874,403 l-225,0" />

</svg>
