<?xml version="1.0" encoding="utf-8" standalone="no"?><!DOCTYPE svg PUBLIC "-//W3C//DTD SVG 1.1//EN" "http://www.w3.org/Graphics/SVG/1.1/DTD/svg11-flat-20030114.dtd"><svg width="625" height="999" version="1.1" xmlns="http://www.w3.org/2000/svg" xmlns:xlink="http://www.w3.org/1999/xlink">

<path style="fill:#7f7f7f;stroke:#000;stroke-width:2" d="M342,931 l-69,-39 -98,0 -69,39 40,0 29,-15 98,0 30,15 39,0z" />
<path style="fill:#ccc;stroke:#000;stroke-width:2" d="M244,656 l-40,0 0,236 40,0 0,-236z" />
<path style="fill:#fff" d="M229,656 l-10,0 0,236 10,0 0,-236z" />
<path style="fill:#7f7f7f;stroke:#000;stroke-width:2" d="M264,700 l-76,-20 -4,14 76,21 4,-15z" />
<path style="fill:#7f7f7f;stroke:#000;stroke-width:2" d="M264,740 l-76,-20 -4,14 76,21 4,-15z" />
<path style="fill:#7f7f7f;stroke:#000;stroke-width:2" d="M264,779 l-76,-21 -4,15 76,20 4,-14z" />
<path style="fill:#7f7f7f;stroke:#000;stroke-width:2" d="M264,818 l-76,-20 -4,14 76,21 4,-15z" />
<path style="fill:#7f7f7f;stroke:#000;stroke-width:2" d="M264,857 l-76,-20 -4,14 76,21 4,-15z" />
<path style="fill:#7f7f7f;stroke:#000;stroke-width:2" d="M264,897 l-76,-21 -4,15 76,20 4,-14z" />
<path style="fill:#7f7f7f;stroke:#000;stroke-width:2" d="M264,661 l-76,-20 -4,14 76,21 4,-15z" />
<path style="fill:#999" d="M283,263 l0,-34 172,98 59,-103 -231,-132 0,-25 -118,0 0,196 118,0z" />
<path style="fill:#b2b2b2" d="M273,264 l0,-54 187,107 49,-83 -236,-137 0,-30 -98,0 0,197 98,0z" />
<path style="fill:#ccc" d="M254,263 l0,-88 215,123 30,-44 -245,-143 0,-44 -59,0 0,196 59,0z" />
<path style="fill:#e5e5e5" d="M234,263 l0,-122 245,142 10,-15 -255,-147 0,-54 -20,0 0,196 20,0z" />
<path style="fill:#999" d="M381,28 l-314,0 0,39 314,0 0,-39z" />
<path style="fill:#999;stroke:#000;stroke-width:2" d="M283,656 l0,-157 39,-39 0,-197 -196,0 0,197 39,39 0,157 118,0z" />
<path style="fill:none;stroke:#000;stroke-width:2" d="M283,263 l0,-34 172,98 59,-103 -231,-132 0,-25 -118,0 0,196 118,0" />
<path style="fill:#b2b2b2" d="M354,28 l-260,0 0,39 260,0 0,-39z" />
<path style="fill:#ccc" d="M303,28 l-157,0 0,39 157,0 0,-39z" />
<path style="fill:#e5e5e5" d="M250,28 l-52,0 0,39 52,0 0,-39z" />
<path style="fill:none;stroke:#000;stroke-width:2" d="M381,28 l-314,0 0,39 314,0 0,-39" />
<path style="fill:#999" d="M563,138 l-157,272 34,20 157,-272 -34,-20z" />
<path style="fill:#b2b2b2" d="M550,162 l-131,225 34,20 131,-226 -34,-19z" />
<path style="fill:#ccc" d="M524,206 l-79,137 34,19 79,-136 -34,-20z" />
<path style="fill:#e5e5e5" d="M497,252 l-26,45 34,19 26,-44 -34,-20z" />
<path style="fill:none;stroke:#000;stroke-width:2" d="M563,138 l-157,272 34,20 157,-272 -34,-20" />
<path style="fill:#4c4c4c;stroke:#000;stroke-width:2" d="M254,317 l-59,0 0,84 59,0 0,-84z" />
<path style="fill:#ccc" d="M238,263 l-29,0 0,138 29,0 0,-138z" />
<path style="fill:none;stroke:#000;stroke-width:2" d="M254,263 l-59,0 0,54 59,0 0,-54" />
<path style="fill:#ccc" d="M180,435 l0,-172 -39,0 0,187 49,49 0,157 68,0 0,-157 50,-49 0,-187 -40,0 0,172 -44,44 -44,-44z" />
<path style="fill:#b2b2b2" d="M254,406 l0,24 -30,30 -29,-30 0,-24 59,0z" />
<path style="fill:#f2f2f2" d="M165,445 l0,-182 -10,0 0,187 54,54 0,152 30,0 0,-152 54,-54 0,-187 -10,0 0,182 -59,59 -59,-59z" />
<path style="fill:none;stroke:#000;stroke-width:2" d="M322,263 l-196,0 0,54 196,0 0,-54" />
<path style="fill:#666;stroke:#000;stroke-width:2" d="M165,180 l-29,0 0,34 29,0 0,-34z" />
<path style="fill:#999;stroke:#000;stroke-width:2" d="M165,116 l-29,0 0,64 29,0 0,-64z" />
<path style="fill:#b2b2b2;stroke:#000;stroke-width:2" d="M136,155 l-20,0 0,40 20,0 0,-40z" />
<path style="fill:#e5e5e5;stroke:#000;stroke-width:2" d="M136,136 l-20,0 0,19 20,0 0,-19z" />
<path style="fill:#999" d="M47,970 l354,0 19,-19 -5,-14 -14,-6 -354,0 -19,20 19,19z" />
<path style="fill:#bfbfbf" d="M100,970 l248,0 3,0 7,-5 3,-10 1,-4 -3,-11 -6,-7 -2,-2 -3,0 -248,0 -8,3 -5,9 0,8 2,11 6,7 5,1z" />
<path style="fill:#e5e5e5" d="M162,970 l124,0 1,0 5,-8 1,-7 -1,-12 -2,-9 -3,-3 -1,0 -124,0 -1,0 -2,2 -3,10 -1,4 1,11 2,9 1,2 2,1 1,0z" />
<path style="fill:none;stroke:#000;stroke-width:2" d="M47,970 l354,0 19,-19 -5,-14 -14,-6 -354,0 -19,20 19,19" />
<path style="fill:#a6a6a6;stroke:#000;stroke-width:2" d="M273,931 l0,-39 -98,0 0,39 98,0z" />
<path style="fill:none;stroke:#000;stroke-width:2" d="M283,627 l-118,0" />
<circle style="fill:#e5e5e5;stroke:#000;stroke-width:2" cx="224" cy="597" r="20" />
<circle style="fill:#000" cx="224" cy="597" r="10" />

</svg>
