<?xml version="1.0" encoding="utf-8" standalone="no"?><!DOCTYPE svg PUBLIC "-//W3C//DTD SVG 1.1//EN" "http://www.w3.org/Graphics/SVG/1.1/DTD/svg11-flat-20030114.dtd"><svg width="601" height="999" version="1.1" xmlns="http://www.w3.org/2000/svg" xmlns:xlink="http://www.w3.org/1999/xlink">

<path style="fill:#7f7f7f;stroke:#000;stroke-width:2" d="M529,410 l-74,0 0,74 74,0 0,-74z" />
<path style="fill:#fff;stroke:#000;stroke-width:2" d="M529,380 l-30,-132 -177,-30 0,15 163,29 29,118 15,0z" />
<path style="fill:#000;stroke:#7f7f7f;stroke-width:2" d="M505,447 l-8,7 -7,9 -4,11 -1,5 -1,5 1,9 3,8 4,8 5,7 7,5 7,4 9,2 9,1 9,-1 8,-2 8,-4 6,-5 6,-7 4,-8 2,-8 1,-9 0,-5 -3,-11 -5,-10 -7,-8 -5,-3 9,-7 6,-9 4,-10 1,-11 -1,-9 -2,-8 -4,-7 -6,-7 -6,-6 -8,-3 -8,-3 -9,-1 -9,1 -9,3 -7,3 -7,6 -5,7 -4,7 -3,8 -1,9 2,11 4,10 7,9 8,7z" />
<circle style="fill:#fff;stroke:#7f7f7f;stroke-width:2" cx="528" cy="483" r="29" />
<path style="fill:#00f;stroke:#000;stroke-width:2" d="M474,175 l-104,14 -210,-1 -106,-13 3,-134 105,-14 210,0 105,14 -3,134z" />
<path style="fill:#000;stroke:#000;stroke-width:2" d="M338,189 l-148,0 0,14 148,0 0,-14z" />
<path style="fill:#00f;stroke:#000;stroke-width:2" d="M323,203 l-118,0 0,177 118,0 0,-177z" />
<circle style="fill:#fff;stroke:#7f7f7f;stroke-width:2" cx="528" cy="410" r="29" />
<path style="fill:none;stroke:#f00;stroke-width:2" d="M529,484 l14,-15" />
<path style="fill:none;stroke:#000;stroke-width:2" d="M529,514 l0,-30" />
<path style="fill:none;stroke:#f00;stroke-width:2" d="M529,410 l14,0" />
<path style="fill:none;stroke:#000;stroke-width:2" d="M529,380 l0,30" />
<path style="fill:#000;stroke:#000;stroke-width:2" d="M337,528 l-147,0 0,30 147,0 0,-30z" />
<path style="fill:#00f;stroke:#000;stroke-width:2" d="M323,558 l-118,0 0,73 118,0 0,-73z" />
<path style="fill:#00f;stroke:#000;stroke-width:2" d="M322,380 l0,-29 59,29 0,252 -29,29 -177,0 -29,-29 -1,-266 59,-15 0,29 -29,0 0,222 15,30 148,0 14,-30 0,-222 -30,0z" />
<path style="fill:#00f;stroke:#000;stroke-width:2" d="M352,749 l-29,-88 -118,0 -30,88 177,0z" />
<path style="fill:#00f;stroke:#000;stroke-width:2" d="M382,749 l-236,0 0,15 236,0 0,-15z" />
<path style="fill:#00f;stroke:#000;stroke-width:2" d="M382,764 l0,30 44,14 0,89 -44,44 -236,0 -45,-44 0,-89 45,-15 0,-29 236,0z" />
<path style="fill:#000;stroke:#000;stroke-width:2" d="M426,897 l15,0 0,-89 -15,0 0,89z" />
<path style="fill:#000;stroke:#000;stroke-width:2" d="M87,897 l14,0 0,-89 -14,0 0,89z" />
<path style="fill:#00f;stroke:#000;stroke-width:2" d="M470,749 l-29,0 0,207 29,0 0,-207z" />
<path style="fill:#00f;stroke:#000;stroke-width:2" d="M86,749 l-29,0 0,207 29,0 0,-207z" />
<path style="fill:#000;stroke:#000;stroke-width:2" d="M382,735 l-15,0 0,14 15,0 0,-14z" />
<path style="fill:#000;stroke:#000;stroke-width:2" d="M160,735 l-14,0 0,14 14,0 0,-14z" />
<path style="fill:#000;stroke:#000;stroke-width:2" d="M499,956 l-88,0 0,15 88,0 0,-15z" />
<path style="fill:#000;stroke:#000;stroke-width:2" d="M116,956 l-89,0 0,15 89,0 0,-15z" />
<path style="fill:#000;stroke:#000;stroke-width:2" d="M485,366 l-163,0 0,163 163,0 0,-163z" />
<circle style="fill:#000;stroke:#7f7f7f;stroke-width:2" cx="366" cy="483" r="29" />
<path style="fill:#7f7f7f;stroke:#7f7f7f;stroke-width:2" d="M470,440 l-133,0 0,-15 133,0 0,15z" />
<path style="fill:#000;stroke:#000;stroke-width:2" d="M440,336 l-73,0 0,30 73,0 0,-30z" />
<path style="fill:#00f;stroke:#000;stroke-width:2" d="M293,380 l-59,0 0,148 59,0 0,-148z" />
<path style="fill:#00f;stroke:#000;stroke-width:2" d="M308,440 l-89,0 0,44 89,0 0,-44z" />
<path style="fill:#00f;stroke:#000;stroke-width:2" d="M485,115 l-30,0 0,15 30,0 0,-15z" />
<path style="fill:#000;stroke:#000;stroke-width:2" d="M485,85 l-30,0 0,30 30,0 0,-30z" />
<path style="fill:#00f;stroke:#000;stroke-width:2" d="M72,115 l-30,0 0,15 30,0 0,-15z" />
<path style="fill:#000;stroke:#000;stroke-width:2" d="M72,85 l-30,0 0,30 30,0 0,-30z" />
<path style="fill:#00f;stroke:#000;stroke-width:2" d="M308,115 l-30,0 0,15 30,0 0,-15z" />
<path style="fill:#000;stroke:#000;stroke-width:2" d="M308,85 l-30,0 0,30 30,0 0,-30z" />
<path style="fill:#00f;stroke:#000;stroke-width:2" d="M367,115 l-30,0 0,15 30,0 0,-15z" />
<path style="fill:#000;stroke:#000;stroke-width:2" d="M367,85 l-30,0 0,30 30,0 0,-30z" />
<path style="fill:#00f;stroke:#000;stroke-width:2" d="M426,115 l-30,0 0,15 30,0 0,-15z" />
<path style="fill:#000;stroke:#000;stroke-width:2" d="M426,85 l-30,0 0,30 30,0 0,-30z" />
<path style="fill:#00f;stroke:#000;stroke-width:2" d="M249,115 l-30,0 0,15 30,0 0,-15z" />
<path style="fill:#000;stroke:#000;stroke-width:2" d="M249,85 l-30,0 0,30 30,0 0,-30z" />
<path style="fill:#00f;stroke:#000;stroke-width:2" d="M190,115 l-30,0 0,15 30,0 0,-15z" />
<path style="fill:#000;stroke:#000;stroke-width:2" d="M190,85 l-30,0 0,30 30,0 0,-30z" />
<path style="fill:#00f;stroke:#000;stroke-width:2" d="M131,115 l-30,0 0,15 30,0 0,-15z" />
<path style="fill:#000;stroke:#000;stroke-width:2" d="M131,85 l-30,0 0,30 30,0 0,-30z" />
<path style="fill:#00f;stroke:#000;stroke-width:2" d="M500,87 l-473,0 0,26 473,0 0,-26z" />
<path style="fill:#000;stroke:#000;stroke-width:2" d="M455,513 l-29,0 0,30 29,0 0,-30z" />

</svg>
