<?xml version="1.0" encoding="utf-8" standalone="no"?><!DOCTYPE svg PUBLIC "-//W3C//DTD SVG 1.1//EN" "http://www.w3.org/Graphics/SVG/1.1/DTD/svg11-flat-20030114.dtd"><svg width="530" height="530" version="1.1" xmlns="http://www.w3.org/2000/svg" xmlns:xlink="http://www.w3.org/1999/xlink">

<path style="fill:#7f7f7f" d="M431,224 l-333,0 0,249 333,0 0,-249z" />
<path style="fill:#999" d="M431,239 l-333,0 0,219 333,0 0,-219z" />
<path style="fill:#b2b2b2" d="M431,266 l-333,0 0,166 333,0 0,-166z" />
<path style="fill:#ccc" d="M431,291 l-333,0 0,115 333,0 0,-115z" />
<path style="fill:#e5e5e5" d="M431,312 l-333,0 0,73 333,0 0,-73z" />
<path style="fill:#fff" d="M431,333 l-333,0 0,31 333,0 0,-31z" />
<path style="fill:none;stroke:#000;stroke-width:2" d="M431,473 l-333,0" />
<path style="fill:none;stroke:#000;stroke-width:2" d="M98,224 l333,0" />
<path style="fill:#7f7f7f" d="M515,182 l-84,0 0,333 84,0 0,-333z" />
<path style="fill:#999" d="M515,202 l-84,0 0,293 84,0 0,-293z" />
<path style="fill:#b2b2b2" d="M515,238 l-84,0 0,222 84,0 0,-222z" />
<path style="fill:#ccc" d="M515,272 l-84,0 0,153 84,0 0,-153z" />
<path style="fill:#e5e5e5" d="M515,299 l-84,0 0,98 84,0 0,-98z" />
<path style="fill:#fff" d="M515,328 l-84,0 0,41 84,0 0,-41z" />
<path style="fill:none;stroke:#000;stroke-width:2" d="M515,182 l-84,0 0,333 84,0 0,-333" />
<path style="fill:#7f7f7f" d="M98,182 l-83,0 0,333 83,0 0,-333z" />
<path style="fill:#999" d="M98,202 l-83,0 0,293 83,0 0,-293z" />
<path style="fill:#b2b2b2" d="M98,238 l-83,0 0,222 83,0 0,-222z" />
<path style="fill:#ccc" d="M98,272 l-83,0 0,153 83,0 0,-153z" />
<path style="fill:#e5e5e5" d="M98,299 l-83,0 0,98 83,0 0,-98z" />
<path style="fill:#fff" d="M98,328 l-83,0 0,41 83,0 0,-41z" />
<path style="fill:none;stroke:#000;stroke-width:2" d="M98,182 l-83,0 0,333 83,0 0,-333" />
<path style="fill:#7f7f7f" d="M306,223 l0,-125 -83,0 0,125 1,8 2,8 4,7 5,7 7,5 7,4 8,2 8,1 8,-1 8,-2 7,-4 6,-5 5,-7 4,-7 2,-8 1,-8z" />
<path style="fill:#999" d="M301,244 l-3,5 -3,4 -5,3 -4,3 -5,3 -5,2 -5,1 -6,0 -6,0 -5,-1 -5,-2 -6,-3 -4,-3 -4,-3 -4,-4 -3,-5 0,-146 73,0 0,146z" />
<path style="fill:#b2b2b2" d="M292,254 l-6,5 -6,3 -8,2 -7,1 -7,-1 -8,-2 -7,-3 -6,-4 0,-157 55,0 0,156z" />
<path style="fill:#ccc" d="M284,260 l-5,2 -5,2 -4,1 -5,0 -5,0 -5,-1 -5,-2 -4,-2 0,-162 38,0 0,162z" />
<path style="fill:#e5e5e5" d="M277,263 l-3,1 -3,0 -3,1 -3,0 -4,0 -3,-1 -4,0 -3,-1 0,-165 26,0 0,165z" />
<path style="fill:#fff" d="M270,265 l-1,0 -2,0 -1,0 -1,0 -2,0 -1,0 -2,0 -1,0 0,-167 11,0 0,167z" />
<path style="fill:none;stroke:#000;stroke-width:2" d="M223,98 l0,125 1,8 2,8 4,7 5,7 7,5 7,4 8,2 8,1 8,-1 8,-2 7,-4 6,-5 5,-7 4,-7 2,-8 1,-8 0,-125" />
<path style="fill:#999;stroke:#000;stroke-width:2" d="M98,67 l3,6 17,9 18,5 23,4 13,2 14,1 14,2 15,1 16,0 17,1 17,0 17,0 17,-1 15,0 16,-1 14,-2 14,-1 24,-4 21,-5 15,-5 12,-9 1,-3 0,-31 -13,8 -15,3 -21,4 -24,2 -14,1 -14,1 -16,1 -15,1 -68,0 -16,-1 -15,-1 -14,-1 -14,-1 -25,-2 -20,-4 -16,-3 -10,-4 -2,-2 -1,-2 0,31z" />
<ellipse style="fill:#e5e5e5;stroke:#000;stroke-width:2" cx="264" cy="36" rx="166" ry="21" />

</svg>
