<?xml version="1.0" encoding="utf-8" standalone="no"?><!DOCTYPE svg PUBLIC "-//W3C//DTD SVG 1.1//EN" "http://www.w3.org/Graphics/SVG/1.1/DTD/svg11-flat-20030114.dtd"><svg width="530" height="530" version="1.1" xmlns="http://www.w3.org/2000/svg" xmlns:xlink="http://www.w3.org/1999/xlink">

<path style="fill:#7f7f7f" d="M223,98 l0,334 250,0 0,-334 -250,0z" />
<path style="fill:#999" d="M239,98 l0,334 219,0 0,-334 -219,0z" />
<path style="fill:#b2b2b2" d="M265,98 l0,334 166,0 0,-334 -166,0z" />
<path style="fill:#ccc" d="M291,98 l0,334 114,0 0,-334 -114,0z" />
<path style="fill:#e5e5e5" d="M311,98 l0,334 73,0 0,-334 -73,0z" />
<path style="fill:#fff" d="M333,98 l0,334 30,0 0,-334 -30,0z" />
<path style="fill:none;stroke:#000;stroke-width:2" d="M473,98 l0,334" />
<path style="fill:none;stroke:#000;stroke-width:2" d="M223,432 l0,-334" />
<path style="fill:#7f7f7f" d="M181,15 l0,83 334,0 0,-83 -334,0z" />
<path style="fill:#999" d="M202,15 l0,83 292,0 0,-83 -292,0z" />
<path style="fill:#b2b2b2" d="M238,15 l0,83 221,0 0,-83 -221,0z" />
<path style="fill:#ccc" d="M272,15 l0,83 153,0 0,-83 -153,0z" />
<path style="fill:#e5e5e5" d="M299,15 l0,83 98,0 0,-83 -98,0z" />
<path style="fill:#fff" d="M328,15 l0,83 40,0 0,-83 -40,0z" />
<path style="fill:none;stroke:#000;stroke-width:2" d="M181,15 l0,83 334,0 0,-83 -334,0" />
<path style="fill:#7f7f7f" d="M181,432 l0,83 334,0 0,-83 -334,0z" />
<path style="fill:#999" d="M202,432 l0,83 292,0 0,-83 -292,0z" />
<path style="fill:#b2b2b2" d="M238,432 l0,83 221,0 0,-83 -221,0z" />
<path style="fill:#ccc" d="M272,432 l0,83 153,0 0,-83 -153,0z" />
<path style="fill:#e5e5e5" d="M299,432 l0,83 98,0 0,-83 -98,0z" />
<path style="fill:#fff" d="M328,432 l0,83 40,0 0,-83 -40,0z" />
<path style="fill:none;stroke:#000;stroke-width:2" d="M181,432 l0,83 334,0 0,-83 -334,0" />
<path style="fill:#7f7f7f" d="M223,223 l-125,0 0,84 125,0 8,-1 8,-2 7,-4 7,-5 5,-7 4,-7 2,-8 1,-8 -1,-8 -2,-8 -4,-7 -5,-7 -7,-5 -7,-4 -8,-2 -8,-1z" />
<path style="fill:#999" d="M243,229 l5,3 4,3 4,5 3,4 3,5 2,5 1,5 0,6 0,6 -2,5 -2,5 -2,5 -3,5 -4,4 -4,4 -5,3 -145,0 0,-73 145,0z" />
<path style="fill:#b2b2b2" d="M254,237 l5,6 3,7 2,8 1,7 -1,7 -2,8 -3,7 -5,6 -156,0 0,-56 156,0z" />
<path style="fill:#ccc" d="M260,246 l2,5 2,4 1,5 0,5 0,5 -1,5 -2,4 -2,5 -162,0 0,-38 162,0z" />
<path style="fill:#e5e5e5" d="M263,253 l1,3 0,3 1,3 0,3 0,4 -1,3 -1,4 -1,3 -164,0 0,-26 165,0z" />
<path style="fill:#fff" d="M264,260 l0,1 0,1 1,2 0,1 0,1 -1,2 0,1 0,1 -166,0 0,-10 166,0z" />
<path style="fill:none;stroke:#000;stroke-width:2" d="M98,307 l125,0 8,-1 8,-2 7,-4 7,-5 5,-7 4,-7 2,-8 1,-8 -1,-8 -2,-8 -4,-7 -5,-7 -7,-5 -7,-4 -8,-2 -8,-1 -125,0" />
<path style="fill:#999;stroke:#000;stroke-width:2" d="M67,432 l6,-3 9,-17 5,-18 4,-23 2,-13 1,-14 2,-14 1,-15 0,-16 1,-17 0,-17 0,-17 -1,-17 0,-16 -1,-15 -2,-14 -1,-14 -4,-25 -5,-20 -5,-16 -6,-10 -3,-2 -3,-1 -32,0 4,3 6,17 4,18 2,23 2,13 1,14 0,14 1,15 1,16 0,68 -1,16 -1,15 0,14 -1,14 -3,25 -3,20 -4,16 -4,10 -2,2 -2,1 32,0z" />
<ellipse style="fill:#e5e5e5;stroke:#000;stroke-width:2" cx="35" cy="265" rx="20" ry="167" />

</svg>
