<?xml version="1.0" encoding="utf-8" standalone="no"?><!DOCTYPE svg PUBLIC "-//W3C//DTD SVG 1.1//EN" "http://www.w3.org/Graphics/SVG/1.1/DTD/svg11-flat-20030114.dtd"><svg width="530" height="530" version="1.1" xmlns="http://www.w3.org/2000/svg" xmlns:xlink="http://www.w3.org/1999/xlink">

<path style="fill:#7f7f7f" d="M515,312 l-500,0 0,156 500,0 0,-156z" />
<path style="fill:#999" d="M515,322 l-500,0 0,136 500,0 0,-136z" />
<path style="fill:#b2b2b2" d="M515,337 l-500,0 0,107 500,0 0,-107z" />
<path style="fill:#ccc" d="M515,356 l-500,0 0,68 500,0 0,-68z" />
<path style="fill:#e5e5e5" d="M515,373 l-500,0 0,34 500,0 0,-34z" />
<path style="fill:#fff" d="M515,388 l-500,0 0,4 500,0 0,-4z" />
<path style="fill:none;stroke:#000;stroke-width:2" d="M515,312 l-500,0 0,156 500,0 0,-156" />
<path style="fill:#7f7f7f" d="M390,266 l-250,0 0,249 250,0 0,-249z" />
<path style="fill:#999" d="M390,281 l-250,0 0,218 250,0 0,-218z" />
<path style="fill:#b2b2b2" d="M390,305 l-250,0 0,171 250,0 0,-171z" />
<path style="fill:#ccc" d="M390,336 l-250,0 0,108 250,0 0,-108z" />
<path style="fill:#e5e5e5" d="M390,363 l-250,0 0,54 250,0 0,-54z" />
<path style="fill:#fff" d="M390,386 l-250,0 0,8 250,0 0,-8z" />
<path style="fill:none;stroke:#000;stroke-width:2" d="M390,265 l-250,0 0,250 250,0 0,-250" />
<path style="fill:#7f7f7f" d="M515,266 l-94,0 0,249 94,0 0,-249z" />
<path style="fill:#999" d="M515,281 l-94,0 0,218 94,0 0,-218z" />
<path style="fill:#b2b2b2" d="M515,304 l-94,0 0,172 94,0 0,-172z" />
<path style="fill:#ccc" d="M515,336 l-94,0 0,108 94,0 0,-108z" />
<path style="fill:#e5e5e5" d="M515,363 l-94,0 0,54 94,0 0,-54z" />
<path style="fill:#fff" d="M515,386 l-94,0 0,8 94,0 0,-8z" />
<path style="fill:none;stroke:#000;stroke-width:2" d="M515,265 l-94,0 0,250 94,0 0,-250" />
<path style="fill:#7f7f7f" d="M109,266 l-94,0 0,249 94,0 0,-249z" />
<path style="fill:#999" d="M109,281 l-94,0 0,218 94,0 0,-218z" />
<path style="fill:#b2b2b2" d="M109,304 l-94,0 0,172 94,0 0,-172z" />
<path style="fill:#ccc" d="M109,336 l-94,0 0,108 94,0 0,-108z" />
<path style="fill:#e5e5e5" d="M109,363 l-94,0 0,54 94,0 0,-54z" />
<path style="fill:#fff" d="M109,386 l-94,0 0,8 94,0 0,-8z" />
<path style="fill:none;stroke:#000;stroke-width:2" d="M109,265 l-94,0 0,250 94,0 0,-250" />
<path style="fill:#7f7f7f" d="M187,171 l0,94 156,0 0,-94 -156,0z" />
<path style="fill:#999" d="M197,171 l0,94 136,0 0,-94 -136,0z" />
<path style="fill:#b2b2b2" d="M211,171 l0,94 107,0 0,-94 -107,0z" />
<path style="fill:#ccc" d="M231,171 l0,94 68,0 0,-94 -68,0z" />
<path style="fill:#e5e5e5" d="M248,171 l0,94 34,0 0,-94 -34,0z" />
<path style="fill:#fff" d="M262,171 l0,94 5,0 0,-94 -5,0z" />
<path style="fill:none;stroke:#000;stroke-width:2" d="M187,171 l0,94 156,0 0,-94 -156,0" />
<path style="fill:#7f7f7f" d="M234,77 l0,94 62,0 0,-94 -62,0z" />
<path style="fill:#999" d="M238,77 l0,94 54,0 0,-94 -54,0z" />
<path style="fill:#b2b2b2" d="M244,77 l0,94 42,0 0,-94 -42,0z" />
<path style="fill:#ccc" d="M251,77 l0,94 28,0 0,-94 -28,0z" />
<path style="fill:#e5e5e5" d="M258,77 l0,94 14,0 0,-94 -14,0z" />
<path style="fill:#fff" d="M264,77 l0,94 2,0 0,-94 -2,0z" />
<path style="fill:none;stroke:#000;stroke-width:2" d="M234,77 l0,94 62,0 0,-94 -62,0" />
<path style="fill:#7f7f7f" d="M265,77 l125,1 -3,-13 -7,-12 -11,-10 -16,-10 -18,-7 -21,-6 -24,-4 -25,-1 -25,1 -24,4 -21,6 -18,7 -16,9 -11,11 -7,12 -3,12 125,0z" />
<path style="fill:#999" d="M265,78 l109,0 -2,-13 -7,-12 -10,-10 -13,-10 -16,-7 -19,-6 -20,-4 -22,-1 -22,1 -20,4 -19,6 -16,7 -13,9 -10,11 -7,12 -2,12 109,1z" />
<path style="fill:#b2b2b2" d="M265,78 l86,0 -2,-13 -5,-12 -8,-10 -10,-10 -13,-7 -15,-6 -16,-4 -17,-1 -17,1 -16,4 -15,6 -13,7 -10,9 -8,11 -5,12 -2,12 86,1z" />
<path style="fill:#ccc" d="M265,77 l55,1 -1,-13 -3,-12 -5,-10 -7,-10 -8,-7 -10,-6 -10,-4 -11,-1 -11,1 -10,4 -10,6 -8,7 -7,9 -5,11 -3,12 -1,12 55,0z" />
<path style="fill:#e5e5e5" d="M265,77 l27,1 -1,-13 -1,-12 -3,-10 -3,-10 -4,-7 -4,-6 -6,-4 -5,-1 -5,1 -6,4 -4,6 -4,7 -3,9 -3,11 -1,12 -1,12 27,0z" />
<ellipse style="fill:#fff" cx="265" cy="46" rx="4" ry="31" />
<path style="fill:none;stroke:#000;stroke-width:2" d="M265,77 l125,1 -3,-13 -7,-12 -11,-10 -16,-10 -18,-7 -21,-6 -24,-4 -25,-1 -25,1 -24,4 -21,6 -18,7 -16,9 -11,11 -7,12 -3,12 125,0" />

</svg>
