<?xml version="1.0" encoding="utf-8" standalone="no"?><!DOCTYPE svg PUBLIC "-//W3C//DTD SVG 1.1//EN" "http://www.w3.org/Graphics/SVG/1.1/DTD/svg11-flat-20030114.dtd"><svg width="657" height="999" version="1.1" xmlns="http://www.w3.org/2000/svg" xmlns:xlink="http://www.w3.org/1999/xlink">

<path style="fill:#b2b2b2;stroke:#000;stroke-width:2" d="M99,571 l-42,0 0,399 42,0 0,-399z" />
<path style="fill:#b2b2b2;stroke:#000;stroke-width:2" d="M99,655 l0,230 150,0 15,16 18,13 23,9 22,3 22,-3 20,-9 16,-11 16,-18 145,0 0,-230 -105,0 24,-102 -274,0 24,102 -116,0z" />
<path style="fill:#b2b2b2;stroke:#000;stroke-width:2" d="M591,571 l-45,0 0,399 45,0 0,-399z" />
<path style="fill:#b2b2b2;stroke:#000;stroke-width:2" d="M526,550 l0,-31 -398,0 0,31 398,0z" />
<path style="fill:#b2b2b2;stroke:#000;stroke-width:2" d="M526,481 l0,34 -398,0 0,-34 398,0z" />
<path style="fill:#7f7f7f;stroke:#000;stroke-width:2" d="M510,515 l-366,0 0,4 366,0 0,-4z" />
<path style="fill:#e5e5e5;stroke:#000;stroke-width:2" d="M307,124 l40,0 0,-96 -40,0 0,96z" />
<path style="fill:#e5e5e5;stroke:#000;stroke-width:2" d="M285,345 l0,-25 -45,0 0,23 45,2z" />
<path style="fill:#e5e5e5;stroke:#000;stroke-width:2" d="M367,320 l0,25 45,-2 0,-23 -45,0z" />
<path style="fill:#e5e5e5;stroke:#000;stroke-width:2" d="M387,307 l0,13 -9,0 0,-13 9,0z" />
<path style="fill:#e5e5e5;stroke:#000;stroke-width:2" d="M253,307 l0,13 -9,0 0,-13 9,0z" />
<path style="fill:none;stroke:#000;stroke-width:2" d="M343,32 l-34,9" />
<path style="fill:none;stroke:#000;stroke-width:2" d="M343,41 l-34,9" />
<path style="fill:none;stroke:#000;stroke-width:2" d="M343,52 l-34,7" />
<path style="fill:none;stroke:#000;stroke-width:2" d="M343,61 l-34,7" />
<path style="fill:none;stroke:#000;stroke-width:2" d="M343,70 l-34,7" />
<path style="fill:none;stroke:#000;stroke-width:2" d="M343,79 l-34,7" />
<path style="fill:none;stroke:#000;stroke-width:2" d="M343,88 l-34,7" />
<path style="fill:none;stroke:#000;stroke-width:2" d="M343,97 l-34,7" />
<path style="fill:none;stroke:#000;stroke-width:2" d="M343,106 l-34,9" />
<path style="fill:none;stroke:#000;stroke-width:2" d="M343,115 l-34,9" />
<path style="fill:#ccc;stroke:#000;stroke-width:2" d="M360,188 l-69,0 0,316 69,0 0,-316z" />
<path style="fill:#ccc;stroke:#000;stroke-width:2" d="M293,124 l65,0 0,-3 -65,0 0,3z" />
<path style="fill:#ccc;stroke:#000;stroke-width:2" d="M358,150 l-65,0 0,7 65,0 0,-7z" />
<path style="fill:#f0f0f0" d="M356,188 l-11,0 0,-29 11,0 0,29z" />
<path style="fill:#ccc;stroke:#000;stroke-width:2" d="M358,191 l-65,0 0,-34 65,0 0,34z" />
<path style="fill:#ccc;stroke:#000;stroke-width:2" d="M367,188 l-82,0 0,217 82,0 0,-217z" />
<path style="fill:#ccc;stroke:#000;stroke-width:2" d="M611,124 l-568,0 -4,2 -7,2 -4,5 0,4 0,7 4,2 7,4 4,0 568,0 4,0 7,-2 4,-4 3,-7 -3,-4 -4,-5 -5,-2 -6,-2z" />
<path style="fill:#fff;stroke:#000;stroke-width:2" d="M273,307 l0,13 -6,0 0,-13 6,0z" />
<path style="fill:#fff;stroke:#000;stroke-width:2" d="M318,387 l11,0 0,-216 -11,0 0,216z" />
<path style="fill:#fff;stroke:#000;stroke-width:2" d="M329,430 l-11,0 0,29 11,0 0,-29z" />
<path style="fill:#fff;stroke:#000;stroke-width:2" d="M407,307 l0,13 -6,0 0,-13 6,0z" />
<path style="fill:#ccc" d="M517,481 l0,34 -335,0 0,-34 335,0z" />
<path style="fill:#ccc" d="M517,550 l0,-31 -335,0 0,31 335,0z" />
<path style="fill:#e0e0e0;stroke:#000;stroke-width:2" d="M200,479 l256,0 -26,-9 -29,-7 -36,-4 -38,0 -38,0 -33,4 -32,7 -24,9z" />
<path style="fill:none;stroke:#000;stroke-width:2" d="M526,481 l0,34 -398,0 0,-34 398,0" />
<path style="fill:none;stroke:#000;stroke-width:2" d="M526,553 l0,-34 -398,0 0,34 398,0" />
<path style="fill:#ccc" d="M586,582 l-38,0 0,332 38,0 0,-332z" />
<path style="fill:#ccc" d="M97,582 l-38,0 0,332 38,0 0,-332z" />
<path style="fill:#ccc" d="M99,678 l0,192 183,0 34,24 31,3 22,-12 12,-15 163,0 0,-192 -132,0 13,-67 20,-58 -212,0 11,125 -145,0z" />
<path style="fill:#f0f0f0" d="M97,591 l-38,0 0,26 38,0 0,-26z" />
<path style="fill:#f0f0f0" d="M99,689 l0,29 109,0 12,-16 11,-13 -132,0z" />
<path style="fill:#f0f0f0" d="M546,718 l0,-29 -152,0 25,-136 -25,0 -9,53 -16,83 -6,109 -11,45 -30,34 9,6 9,2 20,-13 27,-74 5,-40 0,-40 154,0z" />
<path style="fill:#f0f0f0" d="M586,591 l-38,0 0,26 38,0 0,-26z" />
<path style="fill:#f0f0f0" d="M517,481 l0,34 -27,0 0,-34 27,0z" />
<path style="fill:#f0f0f0" d="M517,553 l0,-34 -27,0 0,34 27,0z" />
<path style="fill:#fff;stroke:#000;stroke-width:2" d="M517,461 l0,20 -9,0 0,-20 9,0z" />
<path style="fill:#fff;stroke:#000;stroke-width:2" d="M517,573 l0,-23 -9,0 0,23 9,0z" />
<path style="fill:#fff;stroke:#000;stroke-width:2" d="M414,461 l0,20 -9,0 0,-20 9,0z" />
<path style="fill:#fff;stroke:#000;stroke-width:2" d="M414,573 l0,-23 -9,0 0,23 9,0z" />
<path style="fill:#fff;stroke:#000;stroke-width:2" d="M278,461 l0,20 -9,0 0,-20 9,0z" />
<path style="fill:#fff;stroke:#000;stroke-width:2" d="M278,573 l0,-23 -9,0 0,23 9,0z" />
<path style="fill:#fff;stroke:#000;stroke-width:2" d="M177,461 l0,20 -9,0 0,-20 9,0z" />
<path style="fill:#fff;stroke:#000;stroke-width:2" d="M177,573 l0,-23 -9,0 0,23 9,0z" />
<path style="fill:#b2b2b2;stroke:#000;stroke-width:2" d="M394,387 l-136,0 -7,0 -9,5 -4,6 0,5 -3,4 3,5 0,4 2,5 9,6 4,3 141,0 9,-3 7,-4 4,-7 2,-9 -6,-13 -7,-4 -9,-3z" />
<path style="fill:#b2b2b2;stroke:#000;stroke-width:2" d="M253,307 l14,0 0,-7 -14,0 0,7z" />
<path style="fill:#b2b2b2;stroke:#000;stroke-width:2" d="M267,345 l-14,-2 0,44 14,0 0,-42z" />
<path style="fill:#b2b2b2;stroke:#000;stroke-width:2" d="M401,343 l-14,2 0,42 7,0 7,0 0,-44z" />
<path style="fill:#b2b2b2;stroke:#000;stroke-width:2" d="M387,307 l14,0 0,-7 -14,0 0,7z" />
<path style="fill:#b2b2b2;stroke:#000;stroke-width:2" d="M385,463 l20,0 0,-9 -22,0 0,7 -9,0 0,20 11,0 0,-18z" />
<path style="fill:#b2b2b2;stroke:#000;stroke-width:2" d="M249,463 l20,0 0,-9 -23,0 0,7 -8,0 0,20 11,0 0,-18z" />
<path style="fill:#b2b2b2;stroke:#000;stroke-width:2" d="M148,463 l23,0 0,-9 -25,0 0,7 -9,0 0,20 11,0 0,-18z" />
<path style="fill:#b2b2b2;stroke:#000;stroke-width:2" d="M385,568 l20,0 0,11 -22,0 0,-6 -9,0 0,-23 11,0 0,18z" />
<path style="fill:#b2b2b2;stroke:#000;stroke-width:2" d="M249,568 l20,0 0,11 -23,0 0,-6 -8,0 0,-23 11,0 0,18z" />
<path style="fill:#b2b2b2;stroke:#000;stroke-width:2" d="M148,568 l23,0 0,11 -25,0 0,-6 -9,0 0,-23 11,0 0,18z" />
<path style="fill:#b2b2b2;stroke:#000;stroke-width:2" d="M488,463 l0,18 -11,0 0,-20 11,0 0,-7 22,0 0,9 -22,0z" />
<path style="fill:#b2b2b2;stroke:#000;stroke-width:2" d="M488,568 l22,0 0,11 -22,0 0,-6 -11,0 0,-23 11,0 0,18z" />
<path style="fill:#f0f0f0;stroke:#000;stroke-width:2" d="M148,461 l0,20 20,0 0,-20 -20,0z" />
<path style="fill:#f0f0f0;stroke:#000;stroke-width:2" d="M148,573 l0,-23 20,0 0,23 -20,0z" />
<path style="fill:#f0f0f0;stroke:#000;stroke-width:2" d="M249,573 l0,-23 20,0 0,23 -20,0z" />
<path style="fill:#f0f0f0;stroke:#000;stroke-width:2" d="M249,461 l0,20 20,0 0,-20 -20,0z" />
<path style="fill:#f0f0f0;stroke:#000;stroke-width:2" d="M385,461 l0,20 20,0 0,-20 -20,0z" />
<path style="fill:#f0f0f0;stroke:#000;stroke-width:2" d="M385,573 l0,-23 20,0 0,23 -20,0z" />
<path style="fill:#f0f0f0;stroke:#000;stroke-width:2" d="M488,573 l0,-23 20,0 0,23 -20,0z" />
<path style="fill:#f0f0f0;stroke:#000;stroke-width:2" d="M488,461 l0,20 20,0 0,-20 -20,0z" />
<path style="fill:none;stroke:#000;stroke-width:2" d="M392,394 l-9,4 -5,9 5,12 9,2 11,-2 4,-12 -4,-9 -11,-4" />
<path style="fill:none;stroke:#000;stroke-width:2" d="M258,394 l-9,4 -5,9 5,12 9,2 11,-2 4,-12 -4,-9 -11,-4" />
<path style="fill:#e5e5e5" d="M334,387 l11,0 0,-196 -11,0 0,196z" />
<path style="fill:#e5e5e5" d="M345,430 l-11,0 0,29 11,0 0,-29z" />

</svg>
