<?xml version="1.0" encoding="utf-8" standalone="no"?><!DOCTYPE svg PUBLIC "-//W3C//DTD SVG 1.1//EN" "http://www.w3.org/Graphics/SVG/1.1/DTD/svg11-flat-20030114.dtd"><svg width="999" height="734" version="1.1" xmlns="http://www.w3.org/2000/svg" xmlns:xlink="http://www.w3.org/1999/xlink">

<path style="fill:#b2b2b2;stroke:#000;stroke-width:2" d="M617,48 l-60,0 0,49 60,0 0,-49z" />
<path style="fill:#e5e5e5;stroke:#000;stroke-width:2" d="M602,73 l0,-25 10,0 0,-3 -49,0 0,3 9,0 0,25 30,0z" />
<path style="fill:#666" d="M951,275 l-119,0 0,58 -490,0 0,-58 -118,0 0,431 118,0 0,-59 490,0 0,59 119,0 0,-431z" />
<path style="fill:#7d7d7d" d="M950,302 l-118,0 0,51 -490,0 0,-51 -119,0 0,376 119,0 0,-52 490,0 0,52 118,0 0,-376z" />
<path style="fill:#919191" d="M950,330 l-118,0 0,43 -490,0 0,-43 -119,0 0,320 119,0 0,-44 490,0 0,44 118,0 0,-320z" />
<path style="fill:#a8a8a8" d="M950,358 l-118,0 0,36 -490,0 0,-36 -119,0 0,264 119,0 0,-36 490,0 0,36 118,0 0,-264z" />
<path style="fill:#bdbdbd" d="M950,386 l-118,0 0,28 -490,0 0,-28 -119,0 0,208 119,0 0,-29 490,0 0,29 118,0 0,-208z" />
<path style="fill:#d4d4d4" d="M950,414 l-118,0 0,21 -490,0 0,-21 -119,0 0,152 119,0 0,-21 490,0 0,21 118,0 0,-152z" />
<path style="fill:#e8e8e8" d="M950,442 l-118,0 0,13 -490,0 0,-13 -119,0 0,96 119,0 0,-13 490,0 0,13 118,0 0,-96z" />
<path style="fill:#fff" d="M951,470 l-119,0 0,6 -490,0 0,-6 -118,0 0,40 118,0 0,-5 490,0 0,5 119,0 0,-40z" />
<path style="fill:none;stroke:#000;stroke-width:2" d="M951,275 l-119,0 0,58 -490,0 0,-58 -118,0 0,431 118,0 0,-59 490,0 0,59 119,0 0,-431" />
<path style="fill:#666" d="M433,339 l7,28 20,23 30,20 24,10 28,7 30,4 15,0 31,-2 28,-5 26,-9 32,-17 23,-23 11,-26 1,-10 0,-124 56,0 0,-68 -56,0 0,-48 -306,0 0,48 -54,0 0,68 54,0 0,124z" />
<path style="fill:#7f7f7f" d="M457,387 l22,15 26,12 32,11 37,6 13,0 39,-3 34,-9 28,-12 24,-14 5,-5 1,-1 0,-172 48,0 0,-68 -48,0 0,-48 -261,0 0,48 -48,0 0,68 48,0 0,172z" />
<path style="fill:#999" d="M477,401 l26,14 32,10 31,5 21,1 32,-2 28,-6 29,-11 18,-11 0,-186 39,0 0,-68 -39,0 0,-48 -217,0 0,48 -38,0 0,68 38,0 0,186z" />
<path style="fill:#b2b2b2" d="M501,413 l1,1 24,8 28,6 33,3 34,-2 27,-6 25,-9 0,-1 0,-198 30,0 0,-68 -30,0 0,-48 -172,0 0,48 -30,0 0,68 30,0 0,198z" />
<path style="fill:#ccc" d="M525,422 l27,6 29,3 30,-1 27,-5 12,-3 0,-207 20,0 0,-68 -20,0 0,-48 -125,0 0,48 -24,0 0,68 24,0 0,207z" />
<path style="fill:#e5e5e5" d="M546,428 l1,0 2,1 4,0 4,1 7,0 7,1 8,0 8,0 39,-3 0,-213 15,0 0,-68 -15,0 0,-48 -80,0 0,48 -12,0 0,68 12,0 0,213z" />
<path style="fill:#fff" d="M569,428 l1,1 1,1 2,1 2,0 3,0 3,0 3,0 3,0 18,-3 0,-213 6,0 0,-68 -6,0 0,-48 -36,0 0,48 -6,0 0,68 6,0 0,213z" />
<path style="fill:none;stroke:#000;stroke-width:2" d="M433,339 l7,28 20,23 30,20 24,10 28,7 30,4 15,0 31,-2 28,-5 26,-9 32,-17 23,-23 11,-26 1,-10 0,-124 56,0 0,-68 -56,0 0,-48 -306,0 0,48 -54,0 0,68 54,0 0,124" />
<path style="fill:#ccc" d="M661,97 l-6,-24 -122,0 -19,-34 -34,0 0,19 24,0 19,36 119,0 0,3 19,0z" />
<path style="fill:#666" d="M651,97 l-5,-15 -117,0 -21,-34 -28,0 0,10 24,0 19,36 119,0 0,3 9,0z" />
<path style="fill:none;stroke:#000;stroke-width:2" d="M661,97 l-6,-24 -122,0 -19,-34 -34,0 0,19 24,0 19,36 119,0 0,3 19,0" />
<path style="fill:#7f7f7f" d="M478,28 l-450,0 0,30 450,0 0,-30z" />
<path style="fill:#333" d="M478,58 l-450,0 0,9 450,0 0,-9z" />
<path style="fill:#fff" d="M478,39 l-450,0 0,9 450,0 0,-9z" />
<path style="fill:none;stroke:#000;stroke-width:2" d="M478,28 l-450,0 0,39 450,0 0,-39" />
<path style="fill:#666" d="M832,685 l-19,-4 0,-9 19,4 0,9z" />
<path style="fill:#666" d="M951,685 l19,-4 0,-9 -19,4 0,9z" />
<path style="fill:#666" d="M951,519 l19,-5 0,-10 -19,6 0,9z" />
<path style="fill:#666" d="M832,519 l-19,-5 0,-10 19,6 0,9z" />
<path style="fill:#666" d="M832,352 l-19,-4 0,-11 19,5 0,10z" />
<path style="fill:#666" d="M951,352 l19,-4 0,-11 -19,5 0,10z" />
<path style="fill:#666" d="M224,685 l-19,-4 0,-9 19,4 0,9z" />
<path style="fill:#666" d="M342,685 l19,-4 0,-9 -19,4 0,9z" />
<path style="fill:#666" d="M342,519 l19,-5 0,-10 -19,6 0,9z" />
<path style="fill:#666" d="M224,519 l-19,-5 0,-10 19,6 0,9z" />
<path style="fill:#666" d="M224,352 l-19,-4 0,-11 19,5 0,10z" />
<path style="fill:#666" d="M342,352 l19,-4 0,-11 -19,5 0,10z" />
<path style="fill:#e5e5e5" d="M361,308 l-19,-5 0,-10 19,6 0,9z" />
<path style="fill:#e5e5e5" d="M205,308 l19,-5 0,-10 -19,6 0,9z" />
<path style="fill:#e5e5e5" d="M361,476 l-19,-6 0,-9 19,4 0,11z" />
<path style="fill:#e5e5e5" d="M205,476 l19,-6 0,-9 -19,4 0,11z" />
<path style="fill:#e5e5e5" d="M361,642 l-19,-6 0,-9 19,5 0,10z" />
<path style="fill:#e5e5e5" d="M205,642 l19,-6 0,-9 -19,5 0,10z" />
<path style="fill:#e5e5e5" d="M970,308 l-19,-5 0,-10 19,6 0,9z" />
<path style="fill:#e5e5e5" d="M813,308 l19,-5 0,-10 -19,6 0,9z" />
<path style="fill:#e5e5e5" d="M970,476 l-19,-6 0,-9 19,4 0,11z" />
<path style="fill:#e5e5e5" d="M813,476 l19,-6 0,-9 -19,4 0,11z" />
<path style="fill:#e5e5e5" d="M970,642 l-19,-6 0,-9 19,5 0,10z" />
<path style="fill:#e5e5e5" d="M813,642 l19,-6 0,-9 -19,5 0,10z" />
<path style="fill:#b2b2b2" d="M342,676 l0,-40 19,6 0,30 -19,4z" />
<path style="fill:#b2b2b2" d="M224,676 l0,-40 -19,6 0,30 19,4z" />
<path style="fill:#b2b2b2" d="M224,510 l0,-40 -19,6 0,28 19,6z" />
<path style="fill:#b2b2b2" d="M224,342 l0,-39 -19,5 0,29 19,5z" />
<path style="fill:#b2b2b2" d="M342,342 l0,-39 19,5 0,29 -19,5z" />
<path style="fill:#b2b2b2" d="M342,510 l0,-40 19,6 0,28 -19,6z" />
<path style="fill:#b2b2b2" d="M951,676 l0,-40 19,6 0,30 -19,4z" />
<path style="fill:#b2b2b2" d="M832,676 l0,-40 -19,6 0,30 19,4z" />
<path style="fill:#b2b2b2" d="M832,510 l0,-40 -19,6 0,28 19,6z" />
<path style="fill:#b2b2b2" d="M832,342 l0,-39 -19,5 0,29 19,5z" />
<path style="fill:#b2b2b2" d="M951,342 l0,-39 19,5 0,29 -19,5z" />
<path style="fill:#b2b2b2" d="M951,510 l0,-40 19,6 0,28 -19,6z" />
<path style="fill:none;stroke:#000;stroke-width:2" d="M950,519 l20,-4 0,-50 -20,-4 0,58" />
<path style="fill:none;stroke:#000;stroke-width:2" d="M950,686 l20,-5 0,-49 -20,-5 0,59" />
<path style="fill:none;stroke:#000;stroke-width:2" d="M950,352 l20,-4 0,-50 -20,-4 0,58" />
<path style="fill:none;stroke:#000;stroke-width:2" d="M832,519 l-19,-4 0,-50 19,-4 0,58" />
<path style="fill:none;stroke:#000;stroke-width:2" d="M832,686 l-20,-5 0,-49 20,-5 0,59" />
<path style="fill:none;stroke:#000;stroke-width:2" d="M832,352 l-20,-4 0,-50 20,-4 0,58" />
<path style="fill:none;stroke:#000;stroke-width:2" d="M342,519 l20,-4 0,-50 -20,-4 0,58" />
<path style="fill:none;stroke:#000;stroke-width:2" d="M342,686 l19,-5 0,-49 -19,-5 0,59" />
<path style="fill:none;stroke:#000;stroke-width:2" d="M342,352 l19,-4 0,-50 -19,-4 0,58" />
<path style="fill:none;stroke:#000;stroke-width:2" d="M224,519 l-19,-4 0,-50 19,-4 0,58" />
<path style="fill:none;stroke:#000;stroke-width:2" d="M224,686 l-20,-5 0,-49 20,-5 0,59" />
<path style="fill:none;stroke:#000;stroke-width:2" d="M224,352 l-20,-4 0,-50 20,-4 0,58" />
<path style="fill:none;stroke:#000;stroke-width:2" d="M342,627 l0,-294" />
<path style="fill:none;stroke:#000;stroke-width:2" d="M282,274 l0,432" />
<path style="fill:none;stroke:#000;stroke-width:2" d="M891,274 l0,432" />
<path style="fill:none;stroke:#000;stroke-width:2" d="M832,647 l0,-314" />
<path style="fill:none;stroke:#000;stroke-width:2" d="M742,215 l-310,0" />
<path style="fill:none;stroke:#000;stroke-width:2" d="M742,145 l-310,0" />

</svg>
