<?xml version="1.0" encoding="utf-8" standalone="no"?><!DOCTYPE svg PUBLIC "-//W3C//DTD SVG 1.1//EN" "http://www.w3.org/Graphics/SVG/1.1/DTD/svg11-flat-20030114.dtd"><svg width="599" height="999" version="1.1" xmlns="http://www.w3.org/2000/svg" xmlns:xlink="http://www.w3.org/1999/xlink">

<path style="fill:#4c4c4c;stroke:#000;stroke-width:2" d="M419,702 l-210,0 0,23 210,0 0,-23z" />
<path style="fill:#999;stroke:#000;stroke-width:2" d="M28,744 l44,0 0,226 -44,0 0,-226z" />
<path style="fill:#999;stroke:#000;stroke-width:2" d="M239,812 l-167,-23 0,137 167,-23 0,-91z" />
<path style="fill:#999;stroke:#000;stroke-width:2" d="M405,789 l-151,0 -15,23 0,91 15,23 151,0 0,-137z" />
<path style="fill:#999;stroke:#000;stroke-width:2" d="M419,744 l45,0 0,226 -45,0 0,-226z" />
<path style="fill:#999;stroke:#000;stroke-width:2" d="M375,692 l-121,0 0,45 121,0 0,-45z" />
<path style="fill:#999;stroke:#000;stroke-width:2" d="M254,323 l-30,0 0,407 30,0 0,-407z" />
<path style="fill:#999;stroke:#000;stroke-width:2" d="M338,323 l-47,0 0,312 47,0 0,-312z" />
<path style="fill:#999;stroke:#000;stroke-width:2" d="M405,323 l-30,0 0,407 30,0 0,-407z" />
<path style="fill:#666;stroke:#000;stroke-width:2" d="M566,482 l0,-14 -1,-14 -2,-15 -3,-16 -4,-16 -4,-15 -6,-16 -6,-15 -7,-14 -8,-12 -9,-12 -11,-10 -11,-9 -12,-6 -13,-3 -14,-2 0,8 12,1 11,4 11,6 10,7 9,10 9,11 8,12 6,13 7,14 5,15 5,15 4,15 3,15 2,15 1,14 1,14 7,0z" />
<path style="fill:#191919;stroke:#000;stroke-width:2" d="M457,303 l0,-15 -15,0 0,15 15,0z" />
<path style="fill:#333;stroke:#000;stroke-width:2" d="M541,427 l-454,0 0,156 454,0 0,-156z" />
<path style="fill:#666" d="M534,435 l-439,0 0,14 439,0 0,-14z" />
<path style="fill:#191919" d="M534,551 l-439,0 0,28 439,0 0,-28z" />
<path style="fill:#191919;stroke:#000;stroke-width:2" d="M457,390 l-285,0 0,225 285,0 0,-225z" />
<path style="fill:#333;stroke:#000;stroke-width:2" d="M363,149 l0,-62 4,0 0,-59 -106,0 0,59 5,0 0,62 97,0z" />
<path style="fill:#ff0;stroke:#000;stroke-width:2" d="M491,239 l-2,-23 -25,0 -15,-52 -270,0 -15,52 -22,0 -5,23 354,0z" />
<path style="fill:#7f7f7f;stroke:#000;stroke-width:2" d="M405,206 l-35,0 0,10 35,0 0,-10z" />
<path style="fill:#7f7f7f;stroke:#000;stroke-width:2" d="M258,206 l-34,0 0,10 34,0 0,-10z" />
<path style="fill:#7f7f7f;stroke:#000;stroke-width:2" d="M179,206 l-35,0 0,10 35,0 0,-10z" />
<path style="fill:#7f7f7f;stroke:#000;stroke-width:2" d="M484,206 l-35,0 0,10 35,0 0,-10z" />
<path style="fill:#999" d="M281,144 l0,-57 -5,0 0,-54 12,0 0,54 5,0 0,57 -12,0z" />
<path style="fill:#963;stroke:#000;stroke-width:2" d="M449,397 l-270,0 0,211 270,0 0,-211z" />
<path style="fill:none;stroke:#000;stroke-width:2" d="M367,462 l-106,0 0,81 106,0 0,-81" />
<path style="fill:none;stroke:#000;stroke-width:2" d="M464,216 l-300,0" />
<path style="fill:none;stroke:#000;stroke-width:2" d="M367,87 l-106,0" />
<path style="fill:none;stroke:#000;stroke-width:2" d="M254,926 l0,-137" />
<path style="fill:#666;stroke:#000;stroke-width:2" d="M367,360 l-106,0 0,23 106,0 0,-23z" />
<path style="fill:#333" d="M298,365 l-32,0 0,15 32,0 0,-15z" />
<path style="fill:#191919;stroke:#000;stroke-width:2" d="M541,514 l30,0 0,-32 -15,0 0,14 -15,0 0,18z" />
<path style="fill:#333;stroke:#000;stroke-width:2" d="M243,318 l-47,0 0,22 47,0 0,-22z" />
<path style="fill:#000;stroke:#000;stroke-width:2" d="M355,149 l-82,0 0,15 82,0 0,-15z" />
<path style="fill:#000;stroke:#000;stroke-width:2" d="M315,338 l30,-4 30,-4 30,-3 30,-4 2,-1 11,-24 9,-27 5,-9 2,-1 32,0 -5,-22 -354,0 -3,22 4,0 26,0 2,1 10,24 9,27 7,9 32,5 30,3 30,4 23,3 8,1z" />
<path style="fill:#666;stroke:#000;stroke-width:2" d="M353,635 l-77,0 0,50 77,0 0,-50z" />
<path style="fill:#000;stroke:#000;stroke-width:2" d="M345,685 l-62,0 0,7 62,0 0,-7z" />
<path style="fill:#666;stroke:#000;stroke-width:2" d="M345,737 l-62,0 0,75 62,0 0,-75z" />
<path style="fill:#666" d="M70,968 l-37,0 0,-70 37,0 0,70z" />
<path style="fill:#666" d="M78,920 l0,-36 158,0 0,14 -158,22z" />
<path style="fill:#666" d="M462,968 l-37,0 0,-70 37,0 0,70z" />
<path style="fill:#b2b2b2" d="M70,796 l-37,0 0,-47 37,0 0,47z" />
<path style="fill:#b2b2b2" d="M78,794 l0,37 158,0 0,-15 -158,-22z" />
<path style="fill:#b2b2b2" d="M462,796 l-37,0 0,-47 37,0 0,47z" />
<path style="fill:#b2b2b2" d="M363,365 l-15,0 0,15 15,0 0,-15z" />
<path style="fill:#666;stroke:#000;stroke-width:2" d="M405,767 l14,0 0,181 -14,0 0,-181z" />
<path style="fill:#ff6;stroke:#000;stroke-width:2" d="M159,216 l8,-57 22,0 0,57 -30,0z" />
<path style="fill:#ff6;stroke:#000;stroke-width:2" d="M330,216 l-5,-57 -22,0 -5,57 32,0z" />
<path style="fill:#ff6;stroke:#000;stroke-width:2" d="M469,216 l-7,-57 -23,0 0,57 30,0z" />

</svg>
