<?xml version="1.0" encoding="utf-8" standalone="no"?><!DOCTYPE svg PUBLIC "-//W3C//DTD SVG 1.1//EN" "http://www.w3.org/Graphics/SVG/1.1/DTD/svg11-flat-20030114.dtd"><svg width="999" height="999" version="1.1" xmlns="http://www.w3.org/2000/svg" xmlns:xlink="http://www.w3.org/1999/xlink">

<path style="fill:#999" d="M806,646 l-37,-22 -55,-57 -19,-68 20,-68 54,-57 38,-22 66,-22 51,-34 34,-51 12,-60 -12,-60 -34,-51 -51,-34 -60,-12 -60,11 -51,35 -34,51 -23,66 -22,38 -57,55 -68,19 -67,-20 -58,-54 -22,-39 -21,-65 -34,-51 -51,-34 -60,-12 -60,12 -51,34 -34,51 -12,60 11,60 35,51 51,34 65,21 38,22 55,58 20,67 -20,68 -55,57 -39,23 -64,22 -51,34 -34,51 -12,60 12,60 34,51 51,34 60,12 60,-11 51,-35 34,-51 20,-66 22,-38 58,-55 67,-19 68,20 57,54 23,38 23,66 34,51 51,34 60,12 60,-12 51,-34 34,-51 12,-60 -11,-60 -35,-51 -51,-34 -67,-22z" />
<path style="fill:#ccc" d="M768,628 l-33,-19 -48,-51 -16,-59 17,-59 47,-51 34,-19 57,-19 45,-29 30,-45 10,-53 -10,-52 -30,-45 -45,-30 -52,-10 -53,10 -45,30 -29,45 -20,57 -19,33 -51,49 -59,16 -59,-17 -50,-48 -20,-33 -18,-57 -29,-45 -45,-30 -53,-10 -52,10 -45,30 -30,45 -10,52 10,53 30,45 45,29 57,19 33,19 48,50 17,59 -17,59 -48,51 -34,19 -56,20 -45,29 -30,45 -10,53 10,52 30,45 45,30 52,10 53,-10 45,-30 29,-45 18,-57 19,-34 51,-48 59,-16 59,17 50,47 20,34 20,57 29,45 45,30 53,10 52,-10 45,-30 30,-45 10,-52 -10,-53 -30,-45 -45,-29 -58,-19z" />
<path style="fill:#e5e5e5" d="M729,609 l-28,-16 -41,-43 -14,-51 14,-51 41,-43 29,-17 50,-15 38,-26 26,-39 8,-45 -8,-45 -26,-38 -38,-26 -46,-8 -45,8 -38,26 -26,38 -17,49 -16,29 -43,42 -51,14 -51,-14 -43,-42 -16,-29 -15,-49 -26,-38 -39,-26 -45,-8 -45,8 -38,26 -26,38 -8,46 8,45 26,38 38,26 49,15 29,17 42,43 14,50 -14,51 -42,43 -29,17 -49,16 -38,26 -26,39 -8,45 8,45 26,38 38,26 46,8 45,-8 38,-26 26,-38 14,-50 17,-29 43,-41 51,-14 50,14 43,41 17,30 17,49 26,38 39,26 45,8 45,-8 38,-26 26,-38 8,-46 -8,-45 -26,-38 -38,-26 -51,-16z" />
<path style="fill:none;stroke:#000;stroke-width:2" d="M806,646 l-37,-22 -55,-57 -19,-68 20,-68 54,-57 38,-22 66,-22 51,-34 34,-51 12,-60 -12,-60 -34,-51 -51,-34 -60,-12 -60,11 -51,35 -34,51 -23,66 -22,38 -57,55 -68,19 -67,-20 -58,-54 -22,-39 -21,-65 -34,-51 -51,-34 -60,-12 -60,12 -51,34 -34,51 -12,60 11,60 35,51 51,34 65,21 38,22 55,58 20,67 -20,68 -55,57 -39,23 -64,22 -51,34 -34,51 -12,60 12,60 34,51 51,34 60,12 60,-11 51,-35 34,-51 20,-66 22,-38 58,-55 67,-19 68,20 57,54 23,38 23,66 34,51 51,34 60,12 60,-12 51,-34 34,-51 12,-60 -11,-60 -35,-51 -51,-34 -67,-22" />
<circle style="fill:#fff" cx="499" cy="499" r="138" />

</svg>
