<?xml version="1.0" encoding="utf-8" standalone="no"?><!DOCTYPE svg PUBLIC "-//W3C//DTD SVG 1.1//EN" "http://www.w3.org/Graphics/SVG/1.1/DTD/svg11-flat-20030114.dtd"><svg width="683" height="999" version="1.1" xmlns="http://www.w3.org/2000/svg" xmlns:xlink="http://www.w3.org/1999/xlink">

<path style="fill:#e5e5e5;stroke:#000;stroke-width:2" d="M441,304 l-224,0 0,41 224,0 0,-41z" />
<path style="fill:#7f7f7f;stroke:#000;stroke-width:2" d="M441,622 l-224,0 19,-143 187,0 18,143z" />
<path style="fill:#666;stroke:#000;stroke-width:2" d="M386,488 l-112,0 0,124 112,0 0,-124z" />
<path style="fill:#b2b2b2" d="M631,669 l-603,0 0,264 603,0 0,-264z" />
<path style="fill:#ccc" d="M631,697 l-603,0 0,208 603,0 0,-208z" />
<path style="fill:#e5e5e5" d="M631,743 l-603,0 0,115 603,0 0,-115z" />
<path style="fill:none;stroke:#000;stroke-width:2" d="M631,669 l-603,0 0,264 603,0 0,-264" />
<path style="fill:#b2b2b2" d="M575,631 l-152,0 0,339 152,0 0,-339z" />
<path style="fill:#ccc" d="M575,669 l-152,0 0,264 152,0 0,-264z" />
<path style="fill:#e5e5e5" d="M575,727 l-152,0 0,147 152,0 0,-147z" />
<path style="fill:none;stroke:#000;stroke-width:2" d="M575,631 l-152,0 0,339 152,0 0,-339" />
<path style="fill:#b2b2b2" d="M236,631 l-152,0 0,339 152,0 0,-339z" />
<path style="fill:#ccc" d="M236,669 l-152,0 0,264 152,0 0,-264z" />
<path style="fill:#e5e5e5" d="M236,727 l-152,0 0,147 152,0 0,-147z" />
<path style="fill:none;stroke:#000;stroke-width:2" d="M236,631 l-152,0 0,339 152,0 0,-339" />
<path style="fill:#666;stroke:#000;stroke-width:2" d="M519,102 l-379,0 0,115 379,0 0,-115z" />
<path style="fill:#ccc;stroke:#000;stroke-width:2" d="M404,743 l-149,0 0,153 149,0 0,-153z" />
<path style="fill:#b2b2b2;stroke:#000;stroke-width:2" d="M612,697 l-37,0 0,65 37,0 0,-65z" />
<path style="fill:#b2b2b2;stroke:#000;stroke-width:2" d="M612,821 l-37,0 0,65 37,0 0,-65z" />
<path style="fill:#b2b2b2;stroke:#000;stroke-width:2" d="M84,697 l-37,0 0,65 37,0 0,-65z" />
<path style="fill:#b2b2b2;stroke:#000;stroke-width:2" d="M84,821 l-37,0 0,65 37,0 0,-65z" />
<path style="fill:#666;stroke:#000;stroke-width:2" d="M404,622 l-149,0 0,47 149,0 0,-47z" />
<path style="fill:#333;stroke:#000;stroke-width:2" d="M423,292 l-187,0 0,66 187,0 0,-66z" />
<path style="fill:#0000bf;stroke:#000;stroke-width:2" d="M451,358 l-243,0 0,121 243,0 0,-121z" />
<path style="fill:#00f;stroke:#000;stroke-width:2" d="M441,367 l-224,0 0,103 224,0 0,-103z" />
<path style="fill:#0000bf;stroke:#000;stroke-width:2" d="M367,460 l28,0 28,-28 0,-28 -28,-28 -28,0 -28,28 0,28 28,28z" />
<path style="fill:none;stroke:#000;stroke-width:2" d="M423,376 l-84,0 0,84 84,0 0,-84" />
<path style="fill:#0000bf;stroke:#000;stroke-width:2" d="M491,432 l-40,0 0,28 40,0 0,-28z" />
<path style="fill:#00f;stroke:#000;stroke-width:2" d="M491,395 l-40,0 0,37 40,0 0,-37z" />
<path style="fill:#7f7fff;stroke:#000;stroke-width:2" d="M491,376 l-40,0 0,19 40,0 0,-19z" />
<path style="fill:#0000bf;stroke:#000;stroke-width:2" d="M208,432 l-37,0 0,28 37,0 0,-28z" />
<path style="fill:#00f;stroke:#000;stroke-width:2" d="M208,395 l-37,0 0,37 37,0 0,-37z" />
<path style="fill:#7f7fff;stroke:#000;stroke-width:2" d="M208,376 l-37,0 0,19 37,0 0,-19z" />
<circle style="fill:#ccc;stroke:#000;stroke-width:2" cx="404" cy="584" r="28" />
<circle style="fill:#ccc;stroke:#000;stroke-width:2" cx="255" cy="584" r="28" />
<path style="fill:#666;stroke:#000;stroke-width:2" d="M519,217 l-379,0 0,38 379,0 0,-38z" />
<path style="fill:#4c4c4c;stroke:#000;stroke-width:2" d="M519,255 l-379,0 0,37 379,0 0,-37z" />
<path style="fill:#ccc;stroke:#000;stroke-width:2" d="M423,84 l-37,-56 -112,0 -38,56 187,0z" />
<path style="fill:#fff" d="M267,81 l25,-47 12,0 -6,47 -31,0z" />
<ellipse style="fill:#ccc;stroke:#000;stroke-width:2" cx="226" cy="207" rx="37" ry="39" />
<circle style="fill:#666;stroke:#000;stroke-width:2" cx="225" cy="206" r="32" />
<circle style="fill:#00f;stroke:#000;stroke-width:2" cx="227" cy="206" r="28" />
<circle style="fill:#0000bf" cx="227" cy="208" r="19" />
<path style="fill:#4c4c4c;stroke:#000;stroke-width:2" d="M140,208 l-19,0 0,66 19,0 0,-66z" />
<path style="fill:#ccc;stroke:#000;stroke-width:2" d="M121,208 l-9,0 0,66 9,0 0,-66z" />
<path style="fill:#999;stroke:#000;stroke-width:2" d="M423,84 l-187,0 0,9 187,0 0,-9z" />
<path style="fill:#999;stroke:#000;stroke-width:2" d="M423,93 l-187,0 0,9 187,0 0,-9z" />
<path style="fill:#999;stroke:#000;stroke-width:2" d="M441,314 l12,0 12,0 13,1 13,0 13,0 12,0 13,0 12,-1 12,-1 11,-2 10,-2 10,-3 9,-3 7,-5 7,-6 5,-6 4,-14 2,-15 2,-15 1,-15 0,-13 -1,-12 -1,-9 -6,-10 -3,-2 -10,-2 -12,3 -11,2 -11,2 -12,2 -13,-2 0,-27 12,0 14,-2 15,-3 16,-2 8,-1 7,0 15,3 12,7 5,6 5,7 3,15 2,16 0,7 0,7 0,14 -2,15 -3,16 -2,9 -2,9 -3,9 -3,10 -5,10 -8,7 -10,7 -11,5 -12,5 -14,3 -14,3 -15,1 -15,1 -15,1 -15,0 -15,-1 -14,-1 -13,-1 -12,-1 -11,-1 0,-4 0,-21z" />
<path style="fill:#666;stroke:#000;stroke-width:2" d="M541,146 l-22,0 0,53 22,0 0,-53z" />

</svg>
