<?xml version="1.0" encoding="utf-8" standalone="no"?><!DOCTYPE svg PUBLIC "-//W3C//DTD SVG 1.1//EN" "http://www.w3.org/Graphics/SVG/1.1/DTD/svg11-flat-20030114.dtd"><svg width="999" height="744" version="1.1" xmlns="http://www.w3.org/2000/svg" xmlns:xlink="http://www.w3.org/1999/xlink">

<path style="fill:#263a59;stroke:#000;stroke-width:2" d="M602,525 l-29,-30 0,-44 -79,74 108,0z" />
<path style="fill:none;stroke:#000;stroke-width:2" d="M794,152 l-28,-27 97,-97 28,27 -97,97" />
<path style="fill:#666" d="M815,118 l-14,-14 -28,28 14,14 28,-28z" />
<path style="fill:#405473;stroke:#000;stroke-width:2" d="M852,480 l0,236 -157,0 0,-39 -392,0 0,39 -157,0 0,-236 157,0 0,40 392,0 0,-40 157,0z" />
<path style="fill:#596d8c" d="M852,503 l0,190 -157,0 0,-31 -392,0 0,31 -157,0 0,-190 157,0 0,32 392,0 0,-32 157,0z" />
<path style="fill:#7387a6" d="M852,534 l0,129 -157,0 0,-22 -392,0 0,22 -157,0 0,-129 157,0 0,22 392,0 0,-22 157,0z" />
<path style="fill:#8ca0bf" d="M852,566 l0,65 -157,0 0,-11 -392,0 0,11 -157,0 0,-65 157,0 0,11 392,0 0,-11 157,0z" />
<path style="fill:#a6bad9" d="M852,590 l0,17 -157,0 0,-3 -392,0 0,3 -157,0 0,-17 157,0 0,3 392,0 0,-3 157,0z" />
<path style="fill:#666;stroke:#000;stroke-width:2" d="M146,517 l-118,0 0,162 118,0 0,-162z" />
<path style="fill:#666;stroke:#000;stroke-width:2" d="M970,517 l-118,0 0,162 118,0 0,-162z" />
<path style="fill:#7f7f7f" d="M146,533 l-118,0 0,131 118,0 0,-131z" />
<path style="fill:#7f7f7f" d="M970,533 l-118,0 0,131 118,0 0,-131z" />
<path style="fill:#999" d="M146,553 l-118,0 0,90 118,0 0,-90z" />
<path style="fill:#999" d="M970,553 l-118,0 0,90 118,0 0,-90z" />
<path style="fill:#b2b2b2" d="M146,575 l-118,0 0,47 118,0 0,-47z" />
<path style="fill:#b2b2b2" d="M970,575 l-118,0 0,47 118,0 0,-47z" />
<path style="fill:#ccc" d="M146,593 l-118,0 0,11 118,0 0,-11z" />
<path style="fill:#ccc" d="M970,593 l-118,0 0,11 118,0 0,-11z" />
<path style="fill:none;stroke:#000;stroke-width:2" d="M695,677 l0,-157" />
<path style="fill:none;stroke:#000;stroke-width:2" d="M303,520 l0,157" />
<path style="fill:#263a59;stroke:#000;stroke-width:2" d="M676,687 l-40,0 0,29 40,0 0,-29z" />
<path style="fill:#263a59;stroke:#000;stroke-width:2" d="M617,687 l-39,0 0,29 39,0 0,-29z" />
<path style="fill:#263a59;stroke:#000;stroke-width:2" d="M361,687 l-39,0 0,29 39,0 0,-29z" />
<path style="fill:#263a59;stroke:#000;stroke-width:2" d="M381,687 l39,0 0,29 -39,0 0,-29z" />
<path style="fill:#8ca0bf;stroke:#000;stroke-width:2" d="M661,638 l-10,0 0,49 10,0 0,-49z" />
<path style="fill:#8ca0bf;stroke:#000;stroke-width:2" d="M602,638 l-10,0 0,49 10,0 0,-49z" />
<path style="fill:#8ca0bf;stroke:#000;stroke-width:2" d="M405,638 l-9,0 0,49 9,0 0,-49z" />
<path style="fill:#8ca0bf;stroke:#000;stroke-width:2" d="M347,638 l-10,0 0,49 10,0 0,-49z" />
<path style="fill:#405473" d="M493,535 l-190,0 -1,-29 243,-242 -70,-70 97,-97 70,70 111,-56 55,56 -55,111 69,69 -97,97 -69,-69 -163,160z" />
<path style="fill:#596d8c" d="M458,546 l-154,-1 -1,-15 254,-254 -54,-54 97,-97 54,54 105,-62 43,44 -62,104 54,54 -97,97 -54,-54 -185,184z" />
<path style="fill:#7387a6" d="M427,556 l-122,-1 264,-266 -38,-39 97,-97 38,38 99,-67 31,31 -68,98 38,38 -97,97 -38,-38 -204,206z" />
<path style="fill:#8ca0bf" d="M377,577 l-70,-1 275,-275 -23,-23 97,-97 23,23 92,-74 19,18 -74,93 23,23 -97,97 -23,-23 -242,239z" />
<path style="fill:#a6bad9" d="M333,593 l-21,0 282,-280 -8,-8 97,-97 8,8 86,-80 6,6 -80,86 8,8 -97,97 -8,-8 -273,268z" />
<path style="fill:none;stroke:#000;stroke-width:2" d="M303,505 l242,-241 -70,-70 97,-97 70,70 111,-56 55,56 -55,111 69,69 -97,97 -69,-69 -147,145" />
<path style="fill:none;stroke:#000;stroke-width:2" d="M781,306 l-97,97" />
<path style="fill:none;stroke:#000;stroke-width:2" d="M739,264 l-97,97" />
<path style="fill:none;stroke:#000;stroke-width:2" d="M697,222 l-97,97" />
<path style="fill:none;stroke:#000;stroke-width:2" d="M655,180 l-97,98" />
<path style="fill:none;stroke:#000;stroke-width:2" d="M614,139 l-97,97" />
<path style="fill:none;stroke:#000;stroke-width:2" d="M753,278 l-111,-111" />
<path style="fill:none;stroke:#000;stroke-width:2" d="M545,264 l111,111" />
<path style="fill:none;stroke:#fff;stroke-width:2" d="M787,125 l31,-32" />
<path style="fill:none;stroke:#fff;stroke-width:2" d="M803,117 l32,-31" />
<path style="fill:none;stroke:#263a59;stroke-width:2" d="M587,446 l-113,-113" />

</svg>
