<?xml version="1.0" encoding="utf-8" standalone="no"?><!DOCTYPE svg PUBLIC "-//W3C//DTD SVG 1.1//EN" "http://www.w3.org/Graphics/SVG/1.1/DTD/svg11-flat-20030114.dtd"><svg width="999" height="995" version="1.1" xmlns="http://www.w3.org/2000/svg" xmlns:xlink="http://www.w3.org/1999/xlink">

<path style="fill:#999" d="M861,135 l-53,55 107,109 55,-54 -109,-110z" />
<path style="fill:#ccc" d="M861,135 l-53,55 -109,-108 54,-54 108,107z" />
<path style="fill:none;stroke:#000;stroke-width:2" d="M753,28 l-54,54 216,217 55,-54 -217,-217" />
<path style="fill:#7f7f7f" d="M947,621 l-919,0 0,345 919,0 0,-345z" />
<path style="fill:#8c8c8c" d="M947,636 l-919,0 0,315 919,0 0,-315z" />
<path style="fill:#999" d="M947,652 l-919,0 0,284 919,0 0,-284z" />
<path style="fill:#a6a6a6" d="M947,667 l-919,0 0,252 919,0 0,-252z" />
<path style="fill:#b2b2b2" d="M947,682 l-919,0 0,222 919,0 0,-222z" />
<path style="fill:#bfbfbf" d="M947,699 l-919,0 0,190 919,0 0,-190z" />
<path style="fill:#ccc" d="M947,714 l-919,0 0,160 919,0 0,-160z" />
<path style="fill:#d9d9d9" d="M947,729 l-919,0 0,130 919,0 0,-130z" />
<path style="fill:#e5e5e5" d="M947,744 l-919,0 0,100 919,0 0,-100z" />
<path style="fill:#f2f2f2" d="M947,759 l-919,0 0,70 919,0 0,-70z" />
<path style="fill:#fff" d="M947,774 l-919,0 0,40 919,0 0,-40z" />
<path style="fill:#666" d="M786,621 l-10,0 0,345 10,0 0,-345z" />
<path style="fill:#666" d="M114,621 l-9,0 0,345 9,0 0,-345z" />
<path style="fill:#666" d="M565,966 l-77,-58 -76,58 153,0z" />
<path style="fill:#4c4c4c" d="M533,942 l-45,-34 -44,34 89,0z" />
<path style="fill:none;stroke:#b2b2b2;stroke-width:2" d="M850,761 l-12,11 -5,14 0,15 5,15 12,11 15,6 15,0 13,-6" />
<path style="fill:none;stroke:#4c4c4c;stroke-width:2" d="M893,827 l11,-11 6,-13 0,-17 -6,-14 -11,-11 -13,-6 -15,0 -15,6" />
<path style="fill:none;stroke:#b2b2b2;stroke-width:2" d="M45,761 l-12,11 -5,14 0,15 5,15 12,11 15,6 15,0 13,-6" />
<path style="fill:none;stroke:#4c4c4c;stroke-width:2" d="M88,827 l11,-11 6,-13 0,-17 -6,-14 -11,-11 -13,-6 -15,0 -15,6" />
<path style="fill:none;stroke:#000;stroke-width:2" d="M947,621 l-919,0 0,345 919,0 0,-345" />
<path style="fill:#7f7f7f" d="M704,47 l-586,589 485,0 344,-344 -243,-245z" />
<path style="fill:#8c8c8c" d="M714,58 l-594,594 445,0 371,-372 -222,-222z" />
<path style="fill:#999" d="M725,69 l-598,598 400,1 400,-399 -202,-200z" />
<path style="fill:#a6a6a6" d="M736,79 l-603,603 358,0 424,-424 -179,-179z" />
<path style="fill:#b2b2b2" d="M748,90 l-609,609 315,0 450,-451 -156,-158z" />
<path style="fill:#bfbfbf" d="M757,101 l-613,613 272,0 477,-477 -136,-136z" />
<path style="fill:#ccc" d="M769,112 l-617,617 228,0 502,-503 -113,-114z" />
<path style="fill:#d9d9d9" d="M780,122 l-622,622 184,0 530,-530 -92,-92z" />
<path style="fill:#e5e5e5" d="M791,133 l-628,626 142,2 556,-558 -70,-70z" />
<path style="fill:#f2f2f2" d="M801,144 l-630,630 96,0 583,-581 -49,-49z" />
<path style="fill:#fff" d="M812,156 l-620,620 54,0 594,-594 -28,-26z" />
<path style="fill:#000" d="M653,97 l-5,8 243,243 8,-7 -246,-244z" />
<path style="fill:#666" d="M542,207 l-7,7 245,243 6,-5 -244,-245z" />
<path style="fill:none;stroke:#000;stroke-width:2" d="M618,621 l329,-329 -243,-245 -571,574" />
<path style="fill:none;stroke:#b2b2b2;stroke-width:2" d="M697,245 l-12,11 -5,13 0,15 5,15 12,10 13,5 15,0 15,-5" />
<path style="fill:none;stroke:#4c4c4c;stroke-width:2" d="M740,309 l10,-10 7,-15 0,-15 -5,-13 -12,-11 -15,-6 -15,0 -13,6" />
<path style="fill:none;stroke:#000;stroke-width:2" d="M900,339 l0,-96 -99,0 0,-100 -97,0 0,-96" />
<path style="fill:none;stroke:#000;stroke-width:2" d="M655,95 l97,0 0,100 99,0 0,97 93,0" />
<path style="fill:none;stroke:#000;stroke-width:2" d="M727,71 l0,96 96,0 0,100 102,0 0,47 -49,0 0,-94 -100,0 0,-102 -96,0 0,-47 47,0" />

</svg>
