<?xml version="1.0" encoding="utf-8" standalone="no"?><!DOCTYPE svg PUBLIC "-//W3C//DTD SVG 1.1//EN" "http://www.w3.org/Graphics/SVG/1.1/DTD/svg11-flat-20030114.dtd"><svg width="880" height="999" version="1.1" xmlns="http://www.w3.org/2000/svg" xmlns:xlink="http://www.w3.org/1999/xlink">

<path style="fill:#fff;stroke:#000;stroke-width:2" d="M28,364 l0,-185 420,-1 0,18 -404,0 0,152 85,0 0,16 -101,0z" />
<path style="fill:#00f;stroke:#000;stroke-width:2" d="M768,667 l-134,0 0,85 134,0 0,-85z" />
<path style="fill:#00f;stroke:#000;stroke-width:2" d="M819,448 l0,186 -34,33 -168,0 -33,-33 -1,-186 34,0 0,169 17,17 134,0 17,-17 0,-169 34,0z" />
<path style="fill:#00f;stroke:#000;stroke-width:2" d="M785,752 l0,33 16,17 0,101 -16,51 -169,0 -17,-51 0,-101 17,-17 0,-33 169,0z" />
<path style="fill:#000;stroke:#000;stroke-width:2" d="M801,903 l17,0 0,-101 -17,0 0,101z" />
<path style="fill:#000;stroke:#000;stroke-width:2" d="M583,903 l16,0 0,-101 -16,0 0,101z" />
<path style="fill:#00f;stroke:#000;stroke-width:2" d="M851,734 l-33,0 0,236 33,0 0,-236z" />
<path style="fill:#00f;stroke:#000;stroke-width:2" d="M582,734 l-33,0 0,236 33,0 0,-236z" />
<path style="fill:#00f;stroke:#000;stroke-width:2" d="M836,432 l-270,0 0,16 270,0 0,-16z" />
<path style="fill:#7f7f7f;stroke:#000;stroke-width:2" d="M752,583 l-34,0 0,51 34,0 0,-51z" />
<path style="fill:#7f7f7f;stroke:#000;stroke-width:2" d="M684,583 l-34,0 0,51 34,0 0,-51z" />
<path style="fill:#000;stroke:#000;stroke-width:2" d="M768,566 l-134,0 0,17 134,0 0,-17z" />
<path style="fill:#7f7f7f;stroke:#000;stroke-width:2" d="M734,448 l-66,0 0,118 66,0 0,-118z" />
<path style="fill:#00f;stroke:#000;stroke-width:2" d="M852,230 l-302,0 0,202 302,0 0,-202z" />
<circle style="fill:#000;stroke:#000;stroke-width:2" cx="751" cy="398" r="16" />
<circle style="fill:#000;stroke:#000;stroke-width:2" cx="650" cy="398" r="16" />
<circle style="fill:#000;stroke:#000;stroke-width:2" cx="726" cy="356" r="8" />
<path style="fill:#00f;stroke:#000;stroke-width:2" d="M533,415 l-112,17 -192,-1 0,-151 192,0 112,17 0,118z" />
<path style="fill:#000;stroke:#000;stroke-width:2" d="M550,297 l-17,0 0,118 17,0 0,-118z" />
<path style="fill:none;stroke:#000;stroke-width:2" d="M432,432 l0,-152" />
<path style="fill:#fff;stroke:#7f7f7f;stroke-width:2" d="M415,297 l-151,0 0,67 151,0 0,-67z" />
<path style="fill:#00f;stroke:#000;stroke-width:2" d="M196,280 l-67,0 0,152 67,0 0,-152z" />
<path style="fill:none;stroke:#000;stroke-width:2" d="M213,230 l0,252" />
<path style="fill:#7f7f7f;stroke:#7f7f7f;stroke-width:2" d="M196,246 l-34,0 0,17 34,0 0,-17z" />
<path style="fill:#7f7f7f;stroke:#7f7f7f;stroke-width:2" d="M196,348 l-34,0 0,16 34,0 0,-16z" />
<path style="fill:#7f7f7f;stroke:#7f7f7f;stroke-width:2" d="M196,448 l-34,0 0,17 34,0 0,-17z" />
<path style="fill:#00f;stroke:#000;stroke-width:2" d="M230,230 l-34,0 0,252 34,0 0,-252z" />
<path style="fill:#000;stroke:#000;stroke-width:2" d="M802,213 l-354,0 0,-185 354,0 0,185z" />
<path style="fill:#00f;stroke:#000;stroke-width:2" d="M768,213 l-134,0 0,17 134,0 0,-17z" />
<path style="fill:#00f;stroke:#00f;stroke-width:2" d="M499,78 l-33,0 0,84 33,0 0,-84z" />
<path style="fill:#000;stroke:#000;stroke-width:2" d="M381,348 l-84,0 0,-1 84,0 0,1z" />

</svg>
