<?xml version="1.0" encoding="utf-8" standalone="no"?><!DOCTYPE svg PUBLIC "-//W3C//DTD SVG 1.1//EN" "http://www.w3.org/Graphics/SVG/1.1/DTD/svg11-flat-20030114.dtd"><svg width="591" height="999" version="1.1" xmlns="http://www.w3.org/2000/svg" xmlns:xlink="http://www.w3.org/1999/xlink">

<path style="fill:#960" d="M478,950 l-107,20 -87,0 -85,-20 -21,-44 -43,-21 -21,-43 0,-215 21,-21 43,-20 21,-23 21,-128 0,-128 22,-23 65,-21 64,0 64,21 21,23 0,128 22,128 21,23 43,20 21,21 0,215 -21,43 -43,21 -21,44z" />
<path style="fill:#a3700a" d="M461,950 l-94,20 -75,0 -78,-20 -19,-44 -37,-22 -19,-42 0,-215 19,-21 37,-22 19,-21 19,-128 0,-128 21,-23 56,-21 57,0 56,21 19,23 0,128 19,128 19,21 38,22 19,21 0,215 -19,42 -38,22 -19,44z" />
<path style="fill:#ab7812" d="M444,950 l-81,20 -66,0 -66,-20 -17,-44 -32,-22 -17,-42 0,-215 17,-21 32,-22 17,-21 17,-128 0,-128 15,-23 51,-21 49,0 49,21 17,23 0,128 15,128 17,21 34,22 15,21 0,215 -15,42 -34,22 -17,44z" />
<path style="fill:#b5821c" d="M429,950 l-70,20 -56,0 -55,-20 -15,-44 -28,-22 -13,-42 0,-215 13,-21 28,-22 15,-21 14,-128 0,-128 13,-23 43,-21 41,0 42,21 13,23 0,128 15,128 13,21 29,22 13,21 0,215 -13,42 -29,22 -13,44z" />
<path style="fill:#bf8c26" d="M412,950 l-56,20 -46,0 -47,-20 -11,-44 -23,-22 -11,-42 0,-215 11,-21 23,-22 11,-21 12,-128 0,-128 11,-23 36,-21 34,0 33,21 12,23 0,128 11,128 11,21 25,22 11,21 0,215 -11,42 -25,22 -11,44z" />
<path style="fill:#c99630" d="M397,950 l-45,20 -36,0 -36,-20 -9,-44 -19,-22 -7,-42 0,-215 7,-21 19,-22 9,-21 8,-128 0,-128 9,-23 29,-21 26,0 26,21 10,23 0,128 9,128 8,21 18,22 10,21 0,215 -10,42 -18,22 -8,44z" />
<path style="fill:#d19e38" d="M380,950 l-32,20 -26,0 -27,-20 -5,-44 -14,-22 -7,-42 0,-215 7,-21 14,-22 5,-21 8,-128 0,-128 6,-23 20,-21 19,0 19,21 8,23 0,128 5,128 8,21 13,22 5,21 0,215 -5,42 -13,22 -8,44z" />
<path style="fill:#dba842" d="M363,950 l-19,20 -17,0 -15,-20 -3,-44 -10,-22 -4,-42 0,-215 14,-43 3,-21 4,-128 0,-128 4,-23 13,-21 11,0 12,21 3,23 0,128 4,128 13,43 4,21 0,215 -4,42 -7,22 -6,44z" />
<ellipse style="fill:#e5b24c" cx="338" cy="616" rx="16" ry="353" />
<path style="fill:none;stroke:#000;stroke-width:2" d="M478,950 l-107,20 -87,0 -85,-20 -21,-44 -43,-21 -21,-43 0,-215 21,-21 43,-20 21,-23 21,-128 0,-128 22,-23 65,-21 64,0 64,21 21,23 0,128 22,128 21,23 43,20 21,21 0,215 -21,43 -43,21 -21,44" />
<path style="fill:#7f7f7f" d="M392,28 l-106,0 -17,17 0,230 140,0 0,-230 -17,-17z" />
<path style="fill:#919191" d="M380,28 l-85,0 -11,17 0,230 109,0 0,-230 -13,-17z" />
<path style="fill:#a6a6a6" d="M369,28 l-62,0 -10,17 0,230 81,0 0,-230 -9,-17z" />
<path style="fill:#b8b8b8" d="M358,28 l-40,0 -6,17 0,230 51,0 0,-230 -5,-17z" />
<path style="fill:#ccc" d="M346,28 l-15,0 -4,17 0,230 21,0 0,-230 -2,-17z" />
<path style="fill:none;stroke:#000;stroke-width:2" d="M392,28 l-106,0 -17,17 0,230 140,0 0,-230 -17,-17" />
<path style="fill:#960" d="M41,874 l126,0 38,-34 21,-60 0,-70 -21,-58 -38,-34 -126,0 -8,34 -5,58 0,70 5,60 8,34z" />
<path style="fill:#a16e08" d="M41,854 l136,0 32,-29 17,-51 0,-58 -17,-51 -32,-28 -136,0 -8,28 -5,51 0,58 5,51 8,29z" />
<path style="fill:#ab7812" d="M41,835 l145,0 26,-25 14,-41 0,-47 -14,-42 -26,-24 -145,0 -8,24 -5,42 0,47 5,41 8,25z" />
<path style="fill:#b27f19" d="M41,814 l154,0 19,-17 12,-34 0,-36 -12,-32 -19,-19 -154,0 -8,19 -5,32 0,36 5,34 8,17z" />
<path style="fill:#ba8721" d="M41,795 l166,0 11,-13 8,-23 0,-26 -8,-25 -11,-13 -166,0 -8,13 -5,25 0,26 5,23 8,13z" />
<path style="fill:#c4912b" d="M41,776 l175,0 6,-9 4,-14 0,-17 -4,-13 -6,-7 -175,0 -8,7 -5,13 0,17 5,14 8,9z" />
<path style="fill:#c93" d="M41,756 l185,0 0,-3 0,-5 0,-6 0,-3 0,-4 -185,0 -8,4 -5,3 0,6 5,5 8,3z" />
<path style="fill:none;stroke:#000;stroke-width:2" d="M129,618 l-88,0 -8,34 -5,58 0,70 5,60 8,34 88,0" />
<path style="fill:#7f7f7f;stroke:#000;stroke-width:2" d="M269,248 l0,-172 -49,70 0,38 49,64z" />
<path style="fill:#b2b2b2;stroke:#000;stroke-width:2" d="M520,456 l-80,-268 -182,0 0,-59 192,0 55,38 32,59 11,86 -6,144 -22,0z" />
<path style="fill:#e5e5e5" d="M525,312 l-9,-64 -26,-60 -33,-27 -48,-9 -134,-11 181,0 43,32 32,58 6,81 -2,123 -10,-123z" />
<ellipse style="fill:#630" cx="49" cy="746" rx="16" ry="90" />
<path style="fill:#ccc" d="M420,450 l-162,0 -10,130 181,0 -9,-130z" />
<path style="fill:#c2c2c2" d="M254,495 l-6,85 181,0 -3,-49 -172,-36z" />
<path style="fill:none;stroke:#999;stroke-width:2" d="M423,558 l-165,0" />
<path style="fill:none;stroke:#999;stroke-width:2" d="M414,488 l-151,0" />
<path style="fill:none;stroke:#999;stroke-width:2" d="M420,520 l-157,0" />

</svg>
