<?xml version="1.0" encoding="utf-8" standalone="no"?><!DOCTYPE svg PUBLIC "-//W3C//DTD SVG 1.1//EN" "http://www.w3.org/Graphics/SVG/1.1/DTD/svg11-flat-20030114.dtd"><svg width="759" height="999" version="1.1" xmlns="http://www.w3.org/2000/svg" xmlns:xlink="http://www.w3.org/1999/xlink">

<path style="fill:#191919;stroke:#000;stroke-width:2" d="M514,416 l-269,0 0,23 269,0 0,-23z" />
<path style="fill:#999;stroke:#000;stroke-width:2" d="M184,116 l-141,0 0,151 141,0 0,-151z" />
<path style="fill:#666" d="M177,222 l-127,0 0,38 127,0 0,-38z" />
<path style="fill:#b2b2b2" d="M177,154 l-127,0 0,-23 127,0 0,23z" />
<path style="fill:#999;stroke:#000;stroke-width:2" d="M96,88 l-8,0 0,209 8,0 0,-209z" />
<path style="fill:#999;stroke:#000;stroke-width:2" d="M118,28 l-22,0 0,330 22,0 0,-330z" />
<path style="fill:#999;stroke:#000;stroke-width:2" d="M139,28 l-21,0 0,330 21,0 0,-330z" />
<path style="fill:#999;stroke:#000;stroke-width:2" d="M199,88 l-15,0 0,209 15,0 0,-209z" />
<path style="fill:#666" d="M135,245 l-13,0 0,109 13,0 0,-109z" />
<path style="fill:#666" d="M114,245 l-15,0 0,109 15,0 0,-109z" />
<path style="fill:#666" d="M196,199 l-8,0 0,95 8,0 0,-95z" />
<path style="fill:#b2b2b2" d="M135,139 l-13,0 0,-85 13,0 0,85z" />
<path style="fill:#b2b2b2" d="M114,139 l-15,0 0,-85 15,0 0,85z" />
<path style="fill:#b2b2b2" d="M196,177 l-8,0 0,-70 8,0 0,70z" />
<path style="fill:#4c4c4c;stroke:#000;stroke-width:2" d="M96,65 l-8,0 0,-22 8,0 0,22z" />
<path style="fill:#4c4c4c;stroke:#000;stroke-width:2" d="M96,343 l-8,0 0,-23 8,0 0,23z" />
<path style="fill:#4c4c4c;stroke:#000;stroke-width:2" d="M96,147 l-8,0 0,-23 8,0 0,23z" />
<path style="fill:#4c4c4c;stroke:#000;stroke-width:2" d="M96,260 l-8,0 0,-23 8,0 0,23z" />
<path style="fill:#999;stroke:#000;stroke-width:2" d="M559,58 l-360,0 0,358 360,0 0,-358z" />
<path style="fill:#191919;stroke:#000;stroke-width:2" d="M533,73 l-2,0 -6,3 -3,8 5,8 4,2 4,0 8,-6 1,-4 -3,-8 -6,-3 -2,0z" />
<path style="fill:#191919;stroke:#000;stroke-width:2" d="M226,378 l-8,4 -4,8 4,8 5,3 5,0 8,-6 1,-5 -3,-8 -8,-4z" />
<path style="fill:#999;stroke:#000;stroke-width:2" d="M43,940 l68,0 0,-358 -68,0 0,358z" />
<path style="fill:#999;stroke:#000;stroke-width:2" d="M484,567 l0,45 8,26 20,22 27,10 5,1 104,7 0,166 -33,2 -32,2 -32,3 -29,5 -23,18 -14,25 -1,11 0,60 -209,0 0,-60 -8,-27 -20,-21 -27,-10 -6,-1 -103,-7 0,-166 32,-2 33,-2 32,-3 29,-6 23,-17 13,-25 2,-11 0,-45 209,0z" />
<path style="fill:#999;stroke:#000;stroke-width:2" d="M648,940 l68,0 0,-358 -68,0 0,358z" />
<path style="fill:#b2b2b2" d="M107,612 l-60,0 0,62 60,0 0,-62z" />
<path style="fill:#b2b2b2" d="M712,612 l-60,0 0,62 60,0 0,-62z" />
<ellipse style="fill:#b2b2b2" cx="379" cy="730" rx="165" ry="90" />
<path style="fill:#4c4c4c;stroke:#000;stroke-width:2" d="M552,582 l-53,0 0,-158 53,0 0,158z" />
<path style="fill:#4c4c4c;stroke:#000;stroke-width:2" d="M454,582 l-53,0 0,-158 53,0 0,158z" />
<path style="fill:#4c4c4c;stroke:#000;stroke-width:2" d="M358,582 l-53,0 0,-158 53,0 0,158z" />
<path style="fill:#4c4c4c;stroke:#000;stroke-width:2" d="M260,582 l-53,0 0,-158 53,0 0,158z" />
<path style="fill:#999" d="M574,439 l-390,0 0,45 390,0 0,-45z" />
<path style="fill:#999;stroke:#000;stroke-width:2" d="M574,484 l-390,0 0,83 390,0 0,-83z" />
<path style="fill:#b2b2b2" d="M529,439 l-300,0 0,45 300,0 0,-45z" />
<path style="fill:#b2b2b2" d="M529,484 l-300,0 0,83 300,0 0,-83z" />
<path style="fill:#ccc" d="M461,439 l-164,0 0,45 164,0 0,-45z" />
<path style="fill:#ccc" d="M461,484 l-164,0 0,83 164,0 0,-83z" />
<path style="fill:#e5e5e5" d="M416,439 l-73,0 0,45 73,0 0,-45z" />
<path style="fill:#e5e5e5" d="M416,484 l-73,0 0,83 73,0 0,-83z" />
<path style="fill:#fff" d="M386,439 l-13,0 0,45 13,0 0,-45z" />
<path style="fill:#fff" d="M386,484 l-13,0 0,83 13,0 0,-83z" />
<path style="fill:none;stroke:#000;stroke-width:2" d="M574,439 l-390,0 0,45 390,0 0,-45" />
<path style="fill:#ccc;stroke:#7f7f7f;stroke-width:2" d="M320,88 l-91,0 0,43 91,0 0,-43z" />
<path style="fill:#ccc;stroke:#7f7f7f;stroke-width:2" d="M424,507 l-89,0 0,45 89,0 0,-45z" />
<path style="fill:#4c4c4c;stroke:#000;stroke-width:2" d="M43,648 l-15,0 0,224 15,0 0,-224z" />
<path style="fill:#4c4c4c;stroke:#000;stroke-width:2" d="M731,648 l-15,0 0,224 15,0 0,-224z" />
<path style="fill:#666" d="M275,872 l-53,-81 -104,0 0,45 111,6 46,30z" />
<path style="fill:#666" d="M484,872 l53,-81 103,0 0,45 -111,6 -45,30z" />
<path style="fill:#666" d="M712,821 l-60,0 0,115 60,0 0,-115z" />
<path style="fill:#666" d="M107,821 l-60,0 0,115 60,0 0,-115z" />
<path style="fill:#666" d="M282,895 l0,68 194,0 0,-68 -10,3 -11,3 -12,3 -12,2 -13,2 -13,1 -13,1 -14,0 -12,0 -13,-1 -13,-1 -13,-2 -12,-2 -11,-3 -12,-3 -10,-3z" />
<path style="fill:#333;stroke:#000;stroke-width:2" d="M386,761 l-13,0 0,-98 13,0 0,98z" />
<path style="fill:#333;stroke:#000;stroke-width:2" d="M207,814 l345,0 22,-19 0,-4 -14,-21 -8,-1 -345,0 -22,17 -1,5 19,22 4,1z" />
<path style="fill:#999;stroke:#000;stroke-width:2" d="M401,686 l-43,0 0,22 43,0 0,-22z" />
<path style="fill:#999;stroke:#000;stroke-width:2" d="M409,746 l-59,0 0,15 59,0 0,-15z" />
<path style="fill:#666;stroke:#000;stroke-width:2" d="M409,708 l-59,0 0,30 59,0 0,-30z" />
<path style="fill:#666;stroke:#000;stroke-width:2" d="M424,761 l-89,0 0,60 89,0 0,-60z" />
<path style="fill:#900;stroke:#000;stroke-width:2" d="M335,640 l-15,0 53,23 13,0 53,-23 -15,0 -38,15 0,-15 -13,0 0,15 -38,-15z" />
<path style="fill:#f00;stroke:#000;stroke-width:2" d="M461,633 l-164,0 0,7 164,0 0,-7z" />

</svg>
