<?xml version="1.0" encoding="utf-8" standalone="no"?><!DOCTYPE svg PUBLIC "-//W3C//DTD SVG 1.1//EN" "http://www.w3.org/Graphics/SVG/1.1/DTD/svg11-flat-20030114.dtd"><svg width="881" height="999" version="1.1" xmlns="http://www.w3.org/2000/svg" xmlns:xlink="http://www.w3.org/1999/xlink">

<path style="fill:#b2e5e5;stroke:#000;stroke-width:2" d="M695,420 l-157,0 0,550 157,0 0,-550z" />
<path style="fill:#b2e5e5;stroke:#000;stroke-width:2" d="M774,303 l78,-79 0,-118 -78,-78 -314,0 -79,78 0,118 79,79 78,0 0,117 157,0 0,-117 79,0z" />
<path style="fill:none;stroke:#000;stroke-width:2" d="M813,263 l0,-196" />
<path style="fill:none;stroke:#000;stroke-width:2" d="M774,303 l0,-275" />
<path style="fill:none;stroke:#000;stroke-width:2" d="M460,303 l0,-275" />
<path style="fill:none;stroke:#000;stroke-width:2" d="M420,263 l0,-196" />
<path style="fill:none;stroke:#000;stroke-width:2" d="M774,165 l-314,0" />
<path style="fill:none;stroke:#000;stroke-width:2" d="M774,97 l-314,0" />
<path style="fill:none;stroke:#000;stroke-width:2" d="M774,234 l-314,0" />
<path style="fill:none;stroke:#000;stroke-width:2" d="M695,303 l-157,0" />
<path style="fill:none;stroke:#000;stroke-width:2" d="M617,420 l0,550" />
<path style="fill:none;stroke:#000;stroke-width:2" d="M656,420 l0,550" />
<path style="fill:none;stroke:#000;stroke-width:2" d="M578,420 l0,550" />
<path style="fill:#b2e5e5;stroke:#000;stroke-width:2" d="M813,892 l39,0 0,-275 -39,0 0,39 -667,0 -79,-78 -39,0 0,353 39,0 79,-79 667,0 0,40z" />
<path style="fill:none;stroke:#000;stroke-width:2" d="M813,852 l0,-196" />
<path style="fill:none;stroke:#000;stroke-width:2" d="M146,852 l0,-196" />
<path style="fill:none;stroke:#000;stroke-width:2" d="M67,931 l0,-353" />
<path style="fill:none;stroke:#000;stroke-width:2" d="M813,656 l-667,0 -79,-78 -39,0" />
<path style="fill:none;stroke:#000;stroke-width:2" d="M813,852 l-667,0 -79,79 -39,0" />
<path style="fill:none;stroke:#000;stroke-width:2" d="M813,695 l-667,0 -79,-39 -39,0" />
<path style="fill:none;stroke:#000;stroke-width:2" d="M813,813 l-667,0 -79,39 -39,0" />
<path style="fill:none;stroke:#000;stroke-width:2" d="M852,754 l-824,0" />
<path style="fill:none;stroke:#000;stroke-width:2" d="M813,852 l39,0" />
<path style="fill:none;stroke:#000;stroke-width:2" d="M813,656 l39,0" />

</svg>
