<?xml version="1.0" encoding="utf-8" standalone="no"?><!DOCTYPE svg PUBLIC "-//W3C//DTD SVG 1.1//EN" "http://www.w3.org/Graphics/SVG/1.1/DTD/svg11-flat-20030114.dtd"><svg width="511" height="999" version="1.1" xmlns="http://www.w3.org/2000/svg" xmlns:xlink="http://www.w3.org/1999/xlink">

<path style="fill:#000;stroke:#000;stroke-width:2" d="M274,27 l-38,0 0,7 38,0 0,-7z" />
<path style="fill:#000;stroke:#000;stroke-width:2" d="M344,78 l-177,0 0,-44 177,0 0,44z" />
<path style="fill:#000;stroke:#000;stroke-width:2" d="M414,325 l-317,0 0,-247 317,0 0,247z" />
<path style="fill:#000;stroke:#000;stroke-width:2" d="M426,382 l-341,0 0,-57 341,0 0,57z" />
<path style="fill:#000;stroke:#000;stroke-width:2" d="M433,546 l44,0 0,-158 -44,0 0,158z" />
<path style="fill:#b2b2b2;stroke:#000;stroke-width:2" d="M103,648 l-31,0 0,-95 31,0 0,95z" />
<path style="fill:#b2b2b2;stroke:#000;stroke-width:2" d="M439,648 l-32,0 0,-95 32,0 0,95z" />
<path style="fill:#666;stroke:#000;stroke-width:2" d="M483,869 l-44,0 0,57 44,0 0,-57z" />
<path style="fill:#666;stroke:#000;stroke-width:2" d="M72,870 l-45,0 0,57 45,0 0,-57z" />
<path style="fill:#999;stroke:#000;stroke-width:2" d="M72,869 l0,-94 -45,0 0,94 45,0z" />
<path style="fill:#999;stroke:#000;stroke-width:2" d="M91,926 l4,1 14,21 7,10 31,6 29,2 29,2 27,1 16,1 7,1 7,-1 32,-2 37,-2 27,-2 30,-6 16,-20 16,-12 19,-12 0,-184 -32,-24 0,-64 -304,-1 0,64 -32,24 0,184 5,1 4,3 4,6 7,3z" />
<path style="fill:#999;stroke:#000;stroke-width:2" d="M483,869 l0,-94 -44,0 0,94 44,0z" />
<path style="fill:#e5e5e5;stroke:#000;stroke-width:2" d="M72,717 l-45,0 0,57 45,0 0,-57z" />
<path style="fill:#e5e5e5;stroke:#000;stroke-width:2" d="M483,717 l-44,0 0,57 44,0 0,-57z" />
<path style="fill:#666" d="M401,686 l-76,0 0,-38 76,0 0,38z" />
<path style="fill:#b2b2b2" d="M186,686 l-76,0 0,-38 76,0 0,38z" />
<path style="fill:#ccc;stroke:#000;stroke-width:2" d="M433,641 l-355,0 0,-82 355,0 0,82z" />
<path style="fill:#333;stroke:#000;stroke-width:2" d="M432,553 l-354,0 0,-171 354,0 0,171z" />
<path style="fill:#e5e5e5;stroke:#000;stroke-width:2" d="M414,401 l-317,0 0,133 317,0 0,-133z" />
<path style="fill:#000;stroke:#000;stroke-width:2" d="M407,414 l-304,0 0,107 304,0 0,-107z" />
<path style="fill:#e5e5e5;stroke:#000;stroke-width:2" d="M249,446 l-82,0 0,19 82,0 0,-19z" />
<path style="fill:#e5e5e5;stroke:#000;stroke-width:2" d="M275,471 l-140,0 0,19 140,0 0,-19z" />
<path style="fill:#e5e5e5;stroke:#000;stroke-width:2" d="M363,471 l-64,0 0,19 64,0 0,-19z" />
<path style="fill:#e5e5e5;stroke:#000;stroke-width:2" d="M307,446 l-32,0 0,19 32,0 0,-19z" />
<path style="fill:#e5e5e5;stroke:#000;stroke-width:2" d="M388,446 l-75,0 0,19 75,0 0,-19z" />
<path style="fill:#e5e5e5;stroke:#000;stroke-width:2" d="M388,420 l-113,0 0,19 113,0 0,-19z" />
<path style="fill:#000;stroke:#000;stroke-width:2" d="M433,553 l-355,0 0,6 355,0 0,-6z" />
<path style="fill:#666" d="M407,642 l-304,0 0,6 304,0 0,-6z" />
<path style="fill:#999;stroke:#000;stroke-width:2" d="M318,553 l-6,6 0,82 6,7 0,-95z" />
<path style="fill:#b2b2b2;stroke:#000;stroke-width:2" d="M154,648 l32,0 0,-95 -32,0 0,95z" />
<path style="fill:#b2b2b2;stroke:#000;stroke-width:2" d="M350,648 l-32,0 0,-95 32,0 0,95z" />
<path style="fill:#999;stroke:#000;stroke-width:2" d="M186,553 l6,6 0,82 -6,7 0,-95z" />
<path style="fill:none;stroke:#7f7f7f;stroke-width:2" d="M344,34 l-177,0" />
<path style="fill:none;stroke:#7f7f7f;stroke-width:2" d="M97,78 l317,0 -1,246 -328,1" />
<path style="fill:none;stroke:#7f7f7f;stroke-width:2" d="M414,325 l12,0" />
<path style="fill:none;stroke:#7f7f7f;stroke-width:2" d="M433,388 l44,0" />
<path style="fill:none;stroke:#7f7f7f;stroke-width:2" d="M433,553 l0,-171 -355,0" />
<path style="fill:#4c4c4c" d="M274,27 l-12,0 0,6 12,0 0,-6z" />
<path style="fill:#4c4c4c" d="M338,40 l-45,0 0,38 45,0 0,-38z" />
<path style="fill:#4c4c4c" d="M407,84 l-76,0 0,241 76,0 0,-241z" />
<path style="fill:#4c4c4c" d="M388,502 l-266,0 0,6 266,0 0,-6z" />
<path style="fill:#4c4c4c" d="M420,331 l-76,0 0,44 76,0 0,-44z" />
<path style="fill:#b2b2b2" d="M471,401 l-32,0 0,25 32,0 0,-25z" />
<path style="fill:#b2b2b2" d="M394,375 l-19,0 0,-43 19,0 0,43z" />
<path style="fill:#b2b2b2" d="M382,325 l-19,0 0,-241 19,0 0,241z" />
<path style="fill:#b2b2b2" d="M323,78 l-12,0 0,-38 12,0 0,38z" />
<path style="fill:#b2b2b2" d="M270,34 l-3,0 0,-6 3,0 0,6z" />
<path style="fill:#666" d="M141,924 l12,6 14,5 14,5 14,3 14,3 15,2 15,1 14,0 15,0 15,-1 15,-2 14,-3 14,-3 13,-5 14,-5 13,-6 5,10 -14,7 -14,5 -14,4 -15,4 -15,3 -15,2 -15,1 -16,1 -15,-1 -15,-1 -16,-2 -15,-3 -14,-4 -15,-4 -14,-5 -13,-7z" />
<ellipse style="fill:#b2b2b2" cx="255" cy="774" rx="114" ry="57" />
<ellipse style="fill:#ccc" cx="255" cy="774" rx="95" ry="47" />
<ellipse style="fill:#e5e5e5" cx="255" cy="774" rx="75" ry="38" />

</svg>
