<?xml version="1.0" encoding="utf-8" standalone="no"?><!DOCTYPE svg PUBLIC "-//W3C//DTD SVG 1.1//EN" "http://www.w3.org/Graphics/SVG/1.1/DTD/svg11-flat-20030114.dtd"><svg width="470" height="999" version="1.1" xmlns="http://www.w3.org/2000/svg" xmlns:xlink="http://www.w3.org/1999/xlink">

<path style="fill:#7f7f7f" d="M27,971 l117,0 0,-367 296,0 0,-210 -296,0 0,-367 -117,0 0,944z" />
<path style="fill:#999" d="M27,880 l119,0 0,-295 296,0 0,-169 -296,0 0,-295 -119,0 0,759z" />
<path style="fill:#b2b2b2" d="M27,788 l119,0 0,-223 296,0 0,-129 -296,0 0,-223 -119,0 0,575z" />
<path style="fill:#ccc" d="M27,697 l119,0 0,-152 296,0 0,-87 -296,0 0,-152 -119,0 0,391z" />
<path style="fill:#e5e5e5" d="M27,604 l117,0 0,-81 296,0 0,-46 -296,0 0,-82 -117,0 0,209z" />
<path style="fill:none;stroke:#000;stroke-width:2" d="M27,971 l117,0 0,-367 296,0 0,-210 -296,0 0,-367 -117,0 0,944" />
<path style="fill:none;stroke:#000;stroke-width:2" d="M146,396 l0,205" />

</svg>
