<?xml version="1.0" encoding="utf-8" standalone="no"?><!DOCTYPE svg PUBLIC "-//W3C//DTD SVG 1.1//EN" "http://www.w3.org/Graphics/SVG/1.1/DTD/svg11-flat-20030114.dtd"><svg width="999" height="470" version="1.1" xmlns="http://www.w3.org/2000/svg" xmlns:xlink="http://www.w3.org/1999/xlink">

<path style="fill:#7f7f7f" d="M28,28 l0,117 367,0 0,295 208,0 0,-295 367,0 0,-117 -942,0z" />
<path style="fill:#999" d="M118,28 l0,119 295,0 0,295 168,0 0,-295 295,0 0,-119 -758,0z" />
<path style="fill:#b2b2b2" d="M210,28 l0,119 222,0 0,295 130,0 0,-295 222,0 0,-119 -574,0z" />
<path style="fill:#ccc" d="M301,28 l0,119 152,0 0,295 86,0 0,-295 153,0 0,-119 -391,0z" />
<path style="fill:#e5e5e5" d="M395,28 l0,117 81,0 0,295 44,0 0,-295 82,0 0,-117 -207,0z" />
<path style="fill:none;stroke:#000;stroke-width:2" d="M28,28 l0,117 367,0 0,295 208,0 0,-295 367,0 0,-117 -942,0" />
<path style="fill:none;stroke:#000;stroke-width:2" d="M602,147 l-206,0" />

</svg>
