<?xml version="1.0" encoding="utf-8" standalone="no"?><!DOCTYPE svg PUBLIC "-//W3C//DTD SVG 1.1//EN" "http://www.w3.org/Graphics/SVG/1.1/DTD/svg11-flat-20030114.dtd"><svg width="426" height="530" version="1.1" xmlns="http://www.w3.org/2000/svg" xmlns:xlink="http://www.w3.org/1999/xlink">

<path style="fill:#ccc" d="M400,15 l-375,0 0,500 375,0 0,-500z" />
<path style="fill:#d9d9d9" d="M382,15 l-338,0 0,500 338,0 0,-500z" />
<path style="fill:#e5e5e5" d="M359,15 l-292,0 0,500 292,0 0,-500z" />
<path style="fill:#f2f2f2" d="M322,15 l-218,0 0,500 218,0 0,-500z" />
<path style="fill:#fafafa" d="M291,15 l-156,0 0,500 156,0 0,-500z" />
<path style="fill:#fff" d="M247,15 l-68,0 0,500 68,0 0,-500z" />
<path style="fill:none;stroke:#000;stroke-width:2" d="M400,15 l-375,0 0,500 375,0 0,-500" />
<path style="fill:#ccc;stroke:#000;stroke-width:2" d="M411,51 l-396,0 0,6 396,0 0,-6z" />
<path style="fill:#ccc;stroke:#000;stroke-width:2" d="M411,124 l-396,0 0,5 396,0 0,-5z" />
<path style="fill:#ccc;stroke:#000;stroke-width:2" d="M411,67 l-396,0 0,5 396,0 0,-5z" />
<path style="fill:#e5e5e5;stroke:#000;stroke-width:2" d="M408,72 l-8,0 0,52 8,0 0,-52z" />
<path style="fill:#e5e5e5;stroke:#000;stroke-width:2" d="M25,72 l-7,0 0,52 7,0 0,-52z" />
<path style="fill:#b2b2b2;stroke:#000;stroke-width:2" d="M18,98 l0,16 1,17 2,16 3,15 4,16 6,14 7,14 9,12 11,12 14,11 16,9 18,8 21,6 25,5 27,3 31,1 31,-1 27,-3 25,-5 21,-6 18,-8 16,-9 14,-11 11,-12 9,-12 7,-14 6,-14 4,-16 3,-15 2,-16 1,-17 0,-16 -5,0 0,16 -1,15 -2,16 -3,15 -4,15 -6,14 -7,13 -9,12 -11,12 -13,10 -16,9 -18,8 -20,7 -24,4 -26,3 -30,1 -30,-1 -26,-3 -24,-4 -20,-7 -18,-8 -16,-9 -13,-10 -11,-12 -9,-12 -7,-13 -6,-14 -4,-15 -3,-15 -2,-16 -1,-15 0,-16 -5,0z" />
<path style="fill:#fc0;stroke:#000;stroke-width:2" d="M265,262 l-104,0 0,21 104,0 0,-21z" />
<path style="fill:#fff" d="M262,268 l-99,0 0,5 99,0 0,-5z" />

</svg>
