<?xml version="1.0" encoding="utf-8" standalone="no"?><!DOCTYPE svg PUBLIC "-//W3C//DTD SVG 1.1//EN" "http://www.w3.org/Graphics/SVG/1.1/DTD/svg11-flat-20030114.dtd"><svg width="218" height="530" version="1.1" xmlns="http://www.w3.org/2000/svg" xmlns:xlink="http://www.w3.org/1999/xlink">

<path style="fill:#e5e5e5;stroke:#000;stroke-width:2" d="M15,452 l0,-375 2,-12 6,-12 8,-11 12,-9 14,-7 16,-6 17,-4 19,-1 19,1 18,4 16,6 13,7 12,9 9,11 5,12 2,12 0,375 -2,13 -5,12 -9,10 -12,10 -13,7 -16,6 -18,4 -19,1 -19,-1 -17,-4 -16,-6 -14,-7 -12,-10 -8,-10 -6,-12 -2,-13z" />
<path style="fill:#fff" d="M39,450 l0,-370 5,-23 7,-11 8,-9 11,-7 12,-6 13,-4 14,-1 14,1 14,4 12,6 19,16 11,22 1,12 0,370 -6,23 -15,20 -10,7 -12,6 -14,4 -14,1 -14,-1 -13,-4 -12,-6 -11,-7 -8,-9 -7,-11 -5,-23z" />
<path style="fill:none;stroke:#ccc;stroke-width:2" d="M66,143 l5,-1 5,0 6,-1 5,0 6,-1 6,0 6,0 6,0 6,0 6,0 6,0 6,1 6,0 5,1 6,0 5,1 0,87" />
<path style="fill:none;stroke:#7f7f7f;stroke-width:2" d="M157,230 l-5,1 -5,1 -6,1 -6,0 -6,1 -6,0 -6,0 -6,0 -6,0 -6,0 -5,0 -6,-1 -6,0 -6,-1 -5,-1 -5,-1 0,-86" />
<path style="fill:none;stroke:#000;stroke-width:2" d="M122,454 l-17,-4 -5,-18 13,-12" />
<path style="fill:none;stroke:#7f7f7f;stroke-width:2" d="M113,420 l17,4 4,17 -12,13" />
<circle style="fill:#ccc;stroke:#000;stroke-width:2" cx="117" cy="437" r="11" />
<circle style="fill:#b2b2b2;stroke:#000;stroke-width:2" cx="117" cy="436" r="8" />
<circle style="fill:#ccc;stroke:#000;stroke-width:2" cx="117" cy="436" r="6" />

</svg>
