<?xml version="1.0" encoding="utf-8" standalone="no"?><!DOCTYPE svg PUBLIC "-//W3C//DTD SVG 1.1//EN" "http://www.w3.org/Graphics/SVG/1.1/DTD/svg11-flat-20030114.dtd"><svg width="157" height="527" version="1.1" xmlns="http://www.w3.org/2000/svg" xmlns:xlink="http://www.w3.org/1999/xlink">

<path style="fill:#e5e5e5;stroke:#000;stroke-width:2" d="M43,154 l-6,4 -6,5 -5,6 -4,7 -3,7 -3,8 -1,8 -1,8 0,306 129,0 0,-306 -1,-8 -1,-8 -3,-8 -3,-7 -4,-7 -5,-6 -6,-5 -6,-4 -3,-27 -65,0 -3,27z" />
<path style="fill:#e5e5e5;stroke:#000;stroke-width:2" d="M106,54 l-56,0 0,4 56,0 0,-4z" />
<path style="fill:#999;stroke:#000;stroke-width:2" d="M106,127 l-20,0 0,-69 20,0 0,69z" />
<path style="fill:#000;stroke:#000;stroke-width:2" d="M119,86 l-13,0 0,16 13,0 0,-16z" />
<path style="fill:#000;stroke:#000;stroke-width:2" d="M111,42 l-65,0 0,4 65,0 0,-4z" />
<path style="fill:#b2b2b2;stroke:#000;stroke-width:2" d="M139,78 l-24,0 0,16 24,0 0,-16z" />
<path style="fill:#b2b2b2;stroke:#000;stroke-width:2" d="M86,58 l-36,0 0,69 36,0 0,-69z" />
<path style="fill:#7f7f7f;stroke:#000;stroke-width:2" d="M139,94 l-24,0 0,16 24,0 0,-16z" />
<path style="fill:#7f7f7f;stroke:#000;stroke-width:2" d="M111,46 l-65,0 0,8 65,0 0,-8z" />
<path style="fill:#7f7f7f;stroke:#000;stroke-width:2" d="M127,22 l0,20 -97,0 0,-20 24,-8 49,0 24,8z" />
<path style="fill:#4c4c4c" d="M119,38 l-16,0 0,-16 16,0 0,16z" />
<path style="fill:#4c4c4c" d="M96,38 l-16,0 0,-16 16,0 0,16z" />
<path style="fill:#4c4c4c" d="M72,38 l-15,0 0,-16 15,0 0,16z" />
<path style="fill:#4c4c4c" d="M49,38 l-15,0 0,-16 15,0 0,16z" />
<path style="fill:#fff;stroke:#000;stroke-width:2" d="M119,207 l-105,0 0,242 105,0 0,-242z" />

</svg>
