<?xml version="1.0" encoding="utf-8" standalone="no"?><!DOCTYPE svg PUBLIC "-//W3C//DTD SVG 1.1//EN" "http://www.w3.org/Graphics/SVG/1.1/DTD/svg11-flat-20030114.dtd"><svg width="358" height="530" version="1.1" xmlns="http://www.w3.org/2000/svg" xmlns:xlink="http://www.w3.org/1999/xlink">

<path style="fill:#4c4c4c" d="M335,15 l-312,0 0,500 312,0 0,-500z" />
<path style="fill:#666" d="M335,15 l-302,0 0,500 302,0 0,-500z" />
<path style="fill:#7f7f7f" d="M335,15 l-283,0 0,500 283,0 0,-500z" />
<path style="fill:#b2b2b2" d="M335,15 l-263,0 0,500 263,0 0,-500z" />
<path style="fill:#ccc" d="M335,15 l-215,0 0,500 215,0 0,-500z" />
<path style="fill:#e5e5e5" d="M335,15 l-146,0 0,500 146,0 0,-500z" />
<path style="fill:#fff" d="M335,15 l-78,0 0,500 78,0 0,-500z" />
<path style="fill:#e5e5e5" d="M335,15 l-48,0 0,500 48,0 0,-500z" />
<path style="fill:#ccc" d="M335,15 l-19,0 0,500 19,0 0,-500z" />
<path style="fill:none;stroke:#000;stroke-width:2" d="M335,15 l-312,0 0,500 312,0 0,-500" />
<path style="fill:#666" d="M343,15 l-328,0 0,8 328,0 0,-8z" />
<path style="fill:none;stroke:#e5e5e5;stroke-width:2" d="M335,15 l8,0 0,8" />
<path style="fill:none;stroke:#e5e5e5;stroke-width:2" d="M15,15 l320,0" />
<path style="fill:none;stroke:#000;stroke-width:2" d="M343,23 l-328,0 0,-8" />
<path style="fill:#666" d="M343,177 l-328,0 0,8 328,0 0,-8z" />
<path style="fill:none;stroke:#e5e5e5;stroke-width:2" d="M335,177 l8,0 0,8" />
<path style="fill:none;stroke:#e5e5e5;stroke-width:2" d="M15,177 l320,0" />
<path style="fill:none;stroke:#000;stroke-width:2" d="M343,185 l-328,0 0,-8" />
<path style="fill:#666" d="M343,340 l-328,0 0,8 328,0 0,-8z" />
<path style="fill:none;stroke:#e5e5e5;stroke-width:2" d="M335,340 l8,0 0,8" />
<path style="fill:none;stroke:#e5e5e5;stroke-width:2" d="M15,340 l320,0" />
<path style="fill:none;stroke:#000;stroke-width:2" d="M343,348 l-328,0 0,-8" />
<path style="fill:#666" d="M343,507 l-328,0 0,8 328,0 0,-8z" />
<path style="fill:none;stroke:#e5e5e5;stroke-width:2" d="M335,507 l8,0 0,8" />
<path style="fill:none;stroke:#e5e5e5;stroke-width:2" d="M15,507 l320,0" />
<path style="fill:none;stroke:#000;stroke-width:2" d="M343,515 l-328,0 0,-8" />

</svg>
