<?xml version="1.0" encoding="utf-8" standalone="no"?><!DOCTYPE svg PUBLIC "-//W3C//DTD SVG 1.1//EN" "http://www.w3.org/Graphics/SVG/1.1/DTD/svg11-flat-20030114.dtd"><svg width="610" height="999" version="1.1" xmlns="http://www.w3.org/2000/svg" xmlns:xlink="http://www.w3.org/1999/xlink">

<path style="fill:#333;stroke:#000;stroke-width:2" d="M445,901 l-278,0 0,13 278,0 0,-13z" />
<path style="fill:#333;stroke:#000;stroke-width:2" d="M582,37 l-555,0 0,111 555,0 0,-111z" />
<path style="fill:#ccc;stroke:#000;stroke-width:2" d="M386,27 l-19,0 0,944 19,0 0,-944z" />
<path style="fill:#e5e5e5;stroke:#000;stroke-width:2" d="M350,27 l-19,0 0,944 19,0 0,-944z" />
<path style="fill:#fff;stroke:#000;stroke-width:2" d="M314,27 l-18,0 0,944 18,0 0,-944z" />
<path style="fill:#e5e5e5;stroke:#000;stroke-width:2" d="M278,27 l-19,0 0,944 19,0 0,-944z" />
<path style="fill:#ccc;stroke:#000;stroke-width:2" d="M243,27 l-19,0 0,944 19,0 0,-944z" />
<path style="fill:#ccc;stroke:#000;stroke-width:2" d="M422,27 l-19,0 0,944 19,0 0,-944z" />
<path style="fill:#ccc;stroke:#000;stroke-width:2" d="M207,27 l-19,0 0,944 19,0 0,-944z" />
<path style="fill:#666;stroke:#000;stroke-width:2" d="M565,27 l-19,0 0,121 19,0 0,-121z" />
<path style="fill:#7f7f7f;stroke:#000;stroke-width:2" d="M529,27 l-19,0 0,121 19,0 0,-121z" />
<path style="fill:#999;stroke:#000;stroke-width:2" d="M494,27 l-19,0 0,121 19,0 0,-121z" />
<path style="fill:#b2b2b2;stroke:#000;stroke-width:2" d="M458,27 l-19,0 0,121 19,0 0,-121z" />
<path style="fill:#b2b2b2;stroke:#000;stroke-width:2" d="M171,27 l-19,0 0,121 19,0 0,-121z" />
<path style="fill:#999;stroke:#000;stroke-width:2" d="M135,27 l-19,0 0,121 19,0 0,-121z" />
<path style="fill:#7f7f7f;stroke:#000;stroke-width:2" d="M99,27 l-19,0 0,121 19,0 0,-121z" />
<path style="fill:#666;stroke:#000;stroke-width:2" d="M64,27 l-19,0 0,121 19,0 0,-121z" />
<path style="fill:#7f7f7f" d="M580,144 l0,-53 -553,0 0,53 553,0z" />
<path style="fill:#999" d="M543,144 l0,-53 -482,0 0,53 482,0z" />
<path style="fill:#b2b2b2" d="M484,144 l0,-53 -364,0 0,53 364,0z" />
<path style="fill:#ccc" d="M431,144 l0,-53 -252,0 0,53 252,0z" />
<path style="fill:#e5e5e5" d="M386,144 l0,-53 -162,0 0,53 162,0z" />
<path style="fill:#fff" d="M335,144 l0,-53 -66,0 0,53 66,0z" />
<path style="fill:none;stroke:#000;stroke-width:2" d="M582,91 l-555,0 0,53 555,0 0,-53" />
<path style="fill:#7f7f7f" d="M580,88 l0,-51 -553,0 0,51 553,0z" />
<path style="fill:#999" d="M543,88 l0,-51 -482,0 0,51 482,0z" />
<path style="fill:#b2b2b2" d="M484,88 l0,-51 -364,0 0,51 364,0z" />
<path style="fill:#ccc" d="M431,88 l0,-51 -252,0 0,51 252,0z" />
<path style="fill:#e5e5e5" d="M386,88 l0,-51 -162,0 0,51 162,0z" />
<path style="fill:#fff" d="M335,88 l0,-51 -66,0 0,51 66,0z" />
<path style="fill:none;stroke:#000;stroke-width:2" d="M582,37 l-555,0 0,51 555,0 0,-51" />
<path style="fill:#7f7f7f" d="M442,963 l0,-53 -275,0 0,53 275,0z" />
<path style="fill:#999" d="M424,963 l0,-53 -242,0 0,53 242,0z" />
<path style="fill:#b2b2b2" d="M395,963 l0,-53 -182,0 0,53 182,0z" />
<path style="fill:#ccc" d="M369,963 l0,-53 -128,0 0,53 128,0z" />
<path style="fill:#e5e5e5" d="M345,963 l0,-53 -80,0 0,53 80,0z" />
<path style="fill:#fff" d="M320,963 l0,-53 -32,0 0,53 32,0z" />
<path style="fill:none;stroke:#000;stroke-width:2" d="M445,910 l-278,0 0,53 278,0 0,-53" />
<path style="fill:#7f7f7f" d="M442,907 l0,-53 -275,0 0,53 275,0z" />
<path style="fill:#999" d="M424,907 l0,-53 -242,0 0,53 242,0z" />
<path style="fill:#b2b2b2" d="M395,907 l0,-53 -182,0 0,53 182,0z" />
<path style="fill:#ccc" d="M369,907 l0,-53 -128,0 0,53 128,0z" />
<path style="fill:#e5e5e5" d="M345,907 l0,-53 -80,0 0,53 80,0z" />
<path style="fill:#fff" d="M320,907 l0,-53 -32,0 0,53 32,0z" />
<path style="fill:none;stroke:#000;stroke-width:2" d="M445,854 l-278,0 0,53 278,0 0,-53" />
<path style="fill:#7f7f7f;stroke:#000;stroke-width:2" d="M27,816 l0,-668 555,0 0,668 -1,6 -21,17 -25,10 -34,9 -41,7 -47,6 -52,4 -28,1 -28,0 -28,0 -28,-1 -52,-4 -47,-6 -41,-7 -34,-9 -26,-10 -20,-17 -2,-6z" />
<path style="fill:#999" d="M64,816 l0,-668 484,0 0,668 -1,6 -28,22 -27,10 -33,8 -38,7 -44,4 -47,3 -25,0 -49,-1 -45,-4 -41,-6 -36,-7 -29,-9 -31,-15 -10,-18z" />
<path style="fill:#b2b2b2" d="M120,816 l0,-668 370,0 0,668 -15,23 -27,15 -26,8 -29,7 -33,4 -36,3 -19,0 -37,-1 -35,-4 -32,-6 -27,-7 -32,-14 -21,-22 -1,-6z" />
<path style="fill:#ccc" d="M179,816 l0,-668 254,0 0,668 -10,23 -28,19 -29,11 -36,6 -25,1 -38,-3 -33,-8 -27,-11 -23,-20 -5,-18z" />
<path style="fill:#e5e5e5" d="M224,816 l0,-668 162,0 0,668 -10,28 -19,18 -28,11 -24,3 -31,-5 -26,-13 -18,-19 -6,-23z" />
<path style="fill:#fff" d="M271,816 l0,-668 70,0 0,668 -1,12 -2,11 -4,10 -4,9 -5,7 -6,6 -7,4 -7,1 -7,-1 -6,-4 -6,-6 -5,-7 -4,-9 -3,-10 -2,-11 -1,-12z" />
<circle style="fill:#ccc;stroke:#000;stroke-width:2" cx="305" cy="460" r="121" />
<path style="fill:none;stroke:#fff;stroke-width:2" d="M354,558 l1,-2 2,-3 0,-3 1,-2 0,-3 1,-3 -1,-2 0,-3 -2,-5 -3,-4 -4,-4 -4,-3 -5,-2 -5,-2 -6,0 -5,1 -3,1 -3,1 -2,2 -2,1 -2,2 -2,2 -2,2 -1,2" />
<path style="fill:none;stroke:#7f7f7f;stroke-width:2" d="M307,531 l-2,2 0,3 -1,2 0,2 0,3 0,3 0,3 1,3 2,4 3,5 3,4 4,3 5,2 5,1 5,0 5,0 3,-1 2,-1 3,-1 2,-2 2,-1 2,-3 1,-2 2,-2" />
<path style="fill:none;stroke:#fff;stroke-width:2" d="M303,386 l1,-2 1,-3 1,-2 0,-2 0,-2 0,-3 -1,-2 0,-3 -2,-5 -3,-4 -3,-3 -4,-3 -4,-2 -5,-1 -4,0 -6,1 -2,1 -3,1 -2,1 -2,1 -2,2 -2,1 -2,2 -1,2" />
<path style="fill:none;stroke:#7f7f7f;stroke-width:2" d="M258,361 l-1,2 -1,3 0,2 0,3 -1,2 0,2 1,3 0,2 2,5 2,4 4,4 4,2 4,2 5,2 5,1 6,-1 2,-1 2,-1 2,-2 2,-1 2,-2 2,-2 2,-2 1,-2" />
<path style="fill:none;stroke:#fff;stroke-width:2" d="M244,450 l1,-2 1,-3 1,-3 0,-3 0,-3 0,-2 0,-3 0,-2 -3,-5 -2,-5 -4,-4 -4,-3 -5,-2 -5,-1 -6,0 -5,1 -3,1 -2,1 -2,1 -3,2 -2,1 -2,2 -2,2 -2,2" />
<path style="fill:none;stroke:#7f7f7f;stroke-width:2" d="M195,422 l0,2 -1,3 0,3 -1,3 0,3 0,2 0,2 1,2 1,6 3,5 4,4 4,3 5,2 5,2 6,0 6,-1 2,-1 2,-1 3,-1 2,-2 2,-2 2,-2 2,-2 1,-2" />
<path style="fill:none;stroke:#fff;stroke-width:2" d="M414,499 l1,-3 0,-3 1,-2 1,-3 0,-3 0,-2 0,-3 -1,-2 -2,-5 -2,-5 -4,-4 -5,-3 -4,-3 -5,-1 -6,0 -6,1 -2,0 -2,2 -3,1 -2,2 -2,1 -2,3 -1,2 -1,2" />
<path style="fill:none;stroke:#7f7f7f;stroke-width:2" d="M367,471 l-1,2 -1,2 -1,3 -1,2 0,3 0,3 0,2 0,3 3,6 2,4 4,4 4,3 5,2 5,1 6,0 5,-1 3,0 2,-1 2,-2 2,-1 3,-2 2,-1 2,-2 1,-2" />
<path style="fill:none;stroke:#fff;stroke-width:2" d="M390,410 l1,-2 1,-2 1,-3 1,-3 0,-2 0,-3 0,-3 0,-2 -3,-6 -3,-4 -4,-4 -4,-3 -5,-2 -5,-1 -5,0 -5,1 -3,1 -3,0 -2,2 -2,1 -2,2 -2,2 -2,2 -2,3" />
<path style="fill:none;stroke:#7f7f7f;stroke-width:2" d="M342,384 l-1,2 -1,2 0,3 -1,3 0,2 1,2 0,3 1,2 2,5 2,5 4,4 4,3 5,3 5,1 5,0 5,0 2,-1 3,-2 2,-1 2,-2 2,-2 2,-1 2,-3 2,-2" />
<path style="fill:none;stroke:#fff;stroke-width:2" d="M267,537 l1,-3 1,-2 1,-2 0,-3 0,-2 0,-3 0,-3 -1,-3 -2,-5 -3,-4 -3,-4 -5,-3 -4,-2 -5,-1 -5,-1 -5,1 -3,1 -2,1 -3,2 -2,1 -2,2 -2,2 -1,2 -2,2" />
<path style="fill:none;stroke:#7f7f7f;stroke-width:2" d="M220,510 l-1,3 -2,2 -1,2 0,3 0,3 -1,2 1,3 0,3 3,5 3,5 4,4 4,2 5,2 5,2 5,0 5,-1 3,-1 3,-1 2,-1 2,-1 2,-2 2,-2 1,-3 2,-2" />

</svg>
