<?xml version="1.0" encoding="utf-8" standalone="no"?><!DOCTYPE svg PUBLIC "-//W3C//DTD SVG 1.1//EN" "http://www.w3.org/Graphics/SVG/1.1/DTD/svg11-flat-20030114.dtd"><svg width="633" height="999" version="1.1" xmlns="http://www.w3.org/2000/svg" xmlns:xlink="http://www.w3.org/1999/xlink">

<path style="fill:#ccc;stroke:#000;stroke-width:2" d="M605,144 l-17,-90 -541,0 -19,90 577,0z" />
<path style="fill:#e5e5e5;stroke:#000;stroke-width:2" d="M28,109 l0,35 577,0 0,-35 -18,-25 -24,-13 -24,-8 -28,-7 -33,-7 -36,-5 -40,-4 -27,-2 -29,-1 -15,0 -15,0 -29,0 -29,1 -27,2 -39,4 -37,5 -32,7 -29,7 -24,8 -25,13 -17,21 0,4z" />
<path style="fill:#ccc" d="M258,118 l5,-36 108,0 4,36 230,0 0,26 -577,0 0,-26 230,0z" />
<path style="fill:#ccc;stroke:#000;stroke-width:2" d="M361,73 l-88,0 0,9 88,0 0,-9z" />
<path style="fill:#4c4c4c;stroke:#000;stroke-width:2" d="M371,73 l-4,-42 -100,0 -4,42 108,0z" />
<path style="fill:#666;stroke:#000;stroke-width:2" d="M335,31 l-2,-3 -32,0 -2,3 36,0z" />
<path style="fill:#ccc" d="M28,970 l0,-826 577,0 0,826 -108,0 0,-41 -126,0 0,41 -108,0 0,-41 -126,0 0,41 -109,0z" />
<path style="fill:#dbdbdb" d="M82,970 l0,-826 470,0 0,826 -55,0 0,-41 -126,0 0,41 -108,0 0,-41 -126,0 0,41 -55,0z" />
<path style="fill:#ededed" d="M173,144 l288,0 0,785 -90,0 0,41 -108,0 0,-41 -90,0 0,-785z" />
<path style="fill:#fff" d="M273,144 l88,0 0,826 -88,0 0,-826z" />
<path style="fill:none;stroke:#000;stroke-width:2" d="M28,970 l0,-826 577,0 0,826 -108,0 0,-41 -126,0 0,41 -108,0 0,-41 -126,0 0,41 -109,0" />
<path style="fill:#dbdbdb" d="M258,118 l5,-36 108,0 4,36 177,0 0,26 -470,0 0,-26 176,0z" />
<path style="fill:#ededed" d="M258,118 l5,-36 108,0 4,36 86,0 0,26 -288,0 0,-26 85,0z" />
<path style="fill:#fff" d="M273,82 l88,0 0,62 -88,0 0,-62z" />
<path style="fill:none;stroke:#000;stroke-width:2" d="M258,118 l5,-36 108,0 4,36 230,0 0,26 -577,0 0,-26 230,0" />
<path style="fill:#4c4c4c;stroke:#000;stroke-width:2" d="M497,929 l-90,0 0,19 90,0 0,-19z" />
<path style="fill:#4c4c4c;stroke:#000;stroke-width:2" d="M228,929 l-91,0 0,19 91,0 0,-19z" />
<path style="fill:#7f7f7f;stroke:#000;stroke-width:2" d="M367,92 l-41,0 0,7 41,0 0,-7z" />

</svg>
