<?xml version="1.0" encoding="utf-8" standalone="no"?><!DOCTYPE svg PUBLIC "-//W3C//DTD SVG 1.1//EN" "http://www.w3.org/Graphics/SVG/1.1/DTD/svg11-flat-20030114.dtd"><svg width="873" height="999" version="1.1" xmlns="http://www.w3.org/2000/svg" xmlns:xlink="http://www.w3.org/1999/xlink">

<path style="fill:#ccc;stroke:#000;stroke-width:2" d="M845,193 l-26,-129 -765,0 -26,129 817,0z" />
<path style="fill:#e5e5e5;stroke:#000;stroke-width:2" d="M28,143 l0,50 817,0 0,-50 -13,-26 -28,-19 -29,-13 -37,-11 -27,-7 -30,-6 -33,-6 -35,-4 -37,-4 -38,-3 -40,-2 -41,-1 -21,0 -21,0 -41,1 -40,2 -38,3 -37,4 -34,4 -33,6 -30,6 -28,7 -25,7 -32,13 -25,13 -20,20 -4,10 0,6z" />
<path style="fill:#ccc" d="M352,153 l8,-49 152,0 8,49 325,0 0,40 -817,0 0,-40 324,0z" />
<path style="fill:#ccc;stroke:#000;stroke-width:2" d="M499,90 l-126,0 0,14 126,0 0,-14z" />
<path style="fill:#4c4c4c;stroke:#000;stroke-width:2" d="M512,90 l-5,-57 -141,0 -6,57 152,0z" />
<path style="fill:#666;stroke:#000;stroke-width:2" d="M462,33 l-2,-5 -47,0 -3,5 52,0z" />
<path style="fill:#ccc" d="M28,970 l0,-777 817,0 0,777 -155,0 0,-57 -178,0 0,57 -152,0 0,-57 -178,0 0,57 -154,0z" />
<path style="fill:#dbdbdb" d="M104,970 l0,-777 665,0 0,777 -79,0 0,-57 -178,0 0,57 -152,0 0,-57 -178,0 0,57 -78,0z" />
<path style="fill:#ededed" d="M232,193 l408,0 0,720 -128,0 0,57 -152,0 0,-57 -128,0 0,-720z" />
<path style="fill:#fff" d="M373,193 l126,0 0,777 -126,0 0,-777z" />
<path style="fill:none;stroke:#000;stroke-width:2" d="M28,970 l0,-777 817,0 0,777 -155,0 0,-57 -178,0 0,57 -152,0 0,-57 -178,0 0,57 -154,0" />
<path style="fill:#dbdbdb" d="M352,153 l8,-49 152,0 8,49 249,0 0,40 -665,0 0,-40 248,0z" />
<path style="fill:#ededed" d="M352,153 l8,-49 152,0 8,49 120,0 0,40 -408,0 0,-40 120,0z" />
<path style="fill:#fff" d="M373,104 l126,0 0,89 -126,0 0,-89z" />
<path style="fill:none;stroke:#000;stroke-width:2" d="M352,153 l8,-49 152,0 8,49 325,0 0,40 -817,0 0,-40 324,0" />
<path style="fill:#4c4c4c;stroke:#000;stroke-width:2" d="M690,913 l-125,0 0,26 125,0 0,-26z" />
<path style="fill:#4c4c4c;stroke:#000;stroke-width:2" d="M308,913 l-126,0 0,26 126,0 0,-26z" />
<path style="fill:#7f7f7f;stroke:#000;stroke-width:2" d="M507,117 l-58,0 0,13 58,0 0,-13z" />

</svg>
