<?xml version="1.0" encoding="utf-8" standalone="no"?><!DOCTYPE svg PUBLIC "-//W3C//DTD SVG 1.1//EN" "http://www.w3.org/Graphics/SVG/1.1/DTD/svg11-flat-20030114.dtd"><svg width="501" height="530" version="1.1" xmlns="http://www.w3.org/2000/svg" xmlns:xlink="http://www.w3.org/1999/xlink">

<path style="fill:#7f7f7f" d="M486,15 l0,235 -177,39 0,79 20,0 0,19 -157,0 0,-19 20,0 0,-79 -177,-39 0,-235 471,0z" />
<path style="fill:#999" d="M451,15 l0,235 -150,39 0,79 16,0 0,19 -134,0 0,-19 17,0 0,-79 -150,-39 0,-235 401,0z" />
<path style="fill:#b2b2b2" d="M398,15 l0,235 -111,39 0,79 13,0 0,19 -99,0 0,-19 13,0 0,-79 -111,-39 0,-235 295,0z" />
<path style="fill:#ccc" d="M334,15 l0,235 -63,39 0,79 7,0 0,19 -55,0 0,-19 7,0 0,-79 -63,-39 0,-235 167,0z" />
<path style="fill:#e5e5e5" d="M275,15 l0,235 -18,39 0,79 2,0 0,19 -17,0 0,-19 2,0 0,-79 -18,-39 0,-235 49,0z" />
<path style="fill:none;stroke:#000;stroke-width:2" d="M486,35 l-471,0" />
<path style="fill:none;stroke:#000;stroke-width:2" d="M486,15 l0,235 -177,39 0,79 20,0 0,19 -157,0 0,-19 20,0 0,-79 -177,-39 0,-235 471,0" />
<path style="fill:none;stroke:#000;stroke-width:2" d="M309,368 l-117,0" />
<path style="fill:none;stroke:#7f7f7f;stroke-width:2" d="M486,250 l-471,0" />
<path style="fill:none;stroke:#7f7f7f;stroke-width:2" d="M309,289 l-117,0" />
<path style="fill:#7f7f7f" d="M437,486 l-30,0 0,-353 30,0 0,353z" />
<path style="fill:#b2b2b2" d="M432,486 l-20,0 0,-353 20,0 0,353z" />
<path style="fill:#e5e5e5" d="M427,486 l-10,0 0,-353 10,0 0,353z" />
<path style="fill:none;stroke:#000;stroke-width:2" d="M437,486 l-30,0 0,-353 30,0 0,353" />
<path style="fill:#7f7f7f" d="M456,486 l-68,0 0,29 68,0 0,-29z" />
<path style="fill:#b2b2b2" d="M445,486 l-46,0 0,29 46,0 0,-29z" />
<path style="fill:#e5e5e5" d="M433,486 l-23,0 0,29 23,0 0,-29z" />
<path style="fill:none;stroke:#000;stroke-width:2" d="M456,486 l-68,0 0,29 68,0 0,-29" />
<path style="fill:#7f7f7f" d="M96,486 l-29,0 0,-353 29,0 0,353z" />
<path style="fill:#b2b2b2" d="M91,486 l-19,0 0,-353 19,0 0,353z" />
<path style="fill:#e5e5e5" d="M86,486 l-10,0 0,-353 10,0 0,353z" />
<path style="fill:none;stroke:#000;stroke-width:2" d="M96,486 l-29,0 0,-353 29,0 0,353" />
<path style="fill:#7f7f7f" d="M116,486 l-69,0 0,29 69,0 0,-29z" />
<path style="fill:#b2b2b2" d="M104,486 l-46,0 0,29 46,0 0,-29z" />
<path style="fill:#e5e5e5" d="M93,486 l-23,0 0,29 23,0 0,-29z" />
<path style="fill:none;stroke:#000;stroke-width:2" d="M116,486 l-69,0 0,29 69,0 0,-29" />
<path style="fill:#7f7f7f" d="M265,387 l-29,0 0,20 29,0 0,-20z" />
<path style="fill:#b2b2b2" d="M260,387 l-19,0 0,20 19,0 0,-20z" />
<path style="fill:#e5e5e5" d="M255,387 l-9,0 0,20 9,0 0,-20z" />
<path style="fill:none;stroke:#000;stroke-width:2" d="M265,387 l-29,0 0,20 29,0 0,-20" />

</svg>
