<?xml version="1.0" encoding="utf-8" standalone="no"?><!DOCTYPE svg PUBLIC "-//W3C//DTD SVG 1.1//EN" "http://www.w3.org/Graphics/SVG/1.1/DTD/svg11-flat-20030114.dtd"><svg width="629" height="999" version="1.1" xmlns="http://www.w3.org/2000/svg" xmlns:xlink="http://www.w3.org/1999/xlink">

<path style="fill:#666" d="M569,28 l-514,0 0,942 514,0 0,-942z" />
<path style="fill:#7f7f7f" d="M510,28 l-396,0 0,942 396,0 0,-942z" />
<path style="fill:#999" d="M408,28 l-192,0 0,942 192,0 0,-942z" />
<path style="fill:#b2b2b2" d="M342,28 l-59,0 0,942 59,0 0,-942z" />
<path style="fill:none;stroke:#000;stroke-width:2" d="M569,28 l-514,0 0,942 514,0 0,-942" />
<path style="fill:#4c4c4c;stroke:#000;stroke-width:2" d="M601,947 l-573,0 0,23 573,0 0,-23z" />
<path style="fill:#4c4c4c;stroke:#000;stroke-width:2" d="M601,636 l-573,0 0,24 573,0 0,-24z" />
<path style="fill:#4c4c4c;stroke:#000;stroke-width:2" d="M601,314 l-573,0 0,24 573,0 0,-24z" />
<path style="fill:#4c4c4c;stroke:#000;stroke-width:2" d="M601,28 l-573,0 0,23 573,0 0,-23z" />

</svg>
