<?xml version="1.0" encoding="utf-8" standalone="no"?><!DOCTYPE svg PUBLIC "-//W3C//DTD SVG 1.1//EN" "http://www.w3.org/Graphics/SVG/1.1/DTD/svg11-flat-20030114.dtd"><svg width="508" height="999" version="1.1" xmlns="http://www.w3.org/2000/svg" xmlns:xlink="http://www.w3.org/1999/xlink">

<path style="fill:#e5e5e5;stroke:#000;stroke-width:2" d="M39,148 l430,0 -6,-41 -15,-25 -23,-17 -28,-11 -34,-5 -19,-2 -164,0 -35,2 -34,5 -29,11 -22,17 -15,25 -6,36 0,5z" />
<path style="fill:#000" d="M209,43 l-70,0 0,-10 70,0 0,10z" />
<path style="fill:#000" d="M384,79 l1,0 26,0 9,-2 4,0 7,-4 0,-36 -47,0 0,42z" />
<path style="fill:#000" d="M86,73 l8,4 10,1 1,1 28,0 0,-42 -47,0 0,36z" />
<path style="fill:#000" d="M194,43 l-40,0 0,6 40,-2 0,-4z" />
<path style="fill:#000" d="M150,37 l-81,0 0,-9 81,0 0,9z" />
<path style="fill:#000" d="M448,37 l-79,0 0,-9 79,0 0,9z" />
<path style="fill:#000" d="M363,43 l-69,0 0,-10 69,0 0,10z" />
<path style="fill:#000" d="M348,43 l-39,0 0,4 39,2 0,-6z" />
<path style="fill:#000" d="M309,37 l-104,0 0,-9 104,0 0,9z" />
<path style="fill:#000" d="M286,37 l-60,0 0,45 60,0 0,-45z" />
<path style="fill:#b2b2b2" d="M192,43 l-34,0 0,6 34,-2 0,-4z" />
<path style="fill:#b2b2b2" d="M390,79 l3,2 10,-2 10,-1 9,-1 2,0 1,-1 4,-3 0,-34 -39,0 0,40z" />
<path style="fill:#b2b2b2" d="M92,75 l0,1 0,0 1,1 9,1 9,1 11,2 9,-2 0,-40 -39,0 0,36z" />
<path style="fill:#b2b2b2" d="M207,43 l-60,0 0,-8 60,0 0,8z" />
<path style="fill:#b2b2b2" d="M348,43 l-36,0 0,4 36,0 0,-4z" />
<path style="fill:#b2b2b2" d="M361,43 l-60,0 0,-8 60,0 0,8z" />
<path style="fill:#b2b2b2" d="M148,37 l-69,0 0,-7 69,0 0,7z" />
<path style="fill:#b2b2b2" d="M284,39 l-51,0 0,43 51,0 0,-43z" />
<path style="fill:#b2b2b2" d="M305,37 l-89,0 0,-7 89,0 0,7z" />
<path style="fill:#b2b2b2" d="M446,37 l-70,0 0,-7 70,0 0,7z" />
<path style="fill:#b2b2b2;stroke:#000;stroke-width:2" d="M469,152 l-430,0 0,447 4,41 15,36 21,30 26,27 32,20 36,16 39,9 42,4 41,-4 38,-9 38,-14 32,-20 28,-27 21,-30 13,-38 4,-41 0,-447z" />
<path style="fill:#000" d="M39,152 l0,447 4,41 15,36 21,30 26,27 32,20 36,16 39,9 42,4 41,-4 38,-9 38,-14 -68,-13 -68,-24 -49,-40 -21,-60 0,-466 -126,0z" />
<path style="fill:#f0f0f0;stroke:#000;stroke-width:2" d="M405,733 l-96,5 -110,0 -98,-5 -5,3 9,21 13,6 81,6 110,0 73,-6 23,-17 2,-10 -2,-3z" />
<path style="fill:#f0f0f0;stroke:#000;stroke-width:2" d="M441,689 l-132,10 -110,0 -135,-10 -8,4 6,21 11,6 126,9 110,0 122,-9 11,-6 4,-21 -5,-4z" />
<path style="fill:#f0f0f0;stroke:#000;stroke-width:2" d="M461,650 l-43,2 -109,7 -110,0 -109,-7 -47,-4 -6,4 2,22 11,6 40,4 109,5 110,0 109,-5 36,-4 9,-6 6,-20 -8,-4z" />
<path style="fill:#f0f0f0;stroke:#000;stroke-width:2" d="M469,608 l-51,4 -109,8 -110,0 -109,-8 -51,-4 -9,4 0,21 7,5 53,4 109,8 110,0 109,-8 49,-4 7,-5 2,-21 -7,-4z" />
<path style="fill:#f0f0f0;stroke:#000;stroke-width:2" d="M471,569 l-53,4 -109,7 -110,0 -109,-7 -53,-4 -9,4 0,20 9,6 53,4 109,7 110,0 109,-7 53,-4 9,-6 0,-20 -9,-4z" />
<path style="fill:#f0f0f0;stroke:#000;stroke-width:2" d="M471,529 l-53,4 -109,7 -110,0 -109,-7 -53,-4 -9,4 0,21 9,5 53,4 109,8 110,0 109,-8 53,-4 9,-5 0,-21 -9,-4z" />
<path style="fill:#f0f0f0;stroke:#000;stroke-width:2" d="M471,490 l-53,3 -109,8 -110,0 -109,-8 -53,-3 -9,3 0,21 9,6 53,4 109,7 110,0 109,-7 53,-4 9,-6 0,-21 -9,-3z" />
<path style="fill:#f0f0f0;stroke:#000;stroke-width:2" d="M471,450 l-53,4 -109,7 -110,0 -109,-7 -53,-4 -9,4 0,20 9,6 53,4 109,7 110,0 109,-7 53,-4 9,-6 0,-20 -9,-4z" />
<path style="fill:#f0f0f0;stroke:#000;stroke-width:2" d="M471,410 l-53,4 -109,8 -110,0 -109,-8 -53,-4 -9,4 0,21 9,6 53,3 109,8 110,0 109,-8 53,-3 9,-6 0,-21 -9,-4z" />
<path style="fill:#f0f0f0;stroke:#000;stroke-width:2" d="M471,371 l-53,4 -109,7 -110,0 -109,-7 -53,-4 -9,4 0,20 9,6 53,4 109,7 110,0 109,-7 53,-4 9,-6 0,-20 -9,-4z" />
<path style="fill:#f0f0f0;stroke:#000;stroke-width:2" d="M471,331 l-53,4 -109,8 -110,0 -109,-8 -53,-4 -9,4 0,21 9,5 53,4 109,8 110,0 109,-8 53,-4 9,-5 0,-21 -9,-4z" />
<path style="fill:#f0f0f0;stroke:#000;stroke-width:2" d="M471,292 l-53,3 -109,8 -110,0 -109,-8 -53,-3 -9,3 0,21 9,6 53,4 109,7 110,0 109,-7 53,-4 9,-6 0,-21 -9,-3z" />
<path style="fill:#f0f0f0;stroke:#000;stroke-width:2" d="M471,252 l-53,4 -109,7 -110,0 -109,-7 -53,-4 -9,4 0,21 9,5 53,4 109,8 110,0 109,-8 53,-4 9,-5 0,-21 -9,-4z" />
<path style="fill:#f0f0f0;stroke:#000;stroke-width:2" d="M471,212 l-53,4 -109,8 -110,0 -109,-8 -53,-4 -9,4 0,21 9,6 53,3 109,8 110,0 109,-8 53,-3 9,-6 0,-21 -9,-4z" />
<path style="fill:#f0f0f0;stroke:#000;stroke-width:2" d="M471,173 l-53,4 -109,7 -110,0 -109,-7 -53,-4 -9,4 0,20 9,6 53,4 109,7 110,0 109,-7 53,-4 9,-6 0,-20 -9,-4z" />
<path style="fill:#f0f0f0;stroke:#000;stroke-width:2" d="M471,133 l-53,4 -109,8 -110,0 -109,-8 -53,-4 -9,4 0,21 9,5 53,4 109,8 110,0 109,-8 53,-4 9,-5 0,-21 -9,-4z" />
<path style="fill:none;stroke:#000;stroke-width:2" d="M480,158 l-109,9 -113,4 -115,-4 -115,-9" />
<path style="fill:none;stroke:#000;stroke-width:2" d="M480,197 l-109,10 -113,4 -115,-4 -115,-10" />
<path style="fill:none;stroke:#000;stroke-width:2" d="M480,237 l-109,9 -113,4 -115,-4 -115,-9" />
<path style="fill:none;stroke:#000;stroke-width:2" d="M480,277 l-109,9 -113,4 -115,-4 -115,-9" />
<path style="fill:none;stroke:#000;stroke-width:2" d="M480,316 l-109,10 -113,3 -115,-3 -115,-10" />
<path style="fill:none;stroke:#000;stroke-width:2" d="M480,356 l-109,9 -113,4 -115,-4 -115,-9" />
<path style="fill:none;stroke:#000;stroke-width:2" d="M480,395 l-109,10 -113,4 -115,-4 -115,-10" />
<path style="fill:none;stroke:#000;stroke-width:2" d="M480,435 l-109,9 -113,4 -115,-4 -115,-9" />
<path style="fill:none;stroke:#000;stroke-width:2" d="M480,474 l-109,10 -113,4 -115,-4 -115,-10" />
<path style="fill:none;stroke:#000;stroke-width:2" d="M480,514 l-109,10 -113,3 -115,-3 -115,-10" />
<path style="fill:none;stroke:#000;stroke-width:2" d="M480,554 l-109,9 -113,4 -115,-4 -115,-9" />
<path style="fill:none;stroke:#000;stroke-width:2" d="M480,593 l-109,10 -113,3 -115,-3 -115,-10" />
<path style="fill:none;stroke:#000;stroke-width:2" d="M474,635 l-103,7 -113,4 -115,-4 -115,-9" />
<path style="fill:none;stroke:#000;stroke-width:2" d="M461,676 l-90,8 -113,2 -115,-4 -100,-8" />
<path style="fill:none;stroke:#000;stroke-width:2" d="M439,718 l-181,7 -191,-7" />
<path style="fill:none;stroke:#000;stroke-width:2" d="M386,761 l-128,4 -144,-4" />
<path style="fill:#e0e0e0" d="M147,37 l-55,0 0,-7 55,0 0,7z" />
<path style="fill:#e0e0e0" d="M397,79 l1,0 2,0 1,0 2,0 1,0 2,0 1,0 2,0 2,0 2,-1 2,0 2,0 2,-1 1,0 2,0 2,0 1,-1 1,-1 2,0 1,0 0,-36 -32,0 0,40z" />
<path style="fill:#e0e0e0" d="M99,79 l3,0 2,0 1,0 2,0 2,0 2,0 2,0 2,1 3,0 2,0 2,1 2,0 1,-1 2,0 2,-1 2,0 0,-40 -32,0 0,40z" />
<path style="fill:#e0e0e0" d="M303,37 l-70,0 0,-7 70,0 0,7z" />
<path style="fill:#e0e0e0" d="M284,39 l-41,0 0,43 41,0 0,-43z" />
<path style="fill:#e0e0e0" d="M444,37 l-52,0 0,-7 52,0 0,7z" />
<path style="fill:#7f7f7f" d="M446,37 l-4,0 0,2 4,0 0,-2z" />
<path style="fill:#7f7f7f" d="M439,37 l-4,0 0,2 4,0 0,-2z" />
<path style="fill:#7f7f7f" d="M433,37 l-6,0 0,2 6,0 0,-2z" />
<path style="fill:#7f7f7f" d="M425,37 l-5,0 0,2 5,0 0,-2z" />
<path style="fill:#7f7f7f" d="M418,37 l-4,0 0,2 4,0 0,-2z" />
<path style="fill:#7f7f7f" d="M412,37 l-5,0 0,2 5,0 0,-2z" />
<path style="fill:#7f7f7f" d="M405,37 l-6,0 0,2 6,0 0,-2z" />
<path style="fill:#7f7f7f" d="M397,37 l-4,0 0,2 4,0 0,-2z" />
<path style="fill:#7f7f7f" d="M392,37 l-6,0 0,2 6,0 0,-2z" />
<path style="fill:#7f7f7f" d="M384,37 l-6,0 0,2 6,0 0,-2z" />
<path style="fill:#7f7f7f" d="M376,37 l-5,0 0,2 5,0 0,-2z" />
<path style="fill:#7f7f7f" d="M307,37 l-6,0 0,2 6,0 0,-2z" />
<path style="fill:#7f7f7f" d="M297,37 l-5,0 0,2 5,0 0,-2z" />
<path style="fill:#7f7f7f" d="M288,37 l-6,0 0,2 6,0 0,-2z" />
<path style="fill:#7f7f7f" d="M278,37 l-5,0 0,2 5,0 0,-2z" />
<path style="fill:#7f7f7f" d="M271,37 l-8,0 0,2 8,0 0,-2z" />
<path style="fill:#7f7f7f" d="M262,37 l-8,0 0,2 8,0 0,-2z" />
<path style="fill:#7f7f7f" d="M252,37 l-6,0 0,2 6,0 0,-2z" />
<path style="fill:#7f7f7f" d="M243,37 l-6,0 0,2 6,0 0,-2z" />
<path style="fill:#7f7f7f" d="M233,37 l-5,0 0,2 5,0 0,-2z" />
<path style="fill:#7f7f7f" d="M224,37 l-6,0 0,2 6,0 0,-2z" />
<path style="fill:#7f7f7f" d="M216,37 l-7,0 0,2 7,0 0,-2z" />
<path style="fill:#7f7f7f" d="M148,37 l-5,0 0,2 5,0 0,-2z" />
<path style="fill:#7f7f7f" d="M141,37 l-4,0 0,2 4,0 0,-2z" />
<path style="fill:#7f7f7f" d="M135,37 l-5,0 0,2 5,0 0,-2z" />
<path style="fill:#7f7f7f" d="M128,37 l-6,0 0,2 6,0 0,-2z" />
<path style="fill:#7f7f7f" d="M120,37 l-4,0 0,2 4,0 0,-2z" />
<path style="fill:#7f7f7f" d="M114,37 l-5,0 0,2 5,0 0,-2z" />
<path style="fill:#7f7f7f" d="M107,37 l-6,0 0,2 6,0 0,-2z" />
<path style="fill:#7f7f7f" d="M99,37 l-5,0 0,2 5,0 0,-2z" />
<path style="fill:#7f7f7f" d="M92,37 l-4,0 0,2 4,0 0,-2z" />
<path style="fill:#7f7f7f" d="M86,37 l-5,0 0,2 5,0 0,-2z" />
<path style="fill:#7f7f7f" d="M79,37 l-6,0 0,2 6,0 0,-2z" />
<path style="fill:#fff" d="M427,75 l0,0 -1,0 -1,1 -1,1 0,-38 3,0 0,36z" />
<path style="fill:#fff" d="M130,79 l-1,0 -1,0 -1,0 -1,0 0,-40 4,0 0,40z" />
<path style="fill:#fff" d="M145,37 l-6,0 0,-7 6,0 0,7z" />
<path style="fill:#fff" d="M282,39 l-5,0 0,43 5,0 0,-43z" />
<path style="fill:#fff" d="M303,37 l-9,0 0,-7 9,0 0,7z" />
<path style="fill:#fff" d="M442,37 l-5,0 0,-7 5,0 0,7z" />
<path style="fill:#b2b2b2;stroke:#000;stroke-width:2" d="M105,733 l-4,0 -5,3 9,21 13,6 23,2 0,22 -108,0 0,-81 25,0 4,8 11,6 21,1 11,12z" />
<path style="fill:#b2b2b2;stroke:#000;stroke-width:2" d="M365,765 l17,-2 23,-17 2,-10 -2,-3 13,-12 13,-1 11,-6 4,-8 28,0 0,81 -109,0 0,-22z" />
<path style="fill:#b2b2b2;stroke:#000;stroke-width:2" d="M229,721 l-9,0 0,85 9,0 0,-85z" />
<path style="fill:#b2b2b2;stroke:#000;stroke-width:2" d="M278,721 l-9,0 0,85 9,0 0,-85z" />
<path style="fill:#7f7f7f;stroke:#000;stroke-width:2" d="M28,801 l88,0 0,-14 -88,0 0,14z" />
<path style="fill:#7f7f7f;stroke:#000;stroke-width:2" d="M478,801 l-88,0 0,-14 88,0 0,14z" />
<path style="fill:#f0f0f0;stroke:#000;stroke-width:2" d="M37,970 l59,0 0,-13 -12,0 0,-156 -35,0 0,156 -12,0 0,13z" />
<path style="fill:#f0f0f0;stroke:#000;stroke-width:2" d="M220,970 l60,0 0,-13 -13,0 0,-155 -34,0 0,155 -13,0 0,13z" />
<path style="fill:#f0f0f0;stroke:#000;stroke-width:2" d="M471,970 l-61,0 0,-13 14,0 0,-156 34,0 0,156 13,0 0,13z" />
<path style="fill:#f0f0f0;stroke:#000;stroke-width:2" d="M269,802 l0,-77 -40,0 0,77 40,0z" />

</svg>
