<?xml version="1.0" encoding="utf-8" standalone="no"?><!DOCTYPE svg PUBLIC "-//W3C//DTD SVG 1.1//EN" "http://www.w3.org/Graphics/SVG/1.1/DTD/svg11-flat-20030114.dtd"><svg width="217" height="530" version="1.1" xmlns="http://www.w3.org/2000/svg" xmlns:xlink="http://www.w3.org/1999/xlink">

<path style="fill:#063" d="M15,484 l0,-438 2,-6 5,-6 20,-10 14,-4 16,-3 17,-1 19,-1 19,1 18,1 16,3 13,4 12,5 9,5 5,6 2,6 0,438 -2,6 -5,6 -9,5 -12,5 -13,4 -16,3 -18,1 -19,1 -19,-1 -17,-1 -16,-3 -14,-4 -20,-10 -5,-6 -2,-6z" />
<path style="fill:#197f4c" d="M22,484 l0,-438 2,-6 13,-11 10,-5 13,-4 15,-3 16,-1 17,-1 17,1 17,1 14,3 13,4 18,10 5,6 2,6 0,438 -2,6 -13,11 -10,5 -13,4 -14,3 -17,1 -17,1 -17,-1 -16,-1 -15,-3 -13,-4 -18,-10 -5,-6 -2,-6z" />
<path style="fill:#396" d="M38,484 l0,-438 1,-6 4,-6 15,-10 23,-7 13,-1 14,-1 14,1 14,1 22,7 15,10 5,6 1,6 0,438 -1,6 -11,11 -19,9 -12,3 -14,1 -14,1 -14,-1 -25,-4 -19,-9 -7,-5 -4,-6 -1,-6z" />
<path style="fill:#4cb27f" d="M57,484 l0,-438 9,-17 14,-9 18,-4 10,-1 20,2 16,7 11,10 4,12 0,438 -9,17 -14,9 -18,4 -10,1 -20,-2 -16,-7 -11,-10 -4,-12z" />
<path style="fill:#6c9" d="M77,484 l0,-438 2,-12 12,-14 5,-3 12,-2 18,5 11,14 3,12 0,438 -6,17 -14,12 -12,2 -12,-2 -14,-12 -3,-5 -2,-12z" />
<ellipse style="fill:#7fe5b2" cx="108" cy="265" rx="15" ry="250" />
<ellipse style="fill:#9fc" cx="108" cy="265" rx="4" ry="250" />
<path style="fill:none;stroke:#000;stroke-width:2" d="M15,484 l0,-438 2,-6 5,-6 20,-10 14,-4 16,-3 17,-1 19,-1 19,1 18,1 16,3 13,4 12,5 9,5 5,6 2,6 0,438 -2,6 -5,6 -9,5 -12,5 -13,4 -16,3 -18,1 -19,1 -19,-1 -17,-1 -16,-3 -14,-4 -20,-10 -5,-6 -2,-6" />

</svg>
