<?xml version="1.0" encoding="utf-8" standalone="no"?><!DOCTYPE svg PUBLIC "-//W3C//DTD SVG 1.1//EN" "http://www.w3.org/Graphics/SVG/1.1/DTD/svg11-flat-20030114.dtd"><svg width="999" height="999" version="1.1" xmlns="http://www.w3.org/2000/svg" xmlns:xlink="http://www.w3.org/1999/xlink">

<circle style="fill:#ccc;stroke:#000;stroke-width:2" cx="499" cy="499" r="471" />
<path style="fill:none;stroke:#fff;stroke-width:2" d="M262,262 l-21,25 -19,26 -17,28 -14,30 -11,31 -9,31 -4,33 -2,16 0,17 0,17 3,34 7,32 10,31 13,30 15,28 18,27 21,24 23,23 25,20 26,18 29,15 30,13 31,10 32,6 34,4 17,0 16,0 32,-4 32,-6 32,-9 30,-13 29,-15 27,-18 25,-21 11,-12" />
<path style="fill:none;stroke:#7f7f7f;stroke-width:2" d="M733,733 l23,-23 19,-27 17,-28 14,-29 11,-31 8,-32 5,-32 1,-16 0,-16 0,-17 -4,-34 -6,-32 -10,-31 -13,-30 -15,-29 -18,-26 -20,-25 -23,-23 -24,-21 -27,-18 -28,-15 -30,-13 -31,-10 -32,-7 -34,-3 -17,0 -17,0 -32,3 -32,7 -32,10 -30,12 -29,16 -27,18 -26,20 -12,11" />
<path style="fill:none;stroke:#fff;stroke-width:2" d="M522,936 l4,-4 3,-4 2,-4 3,-4 2,-5 1,-4 1,-5 1,-6 -2,-9 -3,-9 -4,-8 -6,-7 -8,-6 -9,-5 -10,-3 -10,-1 -4,0 -5,1 -4,1 -5,1 -5,2 -4,3 -4,2 -3,4" />
<path style="fill:none;stroke:#7f7f7f;stroke-width:2" d="M453,866 l-3,4 -3,4 -2,4 -2,4 -2,5 -1,4 -1,5 0,4 1,11 3,9 4,8 6,8 8,5 8,5 9,2 9,1 6,0 4,0 6,-1 4,-2 5,-2 4,-2 3,-3 3,-3" />
<path style="fill:none;stroke:#fff;stroke-width:2" d="M543,130 l3,-3 3,-3 3,-5 2,-4 1,-5 1,-5 1,-4 0,-6 -1,-9 -3,-9 -4,-9 -6,-7 -7,-6 -8,-5 -9,-3 -11,-1 -5,1 -5,0 -4,2 -5,2 -4,2 -4,2 -4,3 -4,2" />
<path style="fill:none;stroke:#7f7f7f;stroke-width:2" d="M473,60 l-3,4 -3,4 -2,4 -2,5 -2,5 -1,4 0,5 -1,4 2,10 2,10 5,9 5,7 8,6 8,5 9,3 10,1 6,0 4,-1 5,-1 4,-2 5,-3 4,-3 3,-3 4,-3" />
<path style="fill:none;stroke:#fff;stroke-width:2" d="M936,543 l3,-4 3,-3 2,-4 2,-5 2,-4 1,-5 0,-4 0,-6 -1,-10 -2,-9 -5,-8 -5,-8 -8,-5 -8,-5 -9,-2 -11,-2 -4,1 -5,0 -4,1 -5,2 -4,2 -4,2 -4,3 -4,3" />
<path style="fill:none;stroke:#7f7f7f;stroke-width:2" d="M866,473 l-4,4 -2,4 -3,4 -2,4 -1,5 -1,4 -1,5 0,5 1,11 3,9 5,8 6,7 7,6 8,4 9,3 9,1 6,0 5,-1 4,-1 5,-1 4,-2 4,-3 4,-3 4,-3" />
<path style="fill:none;stroke:#fff;stroke-width:2" d="M130,525 l3,-4 3,-4 3,-4 3,-5 2,-5 1,-4 1,-5 0,-4 -1,-11 -3,-9 -5,-9 -6,-7 -7,-7 -9,-4 -10,-3 -10,-1 -4,0 -5,1 -4,1 -5,2 -5,2 -4,3 -4,4 -4,3" />
<path style="fill:none;stroke:#7f7f7f;stroke-width:2" d="M60,455 l-2,4 -3,3 -2,4 -2,4 -2,5 -2,5 0,4 -1,6 1,9 3,9 5,8 6,8 7,6 9,4 9,3 9,2 6,-1 4,-1 5,-1 5,-2 4,-2 5,-2 3,-3 3,-2" />
<path style="fill:none;stroke:#fff;stroke-width:2" d="M726,887 l4,-4 2,-4 3,-4 2,-4 1,-4 2,-5 0,-5 0,-5 -1,-10 -3,-9 -4,-9 -6,-7 -8,-6 -8,-4 -9,-3 -9,-1 -6,1 -5,0 -4,1 -5,2 -4,2 -4,2 -4,3 -3,3" />
<path style="fill:none;stroke:#7f7f7f;stroke-width:2" d="M657,817 l-3,4 -3,4 -3,4 -2,4 -1,5 -1,5 -1,4 0,5 1,10 3,9 4,8 6,8 7,6 8,4 9,2 11,1 4,0 5,0 4,-1 5,-2 5,-2 4,-2 4,-3 3,-3" />
<path style="fill:none;stroke:#fff;stroke-width:2" d="M341,181 l3,-4 3,-4 3,-4 2,-4 1,-5 1,-5 1,-4 0,-5 -1,-10 -3,-9 -5,-9 -6,-8 -7,-6 -8,-5 -9,-3 -10,-1 -5,1 -5,0 -4,2 -5,2 -4,2 -4,3 -4,3 -3,3" />
<path style="fill:none;stroke:#7f7f7f;stroke-width:2" d="M272,111 l-4,4 -2,4 -3,4 -2,4 -1,4 -2,5 0,5 0,5 1,10 3,9 4,8 6,7 7,6 8,5 9,3 10,1 5,-1 4,0 5,-2 5,-1 4,-3 5,-2 3,-3 4,-2" />
<path style="fill:none;stroke:#fff;stroke-width:2" d="M887,341 l3,-4 3,-3 2,-5 2,-4 2,-5 1,-5 0,-4 0,-5 -1,-10 -2,-9 -4,-8 -6,-7 -8,-6 -8,-4 -9,-3 -10,-1 -5,0 -5,0 -5,2 -4,1 -5,2 -4,3 -3,2 -4,4" />
<path style="fill:none;stroke:#7f7f7f;stroke-width:2" d="M817,272 l-3,3 -3,4 -2,4 -2,4 -2,5 -1,4 0,5 -1,5 1,10 3,9 4,8 6,7 7,6 9,5 9,3 10,1 5,0 5,-1 5,-1 4,-1 4,-2 4,-3 4,-3 4,-3" />
<path style="fill:none;stroke:#fff;stroke-width:2" d="M181,726 l2,-3 3,-4 2,-4 3,-5 1,-5 2,-4 0,-5 1,-4 -1,-11 -3,-9 -5,-8 -6,-7 -7,-6 -8,-4 -9,-3 -10,-1 -5,0 -5,1 -5,1 -4,1 -4,2 -4,3 -4,3 -4,3" />
<path style="fill:none;stroke:#7f7f7f;stroke-width:2" d="M111,657 l-3,3 -3,4 -3,4 -2,4 -2,5 -2,4 0,5 -1,6 1,10 3,9 5,8 6,7 8,6 9,4 9,3 10,1 5,0 4,0 5,-2 5,-1 4,-2 4,-3 4,-2 4,-4" />
<path style="fill:none;stroke:#fff;stroke-width:2" d="M323,877 l3,-3 3,-4 3,-5 2,-4 2,-5 2,-5 0,-4 1,-5 -1,-10 -3,-9 -5,-8 -6,-7 -8,-6 -9,-4 -9,-3 -10,-1 -5,0 -4,1 -5,1 -5,1 -4,2 -4,3 -4,2 -4,4" />
<path style="fill:none;stroke:#7f7f7f;stroke-width:2" d="M253,808 l-3,4 -2,3 -3,4 -2,4 -1,5 -2,5 -1,4 0,5 1,10 3,9 5,8 6,7 7,7 8,4 9,3 10,1 5,0 5,0 5,-1 5,-2 4,-2 4,-2 4,-3 3,-4" />
<path style="fill:none;stroke:#fff;stroke-width:2" d="M743,190 l3,-4 3,-4 2,-4 2,-4 2,-5 1,-4 0,-5 0,-4 -1,-11 -2,-9 -4,-8 -6,-7 -8,-6 -8,-5 -9,-2 -10,-1 -5,0 -4,0 -5,1 -5,2 -4,2 -4,2 -4,3 -4,4" />
<path style="fill:none;stroke:#7f7f7f;stroke-width:2" d="M673,121 l-3,3 -3,4 -3,4 -1,4 -2,5 -1,4 0,5 -1,6 1,9 3,9 4,8 6,7 7,7 9,4 9,3 10,1 5,0 5,-1 5,-1 4,-1 4,-2 4,-3 4,-2 4,-4" />
<path style="fill:none;stroke:#fff;stroke-width:2" d="M877,743 l4,-4 3,-4 2,-4 2,-4 2,-4 1,-5 0,-5 0,-5 -1,-10 -2,-9 -5,-9 -6,-7 -7,-6 -8,-4 -9,-3 -11,-1 -5,1 -4,0 -5,1 -5,2 -4,1 -4,3 -3,3 -4,3" />
<path style="fill:none;stroke:#7f7f7f;stroke-width:2" d="M808,673 l-4,4 -2,4 -3,4 -2,4 -1,5 -1,5 -1,4 0,5 1,10 3,9 4,8 6,8 7,6 8,4 9,2 10,1 5,0 4,0 5,-1 5,-2 4,-2 5,-2 4,-3 3,-3" />
<path style="fill:none;stroke:#fff;stroke-width:2" d="M190,323 l4,-3 2,-4 3,-4 2,-4 1,-5 1,-5 1,-5 0,-5 -1,-10 -3,-9 -4,-8 -7,-7 -7,-6 -8,-5 -9,-3 -9,-1 -6,0 -5,1 -4,2 -5,1 -4,2 -4,3 -4,2 -3,3" />
<path style="fill:none;stroke:#7f7f7f;stroke-width:2" d="M121,253 l-4,4 -3,4 -2,4 -2,4 -2,5 -1,5 0,4 0,5 1,10 2,9 5,9 6,8 7,6 8,5 9,3 11,1 4,-1 5,0 4,-2 5,-2 4,-2 4,-3 4,-3 4,-3" />

</svg>
