<?xml version="1.0" encoding="utf-8" standalone="no"?><!DOCTYPE svg PUBLIC "-//W3C//DTD SVG 1.1//EN" "http://www.w3.org/Graphics/SVG/1.1/DTD/svg11-flat-20030114.dtd"><svg width="530" height="215" version="1.1" xmlns="http://www.w3.org/2000/svg" xmlns:xlink="http://www.w3.org/1999/xlink">

<path style="fill:#366" d="M482,155 l0,23 33,0 0,-23 -33,0z" />
<path style="fill:#4c7f7f" d="M482,157 l0,19 33,0 0,-19 -33,0z" />
<path style="fill:#699" d="M482,161 l0,11 33,0 0,-11 -33,0z" />
<path style="fill:#9cc" d="M482,165 l0,3 33,0 0,-3 -33,0z" />
<path style="fill:none;stroke:#000;stroke-width:2" d="M482,155 l0,23 33,0 0,-23 -33,0" />
<path style="fill:#366" d="M15,54 l0,23 33,0 0,-23 -33,0z" />
<path style="fill:#4c7f7f" d="M15,57 l0,18 33,0 0,-18 -33,0z" />
<path style="fill:#699" d="M15,60 l0,12 33,0 0,-12 -33,0z" />
<path style="fill:#9cc" d="M15,65 l0,2 33,0 0,-2 -33,0z" />
<path style="fill:none;stroke:#000;stroke-width:2" d="M15,54 l0,23 33,0 0,-23 -33,0" />
<path style="fill:#366;stroke:#000;stroke-width:2" d="M293,33 l-18,0 0,21 18,0 0,-21z" />
<path style="fill:#4c7f7f" d="M292,33 l-15,0 0,21 15,0 0,-21z" />
<path style="fill:#699" d="M289,33 l-9,0 0,21 9,0 0,-21z" />
<path style="fill:#9cc" d="M285,33 l-2,0 0,21 2,0 0,-21z" />
<path style="fill:#194c4c;stroke:#000;stroke-width:2" d="M48,179 l434,0 7,-1 11,-10 9,-17 5,-22 1,-13 -3,-24 -7,-20 -10,-13 -6,-4 -7,-1 -434,0 -7,1 -11,10 -9,16 -5,23 -1,12 3,25 7,20 10,13 6,4 7,1z" />
<path style="fill:#366" d="M48,174 l434,0 7,-1 11,-9 9,-16 5,-20 1,-12 -3,-22 -7,-18 -10,-12 -6,-4 -7,-1 -434,0 -7,1 -11,9 -9,15 -5,21 -1,11 3,23 7,18 10,12 6,4 7,1z" />
<path style="fill:#4c7f7f" d="M48,166 l434,0 13,-4 10,-11 7,-16 3,-19 -3,-19 -7,-16 -10,-10 -13,-4 -434,0 -13,4 -10,10 -7,16 -3,19 3,19 7,16 10,11 13,4z" />
<path style="fill:#699" d="M48,153 l434,0 13,-3 14,-14 5,-13 1,-7 -3,-14 -7,-12 -16,-9 -7,-1 -434,0 -13,3 -14,13 -5,13 -1,7 3,14 7,12 16,10 7,1z" />
<path style="fill:#7fb2b2" d="M48,137 l434,0 18,-3 12,-10 3,-8 -10,-15 -16,-6 -448,0 -16,6 -9,11 -1,4 6,12 14,7 13,2z" />
<path style="fill:#9cc" d="M48,121 l434,0 18,-1 14,-3 1,-1 -15,-4 -5,-1 -460,0 -14,2 -6,3 15,4 18,1z" />
<path style="fill:none;stroke:#000;stroke-width:2" d="M482,54 l0,125" />
<path style="fill:none;stroke:#000;stroke-width:2" d="M48,54 l0,125" />
<path style="fill:#366" d="M301,15 l-33,0 0,18 33,0 0,-18z" />
<path style="fill:#4c7f7f" d="M298,15 l-27,0 0,18 27,0 0,-18z" />
<path style="fill:#699" d="M293,15 l-17,0 0,18 17,0 0,-18z" />
<path style="fill:#9cc" d="M286,15 l-3,0 0,18 3,0 0,-18z" />
<path style="fill:none;stroke:#000;stroke-width:2" d="M301,15 l-33,0 0,18 33,0 0,-18" />
<path style="fill:#366;stroke:#000;stroke-width:2" d="M103,33 l-18,0 0,21 18,0 0,-21z" />
<path style="fill:#4c7f7f" d="M101,33 l-14,0 0,21 14,0 0,-21z" />
<path style="fill:#699" d="M99,33 l-10,0 0,21 10,0 0,-21z" />
<path style="fill:#9cc" d="M95,33 l-2,0 0,21 2,0 0,-21z" />
<path style="fill:#366" d="M111,15 l-34,0 0,18 34,0 0,-18z" />
<path style="fill:#4c7f7f" d="M107,15 l-26,0 0,18 26,0 0,-18z" />
<path style="fill:#699" d="M102,15 l-16,0 0,18 16,0 0,-18z" />
<path style="fill:#9cc" d="M96,15 l-4,0 0,18 4,0 0,-18z" />
<path style="fill:none;stroke:#000;stroke-width:2" d="M111,15 l-34,0 0,18 34,0 0,-18" />
<path style="fill:#194c4c" d="M471,200 l13,0 0,-167 -13,0 0,167z" />
<path style="fill:#366" d="M471,193 l13,0 0,-153 -13,0 0,153z" />
<path style="fill:#4c7f7f" d="M471,182 l13,0 0,-132 -13,0 0,132z" />
<path style="fill:#699" d="M471,165 l13,0 0,-98 -13,0 0,98z" />
<path style="fill:#7fb2b2" d="M471,144 l13,0 0,-56 -13,0 0,56z" />
<path style="fill:#9cc" d="M471,123 l13,0 0,-14 -13,0 0,14z" />
<path style="fill:none;stroke:#000;stroke-width:2" d="M471,200 l13,0 0,-167 -13,0 0,167" />
<path style="fill:#194c4c" d="M458,200 l13,0 0,-167 -13,0 0,167z" />
<path style="fill:#366" d="M458,193 l13,0 0,-153 -13,0 0,153z" />
<path style="fill:#4c7f7f" d="M458,182 l13,0 0,-132 -13,0 0,132z" />
<path style="fill:#699" d="M458,165 l13,0 0,-98 -13,0 0,98z" />
<path style="fill:#7fb2b2" d="M458,144 l13,0 0,-56 -13,0 0,56z" />
<path style="fill:#9cc" d="M458,123 l13,0 0,-14 -13,0 0,14z" />
<path style="fill:none;stroke:#000;stroke-width:2" d="M458,200 l13,0 0,-167 -13,0 0,167" />
<path style="fill:#194c4c" d="M59,200 l13,0 0,-167 -13,0 0,167z" />
<path style="fill:#366" d="M59,193 l13,0 0,-153 -13,0 0,153z" />
<path style="fill:#4c7f7f" d="M59,182 l13,0 0,-132 -13,0 0,132z" />
<path style="fill:#699" d="M59,165 l13,0 0,-98 -13,0 0,98z" />
<path style="fill:#7fb2b2" d="M59,144 l13,0 0,-56 -13,0 0,56z" />
<path style="fill:#9cc" d="M59,123 l13,0 0,-14 -13,0 0,14z" />
<path style="fill:none;stroke:#000;stroke-width:2" d="M59,200 l13,0 0,-167 -13,0 0,167" />
<path style="fill:#194c4c" d="M46,200 l13,0 0,-167 -13,0 0,167z" />
<path style="fill:#366" d="M46,193 l13,0 0,-153 -13,0 0,153z" />
<path style="fill:#4c7f7f" d="M46,182 l13,0 0,-132 -13,0 0,132z" />
<path style="fill:#699" d="M46,165 l13,0 0,-98 -13,0 0,98z" />
<path style="fill:#7fb2b2" d="M46,144 l13,0 0,-56 -13,0 0,56z" />
<path style="fill:#9cc" d="M46,123 l13,0 0,-14 -13,0 0,14z" />
<path style="fill:none;stroke:#000;stroke-width:2" d="M46,200 l13,0 0,-167 -13,0 0,167" />

</svg>
