<?xml version="1.0" encoding="utf-8" standalone="no"?><!DOCTYPE svg PUBLIC "-//W3C//DTD SVG 1.1//EN" "http://www.w3.org/Graphics/SVG/1.1/DTD/svg11-flat-20030114.dtd"><svg width="604" height="999" version="1.1" xmlns="http://www.w3.org/2000/svg" xmlns:xlink="http://www.w3.org/1999/xlink">

<path style="fill:#7f0000" d="M408,105 l-213,0 -33,4 -31,11 -29,16 -24,22 -21,27 -16,30 -9,35 -3,17 -1,19 0,401 4,38 9,34 16,31 21,28 24,22 29,16 31,11 17,3 16,1 213,0 34,-4 31,-11 29,-16 24,-22 21,-28 15,-31 10,-34 2,-19 1,-19 0,-401 -3,-36 -10,-35 -15,-30 -21,-27 -24,-22 -29,-16 -31,-11 -17,-3 -17,-1z" />
<path style="fill:#940000" d="M394,105 l-35,0 -11,0 -12,0 -81,0 -35,0 -40,4 -27,10 -25,17 -22,22 -17,27 -14,30 -8,34 -3,37 0,75 -1,12 0,13 0,213 1,38 0,50 3,38 8,34 14,31 17,27 22,22 25,17 27,11 14,2 15,1 11,0 35,0 93,0 35,0 40,-3 28,-11 24,-17 21,-22 18,-27 14,-31 8,-34 3,-19 0,-19 0,-12 0,-63 0,-38 0,-201 0,-37 0,-50 -3,-37 -8,-34 -14,-30 -18,-27 -21,-22 -24,-17 -28,-10 -29,-4z" />
<path style="fill:#ab0000" d="M380,105 l-29,0 -10,0 -10,0 -69,0 -29,0 -35,4 -23,10 -21,17 -18,22 -15,27 -12,30 -7,34 -2,37 0,75 -1,12 0,13 0,213 1,38 0,50 2,37 7,35 12,31 15,27 18,22 21,17 23,11 12,3 13,1 10,0 29,-1 79,0 29,1 35,-4 23,-11 21,-17 18,-22 15,-27 12,-31 7,-35 2,-18 0,-19 0,-12 0,-63 0,-38 0,-201 0,-37 0,-50 -2,-37 -7,-34 -12,-30 -15,-27 -18,-22 -21,-17 -23,-10 -25,-4z" />
<path style="fill:#bf0000" d="M366,105 l-24,0 -8,-1 -8,0 -57,0 -32,1 -30,8 -27,22 -15,23 -12,27 -10,30 -6,35 -2,36 0,75 0,13 0,12 0,214 0,37 0,51 2,37 6,34 10,31 12,27 15,22 27,24 19,7 11,1 8,0 32,-1 57,0 32,1 30,-8 27,-24 15,-22 12,-27 10,-31 6,-34 1,-18 1,-19 0,-13 0,-63 -1,-37 0,-201 1,-38 0,-50 -2,-36 -6,-35 -10,-30 -12,-27 -15,-23 -27,-22 -30,-8z" />
<path style="fill:#d40000" d="M352,104 l-19,0 -6,0 -6,0 -45,0 -34,1 -22,14 -20,27 -11,25 -9,29 -5,32 -4,36 0,31 0,62 -1,13 0,13 0,213 1,38 0,50 1,37 5,34 8,31 9,27 12,22 21,24 15,7 9,1 6,0 32,-1 38,0 34,0 22,-14 20,-27 11,-25 8,-29 6,-33 4,-35 0,-19 0,-12 0,-63 0,-38 0,-201 0,-38 0,-50 -1,-36 -5,-35 -8,-30 -9,-27 -12,-23 -21,-23 -24,-8z" />
<path style="fill:#eb0000" d="M339,104 l-14,0 -5,0 -5,0 -32,0 -30,4 -21,27 -12,36 -6,29 -5,32 -2,36 0,31 0,62 -1,13 0,13 0,213 1,38 0,50 1,37 3,34 6,31 7,27 13,32 22,21 6,1 4,0 28,0 28,0 31,-8 15,-23 12,-36 6,-29 5,-33 2,-35 0,-19 0,-12 0,-63 0,-38 0,-201 0,-38 0,-50 -1,-36 -4,-35 -5,-30 -7,-27 -13,-32 -21,-21 -6,-1z" />
<path style="fill:#f00" d="M325,104 l-46,0 -4,1 -14,21 -8,32 -4,27 -4,31 -2,34 0,18 0,19 0,402 0,36 2,35 4,31 4,27 8,31 14,21 4,1 46,0 4,-1 13,-21 8,-31 5,-27 3,-31 2,-35 1,-18 0,-18 0,-402 -1,-37 -2,-34 -3,-31 -5,-27 -8,-32 -13,-21 -4,-1z" />
<path style="fill:none;stroke:#000;stroke-width:2" d="M410,104 l-216,0 -33,4 -31,11 -29,16 -24,23 -21,27 -15,31 -10,34 -2,18 -1,19 0,402 3,36 10,35 15,31 21,27 24,22 29,17 31,11 16,2 17,1 216,0 33,-3 31,-11 28,-17 25,-22 20,-27 16,-31 9,-35 3,-18 1,-18 0,-402 -4,-37 -9,-34 -16,-31 -20,-27 -25,-23 -28,-16 -31,-11 -17,-3 -16,-1" />
<path style="fill:none;stroke:#000;stroke-width:2" d="M575,286 l-547,0" />
<path style="fill:none;stroke:#000;stroke-width:2" d="M575,687 l-547,0" />
<path style="fill:#7f0000" d="M508,970 l-404,0 0,-129 404,0 0,129z" />
<path style="fill:#940000" d="M479,970 l-11,0 -11,0 -11,0 -32,0 -33,0 -173,0 -33,0 -43,0 0,-24 0,-8 0,-9 0,-56 0,-32 65,0 11,-1 11,0 184,0 33,1 32,0 11,0 0,8 0,32 0,57 0,32z" />
<path style="fill:#ab0000" d="M451,970 l-10,0 -9,0 -9,0 -36,-1 -163,0 -36,1 -27,0 0,-25 0,-8 0,-8 0,-56 0,-33 54,0 9,0 9,0 154,0 36,0 18,0 10,0 0,8 -1,33 0,56 1,33z" />
<path style="fill:#bf0000" d="M422,970 l-7,0 -8,0 -7,0 -22,0 -14,-1 -123,0 -15,1 -36,0 0,-25 0,-8 0,-8 0,-56 0,-17 0,-16 43,0 8,0 7,0 123,0 15,0 29,0 7,0 0,8 0,16 -1,17 0,56 1,16 0,17z" />
<path style="fill:#d40000" d="M393,970 l-11,0 -11,0 -11,0 -11,-1 -87,0 -11,1 -32,0 0,-25 0,-8 0,-8 0,-57 0,-16 0,-16 32,0 11,0 11,0 76,0 11,0 22,0 11,0 0,8 0,16 0,16 0,57 0,16 0,17z" />
<path style="fill:#eb0000" d="M365,969 l-8,0 -7,0 -8,0 -14,0 -51,0 -15,0 -14,0 0,-24 -1,-8 0,-8 0,-57 1,-16 0,-16 21,0 8,0 7,0 51,0 15,0 7,0 8,0 0,8 0,16 -1,16 0,57 1,16 0,16z" />
<path style="fill:#f00" d="M336,970 l-59,0 0,-130 59,0 0,130z" />
<path style="fill:#7f7f7f;stroke:#000;stroke-width:2" d="M421,871 l-45,0 -14,2 -11,9 -8,11 -2,15 0,10 6,12 9,10 13,5 7,1 45,0 12,-3 11,-7 7,-12 3,-13 -1,-10 -5,-14 -9,-10 -12,-6 -6,0z" />
<path style="fill:#7f7f7f;stroke:#000;stroke-width:2" d="M240,871 l-46,0 -14,2 -11,9 -7,11 -3,15 1,10 5,12 10,10 12,5 7,1 46,0 13,-3 10,-7 7,-12 2,-13 -1,-10 -4,-14 -9,-10 -12,-6 -6,0z" />
<path style="fill:none;stroke:#000;stroke-width:2" d="M508,970 l-403,0 0,-130 403,0 0,130" />
<path style="fill:#7f0000" d="M414,42 l-225,0 0,64 225,0 0,-64z" />
<path style="fill:#940000" d="M397,42 l-36,0 -12,-1 -12,0 -84,0 -12,1 -36,0 0,12 0,3 0,4 0,28 0,12 0,4 12,0 24,0 12,0 96,0 12,0 24,0 12,0 0,-4 0,-12 0,-32 0,-11 0,-4z" />
<path style="fill:#ab0000" d="M381,42 l-30,0 -10,-1 -10,0 -70,0 -10,1 -30,0 0,12 0,3 0,4 0,28 0,12 0,4 10,0 20,0 10,0 80,0 10,0 20,0 10,0 0,-4 -1,-12 0,-32 1,-11 0,-4z" />
<path style="fill:#bf0000" d="M364,42 l-23,0 -9,-1 -7,0 -56,0 -16,1 -15,0 0,12 -1,3 0,4 0,28 1,12 0,4 7,0 16,0 16,0 55,0 16,0 8,0 8,0 0,-4 0,-12 0,-32 0,-11 0,-4z" />
<path style="fill:#d40000" d="M348,42 l-18,0 -6,-1 -6,0 -41,0 -11,1 -12,0 0,12 0,3 0,4 0,28 0,12 0,4 6,0 11,0 12,0 41,0 12,0 6,0 6,0 0,-4 0,-12 0,-32 0,-11 0,-4z" />
<path style="fill:#eb0000" d="M331,42 l-11,0 -4,-1 -4,0 -26,0 -12,1 -4,0 0,12 0,3 0,4 0,28 0,12 0,4 4,0 12,0 30,0 12,0 3,0 0,-4 0,-12 0,-32 0,-11 0,-4z" />
<path style="fill:#f00" d="M316,42 l-29,0 0,64 29,0 0,-64z" />
<path style="fill:none;stroke:#000;stroke-width:2" d="M414,42 l-225,0 0,64 225,0 0,-64" />
<path style="fill:#666;stroke:#000;stroke-width:2" d="M423,28 l-19,0 0,49 19,0 0,-49z" />
<path style="fill:#666;stroke:#000;stroke-width:2" d="M384,28 l-19,0 0,49 19,0 0,-49z" />
<path style="fill:#666;stroke:#000;stroke-width:2" d="M345,28 l-19,0 0,49 19,0 0,-49z" />
<path style="fill:#666;stroke:#000;stroke-width:2" d="M306,28 l-19,0 0,49 19,0 0,-49z" />
<path style="fill:#666;stroke:#000;stroke-width:2" d="M267,28 l-19,0 0,49 19,0 0,-49z" />
<path style="fill:#666;stroke:#000;stroke-width:2" d="M228,28 l-19,0 0,49 19,0 0,-49z" />
<path style="fill:#666;stroke:#000;stroke-width:2" d="M189,28 l-19,0 0,49 19,0 0,-49z" />
<path style="fill:#7f7f7f" d="M453,38 l-308,0 0,29 308,0 0,-29z" />
<path style="fill:#999" d="M415,37 l-44,0 -7,0 -8,0 -123,0 -14,0 -37,0 0,4 0,4 0,3 0,11 0,4 0,3 8,0 36,0 14,0 124,0 14,0 30,0 7,0 0,-3 0,-11 0,-11 0,-4z" />
<path style="fill:#b2b2b2" d="M378,37 l-30,0 -10,0 -79,0 -10,0 -29,0 -1,8 0,14 1,7 29,0 10,0 79,0 10,0 30,0 -1,-11 0,-10 1,-8z" />
<path style="fill:#ccc" d="M341,38 l-84,0 0,29 84,0 0,-29z" />
<path style="fill:none;stroke:#000;stroke-width:2" d="M453,38 l-308,0 0,29 308,0 0,-29" />
<path style="fill:none;stroke:#000;stroke-width:2" d="M453,52 l-308,0" />

</svg>
