<?xml version="1.0" encoding="utf-8" standalone="no"?><!DOCTYPE svg PUBLIC "-//W3C//DTD SVG 1.1//EN" "http://www.w3.org/Graphics/SVG/1.1/DTD/svg11-flat-20030114.dtd"><svg width="999" height="855" version="1.1" xmlns="http://www.w3.org/2000/svg" xmlns:xlink="http://www.w3.org/1999/xlink">

<path style="fill:#ffff91;stroke:#000;stroke-width:2" d="M555,357 l-112,0 0,13 112,0 0,-13z" />
<path style="fill:#ff0;stroke:#000;stroke-width:2" d="M568,357 l-138,0 0,-3 138,0 0,3z" />
<path style="fill:#000;stroke:#000;stroke-width:2" d="M437,354 l-4,0 0,3 4,0 0,-3z" />
<path style="fill:#000;stroke:#000;stroke-width:2" d="M459,354 l-6,0 0,3 6,0 0,-3z" />
<path style="fill:#000;stroke:#000;stroke-width:2" d="M478,354 l-3,0 0,3 3,0 0,-3z" />
<path style="fill:#000;stroke:#000;stroke-width:2" d="M501,354 l-4,0 0,3 4,0 0,-3z" />
<path style="fill:#000;stroke:#000;stroke-width:2" d="M523,354 l-3,0 0,3 3,0 0,-3z" />
<path style="fill:#000;stroke:#000;stroke-width:2" d="M542,354 l-3,0 0,3 3,0 0,-3z" />
<path style="fill:#000;stroke:#000;stroke-width:2" d="M565,354 l-4,0 0,3 4,0 0,-3z" />
<path style="fill:#ffffb3" d="M53,827 l889,0 1,-1 12,-27 6,-32 4,-33 2,-28 2,-30 1,-33 0,-23 0,-12 0,-12 0,-34 -1,-33 -1,-31 -3,-28 -3,-34 -4,-28 -7,-25 -8,-13 -1,0 -889,0 -1,0 -10,27 -5,32 -4,32 -2,28 -2,30 -1,32 0,22 0,12 0,11 0,36 1,33 1,31 2,29 4,34 4,28 6,29 6,10 1,1z" />
<path style="fill:#ffff91" d="M53,827 l889,0 1,-1 11,-23 6,-30 5,-33 3,-30 2,-35 0,-9 0,-9 -888,0 -2,36 -2,32 -2,29 -5,30 -6,27 -10,15 -2,1z" />
<path style="fill:#ff0" d="M53,827 l15,-25 5,-28 4,-32 2,-24 0,-7 888,0 -2,31 -3,27 -4,26 -9,25 -6,6 -1,1 -889,0z" />
<ellipse style="fill:#ffff75;stroke:#000;stroke-width:2" cx="55" cy="598" rx="27" ry="228" />
<path style="fill:none;stroke:#000;stroke-width:2" d="M53,827 l889,0 1,-1 12,-27 6,-32 4,-33 2,-28 2,-30 1,-33 0,-23 0,-12 0,-12 0,-34 -1,-33 -1,-31 -3,-28 -3,-34 -4,-28 -7,-25 -8,-13 -1,0 -889,0 -1,0 -10,27 -5,32 -4,32 -2,28 -2,30 -1,32 0,22 0,12 0,11 0,36 1,33 1,31 2,29 4,34 4,28 6,29 6,10 1,1" />
<path style="fill:none;stroke:#7f7f7f;stroke-width:2" d="M341,827 l1,-1 13,-27 5,-32 4,-33 2,-28 2,-30 1,-33 0,-23 1,-12 0,-12 -1,-34 -1,-33 -1,-31 -2,-28 -4,-34 -4,-28 -6,-25 -9,-13 -1,0" />
<path style="fill:none;stroke:#7f7f7f;stroke-width:2" d="M657,827 l2,-1 12,-27 5,-32 4,-33 2,-28 2,-30 1,-33 1,-23 0,-12 0,-12 0,-34 -1,-33 -2,-31 -2,-28 -3,-34 -5,-28 -6,-25 -8,-13 -2,0" />
<path style="fill:none;stroke:#7f7f7f;stroke-width:2" d="M686,683 l-316,0" />
<path style="fill:none;stroke:#7f7f7f;stroke-width:2" d="M964,734 l-288,0" />
<path style="fill:none;stroke:#7f7f7f;stroke-width:2" d="M363,734 l-287,0" />
<path style="fill:#fff;stroke:#000;stroke-width:2" d="M942,705 l-71,0 0,16 71,0 0,-16z" />
<path style="fill:#f00;stroke:#000;stroke-width:2" d="M942,676 l-71,0 0,29 71,0 0,-29z" />
<path style="fill:#633;stroke:#000;stroke-width:2" d="M881,561 l0,-38 -3,-38 -93,0 3,38 0,38 93,0z" />
<ellipse style="fill:#7f7f7f;stroke:#000;stroke-width:2" cx="55" cy="523" rx="8" ry="38" />
<path style="fill:#999;stroke:#000;stroke-width:2" d="M108,338 l-23,0 0,32 23,0 0,-32z" />
<path style="fill:#ccc" d="M104,338 l-16,0 0,32 16,0 0,-32z" />
<path style="fill:#fff" d="M101,338 l-9,0 0,32 9,0 0,-32z" />
<path style="fill:none;stroke:#000;stroke-width:2" d="M108,338 l-23,0 0,32 23,0 0,-32" />
<path style="fill:#333;stroke:#000;stroke-width:2" d="M108,338 l6,-4 -6,-16 -23,0 -3,16 3,4 23,0z" />
<path style="fill:#333;stroke:#000;stroke-width:2" d="M79,98 l16,-58 -26,-6 -16,58 26,6z" />
<path style="fill:#4c4c4c;stroke:#000;stroke-width:2" d="M108,40 l-23,0 0,278 23,0 0,-278z" />
<path style="fill:#4c4c4c;stroke:#000;stroke-width:2" d="M95,98 l13,-58 -23,-6 -16,58 26,6z" />
<path style="fill:#4c4c4c;stroke:#000;stroke-width:2" d="M325,82 l3,-10 -48,0 3,10 42,0z" />
<path style="fill:#4c4c4c;stroke:#000;stroke-width:2" d="M306,34 l-4,0 0,-6 4,0 0,6z" />
<path style="fill:#999;stroke:#000;stroke-width:2" d="M331,72 l-3,-38 -48,0 -3,38 54,0z" />
<path style="fill:#999;stroke:#000;stroke-width:2" d="M325,82 l-42,0 0,288 42,0 0,-288z" />
<path style="fill:#ccc" d="M325,72 l-7,-38 -31,0 -4,38 42,0z" />
<path style="fill:#ccc" d="M315,82 l-25,0 0,288 25,0 0,-288z" />
<path style="fill:#fff" d="M312,72 l-3,-38 -10,0 -3,38 16,0z" />
<path style="fill:#fff" d="M309,82 l-10,0 0,288 10,0 0,-288z" />
<path style="fill:none;stroke:#000;stroke-width:2" d="M331,72 l-3,-38 -48,0 -3,38 54,0" />
<path style="fill:none;stroke:#000;stroke-width:2" d="M325,82 l-42,0 0,288 42,0 0,-288" />
<path style="fill:#999;stroke:#000;stroke-width:2" d="M334,312 l-60,0 0,13 60,0 0,-13z" />
<path style="fill:#999;stroke:#000;stroke-width:2" d="M334,325 l-60,0 0,9 60,0 0,-9z" />
<path style="fill:#000;stroke:#000;stroke-width:2" d="M334,325 l-60,0 0,3 60,0 0,-3z" />
<path style="fill:#ffffc8;stroke:#000;stroke-width:2" d="M903,341 l-61,0 0,29 61,0 0,-29z" />
<path style="fill:#ff0;stroke:#000;stroke-width:2" d="M913,341 l-80,0 0,-7 80,0 0,7z" />
<path style="fill:#000;stroke:#000;stroke-width:2" d="M913,334 l-80,0 0,-6 80,0 0,6z" />

</svg>
