<?xml version="1.0" encoding="utf-8" standalone="no"?><!DOCTYPE svg PUBLIC "-//W3C//DTD SVG 1.1//EN" "http://www.w3.org/Graphics/SVG/1.1/DTD/svg11-flat-20030114.dtd"><svg width="567" height="999" version="1.1" xmlns="http://www.w3.org/2000/svg" xmlns:xlink="http://www.w3.org/1999/xlink">

<path style="fill:#999" d="M121,97 l0,-40 10,0 0,-9 -39,0 0,9 9,0 0,40 20,0z" />
<path style="fill:#999" d="M464,97 l0,-40 10,0 0,-9 -39,0 0,9 10,0 0,40 19,0z" />
<path style="fill:none;stroke:#000;stroke-width:2" d="M121,97 l0,-40 10,0 0,-9 -39,0 0,9 9,0 0,40" />
<path style="fill:none;stroke:#000;stroke-width:2" d="M121,57 l-20,0" />
<path style="fill:none;stroke:#000;stroke-width:2" d="M464,97 l0,-40 10,0 0,-9 -39,0 0,9 10,0 0,40" />
<path style="fill:none;stroke:#000;stroke-width:2" d="M464,57 l-19,0" />
<path style="fill:#b2b29b;stroke:#000;stroke-width:2" d="M495,940 l-60,0 0,8 60,0 0,-8z" />
<path style="fill:#b2b29b;stroke:#000;stroke-width:2" d="M151,933 l-57,0 0,8 57,0 0,-8z" />
<path style="fill:#99997a" d="M323,700 l-29,0 0,219 29,0 0,-219z" />
<path style="fill:#abab91" d="M317,700 l-18,0 0,219 18,0 0,-219z" />
<path style="fill:#babaa6" d="M311,700 l-6,0 0,219 6,0 0,-219z" />
<path style="fill:none;stroke:#000;stroke-width:2" d="M322,700 l-28,0 0,219 28,0 0,-219" />
<path style="fill:#99997a;stroke:#000;stroke-width:2" d="M333,919 l-50,0 0,7 50,0 0,-7z" />
<path style="fill:#b2b29b" d="M140,686 l-34,0 0,247 34,0 0,-247z" />
<path style="fill:#b2b29b" d="M483,678 l-35,0 0,262 35,0 0,-262z" />
<path style="fill:#c2c2b0" d="M133,686 l-20,0 0,247 20,0 0,-247z" />
<path style="fill:#c2c2b0" d="M476,678 l-21,0 0,262 21,0 0,-262z" />
<path style="fill:#d4d4c7" d="M126,686 l-6,0 0,247 6,0 0,-247z" />
<path style="fill:#d4d4c7" d="M469,678 l-7,0 0,262 7,0 0,-262z" />
<path style="fill:none;stroke:#000;stroke-width:2" d="M138,686 l-32,0 0,247 32,0 0,-247" />
<path style="fill:none;stroke:#000;stroke-width:2" d="M482,678 l-34,0 0,262 34,0 0,-262" />
<path style="fill:#7f0000" d="M518,656 l0,-353 -471,0 0,353 11,23 23,18 28,12 24,8 28,6 30,5 33,4 35,2 12,1 12,0 36,-1 34,-3 32,-4 29,-6 27,-7 31,-11 23,-13 21,-22 2,-8 0,-4z" />
<path style="fill:#7f7f7f" d="M47,146 l0,157 471,0 0,-157 -10,-24 -24,-17 -27,-12 -24,-8 -28,-7 -31,-5 -32,-3 -35,-3 -12,0 -12,0 -36,1 -34,2 -32,5 -30,6 -26,6 -31,11 -24,14 -20,22 -2,7 -1,5z" />
<path style="fill:#991919" d="M489,656 l0,-353 -412,0 0,353 12,27 23,17 25,12 31,9 26,6 28,4 29,3 11,0 10,1 11,0 31,-1 30,-3 28,-4 26,-6 30,-9 26,-12 22,-17 13,-23 0,-4z" />
<path style="fill:#999" d="M77,146 l0,157 412,0 0,-157 -13,-27 -22,-17 -26,-12 -30,-9 -26,-6 -28,-5 -30,-2 -10,-1 -10,0 -11,0 -32,1 -29,2 -28,5 -26,6 -31,9 -25,12 -23,17 -12,22 0,5z" />
<path style="fill:#a62626" d="M459,656 l0,-353 -353,0 0,353 14,31 27,19 24,11 28,8 31,6 35,3 18,1 35,-2 34,-5 30,-7 26,-9 30,-19 18,-21 3,-16z" />
<path style="fill:#a6a6a6" d="M106,146 l0,157 353,0 0,-157 -13,-31 -27,-19 -24,-11 -28,-9 -32,-6 -34,-3 -18,0 -36,2 -33,4 -30,8 -26,9 -30,18 -18,22 -4,16z" />
<path style="fill:#b23232" d="M440,656 l0,-353 -314,0 0,353 12,31 24,19 33,15 27,7 29,5 32,2 31,-2 30,-5 27,-7 33,-15 24,-19 12,-31z" />
<path style="fill:#b2b2b2" d="M126,146 l0,157 314,0 0,-157 -12,-31 -24,-19 -33,-15 -27,-8 -30,-4 -31,-2 -32,2 -29,4 -27,8 -33,15 -24,19 -12,31z" />
<path style="fill:#cc4c4c" d="M391,656 l0,-353 -216,0 0,353 9,31 23,25 25,13 29,8 22,2 32,-4 28,-10 23,-15 20,-27 5,-23z" />
<path style="fill:#ccc" d="M175,146 l0,157 216,0 0,-157 -3,-16 -6,-15 -4,-7 -6,-6 -6,-6 -7,-6 -8,-5 -8,-4 -9,-5 -9,-3 -10,-3 -10,-1 -11,-2 -11,0 -11,0 -11,2 -10,1 -10,3 -9,3 -9,5 -9,4 -7,5 -7,6 -6,6 -6,6 -8,14 -4,15 -1,9z" />
<path style="fill:#e56565" d="M332,656 l0,-353 -98,0 0,353 4,31 10,25 20,19 15,4 27,-14 16,-28 6,-29 0,-8z" />
<path style="fill:#e5e5e5" d="M234,146 l0,157 98,0 0,-157 -1,-16 -3,-15 -5,-13 -6,-12 -7,-9 -8,-8 -9,-4 -10,-2 -10,2 -9,4 -8,8 -8,9 -6,12 -4,13 -3,15 -1,16z" />
<path style="fill:none;stroke:#000;stroke-width:2" d="M518,656 l0,-353 -471,0 0,353 11,23 23,18 28,12 24,8 28,6 30,5 33,4 35,2 12,1 12,0 36,-1 34,-3 32,-4 29,-6 27,-7 31,-11 23,-13 21,-22 2,-8 0,-4" />
<path style="fill:none;stroke:#000;stroke-width:2" d="M47,146 l0,157 471,0 0,-157 -10,-24 -24,-17 -27,-12 -24,-8 -28,-7 -31,-5 -32,-3 -35,-3 -12,0 -12,0 -36,1 -34,2 -32,5 -30,6 -26,6 -31,11 -24,14 -20,22 -2,7 -1,5" />
<path style="fill:none;stroke:#000;stroke-width:2" d="M518,146 l-471,0" />
<path style="fill:#991919;stroke:#000;stroke-width:2" d="M518,617 l-471,0 0,29 79,5 157,5 157,-5 78,-5 0,-29z" />
<path style="fill:#ccb2b2;stroke:#000;stroke-width:2" d="M538,435 l-510,0 0,10 510,0 0,-10z" />
<path style="fill:#ccccbd;stroke:#000;stroke-width:2" d="M436,960 l-70,0 0,10 70,0 0,-10z" />
<path style="fill:#ccccbd;stroke:#000;stroke-width:2" d="M204,960 l-69,0 0,10 69,0 0,-10z" />
<path style="fill:#ccccbd" d="M191,656 l-41,0 0,304 41,0 0,-304z" />
<path style="fill:#ccccbd" d="M422,656 l-41,0 0,304 41,0 0,-304z" />
<path style="fill:#deded4" d="M183,656 l-25,0 0,304 25,0 0,-304z" />
<path style="fill:#deded4" d="M414,656 l-25,0 0,304 25,0 0,-304z" />
<path style="fill:#edede8" d="M174,656 l-8,0 0,304 8,0 0,-304z" />
<path style="fill:#edede8" d="M406,656 l-9,0 0,304 9,0 0,-304z" />
<path style="fill:none;stroke:#000;stroke-width:2" d="M189,656 l-39,0 0,304 39,0 0,-304" />
<path style="fill:none;stroke:#000;stroke-width:2" d="M420,656 l-39,0 0,304 39,0 0,-304" />
<path style="fill:#e5e5e5" d="M303,106 l0,-59 19,0 0,-19 -78,0 0,19 19,0 0,59 40,0z" />
<path style="fill:none;stroke:#000;stroke-width:2" d="M303,106 l0,-59 19,0 0,-19 -78,0 0,19 19,0 0,59" />
<path style="fill:none;stroke:#000;stroke-width:2" d="M303,47 l-40,0" />
<path style="fill:#b2b2b2" d="M195,96 l0,-44 14,0 0,-14 -58,0 0,14 14,0 0,44 30,0z" />
<path style="fill:#b2b2b2" d="M401,96 l0,-44 14,0 0,-14 -58,0 0,14 15,0 0,44 29,0z" />
<path style="fill:none;stroke:#000;stroke-width:2" d="M195,96 l0,-44 14,0 0,-14 -58,0 0,14 14,0 0,44" />
<path style="fill:none;stroke:#000;stroke-width:2" d="M195,52 l-30,0" />
<path style="fill:none;stroke:#000;stroke-width:2" d="M401,96 l0,-44 14,0 0,-14 -58,0 0,14 15,0 0,44" />
<path style="fill:none;stroke:#000;stroke-width:2" d="M401,52 l-29,0" />

</svg>
