<?xml version="1.0" encoding="utf-8" standalone="no"?><!DOCTYPE svg PUBLIC "-//W3C//DTD SVG 1.1//EN" "http://www.w3.org/Graphics/SVG/1.1/DTD/svg11-flat-20030114.dtd"><svg width="512" height="999" version="1.1" xmlns="http://www.w3.org/2000/svg" xmlns:xlink="http://www.w3.org/1999/xlink">

<path style="fill:#000;stroke:#000;stroke-width:2" d="M265,933 l0,9 162,19 0,-9 -162,-19z" />
<path style="fill:#000;stroke:#000;stroke-width:2" d="M244,933 l0,9 -160,19 0,-9 160,-19z" />
<path style="fill:#000;stroke:#000;stroke-width:2" d="M265,284 l-19,0 0,658 19,0 0,-658z" />
<path style="fill:#333;stroke:#000;stroke-width:2" d="M28,952 l0,18 456,0 0,-18 -456,0z" />
<path style="fill:#ccc" d="M465,75 l0,305 -172,210 -77,0 -171,-210 0,-305 20,-19 381,0 19,19z" />
<path style="fill:#d1d1d1" d="M446,75 l0,305 -156,210 -70,0 -157,-210 0,-305 17,-19 349,0 17,19z" />
<path style="fill:#d6d6d6" d="M427,75 l0,305 -141,210 -62,0 -144,-210 2,-305 15,-19 315,0 15,19z" />
<path style="fill:#d9d9d9" d="M410,75 l0,305 -128,210 -57,0 -126,-210 0,-305 15,-19 281,0 15,19z" />
<path style="fill:#dedede" d="M392,75 l0,305 -112,210 -51,0 -111,-210 0,-305 13,-19 249,0 12,19z" />
<path style="fill:#e3e3e3" d="M373,75 l0,305 -97,210 -43,0 -98,-210 0,-305 11,-19 217,0 10,19z" />
<path style="fill:#e8e8e8" d="M356,75 l0,305 -83,210 -36,0 -83,-210 0,-305 9,-19 183,0 10,19z" />
<path style="fill:#ededed" d="M337,75 l0,305 -68,210 -30,0 -68,-210 2,-305 7,-19 149,0 8,19z" />
<path style="fill:#f2f2f2" d="M320,75 l0,305 -53,210 -24,0 -53,-210 0,-305 5,-19 117,0 8,19z" />
<path style="fill:#f5f5f5" d="M301,75 l0,305 -38,210 -17,0 -37,-210 0,-305 3,-19 85,0 4,19z" />
<path style="fill:#fafafa" d="M282,75 l0,305 -22,210 -10,0 -25,-210 0,-305 4,-19 51,0 2,19z" />
<path style="fill:#fff" d="M265,75 l0,305 -9,210 -4,0 -8,-210 0,-305 2,-19 17,0 2,19z" />
<path style="fill:none;stroke:#000;stroke-width:2" d="M465,75 l0,305 -172,210 -77,0 -171,-210 0,-305 20,-19 381,0 19,19" />
<path style="fill:#333;stroke:#000;stroke-width:2" d="M446,284 l-19,0 0,668 19,0 0,-668z" />
<path style="fill:#333;stroke:#000;stroke-width:2" d="M84,284 l-19,0 0,668 19,0 0,-668z" />
<path style="fill:#333;stroke:#000;stroke-width:2" d="M84,380 l0,19 343,0 0,-19 -343,0z" />
<path style="fill:#333;stroke:#000;stroke-width:2" d="M84,533 l0,9 343,0 0,-9 -343,0z" />
<path style="fill:#ccc;stroke:#000;stroke-width:2" d="M408,46 l-305,0 0,10 305,0 0,-10z" />
<path style="fill:#333;stroke:#000;stroke-width:2" d="M378,46 l-247,0 0,-9 247,0 0,9z" />
<path style="fill:#333;stroke:#000;stroke-width:2" d="M359,37 l-47,0 0,-9 47,0 0,9z" />
<path style="fill:#333;stroke:#000;stroke-width:2" d="M197,37 l-47,0 0,-9 47,0 0,9z" />

</svg>
