<?xml version="1.0" encoding="utf-8" standalone="no"?><!DOCTYPE svg PUBLIC "-//W3C//DTD SVG 1.1//EN" "http://www.w3.org/Graphics/SVG/1.1/DTD/svg11-flat-20030114.dtd"><svg width="514" height="999" version="1.1" xmlns="http://www.w3.org/2000/svg" xmlns:xlink="http://www.w3.org/1999/xlink">

<path style="fill:#4c4c4c" d="M442,54 l-24,0 0,43 24,0 0,-43z" />
<path style="fill:#4c4c4c;stroke:#000;stroke-width:2" d="M386,124 l0,43 -8,0 0,-43 8,0z" />
<path style="fill:#194cb2;stroke:#000;stroke-width:2" d="M461,141 l-35,0 0,622 35,0 0,-622z" />
<path style="fill:#00004c" d="M77,739 l-31,0 0,222 31,0 0,-222z" />
<path style="fill:#00004c" d="M426,739 l-33,0 0,222 33,0 0,-222z" />
<path style="fill:#00004c" d="M77,897 l0,32 316,0 0,-32 -316,0z" />
<path style="fill:#ccc" d="M442,729 l0,-543 -13,-13 -28,-13 -38,-10 -47,-6 -53,-3 -55,0 -52,3 -47,6 -40,10 -26,13 -15,13 0,543 414,0z" />
<path style="fill:#00197f" d="M442,729 l-414,0 0,34 414,0 0,-34z" />
<path style="fill:#00268c" d="M410,727 l-350,0 0,36 350,0 0,-36z" />
<path style="fill:#039" d="M380,727 l-288,0 0,36 288,0 0,-36z" />
<path style="fill:#0d40a6" d="M348,727 l-224,0 0,36 224,0 0,-36z" />
<path style="fill:#194cb2" d="M316,727 l-160,0 0,36 160,0 0,-36z" />
<path style="fill:#2659bf" d="M284,727 l-98,0 0,36 98,0 0,-36z" />
<path style="fill:#36c" d="M252,729 l-34,0 0,34 34,0 0,-34z" />
<path style="fill:none;stroke:#000;stroke-width:2" d="M442,729 l-414,0 0,34 414,0 0,-34" />
<path style="fill:#d1d1d1" d="M426,727 l0,-547 -14,-11 -24,-11 -36,-8 -44,-7 -47,-2 -51,0 -48,2 -44,7 -34,8 -26,11 -14,11 0,547 382,0z" />
<path style="fill:#d6d6d6" d="M408,727 l0,-550 -11,-10 -24,-11 -32,-8 -38,-5 -45,-2 -45,0 -44,2 -40,5 -32,8 -22,11 -11,10 0,550 344,0z" />
<path style="fill:#d9d9d9" d="M392,727 l0,-554 -12,-9 -21,-10 -28,-6 -36,-5 -39,-2 -42,0 -39,2 -34,5 -30,6 -19,10 -12,9 0,554 312,0z" />
<path style="fill:#dedede" d="M375,727 l-2,-558 -8,-9 -19,-8 -26,-6 -30,-3 -36,-2 -36,0 -36,2 -32,3 -24,6 -19,8 -10,9 0,558 278,0z" />
<path style="fill:#e3e3e3" d="M356,727 l0,-562 -8,-7 -15,-8 -23,-4 -28,-3 -30,-2 -32,0 -32,2 -26,3 -23,4 -15,8 -10,7 0,562 242,0z" />
<path style="fill:#e8e8e8" d="M339,727 l0,-565 -8,-8 -13,-4 -19,-6 -22,-1 -29,-2 -26,0 -27,2 -24,1 -19,6 -13,4 -8,8 0,565 208,0z" />
<path style="fill:#ededed" d="M322,727 l0,-571 -6,-4 -11,-4 -17,-4 -19,-3 -23,0 -22,0 -21,0 -21,3 -15,4 -11,4 -8,4 0,571 174,0z" />
<path style="fill:#f2f2f2" d="M305,727 l0,-575 -6,-4 -7,-2 -14,-3 -17,-2 -17,0 -18,0 -18,0 -15,2 -13,3 -9,2 -4,4 0,575 138,0z" />
<path style="fill:#f5f5f5" d="M288,727 l0,-579 -4,-2 -7,-2 -10,-1 -11,-2 -13,0 -14,0 -13,0 -13,2 -10,1 -5,2 -4,2 0,579 104,0z" />
<path style="fill:#fafafa" d="M271,727 l0,-583 -4,-1 -4,0 -7,-2 -8,0 -7,0 -10,0 -9,0 -8,0 -6,2 -5,0 -2,1 0,583 70,0z" />
<path style="fill:#fff" d="M252,729 l0,-588 -2,0 -4,0 -3,0 -4,0 -6,0 -4,0 -3,0 -4,0 -2,0 -2,0 0,588 34,0z" />
<path style="fill:none;stroke:#000;stroke-width:2" d="M442,729 l0,-543 -13,-13 -28,-13 -38,-10 -47,-6 -53,-3 -55,0 -52,3 -47,6 -40,10 -26,13 -15,13 0,543 414,0" />
<path style="fill:#00197f" d="M64,729 l-36,0 0,241 36,0 0,-241z" />
<path style="fill:#36c" d="M64,729 l-20,17 -16,-17 36,0z" />
<path style="fill:none;stroke:#000;stroke-width:2" d="M64,729 l-36,0 0,241 36,0 0,-241" />
<path style="fill:#00197f" d="M442,729 l-34,0 0,241 34,0 0,-241z" />
<path style="fill:#36c" d="M442,729 l-16,17 -18,-17 34,0z" />
<path style="fill:none;stroke:#000;stroke-width:2" d="M442,729 l-34,0 0,241 34,0 0,-241" />
<path style="fill:#00197f" d="M64,901 l0,35 344,0 0,-35 -344,0z" />
<path style="fill:#ccc;stroke:#000;stroke-width:2" d="M486,131 l-68,0 0,10 68,0 0,-10z" />
<path style="fill:#7f7f7f" d="M418,124 l0,-96 -70,0 0,96 70,0z" />
<path style="fill:#8c8c8c" d="M414,124 l0,-96 -62,0 0,96 62,0z" />
<path style="fill:#999" d="M410,124 l0,-96 -56,0 0,96 56,0z" />
<path style="fill:#a6a6a6" d="M408,124 l0,-96 -51,0 0,96 51,0z" />
<path style="fill:#b2b2b2" d="M405,124 l0,-96 -44,0 0,96 44,0z" />
<path style="fill:#bfbfbf" d="M403,124 l0,-96 -40,0 0,96 40,0z" />
<path style="fill:#ccc" d="M399,124 l0,-96 -32,0 0,96 32,0z" />
<path style="fill:#d9d9d9" d="M395,124 l0,-96 -26,0 0,96 26,0z" />
<path style="fill:#e5e5e5" d="M393,124 l0,-96 -20,0 0,96 20,0z" />
<path style="fill:#f2f2f2" d="M390,124 l0,-96 -13,0 0,96 13,0z" />
<path style="fill:#fff" d="M386,124 l0,-96 -8,0 0,96 8,0z" />
<path style="fill:none;stroke:#000;stroke-width:2" d="M418,124 l0,-96 -70,0 0,96 70,0" />
<path style="fill:#4c4c4c;stroke:#000;stroke-width:2" d="M435,88 l19,43 -8,0 -19,-43 8,0z" />

</svg>
