<?xml version="1.0" encoding="utf-8" standalone="no"?><!DOCTYPE svg PUBLIC "-//W3C//DTD SVG 1.1//EN" "http://www.w3.org/Graphics/SVG/1.1/DTD/svg11-flat-20030114.dtd"><svg width="763" height="999" version="1.1" xmlns="http://www.w3.org/2000/svg" xmlns:xlink="http://www.w3.org/1999/xlink">

<path style="fill:#b2b29b" d="M28,931 l0,2 28,13 32,7 32,4 37,4 27,3 29,2 31,1 32,1 34,1 35,1 18,0 18,0 36,0 35,-1 34,-1 32,-1 31,-1 29,-2 28,-3 36,-4 32,-4 32,-7 24,-9 4,-4 0,-2 0,-785 -11,-29 -23,-22 -26,-15 -32,-13 -36,-12 -28,-7 -29,-5 -31,-5 -32,-5 -34,-2 -35,-2 -18,-1 -18,0 -36,1 -35,2 -34,2 -32,5 -31,5 -29,5 -27,7 -26,8 -33,13 -28,14 -21,16 -17,22 -4,12 0,6 0,785z" />
<path style="fill:#b8b8a4" d="M56,931 l0,2 25,13 31,7 29,4 33,4 38,3 28,2 29,1 31,2 31,1 16,0 17,0 17,0 33,0 32,-1 31,-1 30,-1 28,-2 40,-3 35,-4 31,-4 32,-6 26,-9 6,-6 0,-2 0,-785 -10,-30 -22,-21 -23,-15 -29,-13 -34,-12 -25,-7 -27,-6 -28,-5 -30,-4 -31,-3 -32,-2 -17,0 -16,0 -33,0 -33,2 -31,3 -29,4 -29,5 -26,6 -26,7 -33,12 -29,13 -24,15 -22,21 -10,24 0,6 0,785z" />
<path style="fill:#bdbda9" d="M85,931 l0,2 23,13 27,7 27,4 30,4 35,3 39,3 41,2 29,1 15,0 15,0 15,0 30,0 29,-1 29,-1 40,-2 37,-3 34,-3 29,-5 32,-5 26,-10 10,-7 0,-2 0,-785 -10,-30 -19,-21 -22,-15 -26,-13 -31,-12 -35,-10 -25,-6 -26,-4 -28,-3 -29,-3 -15,-1 -15,0 -15,0 -30,0 -30,2 -28,3 -27,4 -26,5 -36,9 -32,12 -28,13 -24,14 -22,21 -12,23 -1,6 0,6 0,785z" />
<path style="fill:#bfbfad" d="M113,931 l1,4 26,13 26,6 35,6 30,3 34,3 36,2 39,2 13,0 14,0 14,0 41,0 38,-2 37,-2 33,-3 31,-3 26,-5 29,-5 24,-10 7,-5 1,-2 0,-2 0,-785 -8,-30 -18,-21 -27,-19 -25,-13 -29,-12 -33,-9 -35,-7 -38,-5 -27,-2 -13,0 -14,0 -41,1 -39,4 -36,6 -34,9 -30,11 -27,12 -22,14 -22,20 -14,23 -2,12 -1,6 0,785z" />
<path style="fill:#c4c4b2" d="M142,931 l23,17 31,7 33,6 28,3 31,3 33,2 35,1 13,0 12,0 36,0 35,-2 32,-2 30,-3 28,-3 30,-6 29,-8 18,-13 1,-2 0,-785 -8,-30 -16,-21 -24,-19 -22,-13 -26,-12 -29,-9 -32,-7 -34,-5 -24,-2 -12,0 -12,0 -37,1 -34,4 -33,6 -30,9 -27,11 -24,12 -25,19 -19,21 -10,29 0,6 0,785z" />
<path style="fill:#c9c9ba" d="M170,931 l1,4 25,15 29,7 30,5 35,4 28,2 31,2 10,0 11,0 11,0 32,0 30,-2 29,-2 35,-4 30,-5 29,-7 23,-13 2,-2 0,-2 0,-2 0,-785 -6,-30 -14,-21 -21,-19 -28,-17 -23,-11 -27,-9 -29,-6 -30,-4 -11,-1 -11,0 -10,0 -32,1 -31,4 -28,6 -27,9 -24,11 -27,17 -21,19 -14,21 -6,24 -1,6 0,785z" />
<path style="fill:#cfcfc0" d="M199,931 l1,4 21,15 31,8 27,5 31,4 34,2 18,1 19,0 18,0 36,-2 32,-3 30,-4 35,-8 23,-11 7,-7 1,-4 0,-785 -8,-35 -23,-31 -22,-17 -27,-15 -31,-11 -34,-7 -19,-2 -18,0 -19,0 -35,5 -33,9 -29,13 -25,16 -19,19 -19,32 -2,12 -1,12 0,785z" />
<path style="fill:#d4d4c7" d="M227,931 l19,19 26,8 36,7 27,3 30,2 16,0 15,0 30,-2 28,-3 35,-7 27,-8 17,-15 1,-4 0,-785 -7,-35 -19,-31 -30,-25 -24,-13 -28,-9 -30,-5 -15,0 -16,0 -30,5 -27,9 -25,13 -21,16 -23,29 -11,34 -1,12 0,785z" />
<path style="fill:#d9d9cc" d="M256,931 l21,22 24,8 31,6 36,3 13,0 13,0 35,-3 31,-6 24,-8 21,-18 1,-4 0,-785 -6,-35 -16,-31 -24,-25 -31,-18 -35,-9 -13,0 -13,0 -36,9 -31,18 -24,25 -16,31 -5,23 0,12 0,785z" />
<path style="fill:#dbdbd1" d="M284,931 l17,22 26,10 34,6 10,1 10,0 9,0 28,-3 31,-9 24,-16 4,-7 0,-4 0,-785 -4,-35 -12,-31 -19,-25 -24,-18 -28,-9 -9,0 -10,0 -28,9 -23,18 -19,25 -12,31 -4,23 -1,12 0,785z" />
<path style="fill:#e0e0d6" d="M313,931 l15,24 26,12 20,3 7,0 7,0 31,-7 21,-13 8,-15 1,-4 0,-785 -4,-35 -8,-31 -13,-25 -23,-22 -13,-5 -7,0 -7,0 -26,14 -15,21 -12,27 -7,32 -1,12 0,12 0,785z" />
<path style="fill:#e5e5dd" d="M342,931 l11,28 28,11 28,-11 11,-28 0,-785 -2,-35 -4,-31 -8,-25 -13,-22 -12,-5 -22,20 -11,32 -4,31 -2,35 0,785z" />
<path style="fill:none;stroke:#000;stroke-width:2" d="M28,931 l0,2 28,13 32,7 32,4 37,4 27,3 29,2 31,1 32,1 34,1 35,1 18,0 18,0 36,0 35,-1 34,-1 32,-1 31,-1 29,-2 28,-3 36,-4 32,-4 32,-7 24,-9 4,-4 0,-2 0,-785 -11,-29 -23,-22 -26,-15 -32,-13 -36,-12 -28,-7 -29,-5 -31,-5 -32,-5 -34,-2 -35,-2 -18,-1 -18,0 -36,1 -35,2 -34,2 -32,5 -31,5 -29,5 -27,7 -26,8 -33,13 -28,14 -21,16 -17,22 -4,12 0,6 0,785" />
<path style="fill:#99997a" d="M57,922 l0,1 25,10 30,5 29,3 34,3 38,2 28,2 29,1 30,1 31,0 17,0 16,0 50,0 32,0 31,-1 30,-1 28,-1 39,-2 36,-3 30,-3 33,-5 25,-6 7,-5 0,-1 0,-384 -648,0 0,384z" />
<path style="fill:#a1a185" d="M97,923 l0,1 28,11 28,5 27,3 31,3 34,2 38,2 40,1 14,0 15,1 14,0 43,0 29,-1 40,-1 37,-2 35,-2 31,-3 27,-3 28,-5 25,-8 3,-3 0,-1 0,-385 -567,0 0,385z" />
<path style="fill:#abab91" d="M137,924 l0,2 24,11 32,6 33,4 28,2 32,2 34,2 23,0 13,1 12,0 37,0 36,-1 34,-2 32,-2 28,-2 33,-4 27,-5 24,-8 5,-4 0,-2 0,-386 -487,0 0,386z" />
<path style="fill:#b2b29b" d="M177,926 l1,3 23,11 36,7 30,3 34,3 39,2 20,0 41,0 40,-1 36,-2 33,-3 27,-5 31,-7 15,-8 1,-3 0,-388 -407,0 0,388z" />
<path style="fill:#babaa6" d="M217,928 l1,3 27,13 31,6 41,5 30,1 17,1 33,0 32,-2 29,-2 38,-5 28,-6 19,-11 1,-3 0,-390 -327,0 0,390z" />
<path style="fill:#c4c4b2" d="M257,929 l1,3 27,16 27,6 32,3 24,2 37,-1 34,-3 28,-5 27,-9 9,-9 1,-3 0,-391 -247,0 0,391z" />
<path style="fill:#ccccbd" d="M298,931 l19,19 24,7 31,3 34,-1 28,-5 23,-11 7,-12 0,-393 -166,0 0,393z" />
<ellipse style="fill:#b2b29b" cx="381" cy="538" rx="324" ry="19" />

</svg>
