<?xml version="1.0" encoding="utf-8" standalone="no"?><!DOCTYPE svg PUBLIC "-//W3C//DTD SVG 1.1//EN" "http://www.w3.org/Graphics/SVG/1.1/DTD/svg11-flat-20030114.dtd"><svg width="748" height="999" version="1.1" xmlns="http://www.w3.org/2000/svg" xmlns:xlink="http://www.w3.org/1999/xlink">

<path style="fill:#900;stroke:#000;stroke-width:2" d="M384,667 l-21,0 0,260 21,0 0,-260z" />
<path style="fill:#900;stroke:#000;stroke-width:2" d="M699,872 l-23,-11 -43,-10 -60,-7 -74,-6 -83,-3 -85,0 -83,3 -73,6 -63,7 -41,10 -22,11 0,23 22,-11 41,-10 63,-9 73,-4 83,-4 85,0 83,4 74,4 60,9 43,10 23,11 0,-23z" />
<path style="fill:#ccc" d="M720,82 l0,347 -283,238 -126,0 -283,-238 0,-347 32,-22 629,0 31,22z" />
<path style="fill:#d1d1d1" d="M689,82 l0,347 -258,238 -115,0 -260,-238 0,-347 30,-22 575,0 28,22z" />
<path style="fill:#d6d6d6" d="M659,82 l0,347 -234,238 -105,0 -234,-238 0,-347 26,-22 523,0 24,22z" />
<path style="fill:#d9d9d9" d="M629,82 l0,347 -209,238 -95,0 -209,-238 0,-347 25,-22 465,0 23,22z" />
<path style="fill:#dedede" d="M601,82 l-2,347 -185,238 -83,0 -184,-238 0,-347 20,-22 413,0 21,22z" />
<path style="fill:#e3e3e3" d="M569,82 l0,347 -160,238 -72,0 -160,-238 0,-347 19,-22 356,0 17,22z" />
<path style="fill:#e8e8e8" d="M539,82 l0,347 -136,238 -60,0 -136,-238 0,-347 15,-22 302,0 15,22z" />
<path style="fill:#ededed" d="M510,82 l-2,347 -111,238 -49,0 -111,-238 0,-347 11,-22 249,0 13,22z" />
<path style="fill:#f2f2f2" d="M480,82 l0,347 -88,238 -38,0 -87,-238 0,-347 9,-22 195,0 9,22z" />
<path style="fill:#f5f5f5" d="M450,82 l0,347 -64,238 -26,0 -65,-238 0,-347 8,-22 139,0 8,22z" />
<path style="fill:#fafafa" d="M420,82 l0,347 -38,238 -19,0 -38,-238 0,-347 6,-22 83,0 6,22z" />
<path style="fill:#fff" d="M390,82 l0,347 -14,238 -5,0 -15,-238 0,-347 2,-22 30,0 2,22z" />
<path style="fill:none;stroke:#000;stroke-width:2" d="M720,82 l0,347 -283,238 -126,0 -283,-238 0,-347 32,-22 629,0 31,22" />
<path style="fill:#ccc;stroke:#000;stroke-width:2" d="M625,50 l-503,0 0,10 503,0 0,-10z" />
<path style="fill:#333;stroke:#000;stroke-width:2" d="M578,50 l-409,0 0,-11 409,0 0,11z" />
<path style="fill:#333;stroke:#000;stroke-width:2" d="M422,39 l-95,0 0,-11 95,0 0,11z" />
<path style="fill:#bf2600;stroke:#000;stroke-width:2" d="M699,407 l-21,0 0,563 21,0 0,-563z" />
<path style="fill:#bf2600;stroke:#000;stroke-width:2" d="M69,407 l-20,0 0,563 20,0 0,-563z" />
<path style="fill:#bf2600;stroke:#000;stroke-width:2" d="M49,895 l22,11 43,10 61,7 73,6 83,4 85,0 83,-4 74,-6 60,-7 43,-10 23,-11 0,-23 -23,12 -43,11 -60,7 -74,6 -83,2 -85,0 -83,-2 -73,-6 -61,-7 -43,-11 -22,-12 0,23z" />
<path style="fill:#bf2600;stroke:#000;stroke-width:2" d="M71,456 l0,22 607,0 0,-22 -607,0z" />

</svg>
