<?xml version="1.0" encoding="utf-8" standalone="no"?><!DOCTYPE svg PUBLIC "-//W3C//DTD SVG 1.1//EN" "http://www.w3.org/Graphics/SVG/1.1/DTD/svg11-flat-20030114.dtd"><svg width="557" height="999" version="1.1" xmlns="http://www.w3.org/2000/svg" xmlns:xlink="http://www.w3.org/1999/xlink">

<path style="fill:#999" d="M141,597 l0,69 -98,0 0,15 -15,0 0,-98 15,0 0,14 98,0z" />
<path style="fill:#b2b2b2" d="M141,607 l0,6 0,6 0,6 0,18 0,12 -18,0 -13,0 -42,0 -13,0 -12,0 0,10 0,1 -2,0 -9,0 -2,0 -2,0 0,-5 0,-12 0,-35 0,-13 0,-4 2,0 2,0 2,0 9,0 0,10 18,0 13,0 43,0 12,0 12,0z" />
<path style="fill:#ccc" d="M141,618 l0,27 -98,0 0,6 -15,0 0,-39 15,0 0,6 98,0z" />
<path style="fill:none;stroke:#000;stroke-width:2" d="M141,597 l0,69 -98,0 0,15 -15,0 0,-98 15,0 0,14 98,0" />
<path style="fill:none;stroke:#000;stroke-width:2" d="M43,666 l0,-69" />
<path style="fill:#999" d="M254,755 l69,0 0,98 15,0 0,14 -99,0 0,-14 15,0 0,-98z" />
<path style="fill:#b2b2b2" d="M264,754 l6,0 6,0 6,0 18,0 12,0 0,19 0,12 0,43 0,12 0,12 9,0 1,0 0,2 0,9 0,2 0,2 -4,0 -13,0 -34,0 -13,0 -4,0 0,-2 -1,-2 0,-1 1,-10 10,0 0,-18 0,-12 0,-43 0,-12 0,-13z" />
<path style="fill:#ccc" d="M275,755 l27,0 0,98 6,0 0,14 -39,0 0,-14 6,0 0,-98z" />
<path style="fill:none;stroke:#000;stroke-width:2" d="M254,755 l69,0 0,98 15,0 0,14 -99,0 0,-14 15,0 0,-98" />
<path style="fill:none;stroke:#000;stroke-width:2" d="M323,853 l-69,0" />
<path style="fill:#7f7f7f;stroke:#000;stroke-width:2" d="M495,688 l-413,0 0,9 413,0 0,-9z" />
<path style="fill:#7f7f7f;stroke:#000;stroke-width:2" d="M499,345 l-417,0 0,5 417,0 0,-5z" />
<path style="fill:#ccc;stroke:#000;stroke-width:2" d="M496,296 l25,24 0,642 -25,0 0,-666z" />
<path style="fill:#ccc;stroke:#000;stroke-width:2" d="M496,895 l0,-14 -411,0 0,14 411,0z" />
<path style="fill:#ccc;stroke:#000;stroke-width:2" d="M85,296 l-25,24 0,642 25,0 0,-666z" />
<path style="fill:#ccc;stroke:#000;stroke-width:2" d="M93,970 l-41,0 0,-8 41,0 0,8z" />
<path style="fill:#ccc;stroke:#000;stroke-width:2" d="M488,970 l41,0 0,-8 -41,0 0,8z" />
<path style="fill:#7f7f7f" d="M202,165 l-33,5 -28,14 -24,22 -16,27 -9,32 0,12 0,428 4,27 11,25 18,22 24,20 30,16 33,12 37,8 19,2 20,1 20,-1 38,-5 36,-10 31,-15 27,-18 21,-21 15,-23 8,-26 1,-14 0,-428 -5,-33 -14,-30 -22,-23 -27,-17 -32,-8 -11,-1 -2,-39 -167,0 -3,39z" />
<path style="fill:#919191" d="M218,165 l-26,5 -23,14 -19,21 -14,28 -6,32 0,38 0,54 -1,13 0,14 0,227 1,40 0,54 7,39 12,24 17,21 21,18 25,14 29,10 31,6 16,0 16,0 31,-6 28,-10 25,-14 22,-18 17,-21 12,-24 6,-25 1,-14 0,-13 0,-67 0,-41 0,-214 0,-40 0,-53 -4,-34 -11,-29 -17,-24 -22,-16 -26,-9 -9,0 -2,-30 0,-10 -25,0 -8,0 -9,0 -59,0 -33,0 -2,30 -1,10z" />
<path style="fill:#a6a6a6" d="M235,165 l-26,9 -21,23 -12,26 -7,31 -1,36 0,67 0,13 0,14 0,227 0,40 0,54 5,39 9,24 21,30 28,23 33,14 12,2 12,0 12,0 35,-10 29,-20 23,-28 12,-23 7,-25 2,-12 0,-14 0,-13 0,-67 0,-41 0,-214 0,-40 0,-53 -3,-34 -8,-29 -14,-24 -23,-20 -20,-5 -1,-30 0,-10 -19,0 -7,0 -6,0 -45,0 -25,0 -1,30 -1,10z" />
<path style="fill:#b8b8b8" d="M252,165 l-22,13 -13,27 -7,28 -4,32 0,38 0,54 0,13 0,14 0,227 0,40 0,54 4,39 10,35 16,28 20,20 23,10 9,0 8,0 24,-10 20,-20 16,-28 10,-35 4,-25 0,-14 0,-13 0,-67 0,-41 0,-214 0,-40 0,-53 -2,-34 -6,-29 -12,-30 -22,-19 -4,0 -1,-30 0,-10 -13,0 -5,0 -4,0 -30,0 -18,0 -1,30 0,10z" />
<path style="fill:#ccc" d="M269,165 l-16,26 -6,32 -2,31 -1,11 0,12 0,428 2,40 6,34 8,28 15,25 9,5 4,1 5,-1 20,-22 9,-26 7,-32 3,-38 0,-14 0,-428 -1,-33 -3,-30 -7,-30 -14,-19 0,-39 -37,0 -1,39z" />
<path style="fill:none;stroke:#000;stroke-width:2" d="M202,165 l-33,5 -28,14 -24,22 -16,27 -9,32 0,12 0,428 4,27 11,25 18,22 24,20 30,16 33,12 37,8 19,2 20,1 20,-1 38,-5 36,-10 31,-15 27,-18 21,-21 15,-23 8,-26 1,-14 0,-428 -5,-33 -14,-30 -22,-23 -27,-17 -32,-8 -11,-1 -2,-39 -167,0 -3,39" />
<path style="fill:none;stroke:#000;stroke-width:2" d="M372,165 l-167,0" />
<path style="fill:#7f7f7f;stroke:#000;stroke-width:2" d="M180,126 l-24,0 0,15 24,0 0,-15z" />
<path style="fill:#7f7f7f;stroke:#000;stroke-width:2" d="M228,126 l-24,0 0,15 24,0 0,-15z" />
<path style="fill:#7f7f7f;stroke:#000;stroke-width:2" d="M277,126 l-25,0 0,15 25,0 0,-15z" />
<path style="fill:#7f7f7f;stroke:#000;stroke-width:2" d="M325,126 l-25,0 0,15 25,0 0,-15z" />
<path style="fill:#7f7f7f;stroke:#000;stroke-width:2" d="M373,126 l-25,0 0,15 25,0 0,-15z" />
<path style="fill:#7f7f7f;stroke:#000;stroke-width:2" d="M421,126 l-25,0 0,15 25,0 0,-15z" />
<path style="fill:#7f7f7f" d="M146,126 l0,-20 1,0 32,-3 30,-1 37,0 14,-1 14,0 43,0 39,1 33,1 30,1 11,2 1,0 0,20 -1,0 -32,3 -30,1 -37,1 -14,0 -14,0 -43,0 -40,-1 -32,-1 -31,-1 -10,-2 -1,0z" />
<path style="fill:#999" d="M183,125 l0,-2 0,-3 0,-2 0,-9 0,-3 1,-1 12,-2 11,0 14,-1 17,0 9,-1 10,0 10,0 10,0 32,0 10,0 10,0 9,1 16,0 15,1 11,0 10,2 2,0 1,1 0,3 -1,9 1,7 -1,1 -12,2 -11,1 -15,0 -16,1 -9,0 -10,0 -10,1 -10,0 -32,0 -10,-1 -10,0 -9,0 -17,-1 -14,0 -11,-1 -11,-2 -1,0 -1,-1z" />
<path style="fill:#b2b2b2" d="M221,125 l0,-2 0,-3 0,-2 0,-9 0,-3 0,-1 12,-2 12,-1 11,0 12,-1 6,0 7,0 20,0 13,0 11,1 10,1 12,0 7,2 1,1 0,3 -1,9 1,7 -1,1 -11,2 -13,1 -10,1 -12,0 -7,1 -6,0 -21,0 -12,-1 -11,0 -10,-1 -12,-1 -8,-2 0,-1z" />
<path style="fill:#ccc" d="M259,126 l0,-20 1,-1 12,-3 10,-1 12,0 11,1 10,2 2,1 0,1 0,20 0,1 -12,3 -11,1 -12,0 -10,-1 -11,-2 -1,-1 -1,-1z" />
<path style="fill:none;stroke:#000;stroke-width:2" d="M146,126 l0,-20 1,0 32,-3 30,-1 37,0 14,-1 14,0 43,0 39,1 33,1 30,1 11,2 1,0 0,20 -1,0 -32,3 -30,1 -37,1 -14,0 -14,0 -43,0 -40,-1 -32,-1 -31,-1 -10,-2 -1,0" />
<ellipse style="fill:#7f7f7f;stroke:#000;stroke-width:2" cx="288" cy="106" rx="142" ry="5" />
<path style="fill:#000" d="M369,28 l-19,0 0,81 19,0 0,-81z" />
<path style="fill:#000" d="M228,28 l-19,0 0,81 19,0 0,-81z" />
<path style="fill:#000" d="M293,41 l-13,0 0,65 13,0 0,-65z" />
<path style="fill:#000" d="M400,28 l-77,0 0,0 0,10 0,0 0,0 77,0 0,0 0,0 0,-10 0,0z" />
<path style="fill:#000" d="M257,28 l-77,0 0,0 0,10 0,0 0,0 77,0 0,0 0,0 0,-10 0,0z" />
<path style="fill:#000" d="M317,40 l-60,0 0,7 60,0 0,-7z" />

</svg>
