<?xml version="1.0" encoding="utf-8" standalone="no"?><!DOCTYPE svg PUBLIC "-//W3C//DTD SVG 1.1//EN" "http://www.w3.org/Graphics/SVG/1.1/DTD/svg11-flat-20030114.dtd"><svg width="337" height="441" version="1.1" xmlns="http://www.w3.org/2000/svg" xmlns:xlink="http://www.w3.org/1999/xlink">

<path style="fill:#7f7f7f" d="M298,38 l27,0 0,-26 -313,0 0,26 26,0 0,365 -26,0 0,26 313,0 0,-26 -27,0 0,-365z" />
<path style="fill:#999" d="M277,38 l21,0 0,-26 -260,0 0,26 22,0 0,365 -22,0 0,26 260,0 0,-26 -21,0 0,-365z" />
<path style="fill:#b2b2b2" d="M255,38 l17,0 0,-26 -208,0 0,26 17,0 0,365 -17,0 0,26 208,0 0,-26 -17,0 0,-365z" />
<path style="fill:#ccc" d="M228,38 l12,0 0,-26 -143,0 0,26 12,0 0,365 -12,0 0,26 143,0 0,-26 -12,0 0,-365z" />
<path style="fill:#e5e5e5" d="M201,38 l6,0 0,-26 -78,0 0,26 7,0 0,365 -7,0 0,26 78,0 0,-26 -6,0 0,-365z" />
<path style="fill:#fff" d="M179,38 l2,0 0,-26 -26,0 0,26 2,0 0,365 -2,0 0,26 26,0 0,-26 -2,0 0,-365z" />
<path style="fill:#b2b2b2;stroke:#000;stroke-width:2" d="M227,38 l-13,0 0,26 13,0 0,-26z" />
<path style="fill:#b2b2b2;stroke:#000;stroke-width:2" d="M175,38 l-13,0 0,26 13,0 0,-26z" />
<path style="fill:#b2b2b2;stroke:#000;stroke-width:2" d="M123,38 l-13,0 0,26 13,0 0,-26z" />
<path style="fill:#b2b2b2;stroke:#000;stroke-width:2" d="M227,377 l-13,0 0,26 13,0 0,-26z" />
<path style="fill:#b2b2b2;stroke:#000;stroke-width:2" d="M175,377 l-13,0 0,26 13,0 0,-26z" />
<path style="fill:#b2b2b2;stroke:#000;stroke-width:2" d="M123,377 l-13,0 0,26 13,0 0,-26z" />
<path style="fill:#999;stroke:#000;stroke-width:2" d="M38,377 l-13,0 0,26 13,0 0,-26z" />
<path style="fill:#999;stroke:#000;stroke-width:2" d="M71,377 l-13,0 0,26 13,0 0,-26z" />
<path style="fill:#999;stroke:#000;stroke-width:2" d="M311,377 l-13,0 0,26 13,0 0,-26z" />
<path style="fill:#999;stroke:#000;stroke-width:2" d="M279,377 l-13,0 0,26 13,0 0,-26z" />
<path style="fill:#999;stroke:#000;stroke-width:2" d="M38,38 l-13,0 0,26 13,0 0,-26z" />
<path style="fill:#999;stroke:#000;stroke-width:2" d="M71,38 l-13,0 0,26 13,0 0,-26z" />
<path style="fill:#999;stroke:#000;stroke-width:2" d="M311,38 l-13,0 0,26 13,0 0,-26z" />
<path style="fill:#999;stroke:#000;stroke-width:2" d="M279,38 l-13,0 0,26 13,0 0,-26z" />
<path style="fill:none;stroke:#000;stroke-width:2" d="M298,403 l-260,0" />
<path style="fill:none;stroke:#000;stroke-width:2" d="M298,38 l-260,0" />
<path style="fill:none;stroke:#000;stroke-width:2" d="M298,38 l27,0 0,-26 -313,0 0,26 26,0 0,365 -26,0 0,26 313,0 0,-26 -27,0 0,-365" />

</svg>
