<?xml version="1.0" encoding="utf-8" standalone="no"?><!DOCTYPE svg PUBLIC "-//W3C//DTD SVG 1.1//EN" "http://www.w3.org/Graphics/SVG/1.1/DTD/svg11-flat-20030114.dtd"><svg width="660" height="999" version="1.1" xmlns="http://www.w3.org/2000/svg" xmlns:xlink="http://www.w3.org/1999/xlink">

<path style="fill:#333;fill-rule:evenodd" d="M449,619 l-293,259 0,18 293,-260 0,-17z M156,619 l293,259 0,18 -293,-260 0,-17z M155,618 l0,328 -34,0 0,-328 34,0z M484,618 l0,328 -34,0 0,-328 34,0z " />
<path style="fill:#7f7f7f" d="M620,965 l0,-856 -71,-71 -188,0 0,28 178,0 53,54 0,845 28,0z" />
<path style="fill:#e5e5e5" d="M613,965 l0,-854 -65,-66 -187,0 0,14 179,0 59,59 0,847 14,0z" />
<path style="fill:none;stroke:#000;stroke-width:2" d="M620,965 l0,-856 -71,-71 -188,0 0,28 178,0 53,54 0,845 28,0" />
<path style="fill:#666" d="M361,872 l-117,0 -216,-294 0,-393 216,-118 -20,-19 0,-20 157,0 0,20 -20,19 216,118 0,393 -216,294z" />
<path style="fill:#6e6e6e" d="M357,872 l-110,0 -200,-295 0,-392 200,-118 110,0 201,118 0,392 -201,295z" />
<path style="fill:#757575" d="M352,872 l-100,0 -185,-295 0,-392 185,-118 -17,-20 0,-19 134,0 0,19 -17,20 186,118 0,392 -186,295z" />
<path style="fill:#7d7d7d" d="M348,872 l-92,0 -170,-295 0,-392 170,-118 92,0 170,118 0,392 -170,295z" />
<path style="fill:#858585" d="M344,872 l-84,0 -154,-295 0,-392 154,-118 -14,-20 0,-19 112,0 0,19 -14,20 155,118 0,392 -155,295z" />
<path style="fill:#8c8c8c" d="M340,872 l-76,0 -139,-295 0,-392 139,-118 76,0 139,118 0,392 -139,295z" />
<path style="fill:#949494" d="M336,872 l-68,0 -123,-295 0,-392 123,-118 -11,-20 0,-19 90,0 0,19 -11,20 123,118 0,392 -123,295z" />
<path style="fill:#9e9e9e" d="M331,872 l-58,0 -108,-295 0,-392 108,-118 58,0 109,118 0,392 -109,295z" />
<path style="fill:#a6a6a6" d="M327,872 l-50,0 -93,-295 0,-392 93,-118 -8,-20 0,-19 67,0 0,19 -9,20 93,118 0,392 -93,295z" />
<path style="fill:#adadad" d="M323,872 l-42,0 -77,-295 0,-392 77,-118 42,0 78,118 0,392 -78,295z" />
<path style="fill:#b5b5b5" d="M319,872 l-34,0 -61,-295 0,-392 61,-118 -5,-20 0,-19 45,0 0,19 -6,20 62,118 0,392 -62,295z" />
<path style="fill:#bdbdbd" d="M315,872 l-26,0 -46,-295 0,-392 46,-118 26,0 46,118 0,392 -46,295z" />
<path style="fill:#c4c4c4" d="M310,872 l-16,0 -31,-295 0,-392 31,-118 -3,-20 0,-19 23,0 0,19 -4,20 32,118 0,392 -32,295z" />
<ellipse style="fill:#ccc" cx="302" cy="450" rx="19" ry="422" />
<path style="fill:none;stroke:#000;stroke-width:2" d="M361,872 l-117,0 -216,-294 0,-393 216,-118 -20,-19 0,-20 157,0 0,20 -20,19 216,118 0,393 -216,294" />
<path style="fill:none;stroke:#000;stroke-width:2" d="M361,67 l-117,0" />
<path style="fill:none;stroke:#000;stroke-width:2" d="M577,185 l-549,0" />
<path style="fill:none;stroke:#000;stroke-width:2" d="M577,578 l-549,0" />
<path style="fill:none;stroke:#ccc;stroke-width:2" d="M577,573 l-549,0" />
<path style="fill:none;stroke:#ccc;stroke-width:2" d="M568,180 l-530,0" />
<path style="fill:#999;stroke:#000;stroke-width:2" d="M165,578 l0,19 -98,0 0,-19 98,0z" />
<path style="fill:#999;stroke:#000;stroke-width:2" d="M538,578 l0,19 -98,0 0,-19 98,0z" />
<path style="fill:#7f7f7f;stroke:#000;stroke-width:2" d="M135,597 l0,373 -39,0 0,-373 39,0z" />
<path style="fill:#7f7f7f;stroke:#000;stroke-width:2" d="M509,597 l0,373 -39,0 0,-373 39,0z" />
<path style="fill:#999;stroke:#000;stroke-width:2" d="M125,578 l0,392 -19,0 0,-392 19,0z" />
<path style="fill:#999;stroke:#000;stroke-width:2" d="M499,578 l0,392 -20,0 0,-392 20,0z" />
<path style="fill:#7f7f7f;stroke:#000;stroke-width:2" d="M469,617 l-333,294 0,20 333,-295 0,-19z" />
<path style="fill:#7f7f7f;stroke:#000;stroke-width:2" d="M136,617 l333,294 0,20 -333,-295 0,-19z" />
<path style="fill:none;stroke:#ccc;stroke-width:2" d="M361,185 l0,191" />
<path style="fill:none;stroke:#ccc;stroke-width:2" d="M577,376 l-549,0" />
<path style="fill:none;stroke:#ccc;stroke-width:2" d="M396,381 l0,192" />
<path style="fill:none;stroke:#7f7f7f;stroke-width:2" d="M390,381 l0,192" />
<path style="fill:none;stroke:#7f7f7f;stroke-width:2" d="M357,185 l0,191" />
<path style="fill:none;stroke:#7f7f7f;stroke-width:2" d="M577,381 l-549,0" />
<path style="fill:#7f7f7f;stroke:#000;stroke-width:2" d="M631,548 l-59,0 0,30 59,0 0,-30z" />
<path style="fill:#7f7f7f;stroke:#000;stroke-width:2" d="M631,362 l-59,0 0,29 59,0 0,-29z" />
<path style="fill:#7f7f7f;stroke:#000;stroke-width:2" d="M631,185 l-59,0 0,30 59,0 0,-30z" />
<path style="fill:#e5e5e5" d="M622,548 l-20,0 0,30 20,0 0,-30z" />
<path style="fill:#e5e5e5" d="M622,362 l-20,0 0,29 20,0 0,-29z" />
<path style="fill:#e5e5e5" d="M622,185 l-20,0 0,30 20,0 0,-30z" />

</svg>
