<?xml version="1.0" encoding="utf-8" standalone="no"?><!DOCTYPE svg PUBLIC "-//W3C//DTD SVG 1.1//EN" "http://www.w3.org/Graphics/SVG/1.1/DTD/svg11-flat-20030114.dtd"><svg width="280" height="530" version="1.1" xmlns="http://www.w3.org/2000/svg" xmlns:xlink="http://www.w3.org/1999/xlink">

<path style="fill:#7f7f7f;stroke:#000;stroke-width:2" d="M98,78 l0,-42 1,-4 2,-4 4,-4 5,-3 7,-3 7,-1 8,-2 16,0 8,2 7,1 7,3 5,3 4,4 2,4 1,4 0,42 -1,4 -2,4 -4,4 -5,3 -7,3 -7,1 -8,2 -16,0 -8,-2 -7,-1 -7,-3 -5,-3 -4,-4 -2,-4 -1,-4z" />
<path style="fill:#999" d="M105,78 l0,-42 1,-4 2,-4 3,-4 4,-3 6,-3 6,-1 6,-2 14,0 6,2 6,1 6,3 4,3 3,4 2,4 1,4 0,42 -1,4 -2,4 -3,4 -4,3 -6,3 -6,1 -6,2 -14,0 -6,-2 -6,-1 -6,-3 -4,-3 -3,-4 -2,-4 -1,-4z" />
<ellipse style="fill:#b2b2b2" cx="140" cy="57" rx="25" ry="42" />
<ellipse style="fill:#ccc" cx="140" cy="57" rx="14" ry="42" />
<path style="fill:none;stroke:#000;stroke-width:2" d="M98,36 l1,1 2,1 4,1 5,1 7,0 7,1 8,0 8,0 8,0 8,0 7,-1 7,0 5,-1 4,-1 2,-1 1,-1" />
<path style="fill:none;stroke:#000;stroke-width:2" d="M98,78 l1,1 2,1 4,1 5,1 7,1 7,0 8,1 8,0 8,0 8,-1 7,0 7,-1 5,-1 4,-1 2,-1 1,-1" />
<path style="fill:#7f7f7f;stroke:#000;stroke-width:2" d="M244,119 l-208,0 0,375 208,0 0,-375z" />
<path style="fill:#999" d="M223,119 l-166,0 0,375 166,0 0,-375z" />
<path style="fill:#b2b2b2" d="M202,119 l-125,0 0,375 125,0 0,-375z" />
<path style="fill:#ccc" d="M171,119 l-62,0 0,375 62,0 0,-375z" />
<path style="fill:#999;stroke:#000;stroke-width:2" d="M265,494 l-250,0 0,21 250,0 0,-21z" />
<path style="fill:#999;stroke:#000;stroke-width:2" d="M265,98 l-250,0 0,21 250,0 0,-21z" />
<path style="fill:#666;stroke:#000;stroke-width:2" d="M254,119 l-20,0 0,21 20,0 0,-21z" />
<path style="fill:#666;stroke:#000;stroke-width:2" d="M46,119 l-21,0 0,21 21,0 0,-21z" />
<path style="fill:#7f7f7f;stroke:#000;stroke-width:2" d="M192,119 l-21,0 0,21 21,0 0,-21z" />
<path style="fill:#7f7f7f;stroke:#000;stroke-width:2" d="M109,119 l-21,0 0,21 21,0 0,-21z" />
<path style="fill:#666;stroke:#000;stroke-width:2" d="M254,473 l-20,0 0,21 20,0 0,-21z" />
<path style="fill:#666;stroke:#000;stroke-width:2" d="M46,473 l-21,0 0,21 21,0 0,-21z" />
<path style="fill:#7f7f7f;stroke:#000;stroke-width:2" d="M192,473 l-21,0 0,21 21,0 0,-21z" />
<path style="fill:#7f7f7f;stroke:#000;stroke-width:2" d="M109,473 l-21,0 0,21 21,0 0,-21z" />

</svg>
