<?xml version="1.0" encoding="utf-8" standalone="no"?><!DOCTYPE svg PUBLIC "-//W3C//DTD SVG 1.1//EN" "http://www.w3.org/Graphics/SVG/1.1/DTD/svg11-flat-20030114.dtd"><svg width="621" height="999" version="1.1" xmlns="http://www.w3.org/2000/svg" xmlns:xlink="http://www.w3.org/1999/xlink">

<path style="fill:#699;stroke:#000;stroke-width:2" d="M316,73 l-138,0 0,10 3,9 3,9 5,8 6,8 7,8 8,7 9,7 9,6 11,5 12,5 12,4 13,3 12,2 14,2 14,0 14,0 14,-2 14,-2 12,-3 12,-4 12,-5 10,-5 10,-6 9,-7 8,-7 7,-8 6,-8 4,-8 4,-9 2,-9 1,-10 -139,0z" />
<path style="fill:#000;stroke:#000;stroke-width:2" d="M226,918 l-139,0 0,52 139,0 0,-52z" />
<path style="fill:#000;stroke:#000;stroke-width:2" d="M546,918 l-138,0 0,52 138,0 0,-52z" />
<path style="fill:#699" d="M546,38 l-47,0 0,167 47,0 0,-167z" />
<path style="fill:#8fc2c2" d="M541,38 l-34,0 0,167 34,0 0,-167z" />
<path style="fill:#cff" d="M530,38 l-15,0 0,167 15,0 0,-167z" />
<path style="fill:none;stroke:#000;stroke-width:2" d="M546,38 l-47,0 0,167 47,0 0,-167" />
<path style="fill:#699" d="M132,38 l-45,0 0,167 45,0 0,-167z" />
<path style="fill:#8fc2c2" d="M127,38 l-34,0 0,167 34,0 0,-167z" />
<path style="fill:#cff" d="M116,38 l-13,0 0,167 13,0 0,-167z" />
<path style="fill:none;stroke:#000;stroke-width:2" d="M132,38 l-45,0 0,167 45,0 0,-167" />
<path style="fill:#699" d="M41,911 l1,3 26,12 28,6 26,3 30,3 34,3 36,1 39,2 14,0 14,0 14,0 42,0 40,-1 39,-1 35,-2 33,-3 29,-3 32,-5 27,-8 12,-7 1,-1 0,-2 0,-706 -13,-26 -21,-15 -30,-14 -27,-9 -31,-7 -35,-7 -37,-4 -40,-3 -14,-1 -14,0 -14,0 -28,0 -28,1 -39,4 -36,5 -34,7 -30,8 -26,9 -28,15 -22,20 -5,12 0,5 0,706z" />
<path style="fill:#7aadad" d="M85,911 l23,15 30,7 32,4 27,3 30,2 32,1 23,1 11,0 12,0 36,0 33,-1 33,-1 30,-2 27,-3 32,-4 30,-7 22,-13 1,-2 0,-22 0,-684 -11,-26 -23,-19 -27,-13 -24,-8 -27,-8 -30,-5 -33,-5 -33,-2 -12,0 -12,0 -35,1 -34,3 -31,4 -30,7 -26,7 -30,12 -23,15 -19,20 -4,12 0,5 0,21 0,685z" />
<path style="fill:#8fc2c2" d="M129,911 l1,3 22,14 32,7 28,4 32,3 35,2 19,0 19,0 37,0 35,-2 32,-3 28,-4 32,-7 22,-14 1,-3 0,-22 0,-37 -1,-32 0,-28 0,-38 -1,-37 0,-109 1,-43 0,-51 0,-29 0,-31 0,-34 0,-37 1,-40 0,-42 0,-46 0,-50 -8,-26 -24,-22 -23,-13 -28,-10 -32,-8 -35,-6 -18,-1 -19,0 -19,0 -37,4 -34,6 -30,10 -25,11 -28,21 -14,25 -1,9 0,21 0,685z" />
<path style="fill:#a3d6d6" d="M176,911 l1,3 23,16 27,7 35,5 26,2 14,0 15,0 28,0 39,-3 32,-6 25,-7 16,-14 0,-3 0,-22 0,-684 -6,-26 -18,-22 -27,-18 -34,-13 -27,-6 -14,-1 -14,0 -15,0 -27,4 -25,6 -33,15 -24,20 -14,24 -2,8 -1,9 0,21 0,685z" />
<path style="fill:#b8ebeb" d="M220,911 l16,19 26,9 35,5 10,0 10,0 28,-1 32,-6 24,-9 11,-14 1,-3 0,-22 0,-684 -8,-34 -14,-21 -21,-16 -25,-11 -19,-4 -9,0 -10,0 -28,7 -24,13 -23,25 -10,24 -1,8 -1,9 0,21 0,685z" />
<path style="fill:#cff" d="M265,911 l15,24 26,9 11,0 29,-5 22,-21 1,-7 0,-706 -4,-34 -11,-27 -22,-21 -15,-4 -25,10 -15,21 -10,29 -2,26 0,706z" />
<path style="fill:none;stroke:#000;stroke-width:2" d="M41,911 l1,3 26,12 28,6 26,3 30,3 34,3 36,1 39,2 14,0 14,0 14,0 42,0 40,-1 39,-1 35,-2 33,-3 29,-3 32,-5 27,-8 12,-7 1,-1 0,-2 0,-706 -13,-26 -21,-15 -30,-14 -27,-9 -31,-7 -35,-7 -37,-4 -40,-3 -14,-1 -14,0 -14,0 -28,0 -28,1 -39,4 -36,5 -34,7 -30,8 -26,9 -28,15 -22,20 -5,12 0,5 0,706" />
<path style="fill:none;stroke:#000;stroke-width:2" d="M593,205 l-552,0 0,33 552,0 0,-33" />
<ellipse style="fill:#b2e5e5" cx="317" cy="73" rx="138" ry="45" />
<ellipse style="fill:#9cc" cx="316" cy="83" rx="114" ry="35" />
<ellipse style="fill:#7fb2b2" cx="315" cy="95" rx="92" ry="23" />
<ellipse style="fill:none;stroke:#000;stroke-width:2" cx="317" cy="73" rx="138" ry="45" />
<path style="fill:#366;stroke:#000;stroke-width:2" d="M153,822 l-104,0 0,99 104,0 0,-99z" />
<path style="fill:#000;stroke:#7f7f7f;stroke-width:2" d="M171,921 l-143,0 0,13 143,0 0,-13z" />
<path style="fill:#699;stroke:#000;stroke-width:2" d="M49,788 l0,34 104,0 0,-13 -52,-8 -52,-13z" />

</svg>
