<?xml version="1.0" encoding="utf-8" standalone="no"?><!DOCTYPE svg PUBLIC "-//W3C//DTD SVG 1.1//EN" "http://www.w3.org/Graphics/SVG/1.1/DTD/svg11-flat-20030114.dtd"><svg width="521" height="999" version="1.1" xmlns="http://www.w3.org/2000/svg" xmlns:xlink="http://www.w3.org/1999/xlink">

<path style="fill:#699;stroke:#000;stroke-width:2" d="M106,37 l-37,0 0,140 37,0 0,-140z" />
<path style="fill:#699;stroke:#000;stroke-width:2" d="M454,37 l-37,0 0,140 37,0 0,-140z" />
<path style="fill:#8fc2c2" d="M102,37 l-3,0 -26,0 0,140 29,0 0,-15 0,-12 0,-9 0,-17 -1,-16 0,-10 1,-11 0,-15 0,-16 0,-19z" />
<path style="fill:#8fc2c2" d="M450,37 l-3,0 -27,0 0,140 30,0 0,-140z" />
<path style="fill:#cff" d="M94,37 l-13,0 0,140 13,0 0,-140z" />
<path style="fill:#cff" d="M442,37 l-14,0 0,140 14,0 0,-140z" />
<path style="fill:#699" d="M30,699 l23,20 23,11 30,11 26,8 29,7 32,5 33,4 12,0 12,1 11,0 36,-1 33,-4 32,-5 29,-7 26,-8 30,-11 23,-11 22,-16 1,-2 0,-2 0,-522 -14,-25 -25,-15 -29,-11 -25,-7 -28,-6 -31,-4 -33,-3 -23,-1 -12,-1 -12,0 -35,1 -33,3 -32,3 -29,6 -26,7 -30,10 -23,12 -21,20 -2,7 0,4 0,522z" />
<path style="fill:#7aadad" d="M67,699 l24,23 33,18 29,10 33,10 36,6 20,1 19,1 20,-1 38,-4 34,-8 31,-10 26,-11 29,-17 14,-14 1,-4 0,-15 0,-507 -15,-28 -29,-18 -26,-10 -31,-8 -34,-5 -38,-3 -20,-1 -19,1 -38,3 -35,5 -31,8 -26,10 -30,18 -14,21 -1,7 0,16 0,506z" />
<path style="fill:#8fc2c2" d="M104,699 l1,4 18,19 27,18 24,10 26,10 30,6 15,1 16,1 16,-1 30,-4 28,-8 25,-10 30,-17 19,-17 7,-8 1,-4 0,-15 0,-507 -13,-28 -23,-18 -34,-14 -26,-7 -29,-4 -15,-1 -16,-1 -16,1 -30,3 -28,5 -25,8 -31,16 -20,19 -6,14 -1,7 0,16 0,506z" />
<path style="fill:#a3d6d6" d="M144,699 l13,23 20,18 27,15 33,11 12,1 12,1 12,-1 34,-7 29,-15 23,-17 18,-21 2,-4 0,-4 0,-15 0,-507 -9,-28 -25,-23 -28,-13 -32,-7 -12,-1 -12,-1 -12,1 -34,5 -29,11 -23,16 -17,26 -3,30 0,27 0,35 -1,30 0,56 0,10 0,12 0,88 1,41 0,48 0,57 0,31 0,35 1,36z" />
<path style="fill:#b8ebeb" d="M181,699 l13,29 22,22 29,16 8,1 8,1 9,-1 30,-12 24,-21 14,-23 4,-8 0,-4 0,-15 0,-507 -6,-28 -17,-23 -26,-16 -23,-5 -9,-1 -8,1 -30,8 -24,18 -15,25 -3,14 0,7 0,16 0,506z" />
<path style="fill:#cff" d="M218,699 l8,28 15,27 16,11 4,1 5,-1 23,-21 12,-28 3,-13 1,-4 0,-522 -4,-28 -12,-28 -23,-16 -5,-1 -4,1 -23,16 -13,28 -3,21 0,7 0,522z" />
<path style="fill:none;stroke:#000;stroke-width:2" d="M30,699 l23,20 23,11 30,11 26,8 29,7 32,5 33,4 12,0 12,1 11,0 36,-1 33,-4 32,-5 29,-7 26,-8 30,-11 23,-11 22,-16 1,-2 0,-2 0,-522 -14,-25 -25,-15 -29,-11 -25,-7 -28,-6 -31,-4 -33,-3 -23,-1 -12,-1 -12,0 -35,1 -33,3 -32,3 -29,6 -26,7 -30,10 -23,12 -21,20 -2,7 0,4 0,522" />
<path style="fill:none;stroke:#000;stroke-width:2" d="M493,177 l-463,0 0,29 463,0 0,-29" />
<path style="fill:none;stroke:#000;stroke-width:2" d="M491,699 l-455,0" />
<path style="fill:none;stroke:#000;stroke-width:2" d="M491,589 l-463,0 0,51 463,0 0,-51" />
<path style="fill:none;stroke:#000;stroke-width:2" d="M491,328 l-463,0 0,49 463,0 0,-49" />
<path style="fill:#699;stroke:#000;stroke-width:2" d="M261,67 l-116,0 3,15 3,7 3,7 5,7 6,6 7,6 7,6 8,5 9,4 10,4 10,3 11,3 11,2 11,1 12,1 12,-1 11,-1 11,-2 11,-3 10,-3 10,-4 9,-4 8,-5 7,-6 7,-6 6,-6 5,-7 4,-7 5,-15 0,-7 -116,0z" />
<ellipse style="fill:#b2e5e5" cx="261" cy="66" rx="116" ry="38" />
<ellipse style="fill:#9cc" cx="260" cy="75" rx="97" ry="28" />
<ellipse style="fill:#7fb2b2" cx="260" cy="85" rx="77" ry="18" />
<ellipse style="fill:none;stroke:#000;stroke-width:2" cx="261" cy="66" rx="116" ry="38" />
<path style="fill:#699;stroke:#000;stroke-width:2" d="M120,937 l0,-271 -51,33 0,238 -18,0 0,16 85,0 0,-16 -16,0z" />
<path style="fill:#699;stroke:#000;stroke-width:2" d="M407,937 l0,-271 51,33 0,238 17,0 0,16 -84,0 0,-16 16,0z" />
<path style="fill:#366;stroke:#000;stroke-width:2" d="M491,953 l-118,0 0,17 118,0 0,-17z" />
<path style="fill:#366;stroke:#000;stroke-width:2" d="M153,953 l-117,0 0,17 117,0 0,-17z" />

</svg>
