<?xml version="1.0" encoding="utf-8" standalone="no"?><!DOCTYPE svg PUBLIC "-//W3C//DTD SVG 1.1//EN" "http://www.w3.org/Graphics/SVG/1.1/DTD/svg11-flat-20030114.dtd"><svg width="841" height="999" version="1.1" xmlns="http://www.w3.org/2000/svg" xmlns:xlink="http://www.w3.org/1999/xlink">

<path style="fill:#4c4c4c;stroke:#000;stroke-width:2" d="M92,597 l78,0 0,196 -16,0 0,138 -47,0 0,-138 -15,0 0,-196z" />
<path style="fill:#4c4c4c;stroke:#000;stroke-width:2" d="M509,597 l78,0 0,196 -16,0 0,138 -47,0 0,-138 -15,0 0,-196z" />
<path style="fill:#7f7f7f;stroke:#000;stroke-width:2" d="M170,951 l0,-20 -55,0 0,20 55,0z" />
<path style="fill:#7f7f7f;stroke:#000;stroke-width:2" d="M587,951 l0,-20 -55,0 0,20 55,0z" />
<path style="fill:#000;stroke:#000;stroke-width:2" d="M115,951 l0,-20 -23,0 0,20 23,0z" />
<path style="fill:#000;stroke:#000;stroke-width:2" d="M532,951 l0,-20 -23,0 0,20 23,0z" />
<path style="fill:#7f7f7f" d="M813,264 l0,314 -196,196 -197,39 -196,-39 -196,-196 0,-314 118,-118 -99,0 -19,-59 19,-59 746,0 20,59 -20,59 -98,0 118,118z" />
<path style="fill:#949494" d="M746,263 l0,314 -163,197 -163,39 -163,-39 -163,-197 0,-314 98,-117 -82,0 -16,-60 16,-58 619,0 17,58 -17,60 -81,0 98,117z" />
<path style="fill:#a8a8a8" d="M715,263 l0,314 -147,197 -148,39 -148,-39 -147,-197 0,-314 89,-117 -74,0 -15,-60 15,-58 560,0 15,58 -15,60 -74,0 89,117z" />
<path style="fill:#bdbdbd" d="M656,263 l0,314 -118,197 -118,39 -118,-39 -118,-197 0,-314 71,-117 -59,0 -12,-60 12,-58 448,0 12,58 -12,60 -59,0 71,117z" />
<path style="fill:#d1d1d1" d="M558,263 l0,314 -69,197 -69,39 -69,-39 -69,-197 0,-314 41,-117 -34,0 -7,-60 7,-58 262,0 7,58 -7,60 -34,0 41,117z" />
<path style="fill:#e5e5e5" d="M460,264 l0,314 -20,196 -20,39 -19,-39 -20,-196 0,-314 12,-118 -10,0 -2,-59 2,-59 75,0 2,59 -2,59 -10,0 12,118z" />
<path style="fill:none;stroke:#fff;stroke-width:2" d="M793,264 l-765,0" />
<path style="fill:none;stroke:#666;stroke-width:2" d="M793,578 l-746,0" />
<path style="fill:none;stroke:#666;stroke-width:2" d="M577,774 l-314,0" />
<path style="fill:#4c4c4c" d="M86,205 l60,-59 549,0 60,60 -27,-11 -30,-7 -27,-5 -31,-5 -34,-4 -36,-3 -39,-3 -40,-1 -28,-1 -28,-1 -29,0 -41,1 -41,2 -39,2 -36,3 -35,3 -32,5 -28,4 -33,8 -25,8 -5,2 -5,2z" />
<path style="fill:none;stroke:#000;stroke-width:2" d="M695,146 l-549,0" />
<path style="fill:none;stroke:#000;stroke-width:2" d="M813,264 l0,314 -196,196 -197,39 -196,-39 -196,-196 0,-314 118,-118 -99,0 -19,-59 19,-59 746,0 20,59 -20,59 -98,0 118,118" />
<path style="fill:#666" d="M675,690 l99,-93 0,196 -20,0 0,157 -59,0 0,-157 -20,0 0,-103z" />
<path style="fill:#b2b2b2;stroke:#000;stroke-width:2" d="M773,970 l0,-20 -68,0 0,20 68,0z" />
<path style="fill:#666;stroke:#000;stroke-width:2" d="M705,970 l0,-20 -30,0 0,20 30,0z" />
<path style="fill:#878787" d="M688,681 l72,-69 0,181 -14,0 0,157 -44,0 0,-157 -14,0 0,-112z" />
<path style="fill:#ababab" d="M701,671 l46,-44 0,166 -9,0 0,157 -28,0 0,-157 -9,0 0,-122z" />
<path style="fill:#ccc" d="M715,656 l19,-20 0,157 -4,0 0,157 -12,0 0,-157 -3,0 0,-137z" />
<path style="fill:none;stroke:#000;stroke-width:2" d="M675,690 l99,-93 0,196 -20,0 0,157 -59,0 0,-157 -20,0 0,-103" />
<path style="fill:none;stroke:#000;stroke-width:2" d="M754,793 l-59,0" />
<path style="fill:#666" d="M229,597 l98,5 0,191 -19,0 0,157 -59,0 0,-157 -20,0 0,-196z" />
<path style="fill:#b2b2b2;stroke:#000;stroke-width:2" d="M327,970 l0,-20 -68,0 0,20 68,0z" />
<path style="fill:#666;stroke:#000;stroke-width:2" d="M259,970 l0,-20 -30,0 0,20 30,0z" />
<path style="fill:#878787" d="M242,597 l72,5 0,191 -15,0 0,157 -43,0 0,-157 -14,0 0,-196z" />
<path style="fill:#ababab" d="M254,602 l47,0 0,191 -9,0 0,157 -28,0 0,-157 -9,0 -1,-191z" />
<path style="fill:#ccc" d="M268,602 l20,0 0,191 -4,0 0,157 -12,0 0,-157 -4,0 0,-191z" />
<path style="fill:none;stroke:#000;stroke-width:2" d="M229,597 l98,5 0,191 -19,0 0,157 -59,0 0,-157 -20,0 0,-196" />
<path style="fill:none;stroke:#000;stroke-width:2" d="M308,793 l-59,0" />

</svg>
