<?xml version="1.0" encoding="utf-8" standalone="no"?><!DOCTYPE svg PUBLIC "-//W3C//DTD SVG 1.1//EN" "http://www.w3.org/Graphics/SVG/1.1/DTD/svg11-flat-20030114.dtd"><svg width="699" height="998" version="1.1" xmlns="http://www.w3.org/2000/svg" xmlns:xlink="http://www.w3.org/1999/xlink">

<path style="fill:#ccc;stroke:#000;stroke-width:2" d="M465,258 l53,-196 19,9 -53,183 -19,4z" />
<path style="fill:#333" d="M435,194 l-19,-4 -13,45 19,6 13,-47z" />
<path style="fill:#7f7f7f;stroke:#000;stroke-width:2" d="M493,282 l178,0 0,-9 -178,0 0,9z" />
<path style="fill:#b2b2b2;stroke:#000;stroke-width:2" d="M580,282 l-4,-57 -83,0 6,14 -21,-4 6,-28 111,0 13,81 -28,-6z" />
<path style="fill:#7f7f7f" d="M37,239 l15,-6 30,-4 44,-5 52,-2 59,-2 60,0 60,2 51,2 44,5 30,4 17,6 0,697 -17,10 -30,9 -44,8 -51,5 -60,2 -60,0 -59,-2 -52,-5 -44,-8 -30,-9 -15,-10 0,-697z" />
<path style="fill:#858585" d="M58,237 l15,-6 26,-3 40,-4 47,-2 53,-2 56,0 53,2 47,2 40,4 28,3 13,6 0,703 -13,10 -28,7 -40,6 -47,5 -53,2 -56,0 -53,-2 -47,-5 -40,-6 -26,-7 -15,-10 0,-703z" />
<path style="fill:#8a8a8a" d="M79,235 l13,-4 24,-6 36,-1 42,-2 48,-2 50,0 49,2 43,2 34,1 24,6 14,4 0,709 -14,7 -24,8 -34,6 -43,3 -49,2 -50,0 -47,-2 -43,-3 -36,-6 -24,-8 -13,-7 0,-709z" />
<path style="fill:#8f8f8f" d="M99,233 l13,-4 21,-4 32,-1 38,-2 41,-2 46,0 41,2 40,2 30,1 23,4 11,4 0,713 -11,7 -23,6 -30,6 -40,3 -41,2 -46,0 -41,-2 -38,-3 -32,-6 -23,-6 -9,-7 -2,-713z" />
<path style="fill:#949494" d="M122,231 l10,-3 18,-3 27,-3 34,-2 37,0 38,0 38,0 33,2 27,3 19,3 11,3 0,719 -11,5 -19,6 -27,4 -33,3 -38,2 -38,0 -37,-2 -33,-3 -28,-4 -18,-6 -10,-5 0,-719z" />
<path style="fill:#999" d="M143,229 l7,-4 17,-1 25,-2 28,-2 32,0 32,0 32,0 28,2 23,2 17,1 7,4 0,724 -7,6 -17,4 -23,4 -28,1 -32,2 -32,0 -32,-2 -28,-1 -25,-4 -17,-4 -7,-6 0,-724z" />
<path style="fill:#9e9e9e" d="M163,228 l8,-3 13,-1 19,-2 25,-2 26,0 26,0 27,0 24,2 19,2 13,1 8,3 0,729 -8,4 -13,4 -19,2 -24,1 -27,2 -26,0 -26,-2 -25,-1 -19,-2 -13,-4 -8,-4 0,-729z" />
<path style="fill:#a3a3a3" d="M184,225 l6,-1 11,-2 15,0 19,-2 21,0 22,0 21,0 19,2 15,0 11,2 6,1 0,734 -6,4 -11,4 -15,1 -19,0 -21,2 -22,0 -21,-2 -19,0 -15,-1 -11,-4 -6,-4 0,-734z" />
<path style="fill:#a8a8a8" d="M207,224 l4,-2 7,0 11,-2 15,0 15,0 16,0 17,0 13,0 11,2 10,0 3,2 0,739 -3,2 -10,2 -11,1 -13,2 -17,0 -16,0 -15,0 -15,-2 -11,-1 -7,-2 -4,-2 0,-739z" />
<path style="fill:#adadad" d="M228,222 l1,0 6,-2 7,0 10,0 9,0 12,0 9,0 10,0 7,0 6,2 4,0 0,745 -4,1 -6,0 -7,2 -10,0 -9,0 -12,0 -9,0 -10,0 -7,-2 -6,0 -1,-1 0,-745z" />
<path style="fill:#b2b2b2" d="M248,220 l2,0 2,0 4,0 3,0 6,0 6,0 4,0 5,0 2,0 4,0 0,750 -4,0 -2,0 -5,0 -4,0 -6,0 -6,0 -3,0 -4,0 -2,0 -2,0 0,-750z" />
<path style="fill:none;stroke:#000;stroke-width:2" d="M37,239 l15,-6 30,-4 44,-5 52,-2 59,-2 60,0 60,2 51,2 44,5 30,4 17,6 0,697 -17,10 -30,9 -44,8 -51,5 -60,2 -60,0 -59,-2 -52,-5 -44,-8 -30,-9 -15,-10 0,-697" />
<path style="fill:#999;stroke:#000;stroke-width:2" d="M499,739 l-7,1 -33,8 -43,6 -56,3 -61,2 -62,0 -62,-2 -55,-3 -45,-6 -32,-8 -6,-1 0,-8 -9,4 0,7 15,8 32,7 45,6 55,4 62,2 62,0 61,-2 56,-4 43,-6 33,-7 17,-8 0,-7 -10,-4 0,8z" />
<path style="fill:#999;stroke:#000;stroke-width:2" d="M499,448 l-7,-2 -33,-5 -43,-6 -56,-4 -61,-2 -62,0 -62,2 -55,4 -45,6 -32,5 -6,2 0,8 -9,-4 0,-8 15,-7 32,-6 45,-6 55,-3 62,-4 62,0 61,4 56,3 43,6 33,6 17,7 0,8 -10,4 0,-8z" />
<path style="fill:#999;stroke:#000;stroke-width:2" d="M499,391 l-7,-3 -33,-10 -43,-9 -56,-9 -61,-10 -62,-6 -62,-3 -55,-2 -45,2 -32,3 -6,2 0,6 -9,-4 0,-7 15,-6 32,-4 45,-2 55,2 62,4 62,6 61,9 56,7 43,12 33,9 17,10 0,7 -10,2 0,-6z" />
<path style="fill:#999;stroke:#000;stroke-width:2" d="M499,320 l-7,-2 -33,-11 -43,-10 -56,-9 -61,-8 -62,-5 -62,-6 -100,0 -32,4 -6,2 0,7 -9,-4 0,-7 15,-7 32,-5 100,0 62,5 62,7 61,7 56,10 43,9 33,12 17,7 0,10 -10,1 0,-7z" />
<path style="fill:#7f7f7f" d="M408,28 l-39,149 111,30 40,-149 -112,-30z" />
<path style="fill:#8c8c8c" d="M414,30 l-40,148 102,27 40,-149 -102,-26z" />
<path style="fill:#999" d="M418,30 l-40,148 93,25 39,-147 -92,-26z" />
<path style="fill:#a6a6a6" d="M424,31 l-40,149 81,23 40,-149 -81,-23z" />
<path style="fill:#b2b2b2" d="M429,33 l-39,149 71,19 40,-149 -72,-19z" />
<path style="fill:#bfbfbf" d="M433,35 l-40,149 63,15 39,-149 -62,-15z" />
<path style="fill:#ccc" d="M439,35 l-40,149 51,15 42,-149 -53,-15z" />
<path style="fill:#d9d9d9" d="M444,37 l-41,149 43,11 40,-149 -42,-11z" />
<path style="fill:#e5e5e5" d="M448,39 l-40,149 33,7 39,-148 -32,-8z" />
<path style="fill:#f2f2f2" d="M454,39 l-40,149 21,7 41,-148 -22,-8z" />
<path style="fill:#fff" d="M459,41 l-41,149 13,4 40,-149 -12,-4z" />
<path style="fill:none;stroke:#000;stroke-width:2" d="M408,28 l-39,149 111,30 40,-149 -112,-30" />
<path style="fill:none;stroke:#000;stroke-width:2" d="M510,96 l-111,-31" />
<path style="fill:none;stroke:#fff;stroke-width:2" d="M467,143 l13,-51 -51,-13" />
<path style="fill:none;stroke:#999;stroke-width:2" d="M467,143 l-51,-14 13,-50" />
<path style="fill:#e59898" d="M420,81 l-13,-4 -23,79 15,4 21,-79z" />
<path style="fill:#9c9" d="M422,378 l-307,0 0,472 307,0 0,-472z" />
<path style="fill:#91c491" d="M405,378 l-273,0 0,472 273,0 0,-472z" />
<path style="fill:#8cbf8c" d="M388,378 l-242,0 0,472 242,0 0,-472z" />
<path style="fill:#85b885" d="M371,378 l-208,0 0,472 208,0 0,-472z" />
<path style="fill:#7fb27f" d="M354,378 l-174,0 0,472 174,0 0,-472z" />
<path style="fill:#78ab78" d="M337,378 l-140,0 0,472 140,0 0,-472z" />
<path style="fill:#73a673" d="M320,378 l-106,0 0,472 106,0 0,-472z" />
<path style="fill:#6b9e6b" d="M303,378 l-72,0 0,472 72,0 0,-472z" />
<path style="fill:#696" d="M286,378 l-38,0 0,472 38,0 0,-472z" />
<path style="fill:none;stroke:#000;stroke-width:2" d="M422,850 l0,-472 -307,0" />
<path style="fill:#333" d="M384,378 l-21,0 -124,472 19,0 126,-472z" />
<path style="fill:none;stroke:#cfc;stroke-width:2" d="M115,378 l0,472 307,0" />
<path style="fill:#666;stroke:#000;stroke-width:2" d="M242,812 l19,-13 12,21 28,5 23,0 13,-4 2,-7 -10,-10 -20,-11 -27,-11 -18,13 -10,-21 -29,-4 -22,0 -13,4 -2,8 9,9 19,12 26,9z" />
<path style="fill:#666;stroke:#000;stroke-width:2" d="M288,646 l19,-11 11,20 28,4 21,0 13,-4 2,-7 -9,-10 -19,-11 -27,-9 -18,11 -12,-19 -28,-5 -21,0 -13,3 -2,8 9,9 19,12 27,9z" />

</svg>
