<?xml version="1.0" encoding="utf-8" standalone="no"?><!DOCTYPE svg PUBLIC "-//W3C//DTD SVG 1.1//EN" "http://www.w3.org/Graphics/SVG/1.1/DTD/svg11-flat-20030114.dtd"><svg width="321" height="426" version="1.1" xmlns="http://www.w3.org/2000/svg" xmlns:xlink="http://www.w3.org/1999/xlink">

<path style="fill:#333;stroke:#000;stroke-width:2" d="M235,328 l0,69 19,0 0,-95 -19,26z" />
<path style="fill:#333;stroke:#000;stroke-width:2" d="M88,328 l0,69 -19,0 0,-95 19,26z" />
<path style="fill:#7f7f7f;stroke:#000;stroke-width:2" d="M12,272 l0,-148 3,-15 9,-14 14,-12 18,-11 22,-9 25,-7 28,-5 30,-1 30,1 27,5 25,7 22,9 19,11 13,12 9,14 3,15 0,148 -3,15 -9,14 -13,12 -19,11 -22,9 -25,7 -27,5 -30,1 -30,-1 -28,-5 -25,-7 -22,-9 -18,-11 -14,-12 -9,-14 -3,-15z" />
<path style="fill:#999" d="M37,272 l0,-148 3,-15 7,-14 11,-12 15,-11 19,-9 21,-7 23,-5 25,-1 25,1 23,5 21,7 18,9 15,11 11,12 8,14 2,15 0,148 -2,15 -8,14 -11,12 -15,11 -18,9 -21,7 -23,5 -25,1 -25,-1 -23,-5 -21,-7 -19,-9 -15,-11 -11,-12 -7,-14 -3,-15z" />
<path style="fill:#b2b2b2" d="M74,272 l0,-148 2,-15 5,-14 8,-12 10,-11 13,-9 15,-7 16,-5 18,-1 17,1 16,5 15,7 13,9 10,11 8,12 5,14 2,15 0,148 -2,15 -5,14 -8,12 -10,11 -13,9 -15,7 -16,5 -17,1 -18,-1 -16,-5 -15,-7 -13,-9 -10,-11 -8,-12 -5,-14 -2,-15z" />
<path style="fill:#ccc" d="M111,272 l0,-148 1,-15 3,-14 4,-12 6,-11 8,-9 8,-7 10,-5 10,-1 10,1 9,5 8,7 8,9 6,11 4,12 3,14 1,15 0,148 -1,15 -3,14 -4,12 -6,11 -8,9 -8,7 -9,5 -10,1 -10,-1 -10,-5 -8,-7 -8,-9 -6,-11 -4,-12 -3,-14 -1,-15z" />
<path style="fill:none;stroke:#000;stroke-width:2" d="M12,124 l3,4 9,3 14,3 18,3 22,2 25,2 28,1 30,0 30,0 27,-1 25,-2 22,-2 19,-3 13,-3 9,-3 3,-4" />
<path style="fill:none;stroke:#000;stroke-width:2" d="M12,272 l3,4 9,3 14,3 18,3 22,3 25,1 28,2 30,0 30,0 27,-2 25,-1 22,-3 19,-3 13,-3 9,-3 3,-4" />
<path style="fill:#7f7f7f;stroke:#000;stroke-width:2" d="M52,78 l-9,-35 0,-9 5,-8 9,-7 12,-5 7,-1 6,-1 6,1 5,1 5,2 4,3 3,3 2,4 9,35 0,2 -2,1 -2,3 -4,2 -4,2 -6,2 -6,2 -6,2 -6,2 -6,1 -6,1 -9,0 -3,-1 -3,-1 -1,-1z" />
<path style="fill:#999" d="M58,76 l-9,-34 -1,-9 4,-8 7,-7 10,-4 6,-1 5,0 5,1 4,1 5,2 3,3 2,4 2,4 9,34 -1,3 -5,4 -8,5 -10,3 -10,2 -9,0 -6,-1 -3,-2z" />
<path style="fill:#b2b2b2" d="M66,74 l-10,-34 -1,-9 3,-8 4,-6 7,-3 8,0 7,2 5,6 4,8 10,34 -1,3 -3,4 -6,3 -7,3 -7,1 -6,0 -5,-1 -2,-3z" />
<path style="fill:#ccc" d="M76,71 l-9,-34 -2,-9 0,-7 2,-5 2,-2 4,0 4,4 3,7 3,8 9,34 0,3 -1,3 -2,3 -3,1 -3,0 -3,-1 -3,-2 -1,-3z" />
<path style="fill:none;stroke:#000;stroke-width:2" d="M107,26 l0,2 -2,2 -3,2 -3,2 -5,3 -5,2 -6,2 -6,2 -6,1 -6,1 -6,1 -5,0 -4,0 -4,0 -2,-1 -1,-2" />
<path style="fill:#333;stroke:#000;stroke-width:2" d="M267,321 l0,93 25,0 0,-127 -25,34z" />
<path style="fill:#333;stroke:#000;stroke-width:2" d="M56,321 l0,93 -25,0 0,-127 25,34z" />
<path style="fill:#4c4c4c" d="M271,317 l0,97 17,0 0,-121 -17,24z" />
<path style="fill:#4c4c4c" d="M52,317 l0,97 -17,0 0,-121 17,24z" />
<path style="fill:#666" d="M275,312 l0,102 9,0 0,-112 -9,10z" />
<path style="fill:#666" d="M48,312 l0,102 -9,0 0,-112 9,10z" />

</svg>
