<?xml version="1.0" encoding="utf-8" standalone="no"?><!DOCTYPE svg PUBLIC "-//W3C//DTD SVG 1.1//EN" "http://www.w3.org/Graphics/SVG/1.1/DTD/svg11-flat-20030114.dtd"><svg width="312" height="999" version="1.1" xmlns="http://www.w3.org/2000/svg" xmlns:xlink="http://www.w3.org/1999/xlink">

<path style="fill:#4c4c4c" d="M273,74 l-220,0 0,10 220,0 0,-10z" />
<path style="fill:#4c4c4c" d="M273,140 l-220,0 0,10 220,0 0,-10z" />
<path style="fill:#4c4c4c" d="M273,205 l-220,0 0,10 220,0 0,-10z" />
<path style="fill:#4c4c4c" d="M273,271 l-220,0 0,10 220,0 0,-10z" />
<path style="fill:#4c4c4c" d="M273,336 l-220,0 0,10 220,0 0,-10z" />
<path style="fill:#4c4c4c" d="M273,402 l-220,0 0,10 220,0 0,-10z" />
<path style="fill:#4c4c4c" d="M273,467 l-220,0 0,11 220,0 0,-11z" />
<path style="fill:#4c4c4c" d="M273,533 l-220,0 0,10 220,0 0,-10z" />
<path style="fill:#4c4c4c" d="M273,598 l-220,0 0,11 220,0 0,-11z" />
<path style="fill:#4c4c4c" d="M273,664 l-220,0 0,10 220,0 0,-10z" />
<path style="fill:#4c4c4c" d="M273,730 l-220,0 0,10 220,0 0,-10z" />
<path style="fill:#4c4c4c" d="M273,795 l-220,0 0,10 220,0 0,-10z" />
<path style="fill:#4c4c4c" d="M273,861 l-220,0 0,10 220,0 0,-10z" />
<path style="fill:#4c4c4c" d="M273,926 l-220,0 0,10 220,0 0,-10z" />
<path style="fill:#666" d="M64,642 l0,-573 2,-4 28,-11 33,-4 29,-2 31,1 28,2 30,5 22,9 1,4 0,573 -204,0z" />
<path style="fill:#757575" d="M68,642 l0,-577 29,-10 31,-5 28,-2 30,1 27,3 28,6 23,7 0,577 -196,0z" />
<path style="fill:#828282" d="M72,642 l0,-581 0,0 27,-7 31,-4 27,-2 28,1 34,3 30,6 11,3 1,0 0,581 -189,0z" />
<path style="fill:#919191" d="M76,642 l0,-582 0,-1 26,-5 29,-4 26,-2 36,1 31,3 25,5 7,2 1,1 0,582 -181,0z" />
<path style="fill:#9e9e9e" d="M80,642 l0,-584 1,0 31,-6 29,-3 16,-1 35,1 28,3 28,5 3,1 0,0 0,584 -171,0z" />
<path style="fill:#adadad" d="M90,642 l0,-587 28,-4 33,-3 7,0 31,1 31,3 22,3 0,0 0,587 -152,0z" />
<path style="fill:#bababa" d="M95,642 l0,-587 31,-5 33,-2 33,1 29,2 16,4 0,587 -142,0z" />
<path style="fill:#c9c9c9" d="M110,642 l0,-590 0,0 29,-3 21,-1 33,1 28,3 1,0 0,590 -112,0z" />
<path style="fill:#d6d6d6" d="M133,642 l0,-592 1,0 1,0 3,0 5,-1 5,0 5,-1 6,0 7,0 6,0 7,0 6,1 4,0 4,0 3,1 2,0 1,0 0,592 -66,0z" />
<path style="fill:#e5e5e5" d="M161,642 l0,-592 0,-1 2,0 1,-1 2,0 2,1 2,0 1,1 0,0 0,592 -10,0z" />
<path style="fill:#595959" d="M268,642 l0,307 -1,5 -29,10 -32,4 -30,2 -31,0 -28,-3 -30,-5 -21,-8 -2,-5 0,-307 204,0z" />
<path style="fill:#696969" d="M264,642 l0,311 -29,10 -31,5 -28,2 -30,0 -27,-4 -28,-6 -22,-7 0,-311 195,0z" />
<path style="fill:#757575" d="M261,642 l0,315 -1,1 -27,6 -30,5 -28,1 -28,0 -34,-4 -30,-6 -11,-3 0,0 0,-315 189,0z" />
<path style="fill:#858585" d="M257,642 l0,317 -1,0 -26,6 -29,4 -26,1 -36,-1 -30,-3 -26,-5 -7,-2 0,0 0,-317 181,0z" />
<path style="fill:#919191" d="M252,642 l0,318 -1,0 -30,6 -29,3 -17,1 -34,0 -29,-2 -27,-5 -3,-1 -1,-1 0,-1 0,-318 171,0z" />
<path style="fill:#a1a1a1" d="M242,642 l0,322 -28,3 -33,3 -7,0 -30,-1 -31,-3 -22,-3 -1,1 0,-322 152,0z" />
<path style="fill:#adadad" d="M238,642 l0,324 -32,3 -33,1 -28,0 -29,-1 -20,-2 -1,-1 0,-324 143,0z" />
<path style="fill:#bdbdbd" d="M222,642 l0,326 0,0 -1,0 -28,2 -16,0 -33,0 -29,-2 -5,0 0,-326 112,0z" />
<path style="fill:#c9c9c9" d="M199,642 l0,326 0,0 -2,0 -3,1 -4,0 -5,1 -6,0 -6,0 -7,0 -6,0 -7,0 -5,0 -5,-1 -4,0 -3,0 -2,-1 -1,0 0,-326 66,0z" />
<path style="fill:#d9d9d9" d="M171,642 l0,326 0,1 -1,0 -2,1 -2,0 -2,0 -2,-1 -1,0 0,-1 0,-326 10,0z" />
<path style="fill:none;stroke:#000;stroke-width:2" d="M64,949 l2,5 28,10 32,4 19,2 10,0 11,0 30,-1 35,-4 29,-7 7,-4 1,-3 0,-2 0,-880 -1,-4 -29,-11 -32,-4 -19,-1 -10,-1 -11,0 -30,1 -35,4 -29,8 -6,4 -2,2 0,2 0,880" />
<path style="fill:none;stroke:#7f7f7f;stroke-width:2" d="M268,642 l-204,0" />
<path style="fill:none;stroke:#7f7f7f;stroke-width:2" d="M268,560 l-204,0" />
<path style="fill:none;stroke:#7f7f7f;stroke-width:2" d="M268,479 l-204,0" />
<path style="fill:none;stroke:#7f7f7f;stroke-width:2" d="M268,397 l-204,0" />
<path style="fill:none;stroke:#7f7f7f;stroke-width:2" d="M268,222 l-8,-4 -9,-1 -13,-2 -15,-1 -8,-1 -9,0 -10,-1 -9,0 -11,0 -21,0 -10,0 -10,0 -9,1 -17,1 -15,1 -13,2 -9,1 -9,4" />
<path style="fill:none;stroke:#7f7f7f;stroke-width:2" d="M268,315 l-8,-4 -9,-2 -13,-2 -15,-1 -8,0 -9,-1 -9,0 -10,0 -10,0 -21,0 -10,0 -10,0 -10,0 -17,1 -15,1 -13,2 -9,2 -8,4" />
<path style="fill:none;stroke:#7f7f7f;stroke-width:2" d="M268,151 l-8,-8 -9,-4 -13,-3 -15,-2 -8,-1 -9,-1 -10,-1 -9,0 -11,-1 -21,0 -10,1 -10,0 -9,1 -9,1 -16,2 -14,3 -11,3 -8,4 -5,6" />
<path style="fill:none;stroke:#7f7f7f;stroke-width:2" d="M64,796 l8,4 9,2 13,1 15,2 8,0 9,1 9,0 10,0 10,0 21,0 11,0 9,0 10,0 17,-1 15,-2 13,-1 9,-2 8,-4" />
<path style="fill:none;stroke:#7f7f7f;stroke-width:2" d="M64,714 l8,4 9,2 13,1 15,2 8,0 9,1 9,0 10,0 10,0 21,0 11,0 9,0 10,0 17,-1 15,-2 13,-1 9,-2 8,-4" />
<path style="fill:none;stroke:#7f7f7f;stroke-width:2" d="M64,868 l8,8 9,3 13,3 15,2 8,1 9,1 9,1 10,1 10,0 21,0 11,0 9,-1 10,-1 9,-1 16,-2 14,-2 11,-4 8,-3 4,-6" />
<path style="fill:none;stroke:#fff;stroke-width:2" d="M166,48 l0,922" />
<path style="fill:none;stroke:#000;stroke-width:2" d="M268,74 l-1,-4 -11,-6 -11,-3 -14,-3 -16,-2 -9,-1 -10,0 -9,-1 -11,0 -21,0 -10,0 -10,1 -9,0 -9,1 -16,2 -14,3 -11,3 -8,4 -2,2 -2,4" />
<path style="fill:none;stroke:#000;stroke-width:2" d="M268,79 l-1,-4 -11,-5 -11,-4 -14,-3 -16,-2 -9,-1 -10,0 -9,-1 -11,0 -21,0 -10,0 -10,1 -9,0 -9,1 -16,2 -14,3 -11,4 -8,3 -2,2 -2,4" />
<path style="fill:#e5e5e5" d="M233,64 l-5,0 0,901 5,0 0,-901z" />
<path style="fill:#e5e5e5" d="M279,74 l-6,0 0,880 6,0 0,-880z" />
<path style="fill:#666" d="M284,74 l-6,0 0,880 6,0 0,-880z" />
<path style="fill:#666" d="M238,64 l-6,0 0,901 6,0 0,-901z" />
<path style="fill:none;stroke:#fc0;stroke-width:2" d="M268,49 l-1,-5 -11,-5 -11,-3 -14,-3 -16,-2 -9,-1 -10,-1 -9,-1 -11,0 -21,0 -10,0 -10,1 -9,1 -9,1 -16,2 -14,3 -11,3 -8,3 -2,2 -2,5" />
<path style="fill:none;stroke:#fc0;stroke-width:2" d="M268,59 l-1,-4 -11,-6 -11,-3 -14,-3 -16,-2 -9,-1 -10,-1 -9,-1 -11,0 -21,0 -10,0 -10,1 -9,1 -9,1 -16,2 -14,3 -11,3 -8,4 -2,2 -2,4" />
<path style="fill:none;stroke:#fc0;stroke-width:2" d="M268,69 l0,-21" />
<path style="fill:none;stroke:#fc0;stroke-width:2" d="M63,48 l0,21" />
<path style="fill:none;stroke:#fc0;stroke-width:2" d="M237,54 l0,-21" />
<path style="fill:none;stroke:#fc0;stroke-width:2" d="M99,54 l0,-21" />
<path style="fill:none;stroke:#fc0;stroke-width:2" d="M202,49 l0,-21" />
<path style="fill:none;stroke:#fc0;stroke-width:2" d="M130,48 l0,-20" />
<path style="fill:none;stroke:#fc0;stroke-width:2" d="M166,48 l0,-20" />
<path style="fill:#b2b2b2" d="M53,75 l-5,0 0,880 5,0 0,-880z" />
<path style="fill:#b2b2b2" d="M33,74 l-5,0 0,880 5,0 0,-880z" />
<path style="fill:#b2b2b2" d="M48,79 l0,-5 -15,0 0,5 15,0z" />
<path style="fill:#b2b2b2" d="M48,126 l0,-5 -15,0 0,5 15,0z" />
<path style="fill:#b2b2b2" d="M48,173 l0,-5 -15,0 0,5 15,0z" />
<path style="fill:#b2b2b2" d="M48,220 l0,-5 -15,0 0,5 15,0z" />
<path style="fill:#b2b2b2" d="M48,267 l0,-5 -15,0 0,5 15,0z" />
<path style="fill:#b2b2b2" d="M48,314 l0,-6 -15,0 0,6 15,0z" />
<path style="fill:#b2b2b2" d="M48,361 l0,-6 -15,0 0,6 15,0z" />
<path style="fill:#b2b2b2" d="M48,407 l0,-5 -15,0 0,5 15,0z" />
<path style="fill:#b2b2b2" d="M48,454 l0,-5 -15,0 0,5 15,0z" />
<path style="fill:#b2b2b2" d="M48,501 l0,-5 -15,0 0,5 15,0z" />
<path style="fill:#b2b2b2" d="M48,548 l0,-5 -15,0 0,5 15,0z" />
<path style="fill:#b2b2b2" d="M48,595 l0,-5 -15,0 0,5 15,0z" />
<path style="fill:#b2b2b2" d="M48,642 l0,-6 -15,0 0,6 15,0z" />
<path style="fill:#b2b2b2" d="M48,689 l0,-6 -15,0 0,6 15,0z" />
<path style="fill:#b2b2b2" d="M48,735 l0,-5 -15,0 0,5 15,0z" />
<path style="fill:#b2b2b2" d="M48,782 l0,-5 -15,0 0,5 15,0z" />
<path style="fill:#b2b2b2" d="M48,829 l0,-5 -15,0 0,5 15,0z" />
<path style="fill:#b2b2b2" d="M48,876 l0,-5 -15,0 0,5 15,0z" />
<path style="fill:#b2b2b2" d="M48,923 l0,-5 -15,0 0,5 15,0z" />

</svg>
