<?xml version="1.0" encoding="utf-8" standalone="no"?><!DOCTYPE svg PUBLIC "-//W3C//DTD SVG 1.1//EN" "http://www.w3.org/Graphics/SVG/1.1/DTD/svg11-flat-20030114.dtd"><svg width="325" height="999" version="1.1" xmlns="http://www.w3.org/2000/svg" xmlns:xlink="http://www.w3.org/1999/xlink">

<path style="fill:none;stroke:#fc0;stroke-width:2" d="M47,66 l0,-19 0,-2 9,-6 10,-3 14,-3 9,-1 8,-1 10,-1 10,-1 11,-1 11,0 11,0 24,0 11,0 11,0 11,1 10,1 10,1 8,1 16,3 13,3 8,3 5,4 0,2 0,19" />
<path style="fill:none;stroke:#fc0;stroke-width:2" d="M239,32 l0,20" />
<path style="fill:none;stroke:#fc0;stroke-width:2" d="M201,29 l0,19" />
<path style="fill:none;stroke:#fc0;stroke-width:2" d="M162,28 l0,19" />
<path style="fill:none;stroke:#fc0;stroke-width:2" d="M124,29 l0,19" />
<path style="fill:none;stroke:#fc0;stroke-width:2" d="M85,32 l0,20" />
<path style="fill:none;stroke:#fc0;stroke-width:2" d="M277,57 l0,-2 -8,-6 -11,-3 -14,-3 -9,-1 -8,-1 -10,-1 -10,-1 -11,-1 -11,0 -11,-1 -24,0 -11,1 -11,0 -11,1 -10,1 -10,1 -8,1 -16,2 -13,4 -8,3 -5,4 0,2" />
<path style="fill:#8c8c8c" d="M47,951 l0,2 26,10 34,5 32,2 11,0 12,0 34,0 31,-3 31,-5 19,-9 0,-2 0,-885 0,-2 -26,-10 -34,-5 -32,-2 -11,0 -12,0 -34,1 -31,2 -31,6 -19,8 0,2 0,885z" />
<path style="fill:#a6a6a6" d="M69,951 l2,4 25,10 30,4 17,1 10,0 9,0 27,0 32,-4 26,-7 6,-4 1,-2 1,-2 0,-885 -2,-4 -25,-10 -30,-4 -17,-1 -9,0 -10,0 -27,1 -32,3 -26,8 -6,3 -1,2 -1,2 0,885z" />
<path style="fill:#bfbfbf" d="M79,951 l0,2 24,12 27,4 15,1 8,0 9,0 32,-1 27,-4 24,-12 0,-2 0,-885 0,-2 -24,-12 -27,-4 -15,-1 -8,0 -9,0 -32,1 -27,4 -24,12 0,2 0,885z" />
<path style="fill:#d9d9d9" d="M95,951 l1,4 23,11 30,4 6,0 7,0 32,-2 27,-8 7,-5 1,-2 0,-2 0,-885 -1,-4 -23,-11 -29,-4 -7,0 -7,0 -32,2 -27,8 -7,5 -1,2 0,2 0,885z" />
<path style="fill:#f2f2f2" d="M127,951 l1,4 27,15 7,0 29,-8 5,-7 1,-4 0,-885 -1,-4 -27,-15 -7,0 -29,9 -5,6 -1,4 0,885z" />
<path style="fill:none;stroke:#000;stroke-width:2" d="M47,951 l0,2 26,10 34,5 32,2 11,0 12,0 34,0 31,-3 31,-5 19,-9 0,-2 0,-885 0,-2 -26,-10 -34,-5 -32,-2 -11,0 -12,0 -34,1 -31,2 -31,6 -19,8 0,2 0,885" />
<path style="fill:none;stroke:#7f7f7f;stroke-width:2" d="M277,220 l0,-2 -8,-5 -11,-4 -14,-3 -9,-1 -8,-1 -10,-1 -10,-1 -11,0 -11,-1 -11,0 -24,0 -11,0 -11,1 -11,0 -10,1 -10,1 -8,1 -16,3 -13,3 -8,3 -5,4 0,2" />
<path style="fill:none;stroke:#7f7f7f;stroke-width:2" d="M277,422 l0,-1 -8,-3 -11,-1 -14,-2 -17,-1 -10,0 -10,-1 -11,0 -11,0 -11,-1 -24,0 -11,1 -11,0 -11,0 -10,1 -10,0 -17,1 -14,2 -10,1 -9,3 0,1" />
<path style="fill:none;stroke:#7f7f7f;stroke-width:2" d="M47,797 l0,2 9,6 10,3 14,3 9,1 8,1 10,1 10,1 11,1 11,0 11,1 24,0 11,-1 11,0 11,-1 10,-1 10,-1 8,-1 16,-3 13,-3 8,-3 5,-4 0,-2" />
<path style="fill:none;stroke:#7f7f7f;stroke-width:2" d="M47,615 l0,1 9,2 10,2 14,1 17,2 10,0 10,1 11,0 11,0 11,0 24,0 11,0 11,0 11,0 10,-1 10,0 17,-2 14,-1 11,-2 8,-2 0,-1" />
<path style="fill:#e5e5e5;stroke:#000;stroke-width:2" d="M47,595 l-10,0 -9,-9 0,-10 9,-10 10,0 0,29z" />
<path style="fill:none;stroke:#000;stroke-width:2" d="M47,571 l-15,0" />
<path style="fill:none;stroke:#000;stroke-width:2" d="M47,576 l-19,0" />
<path style="fill:none;stroke:#000;stroke-width:2" d="M47,581 l-15,0" />
<path style="fill:none;stroke:#000;stroke-width:2" d="M47,586 l-15,0" />
<path style="fill:none;stroke:#000;stroke-width:2" d="M47,591 l-10,0" />
<path style="fill:#bfbfbf;stroke:#000;stroke-width:2" d="M28,566 l0,20 0,-4 1,-4 2,-3 2,-3 3,-2 3,-2 4,-1 4,-1 0,-19 -4,0 -4,2 -3,2 -3,2 -2,2 -2,4 -1,4 0,3z" />
<path style="fill:#a6a6a6;stroke:#000;stroke-width:2" d="M28,566 l0,19 3,11 8,11 6,5 7,6 8,5 10,5 10,6 10,6 11,5 12,5 12,6 12,5 13,6 12,5 13,5 12,6 13,5 12,6 11,5 11,5 11,6 10,5 9,6 8,5 7,6 11,10 6,11 1,6 0,-19 -3,-11 -9,-11 -6,-6 -7,-5 -8,-5 -9,-6 -10,-5 -11,-6 -11,-5 -11,-5 -12,-6 -13,-5 -12,-6 -13,-5 -12,-5 -13,-6 -12,-6 -12,-5 -12,-5 -11,-6 -10,-5 -10,-6 -10,-5 -8,-5 -7,-6 -11,-10 -6,-11 0,-6z" />
<path style="fill:#7f7f7f;stroke:#000;stroke-width:2" d="M28,585 l3,11 8,11 6,5 7,6 8,5 10,6 10,5 10,6 11,5 12,5 12,6 12,5 13,6 12,5 13,5 12,6 13,5 12,6 11,5 11,5 11,6 10,5 9,6 8,5 7,6 11,10 6,11 1,6 0,3 -6,8 -10,6 -3,2 0,-19 -3,-11 -8,-11 -6,-5 -6,-6 -8,-5 -8,-6 -10,-5 -9,-6 -11,-5 -10,-5 -12,-6 -11,-5 -11,-6 -12,-5 -12,-5 -12,-6 -11,-5 -11,-6 -11,-5 -10,-5 -10,-6 -9,-6 -9,-5 -7,-5 -7,-6 -10,-10 -6,-11 0,-6z" />
<path style="fill:#e5e5e5;stroke:#000;stroke-width:2" d="M47,249 l-10,0 -9,-10 0,-9 9,-10 10,0 0,29z" />
<path style="fill:none;stroke:#000;stroke-width:2" d="M47,225 l-15,0" />
<path style="fill:none;stroke:#000;stroke-width:2" d="M47,230 l-19,0" />
<path style="fill:none;stroke:#000;stroke-width:2" d="M47,234 l-15,0" />
<path style="fill:none;stroke:#000;stroke-width:2" d="M47,239 l-15,0" />
<path style="fill:none;stroke:#000;stroke-width:2" d="M47,244 l-10,0" />
<path style="fill:#bfbfbf;stroke:#000;stroke-width:2" d="M28,220 l0,19 0,-4 1,-3 2,-3 2,-4 3,-2 3,-2 4,-1 4,0 0,-19 -4,0 -4,1 -3,2 -3,2 -2,3 -2,4 -1,3 0,4z" />
<path style="fill:#a6a6a6;stroke:#000;stroke-width:2" d="M28,220 l0,19 3,11 8,11 6,5 7,5 8,6 10,5 10,6 10,5 11,5 12,6 12,5 12,6 13,5 12,6 13,5 12,5 13,6 12,5 11,6 11,5 11,5 10,6 9,5 8,6 7,5 11,11 6,11 1,5 0,-19 -3,-11 -9,-10 -6,-6 -7,-5 -8,-6 -9,-5 -10,-6 -11,-5 -11,-5 -11,-6 -12,-5 -13,-6 -12,-5 -13,-6 -12,-5 -13,-5 -12,-6 -12,-5 -12,-6 -11,-5 -10,-5 -10,-6 -10,-5 -8,-6 -7,-5 -11,-11 -6,-11 0,-5z" />
<path style="fill:#7f7f7f;stroke:#000;stroke-width:2" d="M28,239 l3,11 8,11 6,5 7,6 8,5 10,5 10,6 10,5 11,6 12,5 12,6 12,5 13,5 12,6 13,5 12,6 13,5 12,5 11,6 11,5 11,6 10,5 9,5 8,6 7,5 11,11 6,11 1,5 0,4 -6,8 -10,6 -3,2 0,-20 -3,-10 -8,-11 -6,-6 -6,-5 -8,-6 -8,-5 -10,-6 -9,-5 -11,-5 -10,-6 -12,-5 -11,-6 -11,-5 -12,-5 -12,-6 -12,-5 -11,-6 -11,-5 -11,-6 -10,-5 -10,-5 -9,-6 -9,-5 -7,-6 -7,-5 -10,-11 -6,-10 0,-6z" />

</svg>
