<?xml version="1.0" encoding="utf-8" standalone="no"?><!DOCTYPE svg PUBLIC "-//W3C//DTD SVG 1.1//EN" "http://www.w3.org/Graphics/SVG/1.1/DTD/svg11-flat-20030114.dtd"><svg width="999" height="919" version="1.1" xmlns="http://www.w3.org/2000/svg" xmlns:xlink="http://www.w3.org/1999/xlink">

<path style="fill:#e5e5e5;stroke:#000;stroke-width:2" d="M912,891 l19,-18 0,-512 39,0 0,-20 -942,0 0,20 39,0 0,512 19,18 826,0z" />
<path style="fill:#e5e5e5;stroke:#000;stroke-width:2" d="M616,341 l-38,-38 0,-257 -21,-18 -117,0 -20,18 0,257 -40,38 236,0z" />
<path style="fill:#e5e5e5;stroke:#000;stroke-width:2" d="M578,67 l77,0 40,38 0,296 -40,0 0,-275 -18,-21 -59,0 0,-38z" />
<path style="fill:none;stroke:#000;stroke-width:2" d="M578,303 l-158,0" />
<path style="fill:#e5e5e5;stroke:#000;stroke-width:2" d="M144,518 l0,-177 40,0 0,-38 -19,0 0,-79 -21,-21 -77,0 -21,21 0,79 -18,0 0,38 58,0 0,177 21,0 0,79 18,0 0,-79 19,0z" />
<path style="fill:#e5e5e5;stroke:#000;stroke-width:2" d="M420,224 l-77,0 -40,39 0,236 -21,19 -196,0 0,40 217,0 40,-40 0,-236 18,-19 59,0 0,-39z" />
<path style="fill:none;stroke:#000;stroke-width:2" d="M165,303 l-119,0" />
<path style="fill:none;stroke:#000;stroke-width:2" d="M144,341 l-58,0" />

</svg>
