<?xml version="1.0" encoding="utf-8" standalone="no"?><!DOCTYPE svg PUBLIC "-//W3C//DTD SVG 1.1//EN" "http://www.w3.org/Graphics/SVG/1.1/DTD/svg11-flat-20030114.dtd"><svg width="999" height="959" version="1.1" xmlns="http://www.w3.org/2000/svg" xmlns:xlink="http://www.w3.org/1999/xlink">

<path style="fill:#e5e5e5;stroke:#000;stroke-width:2" d="M912,931 l19,-21 0,-686 39,0 0,-19 -942,0 0,19 39,0 0,686 19,21 826,0z" />
<path style="fill:#e5e5e5;stroke:#000;stroke-width:2" d="M205,361 l0,-156 40,0 0,-40 -21,0 0,-119 -19,-18 -79,0 -19,18 0,119 -79,0 0,40 98,0 0,569 39,0 0,-373 40,0 19,0 0,-40 -19,0z" />
<path style="fill:none;stroke:#000;stroke-width:2" d="M224,165 l-117,0" />
<path style="fill:#e5e5e5;stroke:#000;stroke-width:2" d="M184,774 l-77,0 0,38 77,0 0,-38z" />
<path style="fill:#e5e5e5;stroke:#000;stroke-width:2" d="M224,361 l-98,0 0,40 98,0 0,-40z" />
<path style="fill:none;stroke:#000;stroke-width:2" d="M205,203 l-79,0" />
<path style="fill:none;stroke:#000;stroke-width:2" d="M165,459 l-39,0" />

</svg>
