<?xml version="1.0" encoding="utf-8" standalone="no"?><!DOCTYPE svg PUBLIC "-//W3C//DTD SVG 1.1//EN" "http://www.w3.org/Graphics/SVG/1.1/DTD/svg11-flat-20030114.dtd"><svg width="780" height="999" version="1.1" xmlns="http://www.w3.org/2000/svg" xmlns:xlink="http://www.w3.org/1999/xlink">

<path style="fill:#e5e5e5;stroke:#000;stroke-width:2" d="M67,689 l0,1 4,5 21,4 28,2 41,4 48,2 55,2 60,0 66,2 66,-2 61,0 56,-2 47,-2 40,-4 30,-2 19,-4 6,-5 0,-1 0,-641 -648,0 0,641z" />
<ellipse style="fill:#f0f0f0;stroke:#000;stroke-width:2" cx="390" cy="48" rx="326" ry="20" />
<path style="fill:none;stroke:#000;stroke-width:2" d="M67,532 l-19,4 -8,4 8,4 21,4 33,5 41,4 51,2 60,2 66,0 70,2 72,-2 64,0 59,-2 54,-2 41,-4 33,-5 21,-4 8,-4 -8,-4 -19,-4" />
<path style="fill:#ccc;stroke:#000;stroke-width:2" d="M752,958 l-76,0 0,12 76,0 0,-12z" />
<path style="fill:#ccc;stroke:#000;stroke-width:2" d="M28,958 l74,0 0,12 -74,0 0,-12z" />
<path style="fill:#ccc;stroke:#000;stroke-width:2" d="M740,958 l-48,0 0,-418 48,0 0,418z" />
<path style="fill:#ccc;stroke:#000;stroke-width:2" d="M40,958 l47,0 0,-418 -47,0 0,418z" />

</svg>
