<?xml version="1.0" encoding="utf-8" standalone="no"?><!DOCTYPE svg PUBLIC "-//W3C//DTD SVG 1.1//EN" "http://www.w3.org/Graphics/SVG/1.1/DTD/svg11-flat-20030114.dtd"><svg width="999" height="816" version="1.1" xmlns="http://www.w3.org/2000/svg" xmlns:xlink="http://www.w3.org/1999/xlink">

<path style="fill:#e5e5e5;stroke:#000;stroke-width:2" d="M921,788 l15,-17 0,-579 34,0 0,-15 -793,0 0,15 33,0 0,579 16,17 695,0z" />
<path style="fill:#e5e5e5;stroke:#000;stroke-width:2" d="M60,341 l0,-164 -32,0 0,-34 17,0 0,-100 15,-15 66,0 17,15 0,100 66,0 0,34 -83,0 0,49 84,0 0,32 -84,0 0,83 -15,17 0,346 17,17 82,0 0,33 -99,0 -34,-33 0,-363 -17,-17z" />
<path style="fill:none;stroke:#000;stroke-width:2" d="M45,143 l98,0" />
<path style="fill:none;stroke:#000;stroke-width:2" d="M60,175 l66,0" />
<path style="fill:#e5e5e5;stroke:#000;stroke-width:2" d="M210,473 l-99,0 0,33 99,0 0,-33z" />
<path style="fill:#000;stroke:#000;stroke-width:2" d="M111,375 l-34,0 -15,7 15,10 34,0 17,-10 -17,-7z" />

</svg>
