<?xml version="1.0" encoding="utf-8" standalone="no"?><!DOCTYPE svg PUBLIC "-//W3C//DTD SVG 1.1//EN" "http://www.w3.org/Graphics/SVG/1.1/DTD/svg11-flat-20030114.dtd"><svg width="331" height="999" version="1.1" xmlns="http://www.w3.org/2000/svg" xmlns:xlink="http://www.w3.org/1999/xlink">

<path style="fill:#666638" d="M303,970 l0,-882 -50,-47 -87,-13 -88,13 -50,47 0,882 275,0z" />
<path style="fill:#78784f" d="M290,970 l0,-882 -50,-47 -74,-13 -76,13 -37,47 0,882 237,0z" />
<path style="fill:#878763" d="M265,970 l0,-882 -37,-47 -62,-13 -63,13 -38,47 0,882 200,0z" />
<path style="fill:#99997a" d="M253,970 l0,-882 -38,-47 -49,-13 -51,13 -25,47 0,882 163,0z" />
<path style="fill:#abab91" d="M228,970 l0,-882 -25,-47 -37,-13 -39,13 -12,47 0,882 113,0z" />
<path style="fill:#babaa6" d="M203,970 l0,-882 -12,-47 -25,-13 -26,13 -13,47 0,882 76,0z" />
<path style="fill:#e5e5dd" d="M191,970 l0,-882 -13,-47 -12,-13 -13,13 0,47 0,882 38,0z" />
<path style="fill:none;stroke:#000;stroke-width:2" d="M303,970 l0,-882 -50,-47 -87,-13 -88,13 -50,47 0,882 275,0" />
<path style="fill:none;stroke:#7f7f59;stroke-width:2" d="M303,852 l-275,0" />
<path style="fill:none;stroke:#7f7f59;stroke-width:2" d="M303,735 l-275,0" />
<path style="fill:none;stroke:#7f7f59;stroke-width:2" d="M303,617 l-275,0" />
<path style="fill:none;stroke:#7f7f59;stroke-width:2" d="M303,499 l-275,0" />
<path style="fill:none;stroke:#7f7f59;stroke-width:2" d="M303,381 l-275,0" />
<path style="fill:none;stroke:#7f7f59;stroke-width:2" d="M303,263 l-275,0" />
<path style="fill:none;stroke:#7f7f59;stroke-width:2" d="M303,146 l-275,0" />

</svg>
