<?xml version="1.0" encoding="utf-8" standalone="no"?><!DOCTYPE svg PUBLIC "-//W3C//DTD SVG 1.1//EN" "http://www.w3.org/Graphics/SVG/1.1/DTD/svg11-flat-20030114.dtd"><svg width="912" height="999" version="1.1" xmlns="http://www.w3.org/2000/svg" xmlns:xlink="http://www.w3.org/1999/xlink">

<path style="fill:#333" d="M270,627 l0,329 15,0 0,14 -86,0 0,-14 14,0 0,-329 57,0z" />
<path style="fill:#333" d="M698,627 l0,329 15,0 0,14 -86,0 0,-14 15,0 0,-329 56,0z" />
<circle style="fill:#666;stroke:#000;stroke-width:2" cx="456" cy="456" r="428" />
<path style="fill:#6e6e6e" d="M859,456 l-29,-161 -86,-146 -137,-91 -152,-30 -151,30 -137,91 -86,146 -29,161 29,161 86,145 137,91 151,31 152,-31 137,-91 86,-145 29,-161z" />
<path style="fill:#757575" d="M835,456 l-27,-161 -81,-146 -129,-91 -143,-30 -142,30 -129,91 -80,146 -27,161 27,161 80,145 129,91 142,31 143,-31 129,-91 81,-145 27,-161z" />
<path style="fill:#7d7d7d" d="M810,456 l-25,-161 -76,-145 -120,-92 -134,-30 -133,30 -120,92 -76,145 -25,161 25,161 76,145 120,91 133,31 134,-31 120,-91 76,-145 25,-161z" />
<path style="fill:#858585" d="M785,456 l-23,-161 -70,-145 -112,-92 -125,-30 -124,30 -112,92 -70,145 -23,161 23,161 70,145 112,91 124,31 125,-31 112,-91 70,-145 23,-161z" />
<path style="fill:#8f8f8f" d="M761,456 l-22,-161 -65,-145 -104,-92 -115,-30 -114,30 -104,92 -65,145 -22,161 22,161 65,145 104,91 114,31 115,-31 104,-91 65,-145 22,-161z" />
<path style="fill:#969696" d="M736,456 l-19,-161 -60,-145 -96,-92 -106,-30 -105,30 -96,92 -59,145 -20,161 20,161 59,145 96,91 105,31 106,-31 96,-91 60,-145 19,-161z" />
<ellipse style="fill:#9e9e9e" cx="455" cy="456" rx="256" ry="428" />
<ellipse style="fill:#a6a6a6" cx="456" cy="456" rx="232" ry="428" />
<ellipse style="fill:#adadad" cx="455" cy="456" rx="207" ry="428" />
<ellipse style="fill:#b5b5b5" cx="455" cy="456" rx="182" ry="428" />
<ellipse style="fill:#bdbdbd" cx="455" cy="456" rx="158" ry="428" />
<ellipse style="fill:#c4c4c4" cx="455" cy="456" rx="133" ry="428" />
<ellipse style="fill:#cfcfcf" cx="455" cy="456" rx="109" ry="428" />
<ellipse style="fill:#d6d6d6" cx="455" cy="456" rx="84" ry="428" />
<ellipse style="fill:#dedede" cx="455" cy="456" rx="60" ry="428" />
<ellipse style="fill:#e5e5e5" cx="455" cy="456" rx="35" ry="428" />
<path style="fill:#7f7f7f" d="M784,627 l0,329 14,0 0,14 -85,0 0,-14 14,0 0,-329 57,0z" />
<path style="fill:#999" d="M779,627 l0,329 12,0 0,14 -71,0 0,-14 12,0 0,-329 47,0z" />
<path style="fill:#b2b2b2" d="M774,627 l0,329 10,0 0,14 -57,0 0,-14 9,0 0,-329 38,0z" />
<path style="fill:#ccc" d="M770,627 l0,329 7,0 0,14 -43,0 0,-14 7,0 0,-329 29,0z" />
<path style="fill:#e5e5e5" d="M765,627 l0,329 5,0 0,14 -29,0 0,-14 5,0 0,-329 19,0z" />
<path style="fill:#fff" d="M760,627 l0,329 3,0 0,14 -15,0 0,-14 3,0 0,-329 9,0z" />
<path style="fill:none;stroke:#000;stroke-width:2" d="M784,627 l0,329 14,0 0,14 -85,0 0,-14 14,0 0,-329 57,0" />
<path style="fill:#7f7f7f" d="M185,627 l0,329 14,0 0,14 -86,0 0,-14 14,0 0,-329 58,0z" />
<path style="fill:#999" d="M180,627 l0,329 12,0 0,14 -72,0 0,-14 12,0 0,-329 48,0z" />
<path style="fill:#b2b2b2" d="M175,627 l0,329 10,0 0,14 -58,0 0,-14 10,0 0,-329 38,0z" />
<path style="fill:#ccc" d="M170,627 l0,329 7,0 0,14 -43,0 0,-14 8,0 0,-329 28,0z" />
<path style="fill:#e5e5e5" d="M165,627 l0,329 5,0 0,14 -28,0 0,-14 4,0 0,-329 19,0z" />
<path style="fill:#fff" d="M161,627 l0,329 2,0 0,14 -14,0 0,-14 2,0 0,-329 10,0z" />
<path style="fill:none;stroke:#000;stroke-width:2" d="M185,627 l0,329 14,0 0,14 -86,0 0,-14 14,0 0,-329 58,0" />
<path style="fill:#666" d="M884,627 l-856,0 0,-21 856,0 0,21z" />
<path style="fill:#333" d="M884,627 l-856,0 0,-21 856,0 0,21z" />
<path style="fill:#3d3d3d" d="M858,627 l-805,0 0,-21 805,0 0,21z" />
<path style="fill:#454545" d="M833,627 l-755,0 0,-21 755,0 0,21z" />
<path style="fill:#4f4f4f" d="M807,627 l-703,0 0,-21 703,0 0,21z" />
<path style="fill:#595959" d="M782,627 l-653,0 0,-21 653,0 0,21z" />
<path style="fill:#636363" d="M757,627 l-603,0 0,-21 603,0 0,21z" />
<path style="fill:#6b6b6b" d="M731,627 l-551,0 0,-21 551,0 0,21z" />
<path style="fill:#757575" d="M706,627 l-501,0 0,-21 501,0 0,21z" />
<path style="fill:#7f7f7f" d="M681,627 l-450,0 0,-21 450,0 0,21z" />
<path style="fill:#8a8a8a" d="M655,627 l-399,0 0,-21 399,0 0,21z" />
<path style="fill:#919191" d="M630,627 l-349,0 0,-21 349,0 0,21z" />
<path style="fill:#9c9c9c" d="M604,627 l-297,0 0,-21 297,0 0,21z" />
<path style="fill:#a6a6a6" d="M579,627 l-247,0 0,-21 247,0 0,21z" />
<path style="fill:#b0b0b0" d="M553,627 l-195,0 0,-21 195,0 0,21z" />
<path style="fill:#b8b8b8" d="M528,627 l-145,0 0,-21 145,0 0,21z" />
<path style="fill:#c2c2c2" d="M502,627 l-93,0 0,-21 93,0 0,21z" />
<path style="fill:#ccc" d="M477,627 l-43,0 0,-21 43,0 0,21z" />
<path style="fill:none;stroke:#000;stroke-width:2" d="M884,627 l-856,0 0,-21 856,0 0,21" />

</svg>
