<?xml version="1.0" encoding="utf-8" standalone="no"?><!DOCTYPE svg PUBLIC "-//W3C//DTD SVG 1.1//EN" "http://www.w3.org/Graphics/SVG/1.1/DTD/svg11-flat-20030114.dtd"><svg width="912" height="999" version="1.1" xmlns="http://www.w3.org/2000/svg" xmlns:xlink="http://www.w3.org/1999/xlink">

<path style="fill:#333" d="M699,627 l0,329 14,0 0,14 -86,0 0,-14 15,0 0,-329 57,0z" />
<path style="fill:#333" d="M270,627 l0,329 15,0 0,14 -86,0 0,-14 14,0 0,-329 57,0z" />
<circle style="fill:#666;stroke:#000;stroke-width:2" cx="456" cy="456" r="428" />
<path style="fill:#6e6e6e" d="M873,442 l-30,-154 -87,-140 -139,-86 -153,-30 -154,30 -139,86 -88,140 -29,154 29,154 88,140 139,86 154,30 153,-30 139,-86 87,-140 30,-154z" />
<path style="fill:#757575" d="M862,429 l-28,-147 -83,-133 -133,-83 -147,-28 -146,28 -133,83 -83,133 -28,147 28,147 83,133 133,83 146,28 147,-28 133,-83 83,-133 28,-147z" />
<path style="fill:#7d7d7d" d="M851,415 l-26,-140 -79,-126 -127,-80 -139,-26 -140,26 -127,80 -79,126 -27,140 27,140 79,127 127,79 140,27 139,-27 127,-79 79,-127 26,-140z" />
<path style="fill:#858585" d="M841,402 l-26,-133 -75,-120 -120,-75 -132,-26 -133,26 -120,75 -75,120 -25,133 25,133 75,120 120,75 133,26 132,-26 120,-75 75,-120 26,-133z" />
<path style="fill:#8f8f8f" d="M830,388 l-24,-125 -71,-114 -114,-71 -125,-24 -126,24 -114,71 -71,114 -24,125 24,126 71,114 114,71 126,24 125,-24 114,-71 71,-114 24,-126z" />
<path style="fill:#969696" d="M819,375 l-22,-119 -68,-107 -107,-67 -118,-23 -119,23 -107,67 -68,107 -22,119 22,119 68,108 107,66 119,23 118,-23 107,-66 68,-108 22,-119z" />
<path style="fill:#9e9e9e" d="M809,362 l-21,-112 -64,-101 -101,-63 -111,-22 -112,22 -101,63 -63,101 -21,112 21,111 63,102 101,63 112,21 111,-21 101,-63 64,-102 21,-111z" />
<path style="fill:#a6a6a6" d="M798,348 l-20,-104 -59,-95 -95,-59 -104,-20 -105,20 -94,59 -60,95 -20,104 20,105 60,95 94,59 105,20 104,-20 95,-59 59,-95 20,-105z" />
<path style="fill:#adadad" d="M787,335 l-18,-98 -56,-88 -88,-55 -97,-19 -98,19 -88,55 -55,88 -19,98 19,97 55,89 88,55 98,19 97,-19 88,-55 56,-89 18,-97z" />
<circle style="fill:#b5b5b5" cx="536" cy="322" r="241" />
<circle style="fill:#bdbdbd" cx="544" cy="308" r="222" />
<path style="fill:#c4c4c4" d="M756,295 l-15,-77 -44,-69 -69,-43 -76,-15 -76,15 -69,43 -44,69 -14,77 14,76 44,70 69,43 76,14 76,-14 69,-43 44,-70 15,-76z" />
<circle style="fill:#cfcfcf" cx="560" cy="281" r="185" />
<circle style="fill:#d6d6d6" cx="568" cy="268" r="166" />
<circle style="fill:#dedede" cx="576" cy="254" r="147" />
<circle style="fill:#e5e5e5" cx="584" cy="241" r="128" />
<path style="fill:#7f7f7f" d="M784,627 l0,329 15,0 0,14 -86,0 0,-14 14,0 0,-329 57,0z" />
<path style="fill:#999" d="M780,627 l0,329 12,0 0,14 -72,0 0,-14 12,0 0,-329 48,0z" />
<path style="fill:#b2b2b2" d="M775,627 l0,329 9,0 0,14 -57,0 0,-14 10,0 0,-329 38,0z" />
<path style="fill:#ccc" d="M770,627 l0,329 7,0 0,14 -43,0 0,-14 7,0 0,-329 29,0z" />
<path style="fill:#e5e5e5" d="M765,627 l0,329 5,0 0,14 -29,0 0,-14 5,0 0,-329 19,0z" />
<path style="fill:#fff" d="M761,627 l0,329 2,0 0,14 -14,0 0,-14 2,0 0,-329 10,0z" />
<path style="fill:none;stroke:#000;stroke-width:2" d="M784,627 l0,329 15,0 0,14 -86,0 0,-14 14,0 0,-329 57,0" />
<path style="fill:#7f7f7f" d="M185,627 l0,329 14,0 0,14 -86,0 0,-14 14,0 0,-329 58,0z" />
<path style="fill:#999" d="M180,627 l0,329 12,0 0,14 -72,0 0,-14 12,0 0,-329 48,0z" />
<path style="fill:#b2b2b2" d="M175,627 l0,329 10,0 0,14 -58,0 0,-14 10,0 0,-329 38,0z" />
<path style="fill:#ccc" d="M170,627 l0,329 7,0 0,14 -42,0 0,-14 7,0 0,-329 28,0z" />
<path style="fill:#e5e5e5" d="M165,627 l0,329 5,0 0,14 -28,0 0,-14 4,0 0,-329 19,0z" />
<path style="fill:#fff" d="M161,627 l0,329 2,0 0,14 -14,0 0,-14 2,0 0,-329 10,0z" />
<path style="fill:none;stroke:#000;stroke-width:2" d="M185,627 l0,329 14,0 0,14 -86,0 0,-14 14,0 0,-329 58,0" />
<path style="fill:#666" d="M884,627 l-856,0 0,-21 856,0 0,21z" />
<path style="fill:#333" d="M884,627 l-856,0 0,-21 856,0 0,21z" />
<path style="fill:#3d3d3d" d="M859,627 l-806,0 0,-22 806,0 0,22z" />
<path style="fill:#454545" d="M833,627 l-755,0 0,-22 755,0 0,22z" />
<path style="fill:#4f4f4f" d="M808,627 l-704,0 0,-22 704,0 0,22z" />
<path style="fill:#595959" d="M782,627 l-653,0 0,-22 653,0 0,22z" />
<path style="fill:#636363" d="M757,627 l-603,0 0,-22 603,0 0,22z" />
<path style="fill:#6b6b6b" d="M732,627 l-552,0 0,-22 552,0 0,22z" />
<path style="fill:#757575" d="M706,627 l-501,0 0,-22 501,0 0,22z" />
<path style="fill:#7f7f7f" d="M681,627 l-450,0 0,-22 450,0 0,22z" />
<path style="fill:#8a8a8a" d="M655,627 l-399,0 0,-22 399,0 0,22z" />
<path style="fill:#919191" d="M630,627 l-348,0 0,-22 348,0 0,22z" />
<path style="fill:#9c9c9c" d="M604,627 l-297,0 0,-22 297,0 0,22z" />
<path style="fill:#a6a6a6" d="M579,627 l-247,0 0,-22 247,0 0,22z" />
<path style="fill:#b0b0b0" d="M554,627 l-196,0 0,-22 196,0 0,22z" />
<path style="fill:#b8b8b8" d="M528,627 l-145,0 0,-22 145,0 0,22z" />
<path style="fill:#c2c2c2" d="M503,627 l-94,0 0,-22 94,0 0,22z" />
<path style="fill:#ccc" d="M478,627 l-44,0 0,-21 44,0 0,21z" />
<path style="fill:none;stroke:#000;stroke-width:2" d="M884,627 l-856,0 0,-21 856,0 0,21" />

</svg>
