<?xml version="1.0" encoding="utf-8" standalone="no"?><!DOCTYPE svg PUBLIC "-//W3C//DTD SVG 1.1//EN" "http://www.w3.org/Graphics/SVG/1.1/DTD/svg11-flat-20030114.dtd"><svg width="919" height="999" version="1.1" xmlns="http://www.w3.org/2000/svg" xmlns:xlink="http://www.w3.org/1999/xlink">

<path style="fill:#7f7f7f" d="M538,28 l-157,0 0,942 157,0 0,-942z" />
<path style="fill:#969696" d="M523,28 l-24,0 -8,0 -8,0 -56,0 -32,0 0,177 0,29 0,29 0,501 0,29 0,147 0,30 8,0 32,0 56,0 24,0 8,0 0,-30 0,-147 0,-29 0,-530 0,-29 0,-177z" />
<path style="fill:#ababab" d="M508,28 l-18,0 -6,0 -7,0 -43,0 -24,0 0,177 0,29 0,29 0,501 0,29 0,147 0,30 6,0 31,0 37,0 18,0 6,0 0,-30 0,-147 0,-29 0,-530 0,-29 0,-177z" />
<path style="fill:#c2c2c2" d="M494,28 l-14,0 -4,0 -4,0 -30,0 -17,0 0,177 -1,29 0,29 0,501 1,29 0,147 0,30 4,0 30,0 30,0 5,0 0,-30 0,-147 -1,-29 0,-530 1,-29 0,-177z" />
<path style="fill:#d9d9d9" d="M479,28 l-39,0 0,942 39,0 0,-942z" />
<path style="fill:none;stroke:#000;stroke-width:2" d="M538,28 l-157,0 0,942 157,0 0,-942" />
<circle style="fill:#999" cx="459" cy="499" r="431" />
<ellipse style="fill:#a8a8a8" cx="459" cy="499" rx="370" ry="432" />
<ellipse style="fill:#b8b8b8" cx="459" cy="499" rx="309" ry="432" />
<ellipse style="fill:#c4c4c4" cx="459" cy="499" rx="248" ry="432" />
<ellipse style="fill:#d4d4d4" cx="459" cy="499" rx="187" ry="432" />
<ellipse style="fill:#e3e3e3" cx="459" cy="499" rx="126" ry="432" />
<ellipse style="fill:#f2f2f2" cx="459" cy="499" rx="65" ry="431" />
<circle style="fill:none;stroke:#000;stroke-width:2" cx="459" cy="499" r="431" />
<path style="fill:none;stroke:#000;stroke-width:2" d="M459,931 l32,-5 31,-14 29,-24 18,-20 17,-23 15,-26 14,-30 13,-32 12,-34 10,-37 8,-38 6,-41 4,-42 2,-43 0,-23 0,-22 -2,-43 -4,-42 -6,-41 -8,-38 -10,-37 -12,-35 -13,-32 -14,-29 -15,-26 -17,-24 -18,-20 -29,-23 -31,-14 -21,-5 -11,0" />
<path style="fill:#7f7f7f" d="M537,126 l0,-20 -20,0 0,20 20,0z" />
<path style="fill:#7f7f7f" d="M571,172 l0,-3 0,-10 0,-7 -5,0 -10,0 -5,0 0,5 0,10 0,5 10,0 10,0z" />
<path style="fill:#7f7f7f" d="M598,223 l0,-2 0,-10 0,-7 -5,-1 -10,0 -5,1 0,4 0,10 0,5 10,0 10,0z" />
<path style="fill:#7f7f7f" d="M618,278 l0,-3 0,-10 0,-7 -5,0 -10,0 -5,0 0,5 0,10 0,5 10,0 10,0z" />
<path style="fill:#7f7f7f" d="M633,334 l0,-2 -1,-10 1,-8 -5,0 -10,0 -5,0 0,5 0,10 0,5 10,0 10,0z" />
<path style="fill:#7f7f7f" d="M643,391 l0,-2 0,-10 0,-7 -5,-1 -10,0 -5,1 0,4 0,10 0,5 10,0 10,0z" />
<path style="fill:#7f7f7f" d="M649,449 l0,-2 0,-10 0,-7 -5,-1 -10,0 -5,1 0,4 0,10 0,5 10,0 10,0z" />
<path style="fill:#7f7f7f" d="M651,507 l0,-2 0,-10 0,-8 -5,0 -10,0 -5,0 0,5 0,10 0,5 10,0 10,0z" />
<path style="fill:#7f7f7f" d="M649,565 l0,-2 0,-10 0,-8 -5,0 -10,0 -5,0 0,5 0,10 0,5 10,0 10,0z" />
<path style="fill:#7f7f7f" d="M643,623 l0,-2 0,-10 0,-7 -5,-1 -10,0 -4,1 -1,4 0,10 1,5 9,0 10,0z" />
<path style="fill:#7f7f7f" d="M633,680 l0,-2 0,-10 0,-7 -5,-1 -10,0 -4,1 -1,4 0,10 1,5 9,0 10,0z" />
<path style="fill:#7f7f7f" d="M619,737 l0,-3 0,-10 0,-7 -5,0 -10,0 -5,0 0,5 0,10 0,5 10,0 10,0z" />
<path style="fill:#7f7f7f" d="M599,792 l0,-3 0,-10 0,-7 -5,0 -10,0 -4,0 -1,5 0,10 1,5 9,-1 10,1z" />
<path style="fill:#7f7f7f" d="M573,843 l0,-2 0,-10 0,-7 -5,-1 -10,0 -5,1 0,4 0,10 0,5 10,0 10,0z" />
<path style="fill:#7f7f7f" d="M539,891 l0,-20 -20,0 0,20 20,0z" />

</svg>
