<?xml version="1.0" encoding="utf-8" standalone="no"?><!DOCTYPE svg PUBLIC "-//W3C//DTD SVG 1.1//EN" "http://www.w3.org/Graphics/SVG/1.1/DTD/svg11-flat-20030114.dtd"><svg width="292" height="999" version="1.1" xmlns="http://www.w3.org/2000/svg" xmlns:xlink="http://www.w3.org/1999/xlink">

<path style="fill:#999;stroke:#000;stroke-width:2" d="M234,77 l0,-10 -176,0 0,10 176,0z" />
<path style="fill:#999;stroke:#000;stroke-width:2" d="M234,38 l0,-10 -176,0 0,10 176,0z" />
<path style="fill:#b2b2b2;stroke:#000;stroke-width:2" d="M234,578 l-15,0 0,382 15,0 0,-382z" />
<path style="fill:#b2b2b2;stroke:#000;stroke-width:2" d="M72,578 l-15,0 0,382 15,0 0,-382z" />
<path style="fill:none;stroke:#000;stroke-width:2" d="M224,735 l-157,225" />
<path style="fill:none;stroke:#000;stroke-width:2" d="M224,960 l-157,-225" />
<path style="fill:#ccc" d="M244,106 l0,589 -79,59 0,98 -39,0 0,-98 -78,-59 0,-589 196,0z" />
<path style="fill:#e5e5e5" d="M224,106 l0,589 -63,59 0,98 -31,0 0,-98 -63,-59 0,-589 157,0z" />
<path style="fill:#f2f2f2" d="M205,106 l0,589 -47,59 0,98 -24,0 0,-98 -47,-59 0,-589 118,0z" />
<path style="fill:#fff" d="M185,106 l0,589 -32,59 0,98 -15,0 0,-98 -32,-59 0,-589 79,0z" />
<path style="fill:none;stroke:#000;stroke-width:2" d="M244,106 l0,589 -79,59 0,98 -39,0 0,-98 -78,-59 0,-589 196,0" />
<path style="fill:none;stroke:#7f7f7f;stroke-width:2" d="M165,754 l-39,0" />
<path style="fill:none;stroke:#7f7f7f;stroke-width:2" d="M244,695 l-196,0" />
<path style="fill:#ccc;stroke:#000;stroke-width:2" d="M185,852 l-79,0 0,79 79,0 0,-79z" />
<path style="fill:#b2b2b2;stroke:#000;stroke-width:2" d="M165,931 l-39,0 0,39 39,0 0,-39z" />
<circle style="fill:none;stroke:#000;stroke-width:2" cx="126" cy="930" r="20" />
<path style="fill:#bfbfbf;stroke:#000;stroke-width:2" d="M260,775 l-12,-16 -219,166 12,16 219,-166z" />
<path style="fill:#bfbfbf;stroke:#000;stroke-width:2" d="M42,759 l-12,15 217,169 12,-15 -217,-169z" />
<path style="fill:#d9d9d9;stroke:#000;stroke-width:2" d="M263,578 l-19,0 0,392 19,0 0,-392z" />
<path style="fill:#d9d9d9;stroke:#000;stroke-width:2" d="M47,578 l-19,0 0,392 19,0 0,-392z" />
<path style="fill:#999;stroke:#000;stroke-width:2" d="M244,28 l-10,0 0,78 10,0 0,-78z" />
<path style="fill:#999;stroke:#000;stroke-width:2" d="M58,28 l-10,0 0,78 10,0 0,-78z" />
<path style="fill:#999;stroke:#000;stroke-width:2" d="M151,28 l-10,0 0,78 10,0 0,-78z" />
<path style="fill:none;stroke:#000;stroke-width:2" d="M205,28 l0,942" />
<path style="fill:none;stroke:#000;stroke-width:2" d="M165,28 l0,942" />
<path style="fill:none;stroke:#000;stroke-width:2" d="M205,67 l-40,0" />
<path style="fill:none;stroke:#000;stroke-width:2" d="M205,106 l-40,0" />
<path style="fill:none;stroke:#000;stroke-width:2" d="M205,146 l-40,0" />
<path style="fill:none;stroke:#000;stroke-width:2" d="M205,185 l-40,0" />
<path style="fill:none;stroke:#000;stroke-width:2" d="M205,224 l-40,0" />
<path style="fill:none;stroke:#000;stroke-width:2" d="M205,263 l-40,0" />
<path style="fill:none;stroke:#000;stroke-width:2" d="M205,303 l-40,0" />
<path style="fill:none;stroke:#000;stroke-width:2" d="M205,342 l-40,0" />
<path style="fill:none;stroke:#000;stroke-width:2" d="M205,381 l-40,0" />
<path style="fill:none;stroke:#000;stroke-width:2" d="M205,420 l-40,0" />
<path style="fill:none;stroke:#000;stroke-width:2" d="M205,460 l-40,0" />
<path style="fill:none;stroke:#000;stroke-width:2" d="M205,499 l-40,0" />
<path style="fill:none;stroke:#000;stroke-width:2" d="M205,538 l-40,0" />
<path style="fill:none;stroke:#000;stroke-width:2" d="M205,578 l-40,0" />
<path style="fill:none;stroke:#000;stroke-width:2" d="M205,617 l-40,0" />
<path style="fill:none;stroke:#000;stroke-width:2" d="M205,656 l-40,0" />
<path style="fill:none;stroke:#000;stroke-width:2" d="M205,695 l-40,0" />
<path style="fill:none;stroke:#000;stroke-width:2" d="M205,735 l-40,0" />
<path style="fill:none;stroke:#000;stroke-width:2" d="M205,774 l-40,0" />
<path style="fill:none;stroke:#000;stroke-width:2" d="M205,813 l-40,0" />
<path style="fill:none;stroke:#000;stroke-width:2" d="M205,852 l-40,0" />
<path style="fill:none;stroke:#000;stroke-width:2" d="M205,892 l-40,0" />
<path style="fill:none;stroke:#000;stroke-width:2" d="M205,931 l-40,0" />
<path style="fill:#b2b2b2;stroke:#000;stroke-width:2" d="M106,97 l10,0 0,873 -10,0 0,-873z" />

</svg>
