<?xml version="1.0" encoding="utf-8" standalone="no"?><!DOCTYPE svg PUBLIC "-//W3C//DTD SVG 1.1//EN" "http://www.w3.org/Graphics/SVG/1.1/DTD/svg11-flat-20030114.dtd"><svg width="530" height="358" version="1.1" xmlns="http://www.w3.org/2000/svg" xmlns:xlink="http://www.w3.org/1999/xlink">

<path style="fill:#666;fill-rule:evenodd" d="M500,180 l-3,5 2,1 3,-5 -2,-1z M504,183 l-2,4 2,2 2,-5 -2,-1z M509,185 l-3,5 3,1 2,-4 -2,-2z M495,177 l-3,5 2,1 3,-4 -2,-2z M490,175 l-2,4 2,1 2,-4 -2,-1z M485,172 l-2,4 2,2 3,-5 -3,-1z M481,169 l-3,5 2,1 3,-5 -2,-1z M476,166 l-2,5 2,1 2,-4 -2,-2z M471,164 l-2,4 2,2 3,-5 -3,-1z M467,161 l-3,5 2,1 3,-5 -2,-1z M462,158 l-3,5 3,1 2,-4 -2,-2z M457,156 l-2,4 2,2 3,-5 -3,-1z M453,153 l-3,5 2,1 3,-5 -2,-1z M448,150 l-3,5 3,1 2,-4 -2,-2z M443,148 l-2,4 2,1 3,-4 -3,-1z M439,145 l-3,4 2,2 3,-5 -2,-1z M434,142 l-3,5 3,1 2,-5 -2,-1z M429,139 l-2,5 2,1 3,-4 -3,-2z M425,137 l-3,4 2,2 3,-5 -2,-1z M420,134 l-3,5 3,1 2,-5 -2,-1z M415,131 l-2,5 2,1 3,-4 -3,-2z M411,129 l-3,4 2,1 3,-4 -2,-1z M406,126 l-3,4 3,2 2,-5 -2,-1z M401,123 l-2,5 2,1 3,-4 -3,-2z M397,121 l-3,4 2,1 3,-4 -2,-1z M392,118 l-3,4 3,2 2,-5 -2,-1z M387,115 l-2,5 2,1 2,-5 -2,-1z M383,112 l-3,5 2,1 3,-4 -2,-2z M378,110 l-3,4 2,2 3,-5 -2,-1z M373,107 l-2,5 2,1 2,-5 -2,-1z M368,104 l-2,5 2,1 3,-4 -3,-2z M364,102 l-3,4 2,1 3,-4 -2,-1z M359,99 l-2,4 2,2 2,-5 -2,-1z M354,96 l-2,5 2,1 3,-4 -3,-2z M350,94 l-3,4 2,1 3,-4 -2,-1z M345,91 l-3,4 3,2 2,-5 -2,-1z M340,88 l-2,5 2,1 3,-5 -3,-1z M336,85 l-3,5 2,1 3,-4 -2,-2z M331,83 l-3,4 3,2 2,-5 -2,-1z M326,80 l-2,5 2,1 3,-5 -3,-1z M322,77 l-3,5 2,1 3,-4 -2,-2z M317,75 l-3,4 3,1 2,-4 -2,-1z M312,72 l-2,4 2,2 3,-5 -3,-1z M308,69 l-3,5 2,1 3,-4 -2,-2z M303,66 l-3,5 3,1 2,-4 -2,-2z M298,64 l-2,4 2,2 3,-5 -3,-1z M294,61 l-3,5 2,1 3,-5 -2,-1z M289,58 l-3,5 3,1 2,-4 -2,-2z M284,56 l-2,4 2,2 3,-5 -3,-1z M280,53 l-3,5 2,1 3,-5 -2,-1z M275,50 l-3,5 3,1 2,-4 -2,-2z M270,48 l-2,4 2,1 2,-4 -2,-1z M266,45 l-3,4 2,2 3,-5 -2,-1z M261,48 l-2,2 251,145 1,-2 -250,-145z M264,41 l-1,3 251,144 1,-2 -251,-145z " />
<path style="fill:none;stroke:#000;stroke-width:2" d="M500,180 l-3,5 2,1 3,-5 -2,-1" />
<path style="fill:none;stroke:#000;stroke-width:2" d="M504,183 l-2,4 2,2 2,-5 -2,-1" />
<path style="fill:none;stroke:#000;stroke-width:2" d="M509,185 l-3,5 3,1 2,-4 -2,-2" />
<path style="fill:none;stroke:#000;stroke-width:2" d="M495,177 l-3,5 2,1 3,-4 -2,-2" />
<path style="fill:none;stroke:#000;stroke-width:2" d="M490,175 l-2,4 2,1 2,-4 -2,-1" />
<path style="fill:none;stroke:#000;stroke-width:2" d="M485,172 l-2,4 2,2 3,-5 -3,-1" />
<path style="fill:none;stroke:#000;stroke-width:2" d="M481,169 l-3,5 2,1 3,-5 -2,-1" />
<path style="fill:none;stroke:#000;stroke-width:2" d="M476,166 l-2,5 2,1 2,-4 -2,-2" />
<path style="fill:none;stroke:#000;stroke-width:2" d="M471,164 l-2,4 2,2 3,-5 -3,-1" />
<path style="fill:none;stroke:#000;stroke-width:2" d="M467,161 l-3,5 2,1 3,-5 -2,-1" />
<path style="fill:none;stroke:#000;stroke-width:2" d="M462,158 l-3,5 3,1 2,-4 -2,-2" />
<path style="fill:none;stroke:#000;stroke-width:2" d="M457,156 l-2,4 2,2 3,-5 -3,-1" />
<path style="fill:none;stroke:#000;stroke-width:2" d="M453,153 l-3,5 2,1 3,-5 -2,-1" />
<path style="fill:none;stroke:#000;stroke-width:2" d="M448,150 l-3,5 3,1 2,-4 -2,-2" />
<path style="fill:none;stroke:#000;stroke-width:2" d="M443,148 l-2,4 2,1 3,-4 -3,-1" />
<path style="fill:none;stroke:#000;stroke-width:2" d="M439,145 l-3,4 2,2 3,-5 -2,-1" />
<path style="fill:none;stroke:#000;stroke-width:2" d="M434,142 l-3,5 3,1 2,-5 -2,-1" />
<path style="fill:none;stroke:#000;stroke-width:2" d="M429,139 l-2,5 2,1 3,-4 -3,-2" />
<path style="fill:none;stroke:#000;stroke-width:2" d="M425,137 l-3,4 2,2 3,-5 -2,-1" />
<path style="fill:none;stroke:#000;stroke-width:2" d="M420,134 l-3,5 3,1 2,-5 -2,-1" />
<path style="fill:none;stroke:#000;stroke-width:2" d="M415,131 l-2,5 2,1 3,-4 -3,-2" />
<path style="fill:none;stroke:#000;stroke-width:2" d="M411,129 l-3,4 2,1 3,-4 -2,-1" />
<path style="fill:none;stroke:#000;stroke-width:2" d="M406,126 l-3,4 3,2 2,-5 -2,-1" />
<path style="fill:none;stroke:#000;stroke-width:2" d="M401,123 l-2,5 2,1 3,-4 -3,-2" />
<path style="fill:none;stroke:#000;stroke-width:2" d="M397,121 l-3,4 2,1 3,-4 -2,-1" />
<path style="fill:none;stroke:#000;stroke-width:2" d="M392,118 l-3,4 3,2 2,-5 -2,-1" />
<path style="fill:none;stroke:#000;stroke-width:2" d="M387,115 l-2,5 2,1 2,-5 -2,-1" />
<path style="fill:none;stroke:#000;stroke-width:2" d="M383,112 l-3,5 2,1 3,-4 -2,-2" />
<path style="fill:none;stroke:#000;stroke-width:2" d="M378,110 l-3,4 2,2 3,-5 -2,-1" />
<path style="fill:none;stroke:#000;stroke-width:2" d="M373,107 l-2,5 2,1 2,-5 -2,-1" />
<path style="fill:none;stroke:#000;stroke-width:2" d="M368,104 l-2,5 2,1 3,-4 -3,-2" />
<path style="fill:none;stroke:#000;stroke-width:2" d="M364,102 l-3,4 2,1 3,-4 -2,-1" />
<path style="fill:none;stroke:#000;stroke-width:2" d="M359,99 l-2,4 2,2 2,-5 -2,-1" />
<path style="fill:none;stroke:#000;stroke-width:2" d="M354,96 l-2,5 2,1 3,-4 -3,-2" />
<path style="fill:none;stroke:#000;stroke-width:2" d="M350,94 l-3,4 2,1 3,-4 -2,-1" />
<path style="fill:none;stroke:#000;stroke-width:2" d="M345,91 l-3,4 3,2 2,-5 -2,-1" />
<path style="fill:none;stroke:#000;stroke-width:2" d="M340,88 l-2,5 2,1 3,-5 -3,-1" />
<path style="fill:none;stroke:#000;stroke-width:2" d="M336,85 l-3,5 2,1 3,-4 -2,-2" />
<path style="fill:none;stroke:#000;stroke-width:2" d="M331,83 l-3,4 3,2 2,-5 -2,-1" />
<path style="fill:none;stroke:#000;stroke-width:2" d="M326,80 l-2,5 2,1 3,-5 -3,-1" />
<path style="fill:none;stroke:#000;stroke-width:2" d="M322,77 l-3,5 2,1 3,-4 -2,-2" />
<path style="fill:none;stroke:#000;stroke-width:2" d="M317,75 l-3,4 3,1 2,-4 -2,-1" />
<path style="fill:none;stroke:#000;stroke-width:2" d="M312,72 l-2,4 2,2 3,-5 -3,-1" />
<path style="fill:none;stroke:#000;stroke-width:2" d="M308,69 l-3,5 2,1 3,-4 -2,-2" />
<path style="fill:none;stroke:#000;stroke-width:2" d="M303,66 l-3,5 3,1 2,-4 -2,-2" />
<path style="fill:none;stroke:#000;stroke-width:2" d="M298,64 l-2,4 2,2 3,-5 -3,-1" />
<path style="fill:none;stroke:#000;stroke-width:2" d="M294,61 l-3,5 2,1 3,-5 -2,-1" />
<path style="fill:none;stroke:#000;stroke-width:2" d="M289,58 l-3,5 3,1 2,-4 -2,-2" />
<path style="fill:none;stroke:#000;stroke-width:2" d="M284,56 l-2,4 2,2 3,-5 -3,-1" />
<path style="fill:none;stroke:#000;stroke-width:2" d="M280,53 l-3,5 2,1 3,-5 -2,-1" />
<path style="fill:none;stroke:#000;stroke-width:2" d="M275,50 l-3,5 3,1 2,-4 -2,-2" />
<path style="fill:none;stroke:#000;stroke-width:2" d="M270,48 l-2,4 2,1 2,-4 -2,-1" />
<path style="fill:none;stroke:#000;stroke-width:2" d="M266,45 l-3,4 2,2 3,-5 -2,-1" />
<path style="fill:none;stroke:#000;stroke-width:2" d="M261,48 l-2,2 251,145 1,-2 -250,-145" />
<path style="fill:none;stroke:#000;stroke-width:2" d="M264,41 l-1,3 251,144 1,-2 -251,-145" />
<path style="fill:#000;stroke:#000;stroke-width:2" d="M514,195 l-13,0 0,5 13,0 0,-5z" />
<path style="fill:#000" d="M511,195 l0,-11 3,0 0,11 -3,0z" />
<path style="fill:none;stroke:#000;stroke-width:2" d="M514,195 l-3,0 0,-11 3,0 0,11" />
<path style="fill:#4c4c4c;stroke:#000;stroke-width:2" d="M506,64 l-245,-49 -246,49 491,0z" />
<path style="fill:#ccc" d="M465,64 l-204,-49 245,49 -41,0z" />
<path style="fill:#e5e5e5" d="M465,64 l-43,0 -161,-49 204,49z" />
<path style="fill:#fff" d="M422,64 l-44,0 -117,-49 161,49z" />
<path style="fill:#e5e5e5" d="M378,64 l-102,0 -15,-49 117,49z" />
<path style="fill:#ccc" d="M171,64 l90,-49 15,49 -105,0z" />
<path style="fill:#b2b2b2" d="M99,64 l162,-49 -90,49 -72,0z" />
<path style="fill:#7f7f7f" d="M56,64 l205,-49 -162,49 -43,0z" />
<path style="fill:#666" d="M33,64 l228,-49 -202,49 -26,0z" />
<path style="fill:none;stroke:#000;stroke-width:2" d="M506,64 l-245,-49 -246,49 491,0" />
<path style="fill:#4c4c4c" d="M488,62 l-468,0 0,281 468,0 0,-281z" />
<path style="fill:#666" d="M495,62 l-463,0 0,281 463,0 0,-281z" />
<path style="fill:#7f7f7f" d="M495,62 l-438,0 0,281 438,0 0,-281z" />
<path style="fill:#b2b2b2" d="M495,62 l-395,0 0,281 395,0 0,-281z" />
<path style="fill:#ccc" d="M495,62 l-322,0 0,281 322,0 0,-281z" />
<path style="fill:#e5e5e5" d="M495,62 l-220,0 0,281 220,0 0,-281z" />
<path style="fill:#fff" d="M495,62 l-117,0 0,281 117,0 0,-281z" />
<path style="fill:#e5e5e5" d="M495,62 l-73,0 0,281 73,0 0,-281z" />
<path style="fill:#ccc" d="M502,62 l-37,0 0,281 37,0 0,-281z" />
<path style="fill:none;stroke:#000;stroke-width:2" d="M502,62 l-482,0 0,281 482,0 0,-281" />
<path style="fill:#666" d="M506,62 l-491,0 0,5 491,0 0,-5z" />
<path style="fill:none;stroke:#e5e5e5;stroke-width:2" d="M495,62 l11,0 0,5" />
<path style="fill:none;stroke:#e5e5e5;stroke-width:2" d="M15,62 l480,0" />
<path style="fill:none;stroke:#000;stroke-width:2" d="M506,67 l-491,0 0,-5" />
<path style="fill:none;stroke:#000;stroke-width:2" d="M501,56 l-486,0" />
<path style="fill:none;stroke:#000;stroke-width:2" d="M496,62 l0,-6" />
<path style="fill:none;stroke:#000;stroke-width:2" d="M471,62 l0,-6" />
<path style="fill:none;stroke:#000;stroke-width:2" d="M447,62 l0,-6" />
<path style="fill:none;stroke:#000;stroke-width:2" d="M422,62 l0,-6" />
<path style="fill:none;stroke:#000;stroke-width:2" d="M398,62 l0,-6" />
<path style="fill:none;stroke:#000;stroke-width:2" d="M373,62 l0,-6" />
<path style="fill:none;stroke:#000;stroke-width:2" d="M349,62 l0,-6" />
<path style="fill:none;stroke:#000;stroke-width:2" d="M324,62 l0,-6" />
<path style="fill:none;stroke:#000;stroke-width:2" d="M299,62 l0,-6" />
<path style="fill:none;stroke:#000;stroke-width:2" d="M275,62 l0,-6" />
<path style="fill:none;stroke:#000;stroke-width:2" d="M250,62 l0,-6" />
<path style="fill:none;stroke:#000;stroke-width:2" d="M226,62 l0,-6" />
<path style="fill:none;stroke:#000;stroke-width:2" d="M201,62 l0,-6" />
<path style="fill:none;stroke:#000;stroke-width:2" d="M177,62 l0,-6" />
<path style="fill:none;stroke:#000;stroke-width:2" d="M152,62 l0,-6" />
<path style="fill:none;stroke:#000;stroke-width:2" d="M128,62 l0,-6" />
<path style="fill:none;stroke:#000;stroke-width:2" d="M103,62 l0,-6" />
<path style="fill:none;stroke:#000;stroke-width:2" d="M78,62 l0,-6" />
<path style="fill:none;stroke:#000;stroke-width:2" d="M54,62 l0,-6" />
<path style="fill:none;stroke:#000;stroke-width:2" d="M29,62 l0,-6" />
<path style="fill:#7f7f7f;stroke:#000;stroke-width:2" d="M268,335 l-13,0 0,5 13,0 0,-5z" />
<path style="fill:#666;fill-rule:evenodd" d="M496,197 l3,5 2,-2 -3,-4 -2,1z M501,194 l2,5 3,-1 -3,-5 -2,1z M505,192 l3,4 2,-1 -2,-5 -3,2z M491,200 l3,4 2,-1 -2,-4 -3,1z M487,203 l2,4 2,-1 -2,-5 -2,2z M482,205 l3,5 2,-1 -3,-5 -2,1z M477,208 l3,5 2,-2 -2,-4 -3,1z M473,211 l2,4 2,-1 -2,-5 -2,2z M468,213 l3,5 2,-1 -3,-5 -2,1z M463,216 l3,5 2,-2 -3,-4 -2,1z M459,219 l2,4 2,-1 -2,-4 -2,1z M454,222 l2,4 3,-1 -3,-5 -2,2z M449,224 l3,5 2,-2 -3,-4 -2,1z M444,227 l3,4 2,-1 -2,-4 -3,1z M440,230 l2,4 3,-1 -3,-5 -2,2z M435,232 l3,5 2,-1 -3,-5 -2,1z M430,235 l3,5 2,-2 -2,-4 -3,1z M426,238 l2,4 3,-1 -3,-5 -2,2z M421,240 l3,5 2,-1 -3,-5 -2,1z M416,243 l3,5 2,-2 -2,-4 -3,1z M412,246 l2,4 3,-1 -3,-4 -2,1z M407,249 l3,4 2,-1 -3,-5 -2,2z M402,251 l3,5 2,-2 -2,-4 -3,1z M398,254 l2,4 3,-1 -3,-4 -2,1z M393,257 l3,4 2,-1 -3,-5 -2,2z M388,259 l3,5 2,-1 -2,-5 -3,1z M384,262 l2,5 3,-2 -3,-4 -2,1z M379,265 l3,4 2,-1 -3,-5 -2,2z M374,267 l3,5 2,-1 -2,-5 -3,1z M370,270 l2,5 2,-2 -2,-4 -2,1z M365,273 l3,4 2,-1 -3,-4 -2,1z M360,276 l3,4 2,-1 -2,-5 -3,2z M356,278 l2,5 2,-2 -2,-4 -2,1z M351,281 l3,4 2,-1 -3,-4 -2,1z M346,284 l3,4 2,-1 -3,-5 -2,2z M342,286 l2,5 2,-1 -2,-5 -2,1z M337,289 l2,5 3,-2 -3,-4 -2,1z M332,292 l3,4 2,-1 -3,-5 -2,2z M327,294 l3,5 2,-1 -2,-5 -3,1z M323,297 l2,5 3,-2 -3,-4 -2,1z M318,300 l3,4 2,-1 -3,-4 -2,1z M313,303 l3,4 2,-1 -2,-5 -3,2z M309,305 l2,5 3,-1 -3,-5 -2,1z M304,308 l3,5 2,-2 -3,-4 -2,1z M299,311 l3,4 2,-1 -2,-5 -3,2z M295,313 l2,5 3,-1 -3,-5 -2,1z M290,316 l3,5 2,-2 -3,-4 -2,1z M285,319 l3,4 2,-1 -2,-5 -3,2z M281,321 l2,5 3,-1 -3,-5 -2,1z M276,324 l3,5 2,-2 -3,-4 -2,1z M271,327 l3,4 2,-1 -2,-4 -3,1z M267,330 l2,4 3,-1 -3,-5 -2,2z M262,332 l3,5 2,-1 -3,-5 -2,1z M262,338 l2,2 250,-144 -1,-2 -251,144z M258,331 l2,3 250,-145 -1,-2 -251,144z " />
<path style="fill:none;stroke:#000;stroke-width:2" d="M496,197 l3,5 2,-2 -3,-4 -2,1" />
<path style="fill:none;stroke:#000;stroke-width:2" d="M501,194 l2,5 3,-1 -3,-5 -2,1" />
<path style="fill:none;stroke:#000;stroke-width:2" d="M505,192 l3,4 2,-1 -2,-5 -3,2" />
<path style="fill:none;stroke:#000;stroke-width:2" d="M491,200 l3,4 2,-1 -2,-4 -3,1" />
<path style="fill:none;stroke:#000;stroke-width:2" d="M487,203 l2,4 2,-1 -2,-5 -2,2" />
<path style="fill:none;stroke:#000;stroke-width:2" d="M482,205 l3,5 2,-1 -3,-5 -2,1" />
<path style="fill:none;stroke:#000;stroke-width:2" d="M477,208 l3,5 2,-2 -2,-4 -3,1" />
<path style="fill:none;stroke:#000;stroke-width:2" d="M473,211 l2,4 2,-1 -2,-5 -2,2" />
<path style="fill:none;stroke:#000;stroke-width:2" d="M468,213 l3,5 2,-1 -3,-5 -2,1" />
<path style="fill:none;stroke:#000;stroke-width:2" d="M463,216 l3,5 2,-2 -3,-4 -2,1" />
<path style="fill:none;stroke:#000;stroke-width:2" d="M459,219 l2,4 2,-1 -2,-4 -2,1" />
<path style="fill:none;stroke:#000;stroke-width:2" d="M454,222 l2,4 3,-1 -3,-5 -2,2" />
<path style="fill:none;stroke:#000;stroke-width:2" d="M449,224 l3,5 2,-2 -3,-4 -2,1" />
<path style="fill:none;stroke:#000;stroke-width:2" d="M444,227 l3,4 2,-1 -2,-4 -3,1" />
<path style="fill:none;stroke:#000;stroke-width:2" d="M440,230 l2,4 3,-1 -3,-5 -2,2" />
<path style="fill:none;stroke:#000;stroke-width:2" d="M435,232 l3,5 2,-1 -3,-5 -2,1" />
<path style="fill:none;stroke:#000;stroke-width:2" d="M430,235 l3,5 2,-2 -2,-4 -3,1" />
<path style="fill:none;stroke:#000;stroke-width:2" d="M426,238 l2,4 3,-1 -3,-5 -2,2" />
<path style="fill:none;stroke:#000;stroke-width:2" d="M421,240 l3,5 2,-1 -3,-5 -2,1" />
<path style="fill:none;stroke:#000;stroke-width:2" d="M416,243 l3,5 2,-2 -2,-4 -3,1" />
<path style="fill:none;stroke:#000;stroke-width:2" d="M412,246 l2,4 3,-1 -3,-4 -2,1" />
<path style="fill:none;stroke:#000;stroke-width:2" d="M407,249 l3,4 2,-1 -3,-5 -2,2" />
<path style="fill:none;stroke:#000;stroke-width:2" d="M402,251 l3,5 2,-2 -2,-4 -3,1" />
<path style="fill:none;stroke:#000;stroke-width:2" d="M398,254 l2,4 3,-1 -3,-4 -2,1" />
<path style="fill:none;stroke:#000;stroke-width:2" d="M393,257 l3,4 2,-1 -3,-5 -2,2" />
<path style="fill:none;stroke:#000;stroke-width:2" d="M388,259 l3,5 2,-1 -2,-5 -3,1" />
<path style="fill:none;stroke:#000;stroke-width:2" d="M384,262 l2,5 3,-2 -3,-4 -2,1" />
<path style="fill:none;stroke:#000;stroke-width:2" d="M379,265 l3,4 2,-1 -3,-5 -2,2" />
<path style="fill:none;stroke:#000;stroke-width:2" d="M374,267 l3,5 2,-1 -2,-5 -3,1" />
<path style="fill:none;stroke:#000;stroke-width:2" d="M370,270 l2,5 2,-2 -2,-4 -2,1" />
<path style="fill:none;stroke:#000;stroke-width:2" d="M365,273 l3,4 2,-1 -3,-4 -2,1" />
<path style="fill:none;stroke:#000;stroke-width:2" d="M360,276 l3,4 2,-1 -2,-5 -3,2" />
<path style="fill:none;stroke:#000;stroke-width:2" d="M356,278 l2,5 2,-2 -2,-4 -2,1" />
<path style="fill:none;stroke:#000;stroke-width:2" d="M351,281 l3,4 2,-1 -3,-4 -2,1" />
<path style="fill:none;stroke:#000;stroke-width:2" d="M346,284 l3,4 2,-1 -3,-5 -2,2" />
<path style="fill:none;stroke:#000;stroke-width:2" d="M342,286 l2,5 2,-1 -2,-5 -2,1" />
<path style="fill:none;stroke:#000;stroke-width:2" d="M337,289 l2,5 3,-2 -3,-4 -2,1" />
<path style="fill:none;stroke:#000;stroke-width:2" d="M332,292 l3,4 2,-1 -3,-5 -2,2" />
<path style="fill:none;stroke:#000;stroke-width:2" d="M327,294 l3,5 2,-1 -2,-5 -3,1" />
<path style="fill:none;stroke:#000;stroke-width:2" d="M323,297 l2,5 3,-2 -3,-4 -2,1" />
<path style="fill:none;stroke:#000;stroke-width:2" d="M318,300 l3,4 2,-1 -3,-4 -2,1" />
<path style="fill:none;stroke:#000;stroke-width:2" d="M313,303 l3,4 2,-1 -2,-5 -3,2" />
<path style="fill:none;stroke:#000;stroke-width:2" d="M309,305 l2,5 3,-1 -3,-5 -2,1" />
<path style="fill:none;stroke:#000;stroke-width:2" d="M304,308 l3,5 2,-2 -3,-4 -2,1" />
<path style="fill:none;stroke:#000;stroke-width:2" d="M299,311 l3,4 2,-1 -2,-5 -3,2" />
<path style="fill:none;stroke:#000;stroke-width:2" d="M295,313 l2,5 3,-1 -3,-5 -2,1" />
<path style="fill:none;stroke:#000;stroke-width:2" d="M290,316 l3,5 2,-2 -3,-4 -2,1" />
<path style="fill:none;stroke:#000;stroke-width:2" d="M285,319 l3,4 2,-1 -2,-5 -3,2" />
<path style="fill:none;stroke:#000;stroke-width:2" d="M281,321 l2,5 3,-1 -3,-5 -2,1" />
<path style="fill:none;stroke:#000;stroke-width:2" d="M276,324 l3,5 2,-2 -3,-4 -2,1" />
<path style="fill:none;stroke:#000;stroke-width:2" d="M271,327 l3,4 2,-1 -2,-4 -3,1" />
<path style="fill:none;stroke:#000;stroke-width:2" d="M267,330 l2,4 3,-1 -3,-5 -2,2" />
<path style="fill:none;stroke:#000;stroke-width:2" d="M262,332 l3,5 2,-1 -3,-5 -2,1" />
<path style="fill:none;stroke:#000;stroke-width:2" d="M262,338 l2,2 250,-144 -1,-2 -251,144" />
<path style="fill:none;stroke:#000;stroke-width:2" d="M258,331 l2,3 250,-145 -1,-2 -251,144" />
<path style="fill:#666" d="M506,339 l-491,0 0,4 491,0 0,-4z" />
<path style="fill:none;stroke:#e5e5e5;stroke-width:2" d="M495,339 l11,0 0,4" />
<path style="fill:none;stroke:#e5e5e5;stroke-width:2" d="M15,339 l480,0" />
<path style="fill:none;stroke:#000;stroke-width:2" d="M506,343 l-491,0 0,-4" />

</svg>
