<?xml version="1.0" encoding="utf-8" standalone="no"?><!DOCTYPE svg PUBLIC "-//W3C//DTD SVG 1.1//EN" "http://www.w3.org/Graphics/SVG/1.1/DTD/svg11-flat-20030114.dtd"><svg width="999" height="860" version="1.1" xmlns="http://www.w3.org/2000/svg" xmlns:xlink="http://www.w3.org/1999/xlink">

<path style="fill:#7f7f7f;stroke:#000;stroke-width:2" d="M919,353 l-878,0 0,479 878,0 0,-479z" />
<path style="fill:#7f7f7f;stroke:#000;stroke-width:2" d="M932,330 l-904,0 0,23 904,0 0,-23z" />
<path style="fill:#7f7f7f" d="M481,28 l-453,302 904,0 -451,-302z" />
<path style="fill:#999" d="M896,330 l-415,-302 -386,302 801,0z" />
<path style="fill:#999" d="M95,330 l0,23 801,0 0,-23 -801,0z" />
<path style="fill:#999" d="M883,353 l-775,0 0,479 775,0 0,-479z" />
<path style="fill:#b2b2b2" d="M851,330 l-370,-302 -289,302 659,0z" />
<path style="fill:#b2b2b2" d="M192,330 l0,23 659,0 0,-23 -659,0z" />
<path style="fill:#b2b2b2" d="M838,353 l-640,0 0,479 640,0 0,-479z" />
<path style="fill:#ccc" d="M793,330 l-312,-302 -151,302 463,0z" />
<path style="fill:#ccc" d="M780,353 l-443,0 0,479 443,0 0,-479z" />
<path style="fill:#ccc" d="M330,330 l0,23 463,0 0,-23 -463,0z" />
<path style="fill:none;stroke:#000;stroke-width:2" d="M932,330 l-451,-302 -453,302 904,0" />
<path style="fill:none;stroke:#7f7f7f;stroke-width:2" d="M780,687 l-665,0" />
<path style="fill:none;stroke:#7f7f7f;stroke-width:2" d="M523,520 l-482,0" />
<path style="fill:none;stroke:#7f7f7f;stroke-width:2" d="M919,520 l-251,0" />
<path style="fill:#666;stroke:#000;stroke-width:2" d="M883,832 l23,0 0,-77 39,0 0,77 25,0 0,-16 0,-16 0,-15 0,-461 -14,-24 -15,-8 -3,0 -93,0 38,25 49,0 13,13 0,402 -39,0 0,-354 -23,0 0,454z" />
<path style="fill:#000;stroke:#000;stroke-width:2" d="M932,304 l10,2 9,5 5,8 1,11 -12,0 -3,-8 -8,-5 -2,0 0,-13z" />
<path style="fill:#000;stroke:#000;stroke-width:2" d="M932,317 l0,-13 -68,0 19,13 49,0z" />
<path style="fill:#000;stroke:#000;stroke-width:2" d="M957,330 l-12,0 0,502 12,0 0,-502z" />
<path style="fill:#000;stroke:#000;stroke-width:2" d="M896,378 l-13,0 0,454 13,0 0,-454z" />
<path style="fill:#000" d="M896,366 l-3,0 -3,1 -2,1 -2,2 -1,1 -1,3 0,2 -1,2 13,0 0,-12z" />
<path style="fill:#000" d="M945,745 l-49,0 0,10 49,0 0,-10z" />
<path style="fill:none;stroke:#000;stroke-width:2" d="M896,378 l0,-12 -3,0 -3,1 -2,1 -2,2 -1,1 -1,3 0,2 -1,2 13,0" />
<path style="fill:none;stroke:#000;stroke-width:2" d="M945,745 l-49,0 0,10 49,0 0,-10" />

</svg>
