<?xml version="1.0" encoding="utf-8" standalone="no"?><!DOCTYPE svg PUBLIC "-//W3C//DTD SVG 1.1//EN" "http://www.w3.org/Graphics/SVG/1.1/DTD/svg11-flat-20030114.dtd"><svg width="999" height="458" version="1.1" xmlns="http://www.w3.org/2000/svg" xmlns:xlink="http://www.w3.org/1999/xlink">

<path style="fill:#666;stroke:#666;stroke-width:2" d="M970,38 l-942,0 0,392 942,0 0,-392z" />
<path style="fill:#999;stroke:#999;stroke-width:2" d="M960,38 l-887,0 0,392 887,0 0,-392z" />
<path style="fill:#b2b2b2;stroke:#b2b2b2;stroke-width:2" d="M935,38 l-764,0 0,392 764,0 0,-392z" />
<path style="fill:#ccc" d="M887,38 l-628,0 0,392 628,0 0,-392z" />
<path style="fill:#e5e5e5;stroke:#000;stroke-width:2" d="M970,28 l-942,0 0,10 942,0 0,-10z" />
<path style="fill:#999;stroke:#999;stroke-width:2" d="M950,38 l-5,0 0,392 5,0 0,-392z" />
<path style="fill:#999;stroke:#999;stroke-width:2" d="M910,38 l-3,0 0,392 3,0 0,-392z" />
<path style="fill:#999;stroke:#999;stroke-width:2" d="M872,38 l-5,0 0,392 5,0 0,-392z" />
<path style="fill:#999;stroke:#999;stroke-width:2" d="M832,38 l-5,0 0,392 5,0 0,-392z" />
<path style="fill:#999;stroke:#999;stroke-width:2" d="M794,38 l-5,0 0,392 5,0 0,-392z" />
<path style="fill:#999;stroke:#999;stroke-width:2" d="M754,38 l-5,0 0,392 5,0 0,-392z" />
<path style="fill:#999;stroke:#999;stroke-width:2" d="M714,38 l-5,0 0,392 5,0 0,-392z" />
<path style="fill:#999;stroke:#999;stroke-width:2" d="M676,38 l-5,0 0,392 5,0 0,-392z" />
<path style="fill:#999;stroke:#999;stroke-width:2" d="M636,38 l-5,0 0,392 5,0 0,-392z" />
<path style="fill:#999;stroke:#999;stroke-width:2" d="M596,38 l-3,0 0,392 3,0 0,-392z" />
<path style="fill:#999;stroke:#999;stroke-width:2" d="M558,38 l-5,0 0,392 5,0 0,-392z" />
<path style="fill:#999;stroke:#999;stroke-width:2" d="M518,38 l-5,0 0,392 5,0 0,-392z" />
<path style="fill:#999;stroke:#999;stroke-width:2" d="M480,38 l-5,0 0,392 5,0 0,-392z" />
<path style="fill:#999;stroke:#999;stroke-width:2" d="M440,38 l-5,0 0,392 5,0 0,-392z" />
<path style="fill:#999;stroke:#999;stroke-width:2" d="M400,38 l-5,0 0,392 5,0 0,-392z" />
<path style="fill:#999;stroke:#999;stroke-width:2" d="M362,38 l-5,0 0,392 5,0 0,-392z" />
<path style="fill:#999;stroke:#999;stroke-width:2" d="M322,38 l-5,0 0,392 5,0 0,-392z" />
<path style="fill:#999;stroke:#999;stroke-width:2" d="M282,38 l-3,0 0,392 3,0 0,-392z" />
<path style="fill:#999;stroke:#999;stroke-width:2" d="M244,38 l-5,0 0,392 5,0 0,-392z" />
<path style="fill:#999;stroke:#999;stroke-width:2" d="M204,38 l-5,0 0,392 5,0 0,-392z" />
<path style="fill:#999;stroke:#999;stroke-width:2" d="M166,38 l-5,0 0,392 5,0 0,-392z" />
<path style="fill:#999;stroke:#999;stroke-width:2" d="M126,38 l-5,0 0,392 5,0 0,-392z" />
<path style="fill:#999;stroke:#999;stroke-width:2" d="M86,38 l-5,0 0,392 5,0 0,-392z" />
<path style="fill:#999;stroke:#999;stroke-width:2" d="M48,38 l-5,0 0,392 5,0 0,-392z" />
<path style="fill:#b2b2b2;stroke:#b2b2b2;stroke-width:2" d="M955,38 l-5,0 0,392 5,0 0,-392z" />
<path style="fill:#b2b2b2;stroke:#b2b2b2;stroke-width:2" d="M915,38 l-3,0 0,392 3,0 0,-392z" />
<path style="fill:#b2b2b2;stroke:#b2b2b2;stroke-width:2" d="M877,38 l-5,0 0,392 5,0 0,-392z" />
<path style="fill:#b2b2b2;stroke:#b2b2b2;stroke-width:2" d="M837,38 l-5,0 0,392 5,0 0,-392z" />
<path style="fill:#b2b2b2;stroke:#b2b2b2;stroke-width:2" d="M799,38 l-5,0 0,392 5,0 0,-392z" />
<path style="fill:#b2b2b2;stroke:#b2b2b2;stroke-width:2" d="M759,38 l-5,0 0,392 5,0 0,-392z" />
<path style="fill:#b2b2b2;stroke:#b2b2b2;stroke-width:2" d="M719,38 l-5,0 0,392 5,0 0,-392z" />
<path style="fill:#b2b2b2;stroke:#b2b2b2;stroke-width:2" d="M681,38 l-5,0 0,392 5,0 0,-392z" />
<path style="fill:#b2b2b2;stroke:#b2b2b2;stroke-width:2" d="M641,38 l-5,0 0,392 5,0 0,-392z" />
<path style="fill:#b2b2b2;stroke:#b2b2b2;stroke-width:2" d="M601,38 l-3,0 0,392 3,0 0,-392z" />
<path style="fill:#b2b2b2;stroke:#b2b2b2;stroke-width:2" d="M563,38 l-5,0 0,392 5,0 0,-392z" />
<path style="fill:#b2b2b2;stroke:#b2b2b2;stroke-width:2" d="M523,38 l-5,0 0,392 5,0 0,-392z" />
<path style="fill:#b2b2b2;stroke:#b2b2b2;stroke-width:2" d="M485,38 l-5,0 0,392 5,0 0,-392z" />
<path style="fill:#b2b2b2;stroke:#b2b2b2;stroke-width:2" d="M445,38 l-5,0 0,392 5,0 0,-392z" />
<path style="fill:#b2b2b2;stroke:#b2b2b2;stroke-width:2" d="M405,38 l-5,0 0,392 5,0 0,-392z" />
<path style="fill:#b2b2b2;stroke:#b2b2b2;stroke-width:2" d="M367,38 l-5,0 0,392 5,0 0,-392z" />
<path style="fill:#b2b2b2;stroke:#b2b2b2;stroke-width:2" d="M327,38 l-5,0 0,392 5,0 0,-392z" />
<path style="fill:#b2b2b2;stroke:#b2b2b2;stroke-width:2" d="M287,38 l-3,0 0,392 3,0 0,-392z" />
<path style="fill:#b2b2b2;stroke:#b2b2b2;stroke-width:2" d="M249,38 l-5,0 0,392 5,0 0,-392z" />
<path style="fill:#b2b2b2;stroke:#b2b2b2;stroke-width:2" d="M209,38 l-5,0 0,392 5,0 0,-392z" />
<path style="fill:#b2b2b2;stroke:#b2b2b2;stroke-width:2" d="M171,38 l-5,0 0,392 5,0 0,-392z" />
<path style="fill:#b2b2b2;stroke:#b2b2b2;stroke-width:2" d="M131,38 l-5,0 0,392 5,0 0,-392z" />
<path style="fill:#b2b2b2;stroke:#b2b2b2;stroke-width:2" d="M91,38 l-5,0 0,392 5,0 0,-392z" />
<path style="fill:#b2b2b2;stroke:#b2b2b2;stroke-width:2" d="M53,38 l-5,0 0,392 5,0 0,-392z" />
<path style="fill:none;stroke:#000;stroke-width:2" d="M970,38 l-942,0 0,392 942,0 0,-392" />

</svg>
