<?xml version="1.0" encoding="utf-8" standalone="no"?><!DOCTYPE svg PUBLIC "-//W3C//DTD SVG 1.1//EN" "http://www.w3.org/Graphics/SVG/1.1/DTD/svg11-flat-20030114.dtd"><svg width="530" height="324" version="1.1" xmlns="http://www.w3.org/2000/svg" xmlns:xlink="http://www.w3.org/1999/xlink">

<path style="fill:#4c4c4c" d="M496,23 l-476,0 0,286 476,0 0,-286z" />
<path style="fill:#666" d="M503,23 l-471,0 0,286 471,0 0,-286z" />
<path style="fill:#7f7f7f" d="M503,23 l-445,0 0,286 445,0 0,-286z" />
<path style="fill:#b2b2b2" d="M503,23 l-402,0 0,286 402,0 0,-286z" />
<path style="fill:#ccc" d="M503,23 l-327,0 0,286 327,0 0,-286z" />
<path style="fill:#e5e5e5" d="M503,23 l-223,0 0,286 223,0 0,-286z" />
<path style="fill:#fff" d="M503,23 l-119,0 0,286 119,0 0,-286z" />
<path style="fill:#e5e5e5" d="M503,23 l-74,0 0,286 74,0 0,-286z" />
<path style="fill:#ccc" d="M510,23 l-37,0 0,286 37,0 0,-286z" />
<path style="fill:none;stroke:#000;stroke-width:2" d="M510,23 l-490,0 0,286 490,0 0,-286" />
<path style="fill:#666" d="M515,305 l-500,0 0,4 500,0 0,-4z" />
<path style="fill:none;stroke:#e5e5e5;stroke-width:2" d="M503,305 l12,0 0,4" />
<path style="fill:none;stroke:#e5e5e5;stroke-width:2" d="M15,305 l488,0" />
<path style="fill:none;stroke:#000;stroke-width:2" d="M515,309 l-500,0 0,-4" />
<path style="fill:#666" d="M515,23 l-500,0 0,5 500,0 0,-5z" />
<path style="fill:none;stroke:#e5e5e5;stroke-width:2" d="M503,23 l12,0 0,5" />
<path style="fill:none;stroke:#e5e5e5;stroke-width:2" d="M15,23 l488,0" />
<path style="fill:none;stroke:#000;stroke-width:2" d="M515,28 l-500,0 0,-5" />
<path style="fill:none;stroke:#000;stroke-width:2" d="M510,17 l-495,0" />
<path style="fill:none;stroke:#000;stroke-width:2" d="M504,22 l0,-5" />
<path style="fill:none;stroke:#000;stroke-width:2" d="M479,22 l0,-5" />
<path style="fill:none;stroke:#000;stroke-width:2" d="M454,22 l0,-5" />
<path style="fill:none;stroke:#000;stroke-width:2" d="M429,22 l0,-5" />
<path style="fill:none;stroke:#000;stroke-width:2" d="M404,22 l0,-5" />
<path style="fill:none;stroke:#000;stroke-width:2" d="M379,22 l0,-5" />
<path style="fill:none;stroke:#000;stroke-width:2" d="M354,22 l0,-5" />
<path style="fill:none;stroke:#000;stroke-width:2" d="M329,22 l0,-5" />
<path style="fill:none;stroke:#000;stroke-width:2" d="M304,22 l0,-5" />
<path style="fill:none;stroke:#000;stroke-width:2" d="M279,22 l0,-5" />
<path style="fill:none;stroke:#000;stroke-width:2" d="M254,22 l0,-5" />
<path style="fill:none;stroke:#000;stroke-width:2" d="M229,22 l0,-5" />
<path style="fill:none;stroke:#000;stroke-width:2" d="M204,22 l0,-5" />
<path style="fill:none;stroke:#000;stroke-width:2" d="M179,22 l0,-5" />
<path style="fill:none;stroke:#000;stroke-width:2" d="M154,22 l0,-5" />
<path style="fill:none;stroke:#000;stroke-width:2" d="M129,22 l0,-5" />
<path style="fill:none;stroke:#000;stroke-width:2" d="M104,22 l0,-5" />
<path style="fill:none;stroke:#000;stroke-width:2" d="M79,22 l0,-5" />
<path style="fill:none;stroke:#000;stroke-width:2" d="M54,22 l0,-5" />
<path style="fill:none;stroke:#000;stroke-width:2" d="M29,22 l0,-5" />
<path style="fill:#666;stroke:#000;stroke-width:2" d="M489,31 l5,0 0,-2 -5,0 0,2z" />
<path style="fill:#666;stroke:#000;stroke-width:2" d="M489,26 l5,0 0,-3 -5,0 0,3z" />
<path style="fill:#666;stroke:#000;stroke-width:2" d="M489,20 l5,0 0,-2 -5,0 0,2z" />
<path style="fill:#666;stroke:#000;stroke-width:2" d="M489,37 l5,0 0,-3 -5,0 0,3z" />
<path style="fill:#666;stroke:#000;stroke-width:2" d="M489,42 l5,0 0,-2 -5,0 0,2z" />
<path style="fill:#666;stroke:#000;stroke-width:2" d="M489,48 l5,0 0,-3 -5,0 0,3z" />
<path style="fill:#666;stroke:#000;stroke-width:2" d="M489,53 l5,0 0,-2 -5,0 0,2z" />
<path style="fill:#666;stroke:#000;stroke-width:2" d="M489,59 l5,0 0,-3 -5,0 0,3z" />
<path style="fill:#666;stroke:#000;stroke-width:2" d="M489,64 l5,0 0,-2 -5,0 0,2z" />
<path style="fill:#666;stroke:#000;stroke-width:2" d="M489,70 l5,0 0,-3 -5,0 0,3z" />
<path style="fill:#666;stroke:#000;stroke-width:2" d="M489,75 l5,0 0,-2 -5,0 0,2z" />
<path style="fill:#666;stroke:#000;stroke-width:2" d="M489,81 l5,0 0,-3 -5,0 0,3z" />
<path style="fill:#666;stroke:#000;stroke-width:2" d="M489,86 l5,0 0,-2 -5,0 0,2z" />
<path style="fill:#666;stroke:#000;stroke-width:2" d="M489,92 l5,0 0,-3 -5,0 0,3z" />
<path style="fill:#666;stroke:#000;stroke-width:2" d="M489,97 l5,0 0,-2 -5,0 0,2z" />
<path style="fill:#666;stroke:#000;stroke-width:2" d="M489,103 l5,0 0,-3 -5,0 0,3z" />
<path style="fill:#666;stroke:#000;stroke-width:2" d="M489,108 l5,0 0,-2 -5,0 0,2z" />
<path style="fill:#666;stroke:#000;stroke-width:2" d="M489,114 l5,0 0,-3 -5,0 0,3z" />
<path style="fill:#666;stroke:#000;stroke-width:2" d="M489,119 l5,0 0,-2 -5,0 0,2z" />
<path style="fill:#666;stroke:#000;stroke-width:2" d="M489,125 l5,0 0,-3 -5,0 0,3z" />
<path style="fill:#666;stroke:#000;stroke-width:2" d="M489,130 l5,0 0,-2 -5,0 0,2z" />
<path style="fill:#666;stroke:#000;stroke-width:2" d="M489,136 l5,0 0,-3 -5,0 0,3z" />
<path style="fill:#666;stroke:#000;stroke-width:2" d="M489,141 l5,0 0,-2 -5,0 0,2z" />
<path style="fill:#666;stroke:#000;stroke-width:2" d="M489,147 l5,0 0,-3 -5,0 0,3z" />
<path style="fill:#666;stroke:#000;stroke-width:2" d="M489,152 l5,0 0,-2 -5,0 0,2z" />
<path style="fill:#666;stroke:#000;stroke-width:2" d="M489,158 l5,0 0,-3 -5,0 0,3z" />
<path style="fill:#666;stroke:#000;stroke-width:2" d="M489,163 l5,0 0,-2 -5,0 0,2z" />
<path style="fill:#666;stroke:#000;stroke-width:2" d="M489,169 l5,0 0,-3 -5,0 0,3z" />
<path style="fill:#666;stroke:#000;stroke-width:2" d="M489,174 l5,0 0,-2 -5,0 0,2z" />
<path style="fill:#666;stroke:#000;stroke-width:2" d="M489,180 l5,0 0,-3 -5,0 0,3z" />
<path style="fill:#666;stroke:#000;stroke-width:2" d="M489,185 l5,0 0,-2 -5,0 0,2z" />
<path style="fill:#666;stroke:#000;stroke-width:2" d="M489,191 l5,0 0,-3 -5,0 0,3z" />
<path style="fill:#666;stroke:#000;stroke-width:2" d="M489,196 l5,0 0,-2 -5,0 0,2z" />
<path style="fill:#666;stroke:#000;stroke-width:2" d="M489,202 l5,0 0,-3 -5,0 0,3z" />
<path style="fill:#666;stroke:#000;stroke-width:2" d="M489,207 l5,0 0,-2 -5,0 0,2z" />
<path style="fill:#666;stroke:#000;stroke-width:2" d="M489,213 l5,0 0,-3 -5,0 0,3z" />
<path style="fill:#666;stroke:#000;stroke-width:2" d="M489,218 l5,0 0,-2 -5,0 0,2z" />
<path style="fill:#666;stroke:#000;stroke-width:2" d="M489,224 l5,0 0,-3 -5,0 0,3z" />
<path style="fill:#666;stroke:#000;stroke-width:2" d="M489,229 l5,0 0,-2 -5,0 0,2z" />
<path style="fill:#666;stroke:#000;stroke-width:2" d="M489,235 l5,0 0,-3 -5,0 0,3z" />
<path style="fill:#666;stroke:#000;stroke-width:2" d="M489,240 l5,0 0,-2 -5,0 0,2z" />
<path style="fill:#666;stroke:#000;stroke-width:2" d="M489,246 l5,0 0,-3 -5,0 0,3z" />
<path style="fill:#666;stroke:#000;stroke-width:2" d="M489,251 l5,0 0,-2 -5,0 0,2z" />
<path style="fill:#666;stroke:#000;stroke-width:2" d="M489,257 l5,0 0,-3 -5,0 0,3z" />
<path style="fill:#666;stroke:#000;stroke-width:2" d="M489,262 l5,0 0,-2 -5,0 0,2z" />
<path style="fill:#666;stroke:#000;stroke-width:2" d="M489,268 l5,0 0,-3 -5,0 0,3z" />
<path style="fill:#666;stroke:#000;stroke-width:2" d="M489,273 l5,0 0,-2 -5,0 0,2z" />
<path style="fill:#666;stroke:#000;stroke-width:2" d="M489,279 l5,0 0,-3 -5,0 0,3z" />
<path style="fill:#666;stroke:#000;stroke-width:2" d="M489,284 l5,0 0,-2 -5,0 0,2z" />
<path style="fill:#666;stroke:#000;stroke-width:2" d="M489,290 l5,0 0,-3 -5,0 0,3z" />
<path style="fill:#666;stroke:#000;stroke-width:2" d="M489,295 l5,0 0,-2 -5,0 0,2z" />
<path style="fill:#666;stroke:#000;stroke-width:2" d="M489,301 l5,0 0,-3 -5,0 0,3z" />
<path style="fill:#666;stroke:#000;stroke-width:2" d="M489,306 l5,0 0,-2 -5,0 0,2z" />
<path style="fill:#666;stroke:#000;stroke-width:2" d="M494,309 l3,0 0,-294 -3,0 0,294z" />
<path style="fill:#666;stroke:#000;stroke-width:2" d="M486,309 l3,0 0,-294 -3,0 0,294z" />

</svg>
