<?xml version="1.0" encoding="utf-8" standalone="no"?><!DOCTYPE svg PUBLIC "-//W3C//DTD SVG 1.1//EN" "http://www.w3.org/Graphics/SVG/1.1/DTD/svg11-flat-20030114.dtd"><svg width="999" height="980" version="1.1" xmlns="http://www.w3.org/2000/svg" xmlns:xlink="http://www.w3.org/1999/xlink">

<path style="fill:#999;stroke:#000;stroke-width:2" d="M77,84 l0,-11 79,0 7,5 0,3 0,3 -86,0z" />
<path style="fill:#999;stroke:#000;stroke-width:2" d="M311,84 l0,-11 79,0 8,2 3,6 0,3 -90,0z" />
<path style="fill:#999;stroke:#000;stroke-width:2" d="M548,84 l0,-11 79,0 7,5 1,3 0,3 -87,0z" />
<path style="fill:#999;stroke:#000;stroke-width:2" d="M782,84 l0,-11 79,0 8,2 3,6 0,3 -90,0z" />
<path style="fill:#e5e5e5;stroke:#000;stroke-width:2" d="M212,84 l0,-1 0,1 5,-9 7,-2 38,0 0,-45 -234,0 0,45 4,0 124,0 7,5 0,3 0,3 49,0z" />
<path style="fill:#e5e5e5;stroke:#000;stroke-width:2" d="M450,84 l0,-1 0,1 3,-9 8,-2 38,0 0,-45 -237,0 0,45 4,0 124,0 8,2 3,6 0,3 49,0z" />
<path style="fill:#e5e5e5;stroke:#000;stroke-width:2" d="M684,84 l0,-1 0,1 4,-9 7,-2 38,0 0,-45 -234,0 0,45 4,0 124,0 7,5 1,3 0,3 49,0z" />
<path style="fill:#e5e5e5;stroke:#000;stroke-width:2" d="M921,84 l0,-1 0,1 3,-9 9,-2 37,0 0,-45 -237,0 0,45 4,0 124,0 8,2 3,6 0,3 49,0z" />
<path style="fill:none;stroke:#000;stroke-width:2" d="M970,96 l-234,0 0,856 234,0 0,-856" />
<path style="fill:#4c4c4c;stroke:#000;stroke-width:2" d="M970,84 l-237,0 0,12 237,0 0,-12z" />
<path style="fill:#4c4c4c;stroke:#000;stroke-width:2" d="M733,84 l-234,0 0,12 234,0 0,-12z" />
<path style="fill:#4c4c4c;stroke:#000;stroke-width:2" d="M499,84 l-237,0 0,12 237,0 0,-12z" />
<path style="fill:#4c4c4c;stroke:#000;stroke-width:2" d="M262,84 l-234,0 0,12 234,0 0,-12z" />
<path style="fill:none;stroke:#000;stroke-width:2" d="M733,96 l-234,0 0,856 234,0 0,-856" />
<path style="fill:none;stroke:#000;stroke-width:2" d="M499,96 l-234,0 0,856 234,0 0,-856" />
<path style="fill:#b2b2b2" d="M262,952 l-8,0 0,-856 8,0 0,856z" />
<path style="fill:#b2b2b2" d="M103,952 l-38,0 0,-856 38,0 0,856z" />
<path style="fill:#b2b2b2" d="M499,952 l-11,0 0,-856 11,0 0,856z" />
<path style="fill:#b2b2b2" d="M337,952 l-34,0 0,-856 34,0 0,856z" />
<path style="fill:#b2b2b2" d="M733,952 l-8,0 0,-856 8,0 0,856z" />
<path style="fill:#b2b2b2" d="M574,952 l-37,0 0,-856 37,0 0,856z" />
<path style="fill:#b2b2b2" d="M970,952 l-11,0 0,-856 11,0 0,856z" />
<path style="fill:#b2b2b2" d="M808,952 l-34,0 0,-856 34,0 0,856z" />
<path style="fill:#e5e5e5" d="M239,952 l-76,0 0,-856 76,0 0,856z" />
<path style="fill:#e5e5e5" d="M473,952 l-72,0 0,-856 72,0 0,856z" />
<path style="fill:#e5e5e5" d="M710,952 l-75,0 0,-856 75,0 0,856z" />
<path style="fill:#e5e5e5" d="M944,952 l-72,0 0,-856 72,0 0,856z" />
<path style="fill:#ccc" d="M163,952 l-60,0 0,-856 60,0 0,856z" />
<path style="fill:#ccc" d="M254,952 l-15,0 0,-856 15,0 0,856z" />
<path style="fill:#ccc" d="M401,952 l-64,0 0,-856 64,0 0,856z" />
<path style="fill:#ccc" d="M488,952 l-15,0 0,-856 15,0 0,856z" />
<path style="fill:#ccc" d="M635,952 l-61,0 0,-856 61,0 0,856z" />
<path style="fill:#ccc" d="M725,952 l-15,0 0,-856 15,0 0,856z" />
<path style="fill:#ccc" d="M872,952 l-64,0 0,-856 64,0 0,856z" />
<path style="fill:#ccc" d="M959,952 l-15,0 0,-856 15,0 0,856z" />
<path style="fill:#999" d="M65,952 l-22,0 0,-856 22,0 0,856z" />
<path style="fill:#999" d="M303,952 l-27,0 0,-856 27,0 0,856z" />
<path style="fill:#999" d="M537,952 l-23,0 0,-856 23,0 0,856z" />
<path style="fill:#999" d="M774,952 l-26,0 0,-856 26,0 0,856z" />
<path style="fill:#666" d="M43,952 l-15,0 0,-856 15,0 0,856z" />
<path style="fill:#666" d="M276,952 l-14,0 0,-856 14,0 0,856z" />
<path style="fill:#666" d="M514,952 l-15,0 0,-856 15,0 0,856z" />
<path style="fill:#666" d="M748,952 l-15,0 0,-856 15,0 0,856z" />
<path style="fill:#7f7f7f" d="M733,96 l237,0 -237,30 0,-30z" />
<path style="fill:#7f7f7f" d="M499,96 l234,0 -234,30 0,-30z" />
<path style="fill:#7f7f7f" d="M262,96 l237,0 -237,30 0,-30z" />
<path style="fill:#7f7f7f" d="M28,96 l234,0 -234,30 0,-30z" />
<path style="fill:#b2b2b2" d="M178,84 l0,-11 84,0 0,-15 -234,0 0,15 128,0 7,5 0,6 15,0z" />
<path style="fill:#b2b2b2" d="M416,84 l0,-11 83,0 0,-15 -237,0 0,15 128,0 8,2 3,9 15,0z" />
<path style="fill:#b2b2b2" d="M650,84 l0,-11 83,0 0,-15 -234,0 0,15 128,0 7,5 1,6 15,0z" />
<path style="fill:#b2b2b2" d="M887,84 l0,-11 83,0 0,-15 -237,0 0,15 128,0 8,2 3,9 15,0z" />
<path style="fill:none;stroke:#000;stroke-width:2" d="M212,84 l0,-1 0,1 5,-9 7,-2 38,0 0,-45 -234,0 0,45 4,0 124,0 7,5 0,3 0,3 49,0" />
<path style="fill:none;stroke:#000;stroke-width:2" d="M450,84 l0,-1 0,1 3,-9 8,-2 38,0 0,-45 -237,0 0,45 4,0 124,0 8,2 3,6 0,3 49,0" />
<path style="fill:none;stroke:#000;stroke-width:2" d="M684,84 l0,-1 0,1 4,-9 7,-2 38,0 0,-45 -234,0 0,45 4,0 124,0 7,5 1,3 0,3 49,0" />
<path style="fill:none;stroke:#000;stroke-width:2" d="M921,84 l0,-1 0,1 3,-9 9,-2 37,0 0,-45 -237,0 0,45 4,0 124,0 8,2 3,6 0,3 49,0" />
<path style="fill:none;stroke:#000;stroke-width:2" d="M262,84 l-234,0 0,868 234,0 0,-868" />
<path style="fill:none;stroke:#000;stroke-width:2" d="M499,84 l-237,0 0,868 237,0 0,-868" />
<path style="fill:none;stroke:#000;stroke-width:2" d="M733,84 l-234,0 0,868 234,0 0,-868" />
<path style="fill:none;stroke:#000;stroke-width:2" d="M970,84 l-237,0 0,868 237,0 0,-868" />

</svg>
