<?xml version="1.0" encoding="utf-8" standalone="no"?><!DOCTYPE svg PUBLIC "-//W3C//DTD SVG 1.1//EN" "http://www.w3.org/Graphics/SVG/1.1/DTD/svg11-flat-20030114.dtd"><svg width="569" height="999" version="1.1" xmlns="http://www.w3.org/2000/svg" xmlns:xlink="http://www.w3.org/1999/xlink">

<path style="fill:#4c4c4c;stroke:#000;stroke-width:2" d="M435,163 l-113,34 -76,0 -113,-34 302,0z" />
<path style="fill:#999;stroke:#000;stroke-width:2" d="M435,69 l0,91 -302,0 0,-91 151,-41 151,41z" />
<path style="fill:#ccc;stroke:#000;stroke-width:2" d="M540,933 l0,-736 -18,-19 -25,-8 -28,-4 -27,-2 -5,-1 -6,0 -32,2 -29,4 -26,8 -22,17 0,2 0,1 0,736 16,20 24,9 27,6 31,2 6,0 5,0 33,-1 28,-5 27,-8 20,-17 1,-4 0,-2z" />
<path style="fill:#ccc;stroke:#000;stroke-width:2" d="M246,933 l0,-736 -18,-19 -26,-8 -27,-4 -27,-2 -5,-1 -6,0 -32,2 -29,4 -27,8 -21,17 0,2 0,1 0,736 16,20 23,9 28,6 31,2 5,0 6,0 33,-1 28,-5 27,-8 20,-17 1,-4 0,-2z" />
<path style="fill:#e5e5e5" d="M246,933 l0,-736 -19,-18 -18,-8 0,792 24,-12 13,-18z" />
<path style="fill:#e5e5e5" d="M540,933 l0,-736 -19,-18 -18,-8 0,792 24,-12 13,-18z" />
<path style="fill:#b2b2b2" d="M322,933 l0,-736 19,-20 15,-6 0,792 -23,-12 -11,-18z" />
<path style="fill:#b2b2b2" d="M28,933 l0,-736 19,-20 15,-6 0,792 -23,-12 -11,-18z" />
<path style="fill:#b2b2b2" d="M322,197 l-76,0 0,747 76,0 0,-747z" />
<path style="fill:none;stroke:#000;stroke-width:2" d="M540,933 l0,-736 -18,-19 -25,-8 -28,-4 -27,-2 -5,-1 -6,0 -32,2 -29,4 -26,8 -22,17 0,2 0,1 0,736 16,20 24,9 27,6 31,2 6,0 5,0 33,-1 28,-5 27,-8 20,-17 1,-4 0,-2" />
<path style="fill:none;stroke:#000;stroke-width:2" d="M246,933 l0,-736 -18,-19 -26,-8 -27,-4 -27,-2 -5,-1 -6,0 -32,2 -29,4 -27,8 -21,17 0,2 0,1 0,736 16,20 23,9 28,6 31,2 5,0 6,0 33,-1 28,-5 27,-8 20,-17 1,-4 0,-2" />
<path style="fill:none;stroke:#000;stroke-width:2" d="M322,197 l-76,0 0,747 76,0 0,-747" />
<path style="fill:none;stroke:#000;stroke-width:2" d="M54,152 l0,23" />
<path style="fill:none;stroke:#000;stroke-width:2" d="M103,145 l0,18" />
<path style="fill:none;stroke:#000;stroke-width:2" d="M148,141 l0,22" />
<path style="fill:none;stroke:#000;stroke-width:2" d="M197,141 l0,22" />
<path style="fill:none;stroke:#000;stroke-width:2" d="M246,141 l0,22" />
<path style="fill:none;stroke:#000;stroke-width:2" d="M28,197 l0,-15" />
<path style="fill:#b2b2b2;stroke:#000;stroke-width:2" d="M133,967 l-22,0 0,-46 22,0 0,46z" />
<path style="fill:#b2b2b2;stroke:#000;stroke-width:2" d="M431,967 l-22,0 0,-46 22,0 0,46z" />
<path style="fill:#b2b2b2;stroke:#000;stroke-width:2" d="M209,160 l-23,0 0,-46 23,0 0,46z" />
<path style="fill:#7f7f7f;stroke:#000;stroke-width:2" d="M454,967 l-23,0 0,-46 23,0 0,46z" />
<path style="fill:#7f7f7f;stroke:#000;stroke-width:2" d="M156,967 l-23,0 0,-46 23,0 0,46z" />
<path style="fill:#7f7f7f;stroke:#000;stroke-width:2" d="M231,160 l-22,0 0,-46 22,0 0,46z" />
<path style="fill:#666;stroke:#000;stroke-width:2" d="M28,194 l3,-9 8,-6 7,-4 10,-4 11,-4 9,-2 9,-1 10,-2 10,-1 10,-1 11,0 5,0 6,0 109,0 0,3 -109,0 -11,1 -11,0 -10,1 -10,1 -10,1 -9,2 -9,2 -11,3 -10,4 -7,5 -8,6 -3,7 0,1 0,-3z" />
<path style="fill:none;stroke:#000;stroke-width:2" d="M28,179 l3,-10 8,-8 7,-4 10,-4 11,-4 9,-2 9,-2 10,-1 10,-2 10,-1 11,0 5,0 6,0 109,0 0,7 -109,0 -11,1 -11,0 -10,1 -10,2 -10,1 -9,2 -9,3 -11,3 -10,5 -7,5 -8,6 -3,7 0,2 0,-7" />

</svg>
