<?xml version="1.0" encoding="utf-8" standalone="no"?><!DOCTYPE svg PUBLIC "-//W3C//DTD SVG 1.1//EN" "http://www.w3.org/Graphics/SVG/1.1/DTD/svg11-flat-20030114.dtd"><svg width="999" height="526" version="1.1" xmlns="http://www.w3.org/2000/svg" xmlns:xlink="http://www.w3.org/1999/xlink">

<path style="fill:#666;stroke:#000;stroke-width:2" d="M970,65 l-40,0 0,11 40,0 0,-11z" />
<path style="fill:#666" d="M930,65 l-902,0 0,11 902,0 0,-11z" />
<path style="fill:#999" d="M922,65 l-864,0 0,11 864,0 0,-11z" />
<path style="fill:#999" d="M930,76 l-902,0 0,422 902,0 0,-422z" />
<path style="fill:#b2b2b2" d="M902,65 l-796,0 0,11 796,0 0,-11z" />
<path style="fill:#b2b2b2" d="M922,76 l-864,0 0,422 864,0 0,-422z" />
<path style="fill:#ccc" d="M872,65 l-696,0 0,11 696,0 0,-11z" />
<path style="fill:#ccc" d="M902,76 l-796,0 0,422 796,0 0,-422z" />
<path style="fill:none;stroke:#000;stroke-width:2" d="M930,65 l-902,0 0,433 902,0 0,-433" />
<path style="fill:#e5e5e5" d="M872,76 l-696,0 0,422 696,0 0,-422z" />
<path style="fill:none;stroke:#999;stroke-width:2" d="M930,106 l-902,0" />
<path style="fill:none;stroke:#999;stroke-width:2" d="M930,143 l-902,0" />
<path style="fill:none;stroke:#999;stroke-width:2" d="M930,184 l-902,0" />
<path style="fill:none;stroke:#999;stroke-width:2" d="M930,224 l-902,0" />
<path style="fill:none;stroke:#999;stroke-width:2" d="M930,262 l-902,0" />
<path style="fill:none;stroke:#999;stroke-width:2" d="M930,302 l-902,0" />
<path style="fill:none;stroke:#999;stroke-width:2" d="M930,342 l-902,0" />
<path style="fill:none;stroke:#999;stroke-width:2" d="M930,380 l-902,0" />
<path style="fill:none;stroke:#999;stroke-width:2" d="M930,420 l-902,0" />
<path style="fill:none;stroke:#999;stroke-width:2" d="M930,458 l-902,0" />
<path style="fill:none;stroke:#000;stroke-width:2" d="M842,106 l-20,0" />
<path style="fill:none;stroke:#000;stroke-width:2" d="M842,143 l-20,0" />
<path style="fill:none;stroke:#000;stroke-width:2" d="M842,184 l-20,0" />
<path style="fill:none;stroke:#000;stroke-width:2" d="M842,224 l-20,0" />
<path style="fill:none;stroke:#000;stroke-width:2" d="M842,262 l-20,0" />
<path style="fill:none;stroke:#000;stroke-width:2" d="M842,302 l-20,0" />
<path style="fill:none;stroke:#000;stroke-width:2" d="M842,342 l-20,0" />
<path style="fill:none;stroke:#000;stroke-width:2" d="M842,380 l-20,0" />
<path style="fill:none;stroke:#000;stroke-width:2" d="M842,420 l-20,0" />
<path style="fill:none;stroke:#000;stroke-width:2" d="M842,458 l-20,0" />
<path style="fill:none;stroke:#000;stroke-width:2" d="M608,106 l-20,0" />
<path style="fill:none;stroke:#000;stroke-width:2" d="M608,143 l-20,0" />
<path style="fill:none;stroke:#000;stroke-width:2" d="M608,184 l-20,0" />
<path style="fill:none;stroke:#000;stroke-width:2" d="M608,224 l-20,0" />
<path style="fill:none;stroke:#000;stroke-width:2" d="M608,262 l-20,0" />
<path style="fill:none;stroke:#000;stroke-width:2" d="M608,302 l-20,0" />
<path style="fill:none;stroke:#000;stroke-width:2" d="M608,342 l-20,0" />
<path style="fill:none;stroke:#000;stroke-width:2" d="M608,380 l-20,0" />
<path style="fill:none;stroke:#000;stroke-width:2" d="M608,420 l-20,0" />
<path style="fill:none;stroke:#000;stroke-width:2" d="M608,458 l-20,0" />
<path style="fill:none;stroke:#000;stroke-width:2" d="M372,106 l-20,0" />
<path style="fill:none;stroke:#000;stroke-width:2" d="M372,143 l-20,0" />
<path style="fill:none;stroke:#000;stroke-width:2" d="M372,184 l-20,0" />
<path style="fill:none;stroke:#000;stroke-width:2" d="M372,224 l-20,0" />
<path style="fill:none;stroke:#000;stroke-width:2" d="M372,262 l-20,0" />
<path style="fill:none;stroke:#000;stroke-width:2" d="M372,302 l-20,0" />
<path style="fill:none;stroke:#000;stroke-width:2" d="M372,342 l-20,0" />
<path style="fill:none;stroke:#000;stroke-width:2" d="M372,380 l-20,0" />
<path style="fill:none;stroke:#000;stroke-width:2" d="M372,420 l-20,0" />
<path style="fill:none;stroke:#000;stroke-width:2" d="M372,458 l-20,0" />
<path style="fill:none;stroke:#000;stroke-width:2" d="M136,106 l-20,0" />
<path style="fill:none;stroke:#000;stroke-width:2" d="M136,143 l-20,0" />
<path style="fill:none;stroke:#000;stroke-width:2" d="M136,184 l-20,0" />
<path style="fill:none;stroke:#000;stroke-width:2" d="M136,224 l-20,0" />
<path style="fill:none;stroke:#000;stroke-width:2" d="M136,262 l-20,0" />
<path style="fill:none;stroke:#000;stroke-width:2" d="M136,302 l-20,0" />
<path style="fill:none;stroke:#000;stroke-width:2" d="M136,342 l-20,0" />
<path style="fill:none;stroke:#000;stroke-width:2" d="M136,380 l-20,0" />
<path style="fill:none;stroke:#000;stroke-width:2" d="M136,420 l-20,0" />
<path style="fill:none;stroke:#000;stroke-width:2" d="M136,458 l-20,0" />
<path style="fill:none;stroke:#000;stroke-width:2" d="M970,65 l0,-37" />
<path style="fill:none;stroke:#000;stroke-width:2" d="M892,65 l0,-37" />
<path style="fill:none;stroke:#000;stroke-width:2" d="M814,65 l0,-37" />
<path style="fill:none;stroke:#000;stroke-width:2" d="M734,65 l0,-37" />
<path style="fill:none;stroke:#000;stroke-width:2" d="M656,65 l0,-37" />
<path style="fill:none;stroke:#000;stroke-width:2" d="M578,65 l0,-37" />
<path style="fill:none;stroke:#000;stroke-width:2" d="M500,65 l0,-37" />
<path style="fill:none;stroke:#000;stroke-width:2" d="M420,65 l0,-37" />
<path style="fill:none;stroke:#000;stroke-width:2" d="M342,65 l0,-37" />
<path style="fill:none;stroke:#000;stroke-width:2" d="M264,65 l0,-37" />
<path style="fill:none;stroke:#000;stroke-width:2" d="M186,65 l0,-37" />
<path style="fill:none;stroke:#000;stroke-width:2" d="M106,65 l0,-37" />
<path style="fill:none;stroke:#000;stroke-width:2" d="M28,65 l0,-37" />
<path style="fill:none;stroke:#000;stroke-width:2" d="M970,28 l-942,0" />
<path style="fill:none;stroke:#000;stroke-width:2" d="M970,45 l-942,0" />
<path style="fill:none;stroke:#000;stroke-width:2" d="M930,262 l3,-8 4,-9 5,-10 5,-11 4,-8 3,-10 3,-11 3,-12 3,-13 2,-15 2,-17 1,-9 1,-10 0,-10 1,-11 0,-11 0,-11 -2,0 -35,0 -3,0 0,5 0,175 0,6" />
<path style="fill:none;stroke:#000;stroke-width:2" d="M970,81 l-40,0" />
<path style="fill:none;stroke:#000;stroke-width:2" d="M970,86 l-40,0" />
<path style="fill:none;stroke:#000;stroke-width:2" d="M970,91 l-40,0" />
<path style="fill:none;stroke:#000;stroke-width:2" d="M970,96 l-40,0" />
<path style="fill:none;stroke:#000;stroke-width:2" d="M970,101 l-40,0" />
<path style="fill:none;stroke:#000;stroke-width:2" d="M970,106 l-40,0" />
<path style="fill:none;stroke:#000;stroke-width:2" d="M970,111 l-40,0" />
<path style="fill:none;stroke:#000;stroke-width:2" d="M970,116 l-40,0" />
<path style="fill:none;stroke:#000;stroke-width:2" d="M970,121 l-40,0" />
<path style="fill:none;stroke:#000;stroke-width:2" d="M968,126 l-38,0" />
<path style="fill:none;stroke:#000;stroke-width:2" d="M968,131 l-38,0" />
<path style="fill:none;stroke:#000;stroke-width:2" d="M968,136 l-38,0" />
<path style="fill:none;stroke:#000;stroke-width:2" d="M968,141 l-38,0" />
<path style="fill:none;stroke:#000;stroke-width:2" d="M968,146 l-38,0" />
<path style="fill:none;stroke:#000;stroke-width:2" d="M968,151 l-38,0" />
<path style="fill:none;stroke:#000;stroke-width:2" d="M965,156 l-35,0" />
<path style="fill:none;stroke:#000;stroke-width:2" d="M965,161 l-35,0" />
<path style="fill:none;stroke:#000;stroke-width:2" d="M965,166 l-35,0" />
<path style="fill:none;stroke:#000;stroke-width:2" d="M963,171 l-33,0" />
<path style="fill:none;stroke:#000;stroke-width:2" d="M963,176 l-33,0" />
<path style="fill:none;stroke:#000;stroke-width:2" d="M960,181 l-30,0" />
<path style="fill:none;stroke:#000;stroke-width:2" d="M960,186 l-30,0" />
<path style="fill:none;stroke:#000;stroke-width:2" d="M958,191 l-28,0" />
<path style="fill:none;stroke:#000;stroke-width:2" d="M958,196 l-28,0" />
<path style="fill:none;stroke:#000;stroke-width:2" d="M955,201 l-25,0" />
<path style="fill:none;stroke:#000;stroke-width:2" d="M955,206 l-25,0" />
<path style="fill:none;stroke:#000;stroke-width:2" d="M953,211 l-23,0" />
<path style="fill:none;stroke:#000;stroke-width:2" d="M950,216 l-20,0" />
<path style="fill:none;stroke:#000;stroke-width:2" d="M950,221 l-20,0" />
<path style="fill:none;stroke:#000;stroke-width:2" d="M948,226 l-18,0" />
<path style="fill:none;stroke:#000;stroke-width:2" d="M945,231 l-15,0" />
<path style="fill:none;stroke:#000;stroke-width:2" d="M943,236 l-13,0" />
<path style="fill:none;stroke:#000;stroke-width:2" d="M940,241 l-10,0" />
<path style="fill:none;stroke:#000;stroke-width:2" d="M938,246 l-8,0" />
<path style="fill:none;stroke:#000;stroke-width:2" d="M935,251 l-5,0" />
<path style="fill:none;stroke:#000;stroke-width:2" d="M933,256 l-3,0" />

</svg>
