<?xml version="1.0" encoding="utf-8" standalone="no"?><!DOCTYPE svg PUBLIC "-//W3C//DTD SVG 1.1//EN" "http://www.w3.org/Graphics/SVG/1.1/DTD/svg11-flat-20030114.dtd"><svg width="261" height="530" version="1.1" xmlns="http://www.w3.org/2000/svg" xmlns:xlink="http://www.w3.org/1999/xlink">

<path style="fill:none;stroke:#000;stroke-width:2" d="M24,30 l0,-9" />
<path style="fill:none;stroke:#000;stroke-width:2" d="M46,30 l0,-9" />
<path style="fill:none;stroke:#000;stroke-width:2" d="M67,30 l0,-9" />
<path style="fill:none;stroke:#000;stroke-width:2" d="M88,30 l0,-9" />
<path style="fill:none;stroke:#000;stroke-width:2" d="M109,30 l0,-9" />
<path style="fill:none;stroke:#000;stroke-width:2" d="M130,30 l0,-9" />
<path style="fill:none;stroke:#000;stroke-width:2" d="M152,30 l0,-9" />
<path style="fill:none;stroke:#000;stroke-width:2" d="M173,30 l0,-9" />
<path style="fill:none;stroke:#000;stroke-width:2" d="M194,30 l0,-9" />
<path style="fill:none;stroke:#000;stroke-width:2" d="M215,30 l0,-9" />
<path style="fill:none;stroke:#000;stroke-width:2" d="M227,21 l-212,0" />
<path style="fill:none;stroke:#000;stroke-width:2" d="M227,26 l-212,0" />
<path style="fill:#4c4c4c" d="M219,29 l-202,0 0,486 202,0 0,-486z" />
<path style="fill:#666" d="M222,29 l-200,0 0,486 200,0 0,-486z" />
<path style="fill:#7f7f7f" d="M222,29 l-189,0 0,486 189,0 0,-486z" />
<path style="fill:#b2b2b2" d="M222,29 l-170,0 0,486 170,0 0,-486z" />
<path style="fill:#ccc" d="M222,29 l-139,0 0,486 139,0 0,-486z" />
<path style="fill:#e5e5e5" d="M222,29 l-95,0 0,486 95,0 0,-486z" />
<path style="fill:#fff" d="M222,29 l-50,0 0,486 50,0 0,-486z" />
<path style="fill:#e5e5e5" d="M222,29 l-31,0 0,486 31,0 0,-486z" />
<path style="fill:#ccc" d="M225,29 l-15,0 0,486 15,0 0,-486z" />
<path style="fill:none;stroke:#000;stroke-width:2" d="M225,29 l-208,0 0,486 208,0 0,-486" />
<path style="fill:#666" d="M227,507 l-212,0 0,8 212,0 0,-8z" />
<path style="fill:none;stroke:#e5e5e5;stroke-width:2" d="M222,507 l5,0 0,8" />
<path style="fill:none;stroke:#e5e5e5;stroke-width:2" d="M15,507 l207,0" />
<path style="fill:none;stroke:#000;stroke-width:2" d="M227,515 l-212,0 0,-8" />
<path style="fill:#666" d="M227,30 l-212,0 0,7 212,0 0,-7z" />
<path style="fill:none;stroke:#e5e5e5;stroke-width:2" d="M222,30 l5,0 0,7" />
<path style="fill:none;stroke:#e5e5e5;stroke-width:2" d="M15,30 l207,0" />
<path style="fill:none;stroke:#000;stroke-width:2" d="M227,37 l-212,0 0,-7" />
<path style="fill:#ccc;stroke:#000;stroke-width:2" d="M227,515 l6,0 0,-500 -6,0 0,500z" />
<path style="fill:#ccc;stroke:#000;stroke-width:2" d="M242,515 l4,0 0,-500 -4,0 0,500z" />
<path style="fill:#ccc;stroke:#000;stroke-width:2" d="M233,510 l9,0 0,-4 -9,0 0,4z" />
<path style="fill:#ccc;stroke:#000;stroke-width:2" d="M233,501 l9,0 0,-4 -9,0 0,4z" />
<path style="fill:#ccc;stroke:#000;stroke-width:2" d="M233,492 l9,0 0,-5 -9,0 0,5z" />
<path style="fill:#ccc;stroke:#000;stroke-width:2" d="M233,482 l9,0 0,-4 -9,0 0,4z" />
<path style="fill:#ccc;stroke:#000;stroke-width:2" d="M233,473 l9,0 0,-4 -9,0 0,4z" />
<path style="fill:#ccc;stroke:#000;stroke-width:2" d="M233,464 l9,0 0,-5 -9,0 0,5z" />
<path style="fill:#ccc;stroke:#000;stroke-width:2" d="M233,454 l9,0 0,-4 -9,0 0,4z" />
<path style="fill:#ccc;stroke:#000;stroke-width:2" d="M233,445 l9,0 0,-4 -9,0 0,4z" />
<path style="fill:#ccc;stroke:#000;stroke-width:2" d="M233,436 l9,0 0,-5 -9,0 0,5z" />
<path style="fill:#ccc;stroke:#000;stroke-width:2" d="M233,426 l9,0 0,-4 -9,0 0,4z" />
<path style="fill:#ccc;stroke:#000;stroke-width:2" d="M233,417 l9,0 0,-4 -9,0 0,4z" />
<path style="fill:#ccc;stroke:#000;stroke-width:2" d="M233,408 l9,0 0,-5 -9,0 0,5z" />
<path style="fill:#ccc;stroke:#000;stroke-width:2" d="M233,398 l9,0 0,-4 -9,0 0,4z" />
<path style="fill:#ccc;stroke:#000;stroke-width:2" d="M233,389 l9,0 0,-5 -9,0 0,5z" />
<path style="fill:#ccc;stroke:#000;stroke-width:2" d="M233,380 l9,0 0,-5 -9,0 0,5z" />
<path style="fill:#ccc;stroke:#000;stroke-width:2" d="M233,370 l9,0 0,-4 -9,0 0,4z" />
<path style="fill:#ccc;stroke:#000;stroke-width:2" d="M233,361 l9,0 0,-5 -9,0 0,5z" />
<path style="fill:#ccc;stroke:#000;stroke-width:2" d="M233,352 l9,0 0,-5 -9,0 0,5z" />
<path style="fill:#ccc;stroke:#000;stroke-width:2" d="M233,342 l9,0 0,-4 -9,0 0,4z" />
<path style="fill:#ccc;stroke:#000;stroke-width:2" d="M233,333 l9,0 0,-5 -9,0 0,5z" />
<path style="fill:#ccc;stroke:#000;stroke-width:2" d="M233,324 l9,0 0,-5 -9,0 0,5z" />
<path style="fill:#ccc;stroke:#000;stroke-width:2" d="M233,314 l9,0 0,-4 -9,0 0,4z" />
<path style="fill:#ccc;stroke:#000;stroke-width:2" d="M233,305 l9,0 0,-5 -9,0 0,5z" />
<path style="fill:#ccc;stroke:#000;stroke-width:2" d="M233,296 l9,0 0,-5 -9,0 0,5z" />
<path style="fill:#ccc;stroke:#000;stroke-width:2" d="M233,286 l9,0 0,-4 -9,0 0,4z" />
<path style="fill:#ccc;stroke:#000;stroke-width:2" d="M233,277 l9,0 0,-5 -9,0 0,5z" />
<path style="fill:#ccc;stroke:#000;stroke-width:2" d="M233,268 l9,0 0,-5 -9,0 0,5z" />
<path style="fill:#ccc;stroke:#000;stroke-width:2" d="M233,258 l9,0 0,-4 -9,0 0,4z" />
<path style="fill:#ccc;stroke:#000;stroke-width:2" d="M233,249 l9,0 0,-5 -9,0 0,5z" />
<path style="fill:#ccc;stroke:#000;stroke-width:2" d="M233,239 l9,0 0,-4 -9,0 0,4z" />
<path style="fill:#ccc;stroke:#000;stroke-width:2" d="M233,230 l9,0 0,-4 -9,0 0,4z" />
<path style="fill:#ccc;stroke:#000;stroke-width:2" d="M233,221 l9,0 0,-5 -9,0 0,5z" />
<path style="fill:#ccc;stroke:#000;stroke-width:2" d="M233,211 l9,0 0,-4 -9,0 0,4z" />
<path style="fill:#ccc;stroke:#000;stroke-width:2" d="M233,202 l9,0 0,-4 -9,0 0,4z" />
<path style="fill:#ccc;stroke:#000;stroke-width:2" d="M233,193 l9,0 0,-5 -9,0 0,5z" />
<path style="fill:#ccc;stroke:#000;stroke-width:2" d="M233,183 l9,0 0,-4 -9,0 0,4z" />
<path style="fill:#ccc;stroke:#000;stroke-width:2" d="M233,174 l9,0 0,-4 -9,0 0,4z" />
<path style="fill:#ccc;stroke:#000;stroke-width:2" d="M233,165 l9,0 0,-5 -9,0 0,5z" />
<path style="fill:#ccc;stroke:#000;stroke-width:2" d="M233,155 l9,0 0,-4 -9,0 0,4z" />
<path style="fill:#ccc;stroke:#000;stroke-width:2" d="M233,146 l9,0 0,-4 -9,0 0,4z" />
<path style="fill:#ccc;stroke:#000;stroke-width:2" d="M233,137 l9,0 0,-5 -9,0 0,5z" />
<path style="fill:#ccc;stroke:#000;stroke-width:2" d="M233,127 l9,0 0,-4 -9,0 0,4z" />
<path style="fill:#ccc;stroke:#000;stroke-width:2" d="M233,118 l9,0 0,-5 -9,0 0,5z" />
<path style="fill:#ccc;stroke:#000;stroke-width:2" d="M233,109 l9,0 0,-5 -9,0 0,5z" />
<path style="fill:#ccc;stroke:#000;stroke-width:2" d="M233,99 l9,0 0,-4 -9,0 0,4z" />
<path style="fill:#ccc;stroke:#000;stroke-width:2" d="M233,90 l9,0 0,-5 -9,0 0,5z" />
<path style="fill:#ccc;stroke:#000;stroke-width:2" d="M233,81 l9,0 0,-5 -9,0 0,5z" />
<path style="fill:#ccc;stroke:#000;stroke-width:2" d="M233,71 l9,0 0,-4 -9,0 0,4z" />
<path style="fill:#ccc;stroke:#000;stroke-width:2" d="M233,62 l9,0 0,-5 -9,0 0,5z" />
<path style="fill:#ccc;stroke:#000;stroke-width:2" d="M233,53 l9,0 0,-5 -9,0 0,5z" />
<path style="fill:#ccc;stroke:#000;stroke-width:2" d="M233,25 l9,0 0,-5 -9,0 0,5z" />
<path style="fill:#ccc;stroke:#000;stroke-width:2" d="M233,34 l9,0 0,-5 -9,0 0,5z" />
<path style="fill:#ccc;stroke:#000;stroke-width:2" d="M233,43 l9,0 0,-4 -9,0 0,4z" />

</svg>
