<?xml version="1.0" encoding="utf-8" standalone="no"?><!DOCTYPE svg PUBLIC "-//W3C//DTD SVG 1.1//EN" "http://www.w3.org/Graphics/SVG/1.1/DTD/svg11-flat-20030114.dtd"><svg width="999" height="942" version="1.1" xmlns="http://www.w3.org/2000/svg" xmlns:xlink="http://www.w3.org/1999/xlink">

<path style="fill:#000;stroke:#000;stroke-width:2" d="M970,84 l-942,0 0,830 942,0 0,-830z" />
<path style="fill:#333;stroke:#000;stroke-width:2" d="M942,84 l-858,0 0,830 858,0 0,-830z" />
<path style="fill:#4c4c4c" d="M914,84 l-748,0 0,830 748,0 0,-830z" />
<path style="fill:none;stroke:#000;stroke-width:2" d="M970,84 l-942,0 0,830 942,0 0,-830" />
<path style="fill:#333" d="M956,899 l-914,0 0,15 914,0 0,-15z" />
<path style="fill:#333" d="M956,733 l-914,0 0,14 914,0 0,-14z" />
<path style="fill:#333" d="M956,566 l-914,0 0,15 914,0 0,-15z" />
<path style="fill:#333" d="M956,400 l-914,0 0,14 914,0 0,-14z" />
<path style="fill:#333" d="M956,237 l-914,0 0,10 914,0 0,-10z" />
<path style="fill:none;stroke:#4c4c4c;stroke-width:2" d="M970,747 l-942,0" />
<path style="fill:none;stroke:#4c4c4c;stroke-width:2" d="M970,581 l-942,0" />
<path style="fill:none;stroke:#4c4c4c;stroke-width:2" d="M970,414 l-942,0" />
<path style="fill:none;stroke:#4c4c4c;stroke-width:2" d="M970,247 l-942,0" />
<path style="fill:#ff0;stroke:#ff0;stroke-width:2" d="M570,88 l0,-60 -131,0 0,7 120,0 0,10 -120,0 0,4 120,0 0,11 -120,0 0,7 120,0 0,21 11,0z" />
<path style="fill:#ff0;stroke:#ff0;stroke-width:2" d="M705,88 l0,-60 -135,0 0,7 124,0 0,10 -124,0 0,4 124,0 0,11 -124,0 0,7 124,0 0,21 11,0z" />
<path style="fill:#ff0;stroke:#ff0;stroke-width:2" d="M836,88 l0,-60 -131,0 0,7 120,0 0,10 -120,0 0,4 120,0 0,11 -120,0 0,7 120,0 0,21 11,0z" />
<path style="fill:#ff0;stroke:#ff0;stroke-width:2" d="M970,88 l0,-60 -134,0 0,7 124,0 0,10 -124,0 0,4 124,0 0,11 -124,0 0,7 124,0 0,21 10,0z" />
<ellipse style="fill:#ff0;stroke:#ff0;stroke-width:2" cx="33" cy="58" rx="5" ry="30" />
<path style="fill:#ff0;stroke:#ff0;stroke-width:2" d="M173,88 l0,-60 -135,0 0,7 124,0 0,10 -124,0 0,4 124,0 0,11 -124,0 0,7 124,0 0,21 11,0z" />
<path style="fill:#ff0;stroke:#ff0;stroke-width:2" d="M304,88 l0,-60 -131,0 0,7 120,0 0,10 -120,0 0,4 120,0 0,11 -120,0 0,7 120,0 0,21 11,0z" />
<path style="fill:#ff0;stroke:#ff0;stroke-width:2" d="M439,88 l0,-60 -135,0 0,7 124,0 0,10 -124,0 0,4 124,0 0,11 -124,0 0,7 124,0 0,21 11,0z" />
<path style="fill:none;stroke:#000;stroke-width:2" d="M428,45 l0,-10 -124,0" />
<path style="fill:none;stroke:#000;stroke-width:2" d="M428,60 l0,-11 -124,0" />
<path style="fill:none;stroke:#000;stroke-width:2" d="M428,88 l0,-21 -124,0" />
<path style="fill:none;stroke:#000;stroke-width:2" d="M293,45 l0,-10 -120,0" />
<path style="fill:none;stroke:#000;stroke-width:2" d="M293,60 l0,-11 -120,0" />
<path style="fill:none;stroke:#000;stroke-width:2" d="M293,88 l0,-21 -120,0" />
<path style="fill:none;stroke:#000;stroke-width:2" d="M162,45 l0,-10 -124,0" />
<path style="fill:none;stroke:#000;stroke-width:2" d="M162,60 l0,-11 -124,0" />
<path style="fill:none;stroke:#000;stroke-width:2" d="M162,88 l0,-21 -124,0" />
<path style="fill:none;stroke:#000;stroke-width:2" d="M28,88 l0,-60" />
<path style="fill:none;stroke:#000;stroke-width:2" d="M960,45 l0,-10 -124,0" />
<path style="fill:none;stroke:#000;stroke-width:2" d="M960,60 l0,-11 -124,0" />
<path style="fill:none;stroke:#000;stroke-width:2" d="M960,88 l0,-21 -124,0" />
<path style="fill:none;stroke:#000;stroke-width:2" d="M825,45 l0,-10 -120,0" />
<path style="fill:none;stroke:#000;stroke-width:2" d="M825,60 l0,-11 -120,0" />
<path style="fill:none;stroke:#000;stroke-width:2" d="M825,88 l0,-21 -120,0" />
<path style="fill:none;stroke:#000;stroke-width:2" d="M694,45 l0,-10 -124,0" />
<path style="fill:none;stroke:#000;stroke-width:2" d="M694,60 l0,-11 -124,0" />
<path style="fill:none;stroke:#000;stroke-width:2" d="M694,88 l0,-21 -124,0" />
<path style="fill:none;stroke:#000;stroke-width:2" d="M559,45 l0,-10 -120,0" />
<path style="fill:none;stroke:#000;stroke-width:2" d="M559,60 l0,-11 -120,0" />
<path style="fill:none;stroke:#000;stroke-width:2" d="M559,88 l0,-21 -120,0" />

</svg>
