<?xml version="1.0" encoding="utf-8" standalone="no"?><!DOCTYPE svg PUBLIC "-//W3C//DTD SVG 1.1//EN" "http://www.w3.org/Graphics/SVG/1.1/DTD/svg11-flat-20030114.dtd"><svg width="290" height="999" version="1.1" xmlns="http://www.w3.org/2000/svg" xmlns:xlink="http://www.w3.org/1999/xlink">

<path style="fill:#ccc;stroke:#000;stroke-width:2" d="M69,103 l-1,0 -2,0 -2,0 -29,0 -7,9 0,2 0,5 0,765 6,11 1,0 23,0 0,-11 -23,-4 0,-762 0,-1 1,-1 28,-2 5,2 0,1 0,5 11,0 0,-1 -11,-18z" />
<path style="fill:#e5e5e5;stroke:#000;stroke-width:2" d="M156,28 l41,15 0,87 -41,-16 0,-86z" />
<path style="fill:#ccc;stroke:#000;stroke-width:2" d="M156,114 l0,-86 -38,3 0,87 38,-4z" />
<path style="fill:#e5e5e5;stroke:#000;stroke-width:2" d="M47,959 l0,-833 0,-2 28,-6 29,-3 30,0 5,0 6,-1 5,0 32,1 28,1 30,2 21,6 0,1 0,1 0,833 0,1 -28,7 -28,2 -28,1 -5,0 -6,0 -5,0 -32,0 -30,-1 -27,-2 -25,-7 0,0 0,-1z" />
<path style="fill:#b2b2b2" d="M47,959 l0,-833 26,-10 7,-2 0,853 -27,-3 -6,-5z" />
<path style="fill:#ccc" d="M231,967 l0,-853 26,7 4,5 0,833 -26,8 -4,0z" />
<path style="fill:#ccc" d="M80,967 l0,-853 76,0 0,856 -32,0 -28,-1 -16,-2z" />
<path style="fill:none;stroke:#ccc;stroke-width:2" d="M47,872 l0,2 8,3 10,2 10,1 11,1 13,1 10,1 9,0 11,0 10,0 6,1 5,0 16,0 11,-1 10,0 9,0 9,0 13,-1 12,-1 10,-1 11,-2 8,-3 2,-1 0,-1 0,-1" />
<path style="fill:none;stroke:#ccc;stroke-width:2" d="M47,789 l0,1 8,2 10,1 10,1 11,1 13,1 10,0 9,0 11,1 10,0 6,0 5,0 16,0 11,0 10,-1 9,0 9,0 13,-1 12,0 10,-1 11,-2 8,-1 2,-1 0,-1" />
<path style="fill:none;stroke:#ccc;stroke-width:2" d="M47,273 l0,-1 8,-2 10,-1 10,-1 11,-1 13,-1 10,0 9,0 11,0 10,-1 6,0 5,0 16,0 11,0 10,1 9,0 9,0 13,1 12,1 10,0 11,2 8,1 2,1 0,1" />
<path style="fill:none;stroke:#ccc;stroke-width:2" d="M47,190 l0,-2 8,-3 10,-2 10,-1 11,-1 13,-1 10,-1 9,0 11,0 10,0 6,0 5,0 16,0 11,0 10,0 9,0 9,1 13,0 12,1 10,2 11,1 8,3 2,1 0,1 0,1" />
<path style="fill:none;stroke:#ccc;stroke-width:2" d="M261,703 l-218,0" />
<path style="fill:none;stroke:#ccc;stroke-width:2" d="M261,616 l-218,0" />
<path style="fill:none;stroke:#ccc;stroke-width:2" d="M261,529 l-218,0" />
<path style="fill:none;stroke:#ccc;stroke-width:2" d="M261,446 l-218,0" />
<path style="fill:none;stroke:#ccc;stroke-width:2" d="M261,359 l-218,0" />
<path style="fill:none;stroke:#000;stroke-width:2" d="M47,959 l0,-833 0,-2 28,-6 29,-3 30,0 5,0 6,-1 5,0 32,1 28,1 30,2 21,6 0,1 0,1 0,833 0,1 -28,7 -28,2 -28,1 -5,0 -6,0 -5,0 -32,0 -30,-1 -27,-2 -25,-7 0,0 0,-1" />
<path style="fill:#e5e5e5;stroke:#000;stroke-width:2" d="M145,50 l1,0 1,0 2,0 97,0 11,10 1,2 0,4 0,501 -10,11 -2,0 -22,0 0,-11 22,-12 0,-486 -27,-7 -71,0 -1,0 -1,0 -1,7 0,45 -12,0 0,-1 0,-51 12,-12z" />
<path style="fill:#e5e5e5;stroke:#000;stroke-width:2" d="M224,959 l2,0 2,0 1,0 25,-9 0,-2 0,-2 0,-353 -6,-11 -2,0 -22,0 0,11 22,2 0,1 0,36 0,312 0,1 0,1 -7,2 -15,0 0,11z" />
<path style="fill:#999;stroke:#000;stroke-width:2" d="M246,118 l0,-38 -52,-11 -76,0 -56,11 0,38 7,0 0,-34 49,-7 0,37 4,0 0,-37 64,0 0,37 8,0 0,-37 45,7 0,34 7,0z" />
<path style="fill:#7f7f7f;stroke:#000;stroke-width:2" d="M239,103 l-45,-7 0,-4 45,7 0,4z" />
<path style="fill:#7f7f7f;stroke:#000;stroke-width:2" d="M118,92 l-49,7 0,4 49,-7 0,-4z" />
<path style="fill:#7f7f7f;stroke:#000;stroke-width:2" d="M186,96 l-64,0 0,-4 64,0 0,4z" />

</svg>
