<?xml version="1.0" encoding="utf-8" standalone="no"?><!DOCTYPE svg PUBLIC "-//W3C//DTD SVG 1.1//EN" "http://www.w3.org/Graphics/SVG/1.1/DTD/svg11-flat-20030114.dtd"><svg width="501" height="999" version="1.1" xmlns="http://www.w3.org/2000/svg" xmlns:xlink="http://www.w3.org/1999/xlink">

<path style="fill:#999;stroke:#000;stroke-width:2" d="M326,35 l-9,3 -3,5 3,8 9,3 8,-3 3,-8 -6,-7 -5,-1z" />
<path style="fill:none;stroke:#000;stroke-width:2" d="M326,35 l-9,3 -3,5 3,8 9,3 8,-3 3,-8 -6,-7 -5,-1" />
<path style="fill:#999;stroke:#000;stroke-width:2" d="M307,28 l-9,3 -3,8 3,8 9,3 8,-3 3,-8 -3,-8 -8,-3z" />
<path style="fill:#b2b2b2" d="M307,28 l-7,6 -1,5 5,7 3,1 8,-4 3,-4 -4,-8 -7,-3z" />
<path style="fill:#b2b2b2" d="M326,35 l-7,5 -1,3 4,9 4,2 8,-4 3,-7 -6,-7 -5,-1z" />
<path style="fill:#ccc" d="M307,31 l-2,0 -2,1 0,1 2,9 0,1 2,0 7,-5 0,-3 0,-1 0,-1 -7,-2z" />
<path style="fill:#ccc" d="M329,35 l-6,3 -1,3 1,7 6,2 2,0 1,0 1,-4 -1,-9 0,-1 -1,-1 -2,0z" />
<path style="fill:none;stroke:#000;stroke-width:2" d="M307,28 l-9,3 -3,8 3,8 9,3 8,-3 3,-8 -3,-8 -8,-3" />
<path style="fill:#b2b2b2;stroke:#000;stroke-width:2" d="M337,43 l-23,0 0,49 23,0 0,-49z" />
<path style="fill:none;stroke:#000;stroke-width:2" d="M337,43 l-23,0 0,49 23,0 0,-49" />
<path style="fill:#b2b2b2;stroke:#000;stroke-width:2" d="M318,39 l-23,0 0,45 23,0 0,-45z" />
<path style="fill:#b2b2b2;stroke:#000;stroke-width:2" d="M182,88 l0,-19 113,0 0,-15 -113,0 0,-7 -11,0 0,41 11,0z" />
<path style="fill:#999" d="M299,39 l-4,0 0,45 4,0 0,-45z" />
<path style="fill:#999" d="M318,43 l-4,0 0,49 4,0 0,-49z" />
<path style="fill:#ccc" d="M318,39 l-4,0 0,45 4,0 0,-45z" />
<path style="fill:#ccc" d="M337,43 l-4,0 0,49 4,0 0,-49z" />
<path style="fill:none;stroke:#000;stroke-width:2" d="M318,39 l-23,0 0,45 23,0 0,-45" />
<path style="fill:#ccc;stroke:#000;stroke-width:2" d="M118,80 l-68,4 0,15 68,-3 0,-16z" />
<path style="fill:#ccc;stroke:#000;stroke-width:2" d="M284,69 l-68,0 0,19 68,0 0,-19z" />
<path style="fill:#e5e5e5;stroke:#000;stroke-width:2" d="M28,955 l0,-856 0,0 27,-7 31,-3 32,-1 37,-2 30,-1 32,-1 11,0 11,0 11,0 34,0 33,1 30,1 28,1 33,2 27,2 28,4 9,4 1,0 0,856 -1,1 -27,6 -31,3 -32,2 -36,2 -30,1 -32,0 -11,0 -12,0 -11,0 -33,0 -32,0 -30,-1 -28,-1 -33,-2 -28,-3 -28,-4 -10,-3 0,-1z" />
<path style="fill:#999" d="M28,99 l0,0 28,-7 32,-3 8,-1 0,879 -29,-3 -29,-5 -10,-3 0,-1 0,-856z" />
<path style="fill:#ccc" d="M92,967 l29,0 29,2 30,1 3,0 4,0 3,0 4,0 0,-886 -4,0 -31,1 -29,2 -30,1 -5,0 -3,0 0,879z" />
<path style="fill:#ccc" d="M409,967 l0,-879 27,3 27,5 9,6 1,1 0,852 -1,1 -25,6 -31,4 -7,1z" />
<path style="fill:none;stroke:#000;stroke-width:2" d="M28,733 l0,0 27,7 31,3 32,2 37,1 30,1 32,1 11,0 11,0 11,0 34,0 33,-1 30,-1 28,-1 33,-2 27,-2 28,-4 9,-4 1,0" />
<path style="fill:none;stroke:#000;stroke-width:2" d="M473,525 l-445,0" />
<path style="fill:none;stroke:#000;stroke-width:2" d="M473,322 l-1,-1 -27,-6 -31,-3 -32,-2 -36,-2 -30,-1 -32,0 -11,0 -12,0 -11,0 -33,0 -32,0 -30,1 -28,1 -33,2 -28,3 -28,4 -10,3 0,1" />
<path style="fill:none;stroke:#000;stroke-width:2" d="M239,77 l0,893" />
<path style="fill:none;stroke:#000;stroke-width:2" d="M261,77 l0,893" />
<path style="fill:none;stroke:#000;stroke-width:2" d="M261,88 l-22,0" />
<path style="fill:none;stroke:#000;stroke-width:2" d="M261,99 l-22,0" />
<path style="fill:none;stroke:#000;stroke-width:2" d="M261,111 l-22,0" />
<path style="fill:none;stroke:#000;stroke-width:2" d="M239,122 l22,0" />
<path style="fill:none;stroke:#000;stroke-width:2" d="M261,133 l-22,0" />
<path style="fill:none;stroke:#000;stroke-width:2" d="M261,145 l-22,0" />
<path style="fill:none;stroke:#000;stroke-width:2" d="M261,156 l-22,0" />
<path style="fill:none;stroke:#000;stroke-width:2" d="M261,167 l-22,0" />
<path style="fill:none;stroke:#000;stroke-width:2" d="M239,179 l22,0" />
<path style="fill:none;stroke:#000;stroke-width:2" d="M261,190 l-22,0" />
<path style="fill:none;stroke:#000;stroke-width:2" d="M261,201 l-22,0" />
<path style="fill:none;stroke:#000;stroke-width:2" d="M261,212 l-22,0" />
<path style="fill:none;stroke:#000;stroke-width:2" d="M261,220 l-22,0" />
<path style="fill:none;stroke:#000;stroke-width:2" d="M239,231 l22,0" />
<path style="fill:none;stroke:#000;stroke-width:2" d="M261,243 l-22,0" />
<path style="fill:none;stroke:#000;stroke-width:2" d="M261,254 l-22,0" />
<path style="fill:none;stroke:#000;stroke-width:2" d="M261,265 l-22,0" />
<path style="fill:none;stroke:#000;stroke-width:2" d="M261,277 l-22,0" />
<path style="fill:none;stroke:#000;stroke-width:2" d="M239,288 l22,0" />
<path style="fill:none;stroke:#000;stroke-width:2" d="M261,299 l-22,0" />
<path style="fill:none;stroke:#000;stroke-width:2" d="M261,310 l-22,0" />
<path style="fill:none;stroke:#000;stroke-width:2" d="M261,322 l-22,0" />
<path style="fill:none;stroke:#000;stroke-width:2" d="M261,333 l-22,0" />
<path style="fill:none;stroke:#000;stroke-width:2" d="M239,344 l22,0" />
<path style="fill:none;stroke:#000;stroke-width:2" d="M261,356 l-22,0" />
<path style="fill:none;stroke:#000;stroke-width:2" d="M261,367 l-22,0" />
<path style="fill:none;stroke:#000;stroke-width:2" d="M261,378 l-22,0" />
<path style="fill:none;stroke:#000;stroke-width:2" d="M261,390 l-22,0" />
<path style="fill:none;stroke:#000;stroke-width:2" d="M239,397 l22,0" />
<path style="fill:none;stroke:#000;stroke-width:2" d="M261,409 l-22,0" />
<path style="fill:none;stroke:#000;stroke-width:2" d="M261,420 l-22,0" />
<path style="fill:none;stroke:#000;stroke-width:2" d="M261,431 l-22,0" />
<path style="fill:none;stroke:#000;stroke-width:2" d="M261,442 l-22,0" />
<path style="fill:none;stroke:#000;stroke-width:2" d="M239,454 l22,0" />
<path style="fill:none;stroke:#000;stroke-width:2" d="M261,465 l-22,0" />
<path style="fill:none;stroke:#000;stroke-width:2" d="M261,476 l-22,0" />
<path style="fill:none;stroke:#000;stroke-width:2" d="M261,488 l-22,0" />
<path style="fill:none;stroke:#000;stroke-width:2" d="M261,499 l-22,0" />
<path style="fill:none;stroke:#000;stroke-width:2" d="M239,510 l22,0" />
<path style="fill:none;stroke:#000;stroke-width:2" d="M261,522 l-22,0" />
<path style="fill:none;stroke:#000;stroke-width:2" d="M261,533 l-22,0" />
<path style="fill:none;stroke:#000;stroke-width:2" d="M261,544 l-22,0" />
<path style="fill:none;stroke:#000;stroke-width:2" d="M261,556 l-22,0" />
<path style="fill:none;stroke:#000;stroke-width:2" d="M239,567 l22,0" />
<path style="fill:none;stroke:#000;stroke-width:2" d="M261,578 l-22,0" />
<path style="fill:none;stroke:#000;stroke-width:2" d="M261,589 l-22,0" />
<path style="fill:none;stroke:#000;stroke-width:2" d="M261,597 l-22,0" />
<path style="fill:none;stroke:#000;stroke-width:2" d="M261,608 l-22,0" />
<path style="fill:none;stroke:#000;stroke-width:2" d="M239,620 l22,0" />
<path style="fill:none;stroke:#000;stroke-width:2" d="M261,631 l-22,0" />
<path style="fill:none;stroke:#000;stroke-width:2" d="M261,642 l-22,0" />
<path style="fill:none;stroke:#000;stroke-width:2" d="M261,654 l-22,0" />
<path style="fill:none;stroke:#000;stroke-width:2" d="M261,665 l-22,0" />
<path style="fill:none;stroke:#000;stroke-width:2" d="M239,676 l22,0" />
<path style="fill:none;stroke:#000;stroke-width:2" d="M261,688 l-22,0" />
<path style="fill:none;stroke:#000;stroke-width:2" d="M261,699 l-22,0" />
<path style="fill:none;stroke:#000;stroke-width:2" d="M261,710 l-22,0" />
<path style="fill:none;stroke:#000;stroke-width:2" d="M261,721 l-22,0" />
<path style="fill:none;stroke:#000;stroke-width:2" d="M239,733 l22,0" />
<path style="fill:none;stroke:#000;stroke-width:2" d="M261,744 l-22,0" />
<path style="fill:none;stroke:#000;stroke-width:2" d="M261,755 l-22,0" />
<path style="fill:none;stroke:#000;stroke-width:2" d="M261,767 l-22,0" />
<path style="fill:none;stroke:#000;stroke-width:2" d="M261,778 l-22,0" />
<path style="fill:none;stroke:#000;stroke-width:2" d="M239,789 l22,0" />
<path style="fill:none;stroke:#000;stroke-width:2" d="M261,801 l-22,0" />
<path style="fill:none;stroke:#000;stroke-width:2" d="M261,808 l-22,0" />
<path style="fill:none;stroke:#000;stroke-width:2" d="M261,819 l-22,0" />
<path style="fill:none;stroke:#000;stroke-width:2" d="M261,831 l-22,0" />
<path style="fill:none;stroke:#000;stroke-width:2" d="M239,842 l22,0" />
<path style="fill:none;stroke:#000;stroke-width:2" d="M261,853 l-22,0" />
<path style="fill:none;stroke:#000;stroke-width:2" d="M261,865 l-22,0" />
<path style="fill:none;stroke:#000;stroke-width:2" d="M261,876 l-22,0" />
<path style="fill:none;stroke:#000;stroke-width:2" d="M261,887 l-22,0" />
<path style="fill:none;stroke:#000;stroke-width:2" d="M239,899 l22,0" />
<path style="fill:none;stroke:#000;stroke-width:2" d="M261,910 l-22,0" />
<path style="fill:none;stroke:#000;stroke-width:2" d="M261,921 l-22,0" />
<path style="fill:none;stroke:#000;stroke-width:2" d="M261,933 l-22,0" />
<path style="fill:none;stroke:#000;stroke-width:2" d="M261,944 l-22,0" />
<path style="fill:none;stroke:#000;stroke-width:2" d="M239,955 l22,0" />
<path style="fill:none;stroke:#000;stroke-width:2" d="M261,967 l-22,0" />
<path style="fill:none;stroke:#000;stroke-width:2" d="M28,955 l0,-856 0,0 27,-7 31,-3 32,-1 37,-2 30,-1 32,-1 11,0 11,0 11,0 34,0 33,1 30,1 28,1 33,2 27,2 28,4 9,4 1,0 0,856 -1,1 -27,6 -31,3 -32,2 -36,2 -30,1 -32,0 -11,0 -12,0 -11,0 -33,0 -32,0 -30,-1 -28,-1 -33,-2 -28,-3 -28,-4 -10,-3 0,-1" />

</svg>
