<?xml version="1.0" encoding="utf-8" standalone="no"?><!DOCTYPE svg PUBLIC "-//W3C//DTD SVG 1.1//EN" "http://www.w3.org/Graphics/SVG/1.1/DTD/svg11-flat-20030114.dtd"><svg width="476" height="999" version="1.1" xmlns="http://www.w3.org/2000/svg" xmlns:xlink="http://www.w3.org/1999/xlink">

<path style="fill:#c93" d="M303,28 l-123,0 0,73 123,0 0,-73z" />
<path style="fill:#deab45" d="M287,29 l-89,0 0,73 89,0 0,-73z" />
<path style="fill:#edba54" d="M270,29 l-56,0 0,73 56,0 0,-73z" />
<path style="fill:#fc6" d="M254,28 l-25,0 0,73 25,0 0,-73z" />
<path style="fill:none;stroke:#000;stroke-width:2" d="M303,28 l-123,0 0,73 123,0 0,-73" />
<path style="fill:#c93" d="M94,814 l-23,-20 -17,-21 -13,-24 -9,-24 -4,-25 0,-9 0,-490 6,-26 19,-24 23,-17 28,-14 25,-9 28,-7 29,-5 31,-3 11,0 11,0 32,1 30,3 28,6 27,8 23,9 27,15 21,17 17,25 4,16 0,5 0,490 -4,34 -9,24 -13,24 -18,21 -14,13 -8,7 -288,0z" />
<path style="fill:#d6a33d" d="M116,814 l-19,-20 -15,-21 -12,-24 -7,-24 -3,-25 0,-9 0,-15 0,-475 8,-31 23,-28 22,-16 26,-12 30,-10 34,-6 18,-2 18,0 18,0 35,4 32,8 28,12 25,14 27,26 13,31 1,10 0,15 -1,37 0,30 0,35 0,36 0,104 0,38 0,45 0,54 1,29 0,33 0,34 -4,34 -7,24 -12,24 -15,21 -12,13 -7,7 -7,0 -238,0z" />
<path style="fill:#e0ad47" d="M137,814 l-20,-27 -14,-29 -8,-33 -3,-25 0,-9 0,-15 0,-475 6,-31 19,-28 29,-22 23,-12 26,-8 29,-4 15,0 15,0 29,4 26,8 23,12 29,22 18,28 6,21 1,10 0,15 0,475 -3,34 -9,33 -15,29 -15,20 -5,7 -12,0 -190,0z" />
<path style="fill:#ebb852" d="M160,814 l-17,-27 -11,-29 -7,-33 -2,-17 -1,-8 0,-9 0,-490 5,-31 15,-28 23,-22 29,-16 33,-8 12,0 12,0 33,8 28,16 22,22 15,28 4,21 1,10 0,15 0,484 -4,33 -7,32 -13,29 -8,13 -4,7 -9,0 -149,0z" />
<path style="fill:#f5c25c" d="M180,814 l-11,-27 -8,-29 -5,-33 -2,-17 0,-8 0,-9 0,-490 4,-31 11,-28 16,-22 21,-16 24,-8 9,0 8,0 31,12 20,18 15,25 9,29 1,11 1,10 -1,15 0,37 0,30 -1,35 0,36 0,104 1,38 0,45 0,54 0,29 0,33 1,34 -2,34 -5,33 -8,29 -9,20 -3,7 -7,0 -110,0z" />
<path style="fill:#fc6" d="M203,814 l-7,-27 -6,-29 -3,-33 -1,-17 0,-8 0,-9 0,-490 3,-31 6,-28 15,-28 24,-18 5,0 6,0 24,18 14,28 6,28 2,21 1,10 0,490 -1,34 -4,33 -5,29 -5,20 -2,7 -72,0z" />
<path style="fill:none;stroke:#000;stroke-width:2" d="M94,814 l-23,-20 -17,-21 -13,-24 -9,-24 -4,-25 0,-9 0,-490 6,-26 19,-24 23,-17 28,-14 25,-9 28,-7 29,-5 31,-3 11,0 11,0 32,1 30,3 28,6 27,8 23,9 27,15 21,17 17,25 4,16 0,5 0,490 -4,34 -9,24 -13,24 -18,21 -14,13 -8,7 -288,0" />
<path style="fill:#4c4c4c;stroke:#000;stroke-width:2" d="M448,934 l-13,-23 -13,-23 -13,-22 -13,-23 -13,-23 -5,-8 -8,0 -272,0 -13,23 -13,23 -13,23 -13,23 -14,23 -4,7 3,-3 20,-20 20,-20 19,-20 17,-10 8,1 21,17 17,32 11,23 16,30 6,6 8,0 96,0 16,-25 11,-23 11,-23 19,-28 14,-9 8,-1 26,21 20,19 20,21 10,9 3,3z" />
<path style="fill:#333;stroke:#000;stroke-width:2" d="M207,848 l24,96 25,0 22,-96 -71,0z" />
<path style="fill:none;stroke:#000;stroke-width:2" d="M448,205 l-416,0" />
<path style="fill:none;stroke:#000;stroke-width:2" d="M448,695 l-416,0" />
<path style="fill:none;stroke:#000;stroke-width:2" d="M303,52 l-122,0" />

</svg>
