<?xml version="1.0" encoding="utf-8" standalone="no"?><!DOCTYPE svg PUBLIC "-//W3C//DTD SVG 1.1//EN" "http://www.w3.org/Graphics/SVG/1.1/DTD/svg11-flat-20030114.dtd"><svg width="459" height="530" version="1.1" xmlns="http://www.w3.org/2000/svg" xmlns:xlink="http://www.w3.org/1999/xlink">

<path style="fill:#7f7f7f" d="M408,515 l0,-500 -357,0 0,500 357,0z" />
<path style="fill:#999" d="M386,515 l0,-500 -312,0 0,500 312,0z" />
<path style="fill:#b2b2b2" d="M352,515 l0,-500 -245,0 0,500 245,0z" />
<path style="fill:#ccc" d="M307,515 l0,-500 -155,0 0,500 155,0z" />
<path style="fill:#e5e5e5" d="M269,515 l0,-500 -78,0 0,500 78,0z" />
<path style="fill:#fff" d="M236,515 l0,-500 -12,0 0,500 12,0z" />
<path style="fill:none;stroke:#000;stroke-width:2" d="M409,515 l0,-500 -358,0 0,500 358,0" />
<path style="fill:#7f7f7f" d="M444,77 l-2,-10 -15,-14 -10,-2 -23,0 -351,0 -10,2 -15,14 -2,10 0,23 0,353 2,10 15,14 10,2 23,0 351,0 10,-2 15,-14 2,-10 0,-24 0,-352z" />
<path style="fill:#999" d="M418,77 l-2,-10 -13,-14 -9,-2 -20,0 -309,0 -9,2 -12,14 -2,10 0,23 0,353 2,10 12,14 9,2 21,0 308,0 9,-2 13,-14 2,-10 0,-24 0,-352z" />
<path style="fill:#b2b2b2" d="M377,77 l-6,-18 -6,-6 -7,-2 -16,0 -241,0 -7,2 -9,14 -2,10 0,23 0,353 6,18 5,6 7,2 16,0 241,0 7,-2 10,-14 2,-10 0,-24 0,-352z" />
<path style="fill:#ccc" d="M324,77 l-4,-18 -4,-6 -4,-2 -10,0 -154,0 -4,2 -7,14 -1,10 0,23 0,353 4,18 4,6 4,2 10,0 154,0 4,-2 7,-14 1,-10 0,-24 0,-352z" />
<path style="fill:#e5e5e5" d="M277,77 l-2,-18 -2,-6 -2,-2 -10,0 -72,0 -2,2 -3,14 -1,10 0,23 0,353 2,18 2,6 2,2 10,0 72,0 2,-2 3,-14 1,-10 0,-24 0,-352z" />
<path style="fill:#fff" d="M236,77 l0,-10 0,-8 0,-6 0,-2 -3,0 -3,0 -6,0 -1,2 0,6 0,418 1,2 3,0 9,0 0,-402z" />
<path style="fill:none;stroke:#000;stroke-width:2" d="M444,77 l-2,-10 -15,-14 -10,-2 -23,0 -352,0 -10,2 -15,14 -2,10 0,23 0,353 2,10 15,14 10,2 23,0 352,0 10,-2 15,-14 2,-10 0,-24 0,-352" />

</svg>
