<?xml version="1.0" encoding="utf-8" standalone="no"?><!DOCTYPE svg PUBLIC "-//W3C//DTD SVG 1.1//EN" "http://www.w3.org/Graphics/SVG/1.1/DTD/svg11-flat-20030114.dtd"><svg width="397" height="397" version="1.1" xmlns="http://www.w3.org/2000/svg" xmlns:xlink="http://www.w3.org/1999/xlink">

<path style="fill:#7f7f7f" d="M66,49 l-32,-38 328,0 -31,38 12,3 11,4 9,3 8,4 7,5 4,4 3,5 1,4 0,305 -375,0 0,-305 1,-4 3,-5 4,-4 6,-5 8,-4 10,-3 11,-4 12,-3z" />
<path style="fill:#999" d="M80,49 l-29,-38 294,0 -28,38 11,3 10,4 8,3 7,4 6,5 4,4 2,5 1,4 0,305 -335,0 0,-305 1,-4 2,-5 4,-4 6,-5 7,-4 8,-3 10,-4 11,-3z" />
<path style="fill:#b2b2b2" d="M102,49 l-23,-38 239,0 -23,38 9,3 8,4 7,3 5,4 5,5 3,4 2,5 1,4 0,305 -273,0 0,-305 1,-4 2,-5 3,-4 5,-5 5,-4 7,-3 8,-4 9,-3z" />
<path style="fill:#ccc" d="M132,49 l-16,-38 164,0 -15,38 6,3 5,4 5,3 4,4 3,5 2,4 2,5 0,4 0,305 -187,0 0,-305 0,-4 2,-5 2,-4 3,-5 4,-4 5,-3 5,-4 6,-3z" />
<path style="fill:#e5e5e5" d="M165,49 l-8,-38 82,0 -7,38 3,3 2,4 3,3 1,4 2,5 1,4 1,5 0,4 0,305 -93,0 0,-305 0,-4 1,-5 1,-4 1,-5 2,-4 3,-3 2,-4 3,-3z" />
<path style="fill:#fff" d="M187,49 l-2,-38 27,0 -2,38 1,3 0,4 1,3 1,4 0,5 1,4 0,5 0,4 0,305 -31,0 0,-305 0,-4 0,-5 1,-4 0,-5 1,-4 1,-3 0,-4 1,-3z" />
<path style="fill:none;stroke:#000;stroke-width:2" d="M66,49 l-32,-38 328,0 -31,38 12,3 11,4 9,3 8,4 7,5 4,4 3,5 1,4 0,305 -375,0 0,-305 1,-4 3,-5 4,-4 6,-5 8,-4 10,-3 11,-4 12,-3" />
<path style="fill:none;stroke:#7f7f7f;stroke-width:2" d="M331,49 l-265,0" />
<path style="fill:none;stroke:#7f7f7f;stroke-width:2" d="M386,81 l-375,0" />

</svg>
