<?xml version="1.0" encoding="utf-8" standalone="no"?><!DOCTYPE svg PUBLIC "-//W3C//DTD SVG 1.1//EN" "http://www.w3.org/Graphics/SVG/1.1/DTD/svg11-flat-20030114.dtd"><svg width="684" height="999" version="1.1" xmlns="http://www.w3.org/2000/svg" xmlns:xlink="http://www.w3.org/1999/xlink">

<path style="fill:#999" d="M28,126 l0,452 235,274 0,118 157,0 0,-118 236,-274 0,-452 -10,-24 -21,-18 -23,-13 -28,-11 -32,-10 -38,-8 -26,-4 -28,-4 -30,-3 -30,-2 -16,0 -16,-1 -16,0 -32,1 -31,1 -30,2 -29,4 -28,4 -26,5 -35,9 -31,10 -27,12 -26,16 -18,24 -1,5 0,5z" />
<path style="fill:#a8a8a8" d="M70,126 l0,83 0,14 0,14 0,236 0,42 0,56 19,26 19,27 19,26 19,26 19,26 19,27 20,26 18,26 20,27 19,27 13,17 -1,29 0,59 1,22 0,8 8,0 34,0 59,0 34,0 0,-30 0,-59 0,-29 19,-26 19,-27 19,-26 20,-27 18,-26 20,-26 19,-27 19,-26 19,-26 19,-27 7,-8 6,-9 0,-14 0,-70 0,-28 0,-236 0,-41 0,-56 -8,-24 -25,-23 -29,-15 -27,-11 -31,-9 -34,-6 -37,-6 -39,-3 -14,-1 -14,0 -13,0 -42,1 -39,3 -37,6 -34,6 -31,9 -27,11 -23,11 -23,17 -15,24 -1,10z" />
<path style="fill:#b8b8b8" d="M113,126 l0,82 -1,14 0,13 0,233 1,41 0,55 16,27 16,27 16,27 16,27 16,27 16,27 16,27 16,27 16,27 17,27 10,18 0,29 0,59 0,22 0,8 8,0 28,0 50,0 29,0 -1,-30 0,-59 1,-29 16,-27 16,-27 16,-27 16,-27 16,-27 16,-27 16,-27 16,-27 16,-27 17,-27 5,-9 5,-9 0,-14 0,-68 0,-41 0,-219 0,-41 0,-55 -7,-24 -20,-23 -25,-15 -31,-14 -27,-8 -30,-6 -31,-5 -34,-3 -12,0 -11,0 -35,1 -34,3 -31,6 -28,6 -26,9 -30,14 -23,16 -18,23 -4,20z" />
<path style="fill:#c4c4c4" d="M155,126 l0,81 0,13 0,14 0,229 0,41 0,54 13,28 13,27 13,27 13,28 13,27 13,28 14,28 13,27 13,28 13,28 9,18 0,29 0,59 0,22 0,8 6,0 29,0 35,0 23,0 0,-30 0,-59 0,-29 13,-27 13,-28 13,-28 13,-27 14,-28 13,-28 13,-27 13,-28 13,-27 13,-28 5,-9 4,-9 0,-14 0,-67 0,-41 0,-216 0,-40 0,-54 -8,-29 -24,-26 -23,-14 -27,-13 -32,-8 -35,-6 -18,-2 -19,0 -20,0 -36,4 -33,8 -30,10 -25,14 -28,24 -14,28 -1,10z" />
<path style="fill:#d4d4d4" d="M197,126 l0,80 0,13 0,13 0,226 0,40 0,53 10,28 10,29 11,28 10,28 10,28 10,28 10,29 10,28 10,28 10,28 7,19 0,29 0,59 0,22 0,8 5,0 31,0 32,0 5,0 -1,-30 0,-59 1,-29 10,-28 10,-28 10,-29 10,-28 10,-28 10,-28 10,-28 10,-29 11,-28 10,-28 3,-9 4,-10 0,-13 0,-66 -1,-40 0,-213 1,-40 0,-53 -7,-29 -18,-26 -28,-21 -23,-10 -26,-8 -28,-4 -14,0 -15,0 -28,4 -26,8 -23,10 -28,21 -18,26 -7,29z" />
<path style="fill:#e3e3e3" d="M240,126 l0,78 0,13 0,14 0,222 0,39 0,53 7,28 7,29 7,29 7,29 8,29 6,28 8,29 7,29 7,29 7,29 5,26 0,30 0,51 0,22 0,8 3,0 29,0 19,0 0,-30 0,-59 0,-29 7,-29 7,-29 7,-29 7,-28 7,-29 8,-29 7,-29 7,-29 7,-29 7,-28 2,-10 3,-9 0,-13 0,-66 0,-39 0,-210 0,-39 0,-52 -4,-29 -13,-26 -20,-21 -25,-14 -29,-8 -10,0 -11,0 -29,8 -25,14 -20,21 -12,26 -5,29z" />
<path style="fill:#f2f2f2" d="M283,126 l0,412 44,314 0,118 30,0 0,-118 44,-314 0,-412 -3,-29 -7,-26 -16,-26 -21,-15 -12,-2 -28,12 -18,24 -9,24 -4,28 0,10z" />
<path style="fill:none;stroke:#000;stroke-width:2" d="M28,126 l0,452 235,274 0,118 157,0 0,-118 236,-274 0,-452 -10,-24 -21,-18 -23,-13 -28,-11 -32,-10 -38,-8 -26,-4 -28,-4 -30,-3 -30,-2 -16,0 -16,-1 -16,0 -32,1 -31,1 -30,2 -29,4 -28,4 -26,5 -35,9 -31,10 -27,12 -26,16 -18,24 -1,5 0,5" />
<path style="fill:none;stroke:#000;stroke-width:2" d="M420,852 l-157,0" />
<path style="fill:none;stroke:#000;stroke-width:2" d="M656,578 l0,-2 -25,-14 -29,-6 -28,-5 -32,-3 -38,-4 -40,-2 -29,-2 -30,-1 -31,0 -16,-1 -16,0 -32,1 -31,0 -30,1 -29,2 -28,1 -38,3 -34,4 -30,4 -31,7 -25,9 -6,6 0,2" />
<path style="fill:#7f7f7f" d="M459,611 l7,-19 -19,-6 -7,18 19,7z" />
<path style="fill:#7f7f7f" d="M439,667 l7,-19 -19,-7 -6,19 18,7z" />
<path style="fill:#7f7f7f" d="M419,722 l7,-19 -19,-7 -6,19 18,7z" />
<path style="fill:#7f7f7f" d="M400,777 l7,-18 -19,-7 -7,18 19,7z" />
<path style="fill:#7f7f7f" d="M380,833 l6,-19 -18,-7 -7,19 19,7z" />
<path style="fill:#7f7f7f" d="M484,156 l0,-20 -20,0 0,20 20,0z" />
<path style="fill:#7f7f7f" d="M484,215 l0,-20 -20,0 0,20 20,0z" />
<path style="fill:#7f7f7f" d="M484,274 l0,-20 -20,0 0,20 20,0z" />
<path style="fill:#7f7f7f" d="M484,333 l0,-20 -20,0 0,20 20,0z" />
<path style="fill:#7f7f7f" d="M484,391 l0,-19 -20,0 0,19 20,0z" />
<path style="fill:#7f7f7f" d="M484,450 l0,-19 -20,0 0,19 20,0z" />
<path style="fill:#7f7f7f" d="M484,509 l0,-20 -20,0 0,20 20,0z" />
<path style="fill:#7f7f7f" d="M399,38 l-10,-3 -3,10 10,3 3,-10z" />
<path style="fill:#7f7f7f" d="M441,55 l-13,-7 -8,12 13,8 8,-13z" />
<path style="fill:#7f7f7f" d="M477,97 l-7,-18 -19,8 8,18 18,-8z" />
<path style="fill:#7f7f7f" d="M620,567 l-19,0 0,20 19,0 0,-20z" />
<path style="fill:#7f7f7f" d="M561,559 l-5,0 -10,0 -5,0 0,5 0,10 0,5 10,-1 10,1 -1,-10 1,-10z" />
<path style="fill:#7f7f7f" d="M501,553 l-5,0 -10,0 -4,0 -1,5 0,10 1,5 9,0 10,0 0,-10 0,-10z" />
<path style="fill:#7f7f7f" d="M442,551 l-5,-1 -10,0 -4,1 -1,4 0,10 1,5 9,0 10,0 0,-10 0,-9z" />
<path style="fill:#7f7f7f" d="M383,549 l-5,0 -10,0 -5,0 0,5 0,10 0,5 10,0 10,0 -1,-10 1,-10z" />
<path style="fill:#7f7f7f" d="M323,549 l-5,-1 -10,0 -4,1 -1,4 0,11 1,5 9,-1 10,1 0,-10 0,-10z" />
<path style="fill:#7f7f7f" d="M264,550 l-5,0 -10,0 -5,0 0,5 0,10 0,5 10,0 10,0 0,-10 0,-10z" />
<path style="fill:#7f7f7f" d="M205,553 l-5,0 -10,0 -5,0 0,5 0,10 0,5 10,0 10,0 0,-10 0,-10z" />
<path style="fill:#7f7f7f" d="M146,558 l-5,0 -11,0 -4,0 -1,5 0,10 1,5 9,0 11,0 -1,-10 1,-10z" />
<path style="fill:#7f7f7f" d="M86,567 l-19,0 0,19 19,0 0,-19z" />
<path style="fill:none;stroke:#000;stroke-width:2" d="M342,28 l16,1 16,1 15,2 14,4 14,4 12,5 13,5 11,7 10,7 9,7 8,8 7,9 5,9 4,9 2,10 1,10 0,412 -118,314" />

</svg>
