<?xml version="1.0" encoding="utf-8" standalone="no"?><!DOCTYPE svg PUBLIC "-//W3C//DTD SVG 1.1//EN" "http://www.w3.org/Graphics/SVG/1.1/DTD/svg11-flat-20030114.dtd"><svg width="530" height="530" version="1.1" xmlns="http://www.w3.org/2000/svg" xmlns:xlink="http://www.w3.org/1999/xlink">

<path style="fill:#7f7f7f" d="M515,46 l-6,-16 -14,-12 -6,-2 -6,-1 -27,0 -409,0 -17,6 -12,14 -2,5 -1,6 0,27 0,411 6,16 14,12 6,2 6,1 27,0 409,0 17,-6 12,-14 2,-5 1,-6 0,-27 0,-411z" />
<path style="fill:#999" d="M484,46 l-5,-16 -12,-12 -5,-2 -5,-1 -24,0 -360,0 -15,6 -10,14 -1,5 -1,6 0,27 0,411 5,16 12,12 5,2 5,1 24,0 360,0 15,-6 10,-14 1,-5 1,-6 0,-27 0,-411z" />
<path style="fill:#b2b2b2" d="M437,46 l0,-6 -7,-15 -11,-9 -4,-1 -19,0 -281,0 -12,6 -8,14 -2,5 0,6 0,444 7,15 11,9 4,1 19,0 281,0 12,-6 8,-14 2,-5 0,-6 0,-438z" />
<path style="fill:#ccc" d="M375,46 l-3,-16 -6,-12 -2,-2 -3,-1 -12,0 -180,0 -3,1 -8,14 -2,5 -1,5 0,6 0,444 4,15 7,9 3,1 12,0 180,0 3,-1 8,-14 2,-5 1,-5 0,-6 0,-438z" />
<path style="fill:#e5e5e5" d="M320,46 l-1,-16 -5,-14 -1,-1 -12,0 -84,0 -6,15 0,5 -1,5 0,6 0,444 2,15 4,9 1,1 12,0 84,0 6,-15 0,-5 1,-5 0,-6 0,-438z" />
<path style="fill:#fff" d="M273,46 l0,-6 0,-5 0,-5 -1,-14 0,-1 -4,0 -10,0 0,6 -1,4 0,5 0,475 1,9 0,1 4,0 10,0 1,-15 0,-454z" />
<path style="fill:none;stroke:#000;stroke-width:2" d="M515,46 l-6,-16 -14,-12 -5,-2 -6,-1 -27,0 -411,0 -16,6 -12,14 -2,5 -1,6 0,27 0,411 6,16 14,12 5,2 6,1 27,0 411,0 16,-6 12,-14 2,-5 1,-6 0,-27 0,-411" />

</svg>
