<?xml version="1.0" encoding="utf-8" standalone="no"?><!DOCTYPE svg PUBLIC "-//W3C//DTD SVG 1.1//EN" "http://www.w3.org/Graphics/SVG/1.1/DTD/svg11-flat-20030114.dtd"><svg width="606" height="999" version="1.1" xmlns="http://www.w3.org/2000/svg" xmlns:xlink="http://www.w3.org/1999/xlink">

<path style="fill:#4c4c4c;stroke:#000;stroke-width:2" d="M552,107 l-498,0 0,11 498,0 0,-11z" />
<path style="fill:#7f7f7f" d="M563,759 l0,-573 -520,0 0,573 520,0z" />
<path style="fill:#7f7f7f" d="M43,759 l181,211 158,0 181,-211 -520,0z" />
<path style="fill:#999" d="M514,759 l0,-573 -422,0 0,573 422,0z" />
<path style="fill:#999" d="M92,759 l147,211 128,0 147,-211 -422,0z" />
<path style="fill:#b2b2b2" d="M461,759 l0,-573 -316,0 0,573 316,0z" />
<path style="fill:#b2b2b2" d="M145,759 l109,211 98,0 109,-211 -316,0z" />
<path style="fill:#ccc" d="M409,759 l0,-573 -212,0 0,573 212,0z" />
<path style="fill:#ccc" d="M197,759 l76,211 60,0 76,-211 -212,0z" />
<path style="fill:#e5e5e5" d="M356,759 l0,-573 -106,0 0,573 106,0z" />
<path style="fill:#e5e5e5" d="M250,759 l38,211 30,0 38,-211 -106,0z" />
<path style="fill:#fff" d="M318,759 l0,-573 -30,0 0,573 30,0z" />
<path style="fill:#fff" d="M288,759 l11,211 8,0 11,-211 -30,0z" />
<path style="fill:none;stroke:#000;stroke-width:2" d="M563,759 l-520,0 181,211 158,0 181,-211" />
<path style="fill:none;stroke:#000;stroke-width:2" d="M563,759 l0,-573 -520,0 0,573 520,0" />
<path style="fill:none;stroke:#000;stroke-width:2" d="M563,186 l-520,0 0,-158 520,0 0,158" />
<path style="fill:#7f7f7f;stroke:#000;stroke-width:2" d="M552,186 l0,-147 -113,0 0,147 -12,0 0,-147 -117,0 0,147 -15,0 0,-147 -116,0 0,147 -12,0 0,-147 -113,0 0,147 -11,0 0,-158 520,0 0,158 -11,0z" />
<path style="fill:#4c4c4c;stroke:#000;stroke-width:2" d="M563,179 l-207,0 0,11 207,0 0,-11z" />
<path style="fill:#4c4c4c;stroke:#000;stroke-width:2" d="M250,179 l-207,0 0,11 207,0 0,-11z" />
<path style="fill:#b2b2b2;stroke:#000;stroke-width:2" d="M578,970 l0,-260 -15,0 0,49 -23,132 -475,0 -22,-132 0,-49 -15,0 0,260 37,0 0,-37 475,0 0,37 38,0z" />
<path style="fill:#666" d="M559,970 l0,-37 12,-174 0,-49 -8,0 0,49 -23,147 -493,0 -12,-147 0,-49 -7,0 0,260 19,0 0,-37 493,0 0,37 19,0z" />
<path style="fill:#999;stroke:#000;stroke-width:2" d="M341,73 l-76,0 0,11 76,0 0,-11z" />
<path style="fill:#999;stroke:#000;stroke-width:2" d="M341,179 l-76,0 0,11 76,0 0,-11z" />
<path style="fill:#999;stroke:#000;stroke-width:2" d="M341,284 l-76,0 0,11 76,0 0,-11z" />
<path style="fill:#999;stroke:#000;stroke-width:2" d="M341,386 l-76,0 0,15 76,0 0,-15z" />
<path style="fill:#999;stroke:#000;stroke-width:2" d="M341,491 l-76,0 0,16 76,0 0,-16z" />
<path style="fill:#999;stroke:#000;stroke-width:2" d="M341,597 l-76,0 0,11 76,0 0,-11z" />
<path style="fill:#999;stroke:#000;stroke-width:2" d="M341,703 l-76,0 0,11 76,0 0,-11z" />
<path style="fill:#999;stroke:#000;stroke-width:2" d="M341,808 l-76,0 0,11 76,0 0,-11z" />
<path style="fill:#999;stroke:#000;stroke-width:2" d="M341,910 l-76,0 0,15 76,0 0,-15z" />
<path style="fill:#7f7f7f;stroke:#000;stroke-width:2" d="M265,28 l-15,0 0,942 15,0 0,-942z" />
<path style="fill:#7f7f7f;stroke:#000;stroke-width:2" d="M356,28 l-15,0 0,942 15,0 0,-942z" />

</svg>
