<?xml version="1.0" encoding="utf-8" standalone="no"?><!DOCTYPE svg PUBLIC "-//W3C//DTD SVG 1.1//EN" "http://www.w3.org/Graphics/SVG/1.1/DTD/svg11-flat-20030114.dtd"><svg width="999" height="411" version="1.1" xmlns="http://www.w3.org/2000/svg" xmlns:xlink="http://www.w3.org/1999/xlink">

<path style="fill:#666;stroke:#000;stroke-width:2" d="M56,129 l0,6 -2,44 -22,0 -4,-26 4,-24 24,0z" />
<path style="fill:#666;stroke:#000;stroke-width:2" d="M72,34 l-6,14 -6,36 -4,51 -2,64 2,63 4,52 6,35 8,14 878,0 0,-329 -878,0 -2,0z" />
<path style="fill:#9c9c9c" d="M66,46 l-12,151 10,134 892,0 -4,-285 -886,0z" />
<path style="fill:#b8b8b8" d="M62,60 l-8,137 2,55 896,0 0,-192 -890,0z" />
<path style="fill:#d4d4d4" d="M54,195 l6,-121 892,0 0,121 -898,0z" />
<path style="fill:#f0f0f0" d="M56,139 l4,-53 892,0 0,53 -896,0z" />
<path style="fill:#fff" d="M58,111 l0,-17 894,0 0,17 -894,0z" />
<ellipse style="fill:#7f7f7f;stroke:#000;stroke-width:2" cx="951" cy="198" rx="19" ry="164" />
<path style="fill:#7f7f7f;stroke:#000;stroke-width:2" d="M294,102 l-4,97 2,75 10,91 0,2 -34,0 -2,0 -14,-115 -2,-53 6,-97 10,-74 36,0 -8,74z" />
<path style="fill:#7f7f7f;stroke:#000;stroke-width:2" d="M746,102 l-4,97 2,75 8,91 0,2 -34,0 -2,0 -14,-115 -2,-53 6,-97 10,-74 36,0 -6,74z" />
<path style="fill:#9c9c9c" d="M298,36 l-12,161 4,115 -32,0 -4,-113 14,-163 30,0z" />
<path style="fill:#9c9c9c" d="M750,36 l-14,161 6,115 -34,0 -4,-113 14,-163 32,0z" />
<path style="fill:#b8b8b8" d="M294,52 l-8,145 0,53 -32,0 0,-51 10,-147 30,0z" />
<path style="fill:#b8b8b8" d="M746,52 l-8,145 0,53 -34,0 0,-51 10,-147 32,0z" />
<path style="fill:#d4d4d4" d="M286,187 l6,-123 -32,0 -6,123 32,0z" />
<path style="fill:#d4d4d4" d="M736,187 l8,-123 -34,0 -6,123 32,0z" />
<path style="fill:#f0f0f0" d="M290,127 l4,-49 -32,0 -4,49 32,0z" />
<path style="fill:#f0f0f0" d="M742,127 l4,-49 -34,0 -4,49 34,0z" />
<path style="fill:#000;stroke:#000;stroke-width:2" d="M288,288 l-14,0 -18,0 18,49 14,46 6,-8 8,-8 -8,-39 -6,-40z" />
<path style="fill:#000;stroke:#000;stroke-width:2" d="M740,288 l-16,0 -18,0 18,49 16,46 6,-8 6,-8 -6,-39 -6,-40z" />
<path style="fill:#b2b2b2;stroke:#000;stroke-width:2" d="M286,288 l-32,0 0,95 32,0 0,-95z" />
<path style="fill:#b2b2b2;stroke:#000;stroke-width:2" d="M738,288 l-34,0 0,95 34,0 0,-95z" />

</svg>
