<?xml version="1.0" encoding="utf-8" standalone="no"?><!DOCTYPE svg PUBLIC "-//W3C//DTD SVG 1.1//EN" "http://www.w3.org/Graphics/SVG/1.1/DTD/svg11-flat-20030114.dtd"><svg width="594" height="999" version="1.1" xmlns="http://www.w3.org/2000/svg" xmlns:xlink="http://www.w3.org/1999/xlink">

<path style="fill:#699" d="M566,47 l-538,0 0,18 19,0 0,289 -19,0 0,19 19,0 0,270 -19,0 0,19 19,0 0,289 -19,0 0,19 538,0 0,-19 -19,0 0,-289 19,0 0,-19 -19,0 0,-270 19,0 0,-19 -19,0 0,-289 19,0 0,-18z" />
<path style="fill:#7aadad" d="M524,47 l-454,0 0,19 16,0 0,288 -16,1 0,19 16,0 0,270 -16,0 0,18 16,0 0,289 -16,0 0,19 454,0 0,-19 -17,0 0,-289 17,0 0,-18 -17,0 0,-270 17,0 0,-20 -17,0 0,-288 17,0 0,-19z" />
<path style="fill:#8fc2c2" d="M482,47 l-370,0 0,19 13,0 0,288 -13,1 0,19 13,0 0,270 -13,0 0,18 13,0 0,289 -13,0 0,19 370,0 0,-19 -14,0 0,-289 14,0 0,-18 -14,0 0,-270 14,0 0,-20 -14,0 0,-288 14,0 0,-19z" />
<path style="fill:#a3d6d6" d="M439,47 l-285,0 0,19 10,0 0,288 -10,1 0,19 10,0 0,270 -10,0 0,18 10,0 0,289 -10,0 0,19 285,0 0,-19 -10,0 0,-289 10,0 0,-18 -10,0 0,-270 10,0 0,-20 -10,0 0,-288 10,0 0,-19z" />
<path style="fill:#b8ebeb" d="M397,47 l-201,0 0,19 8,0 0,288 -8,1 0,19 8,0 0,270 -8,0 0,18 8,0 0,289 -8,0 0,19 201,0 0,-19 -7,0 0,-289 7,0 0,-18 -7,0 0,-270 7,0 0,-20 -7,0 0,-288 7,0 0,-19z" />
<path style="fill:#cff" d="M354,47 l-115,0 0,18 4,0 0,289 -4,0 0,19 4,0 0,270 -4,0 0,19 4,0 0,289 -4,0 0,19 115,0 0,-19 -3,0 0,-289 3,0 0,-19 -3,0 0,-270 3,0 0,-19 -3,0 0,-289 3,0 0,-18z" />
<path style="fill:none;stroke:#000;stroke-width:2" d="M566,47 l-538,0 0,18 19,0 0,289 -19,0 0,19 19,0 0,270 -19,0 0,19 19,0 0,289 -19,0 0,19 538,0 0,-19 -19,0 0,-289 19,0 0,-19 -19,0 0,-270 19,0 0,-19 -19,0 0,-289 19,0 0,-18" />
<path style="fill:#9cc;stroke:#000;stroke-width:2" d="M566,28 l-538,0 0,19 538,0 0,-19z" />
<path style="fill:#699;stroke:#000;stroke-width:2" d="M566,47 l-538,0 0,18 538,0 0,-18z" />
<path style="fill:#699;stroke:#000;stroke-width:2" d="M566,951 l-538,0 0,19 538,0 0,-19z" />
<path style="fill:#699;stroke:#000;stroke-width:2" d="M566,354 l-538,0 0,19 538,0 0,-19z" />
<path style="fill:#699;stroke:#000;stroke-width:2" d="M566,643 l-538,0 0,19 538,0 0,-19z" />

</svg>
