<?xml version="1.0" encoding="utf-8" standalone="no"?><!DOCTYPE svg PUBLIC "-//W3C//DTD SVG 1.1//EN" "http://www.w3.org/Graphics/SVG/1.1/DTD/svg11-flat-20030114.dtd"><svg width="305" height="446" version="1.1" xmlns="http://www.w3.org/2000/svg" xmlns:xlink="http://www.w3.org/1999/xlink">

<path style="fill:#000;stroke:#000;stroke-width:2" d="M245,303 l0,13 0,12 0,13 0,12 0,12 0,13 0,12 0,13 -4,3 -5,1 -5,-1 -3,-3 0,-94 17,-6z" />
<path style="fill:#000;stroke:#000;stroke-width:2" d="M60,303 l0,13 0,12 0,13 0,12 0,12 0,13 0,12 0,13 4,3 5,1 5,-1 4,-3 0,-94 -18,-6z" />
<path style="fill:#7f7f7f;stroke:#000;stroke-width:2" d="M12,254 l0,-219 3,-5 8,-4 13,-4 17,-3 21,-3 24,-2 26,-2 56,0 27,2 24,2 21,3 17,3 13,4 8,4 3,5 0,219 -3,5 -8,4 -13,4 -17,3 -21,3 -24,2 -27,2 -56,0 -26,-2 -24,-2 -21,-3 -17,-3 -13,-4 -8,-4 -3,-5z" />
<path style="fill:#7f7f7f;stroke:#000;stroke-width:2" d="M12,257 l0,-2 0,-1 3,5 8,4 13,4 17,3 21,3 24,2 26,2 56,0 27,-2 24,-2 21,-3 17,-3 13,-4 8,-4 3,-5 0,3 -4,21 -9,18 -14,17 -17,14 -20,12 -24,9 -26,5 -27,2 -27,-2 -26,-5 -23,-9 -20,-12 -17,-14 -14,-17 -9,-19 -4,-20z" />
<path style="fill:#999" d="M35,254 l0,-219 2,-5 7,-4 11,-4 14,-3 18,-3 20,-2 22,-2 47,0 22,2 20,2 17,3 15,3 11,4 7,4 2,5 0,219 -2,5 -7,4 -11,4 -15,3 -17,3 -20,2 -22,2 -47,0 -22,-2 -20,-2 -18,-3 -14,-3 -11,-4 -7,-4 -2,-5z" />
<path style="fill:#999" d="M35,257 l0,-2 0,-1 2,5 7,4 11,4 14,3 18,3 20,2 22,2 47,0 22,-2 20,-2 17,-3 15,-3 11,-4 7,-4 2,-5 0,3 -4,21 -7,18 -12,17 -14,14 -17,12 -20,9 -21,5 -23,2 -22,-2 -22,-5 -19,-9 -17,-12 -15,-14 -11,-17 -8,-19 -3,-20z" />
<path style="fill:#b2b2b2" d="M74,254 l0,-219 2,-5 11,-8 10,-3 11,-3 14,-2 14,-2 32,0 14,2 14,2 12,3 17,7 4,4 2,5 0,219 -2,5 -12,8 -9,3 -12,3 -14,2 -14,2 -32,0 -14,-2 -14,-2 -11,-3 -10,-3 -11,-8 -2,-5z" />
<path style="fill:#b2b2b2" d="M74,257 l0,-2 0,-1 2,5 11,8 10,3 11,3 14,2 14,2 32,0 14,-2 14,-2 12,-3 17,-7 4,-4 2,-5 0,3 -3,21 -5,18 -7,17 -10,14 -11,12 -13,9 -15,5 -15,2 -15,-2 -14,-5 -13,-9 -12,-12 -9,-14 -8,-17 -5,-19 -2,-20z" />
<path style="fill:#ccc" d="M113,254 l0,-219 7,-13 10,-6 14,-4 16,0 14,4 11,6 7,13 0,219 -7,13 -11,6 -14,4 -16,0 -14,-4 -10,-6 -7,-13z" />
<path style="fill:#ccc" d="M113,257 l0,-2 0,-1 1,5 2,4 4,4 5,3 5,3 7,2 7,2 16,0 8,-2 6,-2 6,-3 5,-3 4,-4 2,-4 1,-5 0,3 -1,21 -3,18 -4,17 -5,14 -6,12 -6,9 -7,5 -8,2 -7,-2 -7,-5 -7,-9 -6,-12 -4,-14 -4,-17 -3,-19 -1,-20z" />
<ellipse style="fill:none;stroke:#000;stroke-width:2" cx="152" cy="35" rx="140" ry="23" />
<path style="fill:none;stroke:#000;stroke-width:2" d="M12,254 l3,5 8,4 13,4 17,3 21,3 24,2 26,2 28,0 28,0 27,-2 24,-2 21,-3 17,-3 13,-4 8,-4 3,-5" />
<ellipse style="fill:#7f7f7f;stroke:#000;stroke-width:2" cx="152" cy="35" rx="140" ry="23" />
<path style="fill:#333;stroke:#000;stroke-width:2" d="M276,276 l0,20 0,19 0,18 0,19 0,19 0,18 0,19 0,20 -5,4 -8,2 -8,-2 -5,-4 0,-117 26,-35z" />
<path style="fill:#4c4c4c" d="M272,280 l0,19 0,19 0,18 0,18 0,18 0,18 0,19 0,19 -4,4 -5,2 -5,-2 -4,-4 0,-121 18,-27z" />
<ellipse style="fill:#666" cx="262" cy="361" rx="4" ry="72" />
<path style="fill:#333;stroke:#000;stroke-width:2" d="M30,276 l0,20 0,19 0,18 0,19 0,19 0,18 0,19 0,20 5,4 8,2 8,-2 5,-4 0,-117 -26,-35z" />
<path style="fill:#4c4c4c" d="M34,280 l0,19 0,19 0,18 0,18 0,18 0,18 0,19 0,19 4,4 5,2 5,-2 4,-4 0,-121 -18,-27z" />
<ellipse style="fill:#666" cx="42" cy="361" rx="4" ry="72" />

</svg>
