<?xml version="1.0" encoding="utf-8" standalone="no"?><!DOCTYPE svg PUBLIC "-//W3C//DTD SVG 1.1//EN" "http://www.w3.org/Graphics/SVG/1.1/DTD/svg11-flat-20030114.dtd"><svg width="998" height="991" version="1.1" xmlns="http://www.w3.org/2000/svg" xmlns:xlink="http://www.w3.org/1999/xlink">

<path style="fill:#9c6" d="M828,963 l48,0 43,-18 35,-33 16,-43 0,-747 -16,-43 -35,-34 -43,-17 -48,0 -42,17 -34,34 -16,43 0,747 16,43 34,33 42,18z" />
<path style="fill:#a3d175" d="M831,954 l42,0 41,-17 28,-31 17,-43 0,-737 -17,-42 -28,-33 -41,-18 -42,0 -40,18 -27,33 -18,42 0,737 18,43 27,31 40,17z" />
<path style="fill:#add684" d="M834,948 l38,0 34,-17 25,-34 13,-40 0,-724 -13,-44 -25,-29 -34,-18 -38,0 -34,18 -26,29 -13,44 0,724 13,40 26,34 34,17z" />
<path style="fill:#b7db94" d="M837,939 l31,0 29,-15 22,-33 12,-42 0,-711 -12,-38 -22,-36 -29,-16 -31,0 -28,16 -23,31 -14,43 0,711 14,42 23,33 28,15z" />
<path style="fill:#c1e0a3" d="M840,935 l26,0 25,-17 18,-31 10,-43 0,-701 -10,-39 -18,-31 -25,-17 -26,0 -25,17 -18,31 -11,39 0,701 11,43 18,31 25,17z" />
<path style="fill:#cbe5b2" d="M843,925 l19,0 20,-16 15,-28 9,-43 0,-689 -9,-39 -15,-31 -20,-18 -19,0 -19,18 -18,31 -6,39 0,689 6,43 18,28 19,16z" />
<path style="fill:#d7ebc2" d="M846,919 l14,0 16,-16 12,-31 6,-40 0,-677 -6,-39 -12,-28 -16,-18 -14,0 -18,18 -10,28 -6,39 0,677 6,40 10,31 18,16z" />
<ellipse style="fill:#e1f0d1" cx="853" cy="495" rx="26" ry="416" />
<ellipse style="fill:#ebf5e1" cx="852" cy="495" rx="15" ry="411" />
<path style="fill:none;stroke:#000;stroke-width:2" d="M828,963 l48,0 43,-18 35,-33 16,-43 0,-747 -16,-43 -35,-34 -43,-17 -48,0 -42,17 -34,34 -16,43 0,747 16,43 34,33 42,18" />
<path style="fill:#9c6" d="M592,963 l49,0 42,-18 34,-33 17,-43 0,-747 -17,-43 -34,-34 -42,-17 -49,0 -41,17 -35,34 -18,43 0,747 18,43 35,33 41,18z" />
<path style="fill:#a3d175" d="M595,954 l44,0 38,-17 28,-31 18,-43 0,-737 -18,-42 -28,-33 -38,-18 -44,0 -38,18 -29,33 -18,42 0,737 18,43 29,31 38,17z" />
<path style="fill:#add684" d="M598,948 l37,0 35,-17 25,-34 14,-40 0,-724 -14,-44 -25,-29 -35,-18 -37,0 -34,18 -25,29 -14,44 0,724 14,40 25,34 34,17z" />
<path style="fill:#b7db94" d="M601,939 l31,0 29,-15 22,-33 12,-42 0,-711 -12,-38 -22,-36 -29,-16 -31,0 -28,16 -22,31 -15,43 0,711 15,42 22,33 28,15z" />
<path style="fill:#c1e0a3" d="M604,935 l25,0 26,-17 16,-31 12,-43 0,-701 -12,-39 -16,-31 -26,-17 -25,0 -25,17 -18,31 -10,39 0,701 10,43 18,31 25,17z" />
<path style="fill:#cbe5b2" d="M607,925 l20,0 19,-16 15,-28 9,-43 0,-689 -9,-39 -15,-31 -19,-18 -20,0 -21,18 -16,31 -6,39 0,689 6,43 16,28 21,16z" />
<path style="fill:#d7ebc2" d="M610,919 l13,0 18,-16 11,-31 6,-40 0,-677 -6,-39 -11,-28 -18,-18 -13,0 -18,18 -10,28 -6,39 0,677 6,40 10,31 18,16z" />
<ellipse style="fill:#e1f0d1" cx="616" cy="495" rx="27" ry="416" />
<ellipse style="fill:#ebf5e1" cx="616" cy="495" rx="15" ry="411" />
<path style="fill:none;stroke:#000;stroke-width:2" d="M592,963 l49,0 42,-18 34,-33 17,-43 0,-747 -17,-43 -34,-34 -42,-17 -49,0 -41,17 -35,34 -18,43 0,747 18,43 35,33 41,18" />
<path style="fill:#9c6" d="M357,963 l49,0 41,-18 35,-33 16,-43 0,-747 -16,-43 -35,-34 -41,-17 -49,0 -42,17 -35,34 -16,43 0,747 16,43 35,33 42,18z" />
<path style="fill:#a3d175" d="M359,954 l42,0 40,-17 29,-31 18,-43 0,-737 -18,-42 -29,-33 -40,-18 -42,0 -40,18 -28,33 -16,42 0,737 16,43 28,31 40,17z" />
<path style="fill:#add684" d="M363,948 l37,0 34,-17 25,-34 14,-40 0,-724 -14,-44 -25,-29 -34,-18 -37,0 -35,18 -25,29 -14,44 0,724 14,40 25,34 35,17z" />
<path style="fill:#b7db94" d="M365,939 l31,0 29,-15 22,-33 12,-42 0,-711 -12,-38 -22,-36 -29,-16 -31,0 -28,16 -22,31 -15,43 0,711 15,42 22,33 28,15z" />
<path style="fill:#c1e0a3" d="M368,935 l26,0 25,-17 16,-31 12,-43 0,-701 -12,-39 -16,-31 -25,-17 -26,0 -25,17 -18,31 -10,39 0,701 10,43 18,31 25,17z" />
<path style="fill:#cbe5b2" d="M371,925 l19,0 20,-16 15,-28 9,-43 0,-689 -9,-39 -15,-31 -20,-18 -19,0 -19,18 -18,31 -6,39 0,689 6,43 18,28 19,16z" />
<path style="fill:#d7ebc2" d="M374,919 l14,0 18,-16 10,-31 6,-40 0,-677 -6,-39 -10,-28 -18,-18 -14,0 -17,18 -11,28 -6,39 0,677 6,40 11,31 17,16z" />
<ellipse style="fill:#e1f0d1" cx="380" cy="495" rx="27" ry="416" />
<ellipse style="fill:#ebf5e1" cx="380" cy="495" rx="15" ry="411" />
<path style="fill:none;stroke:#000;stroke-width:2" d="M357,963 l49,0 41,-18 35,-33 16,-43 0,-747 -16,-43 -35,-34 -41,-17 -49,0 -42,17 -35,34 -16,43 0,747 16,43 35,33 42,18" />
<path style="fill:#9c6" d="M122,963 l48,0 42,-18 34,-33 16,-43 0,-747 -16,-43 -34,-34 -42,-17 -48,0 -43,17 -35,34 -16,43 0,747 16,43 35,33 43,18z" />
<path style="fill:#a3d175" d="M125,954 l42,0 40,-17 27,-31 18,-43 0,-737 -18,-42 -27,-33 -40,-18 -42,0 -41,18 -28,33 -17,42 0,737 17,43 28,31 41,17z" />
<path style="fill:#add684" d="M126,948 l38,0 34,-17 25,-34 14,-40 0,-724 -14,-44 -25,-29 -34,-18 -38,0 -34,18 -25,29 -13,44 0,724 13,40 25,34 34,17z" />
<path style="fill:#b7db94" d="M130,939 l31,0 28,-15 23,-33 11,-42 0,-711 -11,-38 -23,-36 -28,-16 -31,0 -29,16 -22,31 -15,43 0,711 15,42 22,33 29,15z" />
<path style="fill:#c1e0a3" d="M132,935 l26,0 25,-17 18,-31 11,-43 0,-701 -11,-39 -18,-31 -25,-17 -26,0 -25,17 -18,31 -10,39 0,701 10,43 18,31 25,17z" />
<path style="fill:#cbe5b2" d="M136,925 l19,0 19,-16 15,-28 9,-43 0,-689 -9,-39 -15,-31 -19,-18 -19,0 -20,18 -18,31 -6,39 0,689 6,43 18,28 20,16z" />
<path style="fill:#d7ebc2" d="M138,919 l14,0 18,-16 10,-31 6,-40 0,-677 -6,-39 -10,-28 -18,-18 -14,0 -16,18 -12,28 -6,39 0,677 6,40 12,31 16,16z" />
<ellipse style="fill:#e1f0d1" cx="145" cy="495" rx="26" ry="416" />
<ellipse style="fill:#ebf5e1" cx="145" cy="495" rx="15" ry="411" />
<path style="fill:none;stroke:#000;stroke-width:2" d="M122,963 l48,0 42,-18 34,-33 16,-43 0,-747 -16,-43 -34,-34 -42,-17 -48,0 -43,17 -35,34 -16,43 0,747 16,43 35,33 43,18" />

</svg>
