<?xml version="1.0" encoding="utf-8" standalone="no"?><!DOCTYPE svg PUBLIC "-//W3C//DTD SVG 1.1//EN" "http://www.w3.org/Graphics/SVG/1.1/DTD/svg11-flat-20030114.dtd"><svg width="403" height="526" version="1.1" xmlns="http://www.w3.org/2000/svg" xmlns:xlink="http://www.w3.org/1999/xlink">

<path style="fill:#b2b2b2;stroke:#000;stroke-width:2" d="M43,483 l0,-382 4,-12 10,-11 16,-9 21,-9 12,-4 14,-3 14,-3 15,-2 16,-2 16,-2 17,-1 18,0 18,0 17,1 16,2 16,2 15,2 14,3 14,3 12,4 21,9 16,9 10,11 3,6 1,6 0,382 -1,3 -13,8 -16,5 -21,4 -12,2 -14,2 -14,1 -15,2 -16,1 -16,0 -17,1 -18,0 -18,0 -17,-1 -16,0 -16,-1 -15,-2 -14,-1 -14,-2 -23,-4 -19,-4 -13,-5 -7,-6 -1,-3z" />
<path style="fill:#ccc" d="M72,483 l0,-382 3,-12 8,-11 13,-9 18,-9 21,-7 25,-5 27,-4 29,-1 29,1 27,4 24,5 22,7 17,9 14,9 8,11 3,12 0,382 -3,6 -8,5 -14,5 -17,4 -22,4 -24,3 -27,1 -29,1 -29,-1 -27,-1 -25,-3 -21,-4 -18,-4 -13,-5 -8,-5 -3,-6z" />
<path style="fill:#e5e5e5" d="M115,483 l0,-382 2,-12 6,-11 9,-9 12,-9 15,-7 18,-5 19,-4 20,-1 20,1 19,4 18,5 14,7 13,9 9,9 6,11 2,12 0,382 -2,6 -15,10 -13,4 -14,4 -18,3 -19,1 -20,1 -20,-1 -19,-1 -18,-3 -15,-4 -12,-4 -15,-10 -2,-6z" />
<path style="fill:none;stroke:#000;stroke-width:2" d="M389,101 l-14,6 -16,2 -21,2 -12,1 -14,1 -14,0 -15,1 -16,0 -16,1 -70,0 -16,-1 -16,0 -15,-1 -14,0 -14,-1 -23,-2 -19,-2 -13,-3 -8,-4" />
<path style="fill:#7f7f7f;stroke:#000;stroke-width:2" d="M194,43 l7,7 29,0 0,-14 -21,-22 -173,0 -22,22 0,447 29,0 0,-433 7,-7 144,0z" />
<path style="fill:#4c4c4c;stroke:#000;stroke-width:2" d="M43,490 l-29,0 0,-7 22,0 0,-440 7,-7 158,0 8,7 21,0 0,7 -29,0 -7,-7 -144,0 -7,7 0,440z" />

</svg>
