<?xml version="1.0" encoding="utf-8" standalone="no"?><!DOCTYPE svg PUBLIC "-//W3C//DTD SVG 1.1//EN" "http://www.w3.org/Graphics/SVG/1.1/DTD/svg11-flat-20030114.dtd"><svg width="684" height="999" version="1.1" xmlns="http://www.w3.org/2000/svg" xmlns:xlink="http://www.w3.org/1999/xlink">

<path style="fill:#999" d="M28,872 l0,-746 10,-24 21,-18 22,-13 28,-11 33,-10 37,-8 27,-4 28,-4 30,-3 30,-2 16,0 16,-1 16,0 32,1 31,1 30,2 29,4 27,4 26,5 36,9 31,10 26,12 27,16 17,24 2,5 0,5 0,746 -10,24 -21,19 -23,12 -28,11 -32,10 -38,8 -26,4 -28,4 -30,3 -30,2 -16,1 -16,0 -16,0 -32,0 -31,-2 -30,-2 -29,-4 -28,-4 -26,-4 -35,-9 -31,-11 -27,-11 -26,-17 -18,-24 -1,-5 0,-5z" />
<path style="fill:#a8a8a8" d="M70,872 l0,-140 0,-24 0,-23 0,-396 0,-47 0,-116 8,-24 25,-23 29,-15 27,-11 31,-9 34,-6 37,-6 39,-3 14,-1 14,0 14,0 41,1 39,3 37,6 34,6 31,9 27,11 23,11 23,17 15,24 1,5 0,5 0,23 0,117 0,46 0,396 0,47 0,117 -8,24 -25,22 -29,16 -27,10 -31,9 -34,7 -37,6 -39,3 -14,0 -14,1 -13,0 -42,-1 -39,-3 -37,-6 -34,-7 -31,-9 -27,-10 -23,-12 -23,-16 -15,-24 -1,-10z" />
<path style="fill:#b8b8b8" d="M113,872 l0,-140 -1,-24 0,-23 0,-396 1,-47 0,-116 7,-24 20,-23 25,-15 31,-14 27,-8 29,-6 32,-5 34,-3 12,0 12,0 34,1 34,3 31,6 28,6 26,9 30,14 23,16 18,23 4,15 0,5 0,23 0,117 0,46 0,396 0,47 0,117 -7,24 -20,22 -25,16 -31,14 -27,8 -30,6 -31,5 -34,2 -12,1 -11,0 -35,-1 -34,-3 -31,-6 -28,-7 -26,-9 -30,-14 -23,-16 -18,-23 -4,-19z" />
<path style="fill:#c4c4c4" d="M155,872 l0,-140 0,-24 0,-23 0,-396 0,-47 0,-116 8,-29 24,-26 23,-14 27,-13 32,-8 35,-6 18,-2 20,0 19,0 36,4 33,8 30,10 25,14 28,24 14,28 1,10 0,23 0,117 0,46 0,396 0,47 0,117 -8,29 -24,26 -23,14 -27,12 -32,9 -35,6 -18,1 -19,1 -20,-1 -36,-3 -33,-8 -30,-10 -25,-14 -28,-24 -14,-28 -1,-10z" />
<path style="fill:#d4d4d4" d="M197,872 l0,-140 0,-24 0,-23 0,-396 0,-47 0,-116 7,-29 18,-26 28,-21 23,-10 26,-8 28,-4 15,0 14,0 28,4 26,8 23,10 28,21 18,26 6,19 1,10 0,23 0,117 -1,46 0,396 1,47 0,117 -7,29 -18,26 -28,21 -23,10 -26,8 -28,3 -14,1 -15,-1 -28,-3 -26,-8 -23,-10 -28,-21 -18,-26 -7,-29z" />
<path style="fill:#e3e3e3" d="M240,872 l0,-140 0,-24 0,-23 0,-396 0,-47 0,-116 5,-29 12,-26 20,-21 25,-14 29,-8 11,0 10,0 29,8 25,14 20,21 13,26 3,19 1,10 0,23 0,117 0,46 0,396 0,47 0,117 -4,29 -13,26 -20,21 -25,14 -29,7 -10,1 -11,-1 -29,-7 -25,-14 -20,-21 -12,-26 -5,-29z" />
<path style="fill:#f2f2f2" d="M283,872 l0,-746 2,-29 8,-26 16,-26 21,-15 6,-1 6,-1 6,1 27,16 16,26 7,26 3,19 0,10 0,746 -3,29 -7,26 -16,27 -21,14 -6,2 -6,0 -6,0 -27,-16 -16,-27 -8,-26 -2,-19 0,-10z" />
<path style="fill:none;stroke:#000;stroke-width:2" d="M28,872 l0,-746 10,-24 21,-18 22,-13 28,-11 33,-10 37,-8 27,-4 28,-4 30,-3 30,-2 16,0 16,-1 16,0 32,1 31,1 30,2 29,4 27,4 26,5 36,9 31,10 26,12 27,16 17,24 2,5 0,5 0,746 -10,24 -21,19 -23,12 -28,11 -32,10 -38,8 -26,4 -28,4 -30,3 -30,2 -16,1 -16,0 -16,0 -32,0 -31,-2 -30,-2 -29,-4 -28,-4 -26,-4 -35,-9 -31,-11 -27,-11 -26,-17 -18,-24 -1,-5 0,-5" />
<path style="fill:none;stroke:#000;stroke-width:2" d="M656,872 l-628,0" />
<path style="fill:none;stroke:#000;stroke-width:2" d="M499,872 l0,-746" />
<path style="fill:none;stroke:#000;stroke-width:2" d="M656,126 l-628,0" />
<path style="fill:#7f7f7f" d="M617,97 l-20,0 0,19 20,0 0,-19z" />
<path style="fill:#7f7f7f" d="M558,97 l-20,0 0,19 20,0 0,-19z" />
<path style="fill:#7f7f7f" d="M499,97 l-20,0 0,19 20,0 0,-19z" />
<path style="fill:#7f7f7f" d="M440,97 l-20,0 0,19 20,0 0,-19z" />
<path style="fill:#7f7f7f" d="M381,97 l-19,0 0,19 19,0 0,-19z" />
<path style="fill:#7f7f7f" d="M322,97 l-19,0 0,19 19,0 0,-19z" />
<path style="fill:#7f7f7f" d="M263,97 l-19,0 0,19 19,0 0,-19z" />
<path style="fill:#7f7f7f" d="M205,97 l-20,0 0,19 20,0 0,-19z" />
<path style="fill:#7f7f7f" d="M146,97 l-20,0 0,19 20,0 0,-19z" />
<path style="fill:#7f7f7f" d="M87,97 l-20,0 0,19 20,0 0,-19z" />
<path style="fill:#7f7f7f" d="M484,863 l0,-20 -20,0 0,20 20,0z" />
<path style="fill:#7f7f7f" d="M484,804 l0,-20 -20,0 0,20 20,0z" />
<path style="fill:#7f7f7f" d="M484,745 l0,-20 -20,0 0,20 20,0z" />
<path style="fill:#7f7f7f" d="M484,686 l0,-20 -20,0 0,20 20,0z" />
<path style="fill:#7f7f7f" d="M484,627 l0,-19 -20,0 0,19 20,0z" />
<path style="fill:#7f7f7f" d="M484,568 l0,-20 -20,0 0,20 20,0z" />
<path style="fill:#7f7f7f" d="M484,509 l0,-20 -20,0 0,20 20,0z" />
<path style="fill:#7f7f7f" d="M484,450 l0,-19 -20,0 0,19 20,0z" />
<path style="fill:#7f7f7f" d="M484,391 l0,-19 -20,0 0,19 20,0z" />
<path style="fill:#7f7f7f" d="M484,333 l0,-20 -20,0 0,20 20,0z" />
<path style="fill:#7f7f7f" d="M484,274 l0,-20 -20,0 0,20 20,0z" />
<path style="fill:#7f7f7f" d="M484,215 l0,-20 -20,0 0,20 20,0z" />
<path style="fill:#7f7f7f" d="M484,156 l0,-20 -20,0 0,20 20,0z" />
<path style="fill:#7f7f7f" d="M617,882 l-20,0 0,20 20,0 0,-20z" />
<path style="fill:#7f7f7f" d="M558,882 l-20,0 0,20 20,0 0,-20z" />
<path style="fill:#7f7f7f" d="M499,882 l-20,0 0,20 20,0 0,-20z" />
<path style="fill:#7f7f7f" d="M440,882 l-20,0 0,20 20,0 0,-20z" />
<path style="fill:#7f7f7f" d="M381,882 l-19,0 0,20 19,0 0,-20z" />
<path style="fill:#7f7f7f" d="M322,882 l-19,0 0,20 19,0 0,-20z" />
<path style="fill:#7f7f7f" d="M263,882 l-19,0 0,20 19,0 0,-20z" />
<path style="fill:#7f7f7f" d="M205,882 l-20,0 0,20 20,0 0,-20z" />
<path style="fill:#7f7f7f" d="M146,882 l-20,0 0,20 20,0 0,-20z" />
<path style="fill:#7f7f7f" d="M87,882 l-20,0 0,20 20,0 0,-20z" />

</svg>
