<?xml version="1.0" encoding="utf-8" standalone="no"?><!DOCTYPE svg PUBLIC "-//W3C//DTD SVG 1.1//EN" "http://www.w3.org/Graphics/SVG/1.1/DTD/svg11-flat-20030114.dtd"><svg width="353" height="999" version="1.1" xmlns="http://www.w3.org/2000/svg" xmlns:xlink="http://www.w3.org/1999/xlink">

<path style="fill:#c93" d="M218,28 l-77,0 0,73 77,0 0,-73z" />
<path style="fill:#deab45" d="M207,28 l-56,0 0,75 56,0 0,-75z" />
<path style="fill:#edba54" d="M197,28 l-36,0 0,75 36,0 0,-75z" />
<path style="fill:#fc6" d="M186,28 l-15,0 0,73 15,0 0,-73z" />
<path style="fill:none;stroke:#000;stroke-width:2" d="M218,28 l-77,0 0,73 77,0 0,-73" />
<path style="fill:#c93" d="M84,775 l-18,-25 -13,-28 -8,-30 -2,-24 0,-8 0,-463 5,-30 17,-26 27,-21 32,-15 39,-7 13,-1 14,1 38,7 34,15 26,21 17,26 6,20 1,10 0,463 -3,32 -8,30 -14,28 -14,19 -5,6 -184,0z" />
<path style="fill:#d6a33d" d="M99,775 l-16,-25 -11,-29 -7,-31 -2,-32 0,-60 0,-35 0,-32 0,-48 -1,-11 0,-12 0,-62 1,-39 0,-47 0,-54 0,-30 0,-33 5,-29 15,-26 21,-21 28,-14 33,-7 11,-1 12,1 33,7 28,14 22,21 15,26 4,19 1,10 0,14 0,46 0,35 -1,33 0,47 0,38 0,48 0,39 0,46 1,54 0,31 0,32 -3,32 -6,31 -12,29 -11,19 -4,6 -9,0 -147,0z" />
<path style="fill:#e0ad47" d="M112,775 l-12,-25 -10,-29 -6,-31 -1,-16 -1,-8 0,-8 0,-463 4,-29 12,-26 19,-21 23,-14 27,-7 9,-1 10,1 27,7 23,14 19,21 11,26 4,19 0,10 0,14 0,457 -3,32 -6,30 -9,28 -7,13 -3,6 -8,0 -122,0z" />
<path style="fill:#ebb852" d="M127,775 l-11,-25 -7,-29 -5,-31 -1,-16 0,-8 0,-8 0,-463 3,-29 10,-26 20,-26 26,-15 7,-1 7,-1 8,1 28,11 22,24 11,24 6,28 0,10 0,14 0,35 -1,29 0,34 0,33 0,99 0,36 1,42 0,50 0,28 0,31 0,32 -1,32 -5,31 -8,29 -7,19 -3,6 -6,0 -94,0z" />
<path style="fill:#f5c25c" d="M141,775 l-8,-25 -5,-29 -4,-31 0,-16 0,-8 0,-8 0,-463 2,-29 7,-26 14,-26 24,-16 5,-1 6,1 25,16 15,26 6,26 2,19 1,10 0,14 0,457 -2,32 -3,30 -6,28 -4,13 -2,6 -4,0 -69,0z" />
<path style="fill:#fc6" d="M154,775 l-5,-32 -3,-28 -1,-31 0,-8 -1,-8 0,-8 0,-463 2,-30 4,-26 9,-27 14,-16 3,-1 4,1 18,22 8,29 4,28 0,10 0,10 0,463 0,32 -2,30 -3,28 -3,19 -1,6 -47,0z" />
<path style="fill:none;stroke:#000;stroke-width:2" d="M84,775 l-18,-25 -13,-28 -8,-30 -2,-24 0,-8 0,-463 5,-30 17,-26 27,-21 32,-15 39,-7 13,-1 14,1 38,7 34,15 26,21 17,26 6,20 1,10 0,463 -3,32 -8,30 -14,28 -14,19 -5,6 -184,0" />
<path style="fill:#4c4c4c;stroke:#000;stroke-width:2" d="M325,934 l-10,-25 -9,-32 -9,-33 -9,-33 -9,-28 -3,-8 -12,0 -186,0 -9,26 -10,32 -9,33 -10,33 -9,28 -3,7 2,-3 17,-22 16,-24 16,-21 7,-2 6,0 25,27 16,34 14,32 5,9 4,6 10,0 35,0 12,-24 15,-34 16,-32 17,-18 7,0 6,2 16,21 16,24 16,22 3,3z" />
<path style="fill:#333;stroke:#000;stroke-width:2" d="M154,805 l17,141 17,0 17,-141 -51,0z" />
<path style="fill:none;stroke:#000;stroke-width:2" d="M308,677 l-265,0" />
<path style="fill:none;stroke:#000;stroke-width:2" d="M308,186 l-265,0" />
<path style="fill:none;stroke:#000;stroke-width:2" d="M141,52 l77,0" />

</svg>
