<?xml version="1.0" encoding="utf-8" standalone="no"?><!DOCTYPE svg PUBLIC "-//W3C//DTD SVG 1.1//EN" "http://www.w3.org/Graphics/SVG/1.1/DTD/svg11-flat-20030114.dtd"><svg width="309" height="530" version="1.1" xmlns="http://www.w3.org/2000/svg" xmlns:xlink="http://www.w3.org/1999/xlink">

<path style="fill:#366;stroke:#000;stroke-width:2" d="M103,21 l-42,0 0,38 42,0 0,-38z" />
<path style="fill:#4c7f7f" d="M99,21 l-33,0 0,38 33,0 0,-38z" />
<path style="fill:#699" d="M92,21 l-20,0 0,38 20,0 0,-38z" />
<path style="fill:#9cc" d="M84,21 l-4,0 0,38 4,0 0,-38z" />
<path style="fill:#194c4c;stroke:#000;stroke-width:2" d="M244,495 l0,-434 -104,-33 -104,33 0,434 208,0z" />
<path style="fill:#366" d="M236,495 l0,-434 -96,-33 -95,33 0,434 191,0z" />
<path style="fill:#4c7f7f" d="M223,495 l0,-434 -83,-33 -82,33 0,434 165,0z" />
<path style="fill:#699" d="M201,495 l0,-434 -61,-33 -61,33 0,434 122,0z" />
<path style="fill:#7fb2b2" d="M175,495 l0,-434 -35,-33 -34,33 0,434 69,0z" />
<path style="fill:#9cc" d="M149,495 l0,-434 -9,-33 -8,33 0,434 17,0z" />
<path style="fill:#666;stroke:#000;stroke-width:2" d="M265,494 l-250,0 0,21 250,0 0,-21z" />
<path style="fill:#366" d="M109,15 l-54,0 0,6 54,0 0,-6z" />
<path style="fill:#4c7f7f" d="M104,15 l-43,0 0,6 43,0 0,-6z" />
<path style="fill:#699" d="M95,15 l-26,0 0,6 26,0 0,-6z" />
<path style="fill:#9cc" d="M85,15 l-6,0 0,6 6,0 0,-6z" />
<path style="fill:none;stroke:#000;stroke-width:2" d="M109,15 l-54,0 0,6 54,0 0,-6" />
<path style="fill:#366;stroke:#000;stroke-width:2" d="M282,415 l0,-72 -38,0 0,72 38,0z" />
<path style="fill:#4c7f7f" d="M282,408 l0,-58 -38,0 0,58 38,0z" />
<path style="fill:#699" d="M282,397 l0,-36 -38,0 0,36 38,0z" />
<path style="fill:#9cc" d="M282,383 l0,-8 -38,0 0,8 38,0z" />
<path style="fill:#366" d="M294,425 l0,-92 -12,0 0,92 12,0z" />
<path style="fill:#4c7f7f" d="M294,416 l0,-74 -12,0 0,74 12,0z" />
<path style="fill:#699" d="M294,402 l0,-46 -12,0 0,46 12,0z" />
<path style="fill:#9cc" d="M294,384 l0,-10 -12,0 0,10 12,0z" />
<path style="fill:none;stroke:#000;stroke-width:2" d="M294,425 l0,-92 -12,0 0,92 12,0" />
<path style="fill:none;stroke:#699;stroke-width:2" d="M244,62 l-208,0" />

</svg>
