<?xml version="1.0" encoding="utf-8" standalone="no"?><!DOCTYPE svg PUBLIC "-//W3C//DTD SVG 1.1//EN" "http://www.w3.org/Graphics/SVG/1.1/DTD/svg11-flat-20030114.dtd"><svg width="683" height="999" version="1.1" xmlns="http://www.w3.org/2000/svg" xmlns:xlink="http://www.w3.org/1999/xlink">

<path style="fill:#7f7f7f" d="M28,700 l0,2 25,18 28,12 28,10 33,10 37,8 27,5 28,4 29,4 31,2 31,1 16,1 16,-1 32,-1 31,-2 29,-4 28,-4 27,-5 36,-8 33,-10 28,-10 29,-12 23,-16 2,-2 0,-2 0,-590 -14,-24 -24,-15 -25,-10 -29,-9 -34,-8 -38,-6 -28,-4 -29,-2 -30,-3 -31,-1 -16,0 -16,0 -32,0 -31,1 -30,3 -29,2 -27,4 -38,6 -34,8 -30,9 -24,10 -24,15 -14,20 0,4 0,590z" />
<path style="fill:#8f8f8f" d="M62,700 l0,2 22,17 26,11 25,9 29,8 33,8 37,6 38,5 27,2 14,1 14,0 14,0 28,0 40,-3 39,-5 35,-6 33,-8 29,-8 24,-9 26,-11 22,-17 0,-2 0,-18 0,-31 -1,-40 0,-33 0,-31 0,-101 0,-36 0,-66 0,-26 0,-59 1,-33 0,-36 0,-38 0,-42 -12,-24 -21,-15 -31,-13 -27,-8 -31,-7 -35,-6 -37,-4 -40,-2 -14,-1 -14,0 -14,0 -28,0 -41,2 -38,4 -37,5 -33,6 -29,8 -25,9 -26,14 -19,20 -3,8 0,4 0,18 0,572z" />
<path style="fill:#9c9c9c" d="M99,700 l19,18 29,13 32,11 27,6 31,7 32,4 36,4 11,0 13,1 12,0 36,-1 35,-4 33,-4 29,-7 28,-6 30,-11 24,-11 22,-16 1,-2 1,-2 0,-18 0,-572 -11,-24 -24,-18 -27,-13 -25,-8 -28,-6 -31,-5 -33,-4 -36,-2 -11,0 -13,0 -36,1 -36,2 -32,4 -31,6 -27,7 -24,8 -27,13 -21,18 -8,17 0,4 0,18 0,572z" />
<path style="fill:#ababab" d="M137,700 l20,19 26,12 28,10 32,7 27,5 30,3 20,2 11,0 10,0 41,-2 38,-4 34,-7 30,-9 25,-10 26,-14 8,-8 1,-4 0,-18 0,-572 -9,-24 -26,-22 -25,-11 -30,-10 -34,-7 -38,-5 -20,-1 -21,0 -10,0 -31,1 -29,3 -27,5 -33,8 -27,11 -22,13 -21,22 -5,35 0,31 0,39 0,33 0,63 -1,12 1,12 0,101 0,46 0,26 0,29 0,64 0,35 0,39 1,42z" />
<path style="fill:#bababa" d="M172,700 l20,20 29,13 25,8 28,6 32,4 16,1 17,1 17,-1 33,-3 31,-5 27,-7 32,-12 26,-18 2,-3 1,-4 0,-18 0,-572 -7,-24 -21,-22 -33,-17 -26,-8 -30,-6 -33,-3 -17,0 -17,0 -33,3 -30,6 -27,8 -23,11 -26,20 -12,24 -1,8 0,18 0,572z" />
<path style="fill:#c9c9c9" d="M210,700 l22,23 24,11 32,8 38,5 13,0 14,0 37,-5 33,-8 26,-11 21,-16 2,-3 1,-4 0,-18 0,-572 -11,-32 -20,-20 -28,-15 -34,-10 -26,-3 -13,0 -13,0 -38,6 -33,11 -25,17 -16,22 -6,42 0,58 0,34 0,31 -1,32 0,49 0,15 0,16 0,78 0,50 0,60 1,33 0,74 0,42z" />
<path style="fill:#d6d6d6" d="M245,700 l17,21 25,12 33,7 10,1 9,0 10,0 28,-4 31,-10 25,-17 3,-7 1,-3 0,-18 -1,-31 0,-40 0,-33 0,-63 0,-125 0,-46 0,-26 0,-28 0,-64 1,-36 0,-38 0,-42 -7,-32 -21,-25 -22,-14 -27,-8 -9,-1 -10,0 -10,0 -28,6 -23,11 -23,24 -11,31 -1,8 0,18 0,572z" />
<path style="fill:#e5e5e5" d="M283,700 l12,22 27,12 11,1 6,1 6,-1 28,-6 23,-16 5,-10 0,-3 0,-590 -4,-31 -13,-27 -19,-18 -17,-6 -7,0 -6,0 -26,14 -16,23 -9,29 -1,8 0,8 0,590z" />
<path style="fill:none;stroke:#000;stroke-width:2" d="M28,700 l0,2 25,18 28,12 28,10 33,10 37,8 27,5 28,4 29,4 31,2 31,1 16,1 16,-1 32,-1 31,-2 29,-4 28,-4 27,-5 36,-8 33,-10 28,-10 29,-12 23,-16 2,-2 0,-2 0,-590 -14,-24 -24,-15 -25,-10 -29,-9 -34,-8 -38,-6 -28,-4 -29,-2 -30,-3 -31,-1 -16,0 -16,0 -32,0 -31,1 -30,3 -29,2 -27,4 -38,6 -34,8 -30,9 -24,10 -24,15 -14,20 0,4 0,590" />
<path style="fill:#999;stroke:#000;stroke-width:2" d="M144,938 l0,-279 -84,34 0,245 -17,0 0,15 118,0 0,-15 -17,0z" />
<path style="fill:#999;stroke:#000;stroke-width:2" d="M535,938 l0,-279 86,34 0,245 15,0 0,17 -116,0 0,-17 15,0z" />
<path style="fill:#7f7f7f;stroke:#000;stroke-width:2" d="M653,955 l-154,0 0,15 154,0 0,-15z" />
<path style="fill:#7f7f7f;stroke:#000;stroke-width:2" d="M182,955 l-154,0 0,15 154,0 0,-15z" />
<path style="fill:#f2fff2;stroke:#000;stroke-width:2" d="M398,257 l-107,0 0,58 107,0 0,-58z" />
<ellipse style="fill:none;stroke:#7f7f7f;stroke-width:2" cx="338" cy="485" rx="156" ry="161" />
<ellipse style="fill:#999;stroke:#000;stroke-width:2" cx="338" cy="486" rx="117" ry="122" />
<circle style="fill:#ccc;stroke:#000;stroke-width:2" cx="338" cy="481" r="117" />
<path style="fill:#999;stroke:#000;stroke-width:2" d="M516,540 l-118,0 0,19 118,0 0,-19z" />
<path style="fill:#999;stroke:#000;stroke-width:2" d="M516,403 l-118,0 0,19 118,0 0,-19z" />
<path style="fill:#b2b2b2;stroke:#000;stroke-width:2" d="M163,461 l-34,0 0,59 34,0 0,-59z" />
<path style="fill:#b2b2b2;stroke:#000;stroke-width:2" d="M114,467 l-21,0 0,53 21,0 0,-53z" />

</svg>
