<?xml version="1.0" encoding="utf-8" standalone="no"?><!DOCTYPE svg PUBLIC "-//W3C//DTD SVG 1.1//EN" "http://www.w3.org/Graphics/SVG/1.1/DTD/svg11-flat-20030114.dtd"><svg width="530" height="238" version="1.1" xmlns="http://www.w3.org/2000/svg" xmlns:xlink="http://www.w3.org/1999/xlink">

<path style="fill:#b2b2b2;stroke:#000;stroke-width:2" d="M57,223 l416,0 8,-2 15,-16 7,-12 5,-16 4,-17 2,-20 1,-21 -1,-21 -2,-19 -4,-18 -5,-15 -7,-13 -15,-16 -8,-2 -416,0 -8,2 -15,16 -7,13 -5,15 -4,18 -2,19 -1,21 1,21 2,20 4,17 5,16 7,12 15,16 8,2z" />
<path style="fill:#7f7f7f" d="M473,18 l0,26 -18,0 -22,0 -25,0 -28,0 -30,0 -32,0 -33,0 -33,0 -33,0 -33,0 -32,0 -30,0 -28,0 -25,0 -22,0 -18,0 3,-6 4,-8 7,-8 9,-4 419,0z" />
<path style="fill:#7f7f7f" d="M473,221 l0,-26 -18,0 -22,0 -25,0 -28,0 -30,0 -32,0 -33,0 -33,0 -33,0 -33,0 -32,0 -30,0 -28,0 -25,0 -22,0 -18,0 3,6 4,8 7,7 9,5 419,0z" />
<path style="fill:#999" d="M473,44 l0,39 -453,0 3,-17 6,-17 2,-5 442,0z" />
<path style="fill:#999" d="M473,195 l0,-39 -453,0 3,16 6,18 2,5 442,0z" />
<ellipse style="fill:#999;stroke:#000;stroke-width:2" cx="473" cy="119" rx="41" ry="104" />
<ellipse style="fill:none;stroke:#000;stroke-width:2" cx="468" cy="119" rx="42" ry="104" />
<path style="fill:#b2b2b2;stroke:#000;stroke-width:2" d="M482,223 l25,0 3,-2 2,-4 2,-6 1,-8 -1,-8 -2,-7 -2,-4 -3,-2 -25,0 -4,2 -2,4 -2,7 -1,8 1,8 2,6 2,4 4,2z" />
<ellipse style="fill:#4c4c4c;stroke:#000;stroke-width:2" cx="506" cy="202" rx="8" ry="20" />
<path style="fill:none;stroke:#000;stroke-width:2" d="M338,15 l-8,2 -8,6 -7,10 -7,13 -5,15 -4,18 -2,19 -1,21 1,21 2,20 4,17 5,16 7,12 7,10 8,6 8,2" />
<path style="fill:none;stroke:#000;stroke-width:2" d="M192,15 l-8,2 -8,6 -7,10 -7,13 -5,15 -4,18 -2,19 -1,21 1,21 2,20 4,17 5,16 7,12 7,10 8,6 8,2" />

</svg>
