<?xml version="1.0" encoding="utf-8" standalone="no"?><!DOCTYPE svg PUBLIC "-//W3C//DTD SVG 1.1//EN" "http://www.w3.org/Graphics/SVG/1.1/DTD/svg11-flat-20030114.dtd"><svg width="637" height="999" version="1.1" xmlns="http://www.w3.org/2000/svg" xmlns:xlink="http://www.w3.org/1999/xlink">

<path style="fill:#7f7f7f" d="M63,123 l0,679 510,0 0,-679 -510,0z" />
<path style="fill:#999" d="M95,123 l0,679 448,0 0,-679 -448,0z" />
<path style="fill:#b2b2b2" d="M147,123 l0,679 343,0 0,-679 -343,0z" />
<path style="fill:#ccc" d="M202,123 l0,679 233,0 0,-679 -233,0z" />
<path style="fill:#e5e5e5" d="M243,123 l0,679 151,0 0,-679 -151,0z" />
<path style="fill:#fff" d="M287,123 l0,679 62,0 0,-679 -62,0z" />
<path style="fill:none;stroke:#000;stroke-width:2" d="M573,802 l0,-679" />
<path style="fill:none;stroke:#000;stroke-width:2" d="M63,123 l0,679" />
<path style="fill:#b2b2b2;stroke:#000;stroke-width:2" d="M590,921 l-27,0 0,43 27,0 0,-43z" />
<path style="fill:#b2b2b2;stroke:#000;stroke-width:2" d="M73,921 l-29,0 0,43 29,0 0,-43z" />
<path style="fill:#b2b2b2;stroke:#000;stroke-width:2" d="M609,970 l-64,0 0,-6 64,0 0,6z" />
<path style="fill:#b2b2b2;stroke:#000;stroke-width:2" d="M90,970 l-62,0 0,-6 62,0 0,6z" />
<path style="fill:#7f7f7f;stroke:#000;stroke-width:2" d="M590,921 l-6,0 0,43 6,0 0,-43z" />
<path style="fill:#7f7f7f;stroke:#000;stroke-width:2" d="M73,921 l-6,0 0,43 6,0 0,-43z" />
<path style="fill:#7f7f7f;stroke:#000;stroke-width:2" d="M609,970 l-15,0 0,-6 15,0 0,6z" />
<path style="fill:#7f7f7f;stroke:#000;stroke-width:2" d="M90,970 l-13,0 0,-6 13,0 0,6z" />
<path style="fill:#4c4c4c;stroke:#000;stroke-width:2" d="M518,50 l-400,0 0,50 400,0 0,-50z" />
<path style="fill:#ccc;stroke:#000;stroke-width:2" d="M573,123 l-510,0 0,-17 111,-35 143,-16 145,16 111,35 0,17z" />
<path style="fill:#7f7f7f;stroke:#000;stroke-width:2" d="M381,123 l-126,0 0,-67 27,-20 35,-8 35,8 29,20 0,67z" />
<path style="fill:none;stroke:#000;stroke-width:2" d="M79,127 l0,676" />
<path style="fill:none;stroke:#000;stroke-width:2" d="M114,127 l0,676" />
<path style="fill:none;stroke:#000;stroke-width:2" d="M148,127 l0,676" />
<path style="fill:none;stroke:#000;stroke-width:2" d="M183,127 l0,676" />
<path style="fill:none;stroke:#000;stroke-width:2" d="M216,127 l0,676" />
<path style="fill:none;stroke:#000;stroke-width:2" d="M251,127 l0,676" />
<path style="fill:none;stroke:#000;stroke-width:2" d="M284,127 l0,676" />
<path style="fill:none;stroke:#000;stroke-width:2" d="M317,127 l0,676" />
<path style="fill:none;stroke:#000;stroke-width:2" d="M352,127 l0,676" />
<path style="fill:none;stroke:#000;stroke-width:2" d="M385,127 l0,676" />
<path style="fill:none;stroke:#000;stroke-width:2" d="M420,127 l0,676" />
<path style="fill:none;stroke:#000;stroke-width:2" d="M454,127 l0,676" />
<path style="fill:none;stroke:#000;stroke-width:2" d="M489,127 l0,676" />
<path style="fill:none;stroke:#000;stroke-width:2" d="M522,127 l0,676" />
<path style="fill:none;stroke:#000;stroke-width:2" d="M557,127 l0,676" />
<path style="fill:#f0f0f0;stroke:#000;stroke-width:2" d="M458,377 l-279,0 0,70 279,0 0,-70z" />
<path style="fill:#4c4c4c;stroke:#000;stroke-width:2" d="M596,923 l-138,8 -141,0 -138,0 -139,-8 0,-120 556,0 0,120z" />
<path style="fill:none;stroke:#000;stroke-width:2" d="M573,123 l-510,0 0,680 510,0 0,-680" />
<path style="fill:#7f7f7f;stroke:#000;stroke-width:2" d="M573,123 l-510,0 0,-23 510,0 0,23z" />
<path style="fill:#7f7f7f" d="M569,123 l-16,0 0,10 16,0 0,-10z" />
<path style="fill:#7f7f7f" d="M104,123 l-17,0 0,10 17,0 0,-10z" />
<path style="fill:#7f7f7f" d="M325,123 l-14,0 0,10 14,0 0,-10z" />
<path style="fill:#7f7f7f" d="M214,123 l-15,0 0,10 15,0 0,-10z" />
<path style="fill:#7f7f7f" d="M445,123 l-16,0 0,10 16,0 0,-10z" />
<path style="fill:none;stroke:#000;stroke-width:2" d="M445,393 l-76,0" />
<path style="fill:none;stroke:#000;stroke-width:2" d="M334,393 l-129,0" />
<path style="fill:none;stroke:#000;stroke-width:2" d="M292,408 l-99,0" />
<path style="fill:none;stroke:#000;stroke-width:2" d="M344,427 l-153,0" />
<path style="fill:none;stroke:#000;stroke-width:2" d="M325,408 l122,0" />
<path style="fill:none;stroke:#000;stroke-width:2" d="M377,427 l68,0" />

</svg>
