<?xml version="1.0" encoding="utf-8" standalone="no"?><!DOCTYPE svg PUBLIC "-//W3C//DTD SVG 1.1//EN" "http://www.w3.org/Graphics/SVG/1.1/DTD/svg11-flat-20030114.dtd"><svg width="217" height="530" version="1.1" xmlns="http://www.w3.org/2000/svg" xmlns:xlink="http://www.w3.org/1999/xlink">

<path style="fill:#b2b2b2;stroke:#000;stroke-width:2" d="M187,501 l0,-443 -2,-6 -13,-10 -10,-5 -13,-3 -14,-3 -17,-1 -17,-1 -17,1 -16,1 -15,3 -13,3 -18,10 -5,5 -2,6 0,443 2,3 13,5 23,4 15,1 16,1 34,0 17,-1 14,-1 23,-4 13,-5 2,-3z" />
<path style="fill:#ccc" d="M173,501 l0,-443 -1,-6 -11,-10 -20,-8 -25,-4 -15,-1 -14,1 -14,1 -23,6 -15,10 -5,5 -1,6 0,443 1,3 20,7 23,3 14,1 29,0 25,-2 20,-4 11,-5 1,-3z" />
<path style="fill:#e5e5e5" d="M151,501 l0,-443 -1,-6 -14,-15 -15,-6 -20,-2 -20,2 -16,6 -10,10 -3,5 -1,6 0,443 1,3 13,7 16,3 10,1 20,0 18,-2 14,-4 7,-5 1,-3z" />
<path style="fill:none;stroke:#000;stroke-width:2" d="M15,59 l2,1 5,2 8,1 10,1 13,1 15,0 16,1 17,0 17,0 17,-1 14,0 13,-1 10,-1 8,-1 5,-2 2,-1" />
<path style="fill:#7f7f7f;stroke:#000;stroke-width:2" d="M112,29 l-4,4 -14,0 0,-7 11,-11 86,0 11,11 0,475 -15,0 0,-468 -3,-4 -72,0z" />
<path style="fill:#4c4c4c;stroke:#000;stroke-width:2" d="M187,504 l15,0 0,-4 -11,0 0,-471 -4,-3 -79,0 -3,3 -11,0 0,4 14,0 4,-4 72,0 3,4 0,471z" />

</svg>
