<?xml version="1.0" encoding="utf-8" standalone="no"?><!DOCTYPE svg PUBLIC "-//W3C//DTD SVG 1.1//EN" "http://www.w3.org/Graphics/SVG/1.1/DTD/svg11-flat-20030114.dtd"><svg width="763" height="999" version="1.1" xmlns="http://www.w3.org/2000/svg" xmlns:xlink="http://www.w3.org/1999/xlink">

<path style="fill:#999" d="M145,199 l-34,0 0,536 34,0 0,-536z" />
<path style="fill:#999" d="M652,199 l-36,0 0,536 36,0 0,-536z" />
<path style="fill:#7f7f7f;stroke:#000;stroke-width:2" d="M167,661 l-17,-17 445,-426 17,17 -445,426z" />
<path style="fill:#7f7f7f;stroke:#000;stroke-width:2" d="M622,848 l-25,0 0,-820 25,0 0,820z" />
<path style="fill:#7f7f7f;stroke:#000;stroke-width:2" d="M676,891 l0,-21 -39,-22 -53,0 -40,22 0,21 132,0z" />
<path style="fill:#7f7f7f;stroke:#000;stroke-width:2" d="M150,220 l17,-15 445,426 -17,17 -445,-428z" />
<path style="fill:#7f7f7f;stroke:#000;stroke-width:2" d="M163,848 l-24,0 0,-820 24,0 0,820z" />
<path style="fill:#7f7f7f;stroke:#000;stroke-width:2" d="M218,891 l0,-21 -39,-22 -53,0 -40,22 0,21 132,0z" />
<path style="fill:none;stroke:#000;stroke-width:2" d="M676,870 l-132,0" />
<path style="fill:none;stroke:#000;stroke-width:2" d="M218,870 l-132,0" />
<path style="fill:#7f7f7f" d="M124,752 l-21,-21 535,-534 21,21 -535,534z" />
<path style="fill:#e5e5e5" d="M118,744 l-7,-6 533,-533 8,6 -534,533z" />
<path style="fill:none;stroke:#000;stroke-width:2" d="M124,752 l-21,-21 535,-534 21,21 -535,534" />
<path style="fill:#7f7f7f" d="M103,218 l21,-21 535,534 -21,21 -535,-534z" />
<path style="fill:#e5e5e5" d="M111,211 l7,-6 534,533 -8,6 -533,-533z" />
<path style="fill:none;stroke:#000;stroke-width:2" d="M103,218 l21,-21 535,534 -21,21 -535,-534" />
<path style="fill:#7f7f7f" d="M671,921 l-31,0 0,-893 31,0 0,893z" />
<path style="fill:#7f7f7f" d="M120,921 l-28,0 0,-893 28,0 0,893z" />
<path style="fill:#7f7f7f" d="M184,970 l0,-26 -45,-27 -66,0 -45,27 0,26 156,0z" />
<path style="fill:#7f7f7f" d="M735,970 l0,-26 -46,-27 -66,0 -45,27 0,26 157,0z" />
<path style="fill:#b2b2b2" d="M156,970 l0,-26 -30,-27 -40,0 -28,27 0,26 98,0z" />
<path style="fill:#b2b2b2" d="M704,970 l0,-26 -28,-27 -41,0 -29,27 0,26 98,0z" />
<path style="fill:#e5e5e5" d="M671,970 l0,-26 -8,-27 -13,0 -10,27 0,26 31,0z" />
<path style="fill:#e5e5e5" d="M120,970 l0,-26 -7,-27 -14,0 -7,27 0,26 28,0z" />
<path style="fill:#e5e5e5" d="M111,921 l-10,0 0,-893 10,0 0,893z" />
<path style="fill:#e5e5e5" d="M661,921 l-9,0 0,-893 9,0 0,893z" />
<path style="fill:none;stroke:#000;stroke-width:2" d="M735,944 l-157,0" />
<path style="fill:none;stroke:#000;stroke-width:2" d="M184,944 l-156,0" />
<path style="fill:none;stroke:#000;stroke-width:2" d="M184,970 l0,-26 -45,-27 -66,0 -45,27 0,26 156,0" />
<path style="fill:none;stroke:#000;stroke-width:2" d="M120,917 l-28,0 0,-889 28,0 0,889" />
<path style="fill:none;stroke:#000;stroke-width:2" d="M671,917 l-31,0 0,-889 31,0 0,889" />
<path style="fill:none;stroke:#000;stroke-width:2" d="M735,970 l0,-26 -46,-27 -66,0 -45,27 0,26 157,0" />

</svg>
