<?xml version="1.0" encoding="utf-8" standalone="no"?><!DOCTYPE svg PUBLIC "-//W3C//DTD SVG 1.1//EN" "http://www.w3.org/Graphics/SVG/1.1/DTD/svg11-flat-20030114.dtd"><svg width="999" height="509" version="1.1" xmlns="http://www.w3.org/2000/svg" xmlns:xlink="http://www.w3.org/1999/xlink">

<path style="fill:#7f7f7f;stroke:#000;stroke-width:2" d="M729,424 l61,0 -121,57 0,-30 60,-27z" />
<path style="fill:#7f7f7f;stroke:#000;stroke-width:2" d="M218,424 l61,0 -121,57 0,-30 60,-27z" />
<path style="fill:#b2b2b2;stroke:#000;stroke-width:2" d="M758,424 l62,0 -121,57 0,-30 59,-27z" />
<path style="fill:#b2b2b2;stroke:#000;stroke-width:2" d="M247,424 l64,0 -123,57 0,-30 59,-27z" />
<path style="fill:#e0e0e0;stroke:#000;stroke-width:2" d="M105,424 l-16,-4 -14,-10 -14,-18 -12,-20 -7,-25 -9,-30 -3,-34 -2,-36 2,-33 3,-34 9,-30 7,-25 12,-20 14,-18 14,-10 16,-4 0,351z" />
<path style="fill:#e5e5e5" d="M865,73 l-12,4 -17,26 -8,22 -8,25 -4,30 -4,34 0,69 4,34 4,30 8,25 16,38 9,10 12,4 -756,0 -10,-4 -20,-26 -8,-22 -6,-25 -6,-30 -2,-34 -2,-33 2,-36 2,-34 6,-30 6,-25 18,-38 10,-10 10,-4 756,0z" />
<path style="fill:#e5e5e5;stroke:#000;stroke-width:2" d="M870,73 l19,2 38,28 14,22 14,25 8,30 5,34 2,36 -2,33 -5,34 -8,30 -14,25 -14,22 -38,28 -21,4 -10,-4 -20,-28 -8,-20 -6,-27 -6,-30 -2,-32 -2,-35 2,-36 2,-34 6,-30 6,-25 18,-38 10,-10 12,-4z" />
<path style="fill:#b2b2b2" d="M937,291 l-20,36 -26,31 -20,4 -25,-2 -24,-25 8,39 8,20 10,18 10,10 10,4 21,-4 20,-12 18,-16 14,-22 14,-25 8,-30 5,-34 2,-33 -2,-36 -5,-34 -7,-22 0,4 -1,58 -6,35 -12,36z" />
<path style="fill:#b2b2b2" d="M71,368 l755,0 2,4 8,22 8,16 9,10 12,4 -756,0 -10,-4 -10,-10 -10,-16 -8,-22 0,-4z" />
<path style="fill:#ccc" d="M71,368 l755,0 -6,-21 -2,-14 -755,0 2,14 6,21z" />
<path style="fill:#ccc" d="M838,99 l-755,0 6,-12 10,-10 10,-4 756,0 -12,4 -9,10 -6,12z" />
<path style="fill:none;stroke:#000;stroke-width:2" d="M865,73 l-12,4 -17,26 -8,22 -8,25 -4,30 -4,34 0,69 4,34 4,30 8,25 16,38 9,10 12,4 -756,0 -10,-4 -20,-26 -8,-22 -6,-25 -6,-30 -2,-34 -2,-33 2,-36 2,-34 6,-30 6,-25 18,-38 10,-10 10,-4 756,0" />
<path style="fill:#ccc;stroke:#000;stroke-width:2" d="M695,279 l-32,0 0,174 32,0 0,-174z" />
<path style="fill:#ccc;stroke:#000;stroke-width:2" d="M186,279 l-34,0 0,174 34,0 0,-174z" />
<path style="fill:#ccc;stroke:#000;stroke-width:2" d="M699,481 l-8,0 0,-28 8,0 0,28z" />
<path style="fill:#ccc;stroke:#000;stroke-width:2" d="M188,481 l-6,0 0,-28 6,0 0,28z" />
<path style="fill:#ccc;stroke:#000;stroke-width:2" d="M669,481 l-6,0 0,-28 6,0 0,28z" />
<path style="fill:#ccc;stroke:#000;stroke-width:2" d="M158,481 l-6,0 0,-28 6,0 0,28z" />
<path style="fill:#b2b2b2;stroke:#000;stroke-width:2" d="M699,277 l2,8 2,32 4,30 6,27 8,20 8,18 10,10 9,4 8,-2 -61,27 0,-172 4,-2z" />
<path style="fill:#b2b2b2;stroke:#000;stroke-width:2" d="M190,277 l0,8 2,32 6,30 6,27 6,20 10,18 8,10 12,4 5,-2 -59,27 0,-172 4,-2z" />
<path style="fill:#fff" d="M75,119 l753,0 -2,6 -4,10 -751,0 2,-10 2,-6z" />
<path style="fill:#b2b2b2;stroke:#000;stroke-width:2" d="M701,279 l-24,0 38,-206 40,0 -12,4 -10,10 -8,16 -8,22 -6,25 -6,30 -4,34 0,36 0,29z" />
<path style="fill:#b2b2b2;stroke:#000;stroke-width:2" d="M190,279 l-24,0 40,-206 37,0 -10,4 -9,10 -10,16 -8,22 -6,25 -6,30 -2,34 -2,36 0,29z" />
<path style="fill:#e5e5e5;stroke:#000;stroke-width:2" d="M697,279 l-34,0 0,-36 0,-35 4,-32 4,-29 8,-26 8,-22 8,-16 10,-12 12,-2 34,0 4,2 -16,2 -10,10 -10,16 -8,22 -6,26 -4,29 -4,32 -2,35 2,36z" />
<path style="fill:#e5e5e5;stroke:#000;stroke-width:2" d="M186,279 l-34,0 0,-36 2,-35 2,-32 6,-29 6,-26 8,-22 10,-16 10,-12 10,-2 34,0 3,2 -13,2 -12,10 -8,16 -8,22 -6,26 -6,29 -4,32 0,35 0,36z" />
<path style="fill:#ccc" d="M555,73 l-145,0 0,-18 145,0 0,18z" />
<path style="fill:#b2b2b2" d="M555,73 l-7,0 0,-18 7,0 0,18z" />
<path style="fill:#b2b2b2" d="M422,73 l-12,0 0,-18 12,0 0,18z" />
<path style="fill:#f0f0f0" d="M580,43 l-196,0 0,12 196,0 0,-12z" />
<path style="fill:#f0f0f0" d="M580,43 l-196,0 0,-11 196,0 0,11z" />
<path style="fill:#fff" d="M553,43 l-6,0 0,12 6,0 0,-12z" />
<path style="fill:#fff" d="M553,43 l-6,0 0,-11 6,0 0,11z" />
<path style="fill:#b2b2b2" d="M422,43 l-38,0 0,12 38,0 0,-12z" />
<path style="fill:#b2b2b2" d="M422,43 l-38,0 0,-11 38,0 0,11z" />
<path style="fill:#b2b2b2" d="M580,43 l-14,0 0,12 14,0 0,-12z" />
<path style="fill:#b2b2b2" d="M580,43 l-14,0 0,-11 14,0 0,11z" />
<path style="fill:#f0f0f0;stroke:#000;stroke-width:2" d="M576,59 l-8,0 0,-4 8,0 0,4z" />
<path style="fill:#f0f0f0;stroke:#000;stroke-width:2" d="M550,59 l-5,0 0,-4 5,0 0,4z" />
<path style="fill:#f0f0f0;stroke:#000;stroke-width:2" d="M525,59 l-6,0 0,-4 6,0 0,4z" />
<path style="fill:#f0f0f0;stroke:#000;stroke-width:2" d="M499,59 l-6,0 0,-4 6,0 0,4z" />
<path style="fill:#f0f0f0;stroke:#000;stroke-width:2" d="M473,59 l-6,0 0,-4 6,0 0,4z" />
<path style="fill:#f0f0f0;stroke:#000;stroke-width:2" d="M450,59 l-8,0 0,-4 8,0 0,4z" />
<path style="fill:#f0f0f0;stroke:#000;stroke-width:2" d="M424,59 l-8,0 0,-4 8,0 0,4z" />
<path style="fill:#f0f0f0;stroke:#000;stroke-width:2" d="M398,59 l-8,0 0,-4 8,0 0,4z" />
<path style="fill:#f0f0f0;stroke:#000;stroke-width:2" d="M576,28 l-8,0 0,4 8,0 0,-4z" />
<path style="fill:#f0f0f0;stroke:#000;stroke-width:2" d="M550,28 l-5,0 0,4 5,0 0,-4z" />
<path style="fill:#f0f0f0;stroke:#000;stroke-width:2" d="M525,28 l-6,0 0,4 6,0 0,-4z" />
<path style="fill:#f0f0f0;stroke:#000;stroke-width:2" d="M499,28 l-6,0 0,4 6,0 0,-4z" />
<path style="fill:#f0f0f0;stroke:#000;stroke-width:2" d="M473,28 l-6,0 0,4 6,0 0,-4z" />
<path style="fill:#f0f0f0;stroke:#000;stroke-width:2" d="M450,28 l-8,0 0,4 8,0 0,-4z" />
<path style="fill:#f0f0f0;stroke:#000;stroke-width:2" d="M424,28 l-8,0 0,4 8,0 0,-4z" />
<path style="fill:#f0f0f0;stroke:#000;stroke-width:2" d="M398,28 l-8,0 0,4 8,0 0,-4z" />
<path style="fill:none;stroke:#000;stroke-width:2" d="M580,43 l-196,0 0,12 196,0 0,-12" />
<path style="fill:none;stroke:#000;stroke-width:2" d="M580,43 l-196,0 0,-11 196,0 0,11" />
<path style="fill:none;stroke:#000;stroke-width:2" d="M555,73 l-145,0 0,-18 145,0 0,18" />

</svg>
