<?xml version="1.0" encoding="utf-8" standalone="no"?><!DOCTYPE svg PUBLIC "-//W3C//DTD SVG 1.1//EN" "http://www.w3.org/Graphics/SVG/1.1/DTD/svg11-flat-20030114.dtd"><svg width="347" height="527" version="1.1" xmlns="http://www.w3.org/2000/svg" xmlns:xlink="http://www.w3.org/1999/xlink">

<path style="fill:#333;stroke:#000;stroke-width:2" d="M46,511 l0,2 40,0 0,-2 -7,0 -6,0 -3,0 -4,0 -3,0 -4,0 -5,0 -8,0z" />
<path style="fill:#333;stroke:#000;stroke-width:2" d="M261,511 l0,2 40,0 0,-2 -8,0 -5,0 -4,0 -3,0 -3,0 -4,0 -5,0 -8,0z" />
<path style="fill:#333;stroke:#000;stroke-width:2" d="M258,393 l0,100 5,0 0,6 -35,-1 0,-5 5,0 0,-65 25,-35z" />
<path style="fill:#333;stroke:#000;stroke-width:2" d="M113,428 l0,65 5,0 0,6 -35,-1 0,-5 5,0 0,-100 25,35z" />
<path style="fill:#4c4c4c" d="M156,483 l-123,-179 0,-260 10,-20 -10,0 -19,20 0,260 139,179 3,0z" />
<path style="fill:#7f7f7f" d="M191,483 l122,-179 0,-260 -10,-20 10,0 20,20 0,260 -140,179 -2,0z" />
<path style="fill:#7f7f7f" d="M161,483 l-78,-179 0,-260 10,-20 -25,0 -10,20 0,260 100,179 3,0z" />
<path style="fill:#666" d="M158,483 l-100,-179 0,-260 10,-20 -25,0 -10,20 0,260 123,179 2,0z" />
<path style="fill:#999" d="M188,483 l100,-179 0,-260 -10,-20 25,0 10,20 0,260 -122,179 -3,0z" />
<path style="fill:#999" d="M163,483 l-55,-179 0,-260 10,-20 -25,0 -10,20 0,260 78,179 2,0z" />
<path style="fill:#b2b2b2" d="M186,483 l77,-179 0,-260 -10,-20 25,0 10,20 0,260 -100,179 -2,0z" />
<path style="fill:#b2b2b2" d="M166,483 l-33,-179 0,-260 8,-20 -23,0 -10,20 0,260 55,179 3,0z" />
<path style="fill:#ccc" d="M183,483 l55,-179 0,-260 -10,-20 25,0 10,20 0,260 -77,179 -3,0z" />
<path style="fill:#ccc" d="M168,483 l-10,-179 0,-260 5,-20 -22,0 -8,20 0,260 33,179 2,0z" />
<path style="fill:#e5e5e5" d="M179,483 l34,-179 0,-260 -7,-20 22,0 10,20 0,260 -55,179 -4,0z" />
<path style="fill:#e5e5e5" d="M173,483 l15,-179 0,-260 -5,-20 -20,0 -5,20 0,260 10,179 5,0z" />
<path style="fill:#fff" d="M173,483 l15,-179 0,-260 -5,-20 23,0 7,20 0,260 -34,179 -6,0z" />
<path style="fill:#7f7f7f" d="M93,24 l80,-10 -140,10 60,0z" />
<path style="fill:#b2b2b2" d="M173,14 l-20,10 -60,0 80,-10z" />
<path style="fill:#e5e5e5" d="M173,14 l35,10 -55,0 20,-10z" />
<path style="fill:#ccc" d="M208,24 l-35,-10 85,10 -50,0z" />
<path style="fill:#b2b2b2" d="M173,14 l85,10 55,0 -140,-10z" />
<path style="fill:none;stroke:#000;stroke-width:2" d="M313,24 l-280,0 140,-10 140,10" />
<path style="fill:none;stroke:#000;stroke-width:2" d="M333,304 l-140,179 -40,0 -139,-179 0,-260 19,-20 280,0 20,20 0,260" />
<path style="fill:none;stroke:#b2b2b2;stroke-width:2" d="M14,296 l3,3 9,2 15,2 19,2 24,2 27,1 29,1 32,0 32,0 29,-1 27,-1 24,-2 19,-2 15,-2 9,-2 3,-3" />
<path style="fill:none;stroke:#b2b2b2;stroke-width:2" d="M14,52 l3,-3 9,-2 15,-2 19,-2 24,-2 27,-1 29,-1 32,0 32,0 29,1 27,1 24,2 19,2 15,2 9,2 3,3" />
<path style="fill:#333;stroke:#000;stroke-width:2" d="M261,511 l0,2 40,0 0,-2 -8,0 -5,0 -4,0 -3,0 -3,0 -4,0 -5,0 -8,0z" />
<path style="fill:#4c4c4c;stroke:#000;stroke-width:2" d="M266,508 l7,0 0,-135 -7,10 0,125z" />
<path style="fill:#666;stroke:#000;stroke-width:2" d="M273,508 l8,0 0,-145 -8,10 0,135z" />
<path style="fill:#7f7f7f;stroke:#000;stroke-width:2" d="M281,508 l7,0 0,-155 -7,11 0,144z" />
<path style="fill:#4c4c4c;stroke:#000;stroke-width:2" d="M51,508 l7,0 0,-155 -7,-9 0,164z" />
<path style="fill:#4c4c4c;stroke:#000;stroke-width:2" d="M266,508 l7,0 0,-135 -7,10 0,125z" />
<path style="fill:#666;stroke:#000;stroke-width:2" d="M58,508 l8,0 0,-145 -8,-10 0,155z" />
<path style="fill:#666;stroke:#000;stroke-width:2" d="M273,508 l8,0 0,-145 -8,10 0,135z" />
<path style="fill:#7f7f7f;stroke:#000;stroke-width:2" d="M66,508 l7,0 0,-135 -7,-9 0,144z" />
<path style="fill:#7f7f7f;stroke:#000;stroke-width:2" d="M281,508 l7,0 0,-155 -7,11 0,144z" />
<path style="fill:#b2b2b2;stroke:#000;stroke-width:2" d="M73,508 l-27,0 0,3 40,0 0,-3 -5,0 0,-125 -8,-10 0,135z" />
<path style="fill:#b2b2b2;stroke:#000;stroke-width:2" d="M288,508 l-27,0 0,3 40,0 0,-3 -5,0 0,-165 -8,10 0,155z" />

</svg>
