<?xml version="1.0" encoding="utf-8" standalone="no"?><!DOCTYPE svg PUBLIC "-//W3C//DTD SVG 1.1//EN" "http://www.w3.org/Graphics/SVG/1.1/DTD/svg11-flat-20030114.dtd"><svg width="670" height="998" version="1.1" xmlns="http://www.w3.org/2000/svg" xmlns:xlink="http://www.w3.org/1999/xlink">

<path style="fill:#7f7f7f" d="M513,935 l-356,0 0,36 356,0 0,-36z" />
<path style="fill:#b2b2b2" d="M487,935 l-236,0 0,36 236,0 0,-36z" />
<path style="fill:#ccc" d="M464,935 l-145,0 0,36 145,0 0,-36z" />
<path style="fill:#e5e5e5" d="M442,935 l-60,0 0,36 60,0 0,-36z" />
<path style="fill:none;stroke:#000;stroke-width:2" d="M513,935 l-356,0 0,36 356,0 0,-36" />
<path style="fill:#0000bf" d="M450,37 l-233,0 -15,65 268,0 -20,-65z" />
<path style="fill:#0000c9" d="M444,37 l-202,0 -13,65 231,0 -16,-65z" />
<path style="fill:#0d0dd1" d="M440,37 l-172,0 -12,65 196,0 -12,-65z" />
<path style="fill:#3333db" d="M434,37 l-140,0 -10,65 160,0 -10,-65z" />
<path style="fill:#5959e3" d="M428,37 l-109,0 -8,65 125,0 -8,-65z" />
<path style="fill:#7f7fed" d="M423,37 l-79,0 -4,65 88,0 -5,-65z" />
<path style="fill:#a6a6f5" d="M417,37 l-47,0 -2,65 53,0 -4,-65z" />
<path style="fill:#ccf" d="M413,37 l-18,0 0,65 18,0 0,-65z" />
<path style="fill:none;stroke:#000;stroke-width:2" d="M450,37 l-233,0 -15,65 268,0 -20,-65" />
<path style="fill:#0000bf" d="M423,88 l-177,0 -84,14 -70,33 -47,51 -18,62 0,548 18,61 47,51 70,33 84,14 177,0 86,-14 68,-33 47,-51 18,-61 0,-548 -18,-62 -47,-51 -68,-33 -86,-14z" />
<path style="fill:#0000c4" d="M428,90 l-162,0 -78,12 -67,33 -43,51 -15,62 0,546 15,63 43,51 67,33 78,12 162,0 79,-12 64,-35 43,-51 16,-61 0,-546 -16,-62 -43,-49 -64,-35 -79,-12z" />
<path style="fill:#00c" d="M432,90 l-146,0 -73,12 -60,35 -41,51 -14,60 0,546 14,61 41,51 60,35 73,12 146,0 73,-14 60,-33 39,-51 16,-63 0,-541 -16,-63 -39,-51 -60,-33 -73,-14z" />
<path style="fill:#0a0ad1" d="M438,92 l-133,-2 -68,14 -55,33 -35,51 -14,63 0,543 14,61 35,51 55,35 68,12 133,-2 67,-14 55,-33 35,-51 14,-61 0,-541 -14,-63 -35,-49 -55,-35 -67,-12z" />
<path style="fill:#2121d6" d="M444,92 l-121,0 -61,12 -49,33 -33,51 -13,63 0,543 13,61 33,51 49,33 61,14 121,-4 59,-12 49,-35 33,-49 12,-63 0,-538 -12,-62 -33,-51 -49,-33 -59,-14z" />
<path style="fill:#3838db" d="M448,94 l-105,-2 -55,12 -43,35 -32,49 -11,63 0,541 11,63 32,51 43,33 55,14 105,-4 55,-14 43,-33 29,-51 10,-61 0,-538 -10,-62 -29,-49 -43,-35 -55,-12z" />
<path style="fill:#5454e3" d="M454,94 l-92,-2 -49,14 -39,33 -28,51 -9,61 0,541 9,61 28,51 39,35 49,12 92,-4 47,-12 39,-35 25,-51 10,-60 0,-534 -10,-63 -25,-51 -39,-33 -47,-14z" />
<path style="fill:#6b6be8" d="M458,96 l-76,-4 -43,14 -34,33 -23,51 -10,62 0,540 10,61 23,51 34,33 43,14 76,-4 41,-14 35,-33 21,-51 9,-63 0,-531 -9,-63 -21,-49 -35,-35 -41,-12z" />
<path style="fill:#8282ed" d="M464,98 l-63,-4 -37,12 -29,35 -20,49 -8,62 0,538 8,63 20,51 29,33 37,14 63,-6 35,-14 27,-33 20,-51 6,-61 0,-530 -6,-62 -20,-51 -27,-34 -35,-11z" />
<path style="fill:#9999f2" d="M467,98 l-48,-4 -30,12 -25,35 -16,51 -5,60 0,538 5,63 16,51 25,33 30,14 48,-8 30,-12 23,-35 16,-49 4,-62 0,-529 -4,-62 -16,-49 -23,-36 -30,-11z" />
<path style="fill:#b5b5fa" d="M473,98 l-35,-4 -23,14 -20,33 -13,51 -6,63 0,535 6,63 13,49 20,35 23,12 35,-6 24,-14 18,-33 11,-51 4,-62 0,-525 -4,-62 -11,-51 -18,-33 -24,-14z" />
<path style="fill:#ccf" d="M479,100 l-21,-4 -18,12 -13,33 -12,51 -2,63 0,535 2,61 12,51 13,35 18,12 21,-8 16,-12 14,-35 7,-51 3,-60 0,-525 -3,-61 -7,-50 -14,-35 -16,-12z" />
<path style="fill:none;stroke:#000;stroke-width:2" d="M423,88 l-177,0 -84,14 -70,33 -47,51 -18,62 0,548 18,61 47,51 70,33 84,14 177,0 86,-14 68,-33 47,-51 18,-61 0,-548 -18,-62 -47,-51 -68,-33 -86,-14" />
<path style="fill:#7f7f7f" d="M483,27 l-297,0 0,10 297,0 0,-10z" />
<path style="fill:#b2b2b2" d="M462,27 l-198,0 0,10 198,0 0,-10z" />
<path style="fill:#ccc" d="M442,27 l-119,0 0,10 119,0 0,-10z" />
<path style="fill:#e5e5e5" d="M425,27 l-51,0 0,10 51,0 0,-10z" />
<path style="fill:none;stroke:#000;stroke-width:2" d="M483,27 l-297,0 0,10 297,0 0,-10" />

</svg>
