<?xml version="1.0" encoding="utf-8" standalone="no"?><!DOCTYPE svg PUBLIC "-//W3C//DTD SVG 1.1//EN" "http://www.w3.org/Graphics/SVG/1.1/DTD/svg11-flat-20030114.dtd"><svg width="472" height="531" version="1.1" xmlns="http://www.w3.org/2000/svg" xmlns:xlink="http://www.w3.org/1999/xlink">

<path style="fill:#4c4c4c" d="M406,378 l-63,0 0,138 63,0 0,-138z" />
<path style="fill:#666" d="M406,378 l-59,0 0,138 59,0 0,-138z" />
<path style="fill:#999" d="M406,378 l-51,0 0,138 51,0 0,-138z" />
<path style="fill:#b2b2b2" d="M406,378 l-44,0 0,138 44,0 0,-138z" />
<path style="fill:#ccc" d="M406,378 l-36,0 0,138 36,0 0,-138z" />
<path style="fill:#b2b2b2" d="M406,378 l-4,0 0,138 4,0 0,-138z" />
<path style="fill:#fff" d="M398,378 l-16,0 0,138 16,0 0,-138z" />
<path style="fill:none;stroke:#000;stroke-width:2" d="M406,378 l-63,0 0,138 63,0 0,-138" />
<path style="fill:#333" d="M126,378 l-63,0 0,138 63,0 0,-138z" />
<path style="fill:#4c4c4c" d="M126,378 l-59,0 0,138 59,0 0,-138z" />
<path style="fill:#7f7f7f" d="M126,378 l-51,0 0,138 51,0 0,-138z" />
<path style="fill:#999" d="M126,378 l-44,0 0,138 44,0 0,-138z" />
<path style="fill:#b2b2b2" d="M126,378 l-36,0 0,138 36,0 0,-138z" />
<path style="fill:#7f7f7f" d="M126,378 l-4,0 0,138 4,0 0,-138z" />
<path style="fill:#ccc" d="M118,378 l-16,0 0,138 16,0 0,-138z" />
<path style="fill:none;stroke:#000;stroke-width:2" d="M126,378 l-63,0 0,138 63,0 0,-138" />
<circle style="fill:#4c4c4c" cx="236" cy="244" r="221" />
<circle style="fill:#666" cx="238" cy="242" r="215" />
<circle style="fill:#7f7f7f" cx="242" cy="238" r="211" />
<circle style="fill:#999" cx="246" cy="234" r="203" />
<circle style="fill:#b2b2b2" cx="252" cy="228" r="189" />
<circle style="fill:#ccc" cx="258" cy="222" r="175" />
<circle style="fill:#e5e5e5" cx="265" cy="214" r="155" />
<circle style="fill:none;stroke:#000;stroke-width:2" cx="236" cy="244" r="221" />
<ellipse style="fill:none;stroke:#ccc;stroke-width:2" cx="236" cy="244" rx="153" ry="221" />
<ellipse style="fill:none;stroke:#ccc;stroke-width:2" cx="236" cy="244" rx="63" ry="221" />
<path style="fill:none;stroke:#ccc;stroke-width:2" d="M421,248 l-208,0" />
<path style="fill:none;stroke:#ccc;stroke-width:2" d="M378,208 l-209,0" />
<path style="fill:none;stroke:#ccc;stroke-width:2" d="M398,138 l-91,0" />
<path style="fill:none;stroke:#ccc;stroke-width:2" d="M327,106 l-209,0" />
<path style="fill:none;stroke:#ccc;stroke-width:2" d="M272,287 l-209,0" />
<path style="fill:none;stroke:#ccc;stroke-width:2" d="M378,366 l-169,0" />
<path style="fill:#4c4c4c" d="M268,378 l-63,0 0,138 63,0 0,-138z" />
<path style="fill:#666" d="M268,378 l-59,0 0,138 59,0 0,-138z" />
<path style="fill:#999" d="M268,378 l-51,0 0,138 51,0 0,-138z" />
<path style="fill:#b2b2b2" d="M268,378 l-44,0 0,138 44,0 0,-138z" />
<path style="fill:#ccc" d="M268,378 l-36,0 0,138 36,0 0,-138z" />
<path style="fill:#b2b2b2" d="M268,378 l-4,0 0,138 4,0 0,-138z" />
<path style="fill:#fff" d="M260,378 l-16,0 0,138 16,0 0,-138z" />
<path style="fill:none;stroke:#000;stroke-width:2" d="M268,378 l-63,0 0,138 63,0 0,-138" />
<path style="fill:#333" d="M130,437 l-71,0 0,8 71,0 0,-8z" />
<path style="fill:#333" d="M130,504 l-71,0 0,8 71,0 0,-8z" />
<path style="fill:#333" d="M272,504 l-71,0 0,8 71,0 0,-8z" />
<path style="fill:#333" d="M272,437 l-71,0 0,8 71,0 0,-8z" />
<path style="fill:#333" d="M410,437 l-71,0 0,8 71,0 0,-8z" />
<path style="fill:#333" d="M410,504 l-71,0 0,8 71,0 0,-8z" />
<path style="fill:#7f7f7f" d="M410,504 l-71,0 0,4 71,0 0,-4z" />
<path style="fill:#7f7f7f" d="M272,504 l-71,0 0,4 71,0 0,-4z" />
<path style="fill:#7f7f7f" d="M130,504 l-71,0 0,4 71,0 0,-4z" />
<path style="fill:#7f7f7f" d="M130,437 l-71,0 0,4 71,0 0,-4z" />
<path style="fill:#7f7f7f" d="M272,437 l-71,0 0,4 71,0 0,-4z" />
<path style="fill:#7f7f7f" d="M410,437 l-71,0 0,4 71,0 0,-4z" />
<path style="fill:none;stroke:#000;stroke-width:2" d="M272,20 l-75,0" />
<path style="fill:none;stroke:#000;stroke-width:2" d="M272,16 l-75,0" />
<path style="fill:none;stroke:#000;stroke-width:2" d="M264,27 l0,-12" />
<path style="fill:none;stroke:#000;stroke-width:2" d="M205,27 l0,-12" />
<path style="fill:none;stroke:#000;stroke-width:2" d="M244,27 l0,-12" />
<path style="fill:none;stroke:#000;stroke-width:2" d="M225,27 l0,-12" />
<path style="fill:none;stroke:#000;stroke-width:2" d="M390,248 l0,268" />
<path style="fill:none;stroke:#000;stroke-width:2" d="M379,248 l0,268" />
<path style="fill:none;stroke:#000;stroke-width:2" d="M390,508 l-11,0" />
<path style="fill:none;stroke:#000;stroke-width:2" d="M390,500 l-11,0" />
<path style="fill:none;stroke:#000;stroke-width:2" d="M390,492 l-11,0" />
<path style="fill:none;stroke:#000;stroke-width:2" d="M390,485 l-11,0" />
<path style="fill:none;stroke:#000;stroke-width:2" d="M390,477 l-11,0" />
<path style="fill:none;stroke:#000;stroke-width:2" d="M390,469 l-11,0" />
<path style="fill:none;stroke:#000;stroke-width:2" d="M390,461 l-11,0" />
<path style="fill:none;stroke:#000;stroke-width:2" d="M390,453 l-11,0" />
<path style="fill:none;stroke:#000;stroke-width:2" d="M390,445 l-11,0" />
<path style="fill:none;stroke:#000;stroke-width:2" d="M390,437 l-11,0" />
<path style="fill:none;stroke:#000;stroke-width:2" d="M390,429 l-11,0" />
<path style="fill:none;stroke:#000;stroke-width:2" d="M390,421 l-11,0" />
<path style="fill:none;stroke:#000;stroke-width:2" d="M390,414 l-11,0" />
<path style="fill:none;stroke:#000;stroke-width:2" d="M390,405 l-11,0" />
<path style="fill:none;stroke:#000;stroke-width:2" d="M390,398 l-11,0" />
<path style="fill:none;stroke:#000;stroke-width:2" d="M390,390 l-11,0" />
<path style="fill:none;stroke:#000;stroke-width:2" d="M390,382 l-11,0" />
<path style="fill:none;stroke:#000;stroke-width:2" d="M390,374 l-11,0" />
<path style="fill:none;stroke:#000;stroke-width:2" d="M390,366 l-11,0" />
<path style="fill:none;stroke:#000;stroke-width:2" d="M390,358 l-11,0" />
<path style="fill:none;stroke:#000;stroke-width:2" d="M390,350 l-11,0" />
<path style="fill:none;stroke:#000;stroke-width:2" d="M390,342 l-11,0" />
<path style="fill:none;stroke:#000;stroke-width:2" d="M390,335 l-11,0" />
<path style="fill:none;stroke:#000;stroke-width:2" d="M390,327 l-11,0" />
<path style="fill:none;stroke:#000;stroke-width:2" d="M390,318 l-11,0" />
<path style="fill:none;stroke:#000;stroke-width:2" d="M390,311 l-11,0" />
<path style="fill:none;stroke:#000;stroke-width:2" d="M390,303 l-11,0" />
<path style="fill:none;stroke:#000;stroke-width:2" d="M390,295 l-11,0" />
<path style="fill:none;stroke:#000;stroke-width:2" d="M390,287 l-11,0" />
<path style="fill:none;stroke:#000;stroke-width:2" d="M390,279 l-11,0" />
<path style="fill:none;stroke:#000;stroke-width:2" d="M390,272 l-11,0" />
<path style="fill:none;stroke:#000;stroke-width:2" d="M390,264 l-11,0" />
<path style="fill:none;stroke:#000;stroke-width:2" d="M390,255 l-11,0" />
<path style="fill:none;stroke:#000;stroke-width:2" d="M390,240 l-12,0" />
<path style="fill:none;stroke:#000;stroke-width:2" d="M390,232 l-12,0" />
<path style="fill:none;stroke:#000;stroke-width:2" d="M390,224 l-12,0" />
<path style="fill:none;stroke:#000;stroke-width:2" d="M389,217 l-12,0" />
<path style="fill:none;stroke:#000;stroke-width:2" d="M388,209 l-11,0" />
<path style="fill:none;stroke:#000;stroke-width:2" d="M388,201 l-12,0" />
<path style="fill:none;stroke:#000;stroke-width:2" d="M386,193 l-12,0" />
<path style="fill:none;stroke:#000;stroke-width:2" d="M385,185 l-12,0" />
<path style="fill:none;stroke:#000;stroke-width:2" d="M384,177 l-12,0" />
<path style="fill:none;stroke:#000;stroke-width:2" d="M382,169 l-12,0" />
<path style="fill:none;stroke:#000;stroke-width:2" d="M379,161 l-12,0" />
<path style="fill:none;stroke:#000;stroke-width:2" d="M376,153 l-10,0" />
<path style="fill:none;stroke:#000;stroke-width:2" d="M374,146 l-11,0" />
<path style="fill:none;stroke:#000;stroke-width:2" d="M370,138 l-9,0" />
<path style="fill:none;stroke:#000;stroke-width:2" d="M368,130 l-10,0" />
<path style="fill:none;stroke:#000;stroke-width:2" d="M364,122 l-9,0" />
<path style="fill:none;stroke:#000;stroke-width:2" d="M361,114 l-10,0" />
<path style="fill:none;stroke:#000;stroke-width:2" d="M356,106 l-9,0" />
<path style="fill:none;stroke:#000;stroke-width:2" d="M352,98 l-9,0" />
<path style="fill:none;stroke:#000;stroke-width:2" d="M346,90 l-8,0" />
<path style="fill:none;stroke:#000;stroke-width:2" d="M340,82 l-7,0" />
<path style="fill:none;stroke:#000;stroke-width:2" d="M335,74 l-8,0" />
<path style="fill:none;stroke:#000;stroke-width:2" d="M328,67 l-7,0" />
<path style="fill:none;stroke:#000;stroke-width:2" d="M320,59 l-7,0" />
<path style="fill:none;stroke:#000;stroke-width:2" d="M310,50 l-6,0" />
<path style="fill:none;stroke:#000;stroke-width:2" d="M300,43 l-5,0" />
<path style="fill:none;stroke:#000;stroke-width:2" d="M390,248 l-12,0" />
<path style="fill:none;stroke:#000;stroke-width:2" d="M378,246 l0,-1 0,-1 -1,-23 -2,-22 -3,-21 -5,-20 -6,-19 -7,-19 -9,-17 -9,-15 -10,-15 -11,-12 -12,-11 -12,-10 -13,-7 -14,-6 -14,-3 -14,-1" />
<path style="fill:none;stroke:#000;stroke-width:2" d="M390,246 l0,-1 0,-1 -1,-23 -2,-22 -4,-21 -5,-20 -7,-19 -7,-19 -9,-17 -10,-15 -11,-15 -12,-12 -13,-11 -13,-10 -14,-7 -15,-6 -15,-3 -16,-1" />

</svg>
