<?xml version="1.0" encoding="utf-8" standalone="no"?><!DOCTYPE svg PUBLIC "-//W3C//DTD SVG 1.1//EN" "http://www.w3.org/Graphics/SVG/1.1/DTD/svg11-flat-20030114.dtd"><svg width="999" height="662" version="1.1" xmlns="http://www.w3.org/2000/svg" xmlns:xlink="http://www.w3.org/1999/xlink">

<path style="fill:#366" d="M274,532 l0,-27 -27,0 0,-29 -29,0 0,-392 29,0 0,-28 27,0 0,-28 -168,0 0,28 28,0 0,28 28,0 0,392 -28,0 0,29 -28,0 0,27 168,0z" />
<path style="fill:#366" d="M892,532 l0,-27 -28,0 0,-29 -28,0 0,-392 28,0 0,-28 28,0 0,-28 -168,0 0,28 27,0 0,28 29,0 0,392 -29,0 0,29 -27,0 0,27 168,0z" />
<path style="fill:#194c4c" d="M247,505 l0,-29 -29,0 0,-392 29,0 0,-28 -113,0 0,28 28,0 0,392 -28,0 0,29 113,0z" />
<path style="fill:#194c4c" d="M864,505 l0,-29 -28,0 0,-392 28,0 0,-28 -113,0 0,28 29,0 0,392 -29,0 0,29 113,0z" />
<path style="fill:#033" d="M836,476 l0,-392 -56,0 0,392 56,0z" />
<path style="fill:#033" d="M218,476 l0,-392 -56,0 0,392 56,0z" />
<path style="fill:none;stroke:#000;stroke-width:2" d="M218,476 l-56,0" />
<path style="fill:none;stroke:#000;stroke-width:2" d="M134,505 l113,0" />
<path style="fill:none;stroke:#000;stroke-width:2" d="M247,56 l-113,0" />
<path style="fill:none;stroke:#000;stroke-width:2" d="M162,84 l56,0" />
<path style="fill:none;stroke:#000;stroke-width:2" d="M836,476 l-56,0" />
<path style="fill:none;stroke:#000;stroke-width:2" d="M751,505 l113,0" />
<path style="fill:none;stroke:#000;stroke-width:2" d="M864,56 l-113,0" />
<path style="fill:none;stroke:#000;stroke-width:2" d="M780,84 l56,0" />
<path style="fill:none;stroke:#000;stroke-width:2" d="M274,532 l0,-27 -27,0 0,-29 -29,0 0,-392 29,0 0,-28 27,0 0,-28 -168,0 0,28 28,0 0,28 28,0 0,392 -28,0 0,29 -28,0 0,27 168,0" />
<path style="fill:none;stroke:#000;stroke-width:2" d="M892,532 l0,-27 -28,0 0,-29 -28,0 0,-392 28,0 0,-28 28,0 0,-28 -168,0 0,28 27,0 0,28 29,0 0,392 -29,0 0,29 -27,0 0,27 168,0" />
<path style="fill:#033;stroke:#000;stroke-width:2" d="M780,476 l-281,-186 -281,186 0,-41 253,-165 -253,-145 0,-41 281,165 281,-165 0,41 -253,145 253,165 0,41z" />
<path style="fill:#194c4c;stroke:#000;stroke-width:2" d="M562,287 l-28,-18 28,-17 -24,-35 -39,25 -39,-25 -24,35 28,17 -28,18 24,35 39,-25 39,25 24,-35z" />
<path style="fill:#7fb2b2" d="M230,634 l0,-34 -34,0 0,-34 -34,0 0,-471 34,0 0,-34 34,0 0,-33 -202,0 0,33 33,0 0,34 34,0 0,471 -34,0 0,34 -33,0 0,34 202,0z" />
<path style="fill:#7fb2b2" d="M970,634 l0,-34 -33,0 0,-34 -34,0 0,-471 34,0 0,-34 33,0 0,-33 -202,0 0,33 34,0 0,34 34,0 0,471 -34,0 0,34 -34,0 0,34 202,0z" />
<path style="fill:#699" d="M196,600 l0,-34 -34,0 0,-471 34,0 0,-34 -135,0 0,34 34,0 0,471 -34,0 0,34 135,0z" />
<path style="fill:#699" d="M937,600 l0,-34 -34,0 0,-471 34,0 0,-34 -135,0 0,34 34,0 0,471 -34,0 0,34 135,0z" />
<path style="fill:#4c7f7f" d="M903,566 l0,-471 -67,0 0,471 67,0z" />
<path style="fill:#4c7f7f" d="M162,566 l0,-471 -67,0 0,471 67,0z" />
<path style="fill:none;stroke:#000;stroke-width:2" d="M162,566 l-67,0" />
<path style="fill:none;stroke:#000;stroke-width:2" d="M61,600 l135,0" />
<path style="fill:none;stroke:#000;stroke-width:2" d="M196,61 l-135,0" />
<path style="fill:none;stroke:#000;stroke-width:2" d="M95,95 l67,0" />
<path style="fill:none;stroke:#000;stroke-width:2" d="M903,566 l-67,0" />
<path style="fill:none;stroke:#000;stroke-width:2" d="M802,600 l135,0" />
<path style="fill:none;stroke:#000;stroke-width:2" d="M937,61 l-135,0" />
<path style="fill:none;stroke:#000;stroke-width:2" d="M836,95 l67,0" />
<path style="fill:none;stroke:#000;stroke-width:2" d="M230,634 l0,-34 -34,0 0,-34 -34,0 0,-471 34,0 0,-34 34,0 0,-33 -202,0 0,33 33,0 0,34 34,0 0,471 -34,0 0,34 -33,0 0,34 202,0" />
<path style="fill:none;stroke:#000;stroke-width:2" d="M970,634 l0,-34 -33,0 0,-34 -34,0 0,-471 34,0 0,-34 33,0 0,-33 -202,0 0,33 34,0 0,34 34,0 0,471 -34,0 0,34 -34,0 0,34 202,0" />
<path style="fill:#366;stroke:#000;stroke-width:2" d="M836,566 l-337,-223 -337,223 0,-49 303,-199 -303,-174 0,-49 337,198 337,-198 0,49 -303,174 303,199 0,49z" />
<path style="fill:#699;stroke:#000;stroke-width:2" d="M575,339 l-34,-21 34,-21 -29,-42 -47,29 -46,-29 -30,42 34,21 -34,21 29,42 47,-30 46,30 30,-42z" />

</svg>
