<?xml version="1.0" encoding="utf-8" standalone="no"?><!DOCTYPE svg PUBLIC "-//W3C//DTD SVG 1.1//EN" "http://www.w3.org/Graphics/SVG/1.1/DTD/svg11-flat-20030114.dtd"><svg width="527" height="999" version="1.1" xmlns="http://www.w3.org/2000/svg" xmlns:xlink="http://www.w3.org/1999/xlink">

<path style="fill:#666;stroke:#000;stroke-width:2" d="M28,892 l0,-785 10,-24 24,-17 27,-12 25,-8 27,-7 31,-5 33,-3 34,-3 12,0 12,0 36,1 34,3 32,4 30,6 27,6 30,11 24,14 20,22 3,8 0,4 0,785 -11,23 -23,18 -27,11 -25,8 -28,7 -30,5 -33,4 -35,2 -12,0 -12,0 -35,-1 -35,-2 -32,-5 -29,-5 -27,-7 -30,-11 -24,-13 -20,-22 -3,-8 0,-4z" />
<path style="fill:#737373" d="M479,106 l-16,-29 -46,-27 -73,-17 -81,-5 -81,5 -73,17 -47,27 -15,29 0,785 15,30 47,27 73,16 81,6 81,-6 73,-16 46,-27 16,-30 0,-785z" />
<path style="fill:#7d7d7d" d="M459,106 l-14,-29 -42,-27 -67,-17 -73,-5 -73,5 -67,17 -42,27 -14,29 0,785 14,30 42,27 67,16 73,6 73,-6 67,-16 42,-27 14,-30 0,-785z" />
<path style="fill:#8a8a8a" d="M440,106 l-13,-29 -38,-27 -60,-17 -66,-5 -66,5 -60,17 -38,27 -13,29 0,785 13,30 38,27 60,16 66,6 66,-6 60,-16 38,-27 13,-30 0,-785z" />
<path style="fill:#949494" d="M420,106 l-11,-29 -34,-27 -53,-17 -59,-5 -59,5 -53,17 -34,27 -11,29 0,785 11,30 34,27 53,16 59,6 59,-6 53,-16 34,-27 11,-30 0,-785z" />
<path style="fill:#a1a1a1" d="M401,106 l-11,-29 -29,-27 -47,-17 -51,-5 -52,5 -46,17 -30,27 -10,29 0,785 10,30 30,27 46,16 52,6 51,-6 47,-16 29,-27 11,-30 0,-785z" />
<path style="fill:#ababab" d="M381,106 l-9,-29 -25,-27 -40,-17 -44,-5 -44,5 -40,17 -25,27 -9,29 0,785 9,30 25,27 40,16 44,6 44,-6 40,-16 25,-27 9,-30 0,-785z" />
<path style="fill:#b8b8b8" d="M361,106 l-7,-29 -21,-27 -33,-17 -37,-5 -37,5 -33,17 -21,27 -7,29 0,785 7,30 21,27 33,16 37,6 37,-6 33,-16 21,-27 7,-30 0,-785z" />
<path style="fill:#c2c2c2" d="M342,106 l-6,-29 -17,-27 -26,-17 -30,-5 -30,5 -26,17 -17,27 -6,29 0,785 6,30 17,27 26,16 30,6 30,-6 26,-16 17,-27 6,-30 0,-785z" />
<path style="fill:#cfcfcf" d="M322,106 l-4,-29 -13,-27 -20,-17 -22,-5 -22,5 -20,17 -13,27 -4,29 0,785 4,30 13,27 20,16 22,6 22,-6 20,-16 13,-27 4,-30 0,-785z" />
<path style="fill:#d9d9d9" d="M302,106 l-3,-29 -8,-27 -13,-17 -15,-5 -15,5 -13,17 -8,27 -3,29 0,785 3,30 8,27 13,16 15,6 15,-6 13,-16 8,-27 3,-30 0,-785z" />
<ellipse style="fill:#e5e5e5" cx="263" cy="499" rx="19" ry="471" />
<path style="fill:#666;stroke:#000;stroke-width:2" d="M479,146 l0,706 -39,-39 0,-628 -354,0 -39,-39 432,0z" />
<path style="fill:#ccc;stroke:#000;stroke-width:2" d="M47,852 l0,-706 39,39 0,628 354,0 39,39 -432,0z" />
<path style="fill:#000" d="M440,185 l0,628 -354,0 0,-628 354,0z" />

</svg>
