<?xml version="1.0" encoding="utf-8" standalone="no"?><!DOCTYPE svg PUBLIC "-//W3C//DTD SVG 1.1//EN" "http://www.w3.org/Graphics/SVG/1.1/DTD/svg11-flat-20030114.dtd"><svg width="371" height="530" version="1.1" xmlns="http://www.w3.org/2000/svg" xmlns:xlink="http://www.w3.org/1999/xlink">

<path style="fill:#4c4c4c" d="M167,515 l-130,-192 0,-276 10,-21 -10,0 -22,21 0,276 150,192 2,0z" />
<path style="fill:#7f7f7f" d="M204,515 l131,-192 0,-276 -11,-21 11,0 21,21 0,276 -149,192 -3,0z" />
<path style="fill:#7f7f7f" d="M172,515 l-82,-192 0,-276 11,-21 -27,0 -11,21 0,276 107,192 2,0z" />
<path style="fill:#666" d="M170,515 l-107,-192 0,-276 11,-21 -27,0 -10,21 0,276 130,192 3,0z" />
<path style="fill:#999" d="M202,515 l106,-192 0,-276 -10,-21 26,0 11,21 0,276 -131,192 -2,0z" />
<path style="fill:#999" d="M175,515 l-58,-192 0,-276 10,-21 -27,0 -10,21 0,276 83,192 2,0z" />
<path style="fill:#b2b2b2" d="M199,515 l82,-192 0,-276 -10,-21 27,0 10,21 0,276 -106,192 -3,0z" />
<path style="fill:#b2b2b2" d="M178,515 l-35,-192 0,-276 8,-21 -24,0 -11,21 0,276 59,192 3,0z" />
<path style="fill:#ccc" d="M196,515 l59,-192 0,-276 -11,-21 27,0 11,21 0,276 -83,192 -3,0z" />
<path style="fill:#ccc" d="M181,515 l-11,-192 0,-276 5,-21 -24,0 -8,21 0,276 35,192 3,0z" />
<path style="fill:#e5e5e5" d="M191,515 l37,-192 0,-276 -8,-21 24,0 11,21 0,276 -59,192 -5,0z" />
<path style="fill:#e5e5e5" d="M186,515 l16,-192 0,-276 -6,-21 -21,0 -5,21 0,276 11,192 5,0z" />
<path style="fill:#fff" d="M186,515 l16,-192 0,-276 -6,-21 24,0 8,21 0,276 -37,192 -5,0z" />
<path style="fill:#7f7f7f" d="M101,26 l85,-11 -149,11 64,0z" />
<path style="fill:#b2b2b2" d="M186,15 l-22,11 -63,0 85,-11z" />
<path style="fill:#e5e5e5" d="M186,15 l37,11 -59,0 22,-11z" />
<path style="fill:#ccc" d="M223,26 l-37,-11 90,11 -53,0z" />
<path style="fill:#b2b2b2" d="M186,15 l90,11 59,0 -149,-11z" />
<path style="fill:none;stroke:#000;stroke-width:2" d="M335,26 l-298,0 149,-11 149,11" />
<path style="fill:none;stroke:#000;stroke-width:2" d="M356,323 l-149,192 -43,0 -149,-192 0,-276 22,-21 298,0 21,21 0,276" />
<path style="fill:none;stroke:#b2b2b2;stroke-width:2" d="M15,315 l3,3 17,4 19,2 23,2 27,1 14,1 16,0 16,1 68,0 17,-1 15,0 15,-1 27,-1 23,-2 18,-2 17,-4 3,-3" />
<path style="fill:none;stroke:#b2b2b2;stroke-width:2" d="M15,55 l3,-3 17,-4 19,-2 23,-1 13,-1 14,-1 30,0 16,-1 68,0 17,1 30,0 14,1 25,1 20,2 16,3 10,2 3,3" />

</svg>
