<?xml version="1.0" encoding="utf-8" standalone="no"?><!DOCTYPE svg PUBLIC "-//W3C//DTD SVG 1.1//EN" "http://www.w3.org/Graphics/SVG/1.1/DTD/svg11-flat-20030114.dtd"><svg width="390" height="999" version="1.1" xmlns="http://www.w3.org/2000/svg" xmlns:xlink="http://www.w3.org/1999/xlink">

<path style="fill:#666638" d="M255,970 l0,-122 106,-154 0,-520 -333,0 0,520 105,154 0,122 122,0z" />
<path style="fill:#7a7a51" d="M239,970 l0,-122 98,-154 0,-520 -285,0 0,520 89,154 0,122 98,0z" />
<path style="fill:#919170" d="M231,970 l0,-122 73,-154 0,-520 -228,0 0,520 74,154 0,122 81,0z" />
<path style="fill:#a6a68a" d="M223,970 l0,-122 57,-154 0,-520 -179,0 0,520 57,154 0,122 65,0z" />
<path style="fill:#babaa6" d="M215,970 l0,-122 40,-154 0,-520 -130,0 0,520 41,154 0,122 49,0z" />
<path style="fill:#d1d1c2" d="M207,970 l0,-122 24,-154 0,-520 -81,0 0,520 24,154 0,122 33,0z" />
<path style="fill:#e5e5dd" d="M198,970 l0,-122 9,-154 0,-520 -33,0 0,520 16,154 0,122 8,0z" />
<path style="fill:none;stroke:#000;stroke-width:2" d="M255,970 l0,-122 106,-154 0,-520 -333,0 0,520 105,154 0,122 122,0" />
<path style="fill:#330" d="M296,174 l-211,0 0,-146 211,0 0,146z" />
<path style="fill:#47470f" d="M280,174 l-179,0 0,-146 179,0 0,146z" />
<path style="fill:#5e5e2e" d="M263,174 l-146,0 0,-146 146,0 0,146z" />
<path style="fill:#737348" d="M247,174 l-114,0 0,-146 114,0 0,146z" />
<path style="fill:#878763" d="M231,174 l-81,0 0,-146 81,0 0,146z" />
<path style="fill:#9e9e7f" d="M215,174 l-49,0 0,-146 49,0 0,146z" />
<path style="fill:#b2b29b" d="M198,174 l-16,0 0,-146 16,0 0,146z" />
<path style="fill:none;stroke:#000;stroke-width:2" d="M296,174 l-211,0 0,-146 211,0 0,146" />
<path style="fill:none;stroke:#000;stroke-width:2" d="M361,695 l-333,0" />
<path style="fill:none;stroke:#000;stroke-width:2" d="M253,847 l-117,0" />

</svg>
