<?xml version="1.0" encoding="utf-8" standalone="no"?><!DOCTYPE svg PUBLIC "-//W3C//DTD SVG 1.1//EN" "http://www.w3.org/Graphics/SVG/1.1/DTD/svg11-flat-20030114.dtd"><svg width="356" height="430" version="1.1" xmlns="http://www.w3.org/2000/svg" xmlns:xlink="http://www.w3.org/1999/xlink">

<path style="fill:#7f7f7f;stroke:#000;stroke-width:2" d="M12,298 l0,-258 3,-6 10,-5 16,-5 9,-2 11,-2 12,-2 12,-1 14,-2 15,-1 15,-1 16,0 16,-1 17,0 17,0 17,1 15,0 16,1 14,1 14,2 13,1 11,2 11,2 18,4 13,5 6,6 1,3 0,258 -7,9 -13,5 -18,4 -11,2 -11,2 -13,1 -14,2 -14,1 -16,1 -15,0 -17,1 -17,0 -17,0 -16,-1 -16,0 -15,-1 -15,-1 -14,-2 -12,-1 -12,-2 -11,-2 -18,-4 -12,-5 -5,-3 -2,-3 -1,-3z" />
<path style="fill:#7f7f7f;stroke:#000;stroke-width:2" d="M12,302 l0,-2 0,-2 1,3 2,3 10,5 16,5 9,2 11,2 12,2 12,1 14,2 15,1 15,1 16,0 16,1 34,0 17,-1 15,0 16,-1 14,-1 14,-2 13,-1 11,-2 11,-2 18,-4 13,-5 6,-6 1,-3 0,2 0,2 -2,12 -3,12 -5,12 -6,10 -7,11 -9,9 -9,9 -11,8 -12,7 -12,7 -14,6 -14,4 -14,4 -16,3 -16,1 -16,1 -16,-1 -16,-1 -15,-3 -15,-4 -14,-4 -13,-6 -13,-7 -12,-7 -11,-8 -9,-9 -9,-9 -7,-11 -6,-10 -5,-12 -3,-12 -2,-12z" />
<path style="fill:#999" d="M40,298 l0,-258 3,-6 8,-5 13,-5 16,-4 21,-3 23,-3 26,-1 28,-1 28,1 26,1 24,3 20,3 17,4 13,5 8,5 3,6 0,258 -3,6 -8,5 -13,5 -17,4 -20,3 -24,3 -26,1 -28,1 -28,-1 -26,-1 -23,-3 -21,-3 -16,-4 -13,-5 -8,-5 -3,-6z" />
<path style="fill:#999" d="M40,302 l0,-2 0,-2 3,6 8,5 13,5 16,4 21,3 23,3 26,1 28,1 28,-1 26,-1 24,-3 20,-3 17,-4 13,-5 8,-5 3,-6 0,4 -4,24 -9,22 -13,20 -18,17 -20,14 -23,10 -25,7 -27,2 -27,-2 -25,-7 -23,-10 -20,-14 -17,-17 -13,-20 -9,-22 -4,-24z" />
<path style="fill:#b2b2b2" d="M86,298 l0,-258 2,-6 5,-5 9,-5 11,-4 13,-3 16,-3 17,-1 19,-1 19,1 17,1 16,3 14,3 11,4 9,5 5,5 2,6 0,258 -2,6 -5,5 -9,5 -11,4 -14,3 -16,3 -17,1 -19,1 -19,-1 -17,-1 -16,-3 -13,-3 -11,-4 -9,-5 -5,-5 -2,-6z" />
<path style="fill:#b2b2b2" d="M86,302 l0,-2 0,-2 2,6 5,5 9,5 11,4 13,3 16,3 17,1 19,1 19,-1 17,-1 16,-3 14,-3 11,-4 9,-5 5,-5 2,-6 0,4 -3,24 -6,22 -9,20 -11,17 -14,14 -15,10 -17,7 -18,2 -18,-2 -16,-7 -16,-10 -13,-14 -12,-17 -9,-20 -5,-22 -3,-24z" />
<path style="fill:#ccc" d="M132,298 l0,-258 1,-6 7,-10 12,-7 17,-4 9,-1 18,2 15,6 9,9 3,5 1,6 0,258 -1,6 -7,10 -12,7 -17,4 -9,1 -18,-2 -14,-6 -10,-9 -3,-5 -1,-6z" />
<path style="fill:#ccc" d="M132,302 l0,-2 0,-2 1,6 3,5 4,5 6,4 6,3 8,3 9,1 9,1 9,-1 9,-1 8,-3 7,-3 5,-4 4,-5 3,-5 1,-6 0,4 -1,24 -3,22 -4,20 -6,17 -7,14 -7,10 -9,7 -9,2 -9,-2 -8,-7 -8,-10 -7,-14 -5,-17 -5,-20 -3,-22 -1,-24z" />
<ellipse style="fill:none;stroke:#000;stroke-width:2" cx="178" cy="39" rx="166" ry="27" />
<path style="fill:none;stroke:#000;stroke-width:2" d="M12,298 l3,6 10,5 16,5 9,2 11,2 12,2 12,1 14,2 15,1 15,1 16,0 16,1 34,0 17,-1 15,0 16,-1 14,-1 14,-2 13,-1 11,-2 11,-2 18,-4 13,-5 7,-9" />
<ellipse style="fill:#7f7f7f;stroke:#000;stroke-width:2" cx="178" cy="39" rx="166" ry="27" />

</svg>
