<?xml version="1.0" encoding="utf-8" standalone="no"?><!DOCTYPE svg PUBLIC "-//W3C//DTD SVG 1.1//EN" "http://www.w3.org/Graphics/SVG/1.1/DTD/svg11-flat-20030114.dtd"><svg width="280" height="530" version="1.1" xmlns="http://www.w3.org/2000/svg" xmlns:xlink="http://www.w3.org/1999/xlink">

<path style="fill:#4c4c4c" d="M140,515 l125,-110 -250,0 125,110z" />
<path style="fill:#4c4c4c" d="M265,109 l-250,0 0,296 250,0 0,-296z" />
<path style="fill:#4c4c4c" d="M187,54 l-94,0 -78,55 250,0 -78,-55z" />
<path style="fill:#4c4c4c" d="M187,15 l-94,0 0,39 94,0 0,-39z" />
<path style="fill:#666" d="M140,515 l125,-110 -242,0 117,110z" />
<path style="fill:#666" d="M265,109 l-242,0 0,296 242,0 0,-296z" />
<path style="fill:#666" d="M187,54 l-90,0 -74,55 242,0 -78,-55z" />
<path style="fill:#666" d="M187,15 l-90,0 0,39 90,0 0,-39z" />
<path style="fill:#7f7f7f" d="M187,15 l-86,0 0,39 86,0 0,-39z" />
<path style="fill:#7f7f7f" d="M265,109 l-78,-55 -86,0 -63,55 227,0z" />
<path style="fill:#7f7f7f" d="M38,109 l0,296 227,0 0,-296 -227,0z" />
<path style="fill:#7f7f7f" d="M140,515 l125,-110 -227,0 102,110z" />
<path style="fill:#b2b2b2" d="M187,15 l-82,0 0,39 82,0 0,-39z" />
<path style="fill:#b2b2b2" d="M265,109 l-78,-55 -82,0 -51,55 211,0z" />
<path style="fill:#b2b2b2" d="M54,109 l0,296 211,0 0,-296 -211,0z" />
<path style="fill:#b2b2b2" d="M140,515 l125,-110 -211,0 86,110z" />
<path style="fill:#ccc" d="M187,15 l-74,0 0,39 74,0 0,-39z" />
<path style="fill:#ccc" d="M265,109 l-78,-55 -74,0 -20,55 172,0z" />
<path style="fill:#ccc" d="M93,109 l0,296 172,0 0,-296 -172,0z" />
<path style="fill:#ccc" d="M140,515 l125,-110 -172,0 47,110z" />
<path style="fill:#e5e5e5" d="M187,15 l-47,0 0,39 47,0 0,-39z" />
<path style="fill:#e5e5e5" d="M265,109 l-78,-55 -47,0 8,55 117,0z" />
<path style="fill:#e5e5e5" d="M148,109 l0,296 117,0 0,-296 -117,0z" />
<path style="fill:#e5e5e5" d="M140,515 l125,-110 -117,0 -8,110z" />
<path style="fill:#fff" d="M187,15 l-24,0 0,39 24,0 0,-39z" />
<path style="fill:#fff" d="M265,109 l-78,-55 -24,0 39,55 63,0z" />
<path style="fill:#fff" d="M202,109 l0,296 63,0 0,-296 -63,0z" />
<path style="fill:#fff" d="M140,515 l125,-110 -63,0 -62,110z" />
<path style="fill:#e5e5e5" d="M187,15 l-16,0 0,39 16,0 0,-39z" />
<path style="fill:#e5e5e5" d="M265,109 l-78,-55 -16,0 55,55 39,0z" />
<path style="fill:#e5e5e5" d="M226,109 l0,296 39,0 0,-296 -39,0z" />
<path style="fill:#e5e5e5" d="M140,515 l125,-110 -39,0 -86,110z" />
<path style="fill:#ccc" d="M187,15 l-8,0 0,39 8,0 0,-39z" />
<path style="fill:#ccc" d="M265,109 l-78,-55 -8,0 70,55 16,0z" />
<path style="fill:#ccc" d="M249,109 l0,296 16,0 0,-296 -16,0z" />
<path style="fill:#ccc" d="M140,515 l125,-110 -16,0 -109,110z" />
<path style="fill:none;stroke:#000;stroke-width:2" d="M265,109 l-250,0 0,297 250,0 0,-297" />
<path style="fill:none;stroke:#000;stroke-width:2" d="M265,109 l-78,-55 -94,0 -78,55 250,0" />
<path style="fill:none;stroke:#000;stroke-width:2" d="M187,54 l-94,0 0,-39 94,0 0,39" />
<path style="fill:none;stroke:#000;stroke-width:2" d="M265,405 l-125,110 -125,-110 250,0" />

</svg>
