<?xml version="1.0" encoding="utf-8" standalone="no"?><!DOCTYPE svg PUBLIC "-//W3C//DTD SVG 1.1//EN" "http://www.w3.org/Graphics/SVG/1.1/DTD/svg11-flat-20030114.dtd"><svg width="530" height="521" version="1.1" xmlns="http://www.w3.org/2000/svg" xmlns:xlink="http://www.w3.org/1999/xlink">

<path style="fill:#7f7f7f;stroke:#000;stroke-width:2" d="M43,350 l-1,-19 0,-19 -1,-19 -1,-20 -1,-19 0,-19 -1,-19 -1,-19 0,-19 -1,-19 0,-19 -1,-20 -1,-19 -1,-19 0,-19 -1,-19 25,-7 26,-5 26,-5 26,-4 27,-3 27,-3 27,-1 26,-1 27,1 27,1 27,3 26,3 26,4 26,5 26,5 25,7 42,43 -9,16 -10,21 -12,27 -14,29 -15,33 -15,34 -17,36 -18,35 -18,35 -18,33 -18,31 -18,26 -18,23 -17,17 -17,11 -16,4 -15,-1 -15,-2 -15,-5 -15,-5 -14,-7 -14,-8 -14,-10 -14,-10 -12,-11 -13,-11 -12,-13 -11,-12 -10,-13 -10,-14 -9,-13 -8,-13z" />
<path style="fill:#e5e5e5;stroke:#000;stroke-width:2" d="M84,391 l-1,-19 0,-19 -1,-19 0,-19 -1,-19 0,-19 -1,-19 -1,-19 0,-19 -1,-19 -1,-19 0,-20 -1,-19 -1,-19 0,-19 -1,-19 25,-7 26,-5 26,-5 26,-4 27,-3 26,-3 27,-1 27,-1 27,1 27,1 26,3 27,3 26,4 26,5 26,5 25,7 -10,305 -8,13 -9,12 -10,12 -10,10 -11,11 -12,9 -12,9 -13,8 -13,7 -13,6 -15,5 -14,5 -15,3 -15,3 -15,1 -15,1 -15,-1 -15,-1 -15,-3 -15,-3 -14,-5 -14,-5 -13,-6 -14,-7 -12,-8 -13,-9 -11,-9 -11,-11 -11,-10 -10,-12 -9,-12 -8,-13z" />
<path style="fill:#e5e5e5;stroke:#000;stroke-width:2" d="M515,89 l-458,0 0,31 458,0 0,-31z" />
<path style="fill:#e5e5e5;stroke:#000;stroke-width:2" d="M515,121 l-458,0 0,31 458,0 0,-31z" />
<path style="fill:#7f7f7f;stroke:#000;stroke-width:2" d="M452,45 l42,42 0,2 21,0 -42,-41 -18,0 -3,-3z" />
<path style="fill:#7f7f7f;stroke:#000;stroke-width:2" d="M57,89 l18,0 0,-4 -43,-41 1,4 -18,0 42,41z" />
<path style="fill:none;stroke:#000;stroke-width:2" d="M75,89 l-42,-42" />
<path style="fill:#7f7f7f;stroke:#000;stroke-width:2" d="M57,152 l0,-32 -42,-41 0,31 42,42z" />
<path style="fill:#7f7f7f;stroke:#000;stroke-width:2" d="M57,121 l0,-32 -42,-41 0,31 42,42z" />

</svg>
