<?xml version="1.0" encoding="utf-8" standalone="no"?><!DOCTYPE svg PUBLIC "-//W3C//DTD SVG 1.1//EN" "http://www.w3.org/Graphics/SVG/1.1/DTD/svg11-flat-20030114.dtd"><svg width="386" height="530" version="1.1" xmlns="http://www.w3.org/2000/svg" xmlns:xlink="http://www.w3.org/1999/xlink">

<path style="fill:#7f7f7f;stroke:#000;stroke-width:2" d="M227,24 l-34,-9 -34,9 68,0z" />
<path style="fill:#b2b2b2" d="M214,24 l-21,-9 -21,9 42,0z" />
<path style="fill:#e5e5e5" d="M199,24 l-6,-9 -6,9 12,0z" />
<path style="fill:#7f7f7f;stroke:#000;stroke-width:2" d="M95,405 l-42,0 0,102 42,0 0,-102z" />
<path style="fill:#b2b2b2" d="M88,405 l-27,0 0,102 27,0 0,-102z" />
<path style="fill:#e5e5e5" d="M78,405 l-7,0 0,102 7,0 0,-102z" />
<path style="fill:#7f7f7f;stroke:#000;stroke-width:2" d="M333,405 l-43,0 0,102 43,0 0,-102z" />
<path style="fill:#b2b2b2" d="M325,405 l-27,0 0,102 27,0 0,-102z" />
<path style="fill:#e5e5e5" d="M315,405 l-7,0 0,102 7,0 0,-102z" />
<path style="fill:#a6a6a6" d="M362,100 l-1,-18 -5,-14 -6,-12 -19,-16 -23,-7 -13,-1 -13,0 -191,0 -25,3 -11,5 -11,7 -8,9 -7,12 -4,14 -2,18 0,17 0,254 2,18 4,14 7,12 8,9 11,7 23,7 13,1 13,0 191,0 25,-3 21,-12 9,-9 6,-12 5,-14 1,-18 0,-17 0,-254z" />
<path style="fill:#b2b2b2" d="M345,100 l-1,-18 -4,-14 -6,-12 -17,-16 -21,-7 -12,-1 -11,0 -172,0 -22,3 -20,12 -8,9 -6,12 -4,14 -1,18 0,17 0,254 1,18 4,14 6,12 18,16 21,7 11,1 11,0 172,0 23,-3 19,-12 8,-9 6,-12 4,-14 1,-18 0,-17 0,-254z" />
<path style="fill:#bfbfbf" d="M320,100 l-1,-18 -3,-14 -5,-12 -14,-16 -18,-7 -10,-1 -19,0 -133,0 -19,3 -16,12 -7,9 -5,12 -3,14 -1,18 0,17 0,254 1,18 3,14 5,12 14,16 18,7 10,1 19,0 133,0 19,-3 16,-12 7,-9 5,-12 3,-14 1,-18 0,-17 0,-254z" />
<path style="fill:#ccc" d="M286,100 l-1,-18 -2,-14 -8,-21 -12,-12 -7,-2 -7,-1 -14,0 -98,0 -14,3 -12,12 -8,21 -2,14 -1,18 0,17 0,254 1,18 2,14 8,21 12,12 7,2 7,1 14,0 98,0 14,-3 12,-12 8,-21 2,-14 1,-18 0,-17 0,-254z" />
<path style="fill:#d9d9d9" d="M244,100 l0,-18 -2,-14 -4,-21 -7,-12 -4,-2 -4,-1 -8,0 -53,0 -11,8 -5,16 -2,12 -2,14 0,18 0,289 2,14 4,21 7,12 3,2 4,1 8,0 53,0 8,-3 7,-12 4,-21 2,-14 0,-18 0,-271z" />
<path style="fill:#e5e5e5" d="M210,100 l0,-18 -1,-14 -1,-21 -4,-14 -1,-1 -5,0 -15,0 -3,3 -3,21 0,12 -1,14 0,18 0,289 1,14 1,21 2,12 2,2 1,1 5,0 15,0 5,-15 1,-21 1,-14 0,-18 0,-271z" />
<path style="fill:none;stroke:#000;stroke-width:2" d="M362,100 l-1,-18 -5,-14 -6,-12 -19,-16 -23,-7 -13,-1 -13,0 -191,0 -25,3 -11,5 -11,7 -8,9 -7,12 -4,14 -2,18 0,17 0,254 2,18 4,14 7,12 8,9 11,7 23,7 13,1 13,0 191,0 25,-3 21,-12 9,-9 6,-12 5,-14 1,-18 0,-17 0,-254" />
<path style="fill:none;stroke:#7f7f7f;stroke-width:2" d="M362,91 l-339,0" />
<path style="fill:none;stroke:#7f7f7f;stroke-width:2" d="M345,57 l-305,0" />
<path style="fill:#999;stroke:#000;stroke-width:2" d="M371,180 l-356,0 0,5 356,0 0,-5z" />
<path style="fill:#7f7f7f;stroke:#000;stroke-width:2" d="M345,515 l-67,0 0,-8 67,0 0,8z" />
<path style="fill:#b2b2b2" d="M333,515 l-43,0 0,-8 43,0 0,8z" />
<path style="fill:#e5e5e5" d="M318,515 l-12,0 0,-8 12,0 0,8z" />
<path style="fill:#7f7f7f;stroke:#000;stroke-width:2" d="M108,515 l-68,0 0,-8 68,0 0,8z" />
<path style="fill:#b2b2b2" d="M95,515 l-42,0 0,-8 42,0 0,8z" />
<path style="fill:#e5e5e5" d="M80,515 l-12,0 0,-8 12,0 0,8z" />
<path style="fill:#7f7f7f;stroke:#000;stroke-width:2" d="M227,36 l-68,0 0,-12 68,0 0,12z" />
<path style="fill:#b2b2b2" d="M214,36 l-42,0 0,-12 42,0 0,12z" />
<path style="fill:#e5e5e5" d="M199,36 l-12,0 0,-12 12,0 0,12z" />
<path style="fill:none;stroke:#000;stroke-width:2" d="M227,30 l-68,0" />

</svg>
