<?xml version="1.0" encoding="utf-8" standalone="no"?><!DOCTYPE svg PUBLIC "-//W3C//DTD SVG 1.1//EN" "http://www.w3.org/Graphics/SVG/1.1/DTD/svg11-flat-20030114.dtd"><svg width="397" height="397" version="1.1" xmlns="http://www.w3.org/2000/svg" xmlns:xlink="http://www.w3.org/1999/xlink">

<path style="fill:#7f7f7f;stroke:#000;stroke-width:2" d="M11,339 l0,-203 1,-13 3,-12 4,-12 7,-12 8,-11 9,-10 11,-9 12,-9 13,-8 15,-8 15,-6 16,-5 17,-4 18,-3 19,-2 19,-1 19,1 19,2 18,3 17,4 17,5 15,6 15,8 13,8 12,9 11,9 9,10 8,11 7,12 4,12 3,12 1,13 0,203 -1,5 -7,9 -15,8 -9,4 -11,4 -12,3 -13,3 -15,3 -15,2 -17,2 -17,2 -18,1 -19,1 -19,0 -19,0 -19,-1 -18,-1 -17,-2 -16,-2 -15,-2 -15,-3 -13,-3 -12,-3 -11,-4 -9,-4 -15,-8 -7,-9 -1,-5z" />
<path style="fill:#999" d="M42,339 l0,-203 3,-25 9,-24 15,-21 19,-18 23,-16 26,-11 30,-7 31,-3 32,3 29,7 27,11 23,16 19,18 15,21 9,24 3,25 0,203 -3,9 -9,9 -15,8 -19,7 -23,6 -27,4 -29,3 -32,1 -31,-1 -30,-3 -26,-4 -23,-6 -19,-7 -15,-8 -9,-9 -3,-9z" />
<path style="fill:#b2b2b2" d="M89,339 l0,-203 2,-25 7,-24 10,-21 13,-18 16,-16 19,-11 20,-7 22,-3 22,3 21,7 19,11 16,16 13,18 10,21 7,24 2,25 0,203 -2,9 -7,9 -10,8 -13,7 -16,6 -19,4 -21,3 -22,1 -22,-1 -20,-3 -19,-4 -16,-6 -13,-7 -10,-8 -7,-9 -2,-9z" />
<path style="fill:#ccc" d="M152,339 l0,-203 1,-25 3,-24 4,-21 6,-18 6,-16 8,-11 9,-7 9,-3 9,3 9,7 8,11 7,16 6,18 4,21 3,24 1,25 0,203 -1,9 -3,9 -10,15 -15,10 -9,3 -9,1 -9,-1 -9,-3 -14,-10 -10,-15 -3,-9 -1,-9z" />
<path style="fill:none;stroke:#000;stroke-width:2" d="M386,136 l-1,5 -7,9 -15,8 -9,4 -11,4 -12,3 -13,3 -15,3 -15,2 -17,2 -17,2 -18,1 -19,1 -38,0 -19,-1 -18,-1 -17,-2 -16,-2 -15,-2 -15,-3 -13,-3 -12,-3 -11,-4 -9,-4 -15,-8 -7,-9 -1,-5" />

</svg>
