<?xml version="1.0" encoding="utf-8" standalone="no"?><!DOCTYPE svg PUBLIC "-//W3C//DTD SVG 1.1//EN" "http://www.w3.org/Graphics/SVG/1.1/DTD/svg11-flat-20030114.dtd"><svg width="320" height="530" version="1.1" xmlns="http://www.w3.org/2000/svg" xmlns:xlink="http://www.w3.org/1999/xlink">

<path style="fill:#4c4c4c;stroke:#000;stroke-width:2" d="M115,420 l0,73 5,0 0,5 -38,0 0,-5 5,0 0,-73 28,0z" />
<path style="fill:#4c4c4c;stroke:#000;stroke-width:2" d="M235,420 l0,73 5,0 0,5 -39,0 1,-5 5,0 0,-73 28,0z" />
<path style="fill:#4c4c4c;stroke:#000;stroke-width:2" d="M246,512 l0,3 45,0 0,-3 -8,0 -6,0 -5,0 -3,0 -4,0 -4,0 -6,0 -9,0z" />
<path style="fill:#4c4c4c;stroke:#000;stroke-width:2" d="M31,512 l0,3 45,0 0,-3 -8,0 -6,0 -5,0 -3,0 -4,0 -4,0 -6,0 -9,0z" />
<path style="fill:#4c4c4c" d="M49,425 l-9,-17 -8,-183 8,-184 9,-17 -9,0 -17,17 -8,184 8,183 17,17 9,0z" />
<path style="fill:#7f7f7f" d="M273,425 l9,-17 6,-183 -6,-184 -9,-17 9,0 17,17 6,184 -6,183 -17,17 -9,0z" />
<path style="fill:#7f7f7f" d="M92,425 l-9,-17 -4,-183 4,-184 9,-17 -22,0 -8,17 -8,184 8,183 8,17 22,0z" />
<path style="fill:#666" d="M70,425 l-8,-17 -8,-183 8,-184 8,-17 -21,0 -9,17 -9,184 9,183 9,17 21,0z" />
<path style="fill:#999" d="M252,425 l8,-17 8,-183 -8,-184 -8,-17 21,0 9,17 6,184 -6,183 -9,17 -21,0z" />
<path style="fill:#999" d="M113,425 l-8,-17 -4,-183 4,-184 8,-17 -21,0 -9,17 -4,184 4,183 9,17 21,0z" />
<path style="fill:#b2b2b2" d="M230,425 l9,-17 5,-183 -5,-184 -9,-17 22,0 8,17 8,184 -8,183 -8,17 -22,0z" />
<path style="fill:#b2b2b2" d="M133,425 l-7,-17 -3,-183 3,-184 7,-17 -20,0 -8,17 -4,184 4,183 8,17 20,0z" />
<path style="fill:#ccc" d="M208,425 l9,-17 4,-183 -4,-184 -9,-17 22,0 9,17 4,184 -4,183 -9,17 -22,0z" />
<path style="fill:#ccc" d="M152,425 l-4,-17 -3,-183 3,-184 4,-17 -19,0 -7,17 -3,184 3,183 7,17 19,0z" />
<path style="fill:#e5e5e5" d="M189,425 l6,-17 4,-183 -4,-184 -6,-17 20,0 8,17 4,184 -4,183 -8,17 -20,0z" />
<path style="fill:#e5e5e5" d="M170,425 l4,-17 2,-183 -2,-184 -4,-17 -18,0 -4,17 -3,184 3,183 4,17 18,0z" />
<path style="fill:#fff" d="M170,425 l4,-17 2,-183 -2,-184 -4,-17 19,0 7,17 3,184 -3,183 -7,17 -19,0z" />
<path style="fill:#7f7f7f" d="M91,24 l69,-9 -120,9 51,0z" />
<path style="fill:#b2b2b2" d="M160,15 l-17,9 -52,0 69,-9z" />
<path style="fill:#e5e5e5" d="M160,15 l31,9 -48,0 17,-9z" />
<path style="fill:#ccc" d="M191,24 l-31,-9 74,9 -43,0z" />
<path style="fill:#b2b2b2" d="M160,15 l74,9 47,0 -121,-9z" />
<path style="fill:none;stroke:#000;stroke-width:2" d="M282,24 l-242,0 122,-9 120,9" />
<path style="fill:none;stroke:#000;stroke-width:2" d="M299,408 l-17,17 -242,0 -17,-17 -8,-183 8,-184 17,-18 242,0 17,18 6,184 -6,183" />
<path style="fill:none;stroke:#b2b2b2;stroke-width:2" d="M23,46 l3,-2 8,-2 12,-2 17,-2 20,-1 24,-1 25,-1 28,0 27,0 26,1 23,1 21,1 16,2 13,2 8,2 3,2" />
<path style="fill:none;stroke:#b2b2b2;stroke-width:2" d="M23,402 l3,2 8,2 12,2 17,1 20,1 24,1 25,1 28,0 27,0 26,-1 23,-1 21,-1 16,-1 13,-2 8,-2 3,-2" />
<path style="fill:#4c4c4c;stroke:#000;stroke-width:2" d="M37,509 l8,0 0,-95 -8,-2 0,97z" />
<path style="fill:#4c4c4c;stroke:#000;stroke-width:2" d="M252,509 l8,0 0,-92 -8,0 0,92z" />
<path style="fill:#666;stroke:#000;stroke-width:2" d="M45,509 l9,0 0,-92 -9,-3 0,95z" />
<path style="fill:#666;stroke:#000;stroke-width:2" d="M260,509 l8,0 0,-92 -8,0 0,92z" />
<path style="fill:#7f7f7f;stroke:#000;stroke-width:2" d="M54,509 l8,0 0,-92 -8,0 0,92z" />
<path style="fill:#7f7f7f;stroke:#000;stroke-width:2" d="M268,509 l9,0 0,-95 -9,3 0,92z" />
<path style="fill:#b2b2b2;stroke:#000;stroke-width:2" d="M62,509 l-31,0 0,3 45,0 0,-3 -6,0 0,-92 -8,0 0,92z" />
<path style="fill:#b2b2b2;stroke:#000;stroke-width:2" d="M277,509 l-31,0 0,3 45,0 0,-3 -6,0 0,-98 -8,3 0,95z" />

</svg>
