<?xml version="1.0" encoding="utf-8" standalone="no"?><!DOCTYPE svg PUBLIC "-//W3C//DTD SVG 1.1//EN" "http://www.w3.org/Graphics/SVG/1.1/DTD/svg11-flat-20030114.dtd"><svg width="606" height="999" version="1.1" xmlns="http://www.w3.org/2000/svg" xmlns:xlink="http://www.w3.org/1999/xlink">

<path style="fill:#7f7f7f" d="M362,87 l-118,0 0,-59 118,0 0,59z" />
<path style="fill:#7f7f7f" d="M480,146 l-354,0 0,-59 354,0 0,59z" />
<path style="fill:#7f7f7f" d="M538,204 l-471,0 0,-59 471,0 0,59z" />
<path style="fill:#7f7f7f" d="M578,204 l-550,0 0,766 550,0 0,-766z" />
<path style="fill:#999" d="M532,204 l-458,0 0,766 458,0 0,-766z" />
<path style="fill:#999" d="M499,204 l-393,0 0,-59 393,0 0,59z" />
<path style="fill:#999" d="M450,146 l-295,0 0,-59 295,0 0,59z" />
<path style="fill:#999" d="M352,87 l-99,0 0,-59 99,0 0,59z" />
<path style="fill:#a6a6a6" d="M459,204 l-313,0 0,-59 313,0 0,59z" />
<path style="fill:#a6a6a6" d="M486,204 l-366,0 0,766 366,0 0,-766z" />
<path style="fill:#b2b2b2" d="M463,204 l-321,0 0,766 321,0 0,-766z" />
<path style="fill:#b2b2b2" d="M440,204 l-275,0 0,-59 275,0 0,59z" />
<path style="fill:#b2b2b2" d="M403,146 l-201,0 0,-59 201,0 0,59z" />
<path style="fill:#ccc" d="M406,204 l-206,0 0,766 206,0 0,-766z" />
<path style="fill:#ccc" d="M382,146 l-158,0 0,-59 158,0 0,59z" />
<path style="fill:#ccc" d="M337,87 l-69,0 0,-59 69,0 0,59z" />
<path style="fill:#ccc" d="M391,204 l-177,0 0,-59 177,0 0,59z" />
<path style="fill:#e5e5e5" d="M312,87 l-19,0 0,-59 19,0 0,59z" />
<path style="fill:#e5e5e5" d="M332,146 l-59,0 0,-59 59,0 0,59z" />
<path style="fill:#e5e5e5" d="M342,204 l-79,0 0,-59 79,0 0,59z" />
<path style="fill:#e5e5e5" d="M349,204 l-92,0 0,766 92,0 0,-766z" />
<path style="fill:none;stroke:#000;stroke-width:2" d="M578,970 l-550,0 0,-766 39,0 0,-58 59,0 0,-59 118,0 0,-59 117,0 0,59 118,0 0,59 59,0 0,58 40,0 0,766" />
<path style="fill:none;stroke:#000;stroke-width:2" d="M361,87 l-117,0" />
<path style="fill:none;stroke:#000;stroke-width:2" d="M479,146 l-353,0" />
<path style="fill:none;stroke:#000;stroke-width:2" d="M538,204 l-471,0" />

</svg>
