<?xml version="1.0" encoding="utf-8" standalone="no"?><!DOCTYPE svg PUBLIC "-//W3C//DTD SVG 1.1//EN" "http://www.w3.org/Graphics/SVG/1.1/DTD/svg11-flat-20030114.dtd"><svg width="530" height="514" version="1.1" xmlns="http://www.w3.org/2000/svg" xmlns:xlink="http://www.w3.org/1999/xlink">

<path style="fill:#4c4c4c" d="M62,499 l-16,-31 0,-406 16,-32 -16,0 -31,32 0,406 31,31 16,0z" />
<path style="fill:#7f7f7f" d="M468,499 l16,-31 0,-406 -16,-32 16,0 31,32 0,406 -31,31 -16,0z" />
<path style="fill:#7f7f7f" d="M140,499 l-15,-31 0,-406 15,-32 -39,0 -16,32 0,406 16,31 39,0z" />
<path style="fill:#666" d="M101,499 l-16,-31 0,-406 16,-32 -39,0 -16,32 0,406 16,31 39,0z" />
<path style="fill:#999" d="M429,499 l16,-31 0,-406 -16,-32 39,0 16,32 0,406 -16,31 -39,0z" />
<path style="fill:#999" d="M179,499 l-15,-31 0,-406 15,-32 -39,0 -16,32 0,406 16,31 39,0z" />
<path style="fill:#b2b2b2" d="M390,499 l16,-31 0,-406 -16,-32 39,0 16,32 0,406 -16,31 -39,0z" />
<path style="fill:#b2b2b2" d="M214,499 l-11,-31 0,-406 11,-32 -35,0 -16,32 0,406 16,31 35,0z" />
<path style="fill:#ccc" d="M351,499 l16,-31 0,-406 -16,-32 39,0 16,32 0,406 -16,31 -39,0z" />
<path style="fill:#ccc" d="M249,499 l-7,-31 0,-406 7,-32 -35,0 -12,32 0,406 12,31 35,0z" />
<path style="fill:#e5e5e5" d="M316,499 l12,-31 0,-406 -12,-32 35,0 16,32 0,406 -16,31 -35,0z" />
<path style="fill:#e5e5e5" d="M281,499 l8,-31 0,-406 -8,-32 -32,0 -7,32 0,406 7,31 32,0z" />
<path style="fill:#fff" d="M281,499 l8,-31 0,-406 -8,-32 35,0 12,32 0,406 -12,31 -35,0z" />
<path style="fill:#7f7f7f" d="M140,30 l125,-15 -219,15 94,0z" />
<path style="fill:#b2b2b2" d="M265,15 l-31,15 -94,0 125,-15z" />
<path style="fill:#e5e5e5" d="M265,15 l55,15 -86,0 31,-15z" />
<path style="fill:#ccc" d="M320,30 l-55,-15 133,15 -78,0z" />
<path style="fill:#b2b2b2" d="M265,15 l133,15 86,0 -219,-15z" />
<path style="fill:none;stroke:#000;stroke-width:2" d="M484,30 l-438,0 219,-15 219,15" />
<path style="fill:none;stroke:#000;stroke-width:2" d="M515,468 l-31,31 -438,0 -31,-31 0,-406 31,-32 438,0 31,32 0,406" />
<path style="fill:none;stroke:#b2b2b2;stroke-width:2" d="M15,456 l1,2 18,6 23,3 15,2 16,1 17,1 19,2 21,1 21,0 23,1 24,1 100,0 24,-1 23,-1 21,0 21,-1 19,-2 17,-1 16,-1 15,-2 23,-3 14,-4 4,-2 1,-2" />
<path style="fill:none;stroke:#b2b2b2;stroke-width:2" d="M15,73 l1,-2 18,-6 23,-3 15,-1 16,-2 17,-1 19,-1 21,-1 21,-1 23,0 24,-1 100,0 24,1 23,0 21,1 21,1 19,1 17,1 16,2 15,1 23,3 14,4 4,2 1,2" />

</svg>
