<?xml version="1.0" encoding="utf-8" standalone="no"?><!DOCTYPE svg PUBLIC "-//W3C//DTD SVG 1.1//EN" "http://www.w3.org/Graphics/SVG/1.1/DTD/svg11-flat-20030114.dtd"><svg width="480" height="531" version="1.1" xmlns="http://www.w3.org/2000/svg" xmlns:xlink="http://www.w3.org/1999/xlink">

<path style="fill:#4c4c4c" d="M461,248 l-63,0 0,268 63,0 0,-268z" />
<path style="fill:#666" d="M461,248 l-59,0 0,268 59,0 0,-268z" />
<path style="fill:#999" d="M461,248 l-51,0 0,268 51,0 0,-268z" />
<path style="fill:#b2b2b2" d="M461,248 l-43,0 0,268 43,0 0,-268z" />
<path style="fill:#ccc" d="M461,248 l-36,0 0,268 36,0 0,-268z" />
<path style="fill:#b2b2b2" d="M461,248 l-4,0 0,268 4,0 0,-268z" />
<path style="fill:#fff" d="M453,248 l-16,0 0,268 16,0 0,-268z" />
<path style="fill:none;stroke:#000;stroke-width:2" d="M461,248 l-63,0 0,268 63,0 0,-268" />
<path style="fill:#333" d="M465,378 l-71,0 0,8 71,0 0,-8z" />
<path style="fill:#7f7f7f" d="M465,378 l-71,0 0,4 71,0 0,-4z" />
<path style="fill:#333" d="M82,248 l-63,0 0,268 63,0 0,-268z" />
<path style="fill:#4c4c4c" d="M82,248 l-59,0 0,268 59,0 0,-268z" />
<path style="fill:#7f7f7f" d="M82,248 l-51,0 0,268 51,0 0,-268z" />
<path style="fill:#999" d="M82,248 l-43,0 0,268 43,0 0,-268z" />
<path style="fill:#b2b2b2" d="M82,248 l-35,0 0,268 35,0 0,-268z" />
<path style="fill:#7f7f7f" d="M82,248 l-4,0 0,268 4,0 0,-268z" />
<path style="fill:#ccc" d="M75,248 l-16,0 0,268 16,0 0,-268z" />
<path style="fill:none;stroke:#000;stroke-width:2" d="M82,248 l-63,0 0,268 63,0 0,-268" />
<path style="fill:#333" d="M87,378 l-72,0 0,8 72,0 0,-8z" />
<path style="fill:#7f7f7f" d="M87,378 l-72,0 0,4 72,0 0,-4z" />
<circle style="fill:#4c4c4c" cx="240" cy="244" r="221" />
<circle style="fill:#666" cx="242" cy="242" r="215" />
<circle style="fill:#7f7f7f" cx="246" cy="238" r="211" />
<circle style="fill:#999" cx="250" cy="234" r="203" />
<circle style="fill:#b2b2b2" cx="256" cy="228" r="189" />
<circle style="fill:#ccc" cx="262" cy="222" r="175" />
<circle style="fill:#e5e5e5" cx="269" cy="214" r="155" />
<circle style="fill:none;stroke:#000;stroke-width:2" cx="240" cy="244" r="221" />
<ellipse style="fill:none;stroke:#ccc;stroke-width:2" cx="240" cy="244" rx="153" ry="221" />
<ellipse style="fill:none;stroke:#ccc;stroke-width:2" cx="240" cy="244" rx="63" ry="221" />
<path style="fill:none;stroke:#ccc;stroke-width:2" d="M425,248 l-209,0" />
<path style="fill:none;stroke:#ccc;stroke-width:2" d="M382,208 l-209,0" />
<path style="fill:none;stroke:#ccc;stroke-width:2" d="M402,138 l-91,0" />
<path style="fill:none;stroke:#ccc;stroke-width:2" d="M331,106 l-209,0" />
<path style="fill:none;stroke:#ccc;stroke-width:2" d="M276,287 l-209,0" />
<path style="fill:none;stroke:#ccc;stroke-width:2" d="M382,366 l-169,0" />
<path style="fill:#4c4c4c" d="M272,248 l-63,0 0,268 63,0 0,-268z" />
<path style="fill:#666" d="M272,248 l-59,0 0,268 59,0 0,-268z" />
<path style="fill:#999" d="M272,248 l-52,0 0,268 52,0 0,-268z" />
<path style="fill:#b2b2b2" d="M272,248 l-44,0 0,268 44,0 0,-268z" />
<path style="fill:#ccc" d="M272,248 l-36,0 0,268 36,0 0,-268z" />
<path style="fill:#b2b2b2" d="M272,248 l-4,0 0,268 4,0 0,-268z" />
<path style="fill:#fff" d="M264,248 l-16,0 0,268 16,0 0,-268z" />
<path style="fill:none;stroke:#000;stroke-width:2" d="M272,248 l-63,0 0,268 63,0 0,-268" />
<path style="fill:none;stroke:#000;stroke-width:2" d="M276,20 l-75,0" />
<path style="fill:none;stroke:#000;stroke-width:2" d="M276,16 l-75,0" />
<path style="fill:none;stroke:#000;stroke-width:2" d="M268,27 l0,-12" />
<path style="fill:none;stroke:#000;stroke-width:2" d="M209,27 l0,-12" />
<path style="fill:none;stroke:#000;stroke-width:2" d="M248,27 l0,-12" />
<path style="fill:none;stroke:#000;stroke-width:2" d="M229,27 l0,-12" />
<path style="fill:none;stroke:#000;stroke-width:2" d="M394,248 l0,268" />
<path style="fill:none;stroke:#000;stroke-width:2" d="M382,248 l0,268" />
<path style="fill:none;stroke:#000;stroke-width:2" d="M394,508 l-12,0" />
<path style="fill:none;stroke:#000;stroke-width:2" d="M394,500 l-12,0" />
<path style="fill:none;stroke:#000;stroke-width:2" d="M394,492 l-12,0" />
<path style="fill:none;stroke:#000;stroke-width:2" d="M394,485 l-12,0" />
<path style="fill:none;stroke:#000;stroke-width:2" d="M394,477 l-12,0" />
<path style="fill:none;stroke:#000;stroke-width:2" d="M394,469 l-12,0" />
<path style="fill:none;stroke:#000;stroke-width:2" d="M394,461 l-12,0" />
<path style="fill:none;stroke:#000;stroke-width:2" d="M394,453 l-12,0" />
<path style="fill:none;stroke:#000;stroke-width:2" d="M394,445 l-12,0" />
<path style="fill:none;stroke:#000;stroke-width:2" d="M394,437 l-12,0" />
<path style="fill:none;stroke:#000;stroke-width:2" d="M394,429 l-12,0" />
<path style="fill:none;stroke:#000;stroke-width:2" d="M394,421 l-12,0" />
<path style="fill:none;stroke:#000;stroke-width:2" d="M394,414 l-12,0" />
<path style="fill:none;stroke:#000;stroke-width:2" d="M394,405 l-12,0" />
<path style="fill:none;stroke:#000;stroke-width:2" d="M394,398 l-12,0" />
<path style="fill:none;stroke:#000;stroke-width:2" d="M394,390 l-12,0" />
<path style="fill:none;stroke:#000;stroke-width:2" d="M394,382 l-12,0" />
<path style="fill:none;stroke:#000;stroke-width:2" d="M394,374 l-12,0" />
<path style="fill:none;stroke:#000;stroke-width:2" d="M394,366 l-12,0" />
<path style="fill:none;stroke:#000;stroke-width:2" d="M394,358 l-12,0" />
<path style="fill:none;stroke:#000;stroke-width:2" d="M394,350 l-12,0" />
<path style="fill:none;stroke:#000;stroke-width:2" d="M394,342 l-12,0" />
<path style="fill:none;stroke:#000;stroke-width:2" d="M394,335 l-12,0" />
<path style="fill:none;stroke:#000;stroke-width:2" d="M394,327 l-12,0" />
<path style="fill:none;stroke:#000;stroke-width:2" d="M394,318 l-12,0" />
<path style="fill:none;stroke:#000;stroke-width:2" d="M394,311 l-12,0" />
<path style="fill:none;stroke:#000;stroke-width:2" d="M394,303 l-12,0" />
<path style="fill:none;stroke:#000;stroke-width:2" d="M394,295 l-12,0" />
<path style="fill:none;stroke:#000;stroke-width:2" d="M394,287 l-12,0" />
<path style="fill:none;stroke:#000;stroke-width:2" d="M394,279 l-12,0" />
<path style="fill:none;stroke:#000;stroke-width:2" d="M394,272 l-12,0" />
<path style="fill:none;stroke:#000;stroke-width:2" d="M394,264 l-12,0" />
<path style="fill:none;stroke:#000;stroke-width:2" d="M394,255 l-12,0" />
<path style="fill:none;stroke:#000;stroke-width:2" d="M394,240 l-12,0" />
<path style="fill:none;stroke:#000;stroke-width:2" d="M394,232 l-12,0" />
<path style="fill:none;stroke:#000;stroke-width:2" d="M394,224 l-12,0" />
<path style="fill:none;stroke:#000;stroke-width:2" d="M393,217 l-12,0" />
<path style="fill:none;stroke:#000;stroke-width:2" d="M392,209 l-12,0" />
<path style="fill:none;stroke:#000;stroke-width:2" d="M392,201 l-12,0" />
<path style="fill:none;stroke:#000;stroke-width:2" d="M390,193 l-12,0" />
<path style="fill:none;stroke:#000;stroke-width:2" d="M389,185 l-12,0" />
<path style="fill:none;stroke:#000;stroke-width:2" d="M388,177 l-12,0" />
<path style="fill:none;stroke:#000;stroke-width:2" d="M386,169 l-12,0" />
<path style="fill:none;stroke:#000;stroke-width:2" d="M383,161 l-12,0" />
<path style="fill:none;stroke:#000;stroke-width:2" d="M380,153 l-10,0" />
<path style="fill:none;stroke:#000;stroke-width:2" d="M378,146 l-11,0" />
<path style="fill:none;stroke:#000;stroke-width:2" d="M374,138 l-9,0" />
<path style="fill:none;stroke:#000;stroke-width:2" d="M372,130 l-10,0" />
<path style="fill:none;stroke:#000;stroke-width:2" d="M368,122 l-9,0" />
<path style="fill:none;stroke:#000;stroke-width:2" d="M365,114 l-10,0" />
<path style="fill:none;stroke:#000;stroke-width:2" d="M360,106 l-9,0" />
<path style="fill:none;stroke:#000;stroke-width:2" d="M356,98 l-9,0" />
<path style="fill:none;stroke:#000;stroke-width:2" d="M350,90 l-8,0" />
<path style="fill:none;stroke:#000;stroke-width:2" d="M344,82 l-7,0" />
<path style="fill:none;stroke:#000;stroke-width:2" d="M339,74 l-8,0" />
<path style="fill:none;stroke:#000;stroke-width:2" d="M332,67 l-7,0" />
<path style="fill:none;stroke:#000;stroke-width:2" d="M324,59 l-7,0" />
<path style="fill:none;stroke:#000;stroke-width:2" d="M314,50 l-6,0" />
<path style="fill:none;stroke:#000;stroke-width:2" d="M304,43 l-5,0" />
<path style="fill:none;stroke:#000;stroke-width:2" d="M394,248 l-12,0" />
<path style="fill:none;stroke:#000;stroke-width:2" d="M382,246 l0,-1 0,-1 -1,-23 -2,-22 -3,-21 -5,-20 -6,-19 -7,-19 -9,-17 -9,-15 -10,-15 -11,-12 -12,-11 -12,-10 -13,-7 -14,-6 -14,-3 -14,-1" />
<path style="fill:none;stroke:#000;stroke-width:2" d="M394,246 l0,-1 0,-1 -1,-23 -2,-22 -4,-21 -5,-20 -7,-19 -7,-19 -9,-17 -10,-15 -11,-15 -12,-12 -13,-11 -13,-10 -14,-7 -15,-6 -15,-3 -16,-1" />
<path style="fill:#333" d="M87,504 l-72,0 0,8 72,0 0,-8z" />
<path style="fill:#333" d="M276,378 l-71,0 0,8 71,0 0,-8z" />
<path style="fill:#333" d="M276,504 l-71,0 0,8 71,0 0,-8z" />
<path style="fill:#333" d="M465,504 l-71,0 0,8 71,0 0,-8z" />
<path style="fill:#7f7f7f" d="M276,378 l-71,0 0,4 71,0 0,-4z" />
<path style="fill:#7f7f7f" d="M87,504 l-72,0 0,4 72,0 0,-4z" />
<path style="fill:#7f7f7f" d="M276,504 l-71,0 0,4 71,0 0,-4z" />
<path style="fill:#7f7f7f" d="M465,504 l-71,0 0,4 71,0 0,-4z" />

</svg>
