<?xml version="1.0" encoding="utf-8" standalone="no"?><!DOCTYPE svg PUBLIC "-//W3C//DTD SVG 1.1//EN" "http://www.w3.org/Graphics/SVG/1.1/DTD/svg11-flat-20030114.dtd"><svg width="608" height="999" version="1.1" xmlns="http://www.w3.org/2000/svg" xmlns:xlink="http://www.w3.org/1999/xlink">

<path style="fill:#7f7fff" d="M29,47 l20,5 27,3 33,1 40,2 48,2 52,2 109,0 53,-2 46,-2 40,-2 35,-1 42,-6 4,-4 0,908 -6,4 -40,6 -35,2 -40,4 -46,0 -53,1 -111,0 -50,-1 -46,-2 -42,-2 -33,-2 -41,-6 -6,-4 0,-906z" />
<ellipse style="fill:#7f7fff;stroke:#000;stroke-width:2" cx="304" cy="45" rx="276" ry="17" />
<path style="fill:none;stroke:#000;stroke-width:2" d="M574,51 l-17,-2 -25,-4 -33,-2 -42,-2 -46,-2 -53,-2 -55,0 -54,0 -52,2 -48,2 -40,2 -33,2 -27,4 -10,2" />
<path style="fill:#8787ff" d="M39,49 l35,6 35,1 40,2 48,2 50,2 111,0 53,-2 46,-2 40,-2 35,-1 42,-6 4,-4 0,908 -6,4 -40,6 -35,2 -40,4 -46,0 -53,1 -111,0 -50,-1 -46,-2 -42,-2 -33,-2 -37,-6 0,-908z" />
<path style="fill:#8c8cff" d="M60,52 l14,3 35,1 40,2 48,2 50,2 111,0 53,-2 46,-2 40,-2 35,-1 42,-6 0,-2 0,908 -2,2 -40,6 -35,2 -40,4 -46,0 -53,1 -111,0 -50,-1 -46,-2 -42,-2 -33,-2 -16,-2 0,-909z" />
<path style="fill:#9494ff" d="M83,55 l26,1 40,2 48,2 50,2 111,0 53,-2 46,-2 40,-2 35,-1 32,-4 0,908 -32,4 -35,2 -40,4 -46,0 -53,1 -111,0 -50,-1 -46,-2 -42,-2 -26,-2 0,-908z" />
<path style="fill:#9494ff" d="M83,55 l26,1 40,2 48,2 50,2 111,0 53,-2 46,-2 40,-2 35,-1 32,-4 0,908 -32,4 -35,2 -40,4 -46,0 -53,1 -111,0 -50,-1 -46,-2 -42,-2 -26,-2 0,-908z" />
<path style="fill:#9494ff" d="M83,55 l26,1 40,2 48,2 50,2 111,0 53,-2 46,-2 40,-2 35,-1 32,-4 0,908 -32,4 -35,2 -40,4 -46,0 -53,1 -111,0 -50,-1 -46,-2 -42,-2 -26,-2 0,-908z" />
<path style="fill:#9494ff" d="M83,55 l26,1 40,2 48,2 50,2 111,0 53,-2 46,-2 40,-2 35,-1 32,-4 0,908 -32,4 -35,2 -40,4 -46,0 -53,1 -111,0 -50,-1 -46,-2 -42,-2 -26,-2 0,-908z" />
<path style="fill:#9c9cff" d="M106,56 l3,0 40,2 48,2 50,2 56,0 55,0 53,-2 46,-2 40,-2 35,-1 23,-3 0,907 -23,4 -35,2 -40,4 -46,0 -53,1 -55,0 -56,0 -50,-1 -46,-2 -42,-2 -3,0 0,-909z" />
<path style="fill:#a1a1ff" d="M130,58 l19,0 48,2 52,2 54,0 55,0 53,-2 46,-2 40,-2 35,-1 13,-3 0,909 -13,2 -35,2 -40,4 -46,0 -53,1 -55,0 -56,0 -50,-1 -48,-2 -19,0 0,-909z" />
<path style="fill:#a8a8ff" d="M153,58 l44,2 52,2 54,0 55,0 53,-2 46,-2 40,-2 35,-1 4,0 0,908 -4,0 -35,2 -40,4 -46,0 -53,1 -55,0 -56,0 -50,-1 -44,-2 0,-909z" />
<path style="fill:#b0b0ff" d="M175,60 l22,0 52,2 54,0 55,0 53,-2 46,-2 40,-2 29,-1 0,908 -29,2 -40,4 -46,0 -53,1 -55,0 -56,0 -50,-1 -22,0 0,-909z" />
<path style="fill:#b5b5ff" d="M199,60 l50,2 54,0 55,0 53,-2 46,-2 40,-2 20,0 0,907 -20,2 -40,4 -46,0 -53,1 -55,0 -56,0 -48,-1 0,-909z" />
<path style="fill:#bdbdff" d="M222,62 l27,0 54,0 55,0 53,-2 46,-2 40,-2 10,0 0,909 -10,0 -40,4 -46,0 -53,1 -55,0 -56,0 -25,-1 0,-907z" />
<path style="fill:#c2c2ff" d="M245,62 l4,0 54,0 55,0 53,-2 46,-2 40,-2 0,909 -40,4 -46,0 -53,1 -55,0 -56,0 -2,0 0,-908z" />
<path style="fill:#c9c9ff" d="M268,62 l35,0 55,0 53,-2 46,-2 31,0 0,909 -31,2 -46,0 -53,1 -55,0 -35,0 0,-908z" />
<path style="fill:#d1d1ff" d="M291,62 l12,0 55,0 53,-2 46,-2 21,0 0,909 -21,2 -46,0 -53,1 -55,0 -12,0 0,-908z" />
<path style="fill:#d6d6ff" d="M314,62 l44,0 53,-2 46,-2 11,0 0,909 -11,2 -46,0 -53,1 -44,0 0,-908z" />
<path style="fill:#dedeff" d="M335,62 l23,0 53,-2 46,-2 2,0 0,909 -2,2 -46,0 -53,1 -23,0 0,-908z" />
<path style="fill:#e5e5ff" d="M358,62 l53,-2 38,-2 0,911 -38,0 -53,1 0,-908z" />
<path style="fill:#ebebff" d="M382,62 l29,-2 26,0 0,909 -26,0 -29,0 0,-907z" />
<path style="fill:#f2f2ff" d="M405,60 l6,0 17,0 0,909 -17,0 -6,0 0,-909z" />
<path style="fill:none;stroke:#000;stroke-width:2" d="M29,47 l20,5 27,3 33,1 40,2 48,2 52,2 109,0 53,-2 46,-2 40,-2 35,-1 42,-6 4,-4 0,908 -6,4 -40,6 -35,2 -40,4 -46,0 -53,1 -111,0 -50,-1 -46,-2 -42,-2 -33,-2 -41,-6 -6,-4 0,-906" />

</svg>
