<?xml version="1.0" encoding="utf-8" standalone="no"?><!DOCTYPE svg PUBLIC "-//W3C//DTD SVG 1.1//EN" "http://www.w3.org/Graphics/SVG/1.1/DTD/svg11-flat-20030114.dtd"><svg width="621" height="998" version="1.1" xmlns="http://www.w3.org/2000/svg" xmlns:xlink="http://www.w3.org/1999/xlink">

<path style="fill:#666" d="M28,923 l0,-754 20,-17 62,-18 0,-46 59,-6 -1,-47 37,-3 105,-4 106,4 35,3 0,47 60,6 -1,46 63,18 20,17 0,754 -20,18 -61,16 -96,10 -106,3 -105,-3 -97,-10 -60,-16 -20,-18z" />
<path style="fill:#757575" d="M60,928 l0,-761 18,-18 55,-17 0,-45 52,-6 0,-46 31,-4 94,-3 94,3 31,4 -1,46 54,6 -1,45 56,17 17,18 0,761 -18,16 -53,14 -85,9 -94,3 -94,-3 -85,-9 -53,-14 -18,-16z" />
<path style="fill:#858585" d="M93,934 l0,-769 15,-18 48,-16 0,-45 45,-6 0,-46 28,-3 81,-3 81,3 28,3 -1,46 47,6 -1,45 48,16 15,18 0,769 -15,13 -47,13 -74,7 -81,3 -81,-3 -74,-7 -47,-13 -15,-13z" />
<path style="fill:#969696" d="M125,940 l0,-777 14,-18 40,-15 0,-45 39,-6 -1,-45 24,-3 69,-3 69,3 23,3 0,45 40,6 -1,45 41,15 13,18 0,777 -14,11 -39,10 -63,7 -69,2 -69,-2 -63,-7 -39,-10 -14,-11z" />
<path style="fill:#a6a6a6" d="M158,945 l0,-785 11,-17 33,-15 0,-43 32,-6 0,-45 19,-4 57,-2 57,2 19,4 0,45 32,6 0,43 33,15 11,17 0,785 -11,9 -32,9 -52,5 -57,2 -57,-2 -52,-5 -32,-9 -11,-9z" />
<path style="fill:#b5b5b5" d="M191,951 l0,-793 9,-18 25,-13 0,-43 25,-6 0,-44 15,-4 45,-2 45,2 15,4 -1,44 26,6 0,43 26,13 8,18 0,793 -8,7 -25,6 -41,4 -45,2 -45,-2 -41,-4 -25,-6 -8,-7z" />
<path style="fill:#c4c4c4" d="M223,956 l0,-800 7,-17 19,-14 -1,-41 19,-6 -1,-45 11,-3 33,-2 33,2 10,3 0,44 19,7 0,41 19,14 6,17 0,800 -7,5 -18,5 -30,3 -32,1 -33,-1 -29,-3 -19,-5 -6,-5z" />
<path style="fill:#d6d6d6" d="M256,962 l0,-808 4,-18 12,-12 0,-41 11,-6 0,-44 7,-3 20,-2 20,2 7,3 0,43 12,7 -1,41 13,12 3,18 0,808 -4,3 -11,3 -19,1 -20,1 -20,-1 -19,-1 -11,-3 -4,-3z" />
<path style="fill:#e5e5e5" d="M289,968 l0,-816 2,-18 4,-11 0,-41 4,-6 0,-43 3,-3 8,-2 9,2 2,3 0,43 5,6 0,41 4,11 2,18 0,816 -2,0 -4,1 -8,1 -8,0 -8,0 -7,-1 -5,-1 -1,0z" />
<path style="fill:none;stroke:#000;stroke-width:2" d="M451,82 l-35,-3 -106,-4 -105,4 -37,3" />
<path style="fill:none;stroke:#000;stroke-width:2" d="M510,134 l-94,-8 -106,-4 -105,4 -95,8" />
<path style="fill:none;stroke:#000;stroke-width:2" d="M28,923 l0,-754 20,-17 62,-18 0,-46 59,-6 -1,-47 37,-3 105,-4 106,4 35,3 0,47 60,6 -1,46 63,18 20,17 0,754 -20,18 -61,16 -96,10 -106,3 -105,-3 -97,-10 -60,-16 -20,-18" />

</svg>
