<?xml version="1.0" encoding="utf-8" standalone="no"?><!DOCTYPE svg PUBLIC "-//W3C//DTD SVG 1.1//EN" "http://www.w3.org/Graphics/SVG/1.1/DTD/svg11-flat-20030114.dtd"><svg width="841" height="999" version="1.1" xmlns="http://www.w3.org/2000/svg" xmlns:xlink="http://www.w3.org/1999/xlink">

<path style="fill:#666" d="M813,67 l0,864 -28,15 -84,13 -133,8 -148,3 -147,-3 -133,-8 -84,-13 -28,-15 0,-864 28,-14 84,-14 133,-8 147,-3 148,3 133,8 84,14 28,14z" />
<path style="fill:#6e6e6e" d="M789,65 l0,868 -26,14 -79,12 -125,8 -139,3 -138,-3 -125,-8 -79,-12 -27,-14 0,-868 26,-14 80,-13 125,-7 138,-3 139,3 125,7 79,13 26,14z" />
<path style="fill:#757575" d="M766,62 l0,873 -25,13 -74,12 -117,7 -130,3 -130,-3 -117,-7 -74,-12 -24,-13 0,-873 24,-13 74,-11 117,-8 130,-2 130,2 117,8 74,11 25,13z" />
<path style="fill:#7d7d7d" d="M742,60 l0,878 -23,12 -69,10 -109,7 -121,3 -121,-3 -109,-7 -69,-10 -23,-12 0,-878 23,-12 69,-11 109,-7 121,-2 121,2 109,7 69,11 23,12z" />
<path style="fill:#858585" d="M719,57 l0,883 -21,11 -65,10 -101,7 -112,2 -112,-2 -101,-7 -64,-10 -21,-11 0,-883 21,-11 64,-9 101,-7 112,-2 112,2 101,7 64,9 22,11z" />
<path style="fill:#8f8f8f" d="M695,55 l0,888 -19,10 -60,9 -93,6 -103,2 -103,-2 -93,-6 -59,-9 -20,-10 0,-888 20,-10 59,-9 93,-6 103,-2 103,2 93,6 59,9 20,10z" />
<path style="fill:#969696" d="M671,53 l0,892 -17,9 -54,8 -86,6 -94,2 -94,-2 -86,-6 -53,-8 -18,-9 0,-892 18,-10 53,-8 86,-5 94,-2 94,2 86,5 54,8 17,10z" />
<path style="fill:#9e9e9e" d="M648,50 l0,897 -16,8 -49,8 -77,5 -86,2 -85,-2 -78,-5 -48,-8 -17,-8 0,-897 16,-8 49,-8 78,-4 85,-2 86,2 77,4 49,8 16,8z" />
<path style="fill:#a6a6a6" d="M625,48 l0,902 -15,7 -44,7 -69,4 -77,2 -77,-2 -69,-4 -43,-7 -15,-7 0,-902 14,-8 44,-6 69,-5 77,-1 77,1 69,5 44,6 15,8z" />
<path style="fill:#adadad" d="M601,45 l0,907 -13,7 -39,6 -61,3 -68,2 -68,-2 -61,-3 -39,-6 -13,-7 0,-907 13,-6 39,-6 61,-4 68,-1 68,1 61,4 39,6 13,6z" />
<path style="fill:#b5b5b5" d="M578,43 l0,912 -12,5 -34,5 -53,3 -59,2 -59,-2 -53,-3 -34,-5 -11,-5 0,-912 11,-5 34,-6 53,-3 59,-1 59,1 53,3 34,6 12,5z" />
<path style="fill:#bdbdbd" d="M554,40 l0,917 -10,4 -28,5 -46,3 -50,1 -50,-1 -45,-3 -29,-5 -10,-4 0,-917 10,-4 29,-4 45,-3 50,-1 50,1 46,3 28,4 10,4z" />
<path style="fill:#c4c4c4" d="M530,38 l0,921 -7,4 -24,3 -37,3 -42,1 -41,-1 -37,-3 -24,-3 -8,-4 0,-921 8,-4 24,-3 37,-2 41,-1 42,1 37,2 23,3 8,4z" />
<path style="fill:#cfcfcf" d="M507,36 l0,925 -6,3 -19,3 -29,2 -33,1 -32,-1 -30,-2 -18,-3 -7,-3 0,-925 7,-3 18,-3 30,-1 32,-1 33,1 29,1 19,3 6,3z" />
<path style="fill:#d6d6d6" d="M483,33 l0,931 -4,2 -14,2 -21,1 -24,1 -23,-1 -22,-1 -13,-2 -5,-2 0,-931 5,-1 13,-2 22,-2 23,0 24,0 21,2 14,2 4,1z" />
<path style="fill:#dedede" d="M460,31 l0,935 -3,1 -9,1 -13,1 -15,1 -15,-1 -13,-1 -9,-1 -2,-1 0,-935 2,-1 9,-1 13,-1 15,0 15,0 13,1 9,1 3,1z" />
<path style="fill:#e5e5e5" d="M436,29 l0,940 -1,0 -3,0 -6,1 -6,0 -6,0 -5,-1 -3,0 -2,0 0,-940 2,0 3,0 5,-1 6,0 6,0 6,1 3,0 1,0z" />
<path style="fill:none;stroke:#000;stroke-width:2" d="M813,67 l0,864 -28,15 -84,13 -133,8 -148,3 -147,-3 -133,-8 -84,-13 -28,-15 0,-864 28,-14 84,-14 133,-8 147,-3 148,3 133,8 84,14 28,14" />

</svg>
