<?xml version="1.0" encoding="utf-8" standalone="no"?><!DOCTYPE svg PUBLIC "-//W3C//DTD SVG 1.1//EN" "http://www.w3.org/Graphics/SVG/1.1/DTD/svg11-flat-20030114.dtd"><svg width="998" height="999" version="1.1" xmlns="http://www.w3.org/2000/svg" xmlns:xlink="http://www.w3.org/1999/xlink">

<path style="fill:#4c4c4c" d="M28,911 l0,-785 78,-59 393,-39 392,39 79,59 0,785 -1,3 -28,17 -29,8 -36,7 -29,5 -32,4 -35,3 -37,3 -41,3 -42,2 -44,2 -46,1 -23,1 -24,0 -24,0 -48,0 -47,-1 -45,-2 -43,-2 -41,-2 -39,-3 -37,-4 -33,-3 -31,-4 -27,-5 -34,-7 -25,-8 -21,-15 0,-3z" />
<path style="fill:#5c5c5c" d="M68,934 l0,-808 72,-59 358,-39 359,39 72,59 0,807 -1,1 -25,6 -26,5 -34,5 -40,4 -31,3 -33,3 -36,3 -37,2 -40,2 -41,1 -43,1 -22,1 -22,0 -44,-1 -42,-1 -41,-2 -40,-2 -38,-2 -35,-3 -33,-3 -31,-3 -27,-3 -37,-5 -28,-4 -29,-5 -4,-1 -1,-1z" />
<path style="fill:#6e6e6e" d="M109,943 l0,-817 64,-59 325,-39 325,39 65,59 0,817 0,0 -30,5 -37,5 -34,3 -41,4 -30,2 -32,2 -34,2 -36,1 -37,2 -39,0 -20,1 -20,0 -39,-1 -39,0 -37,-2 -36,-1 -34,-2 -32,-2 -30,-2 -28,-3 -37,-3 -30,-4 -30,-4 -17,-3 0,0z" />
<path style="fill:#7d7d7d" d="M149,950 l0,-824 58,-59 291,-39 291,39 58,59 0,823 0,0 -27,4 -32,4 -31,2 -37,3 -41,3 -29,1 -32,1 -32,1 -35,1 -17,0 -18,1 -18,0 -35,-1 -35,0 -33,-1 -32,-1 -31,-2 -29,-1 -39,-3 -35,-3 -29,-2 -29,-3 -21,-3 -1,0z" />
<path style="fill:#8c8c8c" d="M190,955 l0,-829 51,-59 257,-39 258,39 51,59 0,828 0,0 -30,4 -32,2 -29,2 -33,2 -38,2 -41,2 -29,1 -30,0 -15,0 -16,1 -16,0 -31,0 -31,-1 -29,-1 -29,-1 -39,-1 -37,-2 -32,-2 -27,-2 -29,-3 -24,-2 0,0z" />
<path style="fill:#9e9e9e" d="M230,958 l0,-832 45,-59 223,-39 224,39 44,59 0,832 0,0 -32,3 -29,2 -36,2 -32,2 -34,1 -38,1 -26,0 -13,1 -14,0 -41,0 -39,-1 -38,-1 -34,-1 -32,-1 -28,-2 -31,-2 -30,-2 -8,-2 -1,0z" />
<path style="fill:#adadad" d="M271,961 l0,-835 38,-59 189,-39 190,39 38,59 0,835 -1,0 -27,3 -31,2 -33,1 -27,1 -30,1 -33,0 -11,0 -11,1 -12,0 -35,0 -33,-1 -32,-1 -29,0 -35,-2 -30,-1 -27,-2 -18,-2 0,0z" />
<path style="fill:#bfbfbf" d="M312,964 l0,-838 30,-59 156,-39 156,39 31,59 0,838 -32,2 -36,1 -30,1 -33,1 -36,1 -39,0 -36,-1 -33,0 -30,-1 -36,-2 -29,-1 -3,-1z" />
<path style="fill:#cfcfcf" d="M352,966 l0,-840 24,-59 122,-39 123,39 24,59 0,840 -1,0 -33,2 -31,1 -38,0 -14,1 -59,0 -40,-1 -34,-1 -31,-1 -12,-1z" />
<path style="fill:#dedede" d="M393,967 l0,-841 17,-59 88,-39 89,39 17,59 0,841 -31,1 -33,1 -20,1 -53,0 -36,-1 -30,-1 -8,-1z" />
<path style="fill:#f0f0f0" d="M433,967 l0,-841 11,-59 54,-39 55,39 10,59 0,843 -28,0 -12,1 -44,0 -31,-1 -14,-1 -1,-1z" />
<path style="fill:#fff" d="M474,968 l0,-842 4,-59 21,-39 20,39 4,59 0,842 0,1 -2,0 -2,1 -3,0 -3,0 -5,0 -4,0 -5,0 -25,-2z" />
<path style="fill:none;stroke:#000;stroke-width:2" d="M28,911 l0,-785 78,-59 393,-39 392,39 79,59 0,785 -1,3 -28,17 -29,8 -36,7 -29,5 -32,4 -35,3 -37,3 -41,3 -42,2 -44,2 -46,1 -23,1 -24,0 -24,0 -48,0 -47,-1 -45,-2 -43,-2 -41,-2 -39,-3 -37,-4 -33,-3 -31,-4 -27,-5 -34,-7 -25,-8 -21,-15 0,-3" />
<path style="fill:none;stroke:#7f7f7f;stroke-width:2" d="M886,67 l-387,-9 -393,9" />
<path style="fill:none;stroke:#7f7f7f;stroke-width:2" d="M970,126 l-1,-1 -28,-6 -29,-2 -36,-3 -29,-1 -32,-1 -35,-2 -37,-1 -41,-1 -42,0 -44,-1 -46,0 -23,0 -24,0 -72,0 -47,0 -45,1 -43,0 -41,1 -39,1 -37,1 -33,1 -31,2 -39,2 -31,2 -28,4 -9,3 0,1" />
<path style="fill:none;stroke:#7f7f7f;stroke-width:2" d="M28,860 l0,1 28,9 29,5 37,4 29,2 31,2 35,2 38,2 40,1 42,2 44,1 46,0 24,0 24,0 24,0 48,0 47,0 44,-1 44,-1 41,-1 39,-2 36,-2 33,-2 31,-2 27,-3 34,-4 32,-5 14,-7 1,-1" />

</svg>
