<?xml version="1.0" encoding="utf-8" standalone="no"?><!DOCTYPE svg PUBLIC "-//W3C//DTD SVG 1.1//EN" "http://www.w3.org/Graphics/SVG/1.1/DTD/svg11-flat-20030114.dtd"><svg width="999" height="999" version="1.1" xmlns="http://www.w3.org/2000/svg" xmlns:xlink="http://www.w3.org/1999/xlink">

<path style="fill:#999;stroke:#000;stroke-width:2" d="M319,939 l117,31 126,0 117,-31 107,-62 91,-91 62,-107 31,-117 0,-126 -31,-117 -62,-107 -91,-91 -107,-62 -117,-31 -126,0 -117,31 -107,62 -91,91 -62,107 -31,117 0,126 31,117 62,107 91,91 107,62z" />
<path style="fill:#e5e5e5;stroke:#b2b2b2;stroke-width:2" d="M638,896 l113,-48 83,-79 57,-98 30,-113 0,-115 -30,-109 -57,-98 -83,-83 -97,-55 -110,-31 -115,0 -111,31 -83,57 -92,99 221,-97 426,569 -152,170z" />
<path style="fill:#3c3;stroke:#000;stroke-width:2" d="M358,843 l94,25 96,0 93,-25 84,-50 68,-67 50,-85 25,-93 0,-96 -25,-94 -50,-85 -67,-67 -85,-49 -93,-25 -96,0 -94,25 -85,49 -67,67 -49,85 -25,94 0,96 25,93 49,85 67,67 85,50z" />
<path style="fill:#3c3;stroke:#31b331;stroke-width:2" d="M443,781 l112,0 104,-42 80,-80 42,-102 0,-112 -42,-104 -80,-80 -102,-42 -112,0 -104,42 -80,80 -42,102 0,114 42,102 80,80 102,42z" />
<path style="fill:#3c3;stroke:#31b331;stroke-width:2" d="M452,737 l94,0 88,-36 67,-67 36,-86 0,-94 -36,-89 -67,-67 -86,-35 -94,0 -89,35 -67,67 -35,87 0,96 35,86 67,67 87,36z" />
<path style="fill:none;stroke:#fff;stroke-width:2" d="M206,273 l-49,85 -25,94 0,96 25,93 49,85 67,67 85,50 94,25 96,0 93,-25 84,-50 68,-67" />

</svg>
