<?xml version="1.0" encoding="utf-8" standalone="no"?><!DOCTYPE svg PUBLIC "-//W3C//DTD SVG 1.1//EN" "http://www.w3.org/Graphics/SVG/1.1/DTD/svg11-flat-20030114.dtd"><svg width="998" height="998" version="1.1" xmlns="http://www.w3.org/2000/svg" xmlns:xlink="http://www.w3.org/1999/xlink">

<path style="fill:#999;stroke:#000;stroke-width:2" d="M319,938 l117,32 126,0 117,-32 107,-61 91,-91 61,-107 32,-117 0,-126 -32,-117 -61,-107 -91,-91 -107,-61 -117,-32 -126,0 -117,32 -107,61 -91,91 -61,107 -32,117 0,126 32,117 61,107 91,91 107,61z" />
<path style="fill:#e5e5e5;stroke:#b2b2b2;stroke-width:2" d="M638,896 l113,-48 83,-80 57,-97 30,-113 0,-115 -30,-109 -57,-98 -83,-83 -97,-54 -110,-33 -115,0 -111,33 -83,56 -92,99 221,-97 426,569 -152,170z" />
<path style="fill:#ff0;stroke:#000;stroke-width:2" d="M358,843 l94,25 96,0 93,-25 83,-50 69,-67 50,-85 25,-93 0,-96 -25,-94 -50,-84 -67,-68 -85,-49 -93,-25 -96,0 -94,25 -84,49 -68,68 -49,84 -25,94 0,96 25,93 49,85 68,67 84,50z" />
<path style="fill:#ff0;stroke:#ebeb00;stroke-width:2" d="M443,781 l112,0 104,-42 80,-80 42,-103 0,-111 -42,-104 -80,-80 -103,-42 -111,0 -104,42 -80,80 -42,102 0,113 42,103 80,80 102,42z" />
<path style="fill:#ff0;stroke:#ebeb00;stroke-width:2" d="M452,737 l94,0 88,-35 68,-68 35,-86 0,-94 -35,-89 -68,-67 -86,-35 -94,0 -89,35 -67,67 -35,87 0,96 35,86 67,68 87,35z" />
<path style="fill:none;stroke:#fff;stroke-width:2" d="M206,274 l-49,84 -25,94 0,96 25,93 49,85 68,67 84,50 94,25 96,0 93,-25 83,-50 69,-67" />

</svg>
