<?xml version="1.0" encoding="utf-8" standalone="no"?><!DOCTYPE svg PUBLIC "-//W3C//DTD SVG 1.1//EN" "http://www.w3.org/Graphics/SVG/1.1/DTD/svg11-flat-20030114.dtd"><svg width="999" height="999" version="1.1" xmlns="http://www.w3.org/2000/svg" xmlns:xlink="http://www.w3.org/1999/xlink">

<path style="fill:#999;stroke:#000;stroke-width:2" d="M320,939 l116,31 126,0 116,-31 108,-62 91,-91 62,-108 31,-116 0,-126 -31,-116 -62,-108 -91,-91 -108,-62 -116,-31 -126,0 -116,31 -108,62 -91,91 -62,108 -31,116 0,126 31,116 62,108 91,91 108,62z" />
<path style="fill:#e5e5e5;stroke:#b2b2b2;stroke-width:2" d="M638,896 l113,-48 83,-79 57,-98 30,-113 0,-115 -30,-110 -57,-96 -83,-84 -97,-55 -110,-31 -115,0 -111,31 -83,57 -93,99 222,-97 426,569 -152,170z" />
<path style="fill:#333;stroke:#333;stroke-width:2" d="M318,939 l118,31 124,0 283,-304 -465,-543 -319,195 -31,118 0,124 31,120 62,108 89,89 108,62z" />
<path style="fill:#d9d900;stroke:#000;stroke-width:2" d="M360,843 l91,25 98,0 91,-25 85,-48 70,-70 48,-85 25,-91 0,-98 -25,-91 -48,-85 -70,-71 -85,-47 -91,-25 -98,0 -91,25 -85,47 -71,71 -47,85 -25,91 0,98 25,91 47,85 71,70 85,48z" />
<path style="fill:#ff0;stroke:#000;stroke-width:2" d="M438,763 l94,25 95,0 94,-25 83,-49 69,-67 50,-85 25,-94 0,-96 -25,-93 -50,-85 -67,-67 -85,-50 -94,-25 -95,0 -94,25 -85,50 -67,67 -49,85 -25,93 0,96 25,94 49,85 67,67 85,49z" />
<path style="fill:#ff0;stroke:#ebeb00;stroke-width:2" d="M523,702 l111,0 105,-43 79,-79 43,-103 0,-111 -43,-105 -79,-80 -103,-42 -112,0 -104,42 -79,80 -43,103 0,113 43,103 79,79 103,43z" />
<path style="fill:#ff0;stroke:#ebeb00;stroke-width:2" d="M532,657 l94,0 88,-35 67,-67 36,-87 0,-94 -36,-88 -67,-67 -87,-36 -93,0 -89,36 -67,67 -35,86 0,96 35,87 67,67 87,35z" />

</svg>
