<?xml version="1.0" encoding="utf-8" standalone="no"?><!DOCTYPE svg PUBLIC "-//W3C//DTD SVG 1.1//EN" "http://www.w3.org/Graphics/SVG/1.1/DTD/svg11-flat-20030114.dtd"><svg width="999" height="999" version="1.1" xmlns="http://www.w3.org/2000/svg" xmlns:xlink="http://www.w3.org/1999/xlink">

<path style="fill:#999;stroke:#000;stroke-width:2" d="M320,938 l116,32 126,0 116,-32 109,-61 90,-90 61,-109 32,-116 0,-126 -32,-116 -61,-109 -90,-90 -109,-61 -116,-32 -126,0 -116,32 -109,61 -90,90 -61,109 -32,116 0,126 32,116 61,109 90,90 109,61z" />
<path style="fill:#e5e5e5;stroke:#b2b2b2;stroke-width:2" d="M638,896 l113,-48 83,-79 57,-98 30,-113 0,-115 -30,-109 -57,-98 -83,-83 -97,-54 -110,-32 -115,0 -111,32 -83,56 -93,99 222,-97 426,569 -152,170z" />
<path style="fill:#333;stroke:#333;stroke-width:2" d="M318,938 l118,32 124,0 283,-304 -465,-543 -318,195 -32,118 0,124 32,120 61,108 89,89 108,61z" />
<path style="fill:#093;stroke:#000;stroke-width:2" d="M360,843 l90,25 99,0 90,-25 86,-48 70,-70 48,-86 25,-90 0,-99 -25,-90 -48,-85 -70,-71 -86,-47 -90,-25 -99,0 -90,25 -85,47 -71,71 -47,85 -25,90 0,99 25,90 47,86 71,70 85,48z" />
<path style="fill:#3c3;stroke:#000;stroke-width:2" d="M438,763 l94,25 95,0 94,-25 83,-49 69,-67 50,-85 24,-94 0,-96 -24,-93 -50,-85 -67,-67 -85,-50 -94,-25 -95,0 -94,25 -85,50 -67,67 -50,85 -25,93 0,96 25,94 50,85 67,67 85,49z" />
<path style="fill:none;stroke:#31b331;stroke-width:2" d="M523,701 l111,0 105,-42 79,-80 43,-102 0,-111 -43,-105 -79,-80 -103,-42 -111,0 -105,42 -79,80 -43,103 0,113 43,102 79,80 103,42" />
<path style="fill:none;stroke:#31b331;stroke-width:2" d="M532,657 l94,0 88,-35 67,-67 36,-87 0,-94 -36,-88 -67,-67 -87,-36 -94,0 -88,36 -67,67 -36,86 0,96 36,87 67,67 87,35" />

</svg>
