<?xml version="1.0" encoding="utf-8" standalone="no"?><!DOCTYPE svg PUBLIC "-//W3C//DTD SVG 1.1//EN" "http://www.w3.org/Graphics/SVG/1.1/DTD/svg11-flat-20030114.dtd"><svg width="999" height="999" version="1.1" xmlns="http://www.w3.org/2000/svg" xmlns:xlink="http://www.w3.org/1999/xlink">

<path style="fill:#999;stroke:#000;stroke-width:2" d="M319,939 l117,32 126,0 117,-32 108,-62 90,-90 62,-108 32,-117 0,-126 -32,-117 -62,-108 -90,-90 -108,-62 -117,-32 -126,0 -117,32 -108,62 -90,90 -62,108 -32,117 0,126 32,117 62,108 90,90 108,62z" />
<path style="fill:#e5e5e5;stroke:#b2b2b2;stroke-width:2" d="M638,896 l113,-48 83,-79 57,-97 30,-114 0,-115 -30,-110 -57,-97 -83,-83 -97,-55 -110,-32 -115,0 -111,32 -83,57 -93,99 222,-97 426,569 -152,170z" />
<path style="fill:#333;stroke:#333;stroke-width:2" d="M318,939 l118,32 124,0 283,-305 -465,-543 -319,195 -32,118 0,124 32,120 62,108 89,89 108,62z" />
<path style="fill:#a00;stroke:#000;stroke-width:2" d="M360,843 l90,25 100,0 90,-25 85,-48 70,-70 48,-85 25,-90 0,-100 -25,-90 -48,-85 -70,-71 -85,-47 -90,-25 -100,0 -90,25 -85,47 -71,71 -47,85 -25,90 0,100 25,90 47,85 71,70 85,48z" />
<path style="fill:#f00;stroke:#000;stroke-width:2" d="M438,763 l94,25 95,0 94,-25 83,-49 69,-67 50,-85 24,-94 0,-95 -24,-94 -50,-85 -67,-67 -85,-50 -94,-25 -95,0 -94,25 -85,50 -67,67 -50,85 -25,94 0,95 25,94 50,85 67,67 85,49z" />
<path style="fill:none;stroke:#dc0000;stroke-width:2" d="M523,701 l111,0 105,-42 79,-80 43,-102 0,-111 -43,-105 -79,-80 -103,-42 -111,0 -105,42 -79,80 -43,103 0,113 43,102 79,80 103,42" />
<path style="fill:none;stroke:#dc0000;stroke-width:2" d="M532,657 l93,0 89,-35 67,-67 36,-87 0,-94 -36,-88 -67,-67 -87,-36 -93,0 -89,36 -67,67 -36,87 0,95 36,87 67,67 87,35" />

</svg>
