<?xml version="1.0" encoding="utf-8" standalone="no"?><!DOCTYPE svg PUBLIC "-//W3C//DTD SVG 1.1//EN" "http://www.w3.org/Graphics/SVG/1.1/DTD/svg11-flat-20030114.dtd"><svg width="998" height="998" version="1.1" xmlns="http://www.w3.org/2000/svg" xmlns:xlink="http://www.w3.org/1999/xlink">

<circle style="fill:#000;stroke:#000;stroke-width:2" cx="499" cy="499" r="471" />
<path style="fill:#007fff" d="M950,498 l-32,-168 -97,-154 -153,-96 -170,-33 -168,33 -154,96 -96,154 -33,168 33,170 96,153 154,97 168,32 170,-32 153,-97 97,-153 32,-170z" />
<path style="fill:#6bb5ff" d="M861,410 l-19,-102 -59,-93 -93,-60 -102,-20 -104,20 -93,60 -59,93 -20,102 20,103 59,93 93,59 104,20 102,-20 93,-59 59,-93 19,-103z" />
<circle style="fill:#a3d1ff" cx="631" cy="365" r="186" />
<circle style="fill:#d9ebff" cx="675" cy="322" r="98" />

</svg>
