<?xml version="1.0" encoding="utf-8" standalone="no"?><!DOCTYPE svg PUBLIC "-//W3C//DTD SVG 1.1//EN" "http://www.w3.org/Graphics/SVG/1.1/DTD/svg11-flat-20030114.dtd"><svg width="999" height="999" version="1.1" xmlns="http://www.w3.org/2000/svg" xmlns:xlink="http://www.w3.org/1999/xlink">

<path style="fill:#7f7f7f;stroke:#000;stroke-width:2" d="M499,27 l-98,13 -92,30 -79,43 -74,61 -49,74 -49,79 -24,86 -7,86 7,98 24,92 49,79 49,68 74,55 79,49 92,24 98,7 86,-7 91,-24 74,-49 74,-55 61,-68 43,-79 30,-92 13,-98 -13,-86 -30,-86 -43,-79 -61,-74 -74,-61 -74,-43 -91,-30 -86,-13z" />
<path style="fill:#191919" d="M499,95 l-86,6 -79,24 -68,44 -61,49 -49,61 -30,66 -25,81 -6,73 6,86 25,79 30,68 49,61 61,43 68,42 79,19 86,12 73,-12 74,-19 67,-42 62,-43 49,-61 43,-68 30,-79 6,-86 -6,-73 -30,-81 -43,-66 -49,-61 -62,-49 -67,-44 -74,-24 -73,-6z" />
<path style="fill:#000" d="M410,92 l2,0 86,-6 2,18 -86,6 2,0 -6,-18 2,0 0,0z" />
<path style="fill:#000" d="M329,117 l2,0 79,-25 6,18 -80,24 3,-1 -10,-15 1,-1 1,0z" />
<path style="fill:#000" d="M260,162 l1,-1 68,-44 10,16 -68,44 1,-1 -12,-14 1,-1 0,0z" />
<path style="fill:#000" d="M198,212 l1,-1 61,-49 12,14 -61,49 1,-2 -14,-11 1,-1 0,0z" />
<path style="fill:#000" d="M148,275 l1,-2 49,-61 14,11 -49,62 1,-2 -16,-8 0,-1 1,-1z" />
<path style="fill:#000" d="M117,343 l0,-1 31,-67 16,8 -30,66 0,-1 -17,-5 0,-1 0,0z" />
<path style="fill:#000" d="M92,425 l0,-2 25,-80 17,5 -24,80 0,-2 -18,-1 0,-1 0,-1z" />
<path style="fill:#000" d="M86,500 l0,-2 6,-73 18,1 -6,74 0,-2 -18,2 0,-1 0,-1z" />
<path style="fill:#000" d="M86,500 l9,-1 9,-1 -18,2 0,-1 0,-1z" />
<path style="fill:#000" d="M92,588 l0,-2 -6,-86 18,-2 6,86 0,-2 -18,6 0,-2 0,0z" />
<path style="fill:#000" d="M117,668 l0,-1 -25,-79 18,-6 24,80 0,-2 -17,8 0,0 0,-1z" />
<path style="fill:#000" d="M149,738 l-1,-2 -31,-68 17,-8 30,68 -1,-2 -14,12 -1,-1 0,-1z" />
<path style="fill:#000" d="M200,801 l-2,-2 -49,-61 14,-12 49,61 -2,-2 -10,16 -1,-1 -1,-1z" />
<path style="fill:#000" d="M261,844 l0,-1 -61,-42 10,-16 61,43 0,0 -10,15 0,0z" />
<path style="fill:#000" d="M332,887 l-3,-1 -68,-42 10,-16 68,42 -3,-1 -4,18 -2,0 -1,-1z" />
<path style="fill:#000" d="M412,906 l-1,0 -79,-19 4,-18 79,19 0,0 -3,18 0,0 -1,0z" />
<path style="fill:#000" d="M501,918 l-3,0 -86,-12 3,-18 86,12 -3,0 3,18 -2,1 -1,-1z" />
<path style="fill:#000" d="M501,918 l-2,-9 -1,-9 3,18 -2,1 -1,-1z" />
<path style="fill:#000" d="M575,906 l-1,0 -73,12 -3,-18 73,-12 -1,0 5,18 -1,0 0,0z" />
<path style="fill:#000" d="M651,886 l-3,1 -73,19 -5,-18 74,-19 -3,1 10,16 -1,1 -2,0z" />
<path style="fill:#000" d="M719,843 l-1,1 -67,42 -10,-16 67,-42 0,0 11,15 -1,0z" />
<path style="fill:#000" d="M782,799 l-2,2 -61,42 -11,-15 61,-43 -2,2 15,12 -1,1 -1,1z" />
<path style="fill:#000" d="M832,737 l-1,1 -49,61 -15,-12 49,-61 0,1 15,10 0,0 0,1z" />
<path style="fill:#000" d="M875,668 l0,1 -43,68 -16,-10 43,-68 -1,2 17,7 0,0 -1,1z" />
<path style="fill:#000" d="M906,586 l0,2 -31,80 -17,-7 30,-79 0,2 18,2 0,1 0,1z" />
<path style="fill:#000" d="M912,498 l0,2 -6,86 -18,-2 6,-86 0,2 18,-2 0,1 0,1z" />
<path style="fill:#000" d="M912,498 l-9,1 -9,1 18,-2 0,1 0,1z" />
<path style="fill:#000" d="M906,423 l0,2 6,73 -18,2 -6,-74 0,3 18,-7 0,2 0,1z" />
<path style="fill:#000" d="M874,341 l1,1 31,81 -18,6 -30,-81 1,2 15,-9 1,0 0,1z" />
<path style="fill:#000" d="M831,273 l0,1 43,67 -15,9 -43,-66 0,1 15,-12 0,1 0,0z" />
<path style="fill:#000" d="M780,211 l2,1 49,61 -15,12 -49,-62 2,2 11,-14 1,0 1,1z" />
<path style="fill:#000" d="M718,161 l1,1 61,49 -11,14 -61,-49 0,1 10,-16 1,0 0,1z" />
<path style="fill:#000" d="M649,117 l2,0 67,44 -10,16 -67,-44 2,1 6,-17 1,0 1,1z" />
<path style="fill:#000" d="M573,92 l2,0 74,25 -6,17 -74,-24 3,0 1,-18 1,0 1,0z" />
<path style="fill:#000" d="M499,95 l1,-9 73,6 -1,18 -74,-6 1,-9z" />
<path style="fill:#ccc" d="M529,95 l-97,0 0,508 97,0 0,-508z" />
<path style="fill:#000" d="M423,95 l9,-9 97,0 0,18 -97,0 9,-9 -18,0 0,-9 9,0z" />
<path style="fill:#000" d="M432,612 l-9,-9 0,-508 18,0 0,508 -9,-9 0,18 -9,0 0,-9z" />
<path style="fill:#000" d="M538,603 l-9,9 -97,0 0,-18 97,0 -9,9 18,0 0,9 -9,0z" />
<path style="fill:#000" d="M529,95 l9,0 0,508 -18,0 0,-508 9,0z" />

</svg>
