<?xml version="1.0" encoding="utf-8" standalone="no"?><!DOCTYPE svg PUBLIC "-//W3C//DTD SVG 1.1//EN" "http://www.w3.org/Graphics/SVG/1.1/DTD/svg11-flat-20030114.dtd"><svg width="998" height="999" version="1.1" xmlns="http://www.w3.org/2000/svg" xmlns:xlink="http://www.w3.org/1999/xlink">

<circle style="fill:#000" cx="498" cy="499" r="469" />
<path style="fill:#000" d="M47,378 l0,0 -17,121 -2,0 17,-121 0,-1 0,1 0,-1z" />
<path style="fill:#000" d="M94,265 l0,0 -47,113 -2,-1 47,-113 0,-1 0,1 0,-1 0,0z" />
<path style="fill:#000" d="M167,168 l0,0 -73,97 -2,-2 73,-96 1,-1 -1,1 0,-1 1,0z" />
<path style="fill:#000" d="M264,93 l0,0 -97,75 -1,-2 96,-75 1,0 -1,0 0,0 1,0z" />
<path style="fill:#000" d="M377,47 l0,0 -113,46 -1,-2 113,-46 1,0 -1,0 1,0z" />
<path style="fill:#000" d="M499,30 l0,0 -122,17 0,-2 122,-17 0,0 0,0 0,0 0,0z" />
<path style="fill:#000" d="M621,47 l0,0 -122,-17 0,-2 122,17 1,0 -1,0 1,0z" />
<path style="fill:#000" d="M732,93 l1,0 -112,-46 1,-2 111,46 1,0 -1,0 1,0 0,0z" />
<path style="fill:#000" d="M829,168 l0,0 -97,-75 2,-2 97,75 0,1 0,-1 0,0 0,1z" />
<path style="fill:#000" d="M905,265 l0,0 -76,-97 2,-1 76,96 0,1 0,-1 0,0 0,1z" />
<path style="fill:#000" d="M952,378 l0,0 -47,-113 2,-1 47,113 0,1 0,-1 0,1z" />
<path style="fill:#000" d="M967,499 l0,0 -15,-121 2,0 15,121 0,0 0,0 0,0 0,0z" />
<path style="fill:#000" d="M952,620 l0,0 15,-121 2,0 -15,121 0,1 0,-1 0,1z" />
<path style="fill:#000" d="M905,733 l0,0 47,-113 2,1 -47,113 0,1 0,-1 0,1 0,0z" />
<path style="fill:#000" d="M829,831 l0,0 76,-98 2,2 -76,97 0,1 0,-1 0,1 0,0z" />
<path style="fill:#000" d="M733,905 l-1,0 97,-74 2,2 -97,74 -1,0 1,0 0,0 -1,0z" />
<path style="fill:#000" d="M621,953 l0,0 112,-48 0,2 -111,48 -1,0 1,0 -1,0z" />
<path style="fill:#000" d="M499,968 l0,0 122,-15 0,2 -122,15 0,0 0,0 0,0 0,0z" />
<path style="fill:#000" d="M377,953 l0,0 122,15 0,2 -122,-15 -1,0 1,0 -1,0z" />
<path style="fill:#000" d="M264,905 l0,0 113,48 -1,2 -113,-48 -1,0 1,0 -1,0 0,0z" />
<path style="fill:#000" d="M167,831 l0,0 97,74 -2,2 -96,-74 -1,-1 1,1 -1,0 0,-1z" />
<path style="fill:#000" d="M94,733 l0,0 73,98 -2,1 -73,-97 0,-1 0,1 0,0 0,-1z" />
<path style="fill:#000" d="M47,620 l0,0 47,113 -2,1 -47,-113 0,-1 0,1 0,-1z" />
<path style="fill:#000" d="M30,499 l0,0 17,121 -2,0 -17,-121 0,0 0,0 0,0 0,0z" />
<path style="fill:#e5e5e5;stroke:#000;stroke-width:2" d="M680,90 l229,228 6,22 0,319 -6,21 -229,230 -22,6 -318,0 -22,-6 -229,-230 -7,-21 0,-319 7,-22 229,-228 22,-8 318,0 22,8z" />
<circle style="fill:#7f7f7f;stroke:#000;stroke-width:2" cx="499" cy="499" r="392" />
<path style="fill:#b2b2b2;stroke:#000;stroke-width:2" d="M442,55 l0,82 -77,22 -72,38 -61,53 -48,64 -33,74 -16,79 1,81 21,78 36,72 51,62 63,50 73,35 79,17 79,0 79,-17 75,-35 63,-50 50,-62 36,-72 20,-78 2,-81 -16,-79 -33,-74 -49,-64 -60,-53 -73,-38 -77,-22 0,-82 -113,0z" />
<circle style="fill:#7f7f7f" cx="499" cy="499" r="313" />
<circle style="fill:#b2b2b2" cx="499" cy="499" r="299" />
<circle style="fill:#000;stroke:#000;stroke-width:2" cx="498" cy="499" r="271" />
<circle style="fill:#3c3;stroke:#000;stroke-width:2" cx="498" cy="499" r="242" />

</svg>
