<?xml version="1.0" encoding="utf-8" standalone="no"?><!DOCTYPE svg PUBLIC "-//W3C//DTD SVG 1.1//EN" "http://www.w3.org/Graphics/SVG/1.1/DTD/svg11-flat-20030114.dtd"><svg width="998" height="999" version="1.1" xmlns="http://www.w3.org/2000/svg" xmlns:xlink="http://www.w3.org/1999/xlink">

<circle style="fill:#000" cx="498" cy="499" r="469" />
<path style="fill:#000" d="M46,377 l0,0 -16,122 -2,0 16,-122 0,-1 0,1 0,-1 0,0z" />
<path style="fill:#000" d="M94,266 l0,0 -48,111 -2,-1 48,-112 0,0 0,0 0,0z" />
<path style="fill:#000" d="M168,168 l0,0 -74,98 -2,-2 74,-98 0,0 0,0 0,0 0,0z" />
<path style="fill:#000" d="M265,93 l0,0 -97,75 -2,-2 97,-75 0,0 0,0 0,0z" />
<path style="fill:#000" d="M377,47 l0,0 -112,46 -2,-2 113,-46 1,0 -1,0 0,0 1,0z" />
<path style="fill:#000" d="M499,30 l0,0 -122,17 0,-2 122,-17 0,0 0,0 0,0 0,0z" />
<path style="fill:#000" d="M620,47 l0,0 -121,-17 0,-2 121,17 1,0 -1,0 1,0 0,0z" />
<path style="fill:#000" d="M733,93 l0,0 -113,-46 1,-2 114,46 0,0 0,0 0,0z" />
<path style="fill:#000" d="M829,168 l0,0 -96,-75 2,-2 96,75 0,0 0,0 0,0 0,0z" />
<path style="fill:#000" d="M904,266 l0,0 -75,-98 2,-2 75,98 0,0 0,0 0,0z" />
<path style="fill:#000" d="M951,377 l0,0 -47,-111 2,-2 47,112 0,1 0,-1 0,0 0,1z" />
<path style="fill:#000" d="M967,499 l0,0 -16,-122 2,0 16,122 0,0 0,0 0,0 0,0z" />
<path style="fill:#000" d="M951,621 l0,0 16,-122 2,0 -16,122 0,1 0,-1 0,1 0,0z" />
<path style="fill:#000" d="M904,732 l0,0 47,-111 2,1 -47,112 0,0 0,0 0,0z" />
<path style="fill:#000" d="M829,831 l0,0 75,-99 2,2 -75,99 0,0 0,0 0,0 0,0z" />
<path style="fill:#000" d="M733,905 l0,0 96,-74 2,2 -96,74 0,0 0,0 0,0z" />
<path style="fill:#000" d="M620,952 l0,0 113,-47 2,2 -114,47 -1,0 1,0 0,0 -1,0z" />
<path style="fill:#000" d="M499,968 l0,0 121,-16 0,2 -121,16 0,0 0,0 0,0 0,0z" />
<path style="fill:#000" d="M377,952 l0,0 122,16 0,2 -122,-16 -1,0 1,0 -1,0 0,0z" />
<path style="fill:#000" d="M265,905 l0,0 112,47 -1,2 -113,-47 0,0 0,0 0,0z" />
<path style="fill:#000" d="M168,831 l0,0 97,74 -2,2 -97,-74 0,0 0,0 0,0 0,0z" />
<path style="fill:#000" d="M94,732 l0,0 74,99 -2,2 -74,-99 0,0 0,0 0,0z" />
<path style="fill:#000" d="M46,621 l0,0 48,111 -2,2 -48,-112 0,-1 0,1 0,0 0,-1z" />
<path style="fill:#000" d="M30,499 l0,0 16,122 -2,0 -16,-122 0,0 0,0 0,0 0,0z" />
<path style="fill:#e5e5e5" d="M680,89 l229,229 7,22 0,318 -7,22 -229,230 -22,7 -318,0 -22,-7 -230,-230 -5,-22 0,-318 5,-22 230,-229 22,-7 318,0 22,7z" />
<path style="fill:#000" d="M908,318 l0,0 -228,-228 1,-1 228,228 1,0 -1,0 0,0 1,0z" />
<path style="fill:#000" d="M916,340 l0,0 -8,-22 2,-1 7,23 0,0 0,0 0,0z" />
<path style="fill:#000" d="M916,658 l0,0 0,-318 1,0 0,318 0,0 0,0 0,0z" />
<path style="fill:#000" d="M908,680 l0,0 8,-22 1,0 -7,23 -1,0 1,0 -1,0 0,0z" />
<path style="fill:#000" d="M680,909 l0,0 228,-229 1,1 -228,229 0,1 0,-1 0,0 0,1z" />
<path style="fill:#000" d="M658,917 l0,0 22,-8 1,2 -23,7 0,0 0,0 0,0z" />
<path style="fill:#000" d="M340,917 l0,0 318,0 0,1 -318,0 0,0 0,0 0,0z" />
<path style="fill:#000" d="M318,909 l0,0 22,8 0,1 -23,-7 0,-1 0,1 0,-1 0,0z" />
<path style="fill:#000" d="M89,680 l0,0 229,229 -1,1 -229,-229 -1,0 1,0 -1,0 0,0z" />
<path style="fill:#000" d="M83,658 l0,0 6,22 -2,1 -5,-23 0,0 0,0 0,0z" />
<path style="fill:#000" d="M83,340 l0,0 0,318 -1,0 0,-318 0,0 0,0 0,0z" />
<path style="fill:#000" d="M89,318 l0,0 -6,22 -1,0 5,-23 1,0 -1,0 0,0 1,0z" />
<path style="fill:#000" d="M318,90 l0,0 -229,228 -1,-1 229,-228 0,-1 0,1 0,0 0,-1z" />
<path style="fill:#000" d="M340,82 l0,0 -22,8 -1,-2 23,-7 0,0 0,0 0,0z" />
<path style="fill:#000" d="M658,82 l0,0 -318,0 0,-1 318,0 0,0 0,0 0,0z" />
<path style="fill:#000" d="M680,90 l0,0 -22,-8 0,-1 23,7 0,1 0,-1 0,1 0,0z" />
<circle style="fill:#7f7f7f" cx="499" cy="499" r="392" />
<path style="fill:#000" d="M117,412 l0,0 -9,87 -2,0 10,-87 0,-1 0,1 0,-1z" />
<path style="fill:#000" d="M146,328 l0,0 -29,84 -1,-1 29,-83 0,0 0,0 0,0 0,0z" />
<path style="fill:#000" d="M192,254 l0,0 -46,74 -1,0 46,-75 0,0 0,0 0,0z" />
<path style="fill:#000" d="M254,193 l0,0 -62,61 -1,-1 62,-61 0,0 0,0 0,0z" />
<path style="fill:#000" d="M328,146 l0,0 -74,47 -1,-1 75,-47 0,0 0,0 0,0 0,0z" />
<path style="fill:#000" d="M413,117 l0,0 -85,29 0,-1 84,-29 1,0 -1,0 1,0z" />
<path style="fill:#000" d="M499,107 l-86,10 0,-1 86,-11z" />
<path style="fill:#000" d="M586,117 l0,0 -87,-10 0,-2 87,11 1,0 -1,0 1,0z" />
<path style="fill:#000" d="M669,146 l0,0 -83,-29 1,-1 82,29 1,0 -1,0 1,0 0,0z" />
<path style="fill:#000" d="M744,193 l0,0 -75,-47 1,-1 75,47 0,0 0,0 0,0z" />
<path style="fill:#000" d="M805,254 l0,0 -61,-61 1,-1 61,61 0,0 0,0 0,0z" />
<path style="fill:#000" d="M852,328 l0,0 -47,-74 1,-1 47,75 0,0 0,0 0,0 0,0z" />
<path style="fill:#000" d="M882,412 l0,0 -30,-84 1,0 30,83 0,1 0,-1 0,1z" />
<path style="fill:#000" d="M891,499 l-9,-87 1,0 10,87z" />
<path style="fill:#000" d="M882,587 l0,0 9,-88 2,0 -10,88 0,1 0,-1 0,1z" />
<path style="fill:#000" d="M852,670 l0,0 30,-83 1,1 -30,82 0,0 0,0 0,0 0,0z" />
<path style="fill:#000" d="M805,744 l0,0 47,-74 1,0 -47,75 0,0 0,0 0,0z" />
<path style="fill:#000" d="M744,806 l0,0 61,-62 1,1 -61,62 0,0 0,0 0,0z" />
<path style="fill:#000" d="M669,853 l0,0 75,-47 1,1 -75,47 -1,0 1,0 0,0 -1,0z" />
<path style="fill:#000" d="M586,883 l0,0 83,-30 0,1 -82,30 -1,0 1,0 -1,0z" />
<path style="fill:#000" d="M499,892 l87,-9 0,1 -87,10z" />
<path style="fill:#000" d="M413,883 l0,0 86,9 0,2 -86,-10 -1,0 1,0 -1,0z" />
<path style="fill:#000" d="M328,853 l0,0 85,30 -1,1 -84,-30 0,0 0,0 0,0 0,0z" />
<path style="fill:#000" d="M254,806 l0,0 74,47 0,1 -75,-47 0,0 0,0 0,0z" />
<path style="fill:#000" d="M192,744 l0,0 62,62 -1,1 -62,-62 0,0 0,0 0,0z" />
<path style="fill:#000" d="M146,670 l0,0 46,74 -1,1 -46,-75 0,0 0,0 0,0 0,0z" />
<path style="fill:#000" d="M117,587 l0,0 29,83 -1,0 -29,-82 0,-1 0,1 0,-1z" />
<path style="fill:#000" d="M108,499 l9,88 -1,0 -10,-88z" />
<path style="fill:#b2b2b2" d="M442,55 l0,83 -77,22 -72,37 -61,53 -48,65 -33,72 -16,80 2,81 20,78 36,71 50,63 64,50 74,35 78,17 80,0 79,-17 73,-35 64,-50 50,-63 36,-71 20,-78 2,-81 -16,-80 -33,-72 -49,-65 -60,-53 -72,-37 -78,-22 0,-83 -113,0z" />
<path style="fill:#000" d="M441,137 l0,1 0,-83 1,0 0,83 0,1 0,-1 0,1 0,0z" />
<path style="fill:#000" d="M364,159 l0,0 77,-22 1,2 -77,21 0,0 -1,-1 0,0z" />
<path style="fill:#000" d="M293,197 l0,0 71,-38 1,1 -71,38 0,0 -1,-1 0,0 0,0z" />
<path style="fill:#000" d="M231,250 l0,-1 62,-52 1,1 -61,52 0,0 -2,0 0,-1z" />
<path style="fill:#000" d="M183,314 l1,0 47,-64 2,0 -48,65 0,0 -2,-1 1,0z" />
<path style="fill:#000" d="M150,387 l0,0 33,-73 2,1 -33,73 0,-1 -2,0 0,0z" />
<path style="fill:#000" d="M134,467 l0,0 16,-80 2,0 -16,80 0,0 -2,0 0,0z" />
<path style="fill:#000" d="M136,548 l0,0 -2,-81 2,0 2,81 0,0 -2,0 0,0z" />
<path style="fill:#000" d="M156,626 l0,0 -20,-78 2,0 20,78 0,0 -2,0 0,0z" />
<path style="fill:#000" d="M192,698 l0,0 -36,-72 2,0 35,71 0,0 -1,1 0,0 0,0z" />
<path style="fill:#000" d="M243,761 l0,0 -51,-63 1,-1 51,63 0,0 -1,1 0,0z" />
<path style="fill:#000" d="M307,811 l0,0 -64,-50 1,-1 64,50 0,-1 -1,2 0,0z" />
<path style="fill:#000" d="M380,846 l0,0 -73,-35 1,-2 73,35 0,0 -1,2 0,0z" />
<path style="fill:#000" d="M459,863 l-1,0 -78,-17 1,-2 78,17 0,0 0,2 -1,0z" />
<path style="fill:#000" d="M540,863 l-1,0 -80,0 0,-2 80,0 0,0 1,2 -1,0z" />
<path style="fill:#000" d="M619,846 l0,0 -79,17 -1,-2 79,-17 0,0 1,2 0,0z" />
<path style="fill:#000" d="M691,811 l0,0 -72,35 -1,-2 72,-35 0,1 1,1 0,0z" />
<path style="fill:#000" d="M755,761 l0,0 -64,50 -1,-1 64,-50 0,0 1,1 0,0z" />
<path style="fill:#000" d="M806,698 l0,0 -51,63 -1,-1 51,-63 0,0 1,1 0,0 0,0z" />
<path style="fill:#000" d="M842,626 l0,0 -36,72 -1,-1 35,-71 0,0 2,0 0,0z" />
<path style="fill:#000" d="M862,548 l0,0 -20,78 -2,0 20,-78 0,0 2,0 0,0z" />
<path style="fill:#000" d="M864,467 l0,0 -2,81 -2,0 2,-81 0,0 2,0 0,0z" />
<path style="fill:#000" d="M848,387 l0,0 16,80 -2,0 -16,-80 0,1 2,-1 0,0z" />
<path style="fill:#000" d="M814,314 l1,0 33,73 -2,1 -33,-73 0,0 1,-1 1,0z" />
<path style="fill:#000" d="M766,249 l0,1 48,64 -1,1 -49,-65 0,0 2,-1 0,1z" />
<path style="fill:#000" d="M705,197 l0,0 61,52 -2,1 -60,-52 0,0 1,-1 0,0 0,0z" />
<path style="fill:#000" d="M634,159 l0,0 71,38 -1,1 -71,-38 0,0 1,-1 0,0z" />
<path style="fill:#000" d="M556,138 l0,-1 78,22 -1,1 -78,-21 0,-1 0,1 0,0 0,-1z" />
<path style="fill:#000" d="M555,55 l1,0 0,83 -1,0 0,-83 0,1 0,-1 1,0 0,0z" />
<path style="fill:#000" d="M441,55 l1,0 113,0 0,1 -113,0 0,-1 -1,0 0,0 1,0z" />
<circle style="fill:#7f7f7f" cx="499" cy="499" r="313" />
<circle style="fill:#b2b2b2" cx="498" cy="499" r="298" />
<circle style="fill:#000" cx="498" cy="499" r="271" />
<path style="fill:#000" d="M238,430 l0,0 -10,69 -1,0 9,-70 0,0 0,0 0,0z" />
<path style="fill:#000" d="M266,364 l0,0 -28,66 -2,-1 28,-66 0,0 0,0 0,0z" />
<path style="fill:#000" d="M308,308 l0,0 -42,56 -2,-1 43,-56 0,0 0,0 0,0 0,0z" />
<path style="fill:#000" d="M364,266 l0,0 -56,42 -1,-1 56,-43 0,0 0,0 0,0z" />
<path style="fill:#000" d="M430,238 l0,0 -66,28 -1,-2 66,-28 0,0 0,0 0,0z" />
<path style="fill:#000" d="M499,228 l0,0 -69,10 -1,-2 70,-9 0,0 0,0 0,0 0,0z" />
<path style="fill:#000" d="M569,238 l0,0 -70,-10 0,-1 71,9 0,0 0,0 0,0z" />
<path style="fill:#000" d="M635,266 l0,0 -66,-28 1,-2 66,28 0,0 0,0 0,0z" />
<path style="fill:#000" d="M689,308 l0,0 -54,-42 1,-2 54,43 0,0 0,0 0,0 0,0z" />
<path style="fill:#000" d="M733,364 l0,0 -44,-56 1,-1 45,56 0,0 0,0 0,0z" />
<path style="fill:#000" d="M760,429 l0,1 -27,-66 2,-1 27,66 0,0 0,0 0,0 0,0z" />
<path style="fill:#000" d="M769,499 l-9,-70 2,0 8,70z" />
<path style="fill:#000" d="M760,568 l0,1 9,-70 1,0 -8,70 0,0 0,0 0,0 0,0z" />
<path style="fill:#000" d="M733,634 l0,0 27,-66 2,1 -27,66 0,0 0,0 0,0z" />
<path style="fill:#000" d="M689,690 l0,0 44,-56 2,1 -45,56 0,0 0,0 0,0 0,0z" />
<path style="fill:#000" d="M635,734 l0,0 54,-44 1,1 -54,44 -1,1 1,-1 -1,1z" />
<path style="fill:#000" d="M569,760 l66,-26 0,2 -65,26z" />
<path style="fill:#000" d="M499,770 l0,0 70,-10 1,2 -71,9 0,0 0,0 0,0 0,0z" />
<path style="fill:#000" d="M430,760 l69,10 0,1 -70,-9z" />
<path style="fill:#000" d="M364,734 l0,0 66,26 -1,2 -66,-26 0,-1 0,1 0,-1z" />
<path style="fill:#000" d="M308,690 l0,0 56,44 -1,1 -56,-44 0,0 0,0 0,0 0,0z" />
<path style="fill:#000" d="M266,634 l0,0 42,56 -1,1 -43,-56 0,0 0,0 0,0z" />
<path style="fill:#000" d="M238,568 l0,0 28,66 -2,1 -28,-66 0,0 0,0 0,0z" />
<path style="fill:#000" d="M228,499 l0,0 10,69 -2,1 -9,-70 0,0 0,0 0,0 0,0z" />
<circle style="fill:#f00" cx="499" cy="499" r="243" />
<path style="fill:#000" d="M266,436 l-9,63 -1,0 8,-63z" />
<path style="fill:#000" d="M289,378 l0,0 -23,58 -2,0 24,-58 0,-1 0,1 0,-1z" />
<path style="fill:#000" d="M327,328 l1,-1 -39,51 -1,-1 38,-50 1,-1 -1,1 0,-1 1,0z" />
<path style="fill:#000" d="M378,290 l0,0 -51,38 0,-2 50,-37 0,0 0,0 0,0z" />
<path style="fill:#000" d="M437,266 l0,0 -59,24 -1,-1 60,-25 0,0 0,0 0,0z" />
<path style="fill:#000" d="M499,257 l0,0 -62,9 0,-2 62,-8 0,0 0,0 0,0 0,0z" />
<path style="fill:#000" d="M562,266 l0,0 -63,-9 0,-1 63,8 0,0 0,0 0,0z" />
<path style="fill:#000" d="M620,290 l0,0 -58,-24 0,-2 59,25 0,0 0,0 0,0z" />
<path style="fill:#000" d="M670,327 l1,1 -51,-38 1,-1 50,37 1,1 -1,-1 1,0 0,1z" />
<path style="fill:#000" d="M709,378 l0,0 -39,-51 2,0 38,50 0,0 0,0 0,0z" />
<path style="fill:#000" d="M733,436 l0,0 -24,-58 1,-1 25,59 0,0 0,0 0,0z" />
<path style="fill:#000" d="M742,499 l0,0 -9,-63 2,0 8,63 0,0 0,0 0,0 0,0z" />
<path style="fill:#000" d="M733,563 l0,0 9,-64 1,0 -8,64 0,0 0,0 0,0z" />
<path style="fill:#000" d="M709,621 l0,0 24,-58 2,0 -25,59 0,0 0,0 0,0z" />
<path style="fill:#000" d="M671,670 l-1,1 39,-50 1,1 -38,49 -1,1 1,-1 0,1 -1,0z" />
<path style="fill:#000" d="M620,710 l0,0 51,-40 0,2 -50,39 0,0 0,0 0,0z" />
<path style="fill:#000" d="M562,734 l0,0 58,-24 1,1 -59,25 0,0 0,0 0,0z" />
<path style="fill:#000" d="M499,743 l0,0 63,-9 0,2 -63,8 0,0 0,0 0,0 0,0z" />
<path style="fill:#000" d="M437,734 l0,0 62,9 0,1 -62,-8 0,0 0,0 0,0z" />
<path style="fill:#000" d="M378,710 l0,0 59,24 0,2 -60,-25 0,0 0,0 0,0z" />
<path style="fill:#000" d="M328,671 l-1,-1 51,40 -1,1 -50,-39 -1,-1 1,1 -1,0 0,-1z" />
<path style="fill:#000" d="M289,621 l0,0 39,50 -2,0 -38,-49 0,-1 0,1 0,-1z" />
<path style="fill:#000" d="M266,563 l23,58 -1,0 -24,-58z" />
<path style="fill:#000" d="M257,499 l0,0 9,64 -2,0 -8,-64 0,0 0,0 0,0 0,0z" />

</svg>
