<?xml version="1.0" encoding="utf-8" standalone="no"?><!DOCTYPE svg PUBLIC "-//W3C//DTD SVG 1.1//EN" "http://www.w3.org/Graphics/SVG/1.1/DTD/svg11-flat-20030114.dtd"><svg width="999" height="999" version="1.1" xmlns="http://www.w3.org/2000/svg" xmlns:xlink="http://www.w3.org/1999/xlink">

<circle style="fill:#000" cx="499" cy="499" r="471" />
<path style="fill:#f00;stroke:#000;stroke-width:2" d="M949,497 l-32,-167 -98,-151 -153,-101 -165,-32 -171,32 -151,101 -101,151 -32,167 32,169 101,153 151,98 171,32 165,-32 153,-98 98,-153 32,-169z" />
<path style="fill:#ff6b6b" d="M861,408 l-19,-101 -60,-93 -93,-60 -101,-19 -104,19 -93,60 -59,93 -20,101 20,104 59,95 93,58 104,21 101,-21 93,-58 60,-95 19,-104z" />
<path style="fill:#ffa3a3" d="M817,365 l-13,-70 -39,-62 -64,-41 -70,-13 -70,13 -62,41 -41,62 -14,70 14,70 41,64 62,40 70,13 70,-13 64,-40 39,-64 13,-70z" />
<circle style="fill:#ffd9d9" cx="676" cy="322" r="98" />

</svg>
