<?xml version="1.0" encoding="utf-8" standalone="no"?><!DOCTYPE svg PUBLIC "-//W3C//DTD SVG 1.1//EN" "http://www.w3.org/Graphics/SVG/1.1/DTD/svg11-flat-20030114.dtd"><svg width="999" height="750" version="1.1" xmlns="http://www.w3.org/2000/svg" xmlns:xlink="http://www.w3.org/1999/xlink">

<path style="fill:#000;stroke:#000;stroke-width:2" d="M970,527 l0,-499 -942,0 0,499 942,0z" />
<path style="fill:#b2b2b2;stroke:#000;stroke-width:2" d="M499,499 l0,-443 -443,0 0,443 443,0z" />
<path style="fill:#7f7f7f;stroke:#000;stroke-width:2" d="M499,499 l388,222 0,-444 -388,-221 0,443z" />
<path style="fill:#ccc;stroke:#000;stroke-width:2" d="M942,277 l0,45 -1,44 -2,43 -1,40 -3,39 -2,37 -4,34 -3,32 -4,29 -6,37 -7,29 -11,26 -8,9 -3,0 0,-444 18,-24 8,-28 6,-30 5,-27 4,-30 4,-33 3,-36 1,-13 6,0 0,221z" />

</svg>
