<?xml version="1.0" encoding="utf-8" standalone="no"?><!DOCTYPE svg PUBLIC "-//W3C//DTD SVG 1.1//EN" "http://www.w3.org/Graphics/SVG/1.1/DTD/svg11-flat-20030114.dtd"><svg width="999" height="748" version="1.1" xmlns="http://www.w3.org/2000/svg" xmlns:xlink="http://www.w3.org/1999/xlink">

<path style="fill:#000;stroke:#000;stroke-width:2" d="M28,525 l0,-497 942,0 0,497 -942,0z" />
<path style="fill:#7f7f7f;stroke:#000;stroke-width:2" d="M499,499 l0,-445 443,0 0,445 -443,0z" />
<path style="fill:#b2b2b2;stroke:#000;stroke-width:2" d="M499,499 l-388,221 0,-443 388,-223 0,445z" />
<path style="fill:#7f7f7f;stroke:#000;stroke-width:2" d="M56,277 l0,45 1,44 2,43 1,40 3,39 2,36 4,34 3,32 4,28 6,37 7,30 11,25 8,9 3,1 0,-443 -18,-24 -8,-28 -6,-31 -5,-26 -4,-31 -4,-33 -3,-37 -1,-13 -6,0 0,223z" />

</svg>
