<?xml version="1.0" encoding="utf-8" standalone="no"?><!DOCTYPE svg PUBLIC "-//W3C//DTD SVG 1.1//EN" "http://www.w3.org/Graphics/SVG/1.1/DTD/svg11-flat-20030114.dtd"><svg width="748" height="999" version="1.1" xmlns="http://www.w3.org/2000/svg" xmlns:xlink="http://www.w3.org/1999/xlink">

<path style="fill:#000;stroke:#000;stroke-width:2" d="M527,970 l-499,0 0,-942 499,0 0,942z" />
<path style="fill:#7f7f7f;stroke:#000;stroke-width:2" d="M499,499 l-443,0 0,-443 443,0 0,443z" />
<path style="fill:#b2b2b2;stroke:#000;stroke-width:2" d="M499,499 l221,388 -443,0 -221,-388 443,0z" />
<path style="fill:#7f7f7f;stroke:#000;stroke-width:2" d="M277,942 l45,0 44,-1 43,-2 40,-1 39,-3 36,-2 34,-4 32,-3 28,-4 37,-6 30,-7 25,-11 9,-8 1,-3 -443,0 -24,18 -28,8 -30,6 -27,5 -30,4 -33,4 -36,3 -13,1 0,6 221,0z" />

</svg>
