<?xml version="1.0" encoding="utf-8" standalone="no"?><!DOCTYPE svg PUBLIC "-//W3C//DTD SVG 1.1//EN" "http://www.w3.org/Graphics/SVG/1.1/DTD/svg11-flat-20030114.dtd"><svg width="999" height="972" version="1.1" xmlns="http://www.w3.org/2000/svg" xmlns:xlink="http://www.w3.org/1999/xlink">

<path style="fill:#000" d="M30,541 l-1,-512 940,1 -1,511 -153,85 -32,80 -53,68 -67,51 -79,33 -85,11 -85,-11 -78,-33 -68,-51 -52,-68 -32,-80 -154,-85z" />
<path style="fill:#000" d="M29,30 l1,-1 1,512 -2,0 -1,-512 1,-1 -1,1 0,-1 1,0z" />
<path style="fill:#000" d="M968,30 l1,1 -940,-1 0,-2 940,1 1,1 -1,-1 1,0 0,1z" />
<path style="fill:#000" d="M968,541 l-1,0 1,-511 2,0 -1,511 0,1 0,-1 0,1 0,0z" />
<path style="fill:#000" d="M814,626 l1,0 153,-85 1,1 -153,85 0,-1 -2,0 0,0 1,0z" />
<path style="fill:#000" d="M782,705 l0,1 32,-80 2,0 -32,80 0,0 0,0 0,0z" />
<path style="fill:#000" d="M730,773 l0,0 52,-68 2,1 -53,68 0,1 0,-1 0,1 0,0z" />
<path style="fill:#000" d="M663,824 l0,1 67,-52 1,2 -67,51 0,0 0,0 0,0z" />
<path style="fill:#000" d="M584,857 l79,-33 1,2 -80,33z" />
<path style="fill:#000" d="M499,868 l0,0 85,-11 0,2 -85,11 0,0 0,0 0,0 0,0z" />
<path style="fill:#000" d="M414,857 l85,11 0,2 -85,-11z" />
<path style="fill:#000" d="M336,825 l0,-1 78,33 0,2 -78,-33 -1,0 1,0 -1,0z" />
<path style="fill:#000" d="M268,773 l0,0 68,52 -1,1 -68,-51 0,-1 0,1 0,0 0,-1z" />
<path style="fill:#000" d="M217,706 l0,-1 51,68 -1,1 -51,-68 -1,0 1,0 -1,0z" />
<path style="fill:#000" d="M185,626 l0,0 32,80 -2,0 -32,-80 1,1 1,-1 0,0 0,0z" />
<path style="fill:#000" d="M31,541 l-1,0 155,85 -1,1 -155,-85 0,-1 0,1 0,0 0,-1z" />
<path style="fill:#e5e5e5;stroke:#000;stroke-width:2" d="M625,256 l161,160 5,14 0,223 -5,16 -161,159 -14,4 -223,0 -15,-4 -159,-159 -5,-16 0,-223 5,-14 159,-160 15,-5 223,0 14,5z" />
<path style="fill:#7f7f7f;stroke:#000;stroke-width:2" d="M227,541 l5,-60 21,-58 31,-52 44,-44 53,-31 58,-21 61,-7 61,7 57,21 52,31 44,44 32,52 20,58 7,60 -7,61 -20,59 -32,53 -44,42 -52,32 -57,21 -61,6 -61,-6 -58,-21 -53,-32 -44,-42 -31,-53 -21,-59 -5,-61z" />
<path style="fill:#b2b2b2;stroke:#000;stroke-width:2" d="M459,232 l0,57 -52,16 -51,27 -43,36 -32,45 -24,51 -10,55 0,57 14,54 25,50 36,44 43,33 52,25 54,11 56,0 55,-11 51,-25 45,-33 36,-44 24,-50 13,-54 2,-57 -10,-55 -24,-51 -32,-45 -43,-36 -51,-27 -54,-16 0,-57 -80,0z" />
<circle style="fill:#000" cx="499" cy="541" r="217" />
<path style="fill:#000;stroke:#7f7f7f;stroke-width:2" d="M663,495 l-127,-127 -451,465 111,111 467,-449z" />
<path style="fill:#e5e5e5;stroke:#7f7f7f;stroke-width:2" d="M580,453 l-53,9 12,11 -58,58 19,20 59,-57 12,11 9,-52z" />
<path style="fill:none;stroke:#7f7f7f;stroke-width:2" d="M412,496 l37,23 33,30 29,33 24,36" />
<path style="fill:none;stroke:#7f7f7f;stroke-width:2" d="M239,901 l-111,-112" />
<path style="fill:none;stroke:#7f7f7f;stroke-width:2" d="M243,897 l-110,-113" />
<path style="fill:none;stroke:#7f7f7f;stroke-width:2" d="M288,854 l-113,-115" />
<path style="fill:none;stroke:#7f7f7f;stroke-width:2" d="M293,850 l-113,-115" />
<path style="fill:none;stroke:#7f7f7f;stroke-width:2" d="M338,806 l-114,-116" />
<path style="fill:none;stroke:#7f7f7f;stroke-width:2" d="M344,802 l-116,-117" />
<path style="fill:none;stroke:#7f7f7f;stroke-width:2" d="M388,759 l-116,-117" />
<path style="fill:none;stroke:#7f7f7f;stroke-width:2" d="M392,755 l-117,-118" />
<path style="fill:none;stroke:#7f7f7f;stroke-width:2" d="M437,711 l-118,-120" />
<path style="fill:none;stroke:#7f7f7f;stroke-width:2" d="M443,707 l-120,-121" />
<path style="fill:none;stroke:#7f7f7f;stroke-width:2" d="M487,665 l-120,-122" />
<path style="fill:none;stroke:#7f7f7f;stroke-width:2" d="M491,660 l-119,-122" />
<path style="fill:none;stroke:#7f7f7f;stroke-width:2" d="M210,705 l-125,128" />
<path style="fill:none;stroke:#7f7f7f;stroke-width:2" d="M196,944 l-111,-111" />
<path style="fill:none;stroke:#7f7f7f;stroke-width:2" d="M323,820 l-127,124" />
<path style="fill:none;stroke:#7f7f7f;stroke-width:2" d="M473,558" />
<path style="fill:none;stroke:#7f7f7f;stroke-width:2" d="M140,888" />
<path style="fill:none;stroke:#7f7f7f;stroke-width:2" d="M196,944 l-111,-111" />

</svg>
