<?xml version="1.0" encoding="utf-8" standalone="no"?><!DOCTYPE svg PUBLIC "-//W3C//DTD SVG 1.1//EN" "http://www.w3.org/Graphics/SVG/1.1/DTD/svg11-flat-20030114.dtd"><svg width="999" height="999" version="1.1" xmlns="http://www.w3.org/2000/svg" xmlns:xlink="http://www.w3.org/1999/xlink">

<path style="fill:#000;stroke:#000;stroke-width:2" d="M969,969 l0,-940 -939,0 0,940 939,0z" />
<circle style="fill:#e5e5e5;stroke:#000;stroke-width:2" cx="499" cy="499" r="471" />
<circle style="fill:#000;stroke:#000;stroke-width:2" cx="499" cy="499" r="403" />
<path style="fill:none;stroke:#999;stroke-width:2" d="M186,29 l-156,155" />
<path style="fill:none;stroke:#999;stroke-width:2" d="M30,812 l156,157" />
<path style="fill:none;stroke:#000;stroke-width:2" d="M895,578 l-4,0" />
<path style="fill:none;stroke:#000;stroke-width:2" d="M891,420 l4,0" />
<path style="fill:none;stroke:#999;stroke-width:2" d="M814,29 l155,155" />
<path style="fill:none;stroke:#999;stroke-width:2" d="M969,812 l-155,157" />
<path style="fill:#4c4c4c;stroke:#7f7f7f;stroke-width:2" d="M405,880 l-15,-9 -4,-19 19,-234 0,-238 -19,-235 4,-17 17,-12 92,-11 94,11 15,12 4,17 -19,235 0,238 19,234 -4,19 -15,11 -94,11 -94,-13z" />
<path style="fill:#e5e5e5;stroke:#000;stroke-width:2" d="M460,305 l0,-168 79,0 0,168 -2,10 -2,5 0,0 -1,3 -3,5 -7,7 -8,4 -9,3 -2,0 0,1 -1,0 -10,-1 -9,-3 -6,-1 -6,-7 -7,-6 -4,-8 -2,-7 0,-1 0,-1 0,-3z" />

</svg>
