<?xml version="1.0" encoding="utf-8" standalone="no"?><!DOCTYPE svg PUBLIC "-//W3C//DTD SVG 1.1//EN" "http://www.w3.org/Graphics/SVG/1.1/DTD/svg11-flat-20030114.dtd"><svg width="999" height="999" version="1.1" xmlns="http://www.w3.org/2000/svg" xmlns:xlink="http://www.w3.org/1999/xlink">

<circle style="fill:#333" cx="566" cy="431" r="403" />
<path style="fill:#4c4c4c" d="M934,406 l-25,-131 -74,-118 -119,-75 -131,-25 -130,25 -118,75 -75,118 -25,131 25,130 75,119 118,74 130,25 131,-25 119,-74 74,-119 25,-130z" />
<path style="fill:#666" d="M895,376 l-21,-110 -63,-100 -100,-63 -111,-21 -110,21 -100,63 -63,100 -21,110 21,111 63,100 100,63 110,21 111,-21 100,-63 63,-100 21,-111z" />
<path style="fill:#7f7f7f" d="M860,352 l-17,-90 -52,-82 -81,-52 -90,-17 -90,17 -82,52 -52,82 -17,90 17,90 52,82 82,51 90,17 90,-17 81,-51 52,-82 17,-90z" />
<circle style="fill:#999" cx="642" cy="325" r="189" />
<path style="fill:#b2b2b2" d="M792,298 l-10,-52 -29,-46 -47,-30 -52,-10 -51,10 -47,30 -29,46 -10,52 10,51 29,47 47,29 51,10 52,-10 47,-29 29,-47 10,-51z" />
<path style="fill:#999;stroke:#000;stroke-width:2" d="M726,400 l-128,-128 -570,572 126,126 572,-570z" />
<path style="fill:none;stroke:#fff;stroke-width:2" d="M726,400 l-128,-128" />
<path style="fill:#000;stroke:#000;stroke-width:2" d="M567,494 l-63,-63 143,-80 -80,143z" />
<path style="fill:none;stroke:#fff;stroke-width:2" d="M567,494 l-63,-63" />

</svg>
