<?xml version="1.0" encoding="utf-8" standalone="no"?><!DOCTYPE svg PUBLIC "-//W3C//DTD SVG 1.1//EN" "http://www.w3.org/Graphics/SVG/1.1/DTD/svg11-flat-20030114.dtd"><svg width="999" height="999" version="1.1" xmlns="http://www.w3.org/2000/svg" xmlns:xlink="http://www.w3.org/1999/xlink">

<path style="fill:#000;stroke:#000;stroke-width:2" d="M969,969 l0,-940 -939,0 0,940 939,0z" />
<circle style="fill:#e5e5e5;stroke:#000;stroke-width:2" cx="499" cy="499" r="471" />
<circle style="fill:#000;stroke:#000;stroke-width:2" cx="499" cy="499" r="403" />
<path style="fill:none;stroke:#999;stroke-width:2" d="M186,29 l-156,155" />
<path style="fill:none;stroke:#999;stroke-width:2" d="M30,812 l156,157" />
<path style="fill:none;stroke:#000;stroke-width:2" d="M895,578 l-4,0" />
<path style="fill:none;stroke:#000;stroke-width:2" d="M891,420 l4,0" />
<path style="fill:none;stroke:#999;stroke-width:2" d="M814,29 l155,155" />
<path style="fill:none;stroke:#999;stroke-width:2" d="M969,812 l-155,157" />
<path style="fill:#4c4c4c;stroke:#7f7f7f;stroke-width:2" d="M880,593 l-9,15 -19,4 -234,-19 -238,0 -235,19 -17,-4 -12,-16 -11,-93 11,-94 12,-15 17,-4 235,19 238,0 234,-19 19,4 11,15 11,94 -13,94z" />
<path style="fill:#e5e5e5;stroke:#000;stroke-width:2" d="M305,539 l-168,0 0,-79 168,0 10,1 5,2 0,0 3,1 5,3 7,7 4,8 3,9 0,2 1,0 0,1 -1,10 -3,9 -1,6 -7,6 -6,7 -8,4 -7,2 -1,1 -1,0 -3,0z" />

</svg>
