<?xml version="1.0" encoding="utf-8" standalone="no"?><!DOCTYPE svg PUBLIC "-//W3C//DTD SVG 1.1//EN" "http://www.w3.org/Graphics/SVG/1.1/DTD/svg11-flat-20030114.dtd"><svg width="999" height="899" version="1.1" xmlns="http://www.w3.org/2000/svg" xmlns:xlink="http://www.w3.org/1999/xlink">

<path style="fill:#000" d="M29,542 l0,-513 940,1 -1,512 -153,85 -33,79 -52,69 -67,51 -79,33 -84,11 -86,-11 -79,-33 -67,-51 -52,-69 -32,-79 -155,-85z" />
<path style="fill:#000" d="M29,30 l1,-1 0,513 -2,0 0,-513 1,-1 -1,1 0,-1 1,0z" />
<path style="fill:#000" d="M968,30 l1,1 -940,-1 0,-2 940,1 1,1 -1,-1 1,0 0,1z" />
<path style="fill:#000" d="M968,541 l-1,1 1,-512 2,0 -1,512 0,0 0,0 0,0 0,0z" />
<path style="fill:#000" d="M815,627 l0,-1 153,-85 1,1 -153,86 0,-1 -1,0 0,-1 0,0z" />
<path style="fill:#000" d="M782,705 l0,1 33,-79 1,0 -33,79 0,0 0,0 0,0z" />
<path style="fill:#000" d="M730,774 l-1,0 53,-69 1,1 -52,69 0,0 0,0 0,0 0,0z" />
<path style="fill:#000" d="M662,825 l0,0 68,-51 1,1 -68,51 0,0 0,0 0,0z" />
<path style="fill:#000" d="M584,858 l0,0 78,-33 1,1 -79,33 0,1 0,-1 0,1z" />
<path style="fill:#000" d="M500,869 l84,-11 0,2 -84,11 0,0 0,0 -1,0z" />
<path style="fill:#000" d="M414,858 l0,0 86,11 0,2 -86,-11 0,-1 0,1 0,-1z" />
<path style="fill:#000" d="M336,825 l0,0 78,33 0,1 -79,-33 0,0 0,0 0,0z" />
<path style="fill:#000" d="M269,774 l-1,0 68,51 -1,1 -68,-51 0,0 0,0 0,0 0,0z" />
<path style="fill:#000" d="M216,706 l0,-1 53,69 -2,1 -52,-69 0,0 0,0 0,0z" />
<path style="fill:#000" d="M184,626 l1,1 31,79 -1,0 -32,-79 0,1 1,-2 1,0 0,1z" />
<path style="fill:#000" d="M30,542 l-1,-1 155,85 -1,2 -155,-86 0,0 0,0 0,0 0,0z" />
<path style="fill:#e5e5e5;stroke:#000;stroke-width:2" d="M624,257 l162,159 4,15 0,223 -4,15 -162,159 -14,5 -221,0 -17,-5 -159,-159 -5,-15 0,-223 5,-15 159,-159 17,-6 221,0 14,6z" />
<circle style="fill:#7f7f7f;stroke:#000;stroke-width:2" cx="499" cy="542" r="273" />
<path style="fill:#b2b2b2;stroke:#000;stroke-width:2" d="M459,232 l0,57 -54,16 -49,27 -45,37 -32,44 -21,51 -12,56 0,56 14,55 24,49 37,44 44,34 51,26 54,11 58,0 53,-11 52,-26 44,-34 35,-44 26,-49 14,-55 2,-56 -11,-56 -24,-51 -34,-44 -42,-37 -49,-27 -56,-16 0,-57 -79,0z" />
<circle style="fill:#000" cx="499" cy="542" r="218" />

</svg>
