<?xml version="1.0" encoding="utf-8" standalone="no"?><!DOCTYPE svg PUBLIC "-//W3C//DTD SVG 1.1//EN" "http://www.w3.org/Graphics/SVG/1.1/DTD/svg11-flat-20030114.dtd"><svg width="999" height="999" version="1.1" xmlns="http://www.w3.org/2000/svg" xmlns:xlink="http://www.w3.org/1999/xlink">

<path style="fill:#000;stroke:#000;stroke-width:2" d="M968,968 l0,-938 -938,0 0,938 938,0z" />
<circle style="fill:#e5e5e5;stroke:#000;stroke-width:2" cx="499" cy="499" r="471" />
<circle style="fill:#000;stroke:#000;stroke-width:2" cx="499" cy="499" r="403" />
<path style="fill:none;stroke:#999;stroke-width:2" d="M186,30 l-156,154" />
<path style="fill:none;stroke:#999;stroke-width:2" d="M30,812 l156,156" />
<path style="fill:none;stroke:#000;stroke-width:2" d="M895,578 l-4,0" />
<path style="fill:none;stroke:#000;stroke-width:2" d="M891,420 l4,0" />
<path style="fill:none;stroke:#999;stroke-width:2" d="M814,30 l154,154" />
<path style="fill:none;stroke:#999;stroke-width:2" d="M968,812 l-154,156" />
<path style="fill:#4c4c4c;stroke:#7f7f7f;stroke-width:2" d="M118,405 l10,-15 19,-4 233,19 238,0 235,-19 17,4 12,17 11,92 -11,94 -12,15 -17,4 -235,-19 -238,0 -233,19 -19,-4 -12,-15 -11,-94 13,-94z" />
<path style="fill:#e5e5e5;stroke:#000;stroke-width:2" d="M693,459 l168,0 0,80 -168,0 -10,-2 -5,-2 0,0 -7,-4 -8,-7 -4,-8 -3,-9 0,-2 -1,0 0,-1 1,-10 3,-9 2,-8 8,-7 7,-6 9,-3 3,-1 1,-1 1,0 3,0z" />

</svg>
