<?xml version="1.0" encoding="utf-8" standalone="no"?><!DOCTYPE svg PUBLIC "-//W3C//DTD SVG 1.1//EN" "http://www.w3.org/Graphics/SVG/1.1/DTD/svg11-flat-20030114.dtd"><svg width="999" height="972" version="1.1" xmlns="http://www.w3.org/2000/svg" xmlns:xlink="http://www.w3.org/1999/xlink">

<path style="fill:#000" d="M969,542 l0,-513 -940,1 1,512 154,85 31,79 53,68 67,51 79,33 84,11 86,-11 79,-33 67,-51 53,-68 31,-79 155,-85z" />
<path style="fill:#000" d="M969,29 l0,0 0,513 1,0 0,-513 -1,-1 1,1 0,-1 -1,0z" />
<path style="fill:#000" d="M29,30 l0,1 940,-2 0,-1 -940,1 -1,1 1,-1 -1,0 0,1z" />
<path style="fill:#000" d="M30,542 l1,0 -2,-512 -1,0 1,512 0,1 0,-1 0,1 0,0z" />
<path style="fill:#000" d="M184,626 l0,0 -154,-84 -1,1 154,84 0,0 1,-1 0,0 0,0z" />
<path style="fill:#000" d="M216,705 l0,0 -32,-79 -1,1 31,79 0,0 0,0 0,0z" />
<path style="fill:#000" d="M268,773 l1,1 -53,-69 -2,1 53,69 0,0 0,0 0,0 0,0z" />
<path style="fill:#000" d="M335,825 l0,0 -67,-52 -1,2 67,51 0,0 0,0 0,0z" />
<path style="fill:#000" d="M414,858 l1,0 -80,-33 -1,1 80,33 0,0 0,0 0,0z" />
<path style="fill:#000" d="M498,869 l1,0 -85,-11 0,1 84,11 1,0 -1,0 0,0 1,0z" />
<path style="fill:#000" d="M583,858 l1,0 -86,11 1,1 85,-11 0,0 0,0 0,0z" />
<path style="fill:#000" d="M663,825 l0,0 -80,33 1,1 80,-33 0,0 0,0 0,0z" />
<path style="fill:#000" d="M729,774 l1,-1 -67,52 1,1 67,-51 0,0 0,0 0,0 0,0z" />
<path style="fill:#000" d="M782,705 l0,0 -53,69 2,1 53,-69 0,0 0,0 0,0z" />
<path style="fill:#000" d="M814,626 l0,0 -32,79 2,1 31,-79 0,0 -1,-1 0,0 0,0z" />
<path style="fill:#000" d="M969,542 l0,0 -155,84 1,1 155,-84 0,-1 0,1 0,0 0,-1z" />
<path style="fill:#e5e5e5;stroke:#000;stroke-width:2" d="M373,257 l-160,158 -5,15 0,223 5,15 160,160 16,4 220,0 16,-4 160,-160 5,-15 0,-223 -5,-15 -160,-158 -16,-6 -220,0 -16,6z" />
<circle style="fill:#7f7f7f;stroke:#000;stroke-width:2" cx="499" cy="542" r="273" />
<path style="fill:#b2b2b2;stroke:#000;stroke-width:2" d="M539,232 l0,58 53,14 50,27 44,37 33,45 22,51 11,55 -1,57 -13,54 -25,50 -36,44 -43,34 -53,25 -53,11 -58,0 -53,-11 -52,-25 -44,-34 -36,-44 -25,-50 -13,-54 -2,-57 11,-55 23,-51 33,-45 42,-37 52,-27 55,-14 0,-58 78,0z" />
<circle style="fill:#000" cx="499" cy="542" r="218" />
<path style="fill:#000;stroke:#7f7f7f;stroke-width:2" d="M335,496 l127,-127 451,464 -110,111 -468,-448z" />
<path style="fill:#e5e5e5;stroke:#7f7f7f;stroke-width:2" d="M418,452 l54,10 -13,11 59,58 -20,20 -58,-57 -12,12 -10,-54z" />
<path style="fill:none;stroke:#7f7f7f;stroke-width:2" d="M586,496 l-36,24 -33,28 -30,35 -23,36" />
<path style="fill:none;stroke:#7f7f7f;stroke-width:2" d="M760,901 l111,-112" />
<path style="fill:none;stroke:#7f7f7f;stroke-width:2" d="M755,897 l111,-113" />
<path style="fill:none;stroke:#7f7f7f;stroke-width:2" d="M709,853 l114,-113" />
<path style="fill:none;stroke:#7f7f7f;stroke-width:2" d="M706,850 l112,-115" />
<path style="fill:none;stroke:#7f7f7f;stroke-width:2" d="M661,806 l114,-116" />
<path style="fill:none;stroke:#7f7f7f;stroke-width:2" d="M656,802 l115,-117" />
<path style="fill:none;stroke:#7f7f7f;stroke-width:2" d="M611,758 l117,-117" />
<path style="fill:none;stroke:#7f7f7f;stroke-width:2" d="M607,755 l116,-119" />
<path style="fill:none;stroke:#7f7f7f;stroke-width:2" d="M562,712 l117,-120" />
<path style="fill:none;stroke:#7f7f7f;stroke-width:2" d="M556,707 l119,-120" />
<path style="fill:none;stroke:#7f7f7f;stroke-width:2" d="M512,664 l119,-122" />
<path style="fill:none;stroke:#7f7f7f;stroke-width:2" d="M507,659 l121,-122" />
<path style="fill:none;stroke:#7f7f7f;stroke-width:2" d="M789,705 l124,128" />
<path style="fill:none;stroke:#7f7f7f;stroke-width:2" d="M803,944 l110,-111" />
<path style="fill:none;stroke:#7f7f7f;stroke-width:2" d="M675,821 l128,123" />
<path style="fill:none;stroke:#7f7f7f;stroke-width:2" d="M525,558" />
<path style="fill:none;stroke:#7f7f7f;stroke-width:2" d="M858,888" />
<path style="fill:none;stroke:#7f7f7f;stroke-width:2" d="M803,944 l110,-111" />

</svg>
