<?xml version="1.0" encoding="utf-8" standalone="no"?><!DOCTYPE svg PUBLIC "-//W3C//DTD SVG 1.1//EN" "http://www.w3.org/Graphics/SVG/1.1/DTD/svg11-flat-20030114.dtd"><svg width="927" height="999" version="1.1" xmlns="http://www.w3.org/2000/svg" xmlns:xlink="http://www.w3.org/1999/xlink">

<path style="fill:#000;stroke:#000;stroke-width:2" d="M28,503 l0,-475 871,1 -1,474 -142,79 -30,72 -49,63 -63,49 -73,31 -78,10 -79,-10 -73,-31 -62,-49 -48,-63 -31,-72 -142,-79z" />
<path style="fill:#e5e5e5;stroke:#000;stroke-width:2" d="M580,239 l148,147 5,13 0,208 -5,14 -148,148 -15,3 -204,0 -15,-3 -147,-148 -5,-14 0,-208 5,-13 147,-147 15,-5 204,0 15,5z" />
<path style="fill:#7f7f7f;stroke:#000;stroke-width:2" d="M210,503 l5,-55 20,-54 29,-49 41,-40 47,-29 54,-21 57,-6 57,6 54,21 48,29 39,40 30,49 19,54 6,55 -6,57 -19,53 -30,49 -39,40 -48,31 -54,17 -57,6 -57,-6 -54,-17 -47,-31 -41,-40 -29,-49 -20,-53 -5,-57z" />
<path style="fill:#b2b2b2;stroke:#000;stroke-width:2" d="M427,216 l0,53 -51,14 -46,25 -41,34 -30,42 -20,48 -10,50 0,53 13,50 24,47 32,40 41,32 47,22 51,12 53,0 50,-12 47,-22 41,-32 33,-40 24,-47 12,-50 2,-53 -10,-50 -22,-48 -30,-42 -40,-34 -47,-25 -50,-14 0,-53 -73,0z" />
<circle style="fill:#000" cx="463" cy="503" r="202" />
<path style="fill:#000;stroke:#7f7f7f;stroke-width:2" d="M546,370 l-166,0 8,600 144,0 14,-600z" />
<path style="fill:#e5e5e5;stroke:#7f7f7f;stroke-width:2" d="M463,397 l-29,40 15,0 0,77 27,0 0,-76 16,0 -29,-41z" />
<path style="fill:none;stroke:#7f7f7f;stroke-width:2" d="M383,535 l39,-9 40,-1 40,1 41,9" />
<path style="fill:none;stroke:#7f7f7f;stroke-width:2" d="M535,914 l-147,0" />
<path style="fill:none;stroke:#7f7f7f;stroke-width:2" d="M535,909 l-147,-1" />
<path style="fill:none;stroke:#7f7f7f;stroke-width:2" d="M535,851 l-149,-1" />
<path style="fill:none;stroke:#7f7f7f;stroke-width:2" d="M535,845 l-149,-2" />
<path style="fill:none;stroke:#7f7f7f;stroke-width:2" d="M536,787 l-150,-2" />
<path style="fill:none;stroke:#7f7f7f;stroke-width:2" d="M536,782 l-151,-2" />
<path style="fill:none;stroke:#7f7f7f;stroke-width:2" d="M539,724 l-155,-2" />
<path style="fill:none;stroke:#7f7f7f;stroke-width:2" d="M539,717 l-155,-1" />
<path style="fill:none;stroke:#7f7f7f;stroke-width:2" d="M539,660 l-155,-2" />
<path style="fill:none;stroke:#7f7f7f;stroke-width:2" d="M540,654 l-157,-2" />
<path style="fill:none;stroke:#7f7f7f;stroke-width:2" d="M541,596 l-158,-1" />
<path style="fill:none;stroke:#7f7f7f;stroke-width:2" d="M541,590 l-158,-1" />
<path style="fill:none;stroke:#7f7f7f;stroke-width:2" d="M386,804 l2,166" />
<path style="fill:none;stroke:#7f7f7f;stroke-width:2" d="M532,970 l-144,0" />
<path style="fill:none;stroke:#7f7f7f;stroke-width:2" d="M536,807 l-4,163" />
<path style="fill:none;stroke:#7f7f7f;stroke-width:2" d="M463,535 l0,1" />
<path style="fill:none;stroke:#7f7f7f;stroke-width:2" d="M461,970" />
<path style="fill:none;stroke:#7f7f7f;stroke-width:2" d="M532,970 l-144,0" />

</svg>
