<?xml version="1.0" encoding="utf-8" standalone="no"?><!DOCTYPE svg PUBLIC "-//W3C//DTD SVG 1.1//EN" "http://www.w3.org/Graphics/SVG/1.1/DTD/svg11-flat-20030114.dtd"><svg width="540" height="999" version="1.1" xmlns="http://www.w3.org/2000/svg" xmlns:xlink="http://www.w3.org/1999/xlink">

<path style="fill:#c0c0c0;stroke:#fff;stroke-width:2" d="M28,28 l0,932 466,0 -28,-30 -408,-873 -30,-29z" />
<path style="fill:#000;stroke:#000;stroke-width:2" d="M494,960 l0,-932 -466,0 30,29 408,873 28,30z" />
<path style="fill:#7f7f7f;stroke:#000;stroke-width:2" d="M466,57 l-408,0 0,873 408,0 0,-873z" />
<path style="fill:#870000;stroke:#000;stroke-width:2" d="M512,956 l0,-474 -396,0 -57,-35 0,474 57,35 396,0z" />
<path style="fill:#a90000;stroke:#000;stroke-width:2" d="M512,644 l0,-114 -340,0 -56,-33 0,114 56,33 340,0z" />
<path style="fill:#ff5454;stroke:#000;stroke-width:2" d="M512,530 l-57,-33 -339,0 56,33 340,0z" />
<path style="fill:none;stroke:#000;stroke-width:2" d="M172,644 l0,-114" />
<path style="fill:#a90000;stroke:#000;stroke-width:2" d="M512,808 l0,-113 -340,0 -56,-36 0,113 56,36 340,0z" />
<path style="fill:#ff5454;stroke:#000;stroke-width:2" d="M512,695 l-57,-36 -339,0 56,36 340,0z" />
<path style="fill:none;stroke:#000;stroke-width:2" d="M172,808 l0,-113" />
<path style="fill:#a90000;stroke:#000;stroke-width:2" d="M512,970 l0,-113 -340,0 -56,-36 0,113 56,36 340,0z" />
<path style="fill:#ff5454;stroke:#000;stroke-width:2" d="M512,857 l-57,-36 -339,0 56,36 340,0z" />
<path style="fill:none;stroke:#000;stroke-width:2" d="M172,970 l0,-113" />
<path style="fill:none;stroke:#000;stroke-width:2" d="M116,956 l0,-474" />
<path style="fill:#ff5454;stroke:#000;stroke-width:2" d="M512,482 l-57,-35 -396,0 57,35 396,0z" />

</svg>
