<?xml version="1.0" encoding="utf-8" standalone="no"?><!DOCTYPE svg PUBLIC "-//W3C//DTD SVG 1.1//EN" "http://www.w3.org/Graphics/SVG/1.1/DTD/svg11-flat-20030114.dtd"><svg width="998" height="542" version="1.1" xmlns="http://www.w3.org/2000/svg" xmlns:xlink="http://www.w3.org/1999/xlink">

<path style="fill:#c0c0c0;stroke:#fff;stroke-width:2" d="M29,28 l0,471 941,0 -28,-30 -884,-411 -29,-30z" />
<path style="fill:#000;stroke:#000;stroke-width:2" d="M970,499 l0,-471 -942,0 30,30 882,413 30,28z" />
<path style="fill:#7f7f7f;stroke:#000;stroke-width:2" d="M940,471 l0,-413 -882,0 0,413 882,0z" />
<path style="fill:#870000;stroke:#000;stroke-width:2" d="M428,514 l474,0 0,-398 36,-56 -474,0 -36,56 0,398z" />
<path style="fill:#a90000;stroke:#000;stroke-width:2" d="M740,514 l114,0 0,-341 33,-57 -113,0 -34,57 0,341z" />
<path style="fill:#ff5454;stroke:#000;stroke-width:2" d="M854,514 l33,-58 0,-340 -33,57 0,341z" />
<path style="fill:none;stroke:#000;stroke-width:2" d="M740,173 l114,0" />
<path style="fill:#a90000;stroke:#000;stroke-width:2" d="M577,514 l112,0 0,-341 36,-57 -114,0 -34,57 0,341z" />
<path style="fill:#ff5454;stroke:#000;stroke-width:2" d="M689,514 l36,-58 0,-340 -36,57 0,341z" />
<path style="fill:none;stroke:#000;stroke-width:2" d="M577,173 l112,0" />
<path style="fill:#a90000;stroke:#000;stroke-width:2" d="M413,514 l113,0 0,-341 36,-57 -112,0 -37,57 0,341z" />
<path style="fill:#ff5454;stroke:#000;stroke-width:2" d="M526,514 l36,-58 0,-340 -36,57 0,341z" />
<path style="fill:none;stroke:#000;stroke-width:2" d="M413,173 l113,0" />
<path style="fill:none;stroke:#000;stroke-width:2" d="M428,116 l474,0" />
<path style="fill:#ff5454;stroke:#000;stroke-width:2" d="M902,514 l36,-58 0,-396 -36,56 0,398z" />

</svg>
