<?xml version="1.0" encoding="utf-8" standalone="no"?><!DOCTYPE svg PUBLIC "-//W3C//DTD SVG 1.1//EN" "http://www.w3.org/Graphics/SVG/1.1/DTD/svg11-flat-20030114.dtd"><svg width="999" height="537" version="1.1" xmlns="http://www.w3.org/2000/svg" xmlns:xlink="http://www.w3.org/1999/xlink">

<path style="fill:#c0c0c0;stroke:#fff;stroke-width:2" d="M36,28 l0,468 934,0 -28,-30 -878,-408 -28,-30z" />
<path style="fill:#000;stroke:#000;stroke-width:2" d="M970,496 l0,-468 -936,0 30,30 876,410 30,28z" />
<path style="fill:#7f7f7f;stroke:#000;stroke-width:2" d="M940,468 l0,-410 -876,0 0,410 876,0z" />
<path style="fill:#870000;stroke:#000;stroke-width:2" d="M43,509 l471,0 0,-395 36,-56 -471,0 -36,56 0,395z" />
<path style="fill:#a90000;stroke:#000;stroke-width:2" d="M353,509 l113,0 0,-339 32,-56 -111,0 -34,56 0,339z" />
<path style="fill:#ff5454;stroke:#000;stroke-width:2" d="M466,509 l32,-57 0,-338 -32,56 0,339z" />
<path style="fill:none;stroke:#000;stroke-width:2" d="M353,170 l113,0" />
<path style="fill:#a90000;stroke:#000;stroke-width:2" d="M191,509 l111,0 0,-339 36,-56 -113,0 -34,56 0,339z" />
<path style="fill:#ff5454;stroke:#000;stroke-width:2" d="M302,509 l36,-57 0,-338 -36,56 0,339z" />
<path style="fill:none;stroke:#000;stroke-width:2" d="M191,170 l111,0" />
<path style="fill:#a90000;stroke:#000;stroke-width:2" d="M28,509 l112,0 0,-339 36,-56 -112,0 -36,56 0,339z" />
<path style="fill:#ff5454;stroke:#000;stroke-width:2" d="M140,509 l36,-57 0,-338 -36,56 0,339z" />
<path style="fill:none;stroke:#000;stroke-width:2" d="M28,170 l112,0" />
<path style="fill:none;stroke:#000;stroke-width:2" d="M43,114 l471,0" />
<path style="fill:#ff5454;stroke:#000;stroke-width:2" d="M514,509 l36,-57 0,-394 -36,56 0,395z" />

</svg>
