<?xml version="1.0" encoding="utf-8" standalone="no"?><!DOCTYPE svg PUBLIC "-//W3C//DTD SVG 1.1//EN" "http://www.w3.org/Graphics/SVG/1.1/DTD/svg11-flat-20030114.dtd"><svg width="999" height="607" version="1.1" xmlns="http://www.w3.org/2000/svg" xmlns:xlink="http://www.w3.org/1999/xlink">

<path style="fill:#7f7f7f;stroke:#000;stroke-width:2" d="M617,185 l0,-158 -590,0 0,158 590,0z" />
<path style="fill:#7f7f7f;stroke:#000;stroke-width:2" d="M617,579 l0,-158 -590,0 0,158 590,0z" />
<path style="fill:#000" d="M598,165 l0,-118 -550,0 0,118 550,0z" />
<path style="fill:#000" d="M598,559 l0,-118 -550,0 0,118 550,0z" />
<path style="fill:#7f7f7f;stroke:#000;stroke-width:2" d="M657,264 l0,-197 -334,0 0,79 255,0 0,314 -255,0 0,79 334,0 0,-196 201,0 0,-79 -201,0z" />
<path style="fill:#e5e5e5" d="M632,288 l0,-196 -305,0 0,30 276,0 0,363 -276,0 0,30 305,0 0,-197 187,0 0,-30 -187,0z" />
<circle style="fill:#f00;stroke:#000;stroke-width:2" cx="901" cy="304" r="69" />
<circle style="fill:#ffd9d9" cx="922" cy="283" r="21" />

</svg>
