<?xml version="1.0" encoding="utf-8" standalone="no"?><!DOCTYPE svg PUBLIC "-//W3C//DTD SVG 1.1//EN" "http://www.w3.org/Graphics/SVG/1.1/DTD/svg11-flat-20030114.dtd"><svg width="607" height="999" version="1.1" xmlns="http://www.w3.org/2000/svg" xmlns:xlink="http://www.w3.org/1999/xlink">

<path style="fill:#7f7f7f;stroke:#000;stroke-width:2" d="M185,381 l-157,0 0,589 157,0 0,-589z" />
<path style="fill:#7f7f7f;stroke:#000;stroke-width:2" d="M579,381 l-158,0 0,589 158,0 0,-589z" />
<path style="fill:#000" d="M165,401 l-118,0 0,549 118,0 0,-549z" />
<path style="fill:#000" d="M558,401 l-118,0 0,549 118,0 0,-549z" />
<path style="fill:#7f7f7f;stroke:#000;stroke-width:2" d="M264,342 l-196,0 0,333 78,0 0,-255 314,0 0,255 79,0 0,-333 -197,0 0,-201 -78,0 0,201z" />
<path style="fill:#e5e5e5" d="M288,366 l-196,0 0,305 30,0 0,-275 363,0 0,275 29,0 0,-305 -196,0 0,-186 -30,0 0,186z" />
<circle style="fill:#f00;stroke:#000;stroke-width:2" cx="303" cy="97" r="69" />
<circle style="fill:#ffd9d9" cx="324" cy="75" r="21" />

</svg>
