<?xml version="1.0" encoding="utf-8" standalone="no"?><!DOCTYPE svg PUBLIC "-//W3C//DTD SVG 1.1//EN" "http://www.w3.org/Graphics/SVG/1.1/DTD/svg11-flat-20030114.dtd"><svg width="999" height="999" version="1.1" xmlns="http://www.w3.org/2000/svg" xmlns:xlink="http://www.w3.org/1999/xlink">

<path style="fill:#000;stroke:#000;stroke-width:2" d="M897,754 l21,-38 -93,-53 -21,38 93,53z" />
<path style="fill:#000;stroke:#000;stroke-width:2" d="M716,918 l38,-21 -53,-93 -38,21 53,93z" />
<path style="fill:#000;stroke:#000;stroke-width:2" d="M244,897 l38,21 53,-93 -38,-21 -53,93z" />
<path style="fill:#000;stroke:#000;stroke-width:2" d="M80,716 l21,38 93,-53 -21,-38 -93,53z" />
<path style="fill:#000;stroke:#000;stroke-width:2" d="M101,244 l-21,38 93,53 21,-38 -93,-53z" />
<path style="fill:#000;stroke:#000;stroke-width:2" d="M282,80 l-38,21 53,93 38,-21 -53,-93z" />
<path style="fill:#000;stroke:#000;stroke-width:2" d="M754,101 l-38,-21 -53,93 38,21 53,-93z" />
<path style="fill:#000;stroke:#000;stroke-width:2" d="M918,282 l-21,-38 -93,53 21,38 93,-53z" />
<path style="fill:#fff;stroke:#000;stroke-width:2" d="M478,970 l42,0 0,-107 -42,0 0,107z" />
<path style="fill:#fff;stroke:#000;stroke-width:2" d="M28,478 l0,42 107,0 0,-42 -107,0z" />
<path style="fill:#fff;stroke:#000;stroke-width:2" d="M520,28 l-42,0 0,107 42,0 0,-107z" />
<path style="fill:#fff;stroke:#000;stroke-width:2" d="M970,520 l0,-42 -107,0 0,42 107,0z" />

</svg>
