<?xml version="1.0" encoding="utf-8" standalone="no"?><!DOCTYPE svg PUBLIC "-//W3C//DTD SVG 1.1//EN" "http://www.w3.org/Graphics/SVG/1.1/DTD/svg11-flat-20030114.dtd"><svg width="998" height="999" version="1.1" xmlns="http://www.w3.org/2000/svg" xmlns:xlink="http://www.w3.org/1999/xlink">

<circle style="fill:#000" cx="498" cy="499" r="469" />
<path style="fill:#000" d="M46,377 l0,0 -16,122 -2,0 16,-122 0,-1 0,1 0,-1z" />
<path style="fill:#000" d="M93,265 l0,0 -47,112 -2,-1 47,-112 0,-1 0,1 0,-1 0,0z" />
<path style="fill:#000" d="M167,167 l0,0 -74,98 -2,-2 74,-97 1,-1 -1,1 0,-1 1,0z" />
<path style="fill:#000" d="M264,93 l0,0 -97,74 -1,-2 96,-74 1,0 -1,0 0,0 1,0z" />
<path style="fill:#000" d="M377,46 l0,0 -113,47 -1,-2 113,-47 1,0 -1,0 1,0z" />
<path style="fill:#000" d="M499,30 l0,0 -122,16 0,-2 122,-16 0,0 0,0 0,0 0,0z" />
<path style="fill:#000" d="M620,46 l0,0 -121,-16 0,-2 121,16 1,0 -1,0 1,0z" />
<path style="fill:#000" d="M732,93 l1,0 -113,-47 1,-2 112,47 1,0 -1,0 1,0 0,0z" />
<path style="fill:#000" d="M830,167 l0,0 -98,-74 2,-2 97,74 1,1 -1,-1 1,0 0,1z" />
<path style="fill:#000" d="M905,265 l0,0 -75,-98 2,-1 75,97 0,1 0,-1 0,0 0,1z" />
<path style="fill:#000" d="M951,377 l0,0 -46,-112 2,-1 46,112 0,1 0,-1 0,1z" />
<path style="fill:#000" d="M967,499 l0,0 -16,-122 2,0 16,122 0,0 0,0 0,0 0,0z" />
<path style="fill:#000" d="M951,621 l0,0 16,-122 2,0 -16,122 0,1 0,-1 0,1z" />
<path style="fill:#000" d="M905,733 l0,0 46,-112 2,1 -46,112 0,1 0,-1 0,1 0,0z" />
<path style="fill:#000" d="M830,831 l0,0 75,-98 2,2 -75,97 -1,1 1,-1 0,1 -1,0z" />
<path style="fill:#000" d="M733,905 l-1,0 98,-74 1,2 -97,74 -1,0 1,0 0,0 -1,0z" />
<path style="fill:#000" d="M620,952 l0,0 113,-47 0,2 -112,47 -1,0 1,0 -1,0z" />
<path style="fill:#000" d="M499,968 l0,0 121,-16 0,2 -121,16 0,0 0,0 0,0 0,0z" />
<path style="fill:#000" d="M377,952 l0,0 122,16 0,2 -122,-16 -1,0 1,0 -1,0z" />
<path style="fill:#000" d="M264,905 l0,0 113,47 -1,2 -113,-47 -1,0 1,0 -1,0 0,0z" />
<path style="fill:#000" d="M167,831 l0,0 97,74 -2,2 -96,-74 -1,-1 1,1 -1,0 0,-1z" />
<path style="fill:#000" d="M93,733 l0,0 74,98 -2,1 -74,-97 0,-1 0,1 0,0 0,-1z" />
<path style="fill:#000" d="M46,621 l0,0 47,112 -2,1 -47,-112 0,-1 0,1 0,-1z" />
<path style="fill:#000" d="M30,499 l0,0 16,122 -2,0 -16,-122 0,0 0,0 0,0 0,0z" />
<path style="fill:#e5e5e5;stroke:#000;stroke-width:2" d="M679,89 l230,229 7,23 0,318 -7,21 -230,230 -21,7 -318,0 -22,-7 -230,-230 -5,-21 0,-318 5,-23 230,-229 22,-6 318,0 21,6z" />
<circle style="fill:#7f7f7f;stroke:#000;stroke-width:2" cx="498" cy="499" r="392" />
<path style="fill:#b2b2b2;stroke:#000;stroke-width:2" d="M443,55 l0,83 -78,21 -72,38 -61,52 -48,66 -34,73 -15,79 2,82 20,78 36,71 50,62 64,51 74,33 78,19 79,0 80,-19 73,-33 63,-51 50,-62 36,-71 21,-78 2,-82 -16,-79 -33,-73 -49,-66 -60,-52 -73,-38 -77,-21 0,-83 -112,0z" />
<circle style="fill:#7f7f7f" cx="499" cy="499" r="313" />
<circle style="fill:#b2b2b2" cx="498" cy="499" r="298" />
<circle style="fill:#000;stroke:#000;stroke-width:2" cx="499" cy="499" r="271" />
<circle style="fill:#ff0;stroke:#000;stroke-width:2" cx="498" cy="499" r="242" />

</svg>
