<?xml version="1.0" encoding="utf-8" standalone="no"?><!DOCTYPE svg PUBLIC "-//W3C//DTD SVG 1.1//EN" "http://www.w3.org/Graphics/SVG/1.1/DTD/svg11-flat-20030114.dtd"><svg width="999" height="857" version="1.1" xmlns="http://www.w3.org/2000/svg" xmlns:xlink="http://www.w3.org/1999/xlink">

<path style="fill:#7f7fff;stroke:#000;stroke-width:2" d="M970,344 l0,443 -631,0 0,-443 631,0z" />
<path style="fill:#7f7fff;stroke:#000;stroke-width:2" d="M970,282 l-631,-128 0,190 631,0 0,-62z" />
<path style="fill:#4c4ccc;stroke:#000;stroke-width:2" d="M339,787 l-44,-22 0,-632 44,21 0,633z" />
<path style="fill:#7f7fff" d="M28,795 l0,-733 19,-20 25,-8 32,-4 9,0 8,0 31,4 24,8 19,17 1,3 0,733 -20,22 -24,8 -31,4 -8,0 -9,0 -32,-4 -25,-8 -19,-19 0,-3z" />
<path style="fill:#a6a6ff" d="M60,795 l0,-23 0,-23 0,-23 0,-664 15,-24 27,-10 5,0 6,0 5,0 28,8 18,19 1,3 0,4 0,23 0,46 0,45 -1,46 0,46 0,137 0,184 0,45 1,46 0,46 0,46 -1,30 -18,19 -28,8 -5,0 -6,0 -28,-8 -18,-19 -1,-7z" />
<path style="fill:#ccf" d="M90,795 l0,-733 10,-27 13,-5 19,19 1,13 0,733 -9,28 -11,6 -21,-21 -2,-13z" />
<path style="fill:none;stroke:#000;stroke-width:2" d="M28,795 l0,-733 19,-20 25,-8 32,-4 9,0 8,0 31,4 24,8 19,17 1,3 0,733 -20,22 -24,8 -31,4 -8,0 -9,0 -32,-4 -25,-8 -19,-19 0,-3" />
<path style="fill:none;stroke:#000;stroke-width:2" d="M931,273 l0,4 0,4 0,5 0,4 0,4 0,5 0,4 0,5 0,4 0,5 0,5 0,4 0,5 0,4 0,5 0,4" />
<path style="fill:none;stroke:#000;stroke-width:2" d="M891,265 l0,5 0,5 0,5 0,5 0,5 0,5 0,5 0,5 0,5 0,5 0,5 0,5 0,5 0,4 0,5 0,5" />
<path style="fill:none;stroke:#000;stroke-width:2" d="M851,258 l0,5 0,5 0,6 0,5 0,5 0,6 0,5 0,5 0,6 0,5 0,6 0,5 0,6 0,5 0,6 0,5" />
<path style="fill:none;stroke:#000;stroke-width:2" d="M812,250 l0,6 0,6 0,5 0,6 0,6 0,6 0,6 0,6 0,6 0,6 0,6 0,6 0,6 0,6 0,5 0,6" />
<path style="fill:none;stroke:#000;stroke-width:2" d="M772,241 l0,6 0,7 0,6 0,7 0,6 0,6 0,7 0,7 0,6 0,7 0,6 0,7 0,6 0,7 0,6 0,6" />
<path style="fill:none;stroke:#000;stroke-width:2" d="M733,233 l0,7 0,7 0,7 0,7 0,6 0,7 0,7 0,7 0,7 0,7 0,7 0,7 0,7 0,7 0,8 0,6" />
<path style="fill:none;stroke:#000;stroke-width:2" d="M693,226 l0,7 0,7 0,8 0,7 0,8 0,7 0,8 0,7 0,8 0,7 0,7 0,8 0,7 0,8 0,7 0,7" />
<path style="fill:none;stroke:#000;stroke-width:2" d="M654,218 l0,8 0,8 0,7 0,8 0,8 0,8 0,8 0,8 0,8 0,7 0,8 0,8 0,8 0,8 0,8 0,8" />
<path style="fill:none;stroke:#000;stroke-width:2" d="M614,211 l0,8 0,8 0,8 0,9 0,8 0,8 0,8 0,9 0,8 0,9 0,8 0,9 0,8 0,8 0,9 0,8" />
<path style="fill:none;stroke:#000;stroke-width:2" d="M574,203 l0,9 0,8 0,9 0,9 0,8 0,9 0,9 0,9 0,9 0,9 0,9 0,9 0,9 0,9 0,9 0,8" />
<path style="fill:none;stroke:#000;stroke-width:2" d="M535,194 l0,9 0,9 0,9 0,10 0,9 0,10 0,9 0,9 0,10 0,9 0,10 0,9 0,10 0,9 0,10 0,9" />
<path style="fill:none;stroke:#000;stroke-width:2" d="M495,186 l0,10 0,10 0,10 0,10 0,9 0,10 0,10 0,10 0,10 0,10 0,10 0,10 0,10 0,10 0,9 0,10" />
<path style="fill:none;stroke:#000;stroke-width:2" d="M458,179 l-1,10 0,10 0,10 0,11 -1,10 0,10 0,11 0,10 0,10 0,11 0,10 1,10 0,11 0,10 0,11 1,10" />
<path style="fill:none;stroke:#000;stroke-width:2" d="M416,171 l0,11 0,10 0,11 0,11 0,10 0,11 0,11 0,11 0,11 0,11 0,11 0,11 0,10 0,11 0,11 0,11" />
<path style="fill:none;stroke:#000;stroke-width:2" d="M378,162 l0,11 0,11 -1,12 0,11 0,11 0,12 0,11 0,12 0,12 0,11 0,12 0,11 0,11 1,12 0,11 0,11" />
<path style="fill:#6565e5;stroke:#000;stroke-width:2" d="M322,471 l-126,0 0,279 126,0 0,-279z" />
<path style="fill:#999;stroke:#000;stroke-width:2" d="M339,154 l-44,-21 634,127 41,22 -631,-128z" />
<path style="fill:#f0e808" d="M793,398 l0,316 -184,0 0,-316 184,0z" />
<path style="fill:#e3d40f" d="M705,398 l0,316 -93,0 0,-316 93,0z" />
<path style="fill:#d4bd17" d="M636,398 l0,316 -221,0 0,-316 221,0z" />
<path style="fill:#00b200;stroke:#000;stroke-width:2" d="M663,714 l0,-32 -168,0 0,32 168,0z" />
<path style="fill:#ffff7f" d="M895,397 l-106,0 0,317 106,0 0,-317z" />
<path style="fill:#b2b2b2;stroke:#000;stroke-width:2" d="M816,588 l43,0 8,-5 5,-10 3,-8 2,-10 2,-11 0,-6 1,-6 0,-7 -1,-12 -1,-13 -2,-11 -3,-9 -2,-8 -6,-8 -4,-2 -2,-1 -43,0 -9,5 -5,10 -2,9 -3,10 -1,11 -1,7 0,6 0,6 0,13 2,11 1,11 3,9 3,8 6,8 3,2 3,1z" />
<ellipse style="fill:#f2f2f2;stroke:#000;stroke-width:2" cx="816" cy="524" rx="21" ry="63" />
<ellipse style="fill:#000;stroke:#000;stroke-width:2" cx="817" cy="524" rx="16" ry="48" />
<path style="fill:#c00" d="M827,520 l-2,-11 0,-11 -1,-10 -8,-6 -13,-2 -13,-1 -16,-2 -17,-1 -16,-1 -14,-1 -10,-1 -9,-1 -15,-2 -10,-1 -10,-1 -10,-1 -9,-1 -10,-1 -8,0 -6,0 -7,2 0,1 10,5 11,3 11,4 7,6 1,2 11,2 10,2 12,3 11,2 10,3 9,3 1,2 -90,0 0,2 9,5 11,3 12,3 13,3 11,3 10,1 5,0 30,0 -6,6 -11,4 -12,3 -15,1 -15,1 -14,-1 -12,0 -9,0 -10,-1 -12,0 -12,2 -6,2 -9,4 17,2 13,1 11,2 14,2 10,2 10,2 10,0 30,0 -9,6 -6,2 -5,8 -9,5 -9,2 -5,2 11,3 9,1 11,1 6,0 5,0 6,0 10,0 11,-1 9,-3 8,-5 7,-5 9,-6 1,-1 11,0 15,1 11,0 1,-2 13,0 3,-9 2,-3 1,-1 0,-32z" />
<path style="fill:#ed9900" d="M825,522 l-5,-7 -2,-11 2,-10 1,-3 -1,-3 -8,-3 -10,-1 -11,-1 -12,-1 -10,-1 -10,-1 -12,-2 -9,0 -3,-1 -4,0 -8,1 0,1 4,1 -21,0 -12,0 -5,0 -3,0 7,2 14,4 11,3 8,3 9,4 7,5 0,1 4,0 0,0 -10,2 -11,3 -13,6 -14,4 -11,2 -1,1 18,0 10,0 10,0 9,1 12,0 3,1 1,2 0,2 -9,3 -2,0 -12,4 -16,1 -12,0 -2,0 1,3 8,2 7,4 -1,2 -2,1 1,1 2,1 -11,0 7,3 6,3 7,6 2,2 8,2 11,1 2,0 0,1 -4,8 0,0 0,0 9,-4 10,-3 10,-1 10,-2 9,-1 11,0 10,-2 9,-4 5,-3 1,-3 -4,-12 -2,-9 2,-4 5,-4z" />
<path style="fill:#ff0" d="M823,524 l-6,-8 -3,-6 2,-10 3,-7 0,-3 -3,-2 -47,-6 -38,-2 11,3 8,2 11,4 3,3 1,1 -1,2 -8,3 -4,1 12,2 12,1 9,1 1,0 0,1 -9,4 -9,3 -12,1 -17,1 -13,1 -3,0 12,3 9,1 9,2 10,2 9,2 10,1 2,0 -1,3 -1,2 -11,3 -9,0 -9,-1 -10,-1 -1,0 0,1 6,1 -8,6 -9,3 -11,1 -13,0 -7,-1 -3,0 3,1 9,2 11,3 10,2 10,1 8,1 0,5 -7,6 -7,8 -6,6 -1,1 9,-5 9,-3 8,-3 16,-3 13,-1 16,0 9,-1 11,-4 3,-2 2,-4 -6,-11 -2,-4 -1,-5 3,-4 6,-4z" />
<path style="fill:#007f00;stroke:#000;stroke-width:2" d="M495,682 l168,0 -253,-168 0,106 85,62z" />
<path style="fill:#004c00;stroke:#000;stroke-width:2" d="M495,682 l-85,-62 0,47 59,47 26,0 0,-32z" />
<path style="fill:#999;stroke:#000;stroke-width:2" d="M437,397 l-27,0 0,177 27,0 0,-177z" />
<path style="fill:#999;stroke:#000;stroke-width:2" d="M463,397 l-26,0 0,196 26,0 0,-196z" />
<path style="fill:#999;stroke:#000;stroke-width:2" d="M490,397 l-27,0 0,215 27,0 0,-215z" />
<path style="fill:#999;stroke:#000;stroke-width:2" d="M522,397 l-32,0 0,234 32,0 0,-234z" />
<path style="fill:#999;stroke:#000;stroke-width:2" d="M552,397 l-30,0 0,255 30,0 0,-255z" />
<path style="fill:#999;stroke:#000;stroke-width:2" d="M584,397 l-30,0 0,275 30,0 0,-275z" />
<path style="fill:#e5e5e5" d="M429,397 l-9,0 0,177 9,0 0,-177z" />
<path style="fill:#e5e5e5" d="M454,397 l-8,0 0,196 8,0 0,-196z" />
<path style="fill:#e5e5e5" d="M480,397 l-7,0 0,215 7,0 0,-215z" />
<path style="fill:#e5e5e5" d="M510,397 l-9,0 0,234 9,0 0,-234z" />
<path style="fill:#e5e5e5" d="M542,397 l-11,0 0,255 11,0 0,-255z" />
<path style="fill:#e5e5e5" d="M574,397 l-11,0 0,275 11,0 0,-275z" />
<path style="fill:none;stroke:#000;stroke-width:2" d="M895,397 l-485,0 0,317 485,0 0,-317" />
<path style="fill:#000" d="M895,714 l0,-317 -483,0 0,8 475,0 0,309 8,0z" />
<path style="fill:#ccc" d="M412,397 l0,317 483,0 -8,-6 -467,0 0,-303 -8,-8z" />
<path style="fill:none;stroke:#000;stroke-width:2" d="M322,613 l-127,0" />
<path style="fill:none;stroke:#000;stroke-width:2" d="M260,471 l0,279" />
<path style="fill:none;stroke:#000;stroke-width:2" d="M196,196 l-4,-11 -7,-6 -9,-5 -11,-5 -13,-3 -15,-3 -16,-1 -8,0 -14,0 -14,1 -12,3 -12,3 -10,4 -8,4 -9,7 -2,2" />
<path style="fill:none;stroke:#000;stroke-width:2" d="M196,348 l-1,-2 -10,-7 -9,-3 -11,-3 -13,-1 -15,-2 -16,-1 -15,0 -14,1 -13,1 -12,2 -11,1 -9,3 -11,4 -4,3" />
<path style="fill:none;stroke:#000;stroke-width:2" d="M28,516 l0,1 1,2 9,3 9,2 12,2 13,2 15,1 17,0 16,0 13,0 13,-1 12,-1 11,-1 9,-2 11,-2 5,-2" />
<path style="fill:none;stroke:#000;stroke-width:2" d="M28,663 l4,9 6,6 9,5 12,4 13,4 15,2 17,2 9,0 13,0 14,-2 12,-2 12,-3 10,-3 8,-4 9,-8 3,-2" />

</svg>
