<?xml version="1.0" encoding="utf-8" standalone="no"?><!DOCTYPE svg PUBLIC "-//W3C//DTD SVG 1.1//EN" "http://www.w3.org/Graphics/SVG/1.1/DTD/svg11-flat-20030114.dtd"><svg width="998" height="663" version="1.1" xmlns="http://www.w3.org/2000/svg" xmlns:xlink="http://www.w3.org/1999/xlink">

<path style="fill:#366;stroke:#000;stroke-width:2" d="M139,533 l-100,0 0,102 100,0 0,-102z" />
<path style="fill:#366;stroke:#000;stroke-width:2" d="M207,112 l-17,0 0,114 17,0 0,-114z" />
<path style="fill:#033" d="M959,567 l-741,0 0,22 741,0 0,-22z" />
<path style="fill:#366" d="M970,96 l0,-68 -139,0 0,68 139,0z" />
<path style="fill:#366" d="M207,96 l0,471 763,0 0,-471 -763,0z" />
<path style="fill:#407373" d="M970,120 l-763,0 0,422 763,0 0,-422z" />
<path style="fill:#407373" d="M963,96 l0,-68 -127,0 0,68 127,0z" />
<path style="fill:#4c7f7f" d="M955,96 l0,-68 -109,0 0,68 109,0z" />
<path style="fill:#4c7f7f" d="M970,147 l-763,0 0,369 763,0 0,-369z" />
<path style="fill:#598c8c" d="M970,171 l-763,0 0,321 763,0 0,-321z" />
<path style="fill:#598c8c" d="M948,96 l0,-68 -94,0 0,68 94,0z" />
<path style="fill:#699" d="M940,96 l0,-68 -79,0 0,68 79,0z" />
<path style="fill:#699" d="M970,197 l-763,0 0,268 763,0 0,-268z" />
<path style="fill:#73a6a6" d="M970,222 l-763,0 0,219 763,0 0,-219z" />
<path style="fill:#73a6a6" d="M933,96 l0,-68 -64,0 0,68 64,0z" />
<path style="fill:#7fb2b2" d="M925,96 l0,-68 -51,0 0,68 51,0z" />
<path style="fill:#7fb2b2" d="M970,247 l-763,0 0,169 763,0 0,-169z" />
<path style="fill:#8cbfbf" d="M970,273 l-763,0 0,117 763,0 0,-117z" />
<path style="fill:#8cbfbf" d="M918,96 l0,-68 -34,0 0,68 34,0z" />
<path style="fill:#9cc" d="M910,96 l0,-68 -21,0 0,68 21,0z" />
<path style="fill:#9cc" d="M970,297 l-763,0 0,68 763,0 0,-68z" />
<path style="fill:#9cc" d="M970,589 l-897,0 0,46 897,0 0,-46z" />
<path style="fill:none;stroke:#000;stroke-width:2" d="M970,96 l-763,0 0,471 763,0 0,-471" />
<path style="fill:none;stroke:#000;stroke-width:2" d="M970,96 l0,-68 -139,0 0,68 139,0" />
<path style="fill:#699" d="M970,601 l-897,0 0,23 897,0 0,-23z" />
<path style="fill:none;stroke:#000;stroke-width:2" d="M970,589 l-897,0 0,46 897,0 0,-46" />
<path style="fill:#699;stroke:#000;stroke-width:2" d="M280,589 l-5,-62 -17,0 -6,62 28,0z" />
<path style="fill:#699;stroke:#000;stroke-width:2" d="M925,589 l-6,-62 -17,0 -5,62 28,0z" />
<path style="fill:#366" d="M207,444 l-23,0 0,23 -77,0 0,-23 -11,-17 -12,17 0,23 -56,0 0,39 56,0 0,21 12,17 11,-17 0,-21 77,0 0,21 23,0 0,-83z" />
<path style="fill:#699" d="M207,456 l-23,0 0,17 -77,0 0,-17 -11,-12 -12,12 0,17 -56,0 0,28 56,0 0,15 12,11 11,-11 0,-15 77,0 0,15 23,0 0,-60z" />
<path style="fill:#9cc" d="M207,469 l-23,0 0,9 -77,0 0,-9 -11,-8 -12,8 0,9 -56,0 0,17 56,0 0,10 12,5 11,-5 0,-10 77,0 0,10 23,0 0,-36z" />
<path style="fill:none;stroke:#000;stroke-width:2" d="M207,444 l-23,0 0,23 -77,0 0,-23 -11,-17 -12,17 0,23 -56,0 0,39 56,0 0,21 12,17 11,-17 0,-21 77,0 0,21 23,0 0,-83" />
<path style="fill:#9cc;stroke:#000;stroke-width:2" d="M162,461 l-101,0 0,100 101,0 0,-100z" />
<path style="fill:none;stroke:#033;stroke-width:2" d="M342,101 l0,460" />
<path style="fill:none;stroke:#cff;stroke-width:2" d="M397,377 l0,-91 -38,0" />
<path style="fill:none;stroke:#366;stroke-width:2" d="M397,377 l-38,0 0,-91" />
<path style="fill:none;stroke:#9cc;stroke-width:2" d="M397,231 l0,-67 -38,0" />
<path style="fill:none;stroke:#033;stroke-width:2" d="M397,231 l-38,0 0,-67" />
<path style="fill:#366" d="M397,231 l-38,0 0,6 38,0 0,-6z" />
<path style="fill:#699" d="M791,567 l-675,0 0,17 675,0 0,-17z" />
<path style="fill:#cff" d="M791,574 l-675,0 0,4 675,0 0,-4z" />
<path style="fill:none;stroke:#000;stroke-width:2" d="M791,567 l-675,0 0,17 675,0 0,-17" />
<path style="fill:#699;stroke:#000;stroke-width:2" d="M409,561 l-32,0 0,28 32,0 0,-28z" />
<path style="fill:#699" d="M482,561 l-34,0 0,28 34,0 0,-28z" />
<path style="fill:#699" d="M556,561 l-35,0 0,28 35,0 0,-28z" />
<path style="fill:#699" d="M627,561 l-32,0 0,28 32,0 0,-28z" />
<path style="fill:#699;stroke:#000;stroke-width:2" d="M701,561 l-34,0 0,28 34,0 0,-28z" />
<path style="fill:#cff" d="M409,572 l-32,0 0,6 32,0 0,-6z" />
<path style="fill:#cff" d="M482,572 l-34,0 0,6 34,0 0,-6z" />
<path style="fill:#cff" d="M556,572 l-35,0 0,6 35,0 0,-6z" />
<path style="fill:#cff" d="M627,572 l-32,0 0,6 32,0 0,-6z" />
<path style="fill:#cff" d="M701,572 l-34,0 0,6 34,0 0,-6z" />
<path style="fill:none;stroke:#000;stroke-width:2" d="M627,561 l-32,0 0,28 32,0 0,-28" />
<path style="fill:none;stroke:#000;stroke-width:2" d="M556,561 l-35,0 0,28 35,0 0,-28" />
<path style="fill:none;stroke:#000;stroke-width:2" d="M482,561 l-34,0 0,28 34,0 0,-28" />
<path style="fill:#033" d="M79,510 l-12,0 0,11 12,0 0,-11z" />
<path style="fill:none;stroke:#000;stroke-width:2" d="M184,467 l0,39" />
<path style="fill:#033" d="M610,73 l-6,0 0,23 6,0 0,-23z" />
<path style="fill:#033" d="M527,73 l-6,0 0,23 6,0 0,-23z" />

</svg>
