<?xml version="1.0" encoding="utf-8" standalone="no"?><!DOCTYPE svg PUBLIC "-//W3C//DTD SVG 1.1//EN" "http://www.w3.org/Graphics/SVG/1.1/DTD/svg11-flat-20030114.dtd"><svg width="999" height="661" version="1.1" xmlns="http://www.w3.org/2000/svg" xmlns:xlink="http://www.w3.org/1999/xlink">

<path style="fill:#9cc;stroke:#000;stroke-width:2" d="M567,505 l-539,49 0,49 539,-49 0,-49z" />
<path style="fill:#033;stroke:#000;stroke-width:2" d="M812,535 l-19,-25 -428,14 -270,24 281,24 436,-37z" />
<path style="fill:#366" d="M382,535 l449,-25 41,-15 36,-28 30,-40 21,-51 11,-54 0,-57 -11,-56 -21,-49 -30,-40 -36,-28 -41,-15 -449,-8 0,466z" />
<path style="fill:#3d7070" d="M382,512 l462,-21 38,-15 32,-24 26,-38 19,-45 11,-49 0,-53 -11,-49 -19,-45 -26,-36 -32,-26 -38,-14 -462,-5 0,420z" />
<path style="fill:#477a7a" d="M382,491 l477,-20 32,-12 29,-24 24,-32 17,-40 9,-45 0,-47 -9,-45 -17,-40 -24,-32 -29,-23 -32,-13 -477,-5 0,378z" />
<path style="fill:#528585" d="M382,469 l490,-17 29,-11 26,-21 21,-28 13,-36 9,-40 0,-41 -9,-40 -13,-36 -21,-28 -26,-21 -29,-9 -490,-6 0,334z" />
<path style="fill:#5c8f8f" d="M382,446 l505,-15 23,-9 23,-17 17,-25 13,-32 7,-34 0,-35 -7,-34 -13,-33 -17,-24 -23,-17 -23,-9 -505,-4 0,288z" />
<path style="fill:#699" d="M382,424 l519,-12 20,-9 17,-13 15,-23 12,-27 5,-28 0,-30 -5,-30 -12,-25 -15,-22 -17,-15 -20,-8 -519,-2 0,244z" />
<path style="fill:#70a3a3" d="M382,403 l532,-11 17,-6 13,-13 13,-17 8,-23 5,-23 0,-24 -5,-24 -8,-21 -13,-17 -13,-14 -17,-5 -532,-4 0,202z" />
<path style="fill:#7aadad" d="M382,380 l547,-7 11,-6 11,-9 10,-14 5,-17 4,-18 0,-19 -4,-19 -7,-17 -8,-13 -11,-10 -11,-5 -547,-2 0,156z" />
<path style="fill:#85b8b8" d="M382,358 l560,-6 8,-4 7,-6 6,-11 3,-11 4,-13 0,-13 -4,-15 -3,-12 -6,-9 -7,-8 -8,-4 -560,-1 0,113z" />
<path style="fill:#8fc2c2" d="M382,337 l573,-4 4,-2 4,-6 3,-5 2,-8 2,-7 0,-10 -2,-7 -2,-8 -3,-5 -4,-4 -4,-2 -573,-2 0,70z" />
<path style="fill:#9cc" d="M382,314 l588,0 0,-2 0,-2 0,-1 0,-2 0,-4 0,-2 0,-4 0,-2 0,-3 0,-2 -588,0 0,24z" />
<path style="fill:none;stroke:#000;stroke-width:2" d="M382,535 l449,-25 41,-15 36,-28 30,-40 21,-51 11,-54 0,-57 -11,-56 -21,-49 -30,-40 -36,-28 -41,-15 -449,-8 0,466" />
<ellipse style="fill:#699;stroke:#000;stroke-width:2" cx="370" cy="302" rx="184" ry="233" />
<path style="fill:#699;stroke:#000;stroke-width:2" d="M371,622 l-276,-27 0,-49 276,26 0,50z" />
<path style="fill:#9cc;stroke:#000;stroke-width:2" d="M812,535 l-539,49 0,49 539,-49 0,-49z" />
<path style="fill:none;stroke:#9cc;stroke-width:2" d="M497,426 l21,-46 11,-51 0,-52 -11,-51 -21,-48 -30,-35 -36,-27 -39,-15 -44,0 -39,13 -36,29" />
<ellipse style="fill:#366" cx="364" cy="456" rx="48" ry="68" />
<ellipse style="fill:#699" cx="369" cy="456" rx="42" ry="68" />
<ellipse style="fill:none;stroke:#366;stroke-width:2" cx="364" cy="456" rx="48" ry="68" />
<path style="fill:#699;stroke:#366;stroke-width:2" d="M676,273 l-60,0 0,90 60,-5 0,-85z" />
<path style="fill:#9cc;stroke:#366;stroke-width:2" d="M597,273 l19,0 0,90 -19,-5 0,-85z" />
<path style="fill:#033" d="M597,39 l-11,0 0,355 11,0 0,-355z" />
<path style="fill:#033" d="M412,28 l0,11 191,0 0,-11 -191,0z" />
<path style="fill:#033" d="M431,39 l-11,0 0,30 11,0 0,-30z" />
<path style="fill:#699" d="M505,156 l-49,0 0,24 49,0 0,-24z" />
<path style="fill:none;stroke:#cff;stroke-width:2" d="M279,175 l0,-25 -50,0" />
<path style="fill:none;stroke:#cff;stroke-width:2" d="M505,180 l0,-24 -49,0" />
<path style="fill:none;stroke:#033;stroke-width:2" d="M279,175 l-50,0 0,-25" />
<path style="fill:none;stroke:#033;stroke-width:2" d="M505,180 l-49,0 0,-24" />
<path style="fill:#7f7f7f;stroke:#000;stroke-width:2" d="M744,480 l-25,0 -18,44 18,11 31,6 19,-17 0,-19 -25,-25z" />
<path style="fill:#b2b2b2;stroke:#000;stroke-width:2" d="M744,501 l-43,4 0,30 43,-4 0,-30z" />
<path style="fill:#7f7f7f;stroke:#000;stroke-width:2" d="M695,486 l-24,0 -19,43 19,12 30,5 18,-17 0,-19 -24,-24z" />
<path style="fill:#b2b2b2;stroke:#000;stroke-width:2" d="M695,507 l-43,3 0,31 43,-2 0,-32z" />
<path style="fill:#7f7f7f;stroke:#000;stroke-width:2" d="M646,491 l-24,0 -19,44 19,11 30,8 19,-19 0,-19 -25,-25z" />
<path style="fill:#b2b2b2;stroke:#000;stroke-width:2" d="M640,514 l-43,2 0,32 43,-4 0,-30z" />
<path style="fill:#7f7f7f;stroke:#000;stroke-width:2" d="M591,499 l-24,0 -19,42 19,13 30,5 19,-18 0,-17 -25,-25z" />
<path style="fill:#b2b2b2;stroke:#000;stroke-width:2" d="M279,499 l88,-8 6,-1 5,-6 4,-6 4,-9 2,-10 0,-9 -2,-9 -4,-8 -4,-7 -5,-4 -6,-4 -107,8 19,73z" />
<path style="fill:#7f7f7f;stroke:#000;stroke-width:2" d="M205,597 l60,-9 17,-6 15,-10 12,-13 9,-17 4,-18 0,-19 -13,-51 -27,-25 -17,-3 -17,0 -43,5 0,166z" />
<path style="fill:#ccc;stroke:#000;stroke-width:2" d="M190,589 l15,4 17,0 17,-4 15,-9 11,-15 10,-15 4,-19 0,-19 -14,-53 -26,-22 -17,-6 -17,0 -15,6 -27,22 -13,53 0,19 4,19 9,15 12,15 15,9z" />
<path style="fill:none;stroke:#366;stroke-width:2" d="M371,371 l0,-258" />
<path style="fill:none;stroke:#033;stroke-width:2" d="M395,216 l-5,-6 0,-24 5,-6" />
<path style="fill:none;stroke:#033;stroke-width:2" d="M358,216 l-6,-6 0,-24 6,-6" />
<path style="fill:#333" d="M510,273 l-22,0 0,36 22,0 0,-36z" />
<path style="fill:none;stroke:#000;stroke-width:2" d="M210,469 l-54,-13 -6,-14 19,-11 36,0" />
<path style="fill:none;stroke:#000;stroke-width:2" d="M572,535 l-43,-11 -11,-25 6,-43 48,-44 31,-54" />
<path style="fill:none;stroke:#000;stroke-width:2" d="M591,499 l-5,-19 0,-30 17,-43 43,-44" />
<path style="fill:#699;stroke:#000;stroke-width:2" d="M603,88 l-25,0 0,79 25,0 0,-79z" />
<path style="fill:#ccc" d="M401,88 l-61,0 0,30 61,0 0,-30z" />
<path style="fill:#ccc" d="M235,273 l-25,0 0,36 25,0 0,-36z" />
<path style="fill:#e5e5e5;stroke:#000;stroke-width:2" d="M224,486 l-49,0 0,68 49,5 0,-73z" />
<path style="fill:#b2b2b2;stroke:#000;stroke-width:2" d="M224,486 l19,0 0,68 -19,5 0,-73z" />

</svg>
