<?xml version="1.0" encoding="utf-8" standalone="no"?><!DOCTYPE svg PUBLIC "-//W3C//DTD SVG 1.1//EN" "http://www.w3.org/Graphics/SVG/1.1/DTD/svg11-flat-20030114.dtd"><svg width="567" height="999" version="1.1" xmlns="http://www.w3.org/2000/svg" xmlns:xlink="http://www.w3.org/1999/xlink">

<path style="fill:#e5e5e5" d="M539,420 l-511,0 0,550 511,0 0,-550z" />
<path style="fill:#b2b2b2;stroke:#000;stroke-width:2" d="M361,184 l80,49 0,70 -80,0 0,117 -156,0 0,-117 -79,0 0,-60 79,-59 0,-117 79,-7 4,-12 7,-9 10,-8 11,-3 13,0 12,3 9,8 7,9 4,12 0,124z" />
<circle style="fill:#666;stroke:#000;stroke-width:2" cx="244" cy="67" r="39" />
<path style="fill:none;stroke:#000;stroke-width:2" d="M539,420 l-511,0 0,550 511,0 0,-550" />
<path style="fill:none;stroke:#000;stroke-width:2" d="M361,303 l-156,0" />
<path style="fill:none;stroke:#000;stroke-width:2" d="M205,184 l156,0" />
<path style="fill:none;stroke:#000;stroke-width:2" d="M441,243 l-315,0" />
<path style="fill:#fff;stroke:#000;stroke-width:2" d="M290,578 l7,-9 0,-12 -7,-9 -13,0 -8,9 0,12 8,9 13,0z" />
<path style="fill:#fff;stroke:#000;stroke-width:2" d="M437,576 l7,-7 0,-14 -7,-7 -13,0 -8,7 0,14 8,7 13,0z" />
<path style="fill:#fff;stroke:#000;stroke-width:2" d="M363,578 l8,-9 0,-12 -8,-9 -13,0 -8,9 0,12 8,9 13,0z" />
<path style="fill:#fff;stroke:#000;stroke-width:2" d="M508,576 l10,-7 0,-14 -10,-7 -11,0 -9,7 0,14 9,7 11,0z" />
<path style="fill:#fff;stroke:#000;stroke-width:2" d="M141,576 l9,-7 0,-14 -9,-7 -12,0 -9,7 0,14 9,7 12,0z" />
<path style="fill:#fff;stroke:#000;stroke-width:2" d="M69,578 l8,-9 0,-12 -8,-9 -13,0 -8,9 0,12 8,9 13,0z" />
<path style="fill:#fff;stroke:#000;stroke-width:2" d="M214,576 l10,-7 0,-14 -10,-7 -11,0 -9,7 0,14 9,7 11,0z" />
<path style="fill:#ff0;stroke:#000;stroke-width:2" d="M539,916 l-511,0 0,24 511,0 0,-24z" />
<path style="fill:#cc1900" d="M523,637 l-24,196 -432,0 -24,-196 480,0z" />
<path style="fill:#cc1900;stroke:#000;stroke-width:2" d="M499,833 l-7,29 -6,26 -4,19 -2,5 -5,-1 -23,-16 -17,-13 -21,15 -23,15 -25,-13 -22,-14 -7,-3 -23,15 -30,15 -23,-14 -26,-17 -25,14 -25,14 -10,3 -6,-1 -22,-20 -10,-8 -6,-1 -24,21 -21,9 -7,-27 -6,-26 -5,-24 -1,-2 0,0 432,0z" />
<path style="fill:#004ccc;stroke:#000;stroke-width:2" d="M523,616 l0,3 0,3 0,4 0,10 0,1 -480,0 0,-1 0,-1 0,-3 0,-16 26,5 17,1 29,-5 11,-1 29,5 10,1 29,-5 11,-1 29,5 11,1 29,-5 10,-1 28,2 26,5 23,-7 6,-1 5,0 29,7 29,-4 31,-2 25,7 27,-5 10,-2z" />
<path style="fill:#bd1c00" d="M523,637 l-22,184 -436,0 -22,-184 480,0z" />
<path style="fill:#ab1f00" d="M523,637 l-20,173 -440,0 -20,-173 480,0z" />
<path style="fill:#9c2400" d="M523,637 l-20,162 -441,0 -19,-162 480,0z" />
<path style="fill:#8c260d" d="M523,637 l-18,148 -443,0 -19,-148 480,0z" />
<path style="fill:#7d291c" d="M523,637 l-16,137 -447,0 -17,-137 480,0z" />
<path style="fill:#6b2b2b" d="M523,637 l-15,126 -450,0 -15,-126 480,0z" />
<path style="fill:#5c303d" d="M523,637 l-13,115 -454,0 -13,-115 480,0z" />
<path style="fill:#4c334c" d="M523,637 l-11,103 -458,0 -11,-103 480,0z" />
<path style="fill:#3d365c" d="M523,637 l-11,92 -458,0 -11,-92 480,0z" />
<path style="fill:#2b386b" d="M523,637 l-9,81 -462,0 -9,-81 480,0z" />
<path style="fill:#1c3d7d" d="M523,637 l-7,69 -466,0 -7,-69 480,0z" />
<path style="fill:#0d408c" d="M523,637 l-5,58 -470,0 -5,-58 480,0z" />
<path style="fill:#00429c" d="M523,637 l-3,47 -473,0 -4,-47 480,0z" />
<path style="fill:#0045ab" d="M523,637 l-3,36 -473,0 -4,-36 480,0z" />
<path style="fill:#004abd" d="M523,637 l-1,24 -477,0 -2,-24 480,0z" />
<path style="fill:#004ccc" d="M523,637 l0,13 -480,0 0,-13 480,0z" />
<path style="fill:none;stroke:#000;stroke-width:2" d="M523,637 l-24,196 -432,0 -24,-196" />
<path style="fill:none;stroke:#000;stroke-width:2" d="M107,833 l-55,-128" />
<path style="fill:none;stroke:#000;stroke-width:2" d="M97,622 l87,211 -38,0 -88,-211" />
<path style="fill:none;stroke:#000;stroke-width:2" d="M175,622 l88,211 -39,0 -89,-211" />
<path style="fill:none;stroke:#000;stroke-width:2" d="M254,622 l88,211 -39,0 -89,-211" />
<path style="fill:none;stroke:#000;stroke-width:2" d="M333,622 l87,211 -38,0 -89,-211" />
<path style="fill:none;stroke:#000;stroke-width:2" d="M410,622 l89,211 -40,0 -88,-211" />
<path style="fill:none;stroke:#000;stroke-width:2" d="M508,759 l-58,-137" />
<path style="fill:none;stroke:#000;stroke-width:2" d="M518,689 l-28,-67" />

</svg>
