<?xml version="1.0" encoding="utf-8" standalone="no"?><!DOCTYPE svg PUBLIC "-//W3C//DTD SVG 1.1//EN" "http://www.w3.org/Graphics/SVG/1.1/DTD/svg11-flat-20030114.dtd"><svg width="659" height="999" version="1.1" xmlns="http://www.w3.org/2000/svg" xmlns:xlink="http://www.w3.org/1999/xlink">

<path style="fill:#666;stroke:#000;stroke-width:2" d="M612,923 l-518,0 0,38 518,0 0,-38z" />
<path style="fill:#ccc;stroke:#000;stroke-width:2" d="M631,961 l-556,0 0,9 556,0 0,-9z" />
<path style="fill:#ccc;stroke:#000;stroke-width:2" d="M631,914 l-556,0 0,9 556,0 0,-9z" />
<path style="fill:#ccc" d="M612,65 l-518,0 0,849 518,0 0,-849z" />
<path style="fill:#c7c7c7" d="M612,667 l-518,-355 0,602 518,0 0,-247z" />
<path style="fill:#c2c2c2" d="M612,703 l-518,-355 0,566 518,0 0,-211z" />
<path style="fill:#bdbdbd" d="M612,755 l-518,-354 0,513 518,0 0,-159z" />
<path style="fill:none;stroke:#000;stroke-width:2" d="M612,65 l-518,0 0,849 518,0 0,-849" />
<path style="fill:#999" d="M235,405 l-113,0 0,19 113,0 0,-19z" />
<path style="fill:#999" d="M329,744 l-226,0 0,19 226,0 0,-19z" />
<path style="fill:#999" d="M433,697 l-104,0 0,19 104,0 0,-19z" />
<path style="fill:none;stroke:#4c4c4c;stroke-width:2" d="M235,405 l-113,0 0,-113" />
<path style="fill:none;stroke:#4c4c4c;stroke-width:2" d="M433,697 l-104,0" />
<path style="fill:none;stroke:#4c4c4c;stroke-width:2" d="M329,744 l-226,0 0,-151" />
<path style="fill:#633;stroke:#000;stroke-width:2" d="M433,659 l160,0 0,226 -546,0 0,-19 527,0 0,-188 -141,0 0,-19z" />
<path style="fill:none;stroke:#c99;stroke-width:2" d="M443,669 l141,0 0,207 -528,0" />
<path style="fill:none;stroke:#e5e5e5;stroke-width:2" d="M235,405 l0,-113 -113,0" />
<path style="fill:none;stroke:#e5e5e5;stroke-width:2" d="M433,697 l0,-57 -104,0" />
<path style="fill:none;stroke:#e5e5e5;stroke-width:2" d="M329,744 l0,-151 -226,0" />
<path style="fill:none;stroke:#000;stroke-width:2" d="M28,895 l56,0 0,-38 -56,0" />
<path style="fill:none;stroke:#4c4c4c;stroke-width:2" d="M537,537 l-38,0 0,-38 -9,0 0,-56" />
<path style="fill:none;stroke:#000;stroke-width:2" d="M537,499 l9,0" />
<path style="fill:none;stroke:#e5e5e5;stroke-width:2" d="M490,443 l56,0 0,56" />
<path style="fill:none;stroke:#e5e5e5;stroke-width:2" d="M537,537 l0,-38" />
<path style="fill:#e5e5e5" d="M508,527 l0,-28 19,0 0,28 -19,0z" />
<path style="fill:none;stroke:#4c4c4c;stroke-width:2" d="M311,376 l0,10 -76,0" />
<path style="fill:none;stroke:#000;stroke-width:2" d="M367,179 l0,37 -151,0" />
<path style="fill:none;stroke:#000;stroke-width:2" d="M329,179 l0,37" />
<path style="fill:none;stroke:#000;stroke-width:2" d="M292,179 l0,37" />
<path style="fill:none;stroke:#000;stroke-width:2" d="M254,179 l0,37" />
<path style="fill:#fff;stroke:#000;stroke-width:2" d="M262,179 l11,-12 0,-15 -11,-11 -16,0 -11,11 0,15 11,12 16,0z" />
<path style="fill:#4c4c4c" d="M527,386 l-37,0 0,57 37,0 0,-57z" />
<path style="fill:#4c4c4c" d="M329,376 l0,-37 -56,0 0,37 56,0z" />
<path style="fill:#4c4c4c" d="M301,179 l0,-38 -19,0 0,38 19,0z" />
<path style="fill:#4c4c4c" d="M339,179 l0,-38 -19,0 0,38 19,0z" />
<path style="fill:#4c4c4c" d="M376,179 l0,-38 -18,0 0,38 18,0z" />
<path style="fill:#ccc" d="M263,150 l-19,0 0,10 19,0 0,-10z" />
<path style="fill:none;stroke:#f00;stroke-width:2" d="M254,169 l-10,-19" />
<path style="fill:#333" d="M518,113 l-75,0 0,179 75,0 0,-179z" />
<path style="fill:#525252" d="M510,113 l-60,0 0,179 60,0 0,-179z" />
<path style="fill:#737373" d="M503,113 l-47,0 0,179 47,0 0,-179z" />
<path style="fill:#919191" d="M497,113 l-34,0 0,179 34,0 0,-179z" />
<path style="fill:#b2b2b2" d="M490,113 l-19,0 0,179 19,0 0,-179z" />
<path style="fill:none;stroke:#000;stroke-width:2" d="M518,113 l-75,0 0,179 75,0 0,-179" />
<path style="fill:none;stroke:#7f7f7f;stroke-width:2" d="M173,94 l0,198" />
<path style="fill:none;stroke:#7f7f7f;stroke-width:2" d="M160,80 l0,212" />
<path style="fill:none;stroke:#fff;stroke-width:2" d="M471,80 l-311,0" />
<path style="fill:none;stroke:#fff;stroke-width:2" d="M471,94 l-298,0" />
<path style="fill:#633;stroke:#000;stroke-width:2" d="M490,113 l-19,0 0,-66 19,0 0,66z" />
<path style="fill:#633;stroke:#000;stroke-width:2" d="M499,28 l-38,0 0,19 38,0 0,-19z" />
<path style="fill:#999" d="M259,650 l-86,0 0,41 86,0 0,-41z" />
<path style="fill:#b2b2b2;stroke:#000;stroke-width:2" d="M425,904 l16,0 13,-7 7,-13 0,-15 -7,-14 7,-22 0,-42 -56,0 0,42 7,22 -7,14 0,15 7,13 13,7z" />
<path style="fill:#b2b2b2;stroke:#000;stroke-width:2" d="M520,904 l15,0 13,-7 7,-13 0,-15 -7,-14 7,-22 0,-42 -56,0 0,42 7,22 -7,14 0,15 7,13 14,7z" />
<path style="fill:#7f7f7f" d="M425,904 l16,0 13,-7 7,-13 0,-15 -7,-14 7,-22 -56,0 7,22 -7,14 0,15 7,13 13,7z" />
<path style="fill:#7f7f7f" d="M520,904 l15,0 13,-7 7,-13 0,-15 -7,-14 7,-22 -56,0 7,22 -7,14 0,15 7,13 14,7z" />
<circle style="fill:#b2b2b2" cx="438" cy="871" r="14" />
<circle style="fill:#b2b2b2" cx="532" cy="871" r="14" />
<path style="fill:#7f7f7f" d="M329,895 l0,-19 -37,-10 37,-18 0,-29 -37,-18 -38,0 -38,18 0,29 38,18 -38,10 0,19 113,0z" />
<path style="fill:#b2b2b2" d="M320,895 l0,-19 -32,-10 32,-18 0,-29 -32,-18 -30,0 -32,18 0,29 32,18 -32,10 0,19 94,0z" />
<path style="fill:#ccc" d="M301,895 l0,-19 -19,-10 19,-18 0,-29 -19,-18 -19,0 -19,18 0,29 19,18 -19,10 0,19 57,0z" />
<path style="fill:none;stroke:#000;stroke-width:2" d="M329,895 l0,-19 -37,-10 37,-18 0,-29 -37,-18 -38,0 -38,18 0,29 38,18 -38,10 0,19 113,0" />
<path style="fill:none;stroke:#000;stroke-width:2" d="M292,866 l-38,0" />
<path style="fill:none;stroke:#000;stroke-width:2" d="M329,876 l-113,0" />

</svg>
