<?xml version="1.0" encoding="utf-8" standalone="no"?><!DOCTYPE svg PUBLIC "-//W3C//DTD SVG 1.1//EN" "http://www.w3.org/Graphics/SVG/1.1/DTD/svg11-flat-20030114.dtd"><svg width="999" height="801" version="1.1" xmlns="http://www.w3.org/2000/svg" xmlns:xlink="http://www.w3.org/1999/xlink">

<path style="fill:#4c7f7f" d="M872,144 l98,0 0,-39 -98,0 0,39z" />
<path style="fill:#4c7f7f" d="M970,458 l0,-314 -39,0 0,314 39,0z" />
<path style="fill:#5c8f8f" d="M872,141 l98,0 0,-32 -98,0 0,32z" />
<path style="fill:#5c8f8f" d="M966,458 l0,-314 -31,0 0,314 31,0z" />
<path style="fill:#6b9e9e" d="M872,137 l98,0 0,-24 -98,0 0,24z" />
<path style="fill:#6b9e9e" d="M963,458 l0,-314 -25,0 0,314 25,0z" />
<path style="fill:#7aadad" d="M872,133 l98,0 0,-17 -98,0 0,17z" />
<path style="fill:#7aadad" d="M959,458 l0,-314 -17,0 0,314 17,0z" />
<path style="fill:#8abdbd" d="M872,129 l98,0 0,-9 -98,0 0,9z" />
<path style="fill:#8abdbd" d="M955,458 l0,-314 -9,0 0,314 9,0z" />
<path style="fill:#9cc" d="M872,126 l98,0 0,-2 -98,0 0,2z" />
<path style="fill:#9cc" d="M951,458 l0,-314 -2,0 0,314 2,0z" />
<path style="fill:#033" d="M775,303 l-726,0 0,449 726,0 0,-449z" />
<path style="fill:#9cc" d="M872,65 l-97,0 0,708 97,0 0,-708z" />
<path style="fill:#94c7c7" d="M872,365 l-97,-44 0,452 97,0 0,-408z" />
<path style="fill:#8fc2c2" d="M872,474 l-97,-44 0,343 97,0 0,-299z" />
<path style="fill:#8abdbd" d="M872,558 l-97,-43 0,258 97,0 0,-215z" />
<path style="fill:none;stroke:#000;stroke-width:2" d="M872,65 l-97,0 0,708 97,0 0,-708" />
<path style="fill:#4c7f7f" d="M754,303 l-726,0 0,411 726,0 0,-411z" />
<path style="fill:#548787" d="M754,321 l-726,0 0,373 726,0 0,-373z" />
<path style="fill:#5c8f8f" d="M754,340 l-726,0 0,335 726,0 0,-335z" />
<path style="fill:#639696" d="M754,361 l-726,0 0,293 726,0 0,-293z" />
<path style="fill:#6b9e9e" d="M754,379 l-726,0 0,256 726,0 0,-256z" />
<path style="fill:#73a6a6" d="M754,400 l-726,0 0,215 726,0 0,-215z" />
<path style="fill:#7aadad" d="M754,419 l-726,0 0,177 726,0 0,-177z" />
<path style="fill:#82b5b5" d="M754,440 l-726,0 0,135 726,0 0,-135z" />
<path style="fill:#8abdbd" d="M754,458 l-726,0 0,98 726,0 0,-98z" />
<path style="fill:#91c4c4" d="M754,477 l-726,0 0,61 726,0 0,-61z" />
<path style="fill:#9cc" d="M754,498 l-726,0 0,19 726,0 0,-19z" />
<path style="fill:none;stroke:#000;stroke-width:2" d="M754,303 l-726,0 0,411 726,0 0,-411" />
<path style="fill:#366;stroke:#000;stroke-width:2" d="M775,733 l-747,0 0,40 747,0 0,-40z" />
<path style="fill:#699;stroke:#000;stroke-width:2" d="M735,733 l-21,-39 -19,0 -20,39 60,0z" />
<path style="fill:#699;stroke:#000;stroke-width:2" d="M107,733 l-21,-39 -19,0 -18,39 58,0z" />
<path style="fill:#9cc" d="M931,517 l-59,0 0,256 59,0 0,-256z" />
<path style="fill:#94c7c7" d="M931,624 l-59,-15 0,164 59,0 0,-149z" />
<path style="fill:#8fc2c2" d="M931,664 l-59,-16 0,125 59,0 0,-109z" />
<path style="fill:#8abdbd" d="M931,695 l-59,-14 0,92 59,0 0,-78z" />
<path style="fill:none;stroke:#000;stroke-width:2" d="M931,517 l-59,0 0,256 59,0 0,-256" />
<path style="fill:none;stroke:#000;stroke-width:2" d="M872,144 l98,0 0,-39 -98,0 0,39" />
<path style="fill:none;stroke:#000;stroke-width:2" d="M970,458 l0,-314 -39,0 0,314 39,0" />
<path style="fill:#366;stroke:#000;stroke-width:2" d="M931,282 l-59,0 0,137 59,0 0,-137z" />
<path style="fill:#699" d="M346,517 l0,-412 -27,0 0,412 27,0z" />
<path style="fill:#699;stroke:#000;stroke-width:2" d="M521,519 l0,-414 -25,0 0,414 25,0z" />
<path style="fill:#9cc" d="M334,519 l0,-414 -3,0 0,414 3,0z" />
<path style="fill:#9cc" d="M509,519 l0,-414 -2,0 0,414 2,0z" />
<path style="fill:none;stroke:#000;stroke-width:2" d="M346,517 l0,-412 -27,0 0,412 27,0" />
<path style="fill:#4c7f7f;stroke:#000;stroke-width:2" d="M361,400 l0,-177 -58,0 0,177 58,0z" />
<path style="fill:#4c7f7f;stroke:#000;stroke-width:2" d="M538,400 l0,-177 -59,0 0,177 59,0z" />
<path style="fill:#5c8f8f" d="M355,400 l0,-177 -47,0 0,177 47,0z" />
<path style="fill:#5c8f8f" d="M532,400 l0,-177 -47,0 0,177 47,0z" />
<path style="fill:#6b9e9e" d="M351,400 l0,-177 -37,0 0,177 37,0z" />
<path style="fill:#6b9e9e" d="M526,400 l0,-177 -35,0 0,177 35,0z" />
<path style="fill:#7aadad" d="M521,400 l0,-177 -25,0 0,177 25,0z" />
<path style="fill:#7aadad" d="M346,400 l0,-177 -27,0 0,177 27,0z" />
<path style="fill:#8abdbd" d="M340,400 l0,-177 -15,0 0,177 15,0z" />
<path style="fill:#8abdbd" d="M515,400 l0,-177 -13,0 0,177 13,0z" />
<path style="fill:#9cc" d="M334,400 l0,-177 -3,0 0,177 3,0z" />
<path style="fill:#9cc" d="M509,400 l0,-177 -2,0 0,177 2,0z" />
<path style="fill:#699" d="M521,519 l0,-414 -25,0 0,414 25,0z" />
<path style="fill:#9cc" d="M509,519 l0,-414 -2,0 0,414 2,0z" />
<path style="fill:none;stroke:#000;stroke-width:2" d="M521,519 l0,-414 -25,0 0,414 25,0" />
<path style="fill:#4c7f7f" d="M538,400 l0,-177 -59,0 0,177 59,0z" />
<path style="fill:#5c8f8f" d="M532,400 l0,-177 -47,0 0,177 47,0z" />
<path style="fill:#6b9e9e" d="M526,400 l0,-177 -35,0 0,177 35,0z" />
<path style="fill:#7aadad" d="M521,400 l0,-177 -25,0 0,177 25,0z" />
<path style="fill:#8abdbd" d="M515,400 l0,-177 -13,0 0,177 13,0z" />
<path style="fill:#9cc" d="M509,400 l0,-177 -2,0 0,177 2,0z" />
<path style="fill:none;stroke:#000;stroke-width:2" d="M538,400 l0,-177 -59,0 0,177 59,0" />
<path style="fill:none;stroke:#000;stroke-width:2" d="M882,517 l0,-4 -1,-7 -1,-8 -2,-11 -1,-11 -2,-13 0,-14 -1,-14 1,-15 1,-14 2,-14 4,-13 5,-12 6,-11 8,-9 11,-7" />
<path style="fill:none;stroke:#000;stroke-width:2" d="M891,517 l0,-13 -1,-11 -1,-12 -1,-14 -1,-16 0,-17 0,-8 0,-18 0,-17 2,-18 2,-16 3,-15 3,-14 5,-12 6,-10 4,-3" />
<path style="fill:none;stroke:#000;stroke-width:2" d="M891,617 l-34,-1 -31,-2 -27,-3 -35,-7 -27,-9 -27,-14 -21,-19 -12,-25 -2,-16 0,-4 20,-214" />
<path style="fill:none;stroke:#000;stroke-width:2" d="M891,654 l-34,0 -31,-2 -27,-3 -35,-7 -27,-8 -27,-14 -21,-19 -12,-25 -2,-16 0,-4 20,-216" />
<path style="fill:#ccc" d="M695,498 l-39,0 0,58 39,0 0,-58z" />
<path style="fill:none;stroke:#fff;stroke-width:2" d="M695,556 l0,-58 -39,0" />
<path style="fill:none;stroke:#000;stroke-width:2" d="M695,556 l-39,0 0,-58" />
<path style="fill:#e5e5e5;stroke:#000;stroke-width:2" d="M513,73 l6,-13 0,-19 -6,-13 -8,0 -5,13 0,19 5,13 8,0z" />
<path style="fill:#ccc;stroke:#000;stroke-width:2" d="M511,73 l0,32 -6,0 0,-32 6,0z" />
<path style="fill:#366;stroke:#000;stroke-width:2" d="M479,498 l59,0 0,-9 -59,0 0,9z" />
<path style="fill:#366;stroke:#000;stroke-width:2" d="M303,498 l60,0 0,-9 -60,0 0,9z" />

</svg>
