<?xml version="1.0" encoding="utf-8" standalone="no"?><!DOCTYPE svg PUBLIC "-//W3C//DTD SVG 1.1//EN" "http://www.w3.org/Graphics/SVG/1.1/DTD/svg11-flat-20030114.dtd"><svg width="999" height="920" version="1.1" xmlns="http://www.w3.org/2000/svg" xmlns:xlink="http://www.w3.org/1999/xlink">

<path style="fill:#7f7f7f" d="M863,892 l0,-431 -176,-138 0,-295 -374,0 0,295 -178,138 0,431 728,0z" />
<path style="fill:#999" d="M803,892 l0,-431 -148,-138 0,-295 -312,0 0,295 -148,138 0,431 608,0z" />
<path style="fill:#b2b2b2" d="M705,892 l0,-431 -101,-138 0,-295 -210,0 0,295 -101,138 0,431 412,0z" />
<path style="fill:#ccc" d="M588,892 l0,-431 -44,-138 0,-295 -90,0 0,295 -44,138 0,431 178,0z" />
<path style="fill:none;stroke:#000;stroke-width:2" d="M863,892 l0,-431 -176,-138 0,-295 -374,0 0,295 -178,138 0,431 728,0" />
<path style="fill:none;stroke:#7f7f7f;stroke-width:2" d="M687,323 l-374,0" />
<path style="fill:none;stroke:#7f7f7f;stroke-width:2" d="M863,461 l-728,0" />
<path style="fill:none;stroke:#7f7f7f;stroke-width:2" d="M490,323 l0,98" />
<path style="fill:#366;stroke:#000;stroke-width:2" d="M843,479 l-688,0 0,393 688,0 0,-393z" />
<path style="fill:#ff0;stroke:#000;stroke-width:2" d="M765,754 l3,8 3,2 2,-1 13,-32 6,-38 4,-31 2,-35 5,25 3,29 9,25 3,1 4,-2 11,-15 6,-15 0,15 -3,37 -3,32 -5,28 -5,26 -4,26 -23,15 -31,11 -38,4 -18,2 -22,1 -14,-1 -37,-2 -35,-1 -34,-1 -35,-1 -38,-3 -39,2 -38,3 -27,1 -29,0 -32,-2 -35,-6 -41,-9 -32,4 -29,-11 -19,-25 -10,-28 -4,-17 -4,-21 1,-10 4,-29 4,-30 4,-29 3,-29 4,-30 3,35 2,7 4,3 4,-2 18,-28 11,-14 1,2 -3,38 -13,24 -7,34 9,24 8,26 12,25 3,2 17,-3 3,-27 -9,-25 -5,-22 6,-3 4,-6 0,-34 -3,-31 2,-3 4,0 30,20 17,16 -6,25 -6,25 -7,26 -1,5 13,-26 5,-6 3,-1 2,2 1,34 -3,37 -1,32 0,6 3,-3 6,-30 2,-27 4,-12 3,-1 5,1 24,31 12,21 -11,-30 -9,-28 -8,-32 -2,-32 13,-26 15,-22 2,-7 22,20 19,23 -1,36 -2,33 8,14 31,-1 13,3 3,4 -9,-25 -16,-26 5,-31 5,-12 14,-24 6,-26 6,-30 7,-25 7,-13 4,-5 0,9 8,24 13,27 12,31 1,42 -9,35 -9,20 16,24 4,6 3,0 2,0 7,-33 2,-30 6,3 6,25 2,10 1,1 1,0 8,-10 -1,-31 -4,-30 -5,-30 -3,-35 1,-7 3,-3 4,1 25,36 4,3 26,-18 16,-10 4,0 4,3 6,33 -1,47 -15,22 -8,27 2,30 20,22 4,3 5,0 4,-3 3,-7 -9,-24 5,-28 8,-17 12,-24 9,-29 6,-8 3,0 21,36 8,21 4,0 27,-11 2,3 -13,28 -1,5 4,30 -10,33 -13,35 22,-22 15,-22 19,-19 4,-2z" />
<path style="fill:#ff7f00" d="M749,785 l5,7 3,2 3,0 19,-22 11,-29 5,-26 3,-30 5,31 6,31 4,8 3,1 4,-2 9,-14 5,-13 0,13 -4,29 -9,26 -13,26 -5,20 -24,12 -28,6 -33,3 -31,2 -21,2 -11,-1 -33,-2 -32,-1 -30,-1 -31,-2 -35,-2 -35,1 -34,3 -37,2 -42,-2 -32,-5 -36,-8 -27,4 -36,-4 -26,-15 -20,-32 -7,-34 -7,-19 0,-7 0,-6 6,-28 9,-32 5,-26 2,29 2,5 2,0 13,-31 8,-28 2,-6 -4,31 -3,28 -1,30 -1,7 12,22 15,23 20,21 8,3 12,-4 -1,-32 -11,-28 -1,-10 6,-2 7,-27 -4,-29 -1,-6 10,27 6,17 0,33 7,32 10,24 5,5 3,0 11,-25 6,-11 1,0 -6,26 -6,25 -2,19 16,-25 4,-5 6,-2 32,11 -4,-26 -7,-27 -7,-29 -2,-27 11,-23 16,-26 15,21 3,28 -4,27 1,37 15,28 21,14 27,-9 9,-32 -12,-25 -13,-22 7,-32 13,-24 3,-32 9,-27 5,-4 -1,7 10,24 14,24 4,27 -5,26 -14,33 15,21 22,18 3,-2 9,-31 1,-15 5,3 11,15 3,0 10,-13 -3,-40 -4,-26 -3,-34 1,-14 2,-3 4,2 23,32 3,2 4,-1 19,-25 7,-8 3,-1 2,2 3,27 -1,42 -15,21 -14,22 -3,31 1,11 25,18 27,13 15,-3 2,-4 1,-35 10,-20 5,-33 -3,-31 0,-4 1,-2 2,1 11,26 7,18 3,1 22,-9 2,2 -10,24 0,5 11,23 -3,33 -8,27 -6,17 20,-16 20,-22 13,-9z" />
<path style="fill:#f00" d="M749,803 l15,24 6,3 3,-1 14,-24 2,-22 21,-21 1,-2 1,-1 0,2 -12,27 -8,36 -3,15 -23,10 -31,9 -31,5 -39,4 -15,2 -17,1 -10,-1 -36,-2 -32,-1 -33,-1 -28,-2 -29,1 -28,2 -30,2 -34,-2 -40,-6 -28,-8 -34,-6 -30,-4 -32,-8 -25,-25 -5,-11 19,16 0,-1 -14,-22 -15,-27 -4,-10 -2,-9 0,-8 3,-7 5,-5 1,26 2,-1 11,-28 8,-25 2,-4 1,-2 -4,30 0,29 -1,19 19,25 24,21 23,15 31,-1 27,-9 11,-10 1,-7 7,-2 3,-4 1,-2 -1,-1 -2,1 3,35 22,20 2,0 3,-1 10,-27 10,-8 -5,-28 -5,-26 -1,-16 1,-1 1,0 17,27 16,29 18,26 16,12 4,0 12,-30 2,-29 -3,-28 -3,-37 0,-17 1,-2 2,1 10,26 6,26 3,11 18,20 23,11 23,-11 16,-30 8,-25 6,-27 1,-8 0,-1 0,1 -4,38 -3,36 -1,23 21,16 25,10 6,-1 4,-5 8,12 5,2 23,-12 15,-11 0,2 -8,26 -8,17 26,-10 29,-11 27,-11 12,-6z" />
<path style="fill:#ff0;stroke:#000;stroke-width:2" d="M296,608 l8,-8 8,-10 3,-11 0,-7 -4,-8 -6,-10 -4,-9 -3,-8 -4,-13 -3,-13 -2,-7 -6,11 -4,10 -4,12 1,10 -1,3 5,10 6,12 3,7 3,12 4,17z" />
<path style="fill:#ff7f00" d="M298,602 l7,-7 5,-8 3,-9 -2,-12 -5,-8 -6,-12 -4,-11 -3,-10 -2,-6 -5,10 -4,13 -1,3 1,9 3,11 5,8 3,6 2,9 3,14z" />
<ellipse style="fill:#f00" cx="297" cy="566" rx="10" ry="27" />
<path style="fill:#ff0;stroke:#000;stroke-width:2" d="M644,595 l8,-7 6,-8 3,-10 -3,-13 -5,-8 -4,-7 -4,-12 -3,-10 -2,-12 -6,10 -4,7 -3,10 1,11 3,9 5,10 3,6 2,10 3,14z" />
<ellipse style="fill:#ff7f00" cx="646" cy="555" rx="13" ry="34" />
<ellipse style="fill:#f00" cx="646" cy="559" rx="9" ry="22" />
<path style="fill:#7f7f7f" d="M970,655 l-942,0 0,79 942,0 0,-79z" />
<path style="fill:#999" d="M970,660 l-942,0 0,69 942,0 0,-69z" />
<path style="fill:#b2b2b2" d="M970,669 l-942,0 0,54 942,0 0,-54z" />
<path style="fill:#ccc" d="M970,678 l-942,0 0,35 942,0 0,-35z" />
<path style="fill:#e5e5e5" d="M970,685 l-942,0 0,22 942,0 0,-22z" />
<path style="fill:#fff" d="M970,691 l-942,0 0,9 942,0 0,-9z" />
<path style="fill:none;stroke:#000;stroke-width:2" d="M970,734 l-942,0" />
<path style="fill:none;stroke:#000;stroke-width:2" d="M28,655 l942,0" />
<path style="fill:#ff0;stroke:#000;stroke-width:2" d="M740,691 l-6,-7 -7,-7 -6,-8 -6,-8 -3,-8 -1,-4 -1,-5 1,-5 2,-11 3,-6 5,-8 4,-8 7,-13 5,-11 3,-11 3,-9 2,-9 3,-10 2,-5 1,-6 6,10 4,7 4,8 5,11 2,9 0,4 1,3 -1,3 -1,10 1,5 -4,9 -5,8 -4,7 -4,8 -4,12 -2,9 -3,9 -3,13 -3,14z" />
<path style="fill:#ff7f00" d="M738,680 l-10,-11 -9,-12 -4,-13 0,-8 3,-9 7,-13 6,-10 3,-9 3,-9 3,-11 2,-8 3,-8 2,-4 7,14 5,11 2,8 2,11 0,12 -5,9 -5,7 -3,9 -4,9 -3,14 -3,10 -2,11z" />
<path style="fill:#f00" d="M738,666 l-8,-7 -6,-8 -3,-9 4,-11 5,-9 5,-13 3,-10 2,-10 3,-5 5,9 5,12 0,10 1,5 -3,7 -5,9 -3,6 -2,10 -3,14z" />
<path style="fill:#ff0;stroke:#000;stroke-width:2" d="M410,675 l-6,-5 -6,-6 -9,-12 -4,-16 1,-8 4,-11 7,-13 5,-11 4,-10 3,-8 2,-9 3,-12 3,-8 2,-4 8,14 5,12 3,8 2,7 -1,9 0,8 -3,8 -3,7 -6,10 -3,8 -4,12 -2,8 -3,11 -2,11z" />
<path style="fill:#ff7f00" d="M408,666 l-9,-8 -8,-9 -3,-12 1,-7 3,-8 6,-11 4,-9 3,-8 4,-13 3,-12 2,-7 6,11 4,10 4,12 -1,10 1,3 -5,10 -6,12 -3,8 -3,11 -3,17z" />

</svg>
