<?xml version="1.0" encoding="utf-8" standalone="no"?><!DOCTYPE svg PUBLIC "-//W3C//DTD SVG 1.1//EN" "http://www.w3.org/Graphics/SVG/1.1/DTD/svg11-flat-20030114.dtd"><svg width="999" height="999" version="1.1" xmlns="http://www.w3.org/2000/svg" xmlns:xlink="http://www.w3.org/1999/xlink">

<path style="fill:#7f7f7f;stroke:#000;stroke-width:2" d="M616,322 l-14,-25 -10,-28 -4,-29 3,-35 9,-28 13,-26 18,-21 21,-19 25,-14 27,-9 15,-2 15,-1 15,1 29,7 27,13 25,16 22,20 20,20 18,20 23,27 2,5 1,5 -1,6 -13,31 -17,25 -18,23 -15,18 19,19 19,19 19,18 4,4 0,470 -8,28 -20,21 -27,11 -46,1 -40,1 -39,2 -39,3 -39,3 -39,4 -38,4 -39,4 -38,4 -39,4 -38,3 -39,3 -39,3 -40,2 -39,2 -20,0 -21,0 -27,-13 -22,-19 -16,-22 -13,-30 -2,-28 0,-21 -61,0 -29,-29 -19,-20 -7,-6 -2,-3 0,-10 0,-314 11,-32 26,-21 35,-5 458,0 19,-19 22,-22 17,-19z" />
<path style="fill:#b2b2b2;stroke:#000;stroke-width:2" d="M676,382 l-16,-25 -10,-29 -4,-30 3,-36 8,-27 14,-25 18,-21 22,-18 25,-14 28,-8 15,-2 15,-1 15,1 29,5 26,11 23,16 20,20 15,23 12,26 5,29 0,33 -6,30 -11,27 -9,15 20,21 22,22 8,7 7,8 0,15 0,458 -11,30 -26,22 -10,4 -10,1 -21,0 -628,0 -27,-8 -22,-19 -11,-25 0,-28 0,-68 -111,0 -8,0 0,-10 0,-312 8,-27 20,-22 27,-11 35,0 441,0 19,-19 22,-22 19,-17z" />
<path style="fill:#000;stroke:#000;stroke-width:2" d="M913,661 l-252,0 0,191 252,0 0,-191z" />
<path style="fill:#7f7f7f;stroke:#000;stroke-width:2" d="M913,852 l-16,-15 0,-161 -221,0 -15,-15 252,0 0,191z" />
<path style="fill:#e5e5e5;stroke:#000;stroke-width:2" d="M661,661 l15,15 0,161 221,0 13,15 -249,0 0,-191z" />
<path style="fill:#e5e5e5;stroke:#000;stroke-width:2" d="M322,691 l-30,-30 -116,0 28,30 118,0z" />
<path style="fill:#7f7f7f;stroke:#000;stroke-width:2" d="M204,809 l-28,-30 0,-118 28,30 0,118z" />
<path style="fill:#7f7f7f;stroke:#000;stroke-width:2" d="M204,676 l-15,-15 0,-603 15,15 0,603z" />
<path style="fill:#7f7f7f;stroke:#000;stroke-width:2" d="M440,176 l-30,-30 0,-118 30,30 0,118z" />
<path style="fill:none;stroke:#000;stroke-width:2" d="M676,382 l-60,-60" />
<path style="fill:none;stroke:#000;stroke-width:2" d="M616,440 l-58,-58" />
<path style="fill:none;stroke:#000;stroke-width:2" d="M146,440 l-61,-58" />
<path style="fill:none;stroke:#000;stroke-width:2" d="M85,500 l-57,-60" />
<path style="fill:#f00" d="M759,837 l-3,0 -5,0 -5,0 -19,0 -14,0 -13,-1 -11,0 -9,-1 -1,0 -2,-11 -2,-10 0,-8 2,-11 4,-9 9,-7 7,-6 2,-9 3,-13 3,-13 3,-14 3,-13 6,12 4,12 5,9 3,2 5,0 3,-2 6,-9 4,-12 5,-12 1,-10 2,-12 4,-8 5,-5 0,15 1,12 2,9 3,9 2,2 1,0 1,-2 4,-9 4,-8 1,0 3,11 2,9 3,9 5,9 2,0 2,-13 1,-12 2,-14 6,-8 7,-6 3,-2 3,-11 8,7 8,13 4,12 0,15 0,17 -1,14 -2,10 3,10 5,1 3,-1 5,-11 3,-7 7,-8 10,-9 1,10 2,10 4,16 4,12 4,11 3,8 3,8 1,8 1,3 -1,5 -13,6 -16,1 -16,0 -10,0 -9,0 -10,-1 -9,-2 -10,-2 -12,1 -11,2 -11,1 -11,1z" />
<path style="fill:#c30" d="M756,835 l-10,0 -16,-1 -15,-1 -11,-3 -9,-3 -11,-2 -3,-1 -4,-5 0,-3 0,-4 6,-13 6,-8 7,-10 10,-12 3,-11 2,-11 3,-12 3,-11 3,9 4,11 5,9 2,2 3,1 8,-7 5,-10 5,-11 2,-4 1,-10 -1,-13 4,-9 4,-6 0,14 2,11 2,9 5,10 2,2 2,1 2,-1 2,-9 2,-5 1,-1 1,0 5,10 3,10 4,9 2,1 2,0 6,-10 -1,-12 2,-11 5,-11 6,-8 4,-9 1,-7 4,4 6,7 4,8 3,8 2,12 -2,11 -2,10 0,16 -2,12 -1,8 3,7 5,0 5,-1 7,-9 7,-12 9,-11 2,9 4,14 5,10 2,12 -1,8 9,9 2,4 1,4 -1,3 -8,8 -9,3 -11,2 -6,0 -6,0 -11,0 -9,-2 -12,-2 -12,-1 -13,0 -14,1 -13,2 -13,2z" />
<path style="fill:#f60" d="M726,830 l-3,-3 -11,-3 -12,-2 -8,-4 -1,-3 -2,-7 1,-6 5,-12 5,-6 6,-7 8,-8 7,-10 9,4 9,6 5,-10 2,-10 1,-2 6,-8 7,-8 4,-5 3,12 3,9 4,9 2,-11 3,-11 3,-9 2,-1 3,7 -1,8 -2,9 -2,9 -3,8 -2,13 2,4 7,-2 3,-5 0,-16 -2,-13 2,-2 8,5 3,0 2,-1 2,-9 5,-7 4,-12 2,-6 6,-7 6,-5 0,-1 0,6 2,9 3,8 2,9 0,10 -3,9 -2,9 -1,12 2,6 8,6 7,2 9,-8 6,-6 7,-9 3,13 4,11 5,12 5,12 3,9 0,3 -1,1 -1,1 -8,-4 -3,7 -5,4 -11,1 -11,-3 -12,1 -10,-1 -10,-1 -10,0 -13,0 -12,0 -10,1 -11,1 -11,0 -7,1 -3,1 -4,0 -8,-4z" />
<path style="fill:#fc0" d="M732,824 l-3,-3 -11,-2 -12,0 -10,-1 -2,-3 6,-5 1,-3 -3,-6 -1,-5 3,-7 9,-10 15,-15 6,6 6,7 9,5 2,-3 2,-13 2,-10 1,-3 2,-2 2,1 5,9 2,2 2,1 2,0 5,-2 1,0 1,10 -1,9 1,8 9,3 4,0 8,-7 2,-3 -3,-12 -2,-9 0,-2 2,0 8,-5 8,-7 2,-6 4,-8 3,-8 1,-1 2,0 1,13 0,30 1,12 4,8 3,4 9,1 13,-1 7,-2 2,-2 4,9 1,8 1,3 2,2 6,3 2,2 0,3 -2,4 -6,6 -12,1 -12,0 -9,1 -14,0 -13,-1 -12,-1 -11,0 -9,2 -11,1 -5,0 -4,0 -3,0 -9,-2 -12,-2 -2,-2z" />
<path style="fill:#ff0" d="M706,812 l1,1 9,2 11,2 10,3 2,2 11,3 9,2 3,0 3,1 2,0 10,-3 10,-3 15,0 11,1 20,0 10,-1 10,0 11,-1 2,-1 1,-1 -5,-3 -4,-6 0,-9 0,-2 -1,-2 -8,2 -9,1 -11,0 -7,-4 -3,-10 0,-10 0,-10 1,-10 -1,-12 -1,-3 -1,-2 -5,7 -6,14 -3,15 -2,10 -6,8 -8,6 -10,-1 -8,-4 -1,-2 -1,-13 -1,-7 -1,-2 -7,6 -5,7 -5,10 -1,1 -11,-5 -8,-5 -9,-5 3,9 -1,7 -3,6 -8,6 -3,2 -2,1 1,2z" />
<path style="fill:#ff6" d="M804,819 l-3,-2 -6,-1 -1,-4 3,-2 5,-11 3,-7 3,-8 4,-15 3,-5 0,14 1,15 2,13 1,3 12,-2 11,-3 1,9 6,5 1,1 -9,2 -14,0 -14,-1 -9,-1z" />
<path style="fill:#ff6" d="M759,824 l0,0 2,0 1,0 2,0 8,-4 12,-4 2,-1 1,-3 -7,0 -9,-6 -5,-9 -4,-9 -3,-4 -1,2 -4,10 -4,8 -3,5 -10,-2 -10,-3 -3,-2 1,3 5,7 8,5 6,5 9,2 6,0z" />
<path style="fill:#e5e5e5;stroke:#000;stroke-width:2" d="M432,73 l-15,-15 -228,0 15,15 228,0z" />
<path style="fill:#e5e5e5;stroke:#000;stroke-width:2" d="M558,58 l-30,-30 -118,0 30,30 118,0z" />
<path style="fill:#b2b2b2;stroke:#000;stroke-width:2" d="M322,691 l-118,0 0,118 118,0 0,-118z" />
<path style="fill:#b2b2b2;stroke:#000;stroke-width:2" d="M292,144 l0,532 -88,0 0,-606 228,0 0,74 -140,0z" />
<path style="fill:#b2b2b2;stroke:#000;stroke-width:2" d="M558,58 l-118,0 0,118 118,0 0,-118z" />

</svg>
