<?xml version="1.0" encoding="utf-8" standalone="no"?><!DOCTYPE svg PUBLIC "-//W3C//DTD SVG 1.1//EN" "http://www.w3.org/Graphics/SVG/1.1/DTD/svg11-flat-20030114.dtd"><svg width="959" height="999" version="1.1" xmlns="http://www.w3.org/2000/svg" xmlns:xlink="http://www.w3.org/1999/xlink">

<path style="fill:#99997a;stroke:#000;stroke-width:2" d="M87,843 l-59,0 0,68 59,0 0,-68z" />
<path style="fill:#99997a;stroke:#000;stroke-width:2" d="M872,843 l59,0 0,68 -59,0 0,-68z" />
<path style="fill:#ccccbd;stroke:#000;stroke-width:2" d="M28,823 l59,0 0,20 -59,0 0,-20z" />
<path style="fill:#ccccbd;stroke:#000;stroke-width:2" d="M931,823 l-59,0 0,20 59,0 0,-20z" />
<circle style="fill:#000;stroke:#000;stroke-width:2" cx="57" cy="881" r="19" />
<circle style="fill:#000;stroke:#000;stroke-width:2" cx="901" cy="881" r="19" />
<path style="fill:#330" d="M872,950 l-785,0 0,20 785,0 0,-20z" />
<path style="fill:#b2b29b;stroke:#000;stroke-width:2" d="M872,28 l-785,0 0,922 785,0 0,-922z" />
<path style="fill:#e5e5dd" d="M852,381 l-746,0 0,550 746,0 0,-550z" />
<path style="fill:#e5e5dd" d="M852,47 l-746,0 0,314 746,0 0,-314z" />
<path style="fill:none;stroke:#000;stroke-width:2" d="M106,381 l0,550 746,0" />
<path style="fill:none;stroke:#000;stroke-width:2" d="M852,361 l-746,0 0,-314" />
<path style="fill:none;stroke:#fff;stroke-width:2" d="M106,47 l746,0 0,314" />
<path style="fill:none;stroke:#fff;stroke-width:2" d="M852,931 l0,-550 -746,0" />
<path style="fill:#330" d="M852,391 l-9,0 0,10 9,0 0,-10z" />
<path style="fill:#330" d="M852,637 l-9,0 0,9 9,0 0,-9z" />
<path style="fill:#330" d="M116,391 l-10,0 0,10 10,0 0,-10z" />
<path style="fill:#330" d="M116,637 l-10,0 0,9 10,0 0,-9z" />
<path style="fill:#330" d="M852,57 l-9,0 0,10 9,0 0,-10z" />
<path style="fill:#330" d="M852,342 l-9,0 0,10 9,0 0,-10z" />
<path style="fill:#330" d="M852,195 l-9,0 0,9 9,0 0,-9z" />
<path style="fill:#330" d="M116,57 l-10,0 0,10 10,0 0,-10z" />
<path style="fill:#330" d="M116,342 l-10,0 0,10 10,0 0,-10z" />
<path style="fill:#330" d="M116,195 l-10,0 0,9 10,0 0,-9z" />
<path style="fill:#666;stroke:#000;stroke-width:2" d="M47,872 l49,0 0,20 -49,0 0,-20z" />
<path style="fill:#666;stroke:#000;stroke-width:2" d="M911,872 l-49,0 0,20 49,0 0,-20z" />
<path style="fill:#deded4" d="M842,931 l-726,0 0,-383 726,137 0,246z" />
<path style="fill:#deded4" d="M842,352 l-726,0 0,-265 726,137 0,128z" />
<path style="fill:#d4d4c7" d="M842,352 l-726,0 0,-187 726,138 0,49z" />
<path style="fill:#d4d4c7" d="M842,931 l-726,0 0,-304 726,137 0,167z" />
<path style="fill:#ccccbd" d="M842,352 l-726,0 0,-157 726,137 0,20z" />
<path style="fill:#ccccbd" d="M842,931 l-726,0 0,-275 726,137 0,138z" />
<path style="fill:#deded4" d="M862,813 l-765,0 0,147 765,0 0,-147z" />
<path style="fill:#330" d="M823,843 l-39,0 0,9 39,0 0,-9z" />
<path style="fill:#330" d="M764,843 l-39,0 0,9 39,0 0,-9z" />
<path style="fill:#330" d="M705,843 l-39,0 0,9 39,0 0,-9z" />
<path style="fill:#330" d="M646,843 l-39,0 0,9 39,0 0,-9z" />
<path style="fill:#330" d="M587,843 l-39,0 0,9 39,0 0,-9z" />
<path style="fill:#330" d="M529,843 l-40,0 0,9 40,0 0,-9z" />
<path style="fill:#330" d="M470,843 l-39,0 0,9 39,0 0,-9z" />
<path style="fill:#330" d="M411,843 l-40,0 0,9 40,0 0,-9z" />
<path style="fill:#330" d="M352,843 l-39,0 0,9 39,0 0,-9z" />
<path style="fill:#330" d="M293,843 l-39,0 0,9 39,0 0,-9z" />
<path style="fill:#330" d="M234,843 l-39,0 0,9 39,0 0,-9z" />
<path style="fill:#330" d="M175,843 l-39,0 0,9 39,0 0,-9z" />
<path style="fill:#330" d="M823,862 l-39,0 0,10 39,0 0,-10z" />
<path style="fill:#330" d="M764,862 l-39,0 0,10 39,0 0,-10z" />
<path style="fill:#330" d="M705,862 l-39,0 0,10 39,0 0,-10z" />
<path style="fill:#330" d="M646,862 l-39,0 0,10 39,0 0,-10z" />
<path style="fill:#330" d="M587,862 l-39,0 0,10 39,0 0,-10z" />
<path style="fill:#330" d="M529,862 l-40,0 0,10 40,0 0,-10z" />
<path style="fill:#330" d="M470,862 l-39,0 0,10 39,0 0,-10z" />
<path style="fill:#330" d="M411,862 l-40,0 0,10 40,0 0,-10z" />
<path style="fill:#330" d="M352,862 l-39,0 0,10 39,0 0,-10z" />
<path style="fill:#330" d="M293,862 l-39,0 0,10 39,0 0,-10z" />
<path style="fill:#330" d="M234,862 l-39,0 0,10 39,0 0,-10z" />
<path style="fill:#330" d="M175,862 l-39,0 0,10 39,0 0,-10z" />
<path style="fill:#330" d="M823,882 l-39,0 0,10 39,0 0,-10z" />
<path style="fill:#330" d="M764,882 l-39,0 0,10 39,0 0,-10z" />
<path style="fill:#330" d="M705,882 l-39,0 0,10 39,0 0,-10z" />
<path style="fill:#330" d="M646,882 l-39,0 0,10 39,0 0,-10z" />
<path style="fill:#330" d="M587,882 l-39,0 0,10 39,0 0,-10z" />
<path style="fill:#330" d="M529,882 l-40,0 0,10 40,0 0,-10z" />
<path style="fill:#330" d="M470,882 l-39,0 0,10 39,0 0,-10z" />
<path style="fill:#330" d="M411,882 l-40,0 0,10 40,0 0,-10z" />
<path style="fill:#330" d="M352,882 l-39,0 0,10 39,0 0,-10z" />
<path style="fill:#330" d="M293,882 l-39,0 0,10 39,0 0,-10z" />
<path style="fill:#330" d="M234,882 l-39,0 0,10 39,0 0,-10z" />
<path style="fill:#330" d="M175,882 l-39,0 0,10 39,0 0,-10z" />
<path style="fill:#330" d="M823,901 l-39,0 0,10 39,0 0,-10z" />
<path style="fill:#330" d="M764,901 l-39,0 0,10 39,0 0,-10z" />
<path style="fill:#330" d="M705,901 l-39,0 0,10 39,0 0,-10z" />
<path style="fill:#330" d="M293,901 l-39,0 0,10 39,0 0,-10z" />
<path style="fill:#330" d="M234,901 l-39,0 0,10 39,0 0,-10z" />
<path style="fill:#330" d="M175,901 l-39,0 0,10 39,0 0,-10z" />
<path style="fill:#330" d="M823,921 l-39,0 0,10 39,0 0,-10z" />
<path style="fill:#330" d="M764,921 l-39,0 0,10 39,0 0,-10z" />
<path style="fill:#330" d="M234,921 l-39,0 0,10 39,0 0,-10z" />
<path style="fill:#330" d="M175,921 l-39,0 0,10 39,0 0,-10z" />
<path style="fill:#330" d="M823,941 l-39,0 0,9 39,0 0,-9z" />
<path style="fill:#330" d="M175,941 l-39,0 0,9 39,0 0,-9z" />
<path style="fill:none;stroke:#fff;stroke-width:2" d="M862,960 l0,-147 -765,0" />
<path style="fill:#4c4c4c" d="M852,823 l-19,0 0,20 19,0 0,-20z" />
<path style="fill:#4c4c4c" d="M125,823 l-19,0 0,20 19,0 0,-20z" />
<circle style="fill:#99997a" cx="774" cy="302" r="39" />
<circle style="fill:#fff;stroke:#000;stroke-width:2" cx="773" cy="302" r="29" />
<path style="fill:none;stroke:#f00;stroke-width:2" d="M774,303 l19,-10" />
<path style="fill:#b2b29b" d="M596,155 l-234,0 0,99 234,0 0,-99z" />
<path style="fill:#000" d="M587,165 l-216,0 0,79 216,0 0,-79z" />
<path style="fill:#7f0000;fill-rule:evenodd" d="M578,234 l-30,-59 -49,0 10,20 -89,0 -9,-20 -20,0 10,20 -20,0 20,39 177,0z M470,185 l0,-10 -20,0 0,10 20,0z " />
<path style="fill:#000" d="M921,803 l-20,0 0,20 20,0 0,-20z" />

</svg>
