<?xml version="1.0" encoding="utf-8" standalone="no"?><!DOCTYPE svg PUBLIC "-//W3C//DTD SVG 1.1//EN" "http://www.w3.org/Graphics/SVG/1.1/DTD/svg11-flat-20030114.dtd"><svg width="605" height="998" version="1.1" xmlns="http://www.w3.org/2000/svg" xmlns:xlink="http://www.w3.org/1999/xlink">

<path style="fill:#ccc" d="M577,27 l-510,0 0,884 0,11 19,0 0,37 -19,0 0,12 510,0 0,-12 -19,0 0,-37 19,0 0,-895z" />
<path style="fill:#c7c7c7" d="M577,521 l-510,-210 0,609 510,0 0,-399z" />
<path style="fill:#c2c2c2" d="M577,551 l-510,-218 0,587 510,0 0,-369z" />
<path style="fill:#bdbdbd" d="M577,581 l-510,-220 0,559 510,0 0,-339z" />
<path style="fill:none;stroke:#fff;stroke-width:2" d="M86,46 l0,865 472,0" />
<path style="fill:none;stroke:#999;stroke-width:2" d="M86,46 l472,0 0,865" />
<path style="fill:#7f7f7f" d="M547,920 l-450,0 0,39 450,0 0,-39z" />
<path style="fill:none;stroke:#000;stroke-width:2" d="M577,27 l-510,0 0,884 0,11 19,0 0,37 -19,0 0,12 510,0 0,-12 -19,0 0,-37 19,0 0,-895" />
<path style="fill:#333" d="M547,920 l-450,0 0,11 450,0 0,-11z" />
<path style="fill:#b2b2b2;stroke:#000;stroke-width:2" d="M243,680 l-73,0 0,73 73,0 0,-73z" />
<path style="fill:#7f7f7f" d="M543,719 l-69,0 0,104 69,0 0,-104z" />
<path style="fill:none;stroke:#b2b2b2;stroke-width:2" d="M538,759 l-59,0" />
<path style="fill:#666;stroke:#000;stroke-width:2" d="M474,729 l-89,0 0,20 89,0 0,-20z" />
<path style="fill:#999;stroke:#000;stroke-width:2" d="M352,729 l-109,0 0,20 109,0 0,-20z" />
<path style="fill:#b2b2b2" d="M474,736 l-89,0 0,6 89,0 0,-6z" />
<path style="fill:#ccc" d="M352,736 l-109,0 0,6 109,0 0,-6z" />
<path style="fill:#b2b2b2;stroke:#000;stroke-width:2" d="M385,719 l-33,0 0,40 33,0 0,-40z" />
<path style="fill:none;stroke:#000;stroke-width:2" d="M371,719 l0,40" />
<path style="fill:#7f7f7f" d="M316,616 l-67,0 0,103 67,0 0,-103z" />
<path style="fill:none;stroke:#fff;stroke-width:2" d="M316,719 l0,-103 -67,0" />
<path style="fill:none;stroke:#000;stroke-width:2" d="M316,719 l-67,0 0,-103" />
<path style="fill:#ccc" d="M264,680 l0,-158 -237,0 0,158 237,0z" />
<path style="fill:#e5e5e5" d="M264,522 l-6,-39 -225,0 -6,39 237,0z" />
<path style="fill:none;stroke:#000;stroke-width:2" d="M264,680 l0,-158 -6,-39 -225,0 -6,39 0,158 237,0" />
<path style="fill:#4c4c4c" d="M303,522 l-39,0 0,85 39,0 0,-85z" />
<path style="fill:#666" d="M303,534 l-39,0 0,64 39,0 0,-64z" />
<path style="fill:#7f7f7f" d="M303,543 l-39,0 0,43 39,0 0,-43z" />
<path style="fill:#999" d="M303,553 l-39,0 0,24 39,0 0,-24z" />
<path style="fill:none;stroke:#000;stroke-width:2" d="M303,522 l-39,0 0,85 39,0 0,-85" />
<path style="fill:#4c4c4c" d="M87,519 l4,-30 -50,0 -4,30 50,0z" />
<path style="fill:none;stroke:#000;stroke-width:2" d="M131,185 l0,27 -1,48 -1,41 -2,36 -2,29 -4,36 -5,26 -10,28 -19,19 -11,8" />
<path style="fill:none;stroke:#000;stroke-width:2" d="M464,823 l-26,-1 -23,-4 -20,-7 -17,-10 -14,-11 -12,-14 -10,-14 -10,-15 -8,-15 -7,-15 -8,-13 -7,-12 -8,-10 -9,-7 -10,-4 -11,-1" />
<path style="fill:none;stroke:#000;stroke-width:2" d="M440,67 l-18,1 -17,2 -15,1 -15,1 -14,1 -13,1 -13,0 -13,0 -13,0 -13,0 -13,-1 -14,-1 -15,-1 -16,-1 -17,-2 -17,-1" />
<path style="fill:#000" d="M498,67 l-58,0 0,39 58,0 0,-39z" />
<path style="fill:#c7c7c7" d="M204,153 l-98,-47 0,79 98,0 0,-32z" />
<path style="fill:none;stroke:#fff;stroke-width:2" d="M234,744 l0,-55 -55,0" />
<path style="fill:none;stroke:#fff;stroke-width:2" d="M204,185 l0,-118 -98,0" />
<path style="fill:none;stroke:#fff;stroke-width:2" d="M498,106 l0,-39 -58,0" />
<path style="fill:none;stroke:#fff;stroke-width:2" d="M543,823 l0,-104 -69,0" />
<path style="fill:none;stroke:#fff;stroke-width:2" d="M140,534 l0,19" />
<path style="fill:none;stroke:#999;stroke-width:2" d="M204,185 l-98,0 0,-118" />
<path style="fill:none;stroke:#999;stroke-width:2" d="M234,744 l-55,0 0,-55" />
<path style="fill:none;stroke:#999;stroke-width:2" d="M146,534 l0,19" />
<path style="fill:none;stroke:#000;stroke-width:2" d="M106,519 l146,0" />
<path style="fill:none;stroke:#000;stroke-width:2" d="M106,513 l146,0" />
<path style="fill:none;stroke:#000;stroke-width:2" d="M106,504 l146,0" />
<path style="fill:none;stroke:#000;stroke-width:2" d="M106,494 l146,0" />
<path style="fill:none;stroke:#000;stroke-width:2" d="M543,823 l-69,0 0,-104" />
<path style="fill:none;stroke:#000;stroke-width:2" d="M538,753 l-59,0" />
<path style="fill:#666;stroke:#000;stroke-width:2" d="M538,847 l-122,0 0,20 122,0 0,-20z" />
<path style="fill:#666;stroke:#000;stroke-width:2" d="M489,813 l-25,0 0,34 25,0 0,-34z" />
<path style="fill:#7f7f7f;stroke:#000;stroke-width:2" d="M485,905 l13,-13 0,-21 -13,-15 -21,0 -15,15 0,21 15,13 21,0z" />

</svg>
