<?xml version="1.0" encoding="utf-8" standalone="no"?><!DOCTYPE svg PUBLIC "-//W3C//DTD SVG 1.1//EN" "http://www.w3.org/Graphics/SVG/1.1/DTD/svg11-flat-20030114.dtd"><svg width="999" height="461" version="1.1" xmlns="http://www.w3.org/2000/svg" xmlns:xlink="http://www.w3.org/1999/xlink">

<path style="fill:#999" d="M970,143 l-185,0 0,28 185,0 0,-28z" />
<path style="fill:#c93;stroke:#000;stroke-width:2" d="M633,82 l-100,0 0,98 100,0 0,-98z" />
<path style="fill:#333" d="M533,28 l-505,0 0,405 505,0 0,-405z" />
<path style="fill:#4c4c4c" d="M533,33 l-505,0 0,127 505,0 0,-127z" />
<path style="fill:#595959" d="M533,31 l-505,0 0,102 505,0 0,-102z" />
<path style="fill:#666" d="M533,31 l-505,0 0,78 505,0 0,-78z" />
<path style="fill:#737373" d="M533,30 l-505,0 0,58 505,0 0,-58z" />
<path style="fill:#7f7f7f" d="M533,30 l-505,0 0,37 505,0 0,-37z" />
<path style="fill:#8c8c8c" d="M533,30 l-505,0 0,22 505,0 0,-22z" />
<path style="fill:#999" d="M533,28 l-505,0 0,9 505,0 0,-9z" />
<path style="fill:none;stroke:#000;stroke-width:2" d="M533,28 l-505,0 0,405 505,0 0,-405" />
<path style="fill:#191919" d="M280,433 l0,-51 -7,-9 -44,0 -7,9 0,51 58,0z" />
<circle style="fill:#ccc;stroke:#000;stroke-width:2" cx="251" cy="403" r="25" />
<path style="fill:#7f7f7f" d="M269,418 l-34,-34 -4,4 34,34 4,-4z" />
<path style="fill:#fc6;stroke:#000;stroke-width:2" d="M633,62 l-100,0 0,20 100,0 0,-20z" />
<path style="fill:#960;stroke:#000;stroke-width:2" d="M633,180 l-100,0 0,66 100,0 0,-66z" />
<path style="fill:#c93" d="M785,95 l-126,0 -26,-33 0,184 26,-32 126,0 0,-119z" />
<path style="fill:#d4a64d" d="M785,105 l-126,0 -26,-28 0,156 26,-28 126,0 0,-100z" />
<path style="fill:#deb86b" d="M785,113 l-126,0 -26,-23 0,128 26,-23 126,0 0,-82z" />
<path style="fill:#e5c484" d="M785,122 l-126,0 -26,-19 0,102 26,-19 126,0 0,-64z" />
<path style="fill:#edd3a0" d="M785,131 l-126,0 -26,-13 0,74 26,-15 126,0 0,-46z" />
<path style="fill:#f7e3bc" d="M785,141 l-126,0 -26,-10 0,46 26,-8 126,0 0,-28z" />
<path style="fill:#fff2d9" d="M785,148 l-126,0 -26,-2 0,17 26,-3 126,0 0,-12z" />
<path style="fill:none;stroke:#000;stroke-width:2" d="M785,95 l-126,0 -26,-33 0,184 26,-32 126,0 0,-119" />
<path style="fill:none;stroke:#c93;stroke-width:2" d="M659,209 l0,-110" />
<path style="fill:none;stroke:#000;stroke-width:2" d="M684,213 l0,-118 13,0 0,118 13,0 0,-118 11,0 0,118 14,0 0,-118 13,0 0,118 13,0 0,-118 11,0 0,118" />
<path style="fill:#ccc" d="M970,148 l-185,0 0,19 185,0 0,-19z" />
<path style="fill:#e5e5e5" d="M970,154 l-185,0 0,8 185,0 0,-8z" />
<path style="fill:none;stroke:#000;stroke-width:2" d="M970,143 l-185,0 0,28 185,0 0,-28" />

</svg>
