<?xml version="1.0" encoding="utf-8" standalone="no"?><!DOCTYPE svg PUBLIC "-//W3C//DTD SVG 1.1//EN" "http://www.w3.org/Graphics/SVG/1.1/DTD/svg11-flat-20030114.dtd"><svg width="763" height="999" version="1.1" xmlns="http://www.w3.org/2000/svg" xmlns:xlink="http://www.w3.org/1999/xlink">

<path style="fill:#e5e5e5" d="M539,420 l-511,0 0,550 511,0 0,-550z" />
<path style="fill:#fff" d="M518,499 l-472,0 0,450 472,0 0,-450z" />
<path style="fill:#004ce5" d="M518,499 l-472,0 0,177 472,0 0,-177z" />
<path style="fill:none;stroke:#000;stroke-width:2" d="M469,676 l0,-177" />
<path style="fill:none;stroke:#000;stroke-width:2" d="M424,676 l0,-177" />
<path style="fill:none;stroke:#000;stroke-width:2" d="M376,676 l0,-177" />
<path style="fill:none;stroke:#000;stroke-width:2" d="M331,676 l0,-177" />
<path style="fill:none;stroke:#000;stroke-width:2" d="M284,676 l0,-177" />
<path style="fill:none;stroke:#000;stroke-width:2" d="M237,676 l0,-177" />
<path style="fill:none;stroke:#000;stroke-width:2" d="M192,676 l0,-177" />
<path style="fill:none;stroke:#000;stroke-width:2" d="M145,676 l0,-177" />
<path style="fill:none;stroke:#000;stroke-width:2" d="M97,676 l0,-177" />
<path style="fill:none;stroke:#000;stroke-width:2" d="M518,557 l-472,0" />
<path style="fill:none;stroke:#000;stroke-width:2" d="M46,616 l472,0" />
<path style="fill:none;stroke:#000;stroke-width:2" d="M518,676 l-472,0" />
<path style="fill:#e5e5e5;stroke:#000;stroke-width:2" d="M625,925 l21,6 21,0 19,-6 19,-10 14,-14 10,-17 6,-21 0,-21 -6,-21 -10,-17 -14,-15 -19,-9 -19,-6 -128,0 0,89 39,0 6,21 9,17 15,14 17,10z" />
<circle style="fill:#d1d1d1" cx="656" cy="852" r="68" />
<circle style="fill:#bfbfbf" cx="655" cy="852" r="49" />
<circle style="fill:#a6a6a6" cx="656" cy="852" r="29" />
<circle style="fill:#7f7f7f;stroke:#000;stroke-width:2" cx="656" cy="852" r="19" />
<path style="fill:#ccc;stroke:#000;stroke-width:2" d="M539,852 l-21,-10 0,-49 21,-9 0,68z" />
<path style="fill:#b2b2b2" d="M539,842 l-21,-6 0,-35 21,-8 0,49z" />
<path style="fill:#999" d="M539,832 l-21,-3 0,-21 21,-6 0,30z" />
<path style="fill:#f00" d="M518,793 l-25,-8 -21,-16 -25,-17 -26,-7 -11,-1 7,11 -21,20 -29,-10 -25,-15 -26,-10 -27,-6 -3,0 0,1 0,2 14,22 1,8 -2,3 -3,2 -28,3 -27,-12 -22,-15 -24,-14 -28,-8 -11,-1 -2,4 -1,5 11,26 2,5 -1,1 -31,-2 -33,-3 -11,2 -4,2 5,3 22,14 13,11 1,3 -2,1 -34,3 -5,2 0,4 22,12 30,9 8,5 2,6 -1,3 -26,8 -29,10 -6,4 35,0 28,-4 32,-4 11,2 2,3 2,3 -15,25 -6,3 29,3 26,-10 28,-10 18,-1 2,3 -2,28 -3,8 25,-9 28,-13 25,-8 30,-1 16,1 3,3 1,27 7,1 7,-1 25,-16 19,-19 22,-19 26,-14 11,-2 0,-6 0,-43z" />
<path style="fill:#ff1400" d="M514,797 l-27,-10 -25,-20 -26,-13 -18,-2 6,10 -2,7 -23,10 -25,-12 -24,-14 -27,-9 -17,-3 0,1 13,22 1,7 -2,3 -3,2 -32,0 -26,-14 -24,-15 -24,-11 -13,-2 -5,-1 -5,0 -2,3 -1,4 9,24 2,5 -1,1 -2,0 -28,-2 -29,-2 -14,3 23,15 13,13 -2,1 -31,3 -5,3 2,6 4,3 31,8 16,10 1,3 -1,4 -29,9 -21,7 -5,3 5,2 35,-2 32,-5 23,1 2,1 1,3 -11,25 -6,3 7,5 31,-7 24,-10 27,-4 3,0 2,2 -3,33 27,-11 27,-11 34,-6 25,2 2,1 2,25 6,1 6,-1 24,-14 23,-22 22,-16 26,-10 1,-28 1,-6 0,-6 0,-5z" />
<path style="fill:#ff2900" d="M510,801 l-84,-40 -8,23 -87,-32 -7,30 -48,-19 -60,-23 6,32 -66,0 28,23 -34,9 46,25 -50,24 87,0 -15,27 81,-15 2,32 98,-23 11,23 96,-55 4,-41z" />
<path style="fill:#ff3d00" d="M505,806 l-72,-36 -6,19 -75,-30 -9,26 -42,-16 -55,-21 4,28 -60,0 23,21 -31,7 38,23 -43,22 77,3 -13,20 71,-11 4,28 87,-20 11,20 87,-49 4,-34z" />
<path style="fill:#ff5200" d="M501,810 l-60,-32 -4,15 -66,-24 -8,20 -37,-15 -47,-17 0,23 -55,0 19,17 -29,7 31,21 -36,19 64,4 -10,19 63,-10 5,25 76,-17 13,17 75,-42 6,-30z" />
<path style="fill:#f60" d="M497,814 l-49,-27 -4,12 -52,-23 -8,17 -34,-13 -41,-15 -2,19 -48,0 12,15 -26,7 26,17 -32,17 53,4 -6,17 53,-8 5,21 68,-13 12,15 65,-36 8,-26z" />
<path style="fill:#ff7a00" d="M492,818 l-38,-23 0,9 -44,-19 -7,12 -28,-12 -36,-13 -4,15 -42,0 8,14 -25,5 20,15 -27,15 43,4 -5,15 45,-6 7,18 57,-10 13,12 55,-29 8,-22z" />
<path style="fill:#ff8f00" d="M488,821 l-27,-17 2,6 -32,-17 -7,8 -23,-10 -30,-11 -8,11 -36,0 2,10 -20,5 11,13 -21,12 32,5 -2,12 36,-2 10,13 45,-6 13,8 45,-21 10,-19z" />
<path style="fill:#ffa300" d="M484,827 l-15,-15 2,2 -21,-13 -6,3 -18,-7 -25,-8 -9,6 -29,0 -4,7 -18,6 5,10 -17,9 23,5 0,10 26,0 10,11 36,-5 15,5 36,-15 9,-11z" />
<path style="fill:#ffb800" d="M480,831 l-4,-10 4,-2 -11,-9 -6,-2 -13,-6 -19,-5 -11,2 -23,0 -9,5 -15,4 -2,8 -12,7 12,6 2,7 19,2 11,8 24,-2 15,4 27,-10 11,-7z" />
<ellipse style="fill:#fc0" cx="439" cy="822" rx="49" ry="18" />
<path style="fill:#b2b2b2;stroke:#000;stroke-width:2" d="M361,184 l80,49 0,70 -80,0 0,117 -156,0 0,-117 -79,0 0,-60 79,-59 0,-117 79,-7 4,-11 8,-10 9,-7 11,-4 13,0 12,4 9,7 8,10 3,11 0,124z" />
<circle style="fill:#666;stroke:#000;stroke-width:2" cx="244" cy="67" r="39" />
<path style="fill:none;stroke:#000;stroke-width:2" d="M518,499 l-469,0 0,450 469,0 0,-450" />
<path style="fill:none;stroke:#000;stroke-width:2" d="M539,420 l-511,0 0,550 511,0 0,-550" />
<path style="fill:none;stroke:#000;stroke-width:2" d="M361,303 l-156,0" />
<path style="fill:none;stroke:#000;stroke-width:2" d="M205,184 l156,0" />
<path style="fill:none;stroke:#000;stroke-width:2" d="M441,243 l-315,0" />

</svg>
