<?xml version="1.0" encoding="utf-8" standalone="no"?><!DOCTYPE svg PUBLIC "-//W3C//DTD SVG 1.1//EN" "http://www.w3.org/Graphics/SVG/1.1/DTD/svg11-flat-20030114.dtd"><svg width="849" height="999" version="1.1" xmlns="http://www.w3.org/2000/svg" xmlns:xlink="http://www.w3.org/1999/xlink">

<path style="fill:#7f7f7f" d="M821,970 l0,-471 -194,-150 0,-321 -406,0 0,321 -193,150 0,471 793,0z" />
<path style="fill:#999" d="M755,970 l0,-471 -159,-150 0,-321 -341,0 0,321 -162,150 0,471 662,0z" />
<path style="fill:#b2b2b2" d="M649,970 l0,-471 -109,-150 0,-321 -232,0 0,321 -108,150 0,471 449,0z" />
<path style="fill:#ccc" d="M521,970 l0,-471 -46,-150 0,-321 -99,0 0,321 -49,150 0,471 194,0z" />
<path style="fill:none;stroke:#000;stroke-width:2" d="M821,970 l0,-471 -194,-150 0,-321 -406,0 0,321 -193,150 0,471 793,0" />
<path style="fill:none;stroke:#7f7f7f;stroke-width:2" d="M627,349 l-406,0" />
<path style="fill:none;stroke:#7f7f7f;stroke-width:2" d="M821,499 l-793,0" />
<path style="fill:none;stroke:#7f7f7f;stroke-width:2" d="M415,349 l0,107" />

</svg>
