<?xml version="1.0" encoding="utf-8" standalone="no"?><!DOCTYPE svg PUBLIC "-//W3C//DTD SVG 1.1//EN" "http://www.w3.org/Graphics/SVG/1.1/DTD/svg11-flat-20030114.dtd"><svg width="998" height="968" version="1.1" xmlns="http://www.w3.org/2000/svg" xmlns:xlink="http://www.w3.org/1999/xlink">

<path style="fill:#7f7f7f;stroke:#000;stroke-width:2" d="M970,493 l-942,0 0,38 942,0 0,-38z" />
<path style="fill:#333" d="M955,940 l0,-856 -912,0 0,856 912,0z" />
<path style="fill:#2e2e2e" d="M955,940 l0,-332 -912,-349 0,681 912,0z" />
<path style="fill:#292929" d="M955,940 l0,-266 -912,-347 0,613 912,0z" />
<path style="fill:#242424" d="M955,940 l0,-194 -912,-349 0,543 912,0z" />
<path style="fill:#7f0000" d="M561,28 l-18,0 0,28 18,0 0,-28z" />
<path style="fill:#7f0000" d="M852,28 l-19,0 0,28 19,0 0,-28z" />
<path style="fill:#f00" d="M556,28 l-10,0 0,28 10,0 0,-28z" />
<path style="fill:#f00" d="M846,28 l-9,0 0,28 9,0 0,-28z" />
<path style="fill:#474747" d="M45,84 l0,856 73,0 0,-856 -73,0z" />
<path style="fill:#474747" d="M951,940 l0,-856 -71,0 0,856 71,0z" />
<path style="fill:#595959" d="M45,84 l0,856 58,0 0,-856 -58,0z" />
<path style="fill:#595959" d="M953,940 l0,-856 -58,0 0,856 58,0z" />
<path style="fill:#666" d="M43,84 l0,856 45,0 0,-856 -45,0z" />
<path style="fill:#666" d="M953,940 l0,-856 -45,0 0,856 45,0z" />
<path style="fill:#737373" d="M43,84 l0,856 34,0 0,-856 -34,0z" />
<path style="fill:#737373" d="M953,940 l0,-856 -32,0 0,856 32,0z" />
<path style="fill:#7f7f7f" d="M43,84 l0,856 22,0 0,-856 -22,0z" />
<path style="fill:#7f7f7f" d="M953,940 l0,-856 -20,0 0,856 20,0z" />
<path style="fill:#8c8c8c" d="M953,940 l0,-856 -13,0 0,856 13,0z" />
<path style="fill:#8c8c8c" d="M43,84 l0,856 13,0 0,-856 -13,0z" />
<path style="fill:#999" d="M43,84 l0,856 4,0 0,-856 -4,0z" />
<path style="fill:#999" d="M955,940 l0,-856 -5,0 0,856 5,0z" />
<path style="fill:none;stroke:#000;stroke-width:2" d="M955,940 l0,-856 -914,0 0,856 914,0" />
<path style="fill:#7f7f7f;stroke:#000;stroke-width:2" d="M590,75 l-76,0 0,9 76,0 0,-9z" />
<path style="fill:#7f7f7f;stroke:#000;stroke-width:2" d="M580,65 l-56,0 0,10 56,0 0,-10z" />
<path style="fill:#7f7f7f;stroke:#000;stroke-width:2" d="M565,56 l-28,0 0,9 28,0 0,-9z" />
<path style="fill:#7f7f7f;stroke:#000;stroke-width:2" d="M880,75 l-76,0 0,9 76,0 0,-9z" />
<path style="fill:#7f7f7f;stroke:#000;stroke-width:2" d="M870,65 l-56,0 0,10 56,0 0,-10z" />
<path style="fill:#7f7f7f;stroke:#000;stroke-width:2" d="M855,56 l-28,0 0,9 28,0 0,-9z" />
<path style="fill:#e5e5e5;stroke:#000;stroke-width:2" d="M684,455 l-370,0 0,334 370,0 0,-334z" />
<path style="fill:#ffe566;stroke:#000;stroke-width:2" d="M727,71 l-28,0 0,13 28,0 0,-13z" />
<path style="fill:none;stroke:#b2b2b2;stroke-width:2" d="M951,94 l-904,0" />
<path style="fill:#ccc" d="M652,480 l-306,0 0,61 306,0 0,-61z" />
<path style="fill:#ccc" d="M665,599 l-332,0 0,53 332,0 0,-53z" />
<path style="fill:#ccc" d="M618,737 l-238,0 0,18 238,0 0,-18z" />
<path style="fill:none;stroke:#000;stroke-width:2" d="M561,28 l-18,0 0,28 18,0 0,-28" />
<path style="fill:none;stroke:#000;stroke-width:2" d="M852,28 l-19,0 0,28 19,0 0,-28" />

</svg>
