<?xml version="1.0" encoding="utf-8" standalone="no"?><!DOCTYPE svg PUBLIC "-//W3C//DTD SVG 1.1//EN" "http://www.w3.org/Graphics/SVG/1.1/DTD/svg11-flat-20030114.dtd"><svg width="684" height="999" version="1.1" xmlns="http://www.w3.org/2000/svg" xmlns:xlink="http://www.w3.org/1999/xlink">

<path style="fill:#fc0" d="M655,28 l-156,0 -156,0 -159,0 -156,0 0,117 0,118 0,117 0,119 0,117 0,119 0,117 0,118 156,0 159,0 156,0 156,0 0,-118 0,-117 0,-119 0,-117 0,-119 0,-117 0,-118 0,-117z" />
<path style="fill:#fc0" d="M237,938 l68,32 73,0 70,-32 62,-62 51,-89 38,-107 17,-119 0,-124 -17,-121 -38,-106 -51,-88 -62,-62 -70,-32 -73,0 -70,32 -62,62 -51,88 -36,108 -19,119 0,124 19,119 36,107 51,89 64,62z" />
<path style="fill:#ffc400" d="M241,921 l66,32 69,0 68,-32 59,-60 51,-83 34,-104 19,-115 0,-120 -19,-115 -34,-104 -51,-85 -59,-58 -68,-32 -69,0 -66,30 -60,60 -50,85 -35,104 -17,115 0,118 17,117 35,104 50,83 60,60z" />
<path style="fill:#ffbf00" d="M245,904 l64,32 66,0 64,-32 58,-56 47,-81 32,-100 19,-111 0,-115 -19,-112 -32,-98 -47,-82 -58,-57 -64,-30 -66,0 -64,30 -59,57 -47,82 -32,98 -19,112 0,115 19,111 32,100 47,81 59,56z" />
<path style="fill:#ffb800" d="M248,889 l63,28 62,0 62,-28 55,-55 45,-79 32,-94 17,-107 0,-112 -17,-105 -32,-96 -45,-78 -55,-54 -62,-30 -62,0 -63,28 -54,56 -45,78 -33,96 -17,105 0,112 17,107 33,94 45,79 54,55z" />
<path style="fill:#ffb200" d="M254,874 l58,26 61,0 58,-26 53,-53 43,-75 29,-92 16,-102 0,-106 -16,-103 -29,-91 -43,-75 -53,-53 -58,-28 -61,0 -60,28 -51,53 -43,75 -30,91 -17,103 0,106 17,102 30,92 43,75 53,53z" />
<path style="fill:#ffab00" d="M258,857 l54,27 59,0 56,-27 49,-51 42,-71 28,-87 15,-98 0,-102 -15,-98 -28,-89 -42,-71 -49,-51 -56,-27 -59,0 -54,27 -51,51 -42,71 -28,89 -15,98 0,100 15,100 28,87 42,71 51,51z" />
<path style="fill:#ffa600" d="M261,842 l53,24 55,0 53,-24 47,-49 39,-68 29,-85 13,-92 0,-98 -13,-94 -29,-83 -39,-68 -47,-49 -53,-26 -55,0 -53,26 -47,49 -39,68 -26,83 -16,94 0,96 16,94 26,85 39,68 47,49z" />
<path style="fill:#ff9e00" d="M265,825 l51,24 51,0 51,-24 45,-45 36,-66 26,-79 13,-91 0,-92 -13,-89 -26,-79 -36,-66 -45,-47 -51,-22 -51,0 -51,22 -45,47 -36,66 -26,79 -13,89 0,92 13,91 26,79 36,66 45,45z" />
<ellipse style="fill:#f90" cx="342" cy="499" rx="186" ry="334" />
<ellipse style="fill:#ff9100" cx="342" cy="499" rx="175" ry="317" />
<ellipse style="fill:#ff8c00" cx="341" cy="499" rx="164" ry="300" />
<ellipse style="fill:#ff8500" cx="341" cy="499" rx="153" ry="283" />
<ellipse style="fill:#ff7f00" cx="341" cy="498" rx="142" ry="265" />
<ellipse style="fill:#ff7800" cx="341" cy="498" rx="131" ry="248" />
<ellipse style="fill:#ff7300" cx="341" cy="498" rx="119" ry="231" />
<ellipse style="fill:#ff6b00" cx="341" cy="498" rx="108" ry="214" />
<ellipse style="fill:#f60" cx="343" cy="499" rx="98" ry="196" />
<path style="fill:none;stroke:#000;stroke-width:2" d="M655,28 l-156,0 -156,0 -159,0 -156,0 0,117 0,118 0,117 0,119 0,117 0,119 0,117 0,118 156,0 159,0 156,0 156,0 0,-118 0,-117 0,-119 0,-117 0,-119 0,-117 0,-118 0,-117" />

</svg>
