<?xml version="1.0" encoding="utf-8" standalone="no"?><!DOCTYPE svg PUBLIC "-//W3C//DTD SVG 1.1//EN" "http://www.w3.org/Graphics/SVG/1.1/DTD/svg11-flat-20030114.dtd"><svg width="849" height="999" version="1.1" xmlns="http://www.w3.org/2000/svg" xmlns:xlink="http://www.w3.org/1999/xlink">

<path style="fill:#7f7f7f" d="M821,970 l0,-471 -194,-150 0,-321 -406,0 0,321 -193,150 0,471 793,0z" />
<path style="fill:#999" d="M755,970 l0,-471 -162,-150 0,-321 -341,0 0,321 -162,150 0,471 665,0z" />
<path style="fill:#b2b2b2" d="M649,970 l0,-471 -109,-150 0,-321 -232,0 0,321 -109,150 0,471 450,0z" />
<path style="fill:#ccc" d="M521,970 l0,-471 -48,-150 0,-321 -100,0 0,321 -46,150 0,471 194,0z" />
<path style="fill:none;stroke:#000;stroke-width:2" d="M821,970 l0,-471 -194,-150 0,-321 -406,0 0,321 -193,150 0,471 793,0" />
<path style="fill:none;stroke:#7f7f7f;stroke-width:2" d="M627,349 l-406,0" />
<path style="fill:none;stroke:#7f7f7f;stroke-width:2" d="M821,499 l-793,0" />
<path style="fill:none;stroke:#7f7f7f;stroke-width:2" d="M412,349 l0,107" />
<path style="fill:#366;stroke:#000;stroke-width:2" d="M799,521 l-750,0 0,428 750,0 0,-428z" />
<path style="fill:#ff0;stroke:#000;stroke-width:2" d="M714,821 l4,9 3,1 2,-1 11,-24 8,-37 4,-32 3,-37 1,-19 5,28 3,31 10,29 4,1 4,-2 11,-16 7,-16 0,16 -1,28 -4,36 -5,31 -5,28 -5,28 -2,9 -21,14 -28,13 -34,5 -37,3 -25,2 -14,-1 -27,-2 -38,-2 -37,0 -38,-1 -39,-3 -29,0 -29,1 -28,2 -29,2 -31,2 -33,-1 -36,-4 -41,-7 -22,-6 -28,4 -32,-8 -22,-21 -12,-25 -9,-36 -4,-22 2,-11 4,-32 3,-32 4,-32 4,-33 3,-32 2,38 4,9 3,2 5,-1 16,-22 13,-22 2,-3 2,1 -4,41 -11,23 -8,27 -3,16 10,25 10,29 10,23 6,6 24,-10 -3,-29 -10,-27 -3,-17 6,-4 5,-34 -5,-29 0,-14 2,-3 5,-1 33,24 19,17 -7,27 -7,27 -6,26 -2,5 15,-28 5,-6 3,-2 3,3 0,38 -2,27 -3,38 1,17 4,-3 5,-34 3,-29 4,-12 4,-2 5,1 25,34 13,23 -8,-24 -8,-25 -11,-35 -5,-29 2,-28 16,-25 14,-27 20,18 21,18 6,28 -6,38 3,27 24,9 29,-1 7,8 -7,-25 -16,-20 -2,-34 8,-23 16,-27 6,-30 6,-32 8,-27 8,-14 4,-5 0,9 8,27 15,29 12,34 2,29 -6,35 -16,42 15,22 11,10 2,-1 2,-3 7,-33 2,-33 3,1 10,26 3,16 2,0 8,-12 -1,-33 -5,-31 -4,-33 -4,-28 1,-18 3,-3 4,1 28,39 4,2 23,-13 23,-17 5,1 4,3 7,36 1,24 -2,29 -15,22 -10,29 3,34 20,24 5,3 4,0 4,-3 4,-7 -9,-27 3,-28 10,-20 13,-26 7,-26 10,-15 4,0 16,22 16,40 4,0 23,-11 6,-2 2,4 -13,28 -1,6 5,25 -7,30 -11,32 -8,21 20,-18 17,-23 16,-21 12,-8z" />
<path style="fill:#ff7f00" d="M697,852 l5,9 3,2 4,0 4,-1 17,-22 11,-32 6,-29 3,-33 5,25 3,29 6,21 3,3 3,2 13,-18 6,-14 0,14 -4,32 -10,27 -11,23 -9,27 -26,14 -31,7 -35,4 -36,3 -22,2 -13,-2 -35,-3 -34,-1 -33,-1 -34,-1 -37,-2 -38,1 -38,3 -41,2 -30,-1 -32,-3 -37,-7 -21,-5 -30,4 -29,-2 -30,-12 -24,-29 -11,-30 -7,-27 -2,-7 0,-7 0,-8 4,-30 9,-33 5,-27 2,-10 2,32 2,6 3,-1 10,-22 11,-34 5,-15 -4,34 -3,30 -1,33 -1,8 12,23 17,25 22,21 8,3 10,-1 6,-6 -4,-31 -10,-25 -3,-17 11,-8 3,-32 -5,-26 0,-2 10,28 7,18 -1,28 4,26 6,25 15,23 3,0 13,-26 5,-11 2,-1 -7,29 -6,27 -2,21 15,-24 28,-8 22,10 -7,-29 -7,-29 -8,-31 -2,-31 12,-26 15,-22 2,-6 15,22 7,26 -5,34 -1,29 7,25 19,26 24,10 7,-1 18,-19 6,-26 -11,-25 -17,-22 4,-29 4,-11 14,-27 2,-28 4,-26 5,-10 4,-4 0,8 12,25 16,27 4,30 -5,28 -15,37 16,23 20,19 4,0 11,-23 3,-29 6,3 12,17 3,0 10,-15 -1,-29 -4,-28 -4,-29 -2,-34 1,-6 3,-3 4,2 25,35 4,2 21,-21 11,-15 3,-1 2,2 4,30 -2,47 -16,23 -13,23 -3,34 1,12 21,16 23,13 25,4 6,-7 -1,-30 10,-24 1,-6 6,-26 -2,-29 -1,-22 1,2 13,28 7,20 4,1 26,-11 2,3 -13,27 11,25 2,30 -6,26 -12,35 21,-20 23,-26 14,-10z" />
<path style="fill:#f00" d="M697,874 l13,24 14,5 14,-26 3,-25 19,-20 5,-5 0,0 0,1 -12,31 -10,39 -2,17 -26,10 -34,9 -33,5 -28,3 -32,3 -19,2 -10,-1 -29,-2 -36,-1 -36,-1 -30,-2 -32,0 -30,2 -32,2 -35,0 -27,-2 -30,-6 -30,-8 -26,-5 -33,-5 -29,-4 -24,-11 -19,-23 -5,-11 20,17 1,0 -16,-24 -17,-30 -7,-20 -1,-9 2,-8 6,-6 2,29 2,-1 13,-31 9,-27 2,-5 1,-1 -4,32 -1,30 -2,23 21,25 20,18 20,15 25,12 32,-7 25,-13 5,-6 1,-8 9,-3 4,-3 1,-3 -1,-1 -2,2 2,37 19,19 7,3 13,-26 14,-13 -7,-24 -7,-34 0,-17 1,-2 1,1 15,21 13,23 13,23 19,26 17,8 14,-33 3,-31 -4,-30 -4,-41 1,-18 1,-2 2,1 11,28 7,28 3,13 19,21 26,12 25,-13 14,-23 11,-28 6,-25 3,-21 1,-1 -1,0 -3,28 -3,32 -4,46 23,18 29,11 7,-1 4,-6 4,9 5,5 5,1 25,-12 15,-13 1,2 -9,28 -7,19 27,-10 23,-10 24,-9 24,-11 3,-1z" />
<path style="fill:#ff0;stroke:#000;stroke-width:2" d="M690,731 l-7,-7 -8,-8 -6,-7 -6,-9 -4,-9 -1,-5 0,-5 0,-6 3,-12 2,-7 5,-8 5,-8 3,-8 6,-13 5,-12 3,-11 3,-10 3,-10 4,-11 2,-5 6,9 5,9 3,8 5,12 3,11 0,3 0,4 -1,11 1,8 -4,9 -5,9 -5,8 -4,9 -4,13 -3,9 -3,10 -2,14 -4,15z" />
<path style="fill:#f60" d="M685,722 l-5,-7 -6,-6 -5,-7 -7,-14 -1,-8 1,-9 4,-10 8,-13 5,-12 4,-9 3,-9 2,-9 3,-12 2,-9 2,-5 8,16 6,12 2,9 1,7 0,9 0,8 -3,8 -5,9 -3,7 -3,9 -4,13 -3,8 -3,11 -3,13z" />
<path style="fill:#f00" d="M685,704 l-7,-7 -6,-8 -2,-10 3,-13 5,-9 6,-14 3,-11 3,-11 2,-6 6,10 3,7 3,10 0,9 0,3 -4,8 -6,11 -3,7 -2,10 -4,14z" />
<path style="fill:#ff0;stroke:#000;stroke-width:2" d="M327,697 l-6,-6 -6,-6 -6,-7 -5,-7 -3,-7 -1,-9 1,-9 5,-11 4,-8 6,-13 5,-11 3,-11 3,-9 2,-8 3,-9 3,-9 2,-5 9,16 6,12 3,9 1,13 -1,9 1,4 -3,8 -5,8 -5,7 -4,12 -4,14 -3,9 -2,11 -3,13z" />
<path style="fill:#f60" d="M325,688 l-10,-11 -9,-10 -4,-12 1,-7 3,-9 7,-12 4,-9 4,-9 3,-11 3,-9 3,-11 2,-4 7,12 4,10 4,12 -1,11 1,3 -4,9 -4,7 -4,8 -2,9 -4,13 -2,9 -2,11z" />
<path style="fill:#ff0;stroke:#000;stroke-width:2" d="M202,663 l9,-10 8,-11 3,-13 0,-8 -4,-8 -6,-11 -5,-10 -3,-8 -3,-11 -3,-11 -2,-11 -2,-4 -6,13 -5,10 -3,13 0,12 0,3 3,9 5,7 3,8 3,9 4,13 2,9 2,10z" />
<path style="fill:#f60" d="M204,656 l7,-9 7,-9 2,-10 -2,-13 -5,-8 -4,-8 -5,-12 -3,-11 -4,-12 -5,11 -4,8 -3,10 2,9 2,9 5,8 4,11 3,11 3,15z" />
<ellipse style="fill:#f00" cx="203" cy="615" rx="11" ry="29" />
<path style="fill:#ff0;stroke:#000;stroke-width:2" d="M581,646 l9,-7 6,-8 3,-11 -1,-7 -2,-8 -5,-9 -3,-7 -5,-13 -2,-11 -4,-13 -7,11 -3,8 -3,11 1,9 -1,2 4,10 5,11 2,6 3,11 3,15z" />
<ellipse style="fill:#f60" cx="583" cy="604" rx="14" ry="37" />
<ellipse style="fill:#f00" cx="583" cy="607" rx="9" ry="24" />

</svg>
