<?xml version="1.0" encoding="utf-8" standalone="no"?><!DOCTYPE svg PUBLIC "-//W3C//DTD SVG 1.1//EN" "http://www.w3.org/Graphics/SVG/1.1/DTD/svg11-flat-20030114.dtd"><svg width="999" height="727" version="1.1" xmlns="http://www.w3.org/2000/svg" xmlns:xlink="http://www.w3.org/1999/xlink">

<path style="fill:#324c7f;stroke:#000;stroke-width:2" d="M931,542 l-276,0 0,138 276,0 0,-138z" />
<path style="fill:#00194c" d="M872,607 l-119,0 0,43 119,0 0,-43z" />
<path style="fill:#333;stroke:#000;stroke-width:2" d="M220,37 l28,0 0,34 -28,0 0,-34z" />
<path style="fill:#333;stroke:#000;stroke-width:2" d="M175,37 l30,0 0,34 -30,0 0,-34z" />
<path style="fill:#333;stroke:#000;stroke-width:2" d="M131,37 l29,0 0,34 -29,0 0,-34z" />
<path style="fill:#333;stroke:#000;stroke-width:2" d="M622,37 l-138,0 0,34 138,0 0,-34z" />
<path style="fill:#98b2e5" d="M716,150 l-61,0 0,236 61,0 0,-236z" />
<path style="fill:#98b2e5" d="M655,71 l-627,0 0,628 627,0 0,-628z" />
<path style="fill:#93ade0" d="M655,522 l-627,-255 0,432 627,0 0,-177z" />
<path style="fill:#93ade0" d="M716,267 l-61,-25 0,144 61,0 0,-119z" />
<path style="fill:#8ea8db" d="M655,548 l-627,-254 0,405 627,0 0,-151z" />
<path style="fill:#8ea8db" d="M716,278 l-61,-24 0,132 61,0 0,-108z" />
<path style="fill:#89a3d6" d="M655,586 l-627,-255 0,368 627,0 0,-113z" />
<path style="fill:#89a3d6" d="M716,286 l-61,-23 0,123 61,0 0,-100z" />
<path style="fill:#98b2e5;stroke:#000;stroke-width:2" d="M970,699 l-19,-117 -79,0 0,117 98,0z" />
<path style="fill:#8ea8db" d="M655,71 l-627,0 0,111 627,0 0,-111z" />
<path style="fill:#849ed1" d="M655,71 l-627,0 0,85 627,0 0,-85z" />
<path style="fill:#7c96c9" d="M655,71 l-627,0 0,68 627,0 0,-68z" />
<path style="fill:#728cbf" d="M655,71 l-627,0 0,53 627,0 0,-53z" />
<path style="fill:#6882b5" d="M655,71 l-627,0 0,40 627,0 0,-40z" />
<path style="fill:#5e78ab" d="M655,71 l-627,0 0,26 627,0 0,-26z" />
<path style="fill:#5670a3" d="M655,71 l-627,0 0,17 627,0 0,-17z" />
<path style="fill:#4c6699" d="M655,71 l-627,0 0,8 627,0 0,-8z" />
<path style="fill:none;stroke:#000;stroke-width:2" d="M655,71 l-627,0 0,628 627,0 0,-628" />
<path style="fill:#324c7f" d="M655,426 l21,0 0,18 40,0 0,19 196,0 0,98 -196,0 0,21 -40,0 0,19 -21,0 0,-175z" />
<path style="fill:none;stroke:#4c6699;stroke-width:2" d="M655,346 l-627,0" />
<path style="fill:none;stroke:#4c6699;stroke-width:2" d="M655,655 l-627,0" />
<circle style="fill:none;stroke:#4c6699;stroke-width:2" cx="484" cy="386" r="15" />
<circle style="fill:none;stroke:#4c6699;stroke-width:2" cx="67" cy="621" r="15" />
<path style="fill:none;stroke:#000;stroke-width:2" d="M716,150 l-61,0 0,236 61,0 0,-236" />
<path style="fill:#445e91" d="M655,437 l21,0 0,17 38,0 0,17 198,0 0,83 -198,0 0,17 -38,0 0,16 -21,0 0,-150z" />
<path style="fill:#546ea1" d="M655,450 l21,0 0,13 38,0 0,15 198,0 0,68 -198,0 0,15 -38,0 0,14 -21,0 0,-125z" />
<path style="fill:#657fb2" d="M655,463 l21,0 0,12 38,0 0,11 198,0 0,54 -198,0 0,10 -38,0 0,11 -21,0 0,-98z" />
<path style="fill:#7791c4" d="M655,476 l21,0 0,8 38,0 0,9 198,0 0,40 -198,0 0,7 -38,0 0,8 -21,0 0,-72z" />
<path style="fill:#87a1d4" d="M655,490 l21,0 0,5 38,0 0,4 198,0 0,26 -198,0 0,6 -38,0 0,4 -21,0 0,-45z" />
<path style="fill:#98b2e5" d="M655,503 l21,0 0,2 40,0 0,2 196,0 0,11 -196,0 0,2 -40,0 0,2 -21,0 0,-19z" />
<path style="fill:none;stroke:#000;stroke-width:2" d="M655,426 l21,0 0,18 40,0 0,19 196,0 0,98 -196,0 0,21 -40,0 0,19 -21,0 0,-175" />
<path style="fill:#324c7f;stroke:#000;stroke-width:2" d="M691,576 l-15,0 0,10 15,0 0,-10z" />
<path style="fill:#324c7f;stroke:#000;stroke-width:2" d="M691,537 l-15,0 0,9 15,0 0,-9z" />
<path style="fill:#324c7f;stroke:#000;stroke-width:2" d="M691,439 l-15,0 0,9 15,0 0,-9z" />
<path style="fill:#324c7f;stroke:#000;stroke-width:2" d="M691,478 l-15,0 0,10 15,0 0,-10z" />
<path style="fill:none;stroke:#98b2e5;stroke-width:2" d="M716,561 l0,-98" />
<path style="fill:none;stroke:#98b2e5;stroke-width:2" d="M676,582 l0,-138" />
<path style="fill:#666;stroke:#000;stroke-width:2" d="M622,28 l73,0 0,43 -73,0 0,-43z" />
<path style="fill:#666;stroke:#000;stroke-width:2" d="M671,71 l9,0 0,34 -9,0 0,-34z" />
<path style="fill:#000" d="M116,242 l46,0 0,46 -46,0 0,-46z" />
<path style="fill:#000" d="M887,607 l44,0 0,43 -44,0 0,-43z" />
<path style="fill:#999" d="M107,228 l-64,0 0,88 64,0 0,-88z" />
<path style="fill:#b2b2b2;stroke:#666;stroke-width:2" d="M135,288 l0,34 60,0 0,-266 -11,0 0,256 -38,0 0,-24 -11,0z" />
<path style="fill:#b2b2b2;stroke:#666;stroke-width:2" d="M891,582 l0,-15 -160,0 -11,9 -172,0 0,-520 -9,0 0,530 186,0 10,-10 147,0 0,6 9,0z" />
<path style="fill:#ccc" d="M631,242 l-53,0 0,46 53,0 0,-46z" />
<path style="fill:#e5e5e5" d="M631,178 l-19,0 0,36 19,0 0,-36z" />
<path style="fill:#000" d="M625,354 l4,-8 -4,-7 -9,0 -4,7 4,8 9,0z" />
<path style="fill:none;stroke:#7f7f7f;stroke-width:2" d="M116,242 l0,46 44,0" />
<path style="fill:none;stroke:#7f7f7f;stroke-width:2" d="M887,607 l0,43 44,0" />
<path style="fill:none;stroke:#e5e5e5;stroke-width:2" d="M162,288 l0,-46 -46,0" />
<path style="fill:none;stroke:#e5e5e5;stroke-width:2" d="M931,650 l0,-43 -44,0" />
<path style="fill:none;stroke:#000;stroke-width:2" d="M872,671 l-79,0 -40,-12" />
<path style="fill:none;stroke:#000;stroke-width:2" d="M676,631 l4,-45" />
<path style="fill:none;stroke:#000;stroke-width:2" d="M940,582 l2,-2 1,-2 1,-3 0,-5 0,-5 0,-5 -2,-6 -1,-7 -2,-7 -3,-8 -3,-7 -3,-8 -4,-8 -4,-9 -5,-8 -5,-8" />
<path style="fill:none;stroke:#000;stroke-width:2" d="M833,640 l-5,-9 -4,-9 -5,-9 -5,-9 -4,-10 -4,-10 -1,-3 1,-4 3,-10 7,-10 8,-8 9,-7 9,-4 9,-2 10,-1 10,0 11,1 12,0 13,-1 14,-2 5,-1 1,-2 1,-1 -1,-2 -8,-6 -7,-3" />
<path style="fill:none;stroke:#000;stroke-width:2" d="M691,640 l-15,-9" />
<circle style="fill:#4c4c4c;stroke:#000;stroke-width:2" cx="728" cy="633" r="37" />
<path style="fill:#4c6699;stroke:#000;stroke-width:2" d="M661,105 l30,0 0,11 -30,0 0,-11z" />

</svg>
