<?xml version="1.0" encoding="utf-8" standalone="no"?><!DOCTYPE svg PUBLIC "-//W3C//DTD SVG 1.1//EN" "http://www.w3.org/Graphics/SVG/1.1/DTD/svg11-flat-20030114.dtd"><svg width="834" height="999" version="1.1" xmlns="http://www.w3.org/2000/svg" xmlns:xlink="http://www.w3.org/1999/xlink">

<path style="fill:#4c4c4c;stroke:#000;stroke-width:2" d="M499,876 l-70,0 0,47 70,0 0,-47z" />
<path style="fill:#b2b2b2;stroke:#000;stroke-width:2" d="M476,239 l-437,0 0,660 437,0 0,-660z" />
<path style="fill:#ccc" d="M806,28 l-330,0 0,895 330,0 0,-895z" />
<path style="fill:#c7c7c7" d="M806,378 l-330,-205 0,750 330,0 0,-545z" />
<path style="fill:#c2c2c2" d="M806,518 l-330,-207 0,612 330,0 0,-405z" />
<path style="fill:#bdbdbd" d="M806,689 l-330,-205 0,439 330,0 0,-234z" />
<path style="fill:none;stroke:#000;stroke-width:2" d="M806,28 l-330,0 0,895 330,0 0,-895" />
<path style="fill:none;stroke:#999;stroke-width:2" d="M806,145 l-330,0" />
<path style="fill:none;stroke:#999;stroke-width:2" d="M476,804 l330,0" />
<path style="fill:none;stroke:#999;stroke-width:2" d="M759,804 l0,-659" />
<path style="fill:none;stroke:#999;stroke-width:2" d="M523,145 l0,659" />
<path style="fill:none;stroke:#999;stroke-width:2" d="M640,804 l0,-659" />
<path style="fill:#7f7f7f" d="M663,493 l-6,-16 -11,0 -6,16 6,6 6,47 5,-47 6,-6z" />
<path style="fill:#999;stroke:#000;stroke-width:2" d="M806,970 l-778,0 0,-47 778,0 0,47z" />
<path style="fill:#b2b2b2" d="M782,50 l-70,0 0,72 70,0 0,-72z" />
<path style="fill:#b2b2b2" d="M687,50 l-94,0 0,72 94,0 0,-72z" />
<path style="fill:#b2b2b2" d="M569,50 l-70,0 0,72 70,0 0,-72z" />
<path style="fill:#b2b2b2" d="M782,829 l-70,0 0,70 70,0 0,-70z" />
<path style="fill:#b2b2b2" d="M687,829 l-94,0 0,70 94,0 0,-70z" />
<path style="fill:#b2b2b2" d="M569,829 l-70,0 0,70 70,0 0,-70z" />
<path style="fill:none;stroke:#4c4c4c;stroke-width:2" d="M414,333 l0,166" />
<path style="fill:none;stroke:#4c4c4c;stroke-width:2" d="M376,333 l0,166" />
<path style="fill:none;stroke:#4c4c4c;stroke-width:2" d="M339,333 l0,166" />
<path style="fill:none;stroke:#4c4c4c;stroke-width:2" d="M301,333 l0,166" />
<path style="fill:#666" d="M452,263 l-189,0 0,70 189,0 0,-70z" />
<path style="fill:none;stroke:#fff;stroke-width:2" d="M452,333 l0,-70 -189,0" />
<path style="fill:none;stroke:#000;stroke-width:2" d="M452,333 l-189,0 0,-70" />
<path style="fill:#ccc;stroke:#000;stroke-width:2" d="M452,499 l-353,0 0,424 353,0 0,-424z" />
<path style="fill:none;stroke:#e5e5e5;stroke-width:2" d="M429,912 l0,-343 -307,0" />
<path style="fill:none;stroke:#999;stroke-width:2" d="M429,912 l-307,0 0,-343" />
<path style="fill:#999" d="M382,521 l-213,0 0,14 213,0 0,-14z" />
<path style="fill:#ccc;stroke:#000;stroke-width:2" d="M99,899 l-60,0 -11,24 71,0 0,-24z" />
<path style="fill:#e5e5e5" d="M158,369 l-72,0 0,105 72,0 0,-105z" />
<path style="fill:#e5cb98" d="M158,369 l-72,0 0,-36 72,0 0,36z" />
<path style="fill:#ff4c4c" d="M618,322 l-72,0 0,-36 72,0 0,36z" />
<path style="fill:#e5e5e5" d="M604,333 l-47,0 0,13 47,0 0,-13z" />
<path style="fill:#333" d="M604,275 l-47,0 0,-70 47,0 0,70z" />
<circle style="fill:#000" cx="192" cy="287" r="34" />
<circle style="fill:#000" cx="110" cy="286" r="35" />
<circle style="fill:#e5e5e5" cx="109" cy="287" r="31" />
<circle style="fill:#e5e5e5" cx="192" cy="287" r="31" />

</svg>
