<?xml version="1.0" encoding="utf-8" standalone="no"?><!DOCTYPE svg PUBLIC "-//W3C//DTD SVG 1.1//EN" "http://www.w3.org/Graphics/SVG/1.1/DTD/svg11-flat-20030114.dtd"><svg width="999" height="783" version="1.1" xmlns="http://www.w3.org/2000/svg" xmlns:xlink="http://www.w3.org/1999/xlink">

<path style="fill:#004c7f;stroke:#000;stroke-width:2" d="M912,539 l-119,0 -38,97 157,0 0,-97z" />
<path style="fill:#4cb2e5" d="M735,48 l-707,0 0,687 707,0 0,-687z" />
<path style="fill:#47ade0" d="M735,536 l-707,-287 0,486 707,0 0,-199z" />
<path style="fill:#42a8db" d="M735,565 l-707,-287 0,457 707,0 0,-170z" />
<path style="fill:#3da3d6" d="M735,607 l-707,-287 0,415 707,0 0,-128z" />
<path style="fill:#3da3d6;stroke:#000;stroke-width:2" d="M970,755 l-942,0 0,-20 942,0 0,20z" />
<path style="fill:none;stroke:#000;stroke-width:2" d="M735,48 l-707,0 0,687 707,0 0,-687" />
<path style="fill:#069;stroke:#000;stroke-width:2" d="M775,165 l-40,0 0,275 40,0 0,-275z" />
<path style="fill:none;stroke:#069;stroke-width:2" d="M499,48 l0,687" />
<path style="fill:none;stroke:#069;stroke-width:2" d="M263,48 l0,687" />
<path style="fill:#4cb2e5;stroke:#000;stroke-width:2" d="M932,479 l-79,0 0,157 79,0 0,-157z" />
<circle style="fill:#4cb2e5;stroke:#000;stroke-width:2" cx="803" cy="568" r="48" />
<path style="fill:#39c;stroke:#000;stroke-width:2" d="M912,636 l-157,0 0,60 157,0 0,-60z" />
<path style="fill:#036;stroke:#000;stroke-width:2" d="M755,598 l-20,0 0,137 20,0 0,-137z" />
<path style="fill:#b2b2b2" d="M685,68 l-87,0 0,9 87,0 0,-9z" />
<path style="fill:#b2b2b2" d="M598,106 l0,-38 -11,0 0,38 11,0z" />
<path style="fill:#b2b2b2" d="M558,607 l0,-442 -10,0 0,442 10,0z" />
<path style="fill:#b2b2b2" d="M921,607 l-373,0 0,11 373,0 0,-11z" />
<path style="fill:#b2b2b2" d="M547,210 l-30,-51 -9,4 31,51 8,-4z" />
<path style="fill:#b2b2b2;stroke:#000;stroke-width:2" d="M566,214 l30,-51 -9,-4 -29,51 8,4z" />
<path style="fill:#fff" d="M554,607 l0,-442 -2,0 0,442 2,0z" />
<path style="fill:#fff" d="M921,610 l-373,0 0,4 373,0 0,-4z" />
<path style="fill:#fff" d="M563,212 l29,-51 -2,-2 -29,51 2,2z" />
<path style="fill:#fff" d="M545,212 l-31,-51 -2,0 29,51 4,0z" />
<path style="fill:#fff" d="M594,106 l0,-38 -4,0 0,38 4,0z" />
<path style="fill:#fff" d="M685,70 l-87,0 0,3 87,0 0,-3z" />
<path style="fill:none;stroke:#000;stroke-width:2" d="M558,607 l0,-442 -10,0 0,442 10,0" />
<path style="fill:none;stroke:#000;stroke-width:2" d="M921,607 l-373,0 0,11 373,0 0,-11" />
<path style="fill:none;stroke:#000;stroke-width:2" d="M547,210 l-30,-51 -9,4 31,51 8,-4" />
<path style="fill:none;stroke:#000;stroke-width:2" d="M598,106 l0,-38 -11,0 0,38 11,0" />
<path style="fill:none;stroke:#000;stroke-width:2" d="M685,68 l-87,0 0,9 87,0 0,-9" />
<path style="fill:#999" d="M523,106 l-19,0 0,59 19,0 0,-59z" />
<path style="fill:#999" d="M601,106 l-18,0 0,59 18,0 0,-59z" />
<path style="fill:#999" d="M563,106 l-20,0 0,59 20,0 0,-59z" />
<path style="fill:#ccc" d="M569,205 l-30,0 0,58 30,0 0,-58z" />
<path style="fill:none;stroke:#000;stroke-width:2" d="M537,205 l0,58 32,0" />
<path style="fill:none;stroke:#000;stroke-width:2" d="M504,106 l0,59 19,0" />
<path style="fill:none;stroke:#000;stroke-width:2" d="M543,106 l0,59 20,0" />
<path style="fill:none;stroke:#000;stroke-width:2" d="M583,106 l0,59 18,0" />
<path style="fill:none;stroke:#fff;stroke-width:2" d="M569,263 l0,-58 -30,0" />
<path style="fill:none;stroke:#fff;stroke-width:2" d="M523,165 l0,-59 -19,0" />
<path style="fill:none;stroke:#fff;stroke-width:2" d="M563,165 l0,-59 -20,0" />
<path style="fill:none;stroke:#fff;stroke-width:2" d="M601,165 l0,-59 -18,0" />
<path style="fill:#00194c" d="M758,170 l-18,0 0,265 18,0 0,-265z" />
<path style="fill:none;stroke:#000;stroke-width:2" d="M926,479 l0,157" />
<path style="fill:#036" d="M883,671 l-6,0 0,5 6,0 0,-5z" />
<path style="fill:#036" d="M833,671 l-5,0 0,5 5,0 0,-5z" />
<path style="fill:#666;stroke:#000;stroke-width:2" d="M696,406 l10,-9 0,-11 -10,-9 -12,0 -8,9 0,11 8,9 12,0z" />
<path style="fill:#333" d="M696,421 l0,-393 -11,0 0,393 11,0z" />
<path style="fill:#7f7f7f" d="M693,421 l0,-393 -4,0 0,393 4,0z" />
<path style="fill:none;stroke:#000;stroke-width:2" d="M696,421 l0,-393 -11,0 0,393 11,0" />
<path style="fill:#b2b2b2;stroke:#000;stroke-width:2" d="M696,461 l10,-10 0,-12 -10,-10 -12,0 -8,10 0,12 8,10 12,0z" />
<path style="fill:#b2b2b2" d="M714,440 l-49,0 0,10 49,0 0,-10z" />
<path style="fill:#fff" d="M714,444 l-49,0 0,2 49,0 0,-2z" />
<path style="fill:none;stroke:#000;stroke-width:2" d="M714,440 l-49,0 0,10 49,0 0,-10" />
<path style="fill:#b2b2b2" d="M695,470 l0,-49 -10,0 0,49 10,0z" />
<path style="fill:#fff" d="M691,470 l0,-49 -2,0 0,49 2,0z" />
<path style="fill:none;stroke:#000;stroke-width:2" d="M695,470 l0,-49 -10,0 0,49 10,0" />
<path style="fill:#333" d="M714,386 l-49,0 0,11 49,0 0,-11z" />
<path style="fill:#7f7f7f" d="M714,389 l-49,0 0,4 49,0 0,-4z" />
<path style="fill:none;stroke:#000;stroke-width:2" d="M714,386 l-49,0 0,11 49,0 0,-11" />
<path style="fill:#d9b366" d="M55,725 l7,-7 0,-11 -7,-7 -11,0 -7,7 0,11 7,7 11,0z" />
<path style="fill:#d9b366" d="M48,260 l4,-6 0,-5 -4,-6 -6,0 -5,6 0,5 5,6 6,0z" />
<path style="fill:#d9b366" d="M477,440 l2,-3 0,-4 -2,-1 -5,0 -2,1 0,4 2,3 5,0z" />
<path style="fill:#d9b366" d="M468,519 l7,-7 0,-9 -7,-8 -11,0 -7,8 0,9 7,7 11,0z" />
<path style="fill:#d9b366" d="M658,165 l7,-6 0,-11 -7,-7 -9,0 -8,7 0,11 8,6 9,0z" />

</svg>
