<?xml version="1.0" encoding="utf-8" standalone="no"?><!DOCTYPE svg PUBLIC "-//W3C//DTD SVG 1.1//EN" "http://www.w3.org/Graphics/SVG/1.1/DTD/svg11-flat-20030114.dtd"><svg width="999" height="705" version="1.1" xmlns="http://www.w3.org/2000/svg" xmlns:xlink="http://www.w3.org/1999/xlink">

<path style="fill:#324c7f;stroke:#000;stroke-width:2" d="M273,458 l-136,0 -7,-27 -27,-7 0,-102 55,-29 36,0 24,21 55,0 0,144z" />
<path style="fill:#ffe5b2;stroke:#000;stroke-width:2" d="M212,495 l-96,-96 10,-9 98,96 -12,9z" />
<path style="fill:none;stroke:#000;stroke-width:2" d="M192,567 l0,-21 13,-13" />
<path style="fill:#7f99cc;stroke:#000;stroke-width:2" d="M260,608 l-136,0 0,-28 136,0 0,28z" />
<path style="fill:#7f99cc" d="M218,595 l2,26 30,0 4,-26 -36,0z" />
<path style="fill:#7f99cc" d="M179,595 l2,26 30,0 3,-26 -35,0z" />
<path style="fill:#7f99cc" d="M137,595 l2,26 30,0 4,-26 -36,0z" />
<path style="fill:#98b2e5" d="M169,567 l-30,0 -2,28 36,0 -4,-28z" />
<path style="fill:#98b2e5" d="M211,567 l-30,0 -2,28 35,0 -3,-28z" />
<path style="fill:#98b2e5" d="M250,567 l-30,0 -2,28 36,0 -4,-28z" />
<path style="fill:none;stroke:#000;stroke-width:2" d="M250,567 l-30,0 -2,28 2,26 30,0 4,-26 -4,-28" />
<path style="fill:none;stroke:#000;stroke-width:2" d="M211,567 l-30,0 -2,28 2,26 30,0 3,-26 -3,-28" />
<path style="fill:none;stroke:#000;stroke-width:2" d="M169,567 l-30,0 -2,28 2,26 30,0 4,-26 -4,-28" />
<path style="fill:#193366;stroke:#000;stroke-width:2" d="M271,116 l-32,0 0,-54 32,0 0,54z" />
<path style="fill:#98b2e5" d="M271,130 l-79,0 0,137 79,0 0,-137z" />
<path style="fill:#93ade0" d="M271,196 l-79,-57 0,96 79,0 0,-39z" />
<path style="fill:#8ea8db" d="M271,227 l-79,-56 0,91 79,0 0,-35z" />
<path style="fill:#89a3d6" d="M271,258 l-79,-57 0,66 79,0 0,-9z" />
<path style="fill:none;stroke:#000;stroke-width:2" d="M271,130 l-79,0 0,137 79,0 0,-137" />
<path style="fill:#191919;stroke:#000;stroke-width:2" d="M635,28 l-40,0 0,5 40,0 0,-5z" />
<path style="fill:#191919;stroke:#000;stroke-width:2" d="M356,28 l-42,0 0,5 42,0 0,-5z" />
<path style="fill:#98b2e5" d="M957,33 l-688,0 0,602 688,0 0,-602z" />
<path style="fill:#93ade0" d="M957,326 l-688,-251 0,426 688,0 0,-175z" />
<path style="fill:#8ea8db" d="M957,463 l-688,-251 0,400 688,0 0,-149z" />
<path style="fill:#89a3d6" d="M957,601 l-688,-253 0,287 688,0 0,-34z" />
<path style="fill:none;stroke:#000;stroke-width:2" d="M957,33 l-688,0 0,602 688,0 0,-602" />
<path style="fill:#324c7f" d="M957,669 l-916,0 0,-27 916,0 0,27z" />
<path style="fill:#7f99cc;stroke:#000;stroke-width:2" d="M970,635 l-942,0 0,7 942,0 0,-7z" />
<path style="fill:#7f99cc;stroke:#000;stroke-width:2" d="M970,669 l-942,0 0,7 942,0 0,-7z" />
<path style="fill:#7f99cc;stroke:#000;stroke-width:2" d="M175,280 l-45,0 -34,21 0,115 79,0 0,-136z" />
<path style="fill:#191919" d="M141,339 l4,-6 -4,-6 -8,0 -3,6 3,6 8,0z" />
<path style="fill:#98b2e5" d="M269,471 l-60,0 -6,54 70,0 -4,-54z" />
<path style="fill:#7f99cc" d="M203,525 l6,55 60,0 4,-55 -70,0z" />
<path style="fill:none;stroke:#000;stroke-width:2" d="M269,471 l-60,0 -6,54 6,55 60,0 4,-55 -4,-54" />
<path style="fill:#ffb27f" d="M263,476 l-49,0 0,12 49,0 0,-12z" />
<path style="fill:#e5e5e5" d="M263,514 l-49,0 0,-26 49,0 0,26z" />

</svg>
