<?xml version="1.0" encoding="utf-8" standalone="no"?><!DOCTYPE svg PUBLIC "-//W3C//DTD SVG 1.1//EN" "http://www.w3.org/Graphics/SVG/1.1/DTD/svg11-flat-20030114.dtd"><svg width="999" height="987" version="1.1" xmlns="http://www.w3.org/2000/svg" xmlns:xlink="http://www.w3.org/1999/xlink">

<path style="fill:#324c7f;stroke:#000;stroke-width:2" d="M381,646 l-195,0 -12,-40 -37,-9 0,-149 77,-39 52,0 36,30 79,0 0,207z" />
<path style="fill:#ffe5b2;stroke:#000;stroke-width:2" d="M294,700 l-138,-139 13,-15 139,141 -14,13z" />
<path style="fill:none;stroke:#000;stroke-width:2" d="M262,801 l0,-28 21,-21" />
<path style="fill:#7f99cc;stroke:#000;stroke-width:2" d="M362,861 l-197,0 0,-39 197,0 0,39z" />
<path style="fill:#7f99cc" d="M300,841 l4,39 43,0 4,-39 -51,0z" />
<path style="fill:#7f99cc" d="M244,841 l3,39 44,0 3,-39 -50,0z" />
<path style="fill:#7f99cc" d="M186,841 l3,39 43,0 4,-39 -50,0z" />
<path style="fill:#98b2e5" d="M232,801 l-43,0 -3,40 50,0 -4,-40z" />
<path style="fill:#98b2e5" d="M291,801 l-44,0 -3,40 50,0 -3,-40z" />
<path style="fill:#98b2e5" d="M347,801 l-43,0 -4,40 51,0 -4,-40z" />
<path style="fill:none;stroke:#000;stroke-width:2" d="M347,801 l-43,0 -4,40 4,39 43,0 4,-39 -4,-40" />
<path style="fill:none;stroke:#000;stroke-width:2" d="M291,801 l-44,0 -3,40 3,39 44,0 3,-39 -3,-40" />
<path style="fill:none;stroke:#000;stroke-width:2" d="M232,801 l-43,0 -3,40 3,39 43,0 4,-39 -4,-40" />
<path style="fill:#193366;stroke:#000;stroke-width:2" d="M375,154 l-43,0 0,-77 43,0 0,77z" />
<path style="fill:#98b2e5" d="M375,174 l-113,0 0,195 113,0 0,-195z" />
<path style="fill:#93ade0" d="M375,270 l-113,-83 0,139 113,0 0,-56z" />
<path style="fill:#8ea8db" d="M375,315 l-113,-83 0,130 113,0 0,-47z" />
<path style="fill:#89a3d6" d="M375,358 l-113,-81 0,92 113,0 0,-11z" />
<path style="fill:none;stroke:#000;stroke-width:2" d="M375,174 l-113,0 0,195 113,0 0,-195" />
<path style="fill:#191919;stroke:#000;stroke-width:2" d="M901,28 l-59,0 0,9 59,0 0,-9z" />
<path style="fill:#191919;stroke:#000;stroke-width:2" d="M499,28 l-60,0 0,9 60,0 0,-9z" />
<path style="fill:#98b2e5" d="M950,37 l-575,0 0,864 575,0 0,-864z" />
<path style="fill:#93ade0" d="M950,456 l-575,-361 0,612 575,0 0,-251z" />
<path style="fill:#8ea8db" d="M950,653 l-575,-361 0,575 575,0 0,-214z" />
<path style="fill:#89a3d6" d="M950,850 l-575,-360 0,411 575,0 0,-51z" />
<path style="fill:none;stroke:#000;stroke-width:2" d="M950,37 l-575,0 0,864 575,0 0,-864" />
<path style="fill:#324c7f" d="M950,950 l-902,0 0,-40 902,0 0,40z" />
<path style="fill:#7f99cc;stroke:#000;stroke-width:2" d="M970,901 l-942,0 0,9 942,0 0,-9z" />
<path style="fill:#7f99cc;stroke:#000;stroke-width:2" d="M970,950 l-942,0 0,9 942,0 0,-9z" />
<path style="fill:#4c6699" d="M567,880 l-186,0 0,-618 186,147 0,471z" />
<path style="fill:#7f99cc;stroke:#000;stroke-width:2" d="M420,597 l-9,0 0,77 9,0 0,-77z" />
<path style="fill:#7f99cc;stroke:#000;stroke-width:2" d="M557,430 l-9,0 0,78 9,0 0,-78z" />
<path style="fill:#00194c" d="M882,801 l0,-450 -148,-177 -156,0 -79,-118 -118,0 0,137 18,0 0,79 179,137 0,392 304,0z" />
<path style="fill:#324c7f" d="M798,253 l-399,0 0,19 79,60 383,0 -63,-79z" />
<path style="fill:#324c7f" d="M882,409 l-304,0 0,79 304,0 0,-79z" />
<path style="fill:#324c7f" d="M882,801 l-304,0 0,79 304,0 0,-79z" />
<path style="fill:#00194c" d="M794,253 l-21,0 0,79 21,0 0,-79z" />
<path style="fill:#00194c" d="M755,253 l-21,0 0,79 21,0 0,-79z" />
<path style="fill:#00194c" d="M715,253 l-21,0 0,79 21,0 0,-79z" />
<path style="fill:#00194c" d="M676,253 l-21,0 0,79 21,0 0,-79z" />
<path style="fill:#00194c" d="M636,253 l-20,0 0,79 20,0 0,-79z" />
<path style="fill:#00194c" d="M597,253 l-21,0 0,79 21,0 0,-79z" />
<path style="fill:#00194c" d="M557,253 l-19,0 0,79 19,0 0,-79z" />
<path style="fill:#00194c" d="M518,253 l-19,0 0,79 19,0 0,-79z" />
<path style="fill:#00194c" d="M478,253 l-18,0 0,64 18,15 0,-79z" />
<path style="fill:#00194c" d="M441,253 l-21,0 0,34 21,15 0,-49z" />
<path style="fill:#00194c" d="M831,296 l-19,-24 0,60 19,0 0,-36z" />
<path style="fill:#00194c" d="M882,409 l-21,0 0,79 21,0 0,-79z" />
<path style="fill:#00194c" d="M842,409 l-20,0 0,79 20,0 0,-79z" />
<path style="fill:#00194c" d="M803,409 l-21,0 0,79 21,0 0,-79z" />
<path style="fill:#00194c" d="M764,409 l-21,0 0,79 21,0 0,-79z" />
<path style="fill:#00194c" d="M724,409 l-18,0 0,79 18,0 0,-79z" />
<path style="fill:#00194c" d="M685,409 l-19,0 0,79 19,0 0,-79z" />
<path style="fill:#00194c" d="M646,409 l-19,0 0,79 19,0 0,-79z" />
<path style="fill:#00194c" d="M852,801 l-21,0 0,79 21,0 0,-79z" />
<path style="fill:#00194c" d="M812,801 l-18,0 0,79 18,0 0,-79z" />
<path style="fill:#00194c" d="M773,801 l-18,0 0,79 18,0 0,-79z" />
<path style="fill:#00194c" d="M734,801 l-19,0 0,79 19,0 0,-79z" />
<path style="fill:#00194c" d="M694,801 l-18,0 0,79 18,0 0,-79z" />
<path style="fill:#00194c" d="M655,801 l-19,0 0,79 19,0 0,-79z" />
<path style="fill:#00194c" d="M617,801 l-20,0 0,79 20,0 0,-79z" />
<path style="fill:#00194c" d="M606,409 l-19,0 0,79 19,0 0,-79z" />
<path style="fill:none;stroke:#fff;stroke-width:2" d="M931,880 l-353,0 0,-471 -179,-137 0,-79 -18,0 0,-137" />
<path style="fill:#324c7f" d="M931,409 l-49,-58 0,529 49,0 0,-471z" />
<path style="fill:#284275" d="M905,381 l-23,-30 0,529 23,0 0,-499z" />
<path style="fill:#1e386b" d="M899,369 l-17,-18 0,529 17,0 0,-511z" />
<path style="fill:#163063" d="M891,366 l-9,-15 0,529 9,0 0,-514z" />
<path style="fill:#0c2659" d="M886,356 l-4,-5 0,529 4,0 0,-524z" />
<path style="fill:none;stroke:#000;stroke-width:2" d="M931,880 l0,-471 -197,-235 -156,0 -79,-118 -118,0" />
<path style="fill:#324c7f;stroke:#000;stroke-width:2" d="M696,125 l-50,0 0,-48 50,0 0,48z" />
<path style="fill:#e5e5e5" d="M690,120 l-39,0 0,-40 39,0 0,40z" />
<path style="fill:#f00" d="M685,116 l-21,-15 8,-6 13,21z" />
<path style="fill:#7f99cc;stroke:#000;stroke-width:2" d="M238,390 l-64,0 -49,30 0,166 113,0 0,-196z" />
<path style="fill:#191919" d="M189,475 l6,-8 -6,-9 -9,0 -6,9 6,8 9,0z" />
<path style="fill:#191919" d="M510,488 l-71,0 0,39 71,0 0,-39z" />
<path style="fill:#191919" d="M490,548 l-30,0 0,9 30,0 0,-9z" />
<path style="fill:#98b2e5" d="M373,664 l-86,0 -8,79 102,0 -8,-79z" />
<path style="fill:#7f99cc" d="M279,743 l8,79 86,0 8,-79 -102,0z" />
<path style="fill:none;stroke:#000;stroke-width:2" d="M373,664 l-86,0 -8,79 8,79 86,0 8,-79 -8,-79" />
<path style="fill:#ffb27f" d="M366,672 l-72,0 0,17 72,0 0,-17z" />
<path style="fill:#e5e5e5" d="M366,728 l-72,0 0,-39 72,0 0,39z" />

</svg>
