<?xml version="1.0" encoding="utf-8" standalone="no"?><!DOCTYPE svg PUBLIC "-//W3C//DTD SVG 1.1//EN" "http://www.w3.org/Graphics/SVG/1.1/DTD/svg11-flat-20030114.dtd"><svg width="999" height="636" version="1.1" xmlns="http://www.w3.org/2000/svg" xmlns:xlink="http://www.w3.org/1999/xlink">

<path style="fill:#033;stroke:#000;stroke-width:2" d="M937,571 l-133,0 0,-151 133,0 0,151z" />
<path style="fill:#366;stroke:#000;stroke-width:2" d="M886,363 l-34,0 0,132 75,0 0,-94 -41,-38z" />
<path style="fill:#699;stroke:#000;stroke-width:2" d="M970,482 l-9,-53 -38,-9 -28,0 0,113 75,0 0,-51z" />
<path style="fill:#333;stroke:#000;stroke-width:2" d="M786,60 l-38,0 0,56 38,0 0,-56z" />
<path style="fill:#000" d="M786,116 l-38,0 0,417 38,0 0,-417z" />
<path style="fill:#36c" d="M937,571 l-909,0 0,9 909,0 0,-9z" />
<path style="fill:#039" d="M748,116 l-720,0 0,417 720,0 0,-417z" />
<path style="fill:#083ba1" d="M748,129 l-720,0 0,391 720,0 0,-391z" />
<path style="fill:#0f42a8" d="M748,143 l-720,0 0,364 720,0 0,-364z" />
<path style="fill:#174ab0" d="M748,158 l-720,0 0,334 720,0 0,-334z" />
<path style="fill:#1c4fb5" d="M748,171 l-720,0 0,307 720,0 0,-307z" />
<path style="fill:#2457bd" d="M748,184 l-720,0 0,281 720,0 0,-281z" />
<path style="fill:#2b5ec4" d="M748,197 l-720,0 0,255 720,0 0,-255z" />
<path style="fill:#36c" d="M748,210 l-720,0 0,229 720,0 0,-229z" />
<path style="fill:#3b6ed4" d="M748,224 l-720,0 0,202 720,0 0,-202z" />
<path style="fill:#4275db" d="M748,239 l-720,0 0,171 720,0 0,-171z" />
<path style="fill:#4a7de3" d="M748,252 l-720,0 0,145 720,0 0,-145z" />
<path style="fill:#4f82e8" d="M748,265 l-720,0 0,119 720,0 0,-119z" />
<path style="fill:#578af0" d="M748,278 l-720,0 0,93 720,0 0,-93z" />
<path style="fill:#5e91f7" d="M748,292 l-720,0 0,66 720,0 0,-66z" />
<path style="fill:#69f" d="M748,307 l-720,0 0,37 720,0 0,-37z" />
<path style="fill:none;stroke:#000;stroke-width:2" d="M748,116 l-720,0 0,417 720,0 0,-417" />
<path style="fill:#0a0a0a" d="M786,129 l-38,0 0,391 38,0 0,-391z" />
<path style="fill:#121212" d="M786,143 l-38,0 0,364 38,0 0,-364z" />
<path style="fill:#1c1c1c" d="M786,158 l-38,0 0,334 38,0 0,-334z" />
<path style="fill:#242424" d="M786,171 l-38,0 0,307 38,0 0,-307z" />
<path style="fill:#2e2e2e" d="M786,184 l-38,0 0,281 38,0 0,-281z" />
<path style="fill:#363636" d="M786,197 l-38,0 0,255 38,0 0,-255z" />
<path style="fill:#404040" d="M786,210 l-38,0 0,229 38,0 0,-229z" />
<path style="fill:#4a4a4a" d="M786,224 l-38,0 0,202 38,0 0,-202z" />
<path style="fill:#525252" d="M786,239 l-38,0 0,171 38,0 0,-171z" />
<path style="fill:#5c5c5c" d="M786,252 l-38,0 0,145 38,0 0,-145z" />
<path style="fill:#636363" d="M786,265 l-38,0 0,119 38,0 0,-119z" />
<path style="fill:#6e6e6e" d="M786,278 l-38,0 0,93 38,0 0,-93z" />
<path style="fill:#757575" d="M786,292 l-38,0 0,66 38,0 0,-66z" />
<path style="fill:#7f7f7f" d="M786,307 l-38,0 0,37 38,0 0,-37z" />
<path style="fill:none;stroke:#000;stroke-width:2" d="M786,116 l-38,0 0,417 38,0 0,-417" />
<path style="fill:#36c;stroke:#000;stroke-width:2" d="M141,495 l-57,0 0,76 57,0 0,-76z" />
<path style="fill:#36c;stroke:#000;stroke-width:2" d="M691,495 l-58,0 0,76 58,0 0,-76z" />
<path style="fill:#039" d="M937,580 l-909,0 0,28 909,0 0,-28z" />
<path style="fill:none;stroke:#000;stroke-width:2" d="M937,571 l-909,0 0,37 909,0 0,-37" />
<path style="fill:#366" d="M842,420 l-18,0 0,151 18,0 0,-151z" />
<path style="fill:#699" d="M880,344 l-94,0 0,76 94,0 0,-76z" />
<path style="fill:#78abab" d="M880,348 l-94,0 0,66 94,0 0,-66z" />
<path style="fill:#87baba" d="M880,354 l-94,0 0,55 94,0 0,-55z" />
<path style="fill:#9cc" d="M880,359 l-94,0 0,44 94,0 0,-44z" />
<path style="fill:#abdede" d="M880,365 l-94,0 0,32 94,0 0,-32z" />
<path style="fill:#baeded" d="M880,371 l-94,0 0,20 94,0 0,-20z" />
<path style="fill:#cff" d="M880,376 l-94,0 0,10 94,0 0,-10z" />
<path style="fill:none;stroke:#000;stroke-width:2" d="M880,344 l-94,0 0,76 94,0 0,-76" />
<path style="fill:none;stroke:#000;stroke-width:2" d="M952,533 l-6,34 -13,23 -44,9 -81,-4 -103,-28 -32,-28 -15,-34 -6,-208 11,-185" />
<path style="fill:none;stroke:#039;stroke-width:2" d="M28,269 l714,38" />
<path style="fill:none;stroke:#039;stroke-width:2" d="M742,344 l-714,38" />
<path style="fill:#e5e5e5" d="M686,307 l-61,0 0,60 61,0 0,-60z" />
<path style="fill:none;stroke:#fff;stroke-width:2" d="M686,367 l0,-60 -61,0" />
<path style="fill:none;stroke:#000;stroke-width:2" d="M686,367 l-61,0 0,-60" />
<path style="fill:#333;stroke:#000;stroke-width:2" d="M667,116 l-9,0 0,-66 9,0 0,66z" />
<path style="fill:#333;stroke:#000;stroke-width:2" d="M610,348 l-19,0 0,-292 19,0 0,292z" />
<path style="fill:#999;stroke:#000;stroke-width:2" d="M620,88 l-38,0 0,162 38,0 0,-162z" />
<path style="fill:#e5e5e5;stroke:#000;stroke-width:2" d="M667,69 l6,-21 -6,-20 -13,0 -6,20 6,21 13,0z" />

</svg>
