<?xml version="1.0" encoding="utf-8" standalone="no"?><!DOCTYPE svg PUBLIC "-//W3C//DTD SVG 1.1//EN" "http://www.w3.org/Graphics/SVG/1.1/DTD/svg11-flat-20030114.dtd"><svg width="659" height="999" version="1.1" xmlns="http://www.w3.org/2000/svg" xmlns:xlink="http://www.w3.org/1999/xlink">

<path style="fill:#000" d="M631,669 l-19,0 0,37 19,0 0,-37z" />
<path style="fill:#000" d="M555,933 l-18,0 0,37 18,0 0,-37z" />
<path style="fill:#000" d="M103,933 l-19,0 0,37 19,0 0,-37z" />
<path style="fill:#69f" d="M612,28 l-584,0 0,905 584,0 0,-905z" />
<path style="fill:#6194fa" d="M612,670 l-584,-378 0,641 584,0 0,-263z" />
<path style="fill:#5c8ff5" d="M612,708 l-584,-379 0,604 584,0 0,-225z" />
<path style="fill:#578af0" d="M612,765 l-584,-379 0,547 584,0 0,-168z" />
<path style="fill:#000" d="M593,84 l-546,0 0,38 546,0 0,-38z" />
<path style="fill:#4073d9;stroke:#000;stroke-width:2" d="M593,838 l-546,0 0,76 546,0 0,-76z" />
<path style="fill:#000" d="M574,857 l-509,0 0,57 509,0 0,-57z" />
<path style="fill:#4c7fe5" d="M593,28 l-546,0 0,56 546,0 0,-56z" />
<path style="fill:none;stroke:#194cb2;stroke-width:2" d="M47,28 l0,810" />
<path style="fill:none;stroke:#194cb2;stroke-width:2" d="M593,838 l0,-810" />
<path style="fill:none;stroke:#194cb2;stroke-width:2" d="M593,461 l-546,0" />
<path style="fill:none;stroke:#000;stroke-width:2" d="M612,28 l-584,0 0,905 584,0 0,-905" />
<path style="fill:#ccc" d="M405,47 l-57,0 0,18 57,0 0,-18z" />
<path style="fill:#333" d="M348,47 l-113,0 0,18 113,0 0,-18z" />
<path style="fill:none;stroke:#d9e5ff;stroke-width:2" d="M235,47 l0,18 170,0" />
<path style="fill:none;stroke:#194cb2;stroke-width:2" d="M235,47 l170,0 0,18" />
<path style="fill:#666" d="M631,612 l-19,0 0,38 19,0 0,-38z" />

</svg>
