<?xml version="1.0" encoding="utf-8" standalone="no"?><!DOCTYPE svg PUBLIC "-//W3C//DTD SVG 1.1//EN" "http://www.w3.org/Graphics/SVG/1.1/DTD/svg11-flat-20030114.dtd"><svg width="723" height="999" version="1.1" xmlns="http://www.w3.org/2000/svg" xmlns:xlink="http://www.w3.org/1999/xlink">

<path style="fill:#427542" d="M676,28 l-630,0 0,942 630,0 0,-942z" />
<path style="fill:none;stroke:#696;stroke-width:2" d="M371,86 l0,275 275,0" />
<path style="fill:none;stroke:#363;stroke-width:2" d="M371,86 l275,0 0,275" />
<path style="fill:#3d703d" d="M676,697 l-630,-394 0,667 630,0 0,-273z" />
<path style="fill:#386b38" d="M676,737 l-630,-394 0,627 630,0 0,-233z" />
<path style="fill:#363" d="M676,795 l-630,-394 0,569 630,0 0,-175z" />
<path style="fill:none;stroke:#000;stroke-width:2" d="M676,28 l-630,0 0,942 630,0 0,-942" />
<path style="fill:#ccc" d="M440,931 l-354,0 0,19 354,0 0,-19z" />
<path style="fill:#ccc;stroke:#000;stroke-width:2" d="M420,814 l79,0 -19,136 -40,0 -20,-136z" />
<path style="fill:#999" d="M263,706 l-30,-30 -28,29 30,30 28,-29z" />
<path style="fill:#ccc" d="M244,695 l-20,0 0,236 20,0 0,-236z" />
<path style="fill:#999;stroke:#000;stroke-width:2" d="M440,912 l-39,0 0,58 39,0 0,-58z" />
<path style="fill:#999;stroke:#000;stroke-width:2" d="M361,912 l-39,0 0,58 39,0 0,-58z" />
<path style="fill:#999;stroke:#000;stroke-width:2" d="M284,912 l-40,0 0,58 40,0 0,-58z" />
<path style="fill:#999;stroke:#000;stroke-width:2" d="M205,912 l-40,0 0,58 40,0 0,-58z" />
<path style="fill:#999;stroke:#000;stroke-width:2" d="M126,912 l-40,0 0,58 40,0 0,-58z" />
<path style="fill:#999" d="M184,655 l-77,0 0,119 77,0 0,-119z" />
<path style="fill:none;stroke:#fff;stroke-width:2" d="M184,774 l0,-119 -77,0" />
<path style="fill:none;stroke:#000;stroke-width:2" d="M184,774 l-77,0 0,-119" />
<path style="fill:#b2b2b2;stroke:#000;stroke-width:2" d="M197,335 l30,8 31,0 30,-8 28,-17 21,-21 17,-28 7,-30 0,-30 -7,-31 -17,-26 -21,-23 -28,-15 -30,-7 -31,0 -30,7 -26,15 -23,23 -15,26 -7,31 0,30 7,30 15,28 23,21 26,17z" />
<path style="fill:#bfbfbf" d="M205,318 l26,5 28,0 27,-5 24,-15 19,-19 16,-25 7,-26 0,-28 -7,-27 -16,-24 -19,-19 -24,-15 -27,-8 -28,0 -26,8 -25,15 -19,19 -15,24 -5,27 0,28 5,26 15,25 19,19 25,15z" />
<circle style="fill:#ccc" cx="247" cy="213" r="93" />
<circle style="fill:#d9d9d9" cx="250" cy="208" r="81" />
<circle style="fill:#e5e5e5" cx="253" cy="204" r="69" />
<path style="fill:#000" d="M431,95 l-30,0 0,316 30,0 0,-316z" />
<path style="fill:#000" d="M450,95 l-68,0 0,-28 68,0 0,28z" />
<path style="fill:#333" d="M150,655 l10,0 0,-68 -10,0 0,68z" />
<path style="fill:#333" d="M67,576 l0,11 177,0 0,-11 -177,0z" />
<path style="fill:#333" d="M126,655 l11,0 0,-68 -11,0 0,68z" />
<path style="fill:#333" d="M37,205 l-9,0 0,765 9,0 0,-765z" />
<path style="fill:#333" d="M67,86 l-9,0 0,884 9,0 0,-884z" />
<path style="fill:#333" d="M67,145 l0,11 177,0 0,-11 -177,0z" />
<path style="fill:#333" d="M67,292 l0,11 177,0 0,-11 -177,0z" />
<path style="fill:#333" d="M67,391 l0,10 177,0 0,-10 -177,0z" />
<path style="fill:#333" d="M254,86 l-10,0 0,501 10,0 0,-501z" />
<path style="fill:#333" d="M254,391 l0,10 205,0 0,-10 -205,0z" />
<path style="fill:#333" d="M254,440 l0,10 205,0 0,-10 -205,0z" />
<path style="fill:#333" d="M471,193 l-12,0 0,355 12,0 0,-355z" />
<path style="fill:#333" d="M126,343 l-10,0 0,48 10,0 0,-48z" />
<path style="fill:#333" d="M126,95 l-10,0 0,50 10,0 0,-50z" />
<path style="fill:none;stroke:#000;stroke-width:2" d="M146,774 l0,29 -20,39 -89,108" />
<path style="fill:none;stroke:#000;stroke-width:2" d="M244,891 l78,0 60,-19 29,-30" />
<path style="fill:none;stroke:#000;stroke-width:2" d="M244,882 l59,0 40,-10 18,-20" />
<path style="fill:none;stroke:#000;stroke-width:2" d="M459,429 l-392,0" />
<path style="fill:none;stroke:#000;stroke-width:2" d="M520,518 l-21,0 -9,-19 -10,-79 -9,-187" />
<path style="fill:none;stroke:#030;stroke-width:2" d="M676,58 l-628,0" />
<path style="fill:#598c59;stroke:#000;stroke-width:2" d="M407,844 l-31,8 -30,0 -30,-8 -26,-15 -23,-23 -15,-26 -8,-30 0,-31 8,-29 15,-27 23,-23 243,-134 30,-7 30,0 31,7 26,15 23,23 15,27 7,30 0,32 -7,30 -15,27 -23,20 -243,134z" />
<circle style="fill:#696;stroke:#000;stroke-width:2" cx="578" cy="617" r="98" />
<circle style="fill:#73a673;stroke:#000;stroke-width:2" cx="577" cy="617" r="82" />
<circle style="fill:#7fb27f" cx="578" cy="617" r="49" />
<path style="fill:none;stroke:#cfc;stroke-width:2" d="M642,625 l0,-16 -3,-18 -10,-15 -11,-11 -15,-9 -17,-4 -17,0 -17,4" />
<circle style="fill:#4c7f4c;stroke:#000;stroke-width:2" cx="361" cy="734" r="79" />
<circle style="fill:#333" cx="361" cy="735" r="66" />
<circle style="fill:#ccc" cx="361" cy="734" r="58" />

</svg>
