<?xml version="1.0" encoding="utf-8" standalone="no"?><!DOCTYPE svg PUBLIC "-//W3C//DTD SVG 1.1//EN" "http://www.w3.org/Graphics/SVG/1.1/DTD/svg11-flat-20030114.dtd"><svg width="665" height="999" version="1.1" xmlns="http://www.w3.org/2000/svg" xmlns:xlink="http://www.w3.org/1999/xlink">

<path style="fill:#ccc" d="M637,126 l-609,0 0,824 609,0 0,-824z" />
<path style="fill:#d9d9d9" d="M617,126 l-569,0 0,824 569,0 0,-824z" />
<path style="fill:#e5e5e5;stroke:#b2b2b2;stroke-width:2" d="M597,126 l-510,0 0,824 510,0 0,-824z" />
<path style="fill:none;stroke:#000;stroke-width:2" d="M637,126 l-609,0 0,824 609,0 0,-824" />
<path style="fill:#000" d="M637,950 l-609,0 0,20 609,0 0,-20z" />
<path style="fill:#666;stroke:#000;stroke-width:2" d="M87,892 l0,-491 510,0 0,491 -510,0z" />
<path style="fill:#666;stroke:#000;stroke-width:2" d="M617,538 l-510,0 0,275 510,0 0,-275z" />
<path style="fill:#a6a6a6;stroke:#000;stroke-width:2" d="M617,538 l-20,-118 -510,0 19,118 511,0z" />
<path style="fill:#333;stroke:#000;stroke-width:2" d="M617,813 l-20,79 -510,0 19,-79 511,0z" />
<path style="fill:#f2f2f2;stroke:#000;stroke-width:2" d="M440,165 l-196,0 0,177 196,0 0,-177z" />
<path style="fill:#c90;stroke:#000;stroke-width:2" d="M420,185 l-157,0 0,157 157,0 0,-157z" />
<path style="fill:#4c4c4c" d="M381,317 l5,-14 -5,-14 -15,-6 -14,6 -5,14 5,14 14,5 15,-5z" />
<path style="fill:#4c4c4c" d="M381,258 l5,-14 -5,-14 -15,-6 -14,6 -5,14 5,14 14,6 15,-6z" />
<path style="fill:#bfbfbf" d="M408,212 l3,-7 -3,-8 -8,-2 -7,2 -2,8 2,7 7,3 8,-3z" />
<path style="fill:#bfbfbf" d="M408,329 l3,-7 -3,-7 -7,-3 -8,3 -2,7 2,7 8,3 7,-3z" />
<path style="fill:#ccc;stroke:#000;stroke-width:2" d="M371,195 l-58,0 0,19 58,0 0,-19z" />
<path style="fill:#999" d="M322,204 l-147,0 0,148 147,0 0,-148z" />
<path style="fill:#ccc" d="M317,204 l-126,0 0,148 126,0 0,-148z" />
<path style="fill:none;stroke:#000;stroke-width:2" d="M322,204 l-147,0 0,148 147,0 0,-148" />
<path style="fill:#f2f2f2" d="M221,312 l-15,0 0,35 15,0 0,-35z" />
<path style="fill:#333" d="M43,828 l-10,0 0,54 10,0 0,-54z" />
<path style="fill:#e5e5e5;stroke:#000;stroke-width:2" d="M558,106 l-78,-78 -315,0 -59,78 452,0z" />
<path style="fill:#000" d="M251,89 l13,-22 -13,-22 -29,-10 -29,10 -13,22 13,22 29,10 29,-10z" />
<path style="fill:#fff" d="M240,81 l8,-14 -8,-14 -18,-6 -19,6 -7,14 7,14 19,6 18,-6z" />
<path style="fill:#f00" d="M227,65 l-4,-6 -23,17 5,6 22,-17z" />
<path style="fill:#b2b2b2;stroke:#000;stroke-width:2" d="M637,106 l-609,0 0,20 609,0 0,-20z" />

</svg>
