<?xml version="1.0" encoding="utf-8" standalone="no"?><!DOCTYPE svg PUBLIC "-//W3C//DTD SVG 1.1//EN" "http://www.w3.org/Graphics/SVG/1.1/DTD/svg11-flat-20030114.dtd"><svg width="999" height="999" version="1.1" xmlns="http://www.w3.org/2000/svg" xmlns:xlink="http://www.w3.org/1999/xlink">

<path style="fill:#ccccc4;stroke:#000;stroke-width:2" d="M794,225 l-560,0 0,37 560,0 0,-37z" />
<path style="fill:#ccccc4;stroke:#000;stroke-width:2" d="M204,67 l-79,0 0,79 79,0 0,-79z" />
<path style="fill:#ccccc4;stroke:#000;stroke-width:2" d="M213,696 l-106,0 0,-550 106,0 0,550z" />
<path style="fill:#ccccc4;stroke:#000;stroke-width:2" d="M253,891 l-186,0 0,40 186,0 0,-40z" />
<path style="fill:#ccccc4;stroke:#000;stroke-width:2" d="M773,262 l-520,0 0,669 520,0 0,-669z" />
<path style="fill:#ccccc4;stroke:#000;stroke-width:2" d="M931,891 l-98,0 0,40 98,0 0,-40z" />
<path style="fill:#ccccc4;stroke:#000;stroke-width:2" d="M970,931 l-942,0 0,39 942,0 0,-39z" />
<path style="fill:#000" d="M773,262 l-520,0 0,21 520,0 0,-21z" />
<path style="fill:#ccccc4;stroke:#000;stroke-width:2" d="M244,645 l-19,0 0,61 19,0 0,-61z" />
<path style="fill:#ccccc4;stroke:#000;stroke-width:2" d="M362,617 l-118,0 0,116 118,0 0,-116z" />
<path style="fill:#99998a;stroke:#000;stroke-width:2" d="M204,28 l-79,0 0,39 79,0 0,-39z" />
<path style="fill:#ccccc4;stroke:#000;stroke-width:2" d="M195,617 l-10,40 -30,9 -30,-9 -9,-40 0,-443 97,-107 246,0 110,107 0,51 -79,0 0,-40 -49,-48 -197,0 -49,48 0,432z" />
<path style="fill:#ccccc4;stroke:#000;stroke-width:2" d="M302,696 l-274,0 0,195 274,0 0,-195z" />
<path style="fill:none;stroke:#000;stroke-width:2" d="M195,185 l-79,-11" />
<path style="fill:none;stroke:#000;stroke-width:2" d="M244,137 l-31,-70" />
<path style="fill:none;stroke:#000;stroke-width:2" d="M441,137 l18,-70" />
<path style="fill:none;stroke:#000;stroke-width:2" d="M490,185 l79,-11" />
<path style="fill:#ccccc4;stroke:#000;stroke-width:2" d="M900,745 l0,-590 -39,-39 -313,0 -40,39 0,70 40,0 0,-51 21,-19 274,0 18,19 0,571 39,0z" />
<circle style="fill:#ccccc4;stroke:#000;stroke-width:2" cx="882" cy="470" r="30" />
<path style="fill:none;stroke:#000;stroke-width:2" d="M861,174 l39,-19" />
<path style="fill:none;stroke:#000;stroke-width:2" d="M843,155 l18,-39" />
<path style="fill:none;stroke:#000;stroke-width:2" d="M569,155 l-21,-39" />
<path style="fill:none;stroke:#000;stroke-width:2" d="M548,174 l-40,-19" />
<circle style="fill:#ccccc4;stroke:#000;stroke-width:2" cx="882" cy="822" r="88" />
<circle style="fill:none;stroke:#000;stroke-width:2" cx="882" cy="823" r="49" />

</svg>
