<?xml version="1.0" encoding="utf-8" standalone="no"?><!DOCTYPE svg PUBLIC "-//W3C//DTD SVG 1.1//EN" "http://www.w3.org/Graphics/SVG/1.1/DTD/svg11-flat-20030114.dtd"><svg width="724" height="998" version="1.1" xmlns="http://www.w3.org/2000/svg" xmlns:xlink="http://www.w3.org/1999/xlink">

<path style="fill:#039;stroke:#000;stroke-width:2" d="M675,971 l0,-631 -21,-81 -41,-71 -59,-59 -71,-41 -81,-21 -83,0 -79,21 -72,41 -58,59 -41,71 -21,81 0,631 627,0z" />
<circle style="fill:#0a3da3;stroke:#000;stroke-width:2" cx="361" cy="725" r="117" />
<path style="fill:#006" d="M638,583 l-552,0 0,-21 552,0 0,21z" />
<path style="fill:#194cb2" d="M638,223 l-552,0 0,339 552,0 0,-339z" />
<path style="fill:#1447ad" d="M186,223 l-100,0 0,339 552,0 0,-169 -452,-170z" />
<path style="fill:#0f42a8" d="M88,252 l-2,310 552,0 0,-85 -550,-225z" />
<path style="fill:#0a3da3" d="M86,364 l0,198 512,0 -512,-198z" />
<path style="fill:none;stroke:#98b2e5;stroke-width:2" d="M638,562 l0,-339 -552,0" />
<path style="fill:none;stroke:#00004c;stroke-width:2" d="M86,223 l0,339 552,0" />
<path style="fill:#000" d="M381,263 l0,39 -9,0 0,119 -21,0 0,-119 -9,0 0,-39 39,0z" />
<circle style="fill:#36c;stroke:#006;stroke-width:2" cx="361" cy="725" r="78" />
<circle style="fill:#003" cx="361" cy="725" r="38" />
<path style="fill:#003" d="M459,677 l-6,-8 -7,4 3,9 10,-5z" />
<path style="fill:#003" d="M366,622 l-9,0 0,10 9,0 0,-10z" />
<path style="fill:#003" d="M272,664 l-5,9 9,6 6,-10 -10,-5z" />
<path style="fill:#003" d="M270,771 l4,9 9,-5 -5,-8 -8,4z" />
<path style="fill:none;stroke:#69f;stroke-width:2" d="M457,797 l15,-26 7,-30 0,-32 -7,-30 -17,-27 -21,-22 -26,-15 -30,-8 -32,0 -30,8 -27,15 -22,22" />
<path style="fill:#00197f" d="M696,931 l-669,0 0,40 669,0 0,-40z" />
<path style="fill:none;stroke:#98b2e5;stroke-width:2" d="M696,971 l0,-40 -669,0 0,40" />
<path style="fill:#000" d="M381,793 l0,80 -39,0 0,-80 39,0z" />
<path style="fill:#194cb2" d="M656,773 l-275,0 0,198 275,0 0,-198z" />
<path style="fill:#1447ad" d="M430,773 l-49,0 0,198 275,0 0,-98 -226,-100z" />
<path style="fill:#0f42a8" d="M381,790 l0,181 275,0 0,-50 -275,-131z" />
<path style="fill:#0a3da3" d="M381,856 l0,115 257,0 -257,-115z" />
<path style="fill:none;stroke:#98b2e5;stroke-width:2" d="M656,971 l0,-198 -275,0" />
<path style="fill:none;stroke:#00004c;stroke-width:2" d="M381,773 l0,198 275,0" />
<path style="fill:none;stroke:#000;stroke-width:2" d="M360,793 l-18,-20 -79,-38 -117,-20 -79,-59 -40,-118 0,-157 19,-98 40,-99 60,-59 77,-39 119,-40 58,0" />
<path style="fill:#999" d="M647,818 l-262,0 0,39 262,0 0,-39z" />
<path style="fill:none;stroke:#000;stroke-width:2" d="M647,857 l0,-39 -262,0" />
<path style="fill:#000" d="M647,940 l-262,0 0,-19 262,0 0,19z" />
<path style="fill:#36c;stroke:#006;stroke-width:2" d="M302,86 l-19,0 0,64 19,0 0,-64z" />
<path style="fill:#36c;stroke:#006;stroke-width:2" d="M411,86 l-20,0 0,64 20,0 0,-64z" />
<path style="fill:#36c;stroke:#006;stroke-width:2" d="M351,86 l-18,0 0,64 18,0 0,-64z" />
<path style="fill:#36c;stroke:#006;stroke-width:2" d="M460,86 l-20,0 0,64 20,0 0,-64z" />
<path style="fill:#b2b2b2;stroke:#000;stroke-width:2" d="M342,27 l0,59 -79,0 0,-59 79,0z" />
<path style="fill:#b2b2b2;stroke:#000;stroke-width:2" d="M479,27 l0,59 -79,0 0,-59 79,0z" />
<path style="fill:none;stroke:#fff;stroke-width:2" d="M342,86 l0,-59 -79,0" />
<path style="fill:none;stroke:#fff;stroke-width:2" d="M479,86 l0,-59 -79,0" />

</svg>
