<?xml version="1.0" encoding="utf-8" standalone="no"?><!DOCTYPE svg PUBLIC "-//W3C//DTD SVG 1.1//EN" "http://www.w3.org/Graphics/SVG/1.1/DTD/svg11-flat-20030114.dtd"><svg width="999" height="714" version="1.1" xmlns="http://www.w3.org/2000/svg" xmlns:xlink="http://www.w3.org/1999/xlink">

<path style="fill:#333;stroke:#000;stroke-width:2" d="M276,144 l-22,0 0,21 22,0 0,-21z" />
<path style="fill:#333;stroke:#000;stroke-width:2" d="M180,254 l-9,0 0,19 9,0 0,-19z" />
<path style="fill:#4c4c4c;stroke:#000;stroke-width:2" d="M282,371 l-175,0 0,266 175,0 0,-266z" />
<path style="fill:#4c4c4c;stroke:#000;stroke-width:2" d="M337,271 l0,-8 633,0 0,8 -633,0z" />
<path style="fill:#4c4c4c;stroke:#000;stroke-width:2" d="M337,539 l0,-10 633,0 0,10 -633,0z" />
<path style="fill:#4c4c4c;stroke:#000;stroke-width:2" d="M337,405 l0,-8 633,0 0,8 -633,0z" />
<path style="fill:#4c4c4c;stroke:#000;stroke-width:2" d="M499,95 l0,-13 471,0 0,13 -471,0z" />
<path style="fill:#4c4c4c;stroke:#000;stroke-width:2" d="M799,43 l34,0 0,24 -34,0 0,-24z" />
<path style="fill:#4c4c4c;stroke:#000;stroke-width:2" d="M484,43 l36,0 0,24 -36,0 0,-24z" />
<path style="fill:#4c4c4c;stroke:#000;stroke-width:2" d="M493,28 l15,0 0,186 -15,0 0,-186z" />
<path style="fill:#4c4c4c;stroke:#000;stroke-width:2" d="M808,28 l15,0 0,186 -15,0 0,-186z" />
<path style="fill:none;stroke:#000;stroke-width:2" d="M863,214 l-21,-30 -34,0 -19,30" />
<path style="fill:none;stroke:#000;stroke-width:2" d="M842,214 l-7,-30 -17,0 -10,30" />
<path style="fill:none;stroke:#000;stroke-width:2" d="M548,214 l-19,-30 -36,0 -19,30" />
<path style="fill:none;stroke:#000;stroke-width:2" d="M529,214 l-9,-30 -17,0 -10,30" />
<path style="fill:#b2b2b2;stroke:#000;stroke-width:2" d="M808,120 l34,0 0,64 -34,0 0,-64z" />
<path style="fill:#b2b2b2;stroke:#000;stroke-width:2" d="M493,120 l36,0 0,64 -36,0 0,-64z" />
<path style="fill:#999" d="M808,199 l-43,0 0,-30 43,0 0,30z" />
<path style="fill:#999" d="M493,199 l-43,0 0,-30 43,0 0,30z" />
<path style="fill:#ccc" d="M493,67 l-43,0 0,102 43,0 0,-102z" />
<path style="fill:#ccc" d="M808,67 l-43,0 0,102 43,0 0,-102z" />
<path style="fill:#666" d="M903,214 l-178,0 0,423 178,0 0,-423z" />
<path style="fill:#666" d="M587,214 l-177,0 0,423 177,0 0,-423z" />
<path style="fill:#7a7a7a" d="M574,214 l-150,0 0,423 150,0 0,-423z" />
<path style="fill:#7a7a7a" d="M888,214 l-150,0 0,423 150,0 0,-423z" />
<path style="fill:#919191" d="M876,214 l-124,0 0,423 124,0 0,-423z" />
<path style="fill:#919191" d="M561,214 l-124,0 0,423 124,0 0,-423z" />
<path style="fill:#a6a6a6" d="M548,214 l-98,0 0,423 98,0 0,-423z" />
<path style="fill:#a6a6a6" d="M863,214 l-98,0 0,423 98,0 0,-423z" />
<path style="fill:#bababa" d="M850,214 l-72,0 0,423 72,0 0,-423z" />
<path style="fill:#bababa" d="M535,214 l-72,0 0,423 72,0 0,-423z" />
<path style="fill:#d1d1d1" d="M521,214 l-45,0 0,423 45,0 0,-423z" />
<path style="fill:#d1d1d1" d="M837,214 l-48,0 0,423 48,0 0,-423z" />
<path style="fill:#e5e5e5" d="M823,214 l-19,0 0,423 19,0 0,-423z" />
<path style="fill:#e5e5e5" d="M508,214 l-18,0 0,423 18,0 0,-423z" />
<circle style="fill:#b2b2b2;stroke:#000;stroke-width:2" cx="813" cy="547" r="44" />
<circle style="fill:#b2b2b2;stroke:#000;stroke-width:2" cx="500" cy="547" r="44" />
<path style="fill:#ccc" d="M578,294 l-158,0 0,156 158,0 0,-156z" />
<path style="fill:#ccc" d="M891,294 l-156,0 0,156 156,0 0,-156z" />
<path style="fill:#c7c7c7" d="M891,405 l-156,-66 0,111 156,0 0,-45z" />
<path style="fill:#c7c7c7" d="M578,405 l-158,-66 0,111 158,0 0,-45z" />
<path style="fill:#c2c2c2" d="M578,411 l-158,-66 0,105 158,0 0,-39z" />
<path style="fill:#c2c2c2" d="M891,411 l-156,-66 0,105 156,0 0,-39z" />
<path style="fill:#bdbdbd" d="M891,420 l-156,-64 0,94 156,0 0,-30z" />
<path style="fill:#bdbdbd" d="M578,420 l-158,-64 0,94 158,0 0,-30z" />
<path style="fill:none;stroke:#fff;stroke-width:2" d="M578,450 l0,-156 -158,0" />
<path style="fill:none;stroke:#fff;stroke-width:2" d="M891,450 l0,-156 -156,0" />
<path style="fill:none;stroke:#000;stroke-width:2" d="M578,450 l-158,0 0,-156" />
<path style="fill:none;stroke:#000;stroke-width:2" d="M891,450 l-156,0 0,-156" />
<path style="fill:#e5e5e5" d="M529,318 l-60,0 0,9 60,0 0,-9z" />
<path style="fill:#e5e5e5" d="M842,318 l-58,0 0,9 58,0 0,-9z" />
<path style="fill:#7f7f7f;stroke:#000;stroke-width:2" d="M927,239 l-21,0 0,328 21,0 0,-328z" />
<path style="fill:#7f7f7f;stroke:#000;stroke-width:2" d="M612,239 l-19,0 0,328 19,0 0,-328z" />
<path style="fill:#ccc;stroke:#000;stroke-width:2" d="M618,258 l-31,0 0,103 31,0 0,-103z" />
<path style="fill:#ccc;stroke:#000;stroke-width:2" d="M931,258 l-28,0 0,103 28,0 0,-103z" />
<path style="fill:#ccc" d="M970,637 l-942,0 0,28 942,0 0,-28z" />
<path style="fill:#b2b2b2" d="M970,686 l-942,0 0,-21 942,0 0,21z" />
<path style="fill:#333" d="M951,676 l-60,0 0,-11 60,0 0,11z" />
<path style="fill:#333" d="M735,676 l-59,0 0,-11 59,0 0,11z" />
<path style="fill:#333" d="M637,676 l-59,0 0,-11 59,0 0,11z" />
<path style="fill:#333" d="M420,676 l-59,0 0,-11 59,0 0,11z" />
<path style="fill:#333" d="M322,676 l-59,0 0,-11 59,0 0,11z" />
<path style="fill:#333" d="M107,676 l-61,0 0,-11 61,0 0,11z" />
<path style="fill:none;stroke:#000;stroke-width:2" d="M493,67 l-43,0 0,132 43,0 0,-132" />
<path style="fill:none;stroke:#000;stroke-width:2" d="M808,67 l-43,0 0,132 43,0 0,-132" />
<path style="fill:none;stroke:#333;stroke-width:2" d="M342,637 l0,49" />
<path style="fill:none;stroke:#333;stroke-width:2" d="M970,665 l-942,0" />
<path style="fill:none;stroke:#333;stroke-width:2" d="M656,637 l0,49" />
<path style="fill:none;stroke:#000;stroke-width:2" d="M970,637 l-942,0 0,49 942,0 0,-49" />
<path style="fill:none;stroke:#000;stroke-width:2" d="M587,214 l-177,0 0,423 177,0 0,-423" />
<path style="fill:none;stroke:#000;stroke-width:2" d="M587,233 l-177,0" />
<path style="fill:none;stroke:#000;stroke-width:2" d="M587,616 l-177,0" />
<path style="fill:none;stroke:#000;stroke-width:2" d="M903,214 l-178,0 0,423 178,0 0,-423" />
<path style="fill:none;stroke:#000;stroke-width:2" d="M903,233 l-178,0" />
<path style="fill:none;stroke:#000;stroke-width:2" d="M903,616 l-178,0" />
<path style="fill:#ccc;stroke:#000;stroke-width:2" d="M337,401 l-30,0 0,236 30,0 0,-236z" />
<path style="fill:#ccc;stroke:#000;stroke-width:2" d="M273,401 l-28,0 0,236 28,0 0,-236z" />
<path style="fill:#ccc;stroke:#000;stroke-width:2" d="M209,401 l-29,0 0,236 29,0 0,-236z" />
<path style="fill:#ccc" d="M171,322 l-134,0 0,315 134,0 0,-315z" />
<path style="fill:#d4d4d4" d="M160,322 l-114,0 0,315 114,0 0,-315z" />
<path style="fill:#dedede" d="M150,322 l-92,0 0,315 92,0 0,-315z" />
<path style="fill:#e5e5e5" d="M141,322 l-74,0 0,315 74,0 0,-315z" />
<path style="fill:#ededed" d="M131,322 l-55,0 0,315 55,0 0,-315z" />
<path style="fill:#f7f7f7" d="M120,322 l-34,0 0,315 34,0 0,-315z" />
<path style="fill:#fff" d="M110,322 l-13,0 0,315 13,0 0,-315z" />
<path style="fill:none;stroke:#000;stroke-width:2" d="M171,322 l-134,0 0,315 134,0 0,-315" />
<path style="fill:#000" d="M171,322 l-134,0 0,20 134,0 0,-20z" />
<path style="fill:#ccc" d="M295,52 l-62,0 0,92 62,0 0,-92z" />
<path style="fill:#ccc" d="M171,209 l-62,0 0,94 62,0 0,-94z" />
<path style="fill:#ccc;stroke:#000;stroke-width:2" d="M337,165 l-157,0 0,236 157,0 0,-236z" />
<path style="fill:#c7c7c7" d="M295,118 l-62,-39 0,65 62,0 0,-26z" />
<path style="fill:#c7c7c7" d="M171,275 l-62,-38 0,66 62,0 0,-28z" />
<path style="fill:#c7c7c7" d="M337,333 l-157,-100 0,168 157,0 0,-68z" />
<path style="fill:#c2c2c2" d="M295,122 l-62,-40 0,62 62,0 0,-22z" />
<path style="fill:#c2c2c2" d="M171,279 l-62,-38 0,62 62,0 0,-24z" />
<path style="fill:#c2c2c2" d="M337,342 l-157,-97 0,156 157,0 0,-59z" />
<path style="fill:#bdbdbd" d="M295,128 l-62,-38 0,54 62,0 0,-16z" />
<path style="fill:#bdbdbd" d="M171,286 l-62,-40 0,57 62,0 0,-17z" />
<path style="fill:#bdbdbd" d="M337,358 l-157,-100 0,143 157,0 0,-43z" />
<path style="fill:none;stroke:#000;stroke-width:2" d="M295,52 l-62,0 0,92 62,0 0,-92" />
<path style="fill:none;stroke:#000;stroke-width:2" d="M171,209 l-62,0 0,94 62,0 0,-94" />
<path style="fill:#e5e5e5" d="M293,220 l-69,0 0,-15 69,0 0,15z" />
<path style="fill:#ffb27f" d="M854,380 l-80,0 0,21 80,0 0,-21z" />
<path style="fill:#ffb27f" d="M539,380 l-80,0 0,21 80,0 0,-21z" />
<path style="fill:#ffb27f" d="M293,224 l-69,0 0,21 69,0 0,-21z" />
<path style="fill:#ffb27f" d="M144,239 l-13,0 0,11 13,0 0,-11z" />
<path style="fill:#191919" d="M144,239 l-13,0 0,-12 13,0 0,12z" />
<path style="fill:#191919" d="M293,224 l-69,0 0,-4 69,0 0,4z" />
<path style="fill:#191919" d="M838,331 l-49,0 0,45 49,0 0,-45z" />
<path style="fill:#191919" d="M524,331 l-50,0 0,45 50,0 0,-45z" />
<path style="fill:#69f" d="M518,346 l-38,0 0,25 38,0 0,-25z" />
<path style="fill:#69f" d="M833,346 l-40,0 0,25 40,0 0,-25z" />

</svg>
