<?xml version="1.0" encoding="utf-8" standalone="no"?><!DOCTYPE svg PUBLIC "-//W3C//DTD SVG 1.1//EN" "http://www.w3.org/Graphics/SVG/1.1/DTD/svg11-flat-20030114.dtd"><svg width="735" height="999" version="1.1" xmlns="http://www.w3.org/2000/svg" xmlns:xlink="http://www.w3.org/1999/xlink">

<path style="fill:#657f65;stroke:#000;stroke-width:2" d="M97,607 l0,218 49,0 0,121 -99,-79 0,-240 -19,0 0,-20 69,0z" />
<path style="fill:#bfb299;stroke:#000;stroke-width:2" d="M655,970 l0,-15 -9,-24 -60,0 -10,24 0,15 79,0z" />
<path style="fill:#f2e5cc;stroke:#000;stroke-width:2" d="M695,706 l0,-15 -9,-24 -61,0 -9,24 0,15 79,0z" />
<circle style="fill:#bfb299;stroke:#000;stroke-width:2" cx="615" cy="896" r="50" />
<path style="fill:#bfb299;stroke:#000;stroke-width:2" d="M605,923 l7,2 8,0 7,-2 8,-3 6,-6 3,-6 2,-7 0,-64 -60,0 0,64 2,7 3,6 6,6 8,3z" />
<path style="fill:#9c9;stroke:#000;stroke-width:2" d="M586,67 l-179,0 0,-20 -100,-19 -221,39 0,560 21,19 0,79 21,0 0,81 158,0 0,-9 215,0 15,9 44,0 24,19 2,8 0,4 60,0 -5,-42 -27,-32 -38,-17 -290,0 0,-21 21,0 0,-79 19,-19 0,-239 81,0 0,-221 39,0 0,21 19,40 21,0 21,-40 0,-21 18,0 0,379 140,130 41,-49 0,-560 -60,0 0,509 15,15 -75,-69 0,-15 39,-40 0,-360 -17,-31 -22,-9z" />
<circle style="fill:#f2e5cc;stroke:#000;stroke-width:2" cx="655" cy="631" r="50" />
<path style="fill:#f2e5cc;stroke:#000;stroke-width:2" d="M665,658 l7,-4 6,-6 4,-7 2,-8 0,-8 -2,-7 -4,-6 -45,-45 -42,41 46,46 5,4 8,1 8,0 7,-1z" />
<path style="fill:#98b2e5;stroke:#000;stroke-width:2" d="M486,228 l0,239 -140,140 -20,0 0,-21 15,0 124,-128 0,-230 21,0z" />
<path style="fill:none;stroke:#000;stroke-width:2" d="M507,188 l-61,0" />
<path style="fill:none;stroke:#000;stroke-width:2" d="M586,507 l-61,0" />
<path style="fill:none;stroke:#000;stroke-width:2" d="M286,746 l0,51" />
<path style="fill:none;stroke:#000;stroke-width:2" d="M516,806 l0,-60" />
<path style="fill:none;stroke:#000;stroke-width:2" d="M501,797 l0,-51" />
<path style="fill:none;stroke:#000;stroke-width:2" d="M326,612 l-240,0" />
<path style="fill:none;stroke:#000;stroke-width:2" d="M326,582 l-240,0" />
<path style="fill:none;stroke:#000;stroke-width:2" d="M695,691 l-79,0" />
<path style="fill:none;stroke:#000;stroke-width:2" d="M655,955 l-79,0" />
<path style="fill:#c93;stroke:#000;stroke-width:2" d="M160,669 l32,2 30,0 30,-2 28,-6 23,-8 15,-9 8,-9 0,-10 -240,0 0,10 9,9 16,9 22,8 27,6z" />
<path style="fill:#98b2e5" d="M262,76 l0,16 79,0 0,-16 -79,0z" />
<path style="fill:#98b2e5" d="M276,301 l-14,0 0,281 14,0 0,-281z" />
<path style="fill:#98b2e5" d="M276,316 l80,0 0,-15 -80,0 0,15z" />
<path style="fill:#98b2e5" d="M128,67 l-16,0 0,515 16,0 0,-515z" />
<path style="fill:#98b2e5" d="M156,62 l-15,0 0,520 15,0 0,-520z" />
<path style="fill:#98b2e5" d="M186,58 l-15,0 0,524 15,0 0,-524z" />
<path style="fill:#98b2e5" d="M216,52 l-15,0 0,530 15,0 0,-530z" />
<path style="fill:#98b2e5" d="M246,76 l-15,0 0,506 15,0 0,-506z" />
<path style="fill:#98b2e5" d="M246,92 l95,0 0,-16 -95,0 0,16z" />
<path style="fill:#98b2e5;stroke:#000;stroke-width:2" d="M322,175 l13,1 13,0 13,-1 10,-8 11,-9 6,-12 3,-13 0,-13 -3,-11 -6,-12 -9,-9 -12,-7 -13,-5 -13,0 -13,5 -12,7 -9,9 -6,12 -3,11 0,13 3,13 6,12 9,9 12,8z" />
<circle style="fill:#98b2e5;stroke:#000;stroke-width:2" cx="341" cy="308" r="49" />

</svg>
