<?xml version="1.0" encoding="utf-8" standalone="no"?><!DOCTYPE svg PUBLIC "-//W3C//DTD SVG 1.1//EN" "http://www.w3.org/Graphics/SVG/1.1/DTD/svg11-flat-20030114.dtd"><svg width="998" height="999" version="1.1" xmlns="http://www.w3.org/2000/svg" xmlns:xlink="http://www.w3.org/1999/xlink">

<path style="fill:#7f7f7f" d="M282,68 l0,862 432,0 0,-862 -21,-17 -28,-8 -30,-6 -34,-4 -29,-2 -30,-2 -22,-1 -11,0 -11,0 -33,0 -31,2 -30,2 -27,3 -32,5 -26,6 -24,8 -13,12 0,2z" />
<path style="fill:#999" d="M318,67 l0,864 361,0 0,-27 0,-135 -1,-54 0,-459 1,-54 0,-135 -1,-4 -21,-15 -31,-9 -27,-5 -30,-3 -34,-2 -18,-1 -19,0 -18,0 -35,2 -33,2 -28,5 -35,8 -27,14 -3,4 -1,4z" />
<path style="fill:#b2b2b2" d="M353,67 l0,864 290,0 0,-27 0,-135 0,-54 0,-459 0,-54 0,-135 0,-4 -25,-18 -27,-8 -36,-6 -28,-2 -14,-1 -15,0 -15,0 -28,2 -38,4 -31,8 -26,13 -6,8 -1,4z" />
<path style="fill:#ccc" d="M389,67 l0,864 219,0 0,-27 0,-135 0,-54 0,-459 0,-54 0,-135 -19,-22 -30,-11 -28,-4 -21,-2 -12,0 -11,0 -31,3 -28,6 -26,11 -13,15 0,4z" />
<path style="fill:#e5e5e5" d="M424,67 l0,864 149,0 0,-27 0,-135 -1,-54 0,-459 1,-54 0,-135 -13,-22 -26,-13 -28,-4 -8,0 -7,0 -28,4 -26,13 -13,18 0,4z" />
<path style="fill:#fff" d="M460,68 l0,862 78,0 0,-862 -1,-8 -2,-7 -4,-7 -5,-6 -6,-5 -7,-4 -7,-2 -8,-1 -8,1 -7,2 -6,4 -6,5 -5,6 -3,7 -2,7 -1,8z" />
<path style="fill:none;stroke:#000;stroke-width:2" d="M282,68 l0,862 432,0 0,-862 -21,-17 -28,-8 -30,-6 -34,-4 -29,-2 -30,-2 -22,-1 -11,0 -11,0 -33,0 -31,2 -30,2 -27,3 -32,5 -26,6 -24,8 -13,12 0,2" />
<path style="fill:#999;stroke:#000;stroke-width:2" d="M970,930 l-942,0 0,40 942,0 0,-40z" />
<path style="fill:#999;stroke:#000;stroke-width:2" d="M910,812 l-156,0 0,20 156,0 0,-20z" />
<path style="fill:#999;stroke:#000;stroke-width:2" d="M322,224 l-58,0 0,216 58,0 0,-216z" />
<path style="fill:#7f7f7f" d="M734,320 l0,394 196,0 0,-394 -1,-2 -28,-10 -31,-4 -28,-2 -30,0 -35,3 -26,6 -17,7 0,2z" />
<path style="fill:#999" d="M750,321 l0,392 164,0 0,-12 0,-380 0,-2 -1,-2 -29,-10 -27,-3 -8,-1 -8,0 -9,0 -32,1 -31,5 -17,8 -1,2 -1,2z" />
<path style="fill:#b2b2b2" d="M766,321 l0,392 132,0 0,-12 0,-61 0,-37 0,-196 0,-37 0,-49 -24,-14 -28,-4 -7,0 -7,0 -31,2 -27,7 -7,7 -1,2z" />
<path style="fill:#ccc" d="M782,321 l0,392 100,0 0,-73 0,-37 0,-196 0,-37 0,-49 -1,-4 -29,-13 -20,-1 -28,3 -21,11 -1,4z" />
<path style="fill:#e5e5e5" d="M798,321 l0,392 68,0 0,-73 0,-37 0,-196 0,-37 0,-49 0,-4 -27,-14 -7,0 -28,8 -5,6 -1,4z" />
<path style="fill:#fff" d="M814,320 l0,394 35,0 0,-394 0,-3 -1,-3 -2,-3 -2,-3 -2,-3 -3,-1 -3,-2 -4,0 -4,0 -3,2 -3,1 -3,3 -2,3 -2,3 -1,3 0,3z" />
<path style="fill:none;stroke:#000;stroke-width:2" d="M734,320 l0,394 196,0 0,-394 -1,-2 -28,-10 -31,-4 -28,-2 -30,0 -35,3 -26,6 -17,7 0,2" />
<path style="fill:#7f7f7f;stroke:#000;stroke-width:2" d="M930,611 l-20,0 0,319 20,0 0,-319z" />
<path style="fill:#7f7f7f;stroke:#000;stroke-width:2" d="M754,611 l-20,0 0,319 20,0 0,-319z" />
<path style="fill:#7f7f7f;stroke:#000;stroke-width:2" d="M287,166 l-13,0 0,-125 13,-13 0,138z" />
<path style="fill:#7f7f7f;stroke:#000;stroke-width:2" d="M264,440 l-20,0 0,-196 20,-20 0,216z" />
<path style="fill:#b2b2b2;stroke:#000;stroke-width:2" d="M872,646 l-78,0 0,78 78,0 0,-78z" />
<path style="fill:#b2b2b2;stroke:#000;stroke-width:2" d="M322,28 l-35,0 0,138 35,0 0,-138z" />
<path style="fill:#e5e5e5;stroke:#000;stroke-width:2" d="M872,646 l-78,0 0,-10 78,0 0,10z" />
<path style="fill:#666;stroke:#000;stroke-width:2" d="M734,671 l-15,-31 -20,-27 -26,-22 -31,-20 -33,-16 -36,-13 -38,-12 -38,-10 -37,-9 -36,-8 -33,-9 -30,-8 -25,-9 -28,-16 -10,-13 -1,-8 -2,0 -14,0 -2,0 5,9 24,23 23,13 27,10 32,10 34,9 36,8 37,9 37,10 37,12 36,13 33,17 30,19 26,24 22,28 9,15 7,17 0,-2 0,-13z" />
<path style="fill:#4c4c4c;stroke:#000;stroke-width:2" d="M302,126 l70,0 0,643 427,0 0,-68 18,0 0,88 -465,0 0,-643 -50,0 0,-20z" />
<path style="fill:#4c4c4c" d="M832,450 l7,-3 3,-7 -3,-6 -7,-3 -7,3 -2,6 2,7 7,3z" />
<path style="fill:#4c4c4c" d="M832,509 l7,-3 3,-7 -3,-7 -7,-3 -7,3 -2,7 2,7 7,3z" />

</svg>
