<?xml version="1.0" encoding="utf-8" standalone="no"?><!DOCTYPE svg PUBLIC "-//W3C//DTD SVG 1.1//EN" "http://www.w3.org/Graphics/SVG/1.1/DTD/svg11-flat-20030114.dtd"><svg width="530" height="471" version="1.1" xmlns="http://www.w3.org/2000/svg" xmlns:xlink="http://www.w3.org/1999/xlink">

<path style="fill:#7f7f7f;stroke:#000;stroke-width:2" d="M190,316 l12,11 14,9 14,8 15,7 15,5 16,4 16,2 17,1 17,-1 16,-2 17,-5 15,-5 15,-7 14,-8 13,-10 12,-10 58,112 -324,29 -29,-29 57,-111z" />
<path style="fill:#7f7f7f;stroke:#000;stroke-width:2" d="M142,133 l-4,14 -3,14 -2,20 0,7 1,18 3,17 4,17 6,16 7,16 9,14 10,13 12,13 12,11 14,10 14,9 16,7 16,6 17,4 17,3 18,1 18,-1 17,-3 17,-4 17,-6 15,-7 15,-9 13,-10 13,-11 11,-13 11,-13 8,-14 8,-16 6,-16 4,-17 3,-17 1,-18 -1,-18 -3,-17 -4,-16 -6,-16 -8,-15 -8,-14 -11,-14 -11,-12 -13,-11 -13,-10 -15,-9 -15,-7 -17,-6 -17,-4 -17,-3 -18,-1 -294,0 0,118 29,29 98,-29z" />
<path style="fill:#b2b2b2;stroke:#000;stroke-width:2" d="M219,346 l12,10 14,9 14,8 15,7 15,5 16,4 17,2 16,1 17,-1 17,-2 16,-4 16,-6 15,-6 14,-8 13,-10 12,-10 57,111 -353,0 57,-110z" />
<path style="fill:#b2b2b2;stroke:#000;stroke-width:2" d="M171,162 l-4,14 -3,14 -1,14 -1,14 1,18 3,17 4,17 6,16 7,15 9,14 10,14 12,12 12,11 14,10 14,9 16,7 16,6 17,4 17,3 18,1 18,-1 17,-3 17,-4 17,-6 15,-7 15,-9 13,-10 13,-11 11,-12 11,-14 8,-14 8,-15 6,-16 4,-17 3,-17 1,-18 -1,-18 -3,-17 -4,-17 -6,-16 -8,-15 -8,-14 -11,-14 -11,-12 -13,-11 -13,-10 -15,-9 -15,-7 -17,-6 -17,-4 -17,-3 -18,-1 -294,0 0,118 127,0z" />
<path style="fill:none;stroke:#000;stroke-width:2" d="M44,44 l-29,-29" />

</svg>
