<?xml version="1.0" encoding="utf-8" standalone="no"?><!DOCTYPE svg PUBLIC "-//W3C//DTD SVG 1.1//EN" "http://www.w3.org/Graphics/SVG/1.1/DTD/svg11-flat-20030114.dtd"><svg width="999" height="439" version="1.1" xmlns="http://www.w3.org/2000/svg" xmlns:xlink="http://www.w3.org/1999/xlink">

<path style="fill:#000" d="M730,136 l-15,0 0,78 15,0 0,-78z" />
<path style="fill:#000" d="M911,273 l0,-19 -137,0 0,19 137,0z" />
<path style="fill:#000" d="M519,259 l0,-108 -20,0 0,108 20,0z" />
<path style="fill:#ccc;stroke:#000;stroke-width:2" d="M970,352 l-942,0 0,59 942,0 0,-59z" />
<path style="fill:#7f7f7f" d="M499,136 l-127,0 -10,-25 -40,0 -9,25 9,0 5,-20 30,0 5,20 -59,0 0,-39 -196,0 0,88 -49,0 0,-69 -30,0 0,177 30,0 0,-69 49,0 0,88 196,0 0,-39 196,0 0,-137z" />
<path style="fill:#999" d="M499,149 l-196,0 0,-32 -197,0 0,71 -49,0 0,-55 -29,0 0,143 29,0 0,-56 49,0 0,71 197,0 0,-31 196,0 0,-111z" />
<path style="fill:#b2b2b2" d="M499,162 l-196,0 0,-24 -197,0 0,54 -49,0 0,-42 -29,0 0,109 29,0 0,-43 49,0 0,55 59,0 0,81 79,0 0,-81 59,0 0,-25 196,0 0,-84z" />
<path style="fill:#ccc" d="M499,175 l-196,0 0,-17 -197,0 0,38 -49,0 0,-29 -29,0 0,74 29,0 0,-29 49,0 0,37 197,0 0,-16 29,0 0,65 -14,0 0,19 166,0 0,-19 -14,0 0,-65 29,0 0,-58z" />
<path style="fill:#e5e5e5" d="M499,189 l-196,0 0,-10 -196,0 0,21 -49,0 0,-16 -30,0 0,41 30,0 0,-16 49,0 0,20 196,0 0,-9 196,0 0,-31z" />
<path style="fill:none;stroke:#000;stroke-width:2" d="M499,136 l-128,0 -9,-25 -40,0 -9,25 -10,0 0,-39 -196,0 0,88 -49,0 0,-69 -30,0 0,177 30,0 0,-69 49,0 0,88 58,0 0,40 79,0 0,-40 59,0 0,-39 29,0 0,25 -14,0 0,19 166,0 0,-19 -14,0 0,-25 29,0 0,-137" />
<path style="fill:#e5e5e5;stroke:#000;stroke-width:2" d="M440,352 l0,-54 -19,0 0,54 19,0z" />
<path style="fill:#000" d="M470,303 l-10,0 0,9 10,0 0,-9z" />
<path style="fill:#000" d="M342,303 l-10,0 0,9 10,0 0,-9z" />
<path style="fill:#000" d="M406,303 l-10,0 0,9 10,0 0,-9z" />
<path style="fill:#999" d="M435,303 l-9,0 0,9 9,0 0,-9z" />
<path style="fill:none;stroke:#000;stroke-width:2" d="M362,136 l-5,-20 -30,0 -5,20 40,0" />
<path style="fill:#7f7f7f" d="M87,28 l0,19 61,0 0,50 35,0 0,-50 61,0 0,-19 -157,0z" />
<path style="fill:#999" d="M102,28 l0,20 49,0 0,49 28,0 0,-49 49,0 0,-20 -126,0z" />
<path style="fill:#b2b2b2" d="M117,28 l0,20 37,0 0,49 22,0 0,-49 37,0 0,-20 -96,0z" />
<path style="fill:#ccc" d="M132,28 l0,20 26,0 0,49 14,0 0,-49 26,0 0,-20 -66,0z" />
<path style="fill:#e5e5e5" d="M148,28 l0,19 14,0 0,50 7,0 0,-50 14,0 0,-19 -35,0z" />
<path style="fill:none;stroke:#000;stroke-width:2" d="M87,28 l0,19 61,0 0,50 35,0 0,-50 61,0 0,-19 -157,0" />
<path style="fill:none;stroke:#000;stroke-width:2" d="M303,273 l0,-137" />
<path style="fill:none;stroke:#000;stroke-width:2" d="M107,224 l0,-39" />
<path style="fill:none;stroke:#000;stroke-width:2" d="M58,224 l0,-39" />
<path style="fill:none;stroke:#000;stroke-width:2" d="M183,48 l-35,0" />
<path style="fill:none;stroke:#000;stroke-width:2" d="M440,342 l-19,0" />
<path style="fill:none;stroke:#000;stroke-width:2" d="M244,342 l-79,0" />
<path style="fill:#b2b2b2;stroke:#000;stroke-width:2" d="M205,155 l0,-39 -69,0 0,39 69,0z" />
<path style="fill:#b2b2b2;stroke:#000;stroke-width:2" d="M293,190 l0,-39 -20,0 0,39 20,0z" />
<path style="fill:none;stroke:#666;stroke-width:2" d="M264,312 l0,-78" />
<path style="fill:none;stroke:#666;stroke-width:2" d="M264,175 l0,-78" />
<path style="fill:#7f7f7f" d="M214,332 l-19,0 0,10 19,0 0,-10z" />
<path style="fill:#b2b2b2" d="M715,352 l0,-236 -196,0 0,236 196,0z" />
<path style="fill:#bfbfbf" d="M715,239 l0,-123 -196,0 0,123 196,0z" />
<path style="fill:#ccc" d="M715,180 l0,-64 -196,0 0,64 196,0z" />
<path style="fill:#e5e5e5" d="M715,151 l0,-20 -196,0 0,20 196,0z" />
<path style="fill:none;stroke:#000;stroke-width:2" d="M715,352 l0,-236 -196,0 0,236 196,0" />
<path style="fill:#7f7f7f" d="M754,254 l177,0 39,-10 0,-138 -39,-9 -177,0 0,14 -24,15 0,98 24,15 0,15z" />
<path style="fill:#999" d="M754,237 l177,0 39,-7 0,-110 -39,-8 -177,0 0,12 -25,12 0,78 25,12 0,11z" />
<path style="fill:#b2b2b2" d="M754,222 l177,0 39,-6 0,-82 -39,-6 -177,0 0,9 -25,9 0,58 25,9 0,9z" />
<path style="fill:#ccc" d="M754,206 l177,0 39,-4 0,-54 -39,-4 -177,0 0,6 -25,6 0,38 25,6 0,6z" />
<path style="fill:#e5e5e5" d="M754,190 l177,0 39,-2 0,-26 -39,-2 -177,0 0,3 -24,3 0,18 24,3 0,3z" />
<path style="fill:none;stroke:#000;stroke-width:2" d="M754,254 l177,0 39,-10 0,-138 -39,-9 -177,0 0,14 -24,15 0,98 24,15 0,15" />
<path style="fill:#b2b2b2;stroke:#000;stroke-width:2" d="M911,352 l0,-79 -137,0 0,79 137,0z" />
<path style="fill:#b2b2b2;stroke:#000;stroke-width:2" d="M901,273 l0,-78 -68,0 0,78 68,0z" />
<path style="fill:none;stroke:#fff;stroke-width:2" d="M892,263 l0,-58 -49,0" />
<path style="fill:#000" d="M897,263 l-5,0 0,5 5,0 0,-5z" />
<path style="fill:#000" d="M843,263 l-5,0 0,5 5,0 0,-5z" />
<path style="fill:#000" d="M843,200 l-5,0 0,5 5,0 0,-5z" />
<path style="fill:#000" d="M897,200 l-5,0 0,5 5,0 0,-5z" />
<path style="fill:none;stroke:#000;stroke-width:2" d="M754,239 l0,-128" />
<path style="fill:#4c4c4c" d="M911,97 l-147,0 0,83 147,0 0,-83z" />
<path style="fill:#ccc" d="M911,155 l-152,0 0,5 152,0 0,-5z" />
<path style="fill:#ccc" d="M911,170 l-152,0 0,5 152,0 0,-5z" />
<path style="fill:#b2b2b2" d="M911,126 l-152,0 0,5 152,0 0,-5z" />
<path style="fill:#b2b2b2" d="M911,141 l-152,0 0,5 152,0 0,-5z" />
<path style="fill:#999" d="M911,116 l-152,0 0,5 152,0 0,-5z" />
<path style="fill:#999" d="M911,106 l-152,0 0,5 152,0 0,-5z" />
<path style="fill:#999" d="M911,97 l-152,0 0,5 152,0 0,-5z" />

</svg>
