<?xml version="1.0" encoding="utf-8" standalone="no"?><!DOCTYPE svg PUBLIC "-//W3C//DTD SVG 1.1//EN" "http://www.w3.org/Graphics/SVG/1.1/DTD/svg11-flat-20030114.dtd"><svg width="999" height="519" version="1.1" xmlns="http://www.w3.org/2000/svg" xmlns:xlink="http://www.w3.org/1999/xlink">

<path style="fill:#4c7f7f" d="M200,48 l-34,0 0,34 34,0 0,-34z" />
<path style="fill:#699" d="M197,48 l-29,0 0,34 29,0 0,-34z" />
<path style="fill:#7fb2b2" d="M194,48 l-20,0 0,34 20,0 0,-34z" />
<path style="fill:#9cc" d="M189,48 l-9,0 0,34 9,0 0,-34z" />
<path style="fill:none;stroke:#000;stroke-width:2" d="M200,48 l-34,0 0,34 34,0 0,-34" />
<path style="fill:#4c7f7f" d="M252,28 l-138,0 0,20 138,0 0,-20z" />
<path style="fill:#699" d="M240,28 l-115,0 0,20 115,0 0,-20z" />
<path style="fill:#7fb2b2" d="M223,28 l-80,0 0,20 80,0 0,-20z" />
<path style="fill:#9cc" d="M203,28 l-40,0 0,20 40,0 0,-20z" />
<path style="fill:none;stroke:#000;stroke-width:2" d="M252,28 l-138,0 0,20 138,0 0,-20" />
<path style="fill:#194c4c;stroke:#000;stroke-width:2" d="M672,260 l-46,0 0,135 46,0 0,-135z" />
<path style="fill:#699;stroke:#000;stroke-width:2" d="M672,260 l-46,0 0,9 46,0 0,-9z" />
<path style="fill:#699;stroke:#000;stroke-width:2" d="M672,387 l-46,0 0,8 46,0 0,-8z" />
<path style="fill:#699;stroke:#000;stroke-width:2" d="M672,324 l-46,0 0,8 46,0 0,-8z" />
<path style="fill:#366;stroke:#000;stroke-width:2" d="M807,209 l-110,0 0,11 110,0 0,-11z" />
<path style="fill:#4c7f7f" d="M255,122 l0,323 -144,0 0,-323 144,0z" />
<path style="fill:#699" d="M255,151 l0,265 -144,0 0,-265 144,0z" />
<path style="fill:#7fb2b2" d="M255,191 l0,184 -144,0 0,-184 144,0z" />
<path style="fill:#9cc" d="M255,237 l0,92 -144,0 0,-92 144,0z" />
<path style="fill:none;stroke:#000;stroke-width:2" d="M255,122 l0,323 -144,0 0,-323 144,0" />
<path style="fill:#4c7f7f" d="M945,430 l-253,0 -20,-14 0,-181 20,-15 3,0 4,0 246,0 21,14 4,15 0,3 0,5 0,144 -11,24 -12,5 -2,0z" />
<path style="fill:#699" d="M945,413 l-253,0 -20,-15 0,-146 20,-12 3,0 4,0 246,0 23,15 2,4 0,4 0,5 0,119 -15,24 -5,1 -5,1z" />
<path style="fill:#7fb2b2" d="M945,387 l-253,0 -20,-12 0,-103 20,-6 3,0 4,0 246,0 23,11 2,3 0,3 0,7 0,80 -20,17 -5,0z" />
<path style="fill:#9cc" d="M945,355 l-253,0 -20,-5 0,-46 20,-9 3,0 4,0 246,0 25,7 0,2 0,3 0,40 0,2 -2,2 -18,4 -5,0z" />
<path style="fill:none;stroke:#000;stroke-width:2" d="M945,430 l-253,0 -20,-14 0,-181 20,-15 3,0 4,0 246,0 21,14 4,15 0,3 0,5 0,144 -11,24 -12,5 -2,0" />
<path style="fill:#699;stroke:#000;stroke-width:2" d="M812,212 l-120,0 0,-67 120,0 0,67z" />
<path style="fill:none;stroke:#fff;stroke-width:2" d="M807,206 l0,-55 -107,0" />
<path style="fill:#194c4c;stroke:#000;stroke-width:2" d="M873,220 l-181,0 0,210 181,0 0,-210z" />
<path style="fill:#9cc;stroke:#000;stroke-width:2" d="M873,304 l-187,0 0,8 187,0 0,-8z" />
<path style="fill:#9cc;stroke:#000;stroke-width:2" d="M873,243 l-187,0 0,12 187,0 0,-12z" />
<path style="fill:#9cc;stroke:#000;stroke-width:2" d="M873,332 l-187,0 0,12 187,0 0,-12z" />
<path style="fill:#9cc;stroke:#000;stroke-width:2" d="M873,275 l-187,0 0,8 187,0 0,-8z" />
<path style="fill:#9cc;stroke:#000;stroke-width:2" d="M873,214 l-187,0 0,9 187,0 0,-9z" />
<path style="fill:#699;stroke:#000;stroke-width:2" d="M873,361 l-187,0 0,12 187,0 0,-12z" />
<path style="fill:#699;stroke:#000;stroke-width:2" d="M873,393 l-187,0 0,8 187,0 0,-8z" />
<path style="fill:#699;stroke:#000;stroke-width:2" d="M873,422 l-187,0 0,8 187,0 0,-8z" />
<path style="fill:#699;stroke:#000;stroke-width:2" d="M715,445 l0,-15 20,0 8,-57 61,0 8,57 20,0 0,15 -117,0z" />
<path style="fill:#9cc;stroke:#000;stroke-width:2" d="M970,445 l-899,0 0,46 899,0 0,-46z" />
<path style="fill:#4c7f7f" d="M626,407 l0,-158 -29,0 0,158 29,0z" />
<path style="fill:#699" d="M626,393 l0,-130 -29,0 0,130 29,0z" />
<path style="fill:#7fb2b2" d="M626,373 l0,-90 -29,0 0,90 29,0z" />
<path style="fill:#9cc" d="M626,350 l0,-44 -29,0 0,44 29,0z" />
<path style="fill:none;stroke:#000;stroke-width:2" d="M626,407 l0,-158 -29,0 0,158 29,0" />
<path style="fill:none;stroke:#000;stroke-width:2" d="M611,407 l0,-158" />
<path style="fill:#4c7f7f;stroke:#000;stroke-width:2" d="M597,373 l-342,37 0,-170 342,43 0,90z" />
<path style="fill:#9cc;stroke:#000;stroke-width:2" d="M597,283 l-342,-43 0,15 342,43 0,-15z" />
<path style="fill:#9cc;stroke:#000;stroke-width:2" d="M597,358 l-342,40 0,15 342,-40 0,-15z" />
<path style="fill:#9cc;stroke:#000;stroke-width:2" d="M597,381 l-9,0 0,14 9,0 0,-14z" />
<path style="fill:#9cc;stroke:#000;stroke-width:2" d="M597,255 l-9,0 0,14 9,0 0,-14z" />
<path style="fill:#194c4c;stroke:#000;stroke-width:2" d="M111,82 l0,43 20,0 0,316 89,0 0,-316 35,0 0,-43 -144,0z" />
<path style="fill:#7fb2b2;stroke:#000;stroke-width:2" d="M220,347 l-89,0 0,17 89,0 0,-17z" />
<path style="fill:#699;stroke:#000;stroke-width:2" d="M220,413 l-89,0 0,14 89,0 0,-14z" />
<path style="fill:#9cc;stroke:#000;stroke-width:2" d="M220,283 l-89,0 0,15 89,0 0,-15z" />
<path style="fill:#9cc;stroke:#000;stroke-width:2" d="M220,212 l-89,0 0,14 89,0 0,-14z" />
<path style="fill:#9cc;stroke:#000;stroke-width:2" d="M220,145 l-89,0 0,18 89,0 0,-18z" />
<path style="fill:#4c7f7f" d="M48,338 l0,-141 -20,0 0,141 20,0z" />
<path style="fill:#699" d="M48,324 l0,-112 -20,0 0,112 20,0z" />
<path style="fill:#7fb2b2" d="M48,306 l0,-77 -20,0 0,77 20,0z" />
<path style="fill:#9cc" d="M48,286 l0,-37 -20,0 0,37 20,0z" />
<path style="fill:none;stroke:#000;stroke-width:2" d="M48,338 l0,-141 -20,0 0,141 20,0" />
<path style="fill:#366;stroke:#000;stroke-width:2" d="M48,243 l23,0 0,49 -23,0 0,-49z" />
<path style="fill:#9cc;stroke:#000;stroke-width:2" d="M71,243 l40,-100 0,287 -40,-138 0,-49z" />
<path style="fill:#4c7f7f;stroke:#000;stroke-width:2" d="M71,260 l40,-86 0,221 -40,-120 0,-15z" />

</svg>
