<?xml version="1.0" encoding="utf-8" standalone="no"?><!DOCTYPE svg PUBLIC "-//W3C//DTD SVG 1.1//EN" "http://www.w3.org/Graphics/SVG/1.1/DTD/svg11-flat-20030114.dtd"><svg width="999" height="452" version="1.1" xmlns="http://www.w3.org/2000/svg" xmlns:xlink="http://www.w3.org/1999/xlink">

<path style="fill:#4c4c4c;stroke:#000;stroke-width:2" d="M203,167 l23,-117 -115,0 22,117 70,0z" />
<path style="fill:#7f7f7f" d="M970,318 l-4,28 -11,24 -18,20 -23,14 -27,6 -9,0 -466,0 -92,-22 0,-234 92,-23 466,0 27,5 24,11 20,18 14,24 7,27 0,10 0,92z" />
<path style="fill:#999" d="M970,311 l-7,30 -20,24 -29,17 -27,5 -9,1 -466,0 -92,-19 0,-194 92,-21 466,0 27,4 24,10 26,21 13,29 2,15 0,78z" />
<path style="fill:#b2b2b2" d="M970,295 l-15,26 -26,13 -33,6 -9,1 -475,0 -92,-12 0,-117 92,-11 466,0 27,2 32,9 22,14 11,22 0,47z" />
<path style="fill:#ccc" d="M970,280 l-2,3 -25,8 -29,3 -27,1 -475,0 -92,-3 0,-40 92,-4 475,0 35,2 27,4 19,7 2,2 0,17z" />
<path style="fill:none;stroke:#000;stroke-width:2" d="M878,131 l0,281" />
<path style="fill:none;stroke:#000;stroke-width:2" d="M412,131 l0,281" />
<path style="fill:#4c4c4c;stroke:#000;stroke-width:2" d="M784,131 l-349,0 0,234 349,0 0,-234z" />
<path style="fill:#b2b2b2;stroke:#000;stroke-width:2" d="M831,284 l-406,0 0,23 406,0 0,-23z" />
<path style="fill:#b2b2b2;stroke:#000;stroke-width:2" d="M831,329 l-406,0 0,25 406,0 0,-25z" />
<path style="fill:#ccc;stroke:#000;stroke-width:2" d="M831,190 l-406,0 0,24 406,0 0,-24z" />
<path style="fill:#ccc;stroke:#000;stroke-width:2" d="M831,237 l-406,0 0,23 406,0 0,-23z" />
<path style="fill:#e5e5e5;stroke:#000;stroke-width:2" d="M831,143 l-406,0 0,24 406,0 0,-24z" />
<path style="fill:#e5e5e5;stroke:#000;stroke-width:2" d="M831,120 l-406,0 0,11 406,0 0,-11z" />
<path style="fill:#666;stroke:#000;stroke-width:2" d="M808,248 l-186,0 0,176 186,0 0,-176z" />
<path style="fill:none;stroke:#fff;stroke-width:2" d="M784,401 l0,-128 -129,0" />
<path style="fill:#000;stroke:#000;stroke-width:2" d="M878,412 l-466,0 0,12 466,0 0,-12z" />
<path style="fill:#333;stroke:#000;stroke-width:2" d="M320,167 l-70,0 0,209 70,0 0,-209z" />
<path style="fill:#4c4c4c;stroke:#000;stroke-width:2" d="M622,248 l-12,0 0,164 12,0 0,-164z" />
<path style="fill:#b2b2b2" d="M250,256 l70,0 0,32 -70,0 0,-32z" />
<path style="fill:#7f7f7f" d="M250,322 l70,0 0,32 -70,0 0,-32z" />
<path style="fill:#ccc" d="M250,190 l70,0 0,32 -70,0 0,-32z" />
<path style="fill:none;stroke:#000;stroke-width:2" d="M970,318 l-4,28 -11,24 -18,20 -23,14 -27,6 -9,0 -466,0 -92,-22 0,-234 92,-23 466,0 27,5 24,11 20,18 14,24 7,27 0,10 0,92" />
<path style="fill:#7f7f7f" d="M250,131 l-24,0 0,281 24,0 0,-281z" />
<path style="fill:#7f7f7f" d="M133,167 l-47,23 -22,0 0,164 22,0 47,22 0,-209z" />
<path style="fill:#bfbfbf" d="M64,143 l-25,0 0,258 25,0 0,-258z" />
<path style="fill:#999" d="M133,184 l-47,19 -22,0 0,136 22,0 47,21 0,-176z" />
<path style="fill:#b2b2b2" d="M133,220 l-47,11 -22,0 0,81 22,0 47,12 0,-104z" />
<path style="fill:#ccc" d="M133,254 l-47,4 -22,0 0,26 22,0 47,6 0,-36z" />
<path style="fill:none;stroke:#000;stroke-width:2" d="M133,167 l-47,23 -22,0 0,164 22,0 47,22 0,-209" />
<path style="fill:none;stroke:#000;stroke-width:2" d="M86,354 l0,-164" />
<path style="fill:#d9d9d9" d="M64,179 l-25,0 0,186 25,0 0,-186z" />
<path style="fill:#f2f2f2" d="M64,212 l-25,0 0,117 25,0 0,-117z" />
<path style="fill:#fff" d="M64,248 l-25,0 0,47 25,0 0,-47z" />
<path style="fill:none;stroke:#000;stroke-width:2" d="M64,143 l-25,0 0,258 25,0 0,-258" />
<path style="fill:#999" d="M250,156 l-24,0 0,234 24,0 0,-234z" />
<path style="fill:#b2b2b2" d="M250,201 l-24,0 0,142 24,0 0,-142z" />
<path style="fill:#ccc" d="M250,248 l-24,0 0,47 24,0 0,-47z" />
<path style="fill:none;stroke:#000;stroke-width:2" d="M250,131 l-24,0 0,281 24,0 0,-281" />
<path style="fill:#7f7f7f" d="M309,50 l0,-22 -281,0 0,22 281,0z" />
<path style="fill:#999" d="M286,50 l0,-22 -234,0 0,22 234,0z" />
<path style="fill:#b2b2b2" d="M239,50 l0,-22 -141,0 0,22 141,0z" />
<path style="fill:#ccc" d="M192,50 l0,-22 -47,0 0,22 47,0z" />
<path style="fill:none;stroke:#000;stroke-width:2" d="M309,50 l0,-22 -281,0 0,22 281,0" />
<path style="fill:#7f7f7f" d="M203,143 l-70,0 0,281 70,0 0,-281z" />
<path style="fill:#999" d="M203,167 l-70,0 0,234 70,0 0,-234z" />
<path style="fill:#b2b2b2" d="M203,214 l-70,0 0,140 70,0 0,-140z" />
<path style="fill:#ccc" d="M203,260 l-70,0 0,47 70,0 0,-47z" />
<path style="fill:none;stroke:#000;stroke-width:2" d="M203,143 l-70,0 0,281 70,0 0,-281" />
<path style="fill:#4c4c4c" d="M226,167 l-23,0 0,209 23,0 0,-209z" />
<path style="fill:#666" d="M226,184 l-23,0 0,176 23,0 0,-176z" />
<path style="fill:#7f7f7f" d="M226,218 l-23,0 0,106 23,0 0,-106z" />
<path style="fill:#999" d="M226,254 l-23,0 0,36 23,0 0,-36z" />
<path style="fill:none;stroke:#000;stroke-width:2" d="M226,167 l-23,0 0,209 23,0 0,-209" />
<circle style="fill:#4c7f7f;stroke:#000;stroke-width:2" cx="703" cy="330" r="34" />

</svg>
