<?xml version="1.0" encoding="utf-8" standalone="no"?><!DOCTYPE svg PUBLIC "-//W3C//DTD SVG 1.1//EN" "http://www.w3.org/Graphics/SVG/1.1/DTD/svg11-flat-20030114.dtd"><svg width="999" height="454" version="1.1" xmlns="http://www.w3.org/2000/svg" xmlns:xlink="http://www.w3.org/1999/xlink">

<path style="fill:#324c7f;stroke:#000;stroke-width:2" d="M346,346 l-160,0 0,59 160,0 0,-59z" />
<path style="fill:#7f7f7f" d="M882,307 l0,118 79,0 0,-395 -79,0 0,118 -358,0 0,-79 -40,0 0,98 -456,0 0,119 456,0 0,100 40,0 0,-79 358,0z" />
<path style="fill:#8a8a8a" d="M882,297 l0,106 79,0 0,-353 -79,0 0,106 -358,0 0,-70 -40,0 0,87 -456,0 0,107 456,0 0,87 40,0 0,-70 358,0z" />
<path style="fill:#919191" d="M882,288 l0,92 79,0 0,-307 -79,0 0,92 -358,0 0,-62 -40,0 0,77 -456,0 0,93 456,0 0,77 40,0 0,-62 358,0z" />
<path style="fill:#9c9c9c" d="M882,280 l0,78 79,0 0,-262 -79,0 0,79 -358,0 0,-53 -40,0 0,66 -456,0 0,77 456,0 0,66 40,0 0,-51 358,0z" />
<path style="fill:#a6a6a6" d="M882,271 l0,66 79,0 0,-219 -79,0 0,66 -358,0 0,-45 -40,0 0,55 -456,0 0,66 456,0 0,54 40,0 0,-43 358,0z" />
<path style="fill:#b0b0b0" d="M882,262 l0,52 79,0 0,-175 -79,0 0,53 -358,0 0,-34 -40,0 0,43 -456,0 0,51 456,0 0,43 40,0 0,-33 358,0z" />
<path style="fill:#b8b8b8" d="M882,252 l0,40 79,0 0,-130 -79,0 0,39 -358,0 0,-26 -40,0 0,32 -456,0 0,39 456,0 0,32 40,0 0,-26 358,0z" />
<path style="fill:#c2c2c2" d="M882,245 l0,24 79,0 0,-85 -79,0 0,26 -358,0 0,-16 -40,0 0,20 -456,0 0,25 456,0 0,21 40,0 0,-15 358,0z" />
<path style="fill:#ccc" d="M882,235 l0,11 79,0 0,-39 -79,0 0,13 -358,0 0,-10 -40,0 0,12 -456,0 0,11 456,0 0,10 40,0 0,-8 358,0z" />
<path style="fill:none;stroke:#000;stroke-width:2" d="M882,307 l0,118 79,0 0,-395 -79,0 0,118 -358,0 0,-79 -40,0 0,98 -456,0 0,119 456,0 0,100 40,0 0,-79 358,0" />
<path style="fill:none;stroke:#000;stroke-width:2" d="M921,30 l0,395" />
<path style="fill:none;stroke:#000;stroke-width:2" d="M882,307 l0,-159" />
<path style="fill:none;stroke:#000;stroke-width:2" d="M524,307 l0,-159" />
<path style="fill:#4c6699" d="M484,69 l-19,0 0,40 -398,0 0,39 -19,0 0,159 19,0 0,39 398,0 0,40 19,0 0,-317z" />
<path style="fill:#516b9e" d="M484,86 l-21,0 0,34 -396,0 0,36 -19,0 0,141 19,0 0,36 396,0 0,36 21,0 0,-283z" />
<path style="fill:#5973a6" d="M484,103 l-21,0 0,30 -396,0 0,32 -19,0 0,123 19,0 0,32 396,0 0,30 21,0 0,-247z" />
<path style="fill:#5e78ab" d="M484,120 l-21,0 0,26 -396,0 0,27 -19,0 0,107 19,0 0,27 396,0 0,26 21,0 0,-213z" />
<path style="fill:#657fb2" d="M484,137 l-21,0 0,23 -396,0 0,22 -19,0 0,89 19,0 0,22 396,0 0,23 21,0 0,-179z" />
<path style="fill:#6b85b8" d="M484,156 l-21,0 0,17 -396,0 0,19 -19,0 0,71 19,0 0,17 396,0 0,19 21,0 0,-143z" />
<path style="fill:#728cbf" d="M484,173 l-21,0 0,13 -396,0 0,13 -19,0 0,55 19,0 0,13 396,0 0,15 21,0 0,-109z" />
<path style="fill:#7791c4" d="M484,190 l-21,0 0,9 -396,0 0,10 -19,0 0,36 19,0 0,9 396,0 0,9 21,0 0,-73z" />
<path style="fill:#7f99cc" d="M484,207 l-19,0 0,5 -398,0 0,6 -19,0 0,19 19,0 0,6 398,0 0,3 19,0 0,-39z" />
<path style="fill:none;stroke:#000;stroke-width:2" d="M484,69 l-19,0 0,40 -398,0 0,39 -19,0 0,159 19,0 0,39 398,0 0,40 19,0 0,-317" />
<path style="fill:none;stroke:#000;stroke-width:2" d="M465,346 l0,-237" />
<path style="fill:none;stroke:#000;stroke-width:2" d="M67,307 l0,-159" />
<path style="fill:#4c6699;stroke:#000;stroke-width:2" d="M386,425 l-240,0 0,-20 240,0 0,20z" />
<path style="fill:#ccc;stroke:#000;stroke-width:2" d="M970,386 l-100,0 0,19 100,0 0,-19z" />
<path style="fill:#ccc;stroke:#000;stroke-width:2" d="M970,386 l-100,0 0,19 100,0 0,-19z" />
<path style="fill:#ccc;stroke:#000;stroke-width:2" d="M970,297 l-100,0 0,19 100,0 0,-19z" />
<path style="fill:#ccc;stroke:#000;stroke-width:2" d="M970,48 l-100,0 0,19 100,0 0,-19z" />
<path style="fill:#e5e5e5" d="M444,128 l-158,0 0,90 158,0 0,-90z" />
<path style="fill:none;stroke:#000;stroke-width:2" d="M444,218 l-158,0" />
<path style="fill:#ccc;stroke:#000;stroke-width:2" d="M533,137 l-49,0 0,21 49,0 0,-21z" />
<path style="fill:#98b2e5;stroke:#000;stroke-width:2" d="M454,137 l30,0 0,21 -30,0 0,-21z" />
<path style="fill:#ccc;stroke:#000;stroke-width:2" d="M533,297 l-49,0 0,19 49,0 0,-19z" />
<path style="fill:#98b2e5;stroke:#000;stroke-width:2" d="M454,297 l30,0 0,19 -30,0 0,-19z" />
<path style="fill:#4c6699" d="M424,30 l-317,0 0,88 317,0 0,-88z" />
<path style="fill:#5e78ab" d="M424,28 l-317,0 0,20 317,0 0,-20z" />
<path style="fill:#728cbf" d="M424,28 l-317,0 0,17 317,0 0,-17z" />
<path style="fill:#849ed1" d="M424,28 l-317,0 0,11 317,0 0,-11z" />
<path style="fill:#98b2e5" d="M424,28 l-317,0 0,7 317,0 0,-7z" />
<path style="fill:none;stroke:#000;stroke-width:2" d="M424,30 l-317,0 0,88 317,0 0,-88" />
<path style="fill:none;stroke:#193366;stroke-width:2" d="M86,346 l0,-237" />
<path style="fill:#7f7f7f;stroke:#000;stroke-width:2" d="M931,148 l0,-60 -30,-19 -21,0 -28,19 0,60 79,0z" />
<path style="fill:#ccc;stroke:#000;stroke-width:2" d="M970,137 l-100,0 0,21 100,0 0,-21z" />
<circle style="fill:#999;stroke:#000;stroke-width:2" cx="890" cy="108" r="29" />
<circle style="fill:#000" cx="890" cy="108" r="20" />

</svg>
