<?xml version="1.0" encoding="utf-8" standalone="no"?><!DOCTYPE svg PUBLIC "-//W3C//DTD SVG 1.1//EN" "http://www.w3.org/Graphics/SVG/1.1/DTD/svg11-flat-20030114.dtd"><svg width="999" height="684" version="1.1" xmlns="http://www.w3.org/2000/svg" xmlns:xlink="http://www.w3.org/1999/xlink">

<path style="fill:#f0f0f0;stroke:#000;stroke-width:2" d="M277,563 l518,0 0,15 -518,0 0,-15z" />
<path style="fill:#f0f0f0;stroke:#000;stroke-width:2" d="M329,206 l-22,0 0,320 22,0 0,-320z" />
<path style="fill:#f0f0f0;stroke:#000;stroke-width:2" d="M851,530 l0,-327 76,0 17,3 13,8 11,11 2,15 0,254 -2,13 -11,13 -13,6 -17,4 -76,0z" />
<path style="fill:#f0f0f0;stroke:#000;stroke-width:2" d="M329,218 l522,0 0,295 -522,0 0,-295z" />
<path style="fill:#f0f0f0;stroke:#000;stroke-width:2" d="M281,232 l26,-26 0,320 -26,-24 0,-270z" />
<path style="fill:#f0f0f0;stroke:#000;stroke-width:2" d="M207,232 l0,268 74,0 0,-268 -74,0z" />
<path style="fill:#f0f0f0;stroke:#000;stroke-width:2" d="M207,206 l-34,0 0,320 34,0 0,-320z" />
<path style="fill:#f0f0f0;stroke:#000;stroke-width:2" d="M173,500 l0,-268 -71,0 -14,4 -11,8 -6,18 -2,17 0,173 2,20 6,15 11,11 14,2 71,0z" />
<path style="fill:#f0f0f0;stroke:#000;stroke-width:2" d="M47,383 l0,-35 -2,0 -6,0 -7,5 -2,6 -2,7 2,6 2,7 7,4 6,0 2,0z" />
<path style="fill:#fff" d="M284,233 l23,-23 0,54 -23,6 0,-37z" />
<path style="fill:#fff" d="M210,233 l0,68 69,0 0,-68 -69,0z" />
<path style="fill:#fff" d="M206,210 l-29,0 0,56 29,0 0,-56z" />
<path style="fill:#fff" d="M925,229 l-72,0 0,-23 74,0 11,1 10,3 9,6 7,7 -9,4 -30,2z" />
<path style="fill:#fff" d="M329,223 l522,0 0,19 -522,0 0,-19z" />
<path style="fill:#fff" d="M327,210 l-17,0 0,43 17,0 0,-43z" />
<path style="fill:#000" d="M225,238 l11,6 13,7 13,8 13,9 -2,5 -3,2 -12,-9 -14,-8 -12,-7 -14,-7 3,-2 4,-4z" />
<path style="fill:#000" d="M225,255 l11,7 13,8 13,9 13,9 -2,4 -3,4 -12,-11 -14,-8 -12,-7 -14,-6 3,-5 4,-4z" />
<path style="fill:#000" d="M225,273 l11,8 13,9 13,9 13,8 -2,4 -3,3 -12,-9 -14,-9 -12,-8 -14,-7 3,-4 4,-4z" />
<path style="fill:#000" d="M268,498 l-13,-4 -13,-9 -13,-7 -13,-10 5,-3 2,-4 13,9 13,8 13,7 13,6 -5,5 -2,2z" />
<path style="fill:#000" d="M268,481 l-13,-7 -13,-9 -13,-8 -13,-9 5,-4 2,-2 13,8 13,9 13,6 13,7 -5,4 -2,5z" />
<path style="fill:#000" d="M268,463 l-13,-8 -13,-7 -13,-11 -13,-8 5,-3 2,-4 13,9 13,8 13,9 13,7 -5,4 -2,4z" />
<path style="fill:#000" d="M734,576 l52,0 0,56 -1,5 -1,4 -2,4 -3,4 -4,3 -5,2 -4,1 -6,1 -5,-1 -5,-1 -4,-2 -4,-3 -3,-4 -3,-4 -1,-4 -1,-5 0,-56z" />
<path style="fill:#000" d="M299,576 l49,0 0,56 0,5 -2,4 -2,4 -3,4 -3,3 -4,2 -5,1 -4,1 -3,0 -4,-1 -5,-1 -4,-2 -3,-3 -3,-4 -2,-4 -2,-4 0,-5 0,-56z" />
<path style="fill:#000" d="M325,556 l0,3 -3,0 0,-3 -6,5 15,0 -6,-5z" />
<path style="fill:#000" d="M762,556 l0,3 -2,0 0,-3 -9,5 18,0 -7,-5z" />
<path style="fill:#7f7f7f" d="M329,496 l-22,0 0,30 22,0 0,-30z" />
<path style="fill:#7f7f7f" d="M69,398 l-22,0 0,9 22,0 0,-9z" />
<path style="fill:#7f7f7f" d="M69,463 l11,11 13,9 9,4 71,0 0,13 -71,0 -11,-2 -11,-9 -7,-11 -4,-15z" />
<path style="fill:#7f7f7f" d="M207,507 l-34,0 0,19 34,0 0,-19z" />
<path style="fill:#7f7f7f" d="M285,487 l-78,0 0,13 78,0 0,-13z" />
<path style="fill:#7f7f7f" d="M970,478 l-11,18 -12,11 -20,8 -76,0 0,15 76,0 17,-4 13,-6 11,-13 2,-13 0,-16z" />
<path style="fill:#7f7f7f" d="M329,498 l522,0 0,15 -522,0 0,-15z" />
<path style="fill:#7f7f7f" d="M455,563 l337,0 0,-50 -337,0 0,50z" />
<path style="fill:#7f7f7f" d="M123,28 l32,4 -32,4 -32,-4 32,-4z" />
<path style="fill:#f0f0f0;stroke:#000;stroke-width:2" d="M99,337 l9,9 15,2 17,-2 7,-9 8,-305 -64,0 8,305z" />
<path style="fill:#fff" d="M106,36 l8,0 5,312 -7,0 -6,-312z" />
<path style="fill:#ccc" d="M47,383 l0,-13 -4,-2 -7,0 -4,-4 -4,-3 0,5 2,6 2,7 7,4 6,0 2,0z" />
<path style="fill:#ccc" d="M140,346 l5,-314 10,0 -8,305 -7,9z" />
<path style="fill:#ccc" d="M69,325 l-22,0 0,82 22,0 0,-82z" />

</svg>
