<?xml version="1.0" encoding="utf-8" standalone="no"?><!DOCTYPE svg PUBLIC "-//W3C//DTD SVG 1.1//EN" "http://www.w3.org/Graphics/SVG/1.1/DTD/svg11-flat-20030114.dtd"><svg width="999" height="859" version="1.1" xmlns="http://www.w3.org/2000/svg" xmlns:xlink="http://www.w3.org/1999/xlink">

<path style="fill:#4c4c4c;stroke:#000;stroke-width:2" d="M707,612 l32,0 0,219 -118,0 0,-35 86,0 0,-184z" />
<path style="fill:#4c4c4c;stroke:#000;stroke-width:2" d="M129,612 l-35,0 0,219 118,0 0,-35 -83,0 0,-184z" />
<path style="fill:#4c4c4c;stroke:#000;stroke-width:2" d="M304,253 l25,0 0,333 -25,0 0,-333z" />
<path style="fill:#7f7f7f" d="M94,186 l102,0 0,470 -102,0 0,-470z" />
<path style="fill:#999" d="M94,224 l102,0 0,394 -102,0 0,-394z" />
<path style="fill:#b2b2b2" d="M94,285 l102,0 0,270 -102,0 0,-270z" />
<path style="fill:#ccc" d="M94,361 l102,0 0,117 -102,0 0,-117z" />
<path style="fill:none;stroke:#000;stroke-width:2" d="M94,186 l102,0 0,470 -102,0 0,-470" />
<path style="fill:#7f7f7f" d="M209,186 l98,0 0,470 -98,0 0,-470z" />
<path style="fill:#999" d="M209,224 l98,0 0,394 -98,0 0,-394z" />
<path style="fill:#b2b2b2" d="M209,285 l98,0 0,270 -98,0 0,-270z" />
<path style="fill:#ccc" d="M209,361 l98,0 0,117 -98,0 0,-117z" />
<path style="fill:none;stroke:#000;stroke-width:2" d="M209,186 l98,0 0,470 -98,0 0,-470" />
<path style="fill:#7f7f7f" d="M28,256 l66,0 0,327 -66,0 0,-327z" />
<path style="fill:#999" d="M28,282 l66,0 0,276 -66,0 0,-276z" />
<path style="fill:#b2b2b2" d="M28,326 l66,0 0,187 -66,0 0,-187z" />
<path style="fill:#ccc" d="M28,380 l66,0 0,83 -66,0 0,-83z" />
<path style="fill:none;stroke:#000;stroke-width:2" d="M28,256 l66,0 0,327 -66,0 0,-327" />
<path style="fill:#666;stroke:#000;stroke-width:2" d="M94,345 l-66,-13 66,-12 0,25z" />
<path style="fill:#666;stroke:#000;stroke-width:2" d="M94,491 l-66,13 66,12 0,-25z" />
<path style="fill:#7f7f7f;stroke:#000;stroke-width:2" d="M28,332 l66,-12 0,-16 -66,12 0,16z" />
<path style="fill:#7f7f7f;stroke:#000;stroke-width:2" d="M28,504 l66,12 0,16 -66,-12 0,-16z" />
<path style="fill:#7f7f7f" d="M94,59 l0,-31 219,0 0,31 -219,0z" />
<path style="fill:#999" d="M113,59 l0,-31 181,0 0,31 -181,0z" />
<path style="fill:#b2b2b2" d="M142,59 l0,-31 124,0 0,31 -124,0z" />
<path style="fill:#ccc" d="M177,59 l0,-31 54,0 0,31 -54,0z" />
<path style="fill:none;stroke:#000;stroke-width:2" d="M94,59 l0,-31 219,0 0,31 -219,0" />
<path style="fill:#333;stroke:#000;stroke-width:2" d="M193,50 l19,0 0,606 -19,0 0,-606z" />
<path style="fill:#666;stroke:#000;stroke-width:2" d="M180,228 l-4,-8 -4,-9 -8,-8 -9,-2 -9,-2 -9,-2 -10,-1 -10,-2 -3,-1 -4,0 0,-134 184,0 0,9 0,8 0,117 -9,1 -10,2 -10,2 -10,2 -11,2 -6,1 -7,8 -4,9 -1,4 -2,4 -2,0 -13,0 0,-169 -13,0 0,169 -16,0z" />
<path style="fill:#7f7f7f;stroke:#000;stroke-width:2" d="M180,228 l16,0 0,-169 -16,0 0,169z" />
<path style="fill:#7f7f7f;stroke:#000;stroke-width:2" d="M209,228 l15,0 0,-169 -15,0 0,169z" />
<path style="fill:none;stroke:#000;stroke-width:2" d="M167,202 l0,-139" />
<path style="fill:none;stroke:#000;stroke-width:2" d="M237,202 l0,-139" />
<path style="fill:#7f7f7f;stroke:#000;stroke-width:2" d="M329,218 l445,0 0,394 -445,0 0,-394z" />
<path style="fill:#b2b2b2;stroke:#000;stroke-width:2" d="M345,304 l413,0 0,16 -413,0 0,-16z" />
<path style="fill:#b2b2b2;stroke:#000;stroke-width:2" d="M345,253 l413,0 0,16 -413,0 0,-16z" />
<path style="fill:#b2b2b2;stroke:#000;stroke-width:2" d="M345,202 l413,0 0,16 -413,0 0,-16z" />
<path style="fill:none;stroke:#fff;stroke-width:2" d="M345,320 l0,266" />
<path style="fill:none;stroke:#000;stroke-width:2" d="M758,320 l0,266" />
<path style="fill:#666;stroke:#000;stroke-width:2" d="M580,421 l0,165 -67,0 0,-165 1,-7 2,-6 3,-6 4,-5 6,-5 6,-3 6,-2 7,-1 7,1 6,2 6,3 4,5 4,5 3,6 1,6 1,7z" />
<path style="fill:#666;stroke:#000;stroke-width:2" d="M424,475 l0,111 -44,0 0,-111 0,-4 2,-4 2,-4 2,-4 4,-2 3,-2 5,-2 4,0 5,0 4,2 4,2 3,2 3,4 2,4 1,4 0,4z" />
<path style="fill:#666;stroke:#000;stroke-width:2" d="M723,475 l0,111 -45,0 0,-111 1,-4 1,-4 2,-4 3,-4 3,-2 4,-2 4,-2 5,0 4,0 4,2 4,2 3,2 3,4 2,4 1,4 1,4z" />
<path style="fill:#999;stroke:#000;stroke-width:2" d="M421,570 l-16,0 0,16 16,0 0,-16z" />
<path style="fill:#ccc;stroke:#000;stroke-width:2" d="M383,570 l22,0 0,16 -22,0 0,-16z" />
<path style="fill:#999;stroke:#000;stroke-width:2" d="M720,570 l-19,0 0,16 19,0 0,-16z" />
<path style="fill:#ccc;stroke:#000;stroke-width:2" d="M682,570 l19,0 0,16 -19,0 0,-16z" />
<path style="fill:#999;stroke:#000;stroke-width:2" d="M247,180 l0,-16 -19,0 0,16 19,0z" />
<path style="fill:#ccc;stroke:#000;stroke-width:2" d="M247,142 l0,22 -19,0 0,-22 19,0z" />
<path style="fill:#999;stroke:#000;stroke-width:2" d="M247,123 l0,-16 -19,0 0,16 19,0z" />
<path style="fill:#ccc;stroke:#000;stroke-width:2" d="M247,85 l0,22 -19,0 0,-22 19,0z" />
<path style="fill:#999;stroke:#000;stroke-width:2" d="M174,180 l0,-16 -16,0 0,16 16,0z" />
<path style="fill:#ccc;stroke:#000;stroke-width:2" d="M174,142 l0,22 -16,0 0,-22 16,0z" />
<path style="fill:#999;stroke:#000;stroke-width:2" d="M174,123 l0,-16 -16,0 0,16 16,0z" />
<path style="fill:#ccc;stroke:#000;stroke-width:2" d="M174,85 l0,22 -16,0 0,-22 16,0z" />
<path style="fill:#7f7f7f" d="M774,386 l196,0 0,67 -196,0 0,-67z" />
<path style="fill:#999" d="M774,393 l196,0 0,54 -196,0 0,-54z" />
<path style="fill:#b2b2b2" d="M774,402 l196,0 0,38 -196,0 0,-38z" />
<path style="fill:#ccc" d="M774,412 l196,0 0,16 -196,0 0,-16z" />
<path style="fill:none;stroke:#000;stroke-width:2" d="M774,386 l196,0 0,67 -196,0 0,-67" />
<path style="fill:#999;stroke:#000;stroke-width:2" d="M94,612 l-31,0 0,219 117,0 0,-35 -86,0 0,-184z" />
<path style="fill:#999;stroke:#000;stroke-width:2" d="M739,612 l35,0 0,219 -118,0 0,-35 83,0 0,-184z" />

</svg>
