<?xml version="1.0" encoding="utf-8" standalone="no"?><!DOCTYPE svg PUBLIC "-//W3C//DTD SVG 1.1//EN" "http://www.w3.org/Graphics/SVG/1.1/DTD/svg11-flat-20030114.dtd"><svg width="999" height="545" version="1.1" xmlns="http://www.w3.org/2000/svg" xmlns:xlink="http://www.w3.org/1999/xlink">

<path style="fill:#4c4c4c" d="M965,502 l-712,0 0,9 712,0 0,-9z" />
<path style="fill:#999" d="M142,517 l-30,0 2,-51 28,0 12,11 0,29 -12,11z" />
<path style="fill:#b2b2b2" d="M142,511 l-30,0 2,-39 28,0 12,7 0,25 -12,7z" />
<path style="fill:#ccc" d="M142,502 l-30,0 2,-21 28,0 12,4 0,13 -12,4z" />
<path style="fill:none;stroke:#000;stroke-width:2" d="M142,517 l-30,0 2,-51 28,0 12,11 0,29 -12,11" />
<path style="fill:#999" d="M142,167 l-30,0 2,-49 28,0 12,9 0,30 -12,10z" />
<path style="fill:#b2b2b2" d="M142,163 l-30,0 2,-39 28,0 12,7 0,25 -12,7z" />
<path style="fill:#ccc" d="M142,152 l-30,0 2,-19 28,0 12,4 0,11 -12,4z" />
<path style="fill:none;stroke:#000;stroke-width:2" d="M142,167 l-30,0 2,-49 28,0 12,9 0,30 -12,10" />
<path style="fill:#7f7f7f;stroke:#000;stroke-width:2" d="M197,472 l26,0 0,45 -84,0 9,-290 -21,0 0,-118 70,0 0,363z" />
<path style="fill:#999;stroke:#000;stroke-width:2" d="M127,118 l759,0 0,384 -759,0 0,-384z" />
<path style="fill:#333;stroke:#000;stroke-width:2" d="M287,357 l40,0 0,149 -40,0 0,-149z" />
<path style="fill:#4c4c4c;stroke:#000;stroke-width:2" d="M955,188 l10,0 0,69 -10,0 0,-69z" />
<path style="fill:#999;stroke:#000;stroke-width:2" d="M965,502 l-79,0 0,-384 79,0 0,70 -10,0 0,69 10,0 0,245z" />
<path style="fill:#b2b2b2;stroke:#000;stroke-width:2" d="M366,506 l0,-394 -79,0 0,245 40,0 0,149 39,0z" />
<path style="fill:#191919;stroke:#000;stroke-width:2" d="M208,127 l70,0 0,55 -70,0 0,-55z" />
<path style="fill:#191919;stroke:#000;stroke-width:2" d="M208,193 l70,0 0,70 -70,0 0,-70z" />
<path style="fill:#191919;stroke:#000;stroke-width:2" d="M208,272 l70,0 0,70 -70,0 0,-70z" />
<path style="fill:#191919;stroke:#000;stroke-width:2" d="M208,353 l70,0 0,68 -70,0 0,-68z" />
<path style="fill:#191919;stroke:#000;stroke-width:2" d="M208,432 l70,0 0,60 -70,0 0,-60z" />
<path style="fill:#4c4c4c" d="M208,109 l-90,0 0,-81 90,0 0,81z" />
<path style="fill:#666" d="M197,109 l-70,0 0,-81 70,0 0,81z" />
<path style="fill:#7f7f7f" d="M178,109 l-30,0 0,-81 30,0 0,81z" />
<path style="fill:none;stroke:#000;stroke-width:2" d="M208,109 l-90,0 0,-81 90,0 0,81" />
<path style="fill:#b2b2b2" d="M178,472 l45,0 0,45 -84,0 9,-290 -21,0 0,-115 51,0 0,360z" />
<path style="fill:#7f7f7f;stroke:#000;stroke-width:2" d="M233,472 l20,0 0,45 -20,0 0,-45z" />
<path style="fill:#4c4c4c;stroke:#000;stroke-width:2" d="M223,477 l10,0 0,34 -10,0 0,-34z" />
<path style="fill:#ccc;stroke:#000;stroke-width:2" d="M257,472 l-4,0 0,45 4,0 0,-45z" />
<path style="fill:#b2b2b2;stroke:#000;stroke-width:2" d="M263,481 l-6,0 0,25 6,0 0,-25z" />
<path style="fill:#666" d="M238,496 l10,0 0,15 -10,0 0,-15z" />
<path style="fill:#999" d="M218,496 l-76,0 0,15 76,0 0,-15z" />
<path style="fill:#999" d="M363,332 l0,170 -31,0 0,-151 -39,0 0,-19 70,0z" />
<path style="fill:#b2b2b2;stroke:#000;stroke-width:2" d="M282,393 l50,0 0,9 -50,0 0,-9z" />
<path style="fill:#b2b2b2;stroke:#000;stroke-width:2" d="M282,432 l50,0 0,10 -50,0 0,-10z" />
<path style="fill:#b2b2b2;stroke:#000;stroke-width:2" d="M282,472 l50,0 0,9 -50,0 0,-9z" />
<path style="fill:#7f7f7f" d="M372,332 l508,0 0,164 -508,0 0,-164z" />
<path style="fill:#7f7f7f" d="M889,496 l0,-164 70,0 0,164 -70,0z" />
<path style="fill:#7f7f7f;stroke:#000;stroke-width:2" d="M895,302 l75,0 0,15 -75,0 0,-15z" />
<path style="fill:#7f7f7f;stroke:#000;stroke-width:2" d="M895,278 l75,0 0,13 -75,0 0,-13z" />
<path style="fill:#7f7f7f;stroke:#000;stroke-width:2" d="M895,327 l75,0 0,15 -75,0 0,-15z" />
<path style="fill:#000;stroke:#000;stroke-width:2" d="M556,517 l0,-11 130,0 0,-70 10,0 0,70 54,0 0,11 -194,0z" />
<path style="fill:none;stroke:#000;stroke-width:2" d="M223,472 l-60,0" />
<path style="fill:none;stroke:#000;stroke-width:2" d="M139,517 l9,-290 -21,0 0,-118" />
<path style="fill:#666;stroke:#000;stroke-width:2" d="M118,142 l9,0 0,354 -9,0 0,-354z" />
<path style="fill:#7f7f7f;stroke:#000;stroke-width:2" d="M118,257 l-90,0 0,91 90,0 0,-91z" />
<path style="fill:#666" d="M33,308 l79,0 0,34 -79,0 0,-34z" />
<path style="fill:#999" d="M142,327 l-30,0 2,-49 28,0 12,9 0,30 -12,10z" />
<path style="fill:#b2b2b2" d="M142,323 l-30,0 2,-41 28,0 12,7 0,25 -12,9z" />
<path style="fill:#ccc" d="M142,312 l-30,0 2,-19 28,0 12,4 0,11 -12,4z" />
<path style="fill:none;stroke:#000;stroke-width:2" d="M142,327 l-30,0 2,-49 28,0 12,9 0,30 -12,10" />

</svg>
