<?xml version="1.0" encoding="utf-8" standalone="no"?><!DOCTYPE svg PUBLIC "-//W3C//DTD SVG 1.1//EN" "http://www.w3.org/Graphics/SVG/1.1/DTD/svg11-flat-20030114.dtd"><svg width="999" height="689" version="1.1" xmlns="http://www.w3.org/2000/svg" xmlns:xlink="http://www.w3.org/1999/xlink">

<path style="fill:#00f;stroke:#000;stroke-width:2" d="M97,296 l0,137 -41,0 0,-137 41,0z" />
<path style="fill:#00f;stroke:#000;stroke-width:2" d="M28,472 l30,0 0,-216 -30,0 0,216z" />
<path style="fill:#7f7fff" d="M28,274 l28,0 0,-18 -28,0 0,18z" />
<path style="fill:#7f7fff" d="M97,296 l0,12 -41,0 0,-12 41,0z" />
<path style="fill:#0000ad" d="M28,472 l28,0 0,-16 -28,0 0,16z" />
<path style="fill:#0000ad" d="M97,423 l0,10 -41,0 0,-10 41,0z" />
<path style="fill:none;stroke:#000;stroke-width:2" d="M28,472 l28,0 0,-216 -28,0 0,216" />
<path style="fill:none;stroke:#000;stroke-width:2" d="M97,296 l0,137 -41,0 0,-137 41,0" />
<path style="fill:#0000bf;stroke:#000;stroke-width:2" d="M308,228 l-60,0 0,278 60,0 0,-278z" />
<path style="fill:#0000ad;stroke:#000;stroke-width:2" d="M460,540 l-20,0 0,105 -37,0 0,16 444,0 0,-16 -18,0 0,-105 -20,0 0,105 -349,0 0,-105z" />
<path style="fill:#7f7fff;stroke:#000;stroke-width:2" d="M417,192 l-16,0 -6,6 -12,169 12,167 6,6 14,0 11,3 516,0 22,-19 0,-314 -22,-20 -516,0 -9,2z" />
<path style="fill:#00f;stroke:#000;stroke-width:2" d="M936,558 l24,-15 0,-355 -24,-17 -85,0 -14,192 14,195 85,0z" />
<path style="fill:#00f;stroke:#000;stroke-width:2" d="M849,190 l-12,173 12,180 -444,0 -6,-3 -18,0 -8,-6 -14,-169 14,-167 8,-6 18,0 6,-2 444,0z" />
<path style="fill:#00f;stroke:#000;stroke-width:2" d="M373,536 l0,-2 -14,-169 14,-167 -8,-8 -28,10 -12,4 -16,0 -4,6 -13,155 13,155 4,4 14,0 14,4 28,15 8,-7z" />
<path style="fill:#7f7fff;stroke:#000;stroke-width:2" d="M847,212 l4,-33 -421,0 -1,0 -1,0 -2,1 -1,1 -2,1 -1,1 -1,1 0,1 0,19 0,2 1,2 1,2 2,1 1,0 2,1 1,0 1,0 417,0z" />
<path style="fill:#00f;stroke:#000;stroke-width:2" d="M849,520 l-2,-32 -418,0 -8,8 0,18 8,6 420,0z" />
<path style="fill:#0000bf;stroke:#000;stroke-width:2" d="M960,188 l-8,175 8,180 10,-180 -10,-175z" />
<path style="fill:none;stroke:#000;stroke-width:2" d="M419,194 l-14,173 14,173" />
<path style="fill:#7f7fff;stroke:#000;stroke-width:2" d="M403,238 l-4,0 -2,10 2,10 39,0 0,-20 -35,0z" />
<path style="fill:#7f7fff;stroke:#000;stroke-width:2" d="M845,246 l2,-32 -428,0 -6,8 0,16 6,8 426,0z" />
<path style="fill:#7f7fff;stroke:#000;stroke-width:2" d="M399,466 l-2,10 2,10 39,0 0,-20 -39,0z" />
<path style="fill:#00f;stroke:#000;stroke-width:2" d="M843,276 l2,-24 -430,0 -4,4 0,16 4,4 428,0z" />
<path style="fill:#7f7f7f;stroke:#000;stroke-width:2" d="M800,313 l-320,0 0,125 320,0 0,-125z" />
<path style="fill:#7f7fff;stroke:#000;stroke-width:2" d="M794,317 l-320,0 0,127 320,0 0,-127z" />
<path style="fill:#7f7f7f;stroke:#000;stroke-width:2" d="M740,339 l-210,0 0,84 210,0 0,-84z" />
<path style="fill:#0000ad;stroke:#000;stroke-width:2" d="M179,621 l-16,0 0,24 -38,0 0,16 147,0 0,-16 -93,0 0,-24z" />
<path style="fill:#b2b2b2" d="M248,542 l-18,0 0,29 18,0 0,-29z" />
<path style="fill:#00f;stroke:#000;stroke-width:2" d="M73,28 l0,26 195,0 0,-26 -195,0z" />
<path style="fill:#00f;stroke:#000;stroke-width:2" d="M125,127 l91,0 0,-73 -91,0 0,73z" />
<path style="fill:#7f7fff" d="M200,127 l10,0 0,-73 -10,0 0,73z" />
<path style="fill:#0000ad" d="M125,127 l16,0 0,-73 -16,0 0,73z" />
<path style="fill:#7f7fff" d="M252,28 l0,26 16,0 0,-26 -16,0z" />
<path style="fill:#0000ad" d="M73,28 l0,26 14,0 0,-26 -14,0z" />
<path style="fill:none;stroke:#000;stroke-width:2" d="M73,28 l0,26 195,0 0,-26 -195,0" />
<path style="fill:#00f;stroke:#000;stroke-width:2" d="M248,161 l-18,0 0,410 18,0 0,-410z" />
<path style="fill:#e0e0e0;stroke:#000;stroke-width:2" d="M113,238 l-16,0 0,258 16,0 0,-258z" />
<path style="fill:#b2b2b2" d="M113,476 l-16,0 0,20 16,0 0,-20z" />
<path style="fill:#7f7fff" d="M248,173 l-18,0 0,25 18,0 0,-25z" />
<path style="fill:#f0f0f0" d="M113,244 l-16,0 0,16 16,0 0,-16z" />
<path style="fill:#ccc;stroke:#000;stroke-width:2" d="M262,173 l-14,0 0,27 14,0 0,-6 2,0 0,-17 -2,0 0,-4z" />
<path style="fill:#ccc;stroke:#000;stroke-width:2" d="M262,530 l-14,0 0,28 14,0 0,-7 2,0 0,-15 -2,0 0,-6z" />
<path style="fill:#ccc;stroke:#000;stroke-width:2" d="M262,409 l-14,0 0,29 14,0 0,-5 2,0 0,-18 -2,0 0,-6z" />
<path style="fill:#ccc;stroke:#000;stroke-width:2" d="M262,286 l-14,0 0,27 14,0 0,-5 2,0 0,-16 -2,0 0,-6z" />
<path style="fill:none;stroke:#000;stroke-width:2" d="M248,161 l-18,0 0,410 18,0 0,-410" />
<path style="fill:none;stroke:#000;stroke-width:2" d="M113,238 l-16,0 0,258 16,0 0,-258" />
<path style="fill:#00f;stroke:#000;stroke-width:2" d="M113,573 l0,-414 4,-24 14,-20 18,-10 22,-4 21,4 18,10 14,20 6,24 0,414 -6,26 -14,18 -18,12 -21,4 -22,-4 -18,-12 -14,-18 -4,-26z" />
<path style="fill:#7f7fff" d="M216,125 l-12,-12 4,28 0,448 6,8 8,-8 0,-448 -6,-16z" />
<path style="fill:none;stroke:#000;stroke-width:2" d="M934,169 l6,196 -6,197" />

</svg>
