<?xml version="1.0" encoding="utf-8" standalone="no"?><!DOCTYPE svg PUBLIC "-//W3C//DTD SVG 1.1//EN" "http://www.w3.org/Graphics/SVG/1.1/DTD/svg11-flat-20030114.dtd"><svg width="999" height="885" version="1.1" xmlns="http://www.w3.org/2000/svg" xmlns:xlink="http://www.w3.org/1999/xlink">

<path style="fill:#597f7f;stroke:#000;stroke-width:2" d="M158,329 l-7,28 -6,28 -3,29 -1,28 2,43 6,41 10,40 14,38 18,36 21,34 24,32 27,29 29,27 32,24 34,21 36,18 38,14 40,10 41,6 21,2 22,0 21,0 42,-5 40,-8 39,-12 37,-16 35,-19 34,-22 30,-26 28,-28 26,-31 22,-33 19,-35 16,-37 12,-39 9,-41 4,-41 0,-22 0,-21 -4,-42 -9,-40 -12,-39 -16,-37 -19,-35 -22,-34 -26,-30 -28,-28 -30,-26 -34,-22 -35,-19 -37,-16 -39,-12 -40,-9 -42,-4 -21,0 -528,0 0,301 130,0z" />
<circle style="fill:#c60;stroke:#000;stroke-width:2" cx="555" cy="404" r="301" />
<circle style="fill:#164c4c;stroke:#000;stroke-width:2" cx="555" cy="404" r="50" />
<path style="fill:none;stroke:#000;stroke-width:2" d="M556,706 l37,-59 13,-66 -13,-66 -37,-60" />
<path style="fill:none;stroke:#000;stroke-width:2" d="M405,666 l62,-33 44,-51 22,-63 -2,-71" />
<path style="fill:none;stroke:#000;stroke-width:2" d="M294,556 l71,2 63,-21 51,-44 33,-63" />
<path style="fill:none;stroke:#000;stroke-width:2" d="M254,405 l60,37 65,13 66,-13 60,-37" />
<path style="fill:none;stroke:#000;stroke-width:2" d="M294,254 l33,62 51,44 63,22 71,-2" />
<path style="fill:none;stroke:#000;stroke-width:2" d="M404,144 l-2,70 22,64 44,50 62,33" />
<path style="fill:none;stroke:#000;stroke-width:2" d="M555,103 l-37,60 -13,66 13,66 37,60" />
<path style="fill:none;stroke:#000;stroke-width:2" d="M706,144 l-62,33 -44,50 -22,64 3,70" />
<path style="fill:none;stroke:#000;stroke-width:2" d="M817,254 l-71,-2 -63,21 -51,45 -33,62" />
<path style="fill:none;stroke:#000;stroke-width:2" d="M857,405 l-60,-37 -66,-13 -66,12 -59,38" />
<path style="fill:none;stroke:#000;stroke-width:2" d="M817,556 l-34,-63 -50,-44 -64,-22 -70,3" />
<path style="fill:none;stroke:#000;stroke-width:2" d="M706,666 l3,-70 -22,-64 -44,-51 -62,-33" />

</svg>
