<?xml version="1.0" encoding="utf-8" standalone="no"?><!DOCTYPE svg PUBLIC "-//W3C//DTD SVG 1.1//EN" "http://www.w3.org/Graphics/SVG/1.1/DTD/svg11-flat-20030114.dtd"><svg width="999" height="999" version="1.1" xmlns="http://www.w3.org/2000/svg" xmlns:xlink="http://www.w3.org/1999/xlink">

<path style="fill:#b2b2b2;stroke:#000;stroke-width:2" d="M851,695 l119,275 -786,0 119,-275 548,0z" />
<path style="fill:#7f7f7f" d="M851,695 l11,25 12,29 12,26 10,25 10,24 11,25 12,28 13,30 4,9 -22,-10 -45,-17 -45,-14 -45,-12 -47,-9 -47,-7 -47,-5 -47,-2 -47,0 -48,2 -47,5 -47,7 -46,9 -46,12 -45,14 -44,17 -22,10 3,-9 11,-23 11,-28 11,-26 11,-24 10,-25 11,-25 12,-29 10,-23 4,-9 17,0 531,0z" />
<path style="fill:#b2b2b2;stroke:#000;stroke-width:2" d="M578,28 l-550,0 0,315 166,0 -6,28 -3,29 0,40 4,40 8,38 11,37 15,35 18,34 22,31 24,29 27,27 29,24 31,22 34,18 35,15 37,11 38,8 40,4 20,1 20,-1 40,-4 38,-8 36,-11 35,-15 34,-18 31,-22 29,-24 27,-27 24,-29 21,-31 18,-34 15,-35 12,-37 8,-38 4,-40 0,-20 0,-20 -4,-40 -8,-38 -12,-36 -15,-35 -18,-34 -21,-31 -24,-29 -27,-27 -29,-24 -31,-21 -34,-18 -35,-15 -36,-12 -38,-8 -40,-4 -20,0z" />
<path style="fill:#e5e5e5" d="M882,503 l-40,-10 5,-27 4,-28 0,-32 -3,-28 -5,-27 -8,-25 -11,-25 -12,-23 -15,-22 -17,-21 -18,-18 -20,-17 -22,-15 -23,-13 -25,-10 -26,-9 -26,-5 -28,-3 -28,0 -26,4 -25,6 -5,1 -11,-40 5,-1 29,-5 31,-3 5,0 6,0 5,0 32,2 31,4 30,8 28,11 28,13 26,16 24,18 22,20 20,22 18,24 16,26 13,28 11,28 8,30 4,31 2,16 0,16 0,5 -2,32 -5,31 -1,10 -1,5z" />
<path style="fill:#e5e5e5" d="M299,141 l-271,0 0,-59 352,-1 -5,3 -5,3 -6,4 -5,3 -5,4 -6,4 -5,3 -5,4 -5,4 -6,4 -5,4 -5,4 -4,4 -5,4 -4,4 -5,4z" />
<path style="fill:#7f7f7f" d="M194,343 l-166,0 0,-119 209,0 -4,7 -4,7 -3,7 -4,7 -3,7 -3,8 -4,7 -2,8 -3,7 -3,8 -2,8 -2,7 -2,8 -2,7 -1,8 -1,8z" />
<path style="fill:#7f7f7f" d="M273,339 l39,9 -5,28 -3,27 -1,31 3,28 5,27 9,26 10,25 13,23 14,22 17,20 29,28 21,15 23,14 24,11 25,10 27,6 27,5 28,1 31,-2 26,-5 13,-2 9,37 -4,1 -30,6 -30,4 -5,0 -5,1 -5,0 -32,-2 -31,-5 -30,-8 -29,-10 -28,-13 -26,-16 -24,-18 -22,-21 -21,-22 -18,-24 -16,-26 -13,-28 -10,-29 -8,-30 -5,-31 -1,-16 -1,-16 0,-5 3,-31 5,-30 1,-10 1,-5z" />

</svg>
