<?xml version="1.0" encoding="utf-8" standalone="no"?><!DOCTYPE svg PUBLIC "-//W3C//DTD SVG 1.1//EN" "http://www.w3.org/Graphics/SVG/1.1/DTD/svg11-flat-20030114.dtd"><svg width="999" height="998" version="1.1" xmlns="http://www.w3.org/2000/svg" xmlns:xlink="http://www.w3.org/1999/xlink">

<path style="fill:#7f7f7f" d="M936,577 l-712,0 0,393 712,0 0,-393z" />
<path style="fill:#858585" d="M936,577 l-633,0 0,393 633,0 0,-393z" />
<path style="fill:#8a8a8a" d="M936,577 l-555,0 0,393 555,0 0,-393z" />
<path style="fill:#8f8f8f" d="M936,577 l-476,0 0,393 476,0 0,-393z" />
<path style="fill:#949494" d="M936,577 l-398,0 0,393 398,0 0,-393z" />
<path style="fill:#999" d="M936,577 l-319,0 0,393 319,0 0,-393z" />
<path style="fill:none;stroke:#000;stroke-width:2" d="M936,577 l-712,0 0,393 712,0 0,-393" />
<path style="fill:#666" d="M578,28 l-550,0 0,314 550,0 0,-314z" />
<path style="fill:#8c8c8c" d="M577,48 l-549,0 0,249 549,0 0,-249z" />
<path style="fill:#b2b2b2" d="M577,69 l-549,0 0,184 549,0 0,-184z" />
<path style="fill:#d9d9d9" d="M577,90 l-549,0 0,119 549,0 0,-119z" />
<path style="fill:#fff" d="M578,111 l-550,0 0,54 550,0 0,-54z" />
<path style="fill:none;stroke:#000;stroke-width:2" d="M578,28 l-550,0 0,314 550,0 0,-314" />
<circle style="fill:#999;stroke:#000;stroke-width:2" cx="577" cy="420" r="392" />
<path style="fill:#a6a6a6" d="M947,409 l-26,-134 -77,-122 -122,-77 -134,-26 -135,26 -122,77 -76,122 -26,134 26,135 76,122 122,77 135,25 134,-25 122,-77 77,-122 26,-135z" />
<path style="fill:#b2b2b2" d="M924,399 l-24,-122 -69,-110 -110,-70 -123,-23 -121,23 -111,70 -70,110 -23,122 23,122 70,110 111,70 121,23 123,-23 110,-70 69,-110 24,-122z" />
<path style="fill:#bfbfbf" d="M901,388 l-21,-109 -62,-99 -100,-63 -109,-20 -110,20 -98,63 -63,99 -21,109 21,110 63,99 98,62 110,21 109,-21 100,-62 62,-99 21,-110z" />
<path style="fill:#ccc" d="M878,378 l-19,-97 -55,-88 -88,-55 -97,-18 -96,18 -88,55 -55,88 -19,97 19,97 55,87 88,55 96,19 97,-19 88,-55 55,-87 19,-97z" />
<path style="fill:#d9d9d9" d="M855,368 l-16,-85 -48,-76 -76,-48 -85,-16 -84,16 -76,48 -48,76 -16,85 16,84 48,76 76,48 84,16 85,-16 76,-48 48,-76 16,-84z" />
<circle style="fill:#000" cx="578" cy="420" r="98" />

</svg>
