<?xml version="1.0" encoding="utf-8" standalone="no"?><!DOCTYPE svg PUBLIC "-//W3C//DTD SVG 1.1//EN" "http://www.w3.org/Graphics/SVG/1.1/DTD/svg11-flat-20030114.dtd"><svg width="999" height="959" version="1.1" xmlns="http://www.w3.org/2000/svg" xmlns:xlink="http://www.w3.org/1999/xlink">

<path style="fill:#060" d="M192,342 l-4,29 -3,29 0,42 4,34 6,35 10,32 12,32 15,30 18,30 18,28 23,26 25,23 26,22 -78,197 627,0 -77,-197 26,-22 24,-23 22,-26 20,-28 17,-30 15,-30 12,-32 9,-32 7,-35 3,-22 1,-12 0,-11 0,-31 -4,-40 -8,-38 -11,-37 -15,-35 -18,-33 -22,-31 -24,-29 -27,-27 -29,-25 -31,-21 -34,-18 -35,-15 -37,-11 -38,-8 -20,-2 -20,-2 -20,0 -549,0 0,314 164,0z" />
<path style="fill:#008c00" d="M201,313 l-29,0 -35,-1 -20,-1 1,0 -60,0 -30,0 0,-8 0,-239 0,-8 402,0 -30,14 -29,17 -28,19 -26,21 -24,23 -21,26 -20,26 -18,29 -15,30 -12,31 -3,10 -3,11z" />
<path style="fill:#00b200" d="M210,282 l-182,0 0,-195 343,-2 -14,9 -13,9 -12,10 -13,11 -12,11 -12,12 -11,12 -10,12 -10,13 -9,13 -10,14 -8,14 -8,15 -7,13 -6,15 -6,14z" />
<path style="fill:#00b200" d="M383,226 l28,27 27,-23 30,-19 32,-14 32,-8 35,-5 33,2 34,5 32,11 32,15 29,20 26,25 22,28 16,31 12,32 7,34 2,33 -2,34 -7,33 -12,32 -16,31 -22,27 -8,9 27,29 10,-10 17,-22 15,-22 13,-24 10,-25 7,-26 5,-26 2,-26 1,-13 -1,-13 -4,-40 -7,-26 -8,-25 -11,-25 -14,-23 -16,-22 -19,-21 -21,-19 -22,-16 -23,-15 -25,-11 -25,-8 -26,-7 -26,-4 -13,-1 -14,0 -39,3 -26,5 -25,7 -25,11 -24,13 -23,15 -22,17 -10,10z" />
<path style="fill:#00d900" d="M223,253 l-195,0 0,-137 301,0 -8,7 -7,7 -9,8 -7,8 -9,8 -6,8 -7,9 -8,8 -7,9 -6,9 -6,9 -6,10 -6,9 -5,9 -5,10 -4,9z" />
<path style="fill:#0f0" d="M239,224 l-211,0 0,-79 270,0 -3,4 -5,3 -4,6 -4,4 -4,4 -4,5 -5,5 -4,5 -4,5 -3,5 -4,6 -3,5 -3,6 -4,5 -3,6 -2,5z" />
<path style="fill:none;stroke:#000;stroke-width:2" d="M192,342 l-4,29 -3,29 0,42 4,34 6,35 10,32 12,32 15,30 18,30 18,28 23,26 25,23 26,22 -78,197 627,0 -77,-197 26,-22 24,-23 22,-26 20,-28 17,-30 15,-30 12,-32 9,-32 7,-35 3,-22 1,-12 0,-11 0,-31 -4,-40 -8,-38 -11,-37 -15,-35 -18,-33 -22,-31 -24,-29 -27,-27 -29,-25 -31,-21 -34,-18 -35,-15 -37,-11 -38,-8 -20,-2 -20,-2 -20,0 -549,0 0,314 164,0" />
<path style="fill:#004000" d="M772,615 l-27,-29 -28,23 -30,19 -31,14 -33,8 -34,5 -34,-1 -33,-6 -32,-10 -32,-16 -28,-20 -27,-25 -21,-27 -17,-31 -12,-32 -8,-33 -2,-34 2,-33 8,-34 12,-32 17,-31 21,-28 9,-9 -29,-27 -9,11 -18,21 -15,23 -12,24 -10,24 -8,26 -5,26 -2,27 -1,13 1,13 4,39 7,26 8,25 11,24 14,24 16,22 19,21 21,19 22,16 25,14 23,11 26,8 26,7 39,4 13,1 13,-1 39,-4 26,-7 26,-8 24,-11 23,-14 22,-16 11,-10 10,-9z" />

</svg>
