<?xml version="1.0" encoding="utf-8" standalone="no"?><!DOCTYPE svg PUBLIC "-//W3C//DTD SVG 1.1//EN" "http://www.w3.org/Graphics/SVG/1.1/DTD/svg11-flat-20030114.dtd"><svg width="625" height="999" version="1.1" xmlns="http://www.w3.org/2000/svg" xmlns:xlink="http://www.w3.org/1999/xlink">

<path style="fill:#999" d="M440,970 l-353,0 0,-137 353,0 0,137z" />
<path style="fill:#b2b2b2" d="M390,970 l-253,0 0,-137 253,0 0,137z" />
<path style="fill:#ccc" d="M327,970 l-127,0 0,-137 127,0 0,137z" />
<path style="fill:none;stroke:#000;stroke-width:2" d="M440,970 l-353,0 0,-137 353,0 0,137" />
<path style="fill:#f2ffff;stroke:#000;stroke-width:2" d="M420,244 l-314,0 0,471 314,0 0,-471z" />
<path style="fill:#99a6a6" d="M401,244 l-275,0 0,471 275,0 0,-471z" />
<path style="fill:#b2bfbf" d="M362,244 l-197,0 0,471 197,0 0,-471z" />
<path style="fill:#ccd9d9" d="M312,244 l-98,0 0,471 98,0 0,-471z" />
<path style="fill:none;stroke:#000;stroke-width:2" d="M401,244 l-275,0 0,471 275,0 0,-471" />
<path style="fill:#7f7f7f;stroke:#000;stroke-width:2" d="M440,244 l-20,0 0,471 20,0 0,-471z" />
<path style="fill:#7f7f7f;stroke:#000;stroke-width:2" d="M106,244 l-19,0 0,471 19,0 0,-471z" />
<path style="fill:#7f7f7f;stroke:#000;stroke-width:2" d="M273,244 l-19,0 0,471 19,0 0,-471z" />
<path style="fill:#bfbfbf" d="M440,244 l-353,0 0,-59 353,0 0,59z" />
<path style="fill:#d9d9d9" d="M390,244 l-253,0 0,-59 253,0 0,59z" />
<path style="fill:#f2f2f2" d="M327,244 l-127,0 0,-59 127,0 0,59z" />
<path style="fill:none;stroke:#000;stroke-width:2" d="M440,244 l-353,0 0,-59 353,0 0,59" />
<path style="fill:#bfbfbf" d="M420,185 l-314,0 0,-98 314,0 0,98z" />
<path style="fill:#d9d9d9" d="M376,185 l-225,0 0,-98 225,0 0,98z" />
<path style="fill:#f2f2f2" d="M320,185 l-113,0 0,-98 113,0 0,98z" />
<path style="fill:none;stroke:#000;stroke-width:2" d="M420,185 l-314,0 0,-98 314,0 0,98" />
<path style="fill:#bfbfbf" d="M440,774 l-353,0 0,-59 353,0 0,59z" />
<path style="fill:#d9d9d9" d="M390,774 l-253,0 0,-59 253,0 0,59z" />
<path style="fill:#f2f2f2" d="M327,774 l-127,0 0,-59 127,0 0,59z" />
<path style="fill:none;stroke:#000;stroke-width:2" d="M440,774 l-353,0 0,-59 353,0 0,59" />
<path style="fill:#7f7f7f;stroke:#000;stroke-width:2" d="M460,715 l-59,0 0,59 59,0 0,-59z" />
<path style="fill:#a6a6a6;stroke:#000;stroke-width:2" d="M303,715 l-79,0 0,59 79,0 0,-59z" />
<path style="fill:#7f7f7f;stroke:#000;stroke-width:2" d="M126,715 l-59,0 0,59 59,0 0,-59z" />
<path style="fill:#bfbfbf" d="M597,833 l-569,0 0,-59 569,0 0,59z" />
<path style="fill:#d9d9d9" d="M431,833 l-336,0 0,-59 336,0 0,59z" />
<path style="fill:#f2f2f2" d="M348,833 l-169,0 0,-59 169,0 0,59z" />
<path style="fill:none;stroke:#000;stroke-width:2" d="M597,833 l-569,0 0,-59 569,0 0,59" />
<path style="fill:#4c4c4c" d="M597,774 l-118,0 0,-98 118,0 0,98z" />
<path style="fill:#666" d="M580,774 l-84,0 0,-98 84,0 0,98z" />
<path style="fill:#7f7f7f" d="M563,774 l-50,0 0,-98 50,0 0,98z" />
<path style="fill:none;stroke:#000;stroke-width:2" d="M597,774 l-118,0 0,-98 118,0 0,98" />
<path style="fill:#d9d9d9;stroke:#000;stroke-width:2" d="M283,87 l-39,0 0,-59 39,0 0,59z" />
<path style="fill:#a6a6a6;stroke:#000;stroke-width:2" d="M185,87 l-39,0 0,-20 39,0 0,20z" />
<path style="fill:#4c4c4c;stroke:#000;stroke-width:2" d="M175,67 l0,-3 -1,-3 -10,-6 -11,-6 -8,-5 -2,-1 2,-2 13,-1 13,1 18,1 24,2 31,3 0,-14 -26,-3 -21,-1 -19,-1 -15,0 -13,0 -10,1 -12,4 -3,3 -1,3 4,8 11,9 8,6 8,5 20,0z" />
<path style="fill:#333;stroke:#000;stroke-width:2" d="M420,926 l-78,0 0,24 78,0 0,-24z" />
<path style="fill:#333;stroke:#000;stroke-width:2" d="M303,926 l-79,0 0,24 79,0 0,-24z" />
<path style="fill:#333;stroke:#000;stroke-width:2" d="M185,926 l-79,0 0,24 79,0 0,-24z" />
<path style="fill:#333;stroke:#000;stroke-width:2" d="M420,852 l-78,0 0,25 78,0 0,-25z" />
<path style="fill:#333;stroke:#000;stroke-width:2" d="M303,852 l-79,0 0,25 79,0 0,-25z" />
<path style="fill:#333;stroke:#000;stroke-width:2" d="M185,852 l-79,0 0,25 79,0 0,-25z" />
<path style="fill:#333;stroke:#000;stroke-width:2" d="M361,889 l-78,0 0,25 78,0 0,-25z" />
<path style="fill:#333;stroke:#000;stroke-width:2" d="M244,889 l-79,0 0,25 79,0 0,-25z" />
<path style="fill:#333;stroke:#000;stroke-width:2" d="M126,889 l-20,0 0,25 20,0 0,-25z" />
<path style="fill:#333;stroke:#000;stroke-width:2" d="M420,889 l-19,0 0,25 19,0 0,-25z" />

</svg>
