<?xml version="1.0" encoding="utf-8" standalone="no"?><!DOCTYPE svg PUBLIC "-//W3C//DTD SVG 1.1//EN" "http://www.w3.org/Graphics/SVG/1.1/DTD/svg11-flat-20030114.dtd"><svg width="313" height="999" version="1.1" xmlns="http://www.w3.org/2000/svg" xmlns:xlink="http://www.w3.org/1999/xlink">

<path style="fill:#4c4c4c" d="M185,970 l0,-39 25,0 0,-196 -25,0 0,-157 15,0 0,-35 -15,0 0,-14 15,0 0,-118 -108,0 0,118 14,0 0,14 -14,0 0,35 14,0 0,157 -24,0 0,196 24,0 0,39 79,0z" />
<path style="fill:#7f7f7f" d="M173,970 l0,-39 17,0 0,-196 -17,0 0,-157 10,0 0,-35 -10,0 0,-14 10,0 0,-118 -74,0 0,118 10,0 0,14 -10,0 0,35 10,0 0,157 -17,0 0,196 17,0 0,39 54,0z" />
<path style="fill:#b2b2b2" d="M154,970 l0,-39 6,0 0,-196 -6,0 0,-157 4,0 0,-35 -4,0 0,-14 4,0 0,-118 -25,0 0,118 4,0 0,14 -4,0 0,35 4,0 0,157 -6,0 0,196 6,0 0,39 17,0z" />
<path style="fill:none;stroke:#191919;stroke-width:2" d="M185,970 l0,-39 25,0 0,-196 -25,0 0,-157 15,0 0,-35 -15,0 0,-14 15,0 0,-118 -108,0 0,118 14,0 0,14 -14,0 0,35 14,0 0,157 -24,0 0,196 24,0 0,39 79,0" />
<path style="fill:none;stroke:#000;stroke-width:2" d="M185,529 l-78,0" />
<path style="fill:none;stroke:#000;stroke-width:2" d="M185,544 l-78,0" />
<path style="fill:none;stroke:#000;stroke-width:2" d="M185,578 l-78,0" />
<path style="fill:none;stroke:#000;stroke-width:2" d="M185,735 l-78,0" />
<path style="fill:none;stroke:#000;stroke-width:2" d="M185,931 l-78,0" />
<path style="fill:#404040;stroke:#000;stroke-width:2" d="M28,375 l0,15 5,9 10,5 13,5 8,2 8,2 9,2 11,1 10,2 11,1 12,0 11,1 13,0 12,0 12,-1 11,0 12,-1 10,-2 10,-1 9,-2 9,-2 15,-4 11,-5 7,-6 2,-3 0,-3 0,-15 0,-3 -9,-8 -11,-5 -15,-5 -9,-2 -9,-2 -10,-1 -10,-2 -12,-1 -11,-1 -12,0 -12,-1 -13,1 -11,0 -12,1 -11,1 -10,2 -11,1 -9,2 -8,2 -15,5 -11,5 -7,5 -2,3 -1,3z" />
<ellipse style="fill:#7f7f7f;stroke:#000;stroke-width:2" cx="148" cy="374" rx="120" ry="30" />
<path style="fill:#999" d="M269,58 l-14,-25 -10,-5 -6,0 -11,0 -170,0 -25,14 -5,11 0,5 0,61 7,0 0,241 14,25 11,5 5,0 11,0 156,0 24,-14 6,-16 0,-241 7,0 0,-61z" />
<path style="fill:#b0b0b0" d="M248,58 l-11,-25 -9,-5 -5,0 -9,0 -141,0 -23,19 -1,5 -1,6 0,61 6,0 0,241 12,25 9,5 5,0 9,0 128,0 23,-19 2,-11 0,-241 6,0 0,-61z" />
<path style="fill:#c4c4c4" d="M228,58 l-10,-25 -6,-5 -4,0 -8,0 -111,0 -18,19 -1,5 -1,6 0,61 5,0 0,241 9,25 7,5 4,0 7,0 102,0 18,-19 2,-11 0,-241 5,0 0,-61z" />
<path style="fill:#dbdbdb" d="M207,58 l-9,-28 -3,-2 -3,0 -5,0 -83,0 -2,0 -12,24 0,6 0,61 3,0 0,241 10,28 2,2 3,0 6,0 75,0 2,0 12,-24 0,-6 0,-241 4,0 0,-61z" />
<path style="fill:#f2f2f2" d="M186,58 l-6,-28 -1,-2 -2,0 -3,0 -54,0 -2,0 -7,25 0,5 0,61 2,0 0,241 6,28 1,2 2,0 4,0 48,0 2,0 8,-30 0,-241 2,0 0,-61z" />
<path style="fill:none;stroke:#000;stroke-width:2" d="M262,118 l-226,0" />
<path style="fill:none;stroke:#000;stroke-width:2" d="M269,58 l-14,-25 -10,-5 -6,0 -11,0 -170,0 -25,14 -5,11 0,5 0,61 7,0 0,241 14,25 11,5 5,0 11,0 156,0 24,-14 6,-16 0,-241 7,0 0,-61" />
<path style="fill:#7f7f7f;stroke:#000;stroke-width:2" d="M73,269 l23,0 0,-143 -23,0 0,143z" />
<path style="fill:#7f7f7f;stroke:#000;stroke-width:2" d="M201,224 l38,0 0,-98 -38,0 0,98z" />
<path style="fill:#999;stroke:#000;stroke-width:2" d="M73,269 l-45,-15 0,-128 45,0 0,143z" />
<path style="fill:#999;stroke:#000;stroke-width:2" d="M239,224 l45,-8 0,-90 -45,0 0,98z" />
<path style="fill:#4c4c4c" d="M179,65 l-60,0 0,38 60,0 0,-38z" />
<path style="fill:#e5e5e5" d="M171,73 l-45,0 0,8 45,0 0,-8z" />
<path style="fill:#d9d9d9" d="M164,88 l-30,0 0,8 30,0 0,-8z" />
<path style="fill:#000" d="M185,499 l7,-6 3,-14 -3,-14 -7,-5 -7,5 -3,14 3,14 7,6z" />

</svg>
