<?xml version="1.0" encoding="utf-8" standalone="no"?><!DOCTYPE svg PUBLIC "-//W3C//DTD SVG 1.1//EN" "http://www.w3.org/Graphics/SVG/1.1/DTD/svg11-flat-20030114.dtd"><svg width="999" height="659" version="1.1" xmlns="http://www.w3.org/2000/svg" xmlns:xlink="http://www.w3.org/1999/xlink">

<path style="fill:#ccc;stroke:#000;stroke-width:2" d="M970,46 l-942,0 0,76 942,0 0,-76z" />
<path style="fill:#f2f2f2;stroke:#000;stroke-width:2" d="M970,499 l-942,0 0,75 942,0 0,-75z" />
<path style="fill:#a6a6a6;stroke:#000;stroke-width:2" d="M970,405 l-942,0 0,56 942,0 0,-56z" />
<path style="fill:#a6a6a6;stroke:#000;stroke-width:2" d="M970,159 l-942,0 0,57 942,0 0,-57z" />
<path style="fill:#d9d9d9" d="M951,141 l-904,0 0,339 904,0 0,-339z" />
<path style="fill:#f2f2f2" d="M951,159 l-904,0 0,302 904,0 0,-302z" />
<path style="fill:#fff" d="M951,216 l-904,0 0,189 904,0 0,-189z" />
<path style="fill:none;stroke:#000;stroke-width:2" d="M951,141 l-904,0 0,339 904,0 0,-339" />
<path style="fill:#d9d9d9" d="M951,141 l-904,0 0,-113 904,0 0,113z" />
<path style="fill:#f2f2f2" d="M951,134 l-904,0 0,-88 904,0 0,88z" />
<path style="fill:#fff" d="M951,116 l-904,0 0,-32 904,0 0,32z" />
<path style="fill:none;stroke:#000;stroke-width:2" d="M951,141 l-904,0 0,-113 904,0 0,113" />
<path style="fill:#d9d9d9" d="M951,593 l-904,0 0,-113 904,0 0,113z" />
<path style="fill:#f2f2f2" d="M951,574 l-904,0 0,-88 904,0 0,88z" />
<path style="fill:#fff" d="M951,536 l-904,0 0,-31 904,0 0,31z" />
<path style="fill:none;stroke:#000;stroke-width:2" d="M951,593 l-904,0 0,-113 904,0 0,113" />
<path style="fill:#737373" d="M216,141 l566,0 0,339 -566,0 0,-339z" />
<path style="fill:#8c8c8c" d="M216,160 l566,0 0,301 -566,0 0,-301z" />
<path style="fill:#999" d="M216,216 l566,0 0,189 -566,0 0,-189z" />
<path style="fill:none;stroke:#000;stroke-width:2" d="M216,141 l566,0 0,339 -566,0 0,-339" />
<path style="fill:#737373" d="M216,141 l566,0 0,-113 -566,0 0,113z" />
<path style="fill:#8c8c8c" d="M216,134 l566,0 0,-88 -566,0 0,88z" />
<path style="fill:#999" d="M216,116 l566,0 0,-32 -566,0 0,32z" />
<path style="fill:none;stroke:#000;stroke-width:2" d="M216,141 l566,0 0,-113 -566,0 0,113" />
<path style="fill:#737373" d="M216,593 l566,0 0,-113 -566,0 0,113z" />
<path style="fill:#8c8c8c" d="M216,574 l566,0 0,-88 -566,0 0,88z" />
<path style="fill:#999" d="M216,536 l566,0 0,-31 -566,0 0,31z" />
<path style="fill:none;stroke:#000;stroke-width:2" d="M216,593 l566,0 0,-113 -566,0 0,113" />
<circle style="fill:#4c4c4c;stroke:#000;stroke-width:2" cx="499" cy="310" r="151" />
<path style="fill:#666;stroke:#000;stroke-width:2" d="M369,386 l-11,-27 -7,-29 -1,-10 -1,-5 0,-5 3,-30 9,-28 6,-13 2,-5 261,0 12,27 6,29 2,10 0,5 0,5 -3,29 -9,29 -7,17 -262,1z" />
<path style="fill:none;stroke:#fff;stroke-width:2" d="M392,203 l-9,11 -9,12 -8,13 -6,13 -5,14 -4,15 -2,14 -1,15 1,16 2,14 4,15 5,14 7,13 7,12 9,12 10,11 10,9 12,9 12,8 13,6 14,5 15,4 15,2 15,1 15,-1 15,-2 14,-4 14,-5 13,-6 13,-8 12,-8 11,-10" />
<circle style="fill:#ccc;stroke:#000;stroke-width:2" cx="499" cy="310" r="38" />
<circle style="fill:#000;stroke:#000;stroke-width:2" cx="499" cy="310" r="25" />
<path style="fill:#f2f2f2;stroke:#000;stroke-width:2" d="M951,612 l-169,0 0,19 169,0 0,-19z" />
<path style="fill:#7f7f7f;stroke:#000;stroke-width:2" d="M895,593 l-113,0 0,19 113,0 0,-19z" />
<path style="fill:#f2f2f2;stroke:#000;stroke-width:2" d="M216,612 l-169,0 0,19 169,0 0,-19z" />
<path style="fill:#7f7f7f;stroke:#000;stroke-width:2" d="M216,593 l-113,0 0,19 113,0 0,-19z" />

</svg>
