<?xml version="1.0" encoding="utf-8" standalone="no"?><!DOCTYPE svg PUBLIC "-//W3C//DTD SVG 1.1//EN" "http://www.w3.org/Graphics/SVG/1.1/DTD/svg11-flat-20030114.dtd"><svg width="793" height="998" version="1.1" xmlns="http://www.w3.org/2000/svg" xmlns:xlink="http://www.w3.org/1999/xlink">

<path style="fill:#b2b2b2;stroke:#000;stroke-width:2" d="M519,217 l-41,-66 -5,51 46,15z" />
<path style="fill:#7f7f7f;stroke:#000;stroke-width:2" d="M642,950 l-41,-82 -409,0 -41,82 491,0z" />
<circle style="fill:#d9d9d9;stroke:#000;stroke-width:2" cx="396" cy="560" r="368" />
<path style="fill:#e5e5e5" d="M314,171 l0,-41 164,0 0,41 -3,33 -11,30 -17,29 -23,25 -28,20 -10,6 -53,10 -29,9 -27,13 -25,17 -23,19 -20,21 -18,24 -15,26 -12,28 -8,29 -4,30 -1,33 5,37 10,35 14,33 19,29 24,27 27,24 29,19 33,14 35,11 37,4 12,0 0,123 -19,0 -37,-4 -36,-7 -34,-11 -33,-14 -32,-17 -29,-20 -27,-23 -25,-25 -23,-27 -20,-29 -17,-32 -14,-33 -11,-34 -7,-36 -4,-37 0,-19 0,-13 3,-36 7,-36 10,-35 13,-33 17,-32 19,-30 23,-29 25,-26 27,-23 30,-21 11,-6 71,-34 22,-16 8,-20z" />
<circle style="fill:#ccc" cx="396" cy="560" r="245" />
<path style="fill:none;stroke:#000;stroke-width:2" d="M396,929 l-37,-2 -37,-5 -35,-9 -34,-13 -32,-15 -30,-19 -29,-21 -26,-24 -24,-26 -21,-29 -19,-30 -15,-32 -13,-34 -9,-35 -5,-37 -2,-18 0,-19 0,-13 3,-36 7,-36 10,-35 13,-33 17,-32 19,-30 23,-29 25,-26 27,-23 30,-21 11,-6 71,-34 22,-16 8,-20 0,-41 164,0 0,41 -3,33 -11,30 -17,29 -23,25 -28,20 -10,6 -53,10 -29,9 -27,13 -25,17 -23,19 -20,21 -18,24 -15,26 -12,28 -8,29 -4,30 -1,33 5,37 10,35 14,33 19,29 24,27 27,24 29,19 33,14 35,11 37,4 12,0" />
<circle style="fill:#d9d9d9" cx="396" cy="560" r="143" />
<path style="fill:#d9d9d9" d="M499,130 l-205,0 0,-102 205,0 0,102z" />
<path style="fill:#e5e5e5" d="M472,130 l-153,0 0,-102 153,0 0,102z" />
<path style="fill:#f2f2f2" d="M447,129 l-102,0 0,-101 102,0 0,101z" />
<path style="fill:#fff" d="M421,130 l-50,0 0,-102 50,0 0,102z" />
<path style="fill:none;stroke:#000;stroke-width:2" d="M499,130 l-205,0 0,-102 205,0 0,102" />
<path style="fill:#b2b2b2" d="M293,784 l1,-223 205,0 -1,224 -12,5 -13,4 -12,3 -13,4 -13,2 -13,2 -12,1 -7,0 -13,0 -14,-1 -13,-1 -13,-2 -14,-3 -12,-4 -13,-4 -12,-4 -6,-3z" />
<path style="fill:#bfbfbf" d="M294,662 l0,-101 205,0 -1,101 -10,9 -12,9 -12,7 -13,6 -13,5 -14,3 -13,2 -15,1 -14,-1 -13,-2 -14,-3 -14,-5 -12,-6 -13,-7 -11,-9 -11,-9z" />
<circle style="fill:#ccc;stroke:#000;stroke-width:2" cx="396" cy="560" r="102" />
<circle style="fill:#333" cx="396" cy="561" r="82" />
<path style="fill:#4c4c4c" d="M415,805 l7,-16 -7,-17 -16,-6 -16,6 -7,17 7,16 16,7 16,-7z" />
<path style="fill:#7f7f7f" d="M70,577 l16,7 17,-7 6,-16 -6,-17 -17,-6 -16,6 -7,17 7,16z" />
<path style="fill:#7f7f7f" d="M415,349 l7,-16 -7,-17 -16,-6 -16,6 -7,17 7,16 16,6 16,-6z" />
<path style="fill:#7f7f7f" d="M690,577 l16,7 17,-7 6,-16 -6,-17 -17,-6 -16,6 -6,17 6,16z" />
<path style="fill:#e5e5e5" d="M396,924 l77,-15 67,-31 67,-56 56,-108 -62,57 -61,30 -77,16 -67,-5 0,112z" />
<path style="fill:#b2b2b2;stroke:#000;stroke-width:2" d="M663,950 l-533,0 0,20 533,0 0,-20z" />

</svg>
