<?xml version="1.0" encoding="utf-8" standalone="no"?><!DOCTYPE svg PUBLIC "-//W3C//DTD SVG 1.1//EN" "http://www.w3.org/Graphics/SVG/1.1/DTD/svg11-flat-20030114.dtd"><svg width="712" height="999" version="1.1" xmlns="http://www.w3.org/2000/svg" xmlns:xlink="http://www.w3.org/1999/xlink">

<path style="fill:#b2b2b2;stroke:#000;stroke-width:2" d="M405,91 l10,0 -2,-24 -8,-13 -23,-6 -20,6 -9,13 -2,24 11,0 0,-24 6,-9 14,-4 17,4 6,9 0,24z" />
<path style="fill:#217f21" d="M438,89 l-332,0 0,125 332,0 0,-125z" />
<path style="fill:#005e00;stroke:#000;stroke-width:2" d="M259,171 l0,-21 1,-2 2,-2 3,-1 0,-1 15,0 1,1 2,2 2,3 1,0 0,21 51,0 0,37 -125,0 0,-37 47,0z" />
<path style="fill:#f0f0f0" d="M341,175 l-125,0 0,37 125,0 0,-37z" />
<path style="fill:#005e00" d="M157,89 l-51,0 0,125 51,0 0,-125z" />
<path style="fill:#217f21" d="M321,89 l-101,0 0,-41 101,0 0,41z" />
<path style="fill:#217f21" d="M313,28 l-84,0 0,20 84,0 0,-20z" />
<path style="fill:#005e00" d="M247,89 l-27,0 0,-41 27,0 0,41z" />
<path style="fill:#005e00" d="M251,28 l-22,0 0,20 22,0 0,-20z" />
<path style="fill:none;stroke:#000;stroke-width:2" d="M438,89 l-332,0 0,125 332,0 0,-125" />
<path style="fill:none;stroke:#000;stroke-width:2" d="M321,89 l-101,0 0,-41 101,0 0,41" />
<path style="fill:none;stroke:#000;stroke-width:2" d="M313,28 l-84,0 0,20 84,0 0,-20" />
<path style="fill:#217f21;stroke:#000;stroke-width:2" d="M450,212 l-357,0 0,365 357,0 0,-365z" />
<path style="fill:#005e00;stroke:#000;stroke-width:2" d="M175,308 l-20,0 0,269 20,0 0,-269z" />
<path style="fill:#005e00;stroke:#000;stroke-width:2" d="M253,308 l-18,0 0,269 18,0 0,-269z" />
<path style="fill:#005e00;stroke:#000;stroke-width:2" d="M329,212 l-18,0 0,365 18,0 0,-365z" />
<path style="fill:#005e00;stroke:#000;stroke-width:2" d="M396,308 l-20,0 0,269 20,0 0,-269z" />
<path style="fill:#005e00;stroke:#000;stroke-width:2" d="M460,308 l-18,0 0,269 18,0 0,-269z" />
<path style="fill:#005e00;stroke:#000;stroke-width:2" d="M112,212 l-19,0 0,365 19,0 0,-365z" />
<path style="fill:#217f21;stroke:#000;stroke-width:2" d="M483,591 l-408,0 0,96 408,0 0,-96z" />
<path style="fill:#005e00;stroke:#000;stroke-width:2" d="M165,591 l-21,0 0,96 21,0 0,-96z" />
<path style="fill:#005e00;stroke:#000;stroke-width:2" d="M253,591 l-21,0 0,96 21,0 0,-96z" />
<path style="fill:#005e00;stroke:#000;stroke-width:2" d="M337,591 l-20,0 0,96 20,0 0,-96z" />
<path style="fill:#005e00;stroke:#000;stroke-width:2" d="M411,591 l-21,0 0,96 21,0 0,-96z" />
<path style="fill:#005e00;stroke:#000;stroke-width:2" d="M483,591 l-21,0 0,96 21,0 0,-96z" />
<path style="fill:#005e00;stroke:#000;stroke-width:2" d="M98,591 l-23,0 0,96 23,0 0,-96z" />
<path style="fill:#217f21;stroke:#000;stroke-width:2" d="M507,591 l-457,0 0,-14 457,0 0,14z" />
<path style="fill:#217f21;stroke:#000;stroke-width:2" d="M507,702 l-457,0 0,-15 457,0 0,15z" />
<path style="fill:#005e00;stroke:#000;stroke-width:2" d="M618,858 l-39,0 10,112 21,0 8,-112z" />
<path style="fill:#005e00;stroke:#000;stroke-width:2" d="M110,858 l-39,0 12,112 18,0 9,-112z" />
<path style="fill:#005e00" d="M645,700 l-601,0 -6,4 -6,14 -2,23 -2,26 0,23 2,27 2,20 6,14 6,7 601,0 6,-7 4,-14 4,-20 0,-27 0,-23 0,-26 -4,-23 -4,-14 -6,-4z" />
<path style="fill:#217f21" d="M489,700 l-72,0 -2,4 -4,14 -4,23 -2,26 0,23 2,27 4,20 4,14 2,7 72,0 2,-7 4,-14 4,-20 0,-27 0,-23 -2,-26 -2,-23 -4,-14 -2,-4z" />
<path style="fill:#217f21" d="M511,700 l173,0 0,-31 -173,0 0,31z" />
<path style="fill:#005e00" d="M511,700 l37,0 0,-31 -37,0 0,31z" />
<path style="fill:#005e00" d="M648,700 l36,0 0,-31 -36,0 0,31z" />
<path style="fill:none;stroke:#000;stroke-width:2" d="M645,700 l-601,0 -6,4 -6,14 -2,23 -2,26 0,23 2,27 2,20 6,14 6,7 601,0 6,-7 4,-14 4,-20 0,-27 0,-23 0,-26 -4,-23 -4,-14 -6,-4" />
<path style="fill:none;stroke:#000;stroke-width:2" d="M511,700 l173,0 0,-31 -173,0 0,31" />
<path style="fill:#b2b2b2;stroke:#000;stroke-width:2" d="M499,690 l-16,0 0,-11 16,0 0,11z" />
<path style="fill:#b2b2b2;stroke:#000;stroke-width:2" d="M290,690 l-16,0 0,-11 16,0 0,11z" />
<path style="fill:#b2b2b2;stroke:#000;stroke-width:2" d="M71,690 l-17,0 0,-11 17,0 0,11z" />
<path style="fill:#b2b2b2;stroke:#000;stroke-width:2" d="M98,577 l-19,0 0,-11 19,0 0,11z" />
<path style="fill:#b2b2b2;stroke:#000;stroke-width:2" d="M296,577 l-18,0 0,-11 18,0 0,11z" />
<path style="fill:#b2b2b2;stroke:#000;stroke-width:2" d="M481,577 l-17,0 0,-11 17,0 0,11z" />
<path style="fill:#b2b2b2;stroke:#000;stroke-width:2" d="M444,214 l-17,0 0,-10 17,0 0,10z" />
<path style="fill:#b2b2b2;stroke:#000;stroke-width:2" d="M114,214 l-16,0 0,-10 16,0 0,10z" />
<path style="fill:#ccc;stroke:#000;stroke-width:2" d="M271,153 l-3,2 -3,4 3,6 3,2 7,-2 2,-6 -2,-4 -7,-2z" />

</svg>
