<?xml version="1.0" encoding="utf-8" standalone="no"?><!DOCTYPE svg PUBLIC "-//W3C//DTD SVG 1.1//EN" "http://www.w3.org/Graphics/SVG/1.1/DTD/svg11-flat-20030114.dtd"><svg width="999" height="597" version="1.1" xmlns="http://www.w3.org/2000/svg" xmlns:xlink="http://www.w3.org/1999/xlink">

<path style="fill:#0000bf;stroke:#000;stroke-width:2" d="M122,569 l509,0 0,-40 -68,0 0,-71 -373,0 0,71 -68,0 0,40z" />
<path style="fill:#7f7f7f" d="M774,160 l196,0 0,49 -196,0 0,-49z" />
<path style="fill:#adadad" d="M774,163 l196,0 0,33 -196,0 0,-33z" />
<path style="fill:#c2c2c2" d="M774,163 l196,0 0,25 -196,0 0,-25z" />
<path style="fill:#f0f0f0" d="M774,167 l196,0 0,8 -196,0 0,-8z" />
<path style="fill:#000" d="M294,486 l81,-10 83,10 11,30 -11,30 -83,8 -81,-8 -12,-30 12,-30z" />
<path style="fill:#0000ad" d="M842,231 l-64,0 0,-11 64,0 0,11z" />
<path style="fill:#0000bf" d="M703,128 l75,0 0,113 -75,0 0,-113z" />
<path style="fill:#0000bf" d="M62,86 l-21,0 0,149 21,0 0,-149z" />
<path style="fill:#0000bf" d="M163,113 l-99,0 0,103 99,0 0,-103z" />
<path style="fill:#0000ad" d="M836,130 l-11,0 0,20 11,0 0,-20z" />
<path style="fill:#0000bf" d="M823,128 l-26,0 0,83 26,0 0,-83z" />
<path style="fill:#0000bf" d="M196,41 l-27,0 0,396 27,0 0,-396z" />
<path style="fill:#0000bf" d="M674,41 l27,0 0,392 -27,0 0,-392z" />
<path style="fill:#0000ad" d="M716,482 l5,0 0,-26 -5,0 0,-8 -13,0 0,42 13,0 0,-8z" />
<path style="fill:#0000ad" d="M716,341 l5,0 0,-27 -5,0 0,-7 -13,0 0,41 13,0 0,-7z" />
<path style="fill:#0000ad" d="M674,28 l29,0 0,475 -29,0 0,-475z" />
<path style="fill:#0000ad" d="M716,73 l5,0 0,-26 -5,0 0,-8 -13,0 0,42 13,0 0,-8z" />
<path style="fill:#0000ad" d="M842,147 l-64,0 0,-14 64,0 0,14z" />
<path style="fill:#0000ad" d="M836,216 l-11,0 0,19 11,0 0,-19z" />
<path style="fill:#0000ad" d="M823,128 l-26,0 0,113 26,0 0,-113z" />
<path style="fill:#0000ad" d="M703,207 l75,0 0,34 -75,0 0,-34z" />
<path style="fill:#0000ad" d="M716,209 l5,0 0,-25 -5,0 0,-7 -13,0 0,39 13,0 0,-7z" />
<path style="fill:#0000ad" d="M197,28 l479,0 0,475 -479,0 0,-475z" />
<path style="fill:#0000ad" d="M167,28 l0,475 30,0 0,-475 -30,0z" />
<path style="fill:#0000ad" d="M154,482 l-4,0 0,-26 4,0 0,-8 13,0 0,42 -13,0 0,-8z" />
<path style="fill:#0000ad" d="M154,341 l-4,0 0,-27 4,0 0,-7 13,0 0,41 -13,0 0,-7z" />
<path style="fill:#0000ad" d="M154,73 l-4,0 0,-26 4,0 0,-8 13,0 0,42 -13,0 0,-8z" />
<path style="fill:#0000ad" d="M154,209 l-4,0 0,-25 4,0 0,-7 13,0 0,39 -13,0 0,-7z" />
<path style="fill:#0000ad" d="M165,109 l-103,0 0,132 103,0 0,-132z" />
<path style="fill:#0000ad" d="M62,81 l-21,0 0,184 21,0 0,-184z" />
<path style="fill:#0000ad" d="M32,258 l-4,0 0,-12 4,0 0,-1 9,0 0,15 -9,0 0,-2z" />
<path style="fill:#0000ad" d="M32,99 l-4,0 0,-11 4,0 0,-2 9,0 0,15 -9,0 0,-2z" />
<path style="fill:#0000ad" d="M32,203 l-4,0 0,-11 4,0 0,-2 9,0 0,15 -9,0 0,-2z" />
<path style="fill:#0000ad" d="M32,152 l-4,0 0,-9 4,0 0,-4 9,0 0,15 -9,0 0,-2z" />
<path style="fill:#0000bf" d="M199,41 l475,0 0,383 -475,0 0,-383z" />
<path style="fill:#00f" d="M674,56 l27,0 0,132 -27,0 0,-132z" />
<path style="fill:#00f" d="M196,56 l-27,0 0,132 27,0 0,-132z" />
<path style="fill:#00f" d="M197,47 l477,0 0,133 -477,0 0,-133z" />
<path style="fill:#00f" d="M162,116 l-98,0 0,36 98,0 0,-36z" />
<path style="fill:#00f" d="M62,92 l-21,0 0,51 21,0 0,-51z" />
<path style="fill:#7f7fff" d="M716,478 l-13,0 0,-19 13,0 0,19z" />
<path style="fill:#7f7fff" d="M716,337 l-13,0 0,-19 13,0 0,19z" />
<path style="fill:#7f7fff" d="M197,280 l477,0 0,29 -477,0 0,-29z" />
<path style="fill:#7f7fff" d="M674,267 l27,0 0,27 -27,0 0,-27z" />
<path style="fill:#7f7fff" d="M836,229 l-11,0 0,-9 11,0 0,9z" />
<path style="fill:#7f7fff" d="M716,207 l-13,0 0,-19 13,0 0,19z" />
<path style="fill:#7f7fff" d="M836,145 l-11,0 0,-10 11,0 0,10z" />
<path style="fill:#7f7fff" d="M823,130 l-24,0 0,7 24,0 0,-7z" />
<path style="fill:#7f7fff" d="M703,133 l75,0 0,10 -75,0 0,-10z" />
<path style="fill:#7f7fff" d="M716,69 l-13,0 0,-19 13,0 0,19z" />
<path style="fill:#7f7fff" d="M674,60 l27,0 0,30 -27,0 0,-30z" />
<path style="fill:#7f7fff" d="M154,478 l13,0 0,-19 -13,0 0,19z" />
<path style="fill:#7f7fff" d="M154,337 l13,0 0,-19 -13,0 0,19z" />
<path style="fill:#7f7fff" d="M196,267 l-27,0 0,27 27,0 0,-27z" />
<path style="fill:#7f7fff" d="M154,207 l13,0 0,-19 -13,0 0,19z" />
<path style="fill:#7f7fff" d="M197,67 l477,0 0,34 -477,0 0,-34z" />
<path style="fill:#7f7fff" d="M196,62 l-27,0 0,30 27,0 0,-30z" />
<path style="fill:#7f7fff" d="M154,69 l13,0 0,-19 -13,0 0,19z" />
<path style="fill:#7f7fff" d="M32,201 l9,0 0,-7 -9,0 0,7z" />
<path style="fill:#7f7fff" d="M32,256 l9,0 0,-8 -9,0 0,8z" />
<path style="fill:#7f7fff" d="M162,122 l-98,0 0,9 98,0 0,-9z" />
<path style="fill:#7f7fff" d="M32,150 l9,0 0,-7 -9,0 0,7z" />
<path style="fill:#7f7fff" d="M62,99 l-21,0 0,15 21,0 0,-15z" />
<path style="fill:#7f7fff" d="M32,98 l9,0 0,-8 -9,0 0,8z" />
<ellipse style="fill:#e5e5e5;stroke:#000;stroke-width:2" cx="375" cy="243" rx="164" ry="166" />
<circle style="fill:#fff;stroke:#000;stroke-width:2" cx="374" cy="243" r="92" />
<circle style="fill:#666" cx="375" cy="244" r="81" />
<path style="fill:#000" d="M376,96 l12,5 5,15 -5,12 -12,5 -15,-5 -5,-12 5,-15 15,-5z" />
<path style="fill:#000" d="M311,114 l15,4 3,13 -3,14 -15,5 -14,-5 -3,-14 3,-13 14,-4z" />
<path style="fill:#000" d="M263,162 l15,5 4,12 -4,13 -15,5 -11,-5 -6,-13 6,-12 11,-5z" />
<path style="fill:#000" d="M248,224 l12,5 5,14 -5,13 -12,6 -13,-6 -6,-13 6,-14 13,-5z" />
<path style="fill:#000" d="M263,290 l15,5 4,12 -4,13 -15,6 -11,-6 -6,-13 6,-12 11,-5z" />
<path style="fill:#000" d="M311,337 l15,6 3,11 -3,13 -15,6 -14,-6 -3,-13 3,-11 14,-6z" />
<path style="fill:#000" d="M376,352 l12,6 5,15 -5,11 -12,6 -15,-6 -5,-11 5,-15 15,-6z" />
<path style="fill:#000" d="M439,337 l15,6 4,11 -4,13 -15,6 -12,-6 -5,-13 5,-11 12,-6z" />
<path style="fill:#000" d="M486,290 l15,5 6,12 -6,13 -15,6 -13,-6 -4,-13 4,-12 13,-5z" />
<path style="fill:#000" d="M503,226 l15,5 6,12 -6,13 -15,6 -12,-6 -5,-13 5,-12 12,-5z" />
<path style="fill:#000" d="M486,162 l15,5 6,12 -6,13 -15,5 -13,-5 -4,-13 4,-12 13,-5z" />
<path style="fill:#000" d="M441,114 l13,4 4,13 -4,14 -13,5 -14,-5 -5,-14 5,-13 14,-4z" />
<ellipse style="fill:#e5e5e5;stroke:#000;stroke-width:2" cx="375" cy="243" rx="164" ry="166" />
<circle style="fill:#fff;stroke:#000;stroke-width:2" cx="374" cy="243" r="92" />
<circle style="fill:#666" cx="375" cy="244" r="81" />
<path style="fill:#000" d="M376,96 l12,5 5,15 -5,12 -12,5 -15,-5 -5,-12 5,-15 15,-5z" />
<path style="fill:#000" d="M311,114 l15,4 3,13 -3,14 -15,5 -14,-5 -3,-14 3,-13 14,-4z" />
<path style="fill:#000" d="M263,162 l15,5 4,12 -4,13 -15,5 -11,-5 -6,-13 6,-12 11,-5z" />
<path style="fill:#000" d="M248,224 l12,5 5,14 -5,13 -12,6 -13,-6 -6,-13 6,-14 13,-5z" />
<path style="fill:#000" d="M263,290 l15,5 4,12 -4,13 -15,6 -11,-6 -6,-13 6,-12 11,-5z" />
<path style="fill:#000" d="M311,337 l15,6 3,11 -3,13 -15,6 -14,-6 -3,-13 3,-11 14,-6z" />
<path style="fill:#000" d="M376,352 l12,6 5,15 -5,11 -12,6 -15,-6 -5,-11 5,-15 15,-6z" />
<path style="fill:#000" d="M439,337 l15,6 4,11 -4,13 -15,6 -12,-6 -5,-13 5,-11 12,-6z" />
<path style="fill:#000" d="M486,290 l15,5 6,12 -6,13 -15,6 -13,-6 -4,-13 4,-12 13,-5z" />
<path style="fill:#000" d="M503,226 l15,5 6,12 -6,13 -15,6 -12,-6 -5,-13 5,-12 12,-5z" />
<path style="fill:#000" d="M486,162 l15,5 6,12 -6,13 -15,5 -13,-5 -4,-13 4,-12 13,-5z" />
<path style="fill:#000" d="M441,114 l13,4 4,13 -4,14 -13,5 -14,-5 -5,-14 5,-13 14,-4z" />
<path style="fill:#0000bf" d="M62,269 l-21,0 0,149 21,0 0,-149z" />
<path style="fill:#0000bf" d="M163,295 l-99,0 0,104 99,0 0,-104z" />
<path style="fill:#0000ad" d="M32,335 l-4,0 0,-9 4,0 0,-4 9,0 0,15 -9,0 0,-2z" />
<path style="fill:#0000ad" d="M32,386 l-4,0 0,-11 4,0 0,-2 9,0 0,15 -9,0 0,-2z" />
<path style="fill:#0000ad" d="M32,282 l-4,0 0,-11 4,0 0,-2 9,0 0,15 -9,0 0,-2z" />
<path style="fill:#0000ad" d="M32,441 l-4,0 0,-12 4,0 0,-2 9,0 0,15 -9,0 0,-1z" />
<path style="fill:#0000ad" d="M62,263 l-21,0 0,185 21,0 0,-185z" />
<path style="fill:#0000ad" d="M165,243 l-103,0 0,181 103,0 0,-181z" />
<path style="fill:#00f" d="M62,275 l-21,0 0,51 21,0 0,-51z" />
<path style="fill:#00f" d="M162,299 l-98,0 0,36 98,0 0,-36z" />
<path style="fill:#7f7fff" d="M32,280 l9,0 0,-7 -9,0 0,7z" />
<path style="fill:#7f7fff" d="M62,282 l-21,0 0,15 21,0 0,-15z" />
<path style="fill:#7f7fff" d="M32,333 l9,0 0,-7 -9,0 0,7z" />
<path style="fill:#7f7fff" d="M162,305 l-98,0 0,11 98,0 0,-11z" />
<path style="fill:#7f7fff" d="M32,439 l9,0 0,-8 -9,0 0,8z" />
<path style="fill:#7f7fff" d="M32,384 l9,0 0,-8 -9,0 0,8z" />

</svg>
