<?xml version="1.0" encoding="utf-8" standalone="no"?><!DOCTYPE svg PUBLIC "-//W3C//DTD SVG 1.1//EN" "http://www.w3.org/Graphics/SVG/1.1/DTD/svg11-flat-20030114.dtd"><svg width="999" height="701" version="1.1" xmlns="http://www.w3.org/2000/svg" xmlns:xlink="http://www.w3.org/1999/xlink">

<path style="fill:#333" d="M871,474 l0,31 -62,0 0,62 31,0 0,19 -304,0 0,-19 31,0 0,-62 -155,0 0,81 -198,0 -25,-25 0,-75 682,-12z" />
<path style="fill:#4c4c4c" d="M164,282 l-136,0 0,25 136,0 0,-25z" />
<path style="fill:#4c4c4c" d="M164,443 l-136,0 0,25 136,0 0,-25z" />
<path style="fill:#7f7f7f" d="M164,406 l-136,0 0,25 136,0 0,-25z" />
<path style="fill:#7f7f7f" d="M164,319 l-136,0 0,25 136,0 0,-25z" />
<path style="fill:#b2b2b2" d="M164,363 l-136,0 0,24 136,0 0,-24z" />
<path style="fill:#b2b2b2" d="M164,449 l-136,0 0,13 136,0 0,-13z" />
<path style="fill:#b2b2b2" d="M164,288 l-136,0 0,13 136,0 0,-13z" />
<path style="fill:#e5e5e5" d="M164,412 l-136,0 0,13 136,0 0,-13z" />
<path style="fill:#e5e5e5" d="M164,325 l-136,0 0,13 136,0 0,-13z" />
<path style="fill:#fff" d="M164,369 l-136,0 0,12 136,0 0,-12z" />
<path style="fill:#999;stroke:#000;stroke-width:2" d="M437,598 l0,-446 -25,0 0,25 -199,0 -24,24 0,75 -25,0 0,198 25,0 0,74 24,25 199,0 0,25 25,0z" />
<path style="fill:#999" d="M362,177 l0,-124 25,0 0,-25 -149,0 0,25 25,0 0,124 99,0z" />
<path style="fill:#adadad" d="M436,558 l0,-367 -25,0 0,20 -198,0 -25,21 0,61 -25,0 0,163 25,0 0,61 25,21 198,0 0,20 25,0z" />
<path style="fill:#adadad" d="M354,177 l0,-124 21,0 0,-25 -123,0 0,25 21,0 0,124 81,0z" />
<path style="fill:#c2c2c2" d="M436,518 l0,-288 -25,0 0,16 -198,0 -25,16 0,48 -25,0 0,128 25,0 0,48 25,16 198,0 0,16 25,0z" />
<path style="fill:#c2c2c2" d="M345,177 l0,-124 16,0 0,-25 -96,0 0,25 16,0 0,124 64,0z" />
<path style="fill:#d6d6d6" d="M436,479 l0,-209 -25,0 0,12 -198,0 -25,11 0,35 -25,0 0,93 25,0 0,35 25,11 198,0 0,12 25,0z" />
<path style="fill:#d6d6d6" d="M336,177 l0,-124 12,0 0,-25 -70,0 0,25 12,0 0,124 46,0z" />
<path style="fill:#ebebeb" d="M436,439 l0,-130 -25,0 0,8 -198,0 -25,7 0,22 -25,0 0,57 25,0 0,22 25,7 198,0 0,7 25,0z" />
<path style="fill:#ebebeb" d="M328,177 l0,-124 7,0 0,-25 -44,0 0,25 8,0 0,124 29,0z" />
<path style="fill:#fff" d="M319,177 l0,-124 2,0 0,-25 -16,0 0,25 2,0 0,124 12,0z" />
<path style="fill:#fff" d="M437,400 l0,-50 -25,0 0,2 -199,0 -24,3 0,8 -25,0 0,23 25,0 0,8 24,3 199,0 0,3 25,0z" />
<path style="fill:none;stroke:#000;stroke-width:2" d="M412,573 l0,-396" />
<path style="fill:none;stroke:#000;stroke-width:2" d="M189,474 l0,-198" />
<path style="fill:none;stroke:#000;stroke-width:2" d="M164,276 l0,198" />
<path style="fill:none;stroke:#000;stroke-width:2" d="M362,177 l0,-124 25,0 0,-25 -149,0 0,25 25,0 0,124 99,0" />
<path style="fill:none;stroke:#000;stroke-width:2" d="M362,53 l-99,0" />
<path style="fill:#4c4c4c;stroke:#000;stroke-width:2" d="M511,226 l-25,0 0,298 25,0 0,-298z" />
<path style="fill:#999;stroke:#000;stroke-width:2" d="M486,226 l-49,0 0,298 49,0 0,-298z" />
<path style="fill:#191919" d="M510,435 l-22,0 0,87 22,0 0,-87z" />
<path style="fill:#666" d="M484,435 l-45,0 0,87 45,0 0,-87z" />
<path style="fill:#7f7f7f" d="M510,252 l-22,0 0,40 22,0 0,-40z" />
<path style="fill:#ccc" d="M484,252 l-45,0 0,40 45,0 0,-40z" />
<path style="fill:#7f7f7f" d="M871,246 l-235,0 -19,-45 -70,0 -18,45 18,0 9,-36 54,0 7,36 -105,0 0,247 359,0 0,-247z" />
<path style="fill:#999" d="M871,269 l-360,0 0,200 360,0 0,-200z" />
<path style="fill:#b2b2b2" d="M871,292 l-360,0 0,153 360,0 0,-153z" />
<path style="fill:#ccc" d="M871,316 l-360,0 0,105 54,0 0,117 -27,0 0,35 302,0 0,-35 -27,0 0,-117 58,0 0,-105z" />
<path style="fill:#e5e5e5" d="M871,341 l-359,0 0,56 359,0 0,-56z" />
<path style="fill:none;stroke:#000;stroke-width:2" d="M871,246 l-235,0 -19,-45 -70,0 -18,45 -17,0 0,247 53,0 0,45 -27,0 0,35 302,0 0,-35 -27,0 0,-45 58,0 0,-247" />
<path style="fill:none;stroke:#000;stroke-width:2" d="M617,246 l-7,-38 -54,0 -10,38 71,0" />
<path style="fill:#999" d="M970,350 l-80,0 -19,-105 0,248 19,-106 80,0 0,-37z" />
<path style="fill:#ccc" d="M970,357 l-80,0 -19,-69 0,161 19,-68 80,0 0,-24z" />
<path style="fill:#fff" d="M970,363 l-80,0 -19,-32 0,75 19,-32 80,0 0,-11z" />
<path style="fill:none;stroke:#000;stroke-width:2" d="M970,350 l-80,0 -19,-105 0,248 19,-106 80,0 0,-37" />
<path style="fill:#e5e5e5;stroke:#000;stroke-width:2" d="M338,499 l-62,0 0,174 62,0 0,-174z" />
<path style="fill:#e5e5e5;stroke:#000;stroke-width:2" d="M759,499 l-62,0 0,174 62,0 0,-174z" />
<path style="fill:none;stroke:#000;stroke-width:2" d="M759,660 l-62,0" />
<path style="fill:none;stroke:#000;stroke-width:2" d="M338,660 l-62,0" />
<path style="fill:#999" d="M741,518 l-25,0 0,43 25,0 0,-43z" />
<path style="fill:#e5e5e5;stroke:#000;stroke-width:2" d="M747,517 l-37,0 0,-68 6,-12 12,-6 13,6 6,12 0,68z" />
<path style="fill:#fff" d="M734,474 l-12,0 0,-29 2,-5 4,-3 4,3 2,5 0,29z" />

</svg>
