<?xml version="1.0" encoding="utf-8" standalone="no"?><!DOCTYPE svg PUBLIC "-//W3C//DTD SVG 1.1//EN" "http://www.w3.org/Graphics/SVG/1.1/DTD/svg11-flat-20030114.dtd"><svg width="999" height="484" version="1.1" xmlns="http://www.w3.org/2000/svg" xmlns:xlink="http://www.w3.org/1999/xlink">

<path style="fill:#366;stroke:#000;stroke-width:2" d="M675,184 l-23,0 0,158 23,0 0,-158z" />
<path style="fill:#4c7f7f;stroke:#000;stroke-width:2" d="M953,363 l-19,0 0,46 19,0 0,-46z" />
<path style="fill:#4c7f7f;stroke:#000;stroke-width:2" d="M884,363 l-19,0 0,46 19,0 0,-46z" />
<path style="fill:#4c7f7f;stroke:#000;stroke-width:2" d="M719,363 l-19,0 0,46 19,0 0,-46z" />
<path style="fill:#4c7f7f" d="M945,367 l-255,0 -19,-15 0,-181 19,-15 3,0 5,0 247,0 23,19 2,5 0,6 0,5 0,147 -11,24 -9,4 -5,1z" />
<path style="fill:#699" d="M945,348 l-255,0 -19,-15 0,-147 19,-11 3,0 5,0 247,0 23,16 2,5 0,5 0,8 0,114 -16,23 -4,2 -5,0z" />
<path style="fill:#7fb2b2" d="M945,321 l-255,0 -19,-11 0,-101 19,-8 3,0 5,0 247,0 23,11 2,3 0,2 0,7 0,80 -20,16 -5,1z" />
<path style="fill:#9cc" d="M945,291 l-255,0 -19,-6 0,-46 19,-7 3,0 5,0 247,0 25,7 0,2 0,3 0,39 0,1 -20,7 -5,0z" />
<path style="fill:none;stroke:#000;stroke-width:2" d="M945,367 l-255,0 -19,-15 0,-181 19,-15 3,0 5,0 247,0 23,19 2,5 0,6 0,5 0,147 -11,24 -9,4 -5,1" />
<path style="fill:#194c4c;stroke:#000;stroke-width:2" d="M905,158 l-207,0 0,188 207,0 0,-188z" />
<path style="fill:#366;stroke:#000;stroke-width:2" d="M905,342 l-207,0 0,27 207,0 0,-27z" />
<path style="fill:#7fb2b2;stroke:#000;stroke-width:2" d="M905,319 l-219,0 0,6 219,0 0,-6z" />
<path style="fill:#7fb2b2;stroke:#000;stroke-width:2" d="M905,300 l-219,0 0,6 219,0 0,-6z" />
<path style="fill:#7fb2b2;stroke:#000;stroke-width:2" d="M905,283 l-219,0 0,6 219,0 0,-6z" />
<path style="fill:#9cc;stroke:#000;stroke-width:2" d="M905,264 l-219,0 0,6 219,0 0,-6z" />
<path style="fill:#9cc;stroke:#000;stroke-width:2" d="M905,247 l-219,0 0,6 219,0 0,-6z" />
<path style="fill:#9cc;stroke:#000;stroke-width:2" d="M905,228 l-219,0 0,6 219,0 0,-6z" />
<path style="fill:#9cc;stroke:#000;stroke-width:2" d="M905,209 l-219,0 0,6 219,0 0,-6z" />
<path style="fill:#9cc;stroke:#000;stroke-width:2" d="M905,192 l-219,0 0,4 219,0 0,-4z" />
<path style="fill:#9cc;stroke:#000;stroke-width:2" d="M905,173 l-219,0 0,6 219,0 0,-6z" />
<path style="fill:#9cc;stroke:#000;stroke-width:2" d="M905,154 l-219,0 0,7 219,0 0,-7z" />
<path style="fill:#7fb2b2;stroke:#000;stroke-width:2" d="M905,338 l-219,0 0,6 219,0 0,-6z" />
<path style="fill:#699;stroke:#000;stroke-width:2" d="M875,371 l-109,0 0,-149 109,0 0,149z" />
<path style="fill:none;stroke:#fff;stroke-width:2" d="M863,363 l0,-131 -85,0" />
<path style="fill:#9cc;stroke:#000;stroke-width:2" d="M970,409 l-900,0 0,47 900,0 0,-47z" />
<path style="fill:#9cc;stroke:#000;stroke-width:2" d="M479,150 l-226,0 0,211 226,0 0,-211z" />
<path style="fill:#366;stroke:#000;stroke-width:2" d="M648,357 l-399,0 0,50 399,0 0,-50z" />
<path style="fill:#b2e5e5" d="M473,154 l-216,0 0,57 216,0 0,-57z" />
<path style="fill:#9cc;stroke:#000;stroke-width:2" d="M253,196 l-141,0 0,104 141,0 0,-104z" />
<path style="fill:#699;stroke:#000;stroke-width:2" d="M253,300 l-141,0 0,84 141,0 0,-84z" />
<path style="fill:#b2e5e5;stroke:#000;stroke-width:2" d="M253,93 l-141,0 0,103 141,0 0,-103z" />
<path style="fill:#4c7f7f;stroke:#000;stroke-width:2" d="M253,409 l-141,0 0,-25 141,0 0,25z" />
<path style="fill:#9cc;stroke:#000;stroke-width:2" d="M656,123 l-177,0 0,267 177,0 0,-267z" />
<path style="fill:#b2e5e5" d="M652,127 l-169,0 0,65 169,0 0,-65z" />
<path style="fill:#7fb2b2;stroke:#000;stroke-width:2" d="M487,329 l-221,0 0,80 221,0 0,-80z" />
<path style="fill:#4c7f7f;stroke:#000;stroke-width:2" d="M479,338 l-203,0 0,71 203,0 0,-71z" />
<path style="fill:#4c7f7f" d="M253,28 l-141,0 0,19 141,0 0,-19z" />
<path style="fill:#699" d="M241,28 l-116,0 0,19 116,0 0,-19z" />
<path style="fill:#7fb2b2" d="M222,28 l-78,0 0,19 78,0 0,-19z" />
<path style="fill:#9cc" d="M203,28 l-40,0 0,19 40,0 0,-19z" />
<path style="fill:none;stroke:#000;stroke-width:2" d="M253,28 l-141,0 0,19 141,0 0,-19" />
<path style="fill:#4c7f7f" d="M226,47 l-87,0 0,46 87,0 0,-46z" />
<path style="fill:#699" d="M217,47 l-69,0 0,46 69,0 0,-46z" />
<path style="fill:#7fb2b2" d="M207,47 l-49,0 0,46 49,0 0,-46z" />
<path style="fill:#9cc" d="M194,47 l-23,0 0,46 23,0 0,-46z" />
<path style="fill:none;stroke:#000;stroke-width:2" d="M226,47 l-87,0 0,46 87,0 0,-46" />
<path style="fill:#4c7f7f" d="M70,156 l0,140 42,0 0,-140 -42,0z" />
<path style="fill:#699" d="M70,169 l0,114 42,0 0,-114 -42,0z" />
<path style="fill:#7fb2b2" d="M70,186 l0,80 42,0 0,-80 -42,0z" />
<path style="fill:#9cc" d="M70,207 l0,40 42,0 0,-40 -42,0z" />
<path style="fill:none;stroke:#000;stroke-width:2" d="M70,156 l0,140 42,0 0,-140 -42,0" />
<path style="fill:none;stroke:#000;stroke-width:2" d="M97,154 l0,142" />
<path style="fill:#4c7f7f" d="M70,184 l0,86 -28,0 0,-86 28,0z" />
<path style="fill:#699" d="M70,190 l0,72 -28,0 0,-72 28,0z" />
<path style="fill:#7fb2b2" d="M70,203 l0,48 -28,0 0,-48 28,0z" />
<path style="fill:#9cc" d="M70,213 l0,26 -28,0 0,-26 28,0z" />
<path style="fill:none;stroke:#000;stroke-width:2" d="M70,184 l0,86 -28,0 0,-86 28,0" />
<path style="fill:#4c7f7f" d="M28,171 l0,112 14,0 0,-112 -14,0z" />
<path style="fill:#699" d="M28,181 l0,91 14,0 0,-91 -14,0z" />
<path style="fill:#7fb2b2" d="M28,194 l0,63 14,0 0,-63 -14,0z" />
<path style="fill:#9cc" d="M28,211 l0,32 14,0 0,-32 -14,0z" />
<path style="fill:none;stroke:#000;stroke-width:2" d="M28,171 l0,112 14,0 0,-112 -14,0" />

</svg>
