<?xml version="1.0" encoding="utf-8" standalone="no"?><!DOCTYPE svg PUBLIC "-//W3C//DTD SVG 1.1//EN" "http://www.w3.org/Graphics/SVG/1.1/DTD/svg11-flat-20030114.dtd"><svg width="999" height="986" version="1.1" xmlns="http://www.w3.org/2000/svg" xmlns:xlink="http://www.w3.org/1999/xlink">

<path style="fill:#00f" d="M483,679 l-51,0 0,70 51,0 0,-70z" />
<path style="fill:#00f" d="M483,259 l-51,0 0,70 51,0 0,-70z" />
<path style="fill:#00f" d="M483,432 l-51,0 0,149 51,0 0,-149z" />
<path style="fill:#00f" d="M674,764 l-138,0 0,-38 186,0 0,184 7,0 0,48 -123,0 0,-48 68,0 0,-146z" />
<path style="fill:#000" d="M455,198 l-20,0 0,46 20,0 0,-10 3,0 0,-28 -3,0 0,-8z" />
<path style="fill:#000" d="M455,354 l-20,0 0,46 20,0 0,-10 3,0 0,-26 -3,0 0,-10z" />
<path style="fill:#000" d="M455,611 l-20,0 0,47 20,0 0,-10 3,0 0,-27 -3,0 0,-10z" />
<path style="fill:#000" d="M455,779 l-20,0 0,45 20,0 0,-7 3,0 0,-28 -3,0 0,-10z" />
<path style="fill:#000" d="M377,231 l-15,0 0,-23 15,0 0,23z" />
<path style="fill:#000" d="M377,387 l-15,0 0,-23 15,0 0,23z" />
<path style="fill:#000" d="M377,646 l-15,0 0,-22 15,0 0,22z" />
<path style="fill:#000" d="M377,812 l-15,0 0,-20 15,0 0,20z" />
<path style="fill:#7f7fff;fill-rule:evenodd" d="M327,28 l0,52 -297,0 0,-52 297,0z M188,158 l0,-37 33,0 0,-41 -85,0 0,78 52,0z M722,347 l130,0 0,319 -130,0 0,-319z M722,289 l-186,0 0,435 186,0 0,-435z M483,246 l53,0 0,523 -53,0 0,-523z M28,296 l55,0 0,423 -55,0 0,-423z M136,405 l-53,0 0,206 53,0 0,-206z M136,161 l52,0 0,691 -52,0 0,-691z M384,955 l-274,0 0,-53 78,0 0,-781 116,0 0,781 80,0 0,53z M304,161 l56,0 0,691 -56,0 0,-691z M377,161 l55,0 0,691 -55,0 0,-691z " />
<path style="fill:none;stroke:#000;stroke-width:2" d="M327,28 l0,52 -297,0 0,-52 297,0" />
<path style="fill:none;stroke:#000;stroke-width:2" d="M188,158 l0,-37 33,0 0,-41 -85,0 0,78 52,0" />
<path style="fill:none;stroke:#000;stroke-width:2" d="M722,347 l130,0 0,319 -130,0 0,-319" />
<path style="fill:none;stroke:#000;stroke-width:2" d="M722,289 l-186,0 0,435 186,0 0,-435" />
<path style="fill:none;stroke:#000;stroke-width:2" d="M483,246 l53,0 0,523 -53,0 0,-523" />
<path style="fill:none;stroke:#000;stroke-width:2" d="M28,296 l55,0 0,423 -55,0 0,-423" />
<path style="fill:none;stroke:#000;stroke-width:2" d="M136,405 l-53,0 0,206 53,0 0,-206" />
<path style="fill:none;stroke:#000;stroke-width:2" d="M136,161 l52,0 0,691 -52,0 0,-691" />
<path style="fill:none;stroke:#000;stroke-width:2" d="M384,955 l-274,0 0,-53 78,0 0,-781 116,0 0,781 80,0 0,53" />
<path style="fill:none;stroke:#000;stroke-width:2" d="M304,161 l56,0 0,691 -56,0 0,-691" />
<path style="fill:none;stroke:#000;stroke-width:2" d="M377,161 l55,0 0,691 -55,0 0,-691" />
<path style="fill:#bfbfff" d="M78,30 l0,48 -35,0 0,-48 35,0z" />
<path style="fill:#bfbf00" d="M714,367 l-171,0 0,196 171,0 0,-196z" />
<path style="fill:#7f7f7f" d="M548,387 l10,0 0,10 -10,0 0,-10z" />
<path style="fill:#7f7f7f" d="M548,412 l10,0 0,10 -10,0 0,-10z" />
<path style="fill:#7f7f7f" d="M548,465 l10,0 0,7 -10,0 0,-7z" />
<path style="fill:#7f7f7f" d="M548,490 l10,0 0,8 -10,0 0,-8z" />
<path style="fill:#7f7f7f" d="M548,515 l10,0 0,11 -10,0 0,-11z" />
<path style="fill:#7f7f7f" d="M548,540 l10,0 0,10 -10,0 0,-10z" />
<path style="fill:#7f7f7f" d="M563,387 l10,0 0,10 -10,0 0,-10z" />
<path style="fill:#7f7f7f" d="M563,412 l10,0 0,10 -10,0 0,-10z" />
<path style="fill:#7f7f7f" d="M563,465 l10,0 0,7 -10,0 0,-7z" />
<path style="fill:#7f7f7f" d="M563,490 l10,0 0,8 -10,0 0,-8z" />
<path style="fill:#7f7f7f" d="M563,515 l10,0 0,11 -10,0 0,-11z" />
<path style="fill:#7f7f7f" d="M563,540 l10,0 0,10 -10,0 0,-10z" />
<path style="fill:#7f7f7f" d="M576,387 l10,0 0,10 -10,0 0,-10z" />
<path style="fill:#7f7f7f" d="M576,412 l10,0 0,10 -10,0 0,-10z" />
<path style="fill:#7f7f7f" d="M576,465 l10,0 0,7 -10,0 0,-7z" />
<path style="fill:#7f7f7f" d="M576,490 l10,0 0,8 -10,0 0,-8z" />
<path style="fill:#7f7f7f" d="M576,515 l10,0 0,11 -10,0 0,-11z" />
<path style="fill:#7f7f7f" d="M576,540 l10,0 0,10 -10,0 0,-10z" />
<path style="fill:#7f7f7f" d="M588,412 l13,0 0,10 -13,0 0,-10z" />
<path style="fill:#7f7f7f" d="M588,490 l13,0 0,8 -13,0 0,-8z" />
<path style="fill:#7f7f7f" d="M588,515 l13,0 0,11 -13,0 0,-11z" />
<path style="fill:#7f7f7f" d="M588,540 l13,0 0,10 -13,0 0,-10z" />
<path style="fill:#7f7f7f" d="M603,440 l10,0 0,8 -10,0 0,-8z" />
<path style="fill:#7f7f7f" d="M616,440 l12,0 0,8 -12,0 0,-8z" />
<path style="fill:#7f7f7f" d="M631,440 l10,0 0,8 -10,0 0,-8z" />
<path style="fill:#7f7f7f" d="M852,480 l118,0 0,53 -118,0 0,-53z" />
<path style="fill:#7f7f7f" d="M570,704 l33,0 18,-28 -18,-30 -33,0 -17,30 17,28z" />
<path style="fill:#7f7f7f" d="M654,704 l32,0 18,-28 -18,-30 -32,0 -18,30 18,28z" />
<path style="fill:#bfbfff" d="M724,352 l123,0 0,48 -123,0 0,-48z" />
<path style="fill:#bfbfff" d="M540,296 l182,0 0,48 -182,0 0,-48z" />
<path style="fill:#bfbfff" d="M485,262 l48,0 0,47 -48,0 0,-47z" />
<path style="fill:#bfbfff" d="M382,178 l48,0 0,46 -48,0 0,-46z" />
<path style="fill:#bfbfff" d="M307,178 l47,0 0,46 -47,0 0,-46z" />
<path style="fill:#bfbfff" d="M194,148 l105,0 0,58 -105,0 0,-58z" />
<path style="fill:#bfbfff" d="M138,178 l48,0 0,46 -48,0 0,-46z" />
<path style="fill:#bfbfff" d="M30,312 l48,0 0,48 -48,0 0,-48z" />
<path style="fill:#f0f0f0" d="M598,382 l101,0 0,15 -101,0 0,-15z" />
<path style="fill:#f0f0f0" d="M606,407 l93,0 0,15 -93,0 0,-15z" />
<path style="fill:#f0f0f0" d="M646,432 l53,0 0,18 -53,0 0,-18z" />
<path style="fill:#f0f0f0" d="M548,432 l53,0 0,18 -53,0 0,-18z" />
<path style="fill:#f0f0f0" d="M598,458 l101,0 0,17 -101,0 0,-17z" />
<path style="fill:#f0f0f0" d="M651,510 l48,0 0,16 -48,0 0,-16z" />
<path style="fill:#f0f0f0" d="M606,536 l93,0 0,14 -93,0 0,-14z" />
<path style="fill:#f0f0f0" d="M452,231 l-14,0 0,-23 14,0 0,23z" />
<path style="fill:#f0f0f0" d="M452,387 l-14,0 0,-23 14,0 0,23z" />
<path style="fill:#f0f0f0" d="M452,646 l-14,0 0,-22 14,0 0,22z" />
<path style="fill:#f0f0f0" d="M452,812 l-14,0 0,-20 14,0 0,20z" />
<path style="fill:#f0f0f0" d="M852,488 l116,0 0,10 -116,0 0,-10z" />

</svg>
