<?xml version="1.0" encoding="utf-8" standalone="no"?><!DOCTYPE svg PUBLIC "-//W3C//DTD SVG 1.1//EN" "http://www.w3.org/Graphics/SVG/1.1/DTD/svg11-flat-20030114.dtd"><svg width="972" height="999" version="1.1" xmlns="http://www.w3.org/2000/svg" xmlns:xlink="http://www.w3.org/1999/xlink">

<path style="fill:#666" d="M740,740 l-637,0 0,204 637,0 0,-204z" />
<path style="fill:#616161" d="M740,885 l-637,-84 0,143 637,0 0,-59z" />
<path style="fill:#5c5c5c" d="M740,895 l-637,-87 0,136 637,0 0,-49z" />
<path style="fill:#575757" d="M740,906 l-637,-85 0,123 637,0 0,-38z" />
<path style="fill:none;stroke:#000;stroke-width:2" d="M740,740 l-637,0 0,204 637,0 0,-204" />
<path style="fill:#4c4c4c" d="M893,156 l-153,0 0,814 153,0 0,-814z" />
<path style="fill:#545454" d="M893,190 l-153,0 0,744 153,0 0,-744z" />
<path style="fill:#5c5c5c" d="M893,226 l-153,0 0,673 153,0 0,-673z" />
<path style="fill:#636363" d="M893,261 l-153,0 0,602 153,0 0,-602z" />
<path style="fill:#6b6b6b" d="M893,297 l-153,0 0,530 153,0 0,-530z" />
<path style="fill:#737373" d="M893,333 l-153,0 0,458 153,0 0,-458z" />
<path style="fill:#7a7a7a" d="M893,369 l-153,0 0,386 153,0 0,-386z" />
<path style="fill:#828282" d="M893,405 l-153,0 0,315 153,0 0,-315z" />
<path style="fill:#8a8a8a" d="M893,441 l-153,0 0,243 153,0 0,-243z" />
<path style="fill:#919191" d="M893,476 l-153,0 0,174 153,0 0,-174z" />
<path style="fill:#999" d="M893,537 l-153,0 0,51 153,0 0,-51z" />
<path style="fill:none;stroke:#000;stroke-width:2" d="M893,156 l-153,0 0,814 153,0 0,-814" />
<path style="fill:#333;stroke:#000;stroke-width:2" d="M740,614 l-509,0 0,126 509,0 0,-126z" />
<path style="fill:#000;stroke:#000;stroke-width:2" d="M740,689 l-228,0 0,-533 228,0 0,533z" />
<path style="fill:#7f7f7f;stroke:#000;stroke-width:2" d="M740,944 l-688,0 0,26 688,0 0,-26z" />
<path style="fill:#7f7f7f;stroke:#000;stroke-width:2" d="M944,689 l-255,0 0,102 255,0 0,-102z" />
<path style="fill:#4c4c4c" d="M588,665 l-51,-51 -485,0 0,-254 485,0 51,-51 0,356z" />
<path style="fill:#595959" d="M588,638 l-51,-43 -485,0 0,-219 485,0 51,-43 0,305z" />
<path style="fill:#666" d="M588,614 l-51,-38 -485,0 0,-181 485,0 51,-35 0,254z" />
<path style="fill:#737373" d="M588,588 l-51,-29 -485,0 0,-147 485,0 51,-28 0,204z" />
<path style="fill:#7f7f7f" d="M588,563 l-51,-23 -485,0 0,-109 485,0 51,-23 0,155z" />
<path style="fill:#8c8c8c" d="M588,537 l-51,-15 -485,0 0,-72 485,0 51,-15 0,102z" />
<path style="fill:#999" d="M588,512 l-51,-7 -485,0 0,-38 485,0 51,-6 0,51z" />
<path style="fill:none;stroke:#000;stroke-width:2" d="M588,665 l-51,-51 -485,0 0,-254 485,0 51,-51 0,356" />
<path style="fill:#666;stroke:#000;stroke-width:2" d="M79,333 l-27,0 0,27 27,0 0,-27z" />
<path style="fill:#7f7f7f;stroke:#000;stroke-width:2" d="M103,258 l-75,0 0,75 75,0 0,-75z" />
<path style="fill:#b2b2b2;stroke:#000;stroke-width:2" d="M103,512 l-51,0 0,126 51,0 0,-126z" />
<path style="fill:#b2b2b2;stroke:#000;stroke-width:2" d="M697,382 l40,-147 2,-106 -221,-58 -358,-43 -53,196 590,158z" />
<path style="fill:#333" d="M737,235 l-591,-158 -39,147 590,158 40,-147z" />
<path style="fill:#ccc" d="M718,309 l-590,-159 -8,25 590,158 8,-24z" />
<circle style="fill:#333;stroke:#000;stroke-width:2" cx="817" cy="740" r="101" />
<circle style="fill:#666" cx="816" cy="741" r="76" />
<path style="fill:none;stroke:#ccc;stroke-width:2" d="M740,944 l-688,0" />

</svg>
