<?xml version="1.0" encoding="utf-8" standalone="no"?><!DOCTYPE svg PUBLIC "-//W3C//DTD SVG 1.1//EN" "http://www.w3.org/Graphics/SVG/1.1/DTD/svg11-flat-20030114.dtd"><svg width="999" height="339" version="1.1" xmlns="http://www.w3.org/2000/svg" xmlns:xlink="http://www.w3.org/1999/xlink">

<path style="fill:none;stroke:#000;stroke-width:2" d="M674,183 l285,0" />
<path style="fill:none;stroke:#000;stroke-width:2" d="M674,250 l285,0" />
<path style="fill:#005e00" d="M672,177 l-550,0 0,80 550,0 0,-80z" />
<path style="fill:#267826" d="M672,179 l-550,0 0,67 550,0 0,-67z" />
<path style="fill:#4c914c" d="M672,183 l-550,0 0,51 550,0 0,-51z" />
<path style="fill:#75ad75" d="M672,185 l-550,0 0,37 550,0 0,-37z" />
<path style="fill:#9cc79c" d="M672,187 l-550,0 0,25 550,0 0,-25z" />
<path style="fill:#c1e0c1" d="M672,189 l-550,0 0,11 550,0 0,-11z" />
<path style="fill:#005e00" d="M672,189 l287,0 0,57 -287,0 0,-57z" />
<path style="fill:#267826" d="M672,191 l287,0 0,45 -287,0 0,-45z" />
<path style="fill:#4c914c" d="M672,193 l287,0 0,35 -287,0 0,-35z" />
<path style="fill:#75ad75" d="M672,195 l287,0 0,25 -287,0 0,-25z" />
<path style="fill:#9cc79c" d="M672,197 l287,0 0,15 -287,0 0,-15z" />
<path style="fill:#c1e0c1" d="M672,199 l287,0 0,8 -287,0 0,-8z" />
<path style="fill:#005e00" d="M933,257 l-903,0 0,49 903,0 0,-49z" />
<path style="fill:#267826" d="M933,260 l-903,0 0,39 903,0 0,-39z" />
<path style="fill:#4c914c" d="M933,261 l-903,0 0,32 903,0 0,-32z" />
<path style="fill:#75ad75" d="M933,263 l-903,0 0,22 903,0 0,-22z" />
<path style="fill:#9cc79c" d="M933,263 l-903,0 0,16 903,0 0,-16z" />
<path style="fill:#c1e0c1" d="M933,265 l-903,0 0,8 903,0 0,-8z" />
<path style="fill:#7f7f7f" d="M966,193 l4,0 0,6 -4,0 0,-6z" />
<path style="fill:#7f7f7f" d="M966,234 l4,0 0,6 -4,0 0,-6z" />
<path style="fill:#7f7f7f" d="M966,252 l4,0 0,4 -4,0 0,-4z" />
<path style="fill:#7f7f7f" d="M966,214 l4,0 0,4 -4,0 0,-4z" />
<path style="fill:#7f7f7f" d="M966,177 l4,0 0,6 -4,0 0,-6z" />
<path style="fill:#43a143;stroke:#000;stroke-width:2" d="M676,163 l-8,0 0,106 8,0 0,-106z" />
<path style="fill:#43a143;stroke:#000;stroke-width:2" d="M32,256 l-4,0 0,53 4,0 0,-53z" />
<path style="fill:#43a143;stroke:#000;stroke-width:2" d="M963,175 l-8,0 0,82 8,0 0,-82z" />
<path style="fill:#43a143;stroke:#000;stroke-width:2" d="M963,173 l3,0 0,87 -3,0 0,-87z" />
<path style="fill:#82e082" d="M676,165 l-8,0 0,4 8,0 0,-4z" />
<path style="fill:#82e082" d="M32,256 l-4,0 0,4 4,0 0,-4z" />
<path style="fill:#82e082" d="M963,177 l-8,0 0,4 8,0 0,-4z" />
<path style="fill:#82e082" d="M963,175 l3,0 0,2 -3,0 0,-2z" />
<path style="fill:#217f21" d="M676,263 l-8,0 0,6 8,0 0,-6z" />
<path style="fill:#217f21" d="M32,305 l-4,0 0,4 4,0 0,-4z" />
<path style="fill:#217f21" d="M963,252 l-8,0 0,5 8,0 0,-5z" />
<path style="fill:#217f21" d="M963,252 l3,0 0,8 -3,0 0,-8z" />
<path style="fill:#e5e5e5;stroke:#000;stroke-width:2" d="M925,256 l-10,0 0,50 10,0 0,-50z" />
<path style="fill:#ccc;stroke:#000;stroke-width:2" d="M925,310 l-10,0 0,-4 10,0 0,4z" />
<path style="fill:#7f7f7f;stroke:#000;stroke-width:2" d="M923,303 l-4,0 0,3 4,0 0,-3z" />
<path style="fill:#3fbf3f;stroke:#000;stroke-width:2" d="M629,144 l-348,43 -45,-83 347,0 24,10 22,30z" />
<path style="fill:#000" d="M554,142 l-16,-6 -11,-10 -10,-16 -10,-18 16,48 31,2z" />
<path style="fill:#000" d="M611,142 l-18,-6 -12,-10 -9,-16 -8,-18 16,48 31,2z" />
<path style="fill:#000" d="M497,142 l-18,-6 -11,-10 -10,-16 -8,-18 16,48 31,2z" />
<path style="fill:#000" d="M438,142 l-16,-6 -11,-10 -10,-16 -8,-18 16,48 29,2z" />
<path style="fill:#000" d="M383,142 l-18,-6 -11,-10 -10,-16 -8,-18 14,48 33,2z" />
<path style="fill:#000" d="M324,142 l-15,-6 -12,-10 -10,-16 -8,-18 14,48 31,2z" />
<path style="fill:#e0e0e0;stroke:#000;stroke-width:2" d="M613,146 l2,-4 -2,-4 -4,-4 -349,0 0,12 353,0z" />
<path style="fill:#f0f0f0;stroke:#000;stroke-width:2" d="M566,92 l-2,0 2,12 8,28 6,18 9,25 6,12 2,0 -4,-12 -8,-28 -5,-17 -10,-26 -4,-12z" />
<path style="fill:#f0f0f0;stroke:#000;stroke-width:2" d="M509,92 l-2,0 2,12 8,28 6,18 9,25 6,12 2,0 -4,-12 -8,-28 -5,-17 -10,-26 -4,-12z" />
<path style="fill:#f0f0f0;stroke:#000;stroke-width:2" d="M452,92 l-2,0 2,12 8,28 6,18 9,25 4,12 2,0 -2,-12 -8,-28 -5,-17 -10,-26 -4,-12z" />
<path style="fill:#f0f0f0;stroke:#000;stroke-width:2" d="M393,92 l-2,0 2,12 10,28 6,18 8,25 5,12 2,0 -2,-12 -7,-28 -6,-17 -10,-26 -6,-12z" />
<path style="fill:#f0f0f0;stroke:#000;stroke-width:2" d="M336,92 l-2,0 4,12 8,28 6,18 10,25 3,12 2,0 -2,-12 -7,-28 -6,-17 -10,-26 -6,-12z" />
<path style="fill:#f0f0f0;stroke:#000;stroke-width:2" d="M279,92 l-2,0 2,12 10,28 4,18 10,25 6,12 1,0 -1,-12 -10,-28 -6,-17 -8,-26 -6,-12z" />
<path style="fill:#60e060;stroke:#000;stroke-width:2" d="M236,104 l45,38 0,82 -1,-6 -1,-6 -2,-5 -3,-5 -2,-5 -3,-4 -4,-4 -3,-3 -3,-3 -4,-3 -3,-1 -4,-2 -3,-1 -3,0 -3,0 -3,1 0,-73z" />
<path style="fill:#b2b2b2;stroke:#000;stroke-width:2" d="M613,146 l2,-4 -2,-4 -4,-4 -6,0 2,-4 6,0 8,6 2,10 -2,4 -8,0 -2,-4 4,0z" />
<path style="fill:#7fff7f;stroke:#000;stroke-width:2" d="M629,144 l-348,0 0,80 348,0 0,-80z" />
<path style="fill:#b2b2b2;stroke:#000;stroke-width:2" d="M92,71 l32,0 0,-8 -32,0 0,8z" />
<path style="fill:#005e00;stroke:#000;stroke-width:2" d="M128,30 l-4,0 0,4 0,64 0,4 4,0 80,0 2,-35 -2,-37 -80,0z" />
<path style="fill:#7f7f7f" d="M207,104 l5,0 4,0 4,-4 0,-2 -13,0 0,6z" />
<path style="fill:#7f7f7f" d="M222,39 l-2,-5 -4,-4 -4,-2 -5,0 0,11 15,0z" />
<path style="fill:#b2b2b2" d="M220,98 l2,-3 0,-3 -14,0 -1,6 13,0z" />
<path style="fill:#b2b2b2" d="M224,51 l0,-6 -2,-6 -15,0 1,12 16,0z" />
<path style="fill:#e5e5e5" d="M222,92 l2,-5 0,-2 -16,0 0,7 14,0z" />
<path style="fill:#e5e5e5" d="M224,67 l0,8 -16,0 0,-8 16,0z" />
<path style="fill:#f0f0f0" d="M224,75 l0,10 -16,0 0,-10 16,0z" />
<path style="fill:#e0e0e0" d="M224,67 l0,-8 -16,0 0,8 16,0z" />
<path style="fill:#ccc" d="M224,51 l0,8 -16,0 0,-8 16,0z" />
<path style="fill:none;stroke:#000;stroke-width:2" d="M207,104 l5,0 4,0 4,-4 2,-5 2,-8 0,-20 0,-22 -2,-6 -2,-5 -4,-4 -4,-2 -5,0 1,39 -1,37" />
<path style="fill:none;stroke:#fff;stroke-width:2" d="M126,38 l6,-4 72,0" />
<path style="fill:none;stroke:#fff;stroke-width:2" d="M126,96 l8,4 70,0" />
<path style="fill:none;stroke:#fff;stroke-width:2" d="M126,85 l8,2 70,0" />
<path style="fill:none;stroke:#fff;stroke-width:2" d="M126,73 l6,0 72,0" />
<path style="fill:none;stroke:#fff;stroke-width:2" d="M126,61 l6,0 72,0" />
<path style="fill:none;stroke:#fff;stroke-width:2" d="M126,49 l6,-2 72,0" />
<path style="fill:#7f7f7f" d="M42,193 l-4,0 0,6 4,0 0,-6z" />
<path style="fill:#7f7f7f" d="M42,234 l-4,0 0,6 4,0 0,-6z" />
<path style="fill:#7f7f7f" d="M42,252 l-4,0 0,4 4,0 0,-4z" />
<path style="fill:#7f7f7f" d="M42,214 l-4,0 0,4 4,0 0,-4z" />
<path style="fill:#7f7f7f" d="M42,177 l-4,0 0,6 4,0 0,-6z" />
<path style="fill:#43a143;stroke:#000;stroke-width:2" d="M124,42 l-8,0 0,227 8,0 0,-227z" />
<path style="fill:#43a143;stroke:#000;stroke-width:2" d="M116,47 l-55,0 0,213 55,0 0,-213z" />
<path style="fill:#82e082" d="M122,57 l-6,0 0,6 6,0 0,-6z" />
<path style="fill:#43a143;stroke:#000;stroke-width:2" d="M61,42 l-8,0 0,227 8,0 0,-227z" />
<path style="fill:#43a143;stroke:#000;stroke-width:2" d="M45,175 l8,0 0,82 -8,0 0,-82z" />
<path style="fill:#43a143;stroke:#000;stroke-width:2" d="M45,173 l-3,0 0,87 3,0 0,-87z" />
<path style="fill:#82e082" d="M116,59 l-55,0 0,6 55,0 0,-6z" />
<path style="fill:#82e082" d="M116,126 l-55,0 0,-8 55,0 0,8z" />
<path style="fill:#82e082" d="M61,43 l-8,0 0,10 8,0 0,-10z" />
<path style="fill:#82e082" d="M45,177 l8,0 0,4 -8,0 0,-4z" />
<path style="fill:#82e082" d="M45,175 l-3,0 0,2 3,0 0,-2z" />
<path style="fill:#217f21" d="M116,47 l-55,0 0,2 55,0 0,-2z" />
<path style="fill:#217f21" d="M61,256 l-8,0 0,13 8,0 0,-13z" />
<path style="fill:#217f21" d="M45,252 l8,0 0,5 -8,0 0,-5z" />
<path style="fill:#217f21" d="M45,252 l-3,0 0,8 3,0 0,-8z" />
<path style="fill:#217f21;stroke:#000;stroke-width:2" d="M629,144 l-348,0 0,3 348,0 0,-3z" />
<path style="fill:#217f21;stroke:#000;stroke-width:2" d="M236,104 l45,40 0,3 -45,-39 0,-4z" />

</svg>
