<?xml version="1.0" encoding="utf-8" standalone="no"?><!DOCTYPE svg PUBLIC "-//W3C//DTD SVG 1.1//EN" "http://www.w3.org/Graphics/SVG/1.1/DTD/svg11-flat-20030114.dtd"><svg width="999" height="727" version="1.1" xmlns="http://www.w3.org/2000/svg" xmlns:xlink="http://www.w3.org/1999/xlink">

<path style="fill:#7f7f7f;stroke:#000;stroke-width:2" d="M267,250 l-21,0 0,43 21,0 0,-43z" />
<path style="fill:#7f7f7f;stroke:#000;stroke-width:2" d="M917,250 l-20,0 0,43 20,0 0,-43z" />
<path style="fill:#7f7f7f;stroke:#000;stroke-width:2" d="M107,661 l64,0 0,36 -64,0 0,-36z" />
<path style="fill:#7f7f7f;stroke:#000;stroke-width:2" d="M738,606 l-62,0 15,89 62,0 -15,-89z" />
<path style="fill:#7f7f7f" d="M714,436 l0,155 235,0 0,30 21,0 0,-220 -21,0 0,35 -235,0z" />
<path style="fill:#999" d="M712,453 l0,8 0,8 0,7 0,98 236,0 0,19 0,4 3,0 15,0 4,0 0,-12 0,-149 0,-11 -4,0 -18,0 0,28 -236,0z" />
<path style="fill:#b2b2b2" d="M712,470 l0,4 0,6 0,5 0,70 236,0 0,15 0,2 3,0 15,0 4,0 0,-7 0,-108 0,-7 -4,0 -18,0 0,20 -236,0z" />
<path style="fill:#ccc" d="M714,485 l0,53 235,0 0,10 21,0 0,-74 -21,0 0,11 -235,0z" />
<path style="fill:none;stroke:#000;stroke-width:2" d="M714,436 l0,155 235,0 0,30 21,0 0,-220 -21,0 0,35 -235,0" />
<path style="fill:none;stroke:#000;stroke-width:2" d="M949,591 l0,-155" />
<path style="fill:#7f7f7f;stroke:#000;stroke-width:2" d="M949,591 l-15,0 0,19 15,0 0,-19z" />
<path style="fill:#7f7f7f;stroke:#000;stroke-width:2" d="M949,548 l-15,0 0,17 15,0 0,-17z" />
<path style="fill:#7f7f7f;stroke:#000;stroke-width:2" d="M949,502 l-15,0 0,19 15,0 0,-19z" />
<path style="fill:#7f7f7f;stroke:#000;stroke-width:2" d="M949,459 l-15,0 0,19 15,0 0,-19z" />
<path style="fill:#7f7f7f;stroke:#000;stroke-width:2" d="M949,416 l-15,0 0,17 15,0 0,-17z" />
<path style="fill:#7f7f7f" d="M266,299 l0,7 -212,0 0,364 536,-2 35,-3 35,-7 33,-10 31,-14 29,-16 28,-19 25,-22 23,-24 20,-27 17,-28 14,-30 11,-32 8,-32 4,-34 1,-18 -2,-35 -2,-18 -634,0z" />
<path style="fill:#8f8f8f" d="M266,306 l-212,0 0,338 21,0 629,0 26,-12 24,-14 22,-15 20,-17 28,-27 23,-30 19,-32 11,-23 12,-36 6,-25 5,-39 1,-13 0,-14 0,-14 0,-13 -1,-14 -20,0 -614,0z" />
<path style="fill:#9c9c9c" d="M902,311 l1,22 1,11 0,11 -3,32 -6,32 -8,30 -12,30 -14,28 -17,27 -20,25 -23,23 -25,21 -9,7 -22,0 -668,0 -23,0 0,-299 27,0 26,0 27,0 768,0z" />
<path style="fill:#ababab" d="M902,318 l2,26 0,9 0,9 -4,35 -5,26 -7,25 -10,25 -12,24 -13,23 -15,22 -17,20 -6,7 -6,6 -23,0 -708,0 -24,0 0,-257 27,0 26,0 27,0 768,0z" />
<path style="fill:#b8b8b8" d="M902,324 l2,20 0,8 0,7 -2,28 -6,29 -8,29 -10,27 -13,27 -14,25 -8,12 -3,5 -25,0 -736,0 -25,0 0,-217 27,0 26,0 27,0 768,0z" />
<path style="fill:#c7c7c7" d="M904,330 l-1,35 -4,34 -7,32 -11,33 -14,32 -6,11 -25,0 -756,0 -26,0 0,-177 27,0 27,0 26,0 744,0 26,0z" />
<path style="fill:#d4d4d4" d="M904,336 l-1,35 -4,35 -5,26 -8,25 -3,7 -4,8 -25,0 -774,0 -26,0 0,-136 27,0 27,0 26,0 744,0 26,0z" />
<path style="fill:#e0e0e0" d="M904,342 l0,6 0,6 0,6 -3,31 -5,30 -3,12 -1,6 -26,0 -785,0 -27,0 0,-97 27,0 27,0 26,0 770,0z" />
<path style="fill:#e0e0e0" d="M904,369 l0,-2 0,-2 0,-2 0,-2 0,-2 0,-4 0,-1 -850,0 0,15 850,0z" />
<path style="fill:#e0e0e0" d="M218,362 l686,0 -2,-34 -4,-34 -8,-31 -10,-31 -13,-29 -15,-27 -18,-25 -20,-24 -23,-21 -24,-19 -26,-17 -28,-14 -30,-11 -32,-9 -33,-5 -17,-2 -17,-1 -15,1 -30,3 -28,6 -28,8 -27,10 -25,12 -25,14 -22,17 -21,18 -20,20 -17,22 -16,23 -14,25 -11,27 -10,28 -7,29 -6,25 -17,22 -20,18 -3,3 -4,3z" />
<path style="fill:#b2b2b2" d="M898,280 l-2,0 -2,0 -2,0 -8,0 4,36 1,38 -3,37 -6,36 -10,36 -14,33 -18,33 -21,29 -25,28 -28,24 -11,7 -10,6 11,-7 21,-15 21,-16 26,-27 23,-29 20,-30 15,-33 12,-35 7,-36 4,-37 0,-13 0,-13 -3,-39 -2,-13z" />
<path style="fill:#b2b2b2" d="M876,278 l20,0 -7,-26 -9,-25 -12,-23 -12,-23 -15,-22 -16,-20 -28,-27 -19,-17 -21,-15 -23,-13 -23,-12 -24,-9 -25,-8 -26,-6 -40,-4 -14,0 -15,1 -28,3 -27,5 -27,7 -26,10 -24,11 -24,14 -23,16 -20,17 -20,19 -18,21 -16,23 -14,24 -12,25 -10,26 -4,14 -4,14 51,0 12,-34 15,-32 19,-29 22,-27 25,-24 28,-21 30,-18 32,-13 33,-10 35,-5 37,-1 36,4 35,8 32,13 30,16 29,20 26,23 23,26 20,28 17,31 15,33 4,12z" />
<path style="fill:#f0f0f0" d="M868,269 l11,0 -11,-36 -16,-33 -19,-31 -23,-28 -25,-26 -28,-22 -31,-19 -33,-15 -35,-12 -36,-8 -25,-3 -13,0 -13,1 -38,5 -36,10 -24,10 -22,11 -22,14 -31,23 -27,27 -17,20 -15,20 -13,22 -11,23 -10,23 -3,12 -4,12 32,0 12,-32 15,-30 19,-27 22,-25 24,-22 27,-19 29,-16 31,-13 32,-9 34,-5 34,0 34,3 33,8 32,11 30,15 28,18 25,21 23,25 21,26 16,29 13,32 4,10z" />
<circle style="fill:#d4d4d4" cx="622" cy="279" r="159" />
<ellipse style="fill:#c4c4c4" cx="615" cy="281" rx="136" ry="134" />
<circle style="fill:#b2b2b2" cx="609" cy="281" r="112" />
<path style="fill:#e5e5e5;stroke:#000;stroke-width:2" d="M28,278 l26,0 0,420 -26,0 0,-420z" />
<path style="fill:none;stroke:#000;stroke-width:2" d="M266,306 l6,-30 8,-29 10,-27 13,-25 14,-25 17,-22 19,-21 20,-19 22,-17 23,-16 25,-13 26,-11 27,-9 29,-7 29,-5 15,-1 15,-1 17,1 33,4 32,7 30,10 29,13 26,15 25,17 24,20 21,22 19,23 17,26 14,27 12,28 9,30 7,31 4,31 1,17 -1,16 -4,32 -7,31 -9,30 -12,28 -14,27 -17,25 -19,23 -20,21 -23,19 -25,17 -26,15 -28,12 -30,10 -31,7 -32,4 -16,1 -536,2 0,-364 212,0" />
<path style="fill:#f0f0f0" d="M322,280 l-4,12 -4,7 -5,6 -6,7 -6,7 -7,6 -7,6 -8,6 -7,6 -8,5 -8,4 -7,3 -15,5 -6,1 12,-7 10,-8 9,-9 8,-10 6,-11 6,-12 5,-12 4,-12 38,0z" />
<path style="fill:#b2b2b2" d="M270,282 l-3,12 -3,11 -4,10 -5,10 -6,10 -7,9 -8,9 -10,8 13,-6 12,-7 10,-9 9,-10 7,-11 7,-12 5,-13 5,-13 -10,1 -12,1z" />
<path style="fill:#ccc;stroke:#000;stroke-width:2" d="M925,265 l-680,0 0,11 680,0 0,-11z" />
<path style="fill:#ccc;stroke:#000;stroke-width:2" d="M925,284 l-680,0 0,-8 680,0 0,8z" />
<path style="fill:#7f7f7f;stroke:#000;stroke-width:2" d="M54,297 l15,0 0,19 -15,0 0,-19z" />
<path style="fill:#7f7f7f;stroke:#000;stroke-width:2" d="M54,342 l15,0 0,17 -15,0 0,-17z" />
<path style="fill:#7f7f7f;stroke:#000;stroke-width:2" d="M54,386 l15,0 0,18 -15,0 0,-18z" />
<path style="fill:#7f7f7f;stroke:#000;stroke-width:2" d="M54,429 l15,0 0,19 -15,0 0,-19z" />
<path style="fill:#7f7f7f;stroke:#000;stroke-width:2" d="M54,474 l15,0 0,17 -15,0 0,-17z" />
<path style="fill:#7f7f7f;stroke:#000;stroke-width:2" d="M54,518 l15,0 0,18 -15,0 0,-18z" />
<path style="fill:#7f7f7f;stroke:#000;stroke-width:2" d="M54,561 l15,0 0,19 -15,0 0,-19z" />
<path style="fill:#7f7f7f;stroke:#000;stroke-width:2" d="M54,606 l15,0 0,17 -15,0 0,-17z" />
<path style="fill:#7f7f7f;stroke:#000;stroke-width:2" d="M54,649 l15,0 0,19 -15,0 0,-19z" />
<path style="fill:#b2b2b2" d="M107,682 l64,0 0,15 -64,0 0,-15z" />
<path style="fill:#b2b2b2" d="M158,572 l13,0 0,110 -13,0 0,-110z" />
<path style="fill:#b2b2b2" d="M699,534 l-15,0 0,146 15,0 0,-146z" />
<path style="fill:#b2b2b2;stroke:#000;stroke-width:2" d="M746,680 l-62,0 0,13 62,0 0,-13z" />
<path style="fill:none;stroke:#000;stroke-width:2" d="M107,682 l64,0 0,15 -64,0 0,-15" />
<path style="fill:none;stroke:#000;stroke-width:2" d="M158,572 l13,0 0,110 -13,0 0,-110" />
<path style="fill:none;stroke:#000;stroke-width:2" d="M699,534 l-15,0 0,146 15,0 0,-146" />
<path style="fill:#7f7f7f;stroke:#000;stroke-width:2" d="M720,250 l-180,0 0,45 180,0 0,-45z" />
<circle style="fill:#ccc" cx="629" cy="278" r="75" />
<circle style="fill:none;stroke:#000;stroke-width:2" cx="629" cy="278" r="75" />
<circle style="fill:#e5e5e5" cx="629" cy="278" r="43" />
<circle style="fill:none;stroke:#000;stroke-width:2" cx="629" cy="278" r="43" />
<path style="fill:#a6a6a6" d="M633,338 l0,-11 -10,0 0,11 10,0z" />
<path style="fill:#a6a6a6" d="M589,323 l6,-7 -6,-6 -7,6 7,7z" />
<path style="fill:#a6a6a6" d="M567,280 l9,0 0,-9 -9,0 0,9z" />
<path style="fill:#a6a6a6" d="M582,237 l7,5 6,-5 -6,-8 -7,8z" />
<path style="fill:#a6a6a6" d="M623,214 l0,9 10,0 0,-9 -10,0z" />
<path style="fill:#a6a6a6" d="M669,229 l-6,8 6,5 7,-5 -7,-8z" />
<path style="fill:#a6a6a6" d="M691,271 l-9,0 0,9 9,0 0,-9z" />
<path style="fill:#a6a6a6" d="M676,316 l-7,-6 -6,6 6,7 7,-7z" />

</svg>
