<?xml version="1.0" encoding="utf-8" standalone="no"?><!DOCTYPE svg PUBLIC "-//W3C//DTD SVG 1.1//EN" "http://www.w3.org/Graphics/SVG/1.1/DTD/svg11-flat-20030114.dtd"><svg width="530" height="365" version="1.1" xmlns="http://www.w3.org/2000/svg" xmlns:xlink="http://www.w3.org/1999/xlink">

<path style="fill:#7f7f7f;stroke:#000;stroke-width:2" d="M131,136 l-116,0 0,-107 268,0 16,1 16,2 16,4 14,6 14,6 14,8 12,10 11,10 11,11 9,13 8,13 7,14 6,15 4,15 2,16 1,16 -1,16 -2,16 -4,16 -6,15 -7,14 -8,13 -9,12 -11,12 -11,10 -12,10 -14,8 -14,6 -14,6 -16,4 -16,2 -16,1 -16,-1 -16,-2 -16,-4 -14,-6 -14,-6 -14,-8 -12,-10 -12,-10 -10,-12 -9,-12 -8,-13 -7,-14 -6,-15 -4,-16 -2,-16 -1,-16 1,-20 3,-14 3,-13 2,-6z" />
<path style="fill:#999" d="M283,38 l-268,0 0,89 268,0 0,-89z" />
<path style="fill:#b2b2b2" d="M283,49 l-268,0 0,67 268,0 0,-67z" />
<path style="fill:#ccc" d="M283,59 l-268,0 0,47 268,0 0,-47z" />
<path style="fill:#e5e5e5" d="M283,67 l-268,0 0,30 268,0 0,-30z" />
<path style="fill:#fff" d="M283,76 l-268,0 0,13 268,0 0,-13z" />
<circle style="fill:#b2b2b2" cx="283" cy="189" r="152" />
<path style="fill:#7f7f7f" d="M283,243 l196,0 0,-107 -196,0 -11,1 -10,3 -9,5 -8,7 -7,8 -5,9 -3,10 -1,11 1,11 3,10 5,9 7,7 8,7 9,5 10,3 11,1z" />
<path style="fill:#999" d="M257,236 l-6,-4 -6,-4 -4,-6 -4,-5 -4,-6 -2,-7 -1,-7 -1,-7 1,-7 1,-8 2,-6 4,-7 4,-5 4,-6 6,-4 6,-4 222,0 0,93 -222,0z" />
<path style="fill:#b2b2b2" d="M243,225 l-3,-4 -3,-3 -2,-5 -2,-4 -2,-5 -1,-4 -1,-5 0,-5 0,-5 1,-5 1,-4 2,-5 2,-5 2,-4 3,-4 3,-4 236,0 0,71 -236,0z" />
<path style="fill:#ccc" d="M235,214 l-3,-6 -2,-6 -1,-6 0,-6 0,-7 1,-6 2,-6 3,-6 244,0 0,49 -244,0z" />
<path style="fill:#e5e5e5" d="M232,205 l-1,-4 -1,-4 -1,-3 0,-4 0,-5 1,-4 1,-5 1,-4 247,0 0,33 -247,0z" />
<path style="fill:#fff" d="M230,196 l-1,-2 0,-1 0,-2 0,-1 0,-2 0,-2 0,-1 1,-2 249,0 0,13 -249,0z" />
<path style="fill:none;stroke:#000;stroke-width:2" d="M479,136 l-196,0 -11,1 -10,3 -9,5 -8,7 -7,8 -5,9 -3,10 -1,11 1,11 3,10 5,9 7,7 8,7 9,5 10,3 11,1 196,0" />
<path style="fill:#7f7f7f" d="M51,15 l-36,0 0,134 36,0 0,-134z" />
<path style="fill:#999" d="M51,24 l-36,0 0,117 36,0 0,-117z" />
<path style="fill:#b2b2b2" d="M51,38 l-36,0 0,89 36,0 0,-89z" />
<path style="fill:#ccc" d="M51,52 l-36,0 0,61 36,0 0,-61z" />
<path style="fill:#e5e5e5" d="M51,63 l-36,0 0,39 36,0 0,-39z" />
<path style="fill:#fff" d="M51,74 l-36,0 0,17 36,0 0,-17z" />
<path style="fill:none;stroke:#000;stroke-width:2" d="M51,15 l-36,0 0,134 36,0 0,-134" />
<path style="fill:#7f7f7f" d="M515,123 l-36,0 0,134 36,0 0,-134z" />
<path style="fill:#999" d="M515,131 l-36,0 0,117 36,0 0,-117z" />
<path style="fill:#b2b2b2" d="M515,145 l-36,0 0,89 36,0 0,-89z" />
<path style="fill:#ccc" d="M515,159 l-36,0 0,61 36,0 0,-61z" />
<path style="fill:#e5e5e5" d="M515,170 l-36,0 0,39 36,0 0,-39z" />
<path style="fill:#fff" d="M515,181 l-36,0 0,17 36,0 0,-17z" />
<path style="fill:none;stroke:#000;stroke-width:2" d="M515,123 l-36,0 0,134 36,0 0,-134" />

</svg>
