<?xml version="1.0" encoding="utf-8" standalone="no"?><!DOCTYPE svg PUBLIC "-//W3C//DTD SVG 1.1//EN" "http://www.w3.org/Graphics/SVG/1.1/DTD/svg11-flat-20030114.dtd"><svg width="999" height="454" version="1.1" xmlns="http://www.w3.org/2000/svg" xmlns:xlink="http://www.w3.org/1999/xlink">

<path style="fill:#0ff;stroke:#000;stroke-width:2" d="M782,300 l21,105 21,0 0,21 -168,0 0,-21 21,0 -63,-63 -167,0 -63,63 21,0 0,21 -168,0 0,-21 21,0 21,-105 -42,-21 -189,0 -20,-21 0,-188 20,-21 210,0 105,21 21,-42 293,0 21,42 42,0 10,-21 137,0 83,21 0,209 -83,21 -105,0z" />
<path style="fill:none;stroke:#000;stroke-width:2" d="M740,80 l0,199" />
<path style="fill:none;stroke:#000;stroke-width:2" d="M698,91 l-52,0 -32,10 -167,0 -32,-10 -52,0" />
<path style="fill:none;stroke:#000;stroke-width:2" d="M384,405 l-126,0" />
<path style="fill:none;stroke:#000;stroke-width:2" d="M279,394 l94,0 74,-73 -168,-10 0,83" />
<path style="fill:none;stroke:#000;stroke-width:2" d="M803,405 l-126,0" />
<path style="fill:none;stroke:#000;stroke-width:2" d="M782,394 l-94,0 -74,-73 168,-10 0,83" />
<circle style="fill:#0ff;stroke:#000;stroke-width:2" cx="530" cy="269" r="146" />
<path style="fill:#0ff;stroke:#000;stroke-width:2" d="M289,28 l-21,0 0,293 21,0 0,-293z" />
<path style="fill:#0ff;stroke:#000;stroke-width:2" d="M258,28 l-21,0 0,293 21,0 0,-293z" />
<path style="fill:#0ff;stroke:#000;stroke-width:2" d="M205,28 l-10,0 0,293 10,0 0,-293z" />
<path style="fill:#0ff;stroke:#000;stroke-width:2" d="M185,28 l-11,0 0,293 11,0 0,-293z" />
<path style="fill:#0ff;stroke:#000;stroke-width:2" d="M887,28 l-11,0 0,293 11,0 0,-293z" />
<path style="fill:#0ff;stroke:#000;stroke-width:2" d="M866,28 l-11,0 0,293 11,0 0,-293z" />
<path style="fill:#0ff;stroke:#000;stroke-width:2" d="M824,28 l-21,0 0,293 21,0 0,-293z" />
<path style="fill:#0ff;stroke:#000;stroke-width:2" d="M792,28 l-20,0 0,293 20,0 0,-293z" />
<path style="fill:#0ff" d="M531,185 l-32,6 -28,18 -18,29 -6,31 6,31 18,29 28,17 32,7 31,-7 29,-17 17,-29 6,-31 -6,-31 -17,-29 -29,-18 -31,-6 0,21 23,4 21,14 14,21 5,24 -5,23 -14,22 -21,13 -23,5 -24,-5 -21,-13 -14,-22 -4,-23 4,-24 14,-21 21,-14 24,-4 0,-21z" />

</svg>
