<?xml version="1.0" encoding="utf-8" standalone="no"?><!DOCTYPE svg PUBLIC "-//W3C//DTD SVG 1.1//EN" "http://www.w3.org/Graphics/SVG/1.1/DTD/svg11-flat-20030114.dtd"><svg width="999" height="731" version="1.1" xmlns="http://www.w3.org/2000/svg" xmlns:xlink="http://www.w3.org/1999/xlink">

<path style="fill:#0000bf;stroke:#000;stroke-width:2" d="M902,472 l0,-179 -2,6 -18,-30 -4,2 0,232 4,2 18,-39 2,6z" />
<path style="fill:#f0f0f0;stroke:#000;stroke-width:2" d="M890,342 l0,-8 -8,0 0,8 8,0z" />
<path style="fill:#f0f0f0;stroke:#000;stroke-width:2" d="M890,438 l0,-10 -8,0 0,10 8,0z" />
<path style="fill:#f0f0f0;stroke:#000;stroke-width:2" d="M890,389 l0,-10 -8,0 0,10 8,0z" />
<path style="fill:#f0f0f0;stroke:#000;stroke-width:2" d="M890,287 l0,-10 -8,0 0,10 8,0z" />
<path style="fill:#f0f0f0;stroke:#000;stroke-width:2" d="M890,487 l0,-10 -8,0 0,10 8,0z" />
<path style="fill:#f0f0f0;stroke:#000;stroke-width:2" d="M900,536 l0,-10 -8,0 0,10 8,0z" />
<path style="fill:#f0f0f0;stroke:#000;stroke-width:2" d="M106,448 l0,-10 -8,0 0,10 8,0z" />
<path style="fill:#f0f0f0;stroke:#000;stroke-width:2" d="M900,587 l0,-10 -8,0 0,10 8,0z" />
<path style="fill:#f0f0f0;stroke:#000;stroke-width:2" d="M106,499 l0,-10 -8,0 0,10 8,0z" />
<path style="fill:#b2b2b2" d="M193,356 l-165,0 0,51 165,0 0,-51z" />
<path style="fill:#e0e0e0" d="M193,357 l-165,0 0,22 165,0 0,-22z" />
<path style="fill:#fff" d="M193,360 l-165,0 0,3 165,0 0,-3z" />
<path style="fill:none;stroke:#000;stroke-width:2" d="M193,356 l-165,0 0,51 165,0 0,-51" />
<path style="fill:#0000ad" d="M595,214 l-157,0 0,324 157,0 0,-324z" />
<path style="fill:#0000ad" d="M116,250 l322,0 0,255 -322,0 0,-255z" />
<path style="fill:#0000bf" d="M595,222 l-157,0 0,275 157,0 0,-275z" />
<path style="fill:#0000bf" d="M116,256 l322,0 0,216 -322,0 0,-216z" />
<path style="fill:#7f7fff" d="M595,228 l-157,0 0,12 157,0 0,-12z" />
<path style="fill:none;stroke:#000;stroke-width:2" d="M595,214 l-157,0 0,324 157,0 0,-324" />
<path style="fill:#7f7fff" d="M116,259 l322,0 0,8 -322,0 0,-8z" />
<path style="fill:none;stroke:#000;stroke-width:2" d="M116,250 l322,0 0,255 -322,0 0,-255" />
<path style="fill:#0000ad" d="M678,609 l0,-448 21,-15 158,0 23,15 0,448 -23,16 -158,0 -21,-16z" />
<path style="fill:#0000ad" d="M699,146 l106,0 0,-79 -106,0 0,79z" />
<path style="fill:#0000ad" d="M854,67 l0,-39 -204,0 0,39 204,0z" />
<path style="fill:#0000bf" d="M849,63 l0,-32 -144,0 0,32 144,0z" />
<path style="fill:#0000bf" d="M729,146 l72,0 0,-79 -72,0 0,79z" />
<path style="fill:#0000bf" d="M680,584 l0,-390 21,-21 153,0 22,21 0,390 -22,17 -153,0 -21,-17z" />
<path style="fill:#0000bf;stroke:#000;stroke-width:2" d="M680,538 l0,-324 -4,10 -34,-51 -6,2 0,424 6,2 34,-70 4,7z" />
<path style="fill:#0000bf;stroke:#000;stroke-width:2" d="M593,538 l0,-324 6,10 34,-51 3,2 0,424 -3,2 -34,-70 -6,7z" />
<path style="fill:#7f7fff" d="M680,210 l0,16 21,-10 153,0 22,10 0,-16 -22,-16 -153,0 -21,16z" />
<path style="fill:#7f7fff" d="M792,146 l7,0 0,-79 -7,0 0,79z" />
<path style="fill:#7f7fff" d="M841,63 l0,-32 -12,0 0,32 12,0z" />
<path style="fill:#f0f0f0;stroke:#000;stroke-width:2" d="M656,307 l0,-18 -16,0 0,18 16,0z" />
<path style="fill:#f0f0f0;stroke:#000;stroke-width:2" d="M619,307 l0,-18 14,0 0,18 -14,0z" />
<path style="fill:#f0f0f0;stroke:#000;stroke-width:2" d="M656,477 l0,-15 -16,0 0,15 16,0z" />
<path style="fill:#f0f0f0;stroke:#000;stroke-width:2" d="M619,477 l0,-15 14,0 0,15 -14,0z" />
<path style="fill:#f0f0f0;stroke:#000;stroke-width:2" d="M656,389 l0,-16 -16,0 0,16 16,0z" />
<path style="fill:#f0f0f0;stroke:#000;stroke-width:2" d="M619,389 l0,-16 14,0 0,16 -14,0z" />
<path style="fill:#f0f0f0;stroke:#000;stroke-width:2" d="M656,205 l0,-16 -16,0 0,16 16,0z" />
<path style="fill:#f0f0f0;stroke:#000;stroke-width:2" d="M619,205 l0,-16 14,0 0,16 -14,0z" />
<path style="fill:none;stroke:#000;stroke-width:2" d="M678,609 l0,-448 21,-15 158,0 23,15 0,448 -23,16 -158,0 -21,-16" />
<path style="fill:none;stroke:#000;stroke-width:2" d="M699,146 l106,0 0,-79 -106,0 0,79" />
<path style="fill:none;stroke:#000;stroke-width:2" d="M854,67 l0,-39 -204,0 0,39 204,0" />
<path style="fill:#f0f0f0;stroke:#000;stroke-width:2" d="M656,568 l0,-16 -16,0 0,16 16,0z" />
<path style="fill:#f0f0f0;stroke:#000;stroke-width:2" d="M619,568 l0,-16 14,0 0,16 -14,0z" />
<path style="fill:#333;stroke:#000;stroke-width:2" d="M570,401 l-104,0 -12,10 0,86 12,12 104,0 14,-12 0,-86 -14,-10z" />
<path style="fill:#0000bf;stroke:#000;stroke-width:2" d="M892,521 l-14,0 0,182 14,0 78,0 0,-14 -78,0 0,-168z" />
<path style="fill:#0000bf;stroke:#000;stroke-width:2" d="M118,428 l-14,0 0,275 14,0 79,0 0,-14 -79,0 0,-261z" />

</svg>
