<?xml version="1.0" encoding="utf-8" standalone="no"?><!DOCTYPE svg PUBLIC "-//W3C//DTD SVG 1.1//EN" "http://www.w3.org/Graphics/SVG/1.1/DTD/svg11-flat-20030114.dtd"><svg width="999" height="536" version="1.1" xmlns="http://www.w3.org/2000/svg" xmlns:xlink="http://www.w3.org/1999/xlink">

<path style="fill:#b2b2b2;stroke:#000;stroke-width:2" d="M257,200 l84,0 0,232 -84,0 0,-232z" />
<path style="fill:#7f7f7f" d="M279,149 l-245,0 0,0 -3,29 -1,32 -2,34 0,30 0,8 0,8 0,8 0,43 0,32 1,29 1,32 1,28 3,21 0,0 245,0 0,-334z" />
<path style="fill:#7f7f7f" d="M966,149 l0,334 -654,0 0,0 -2,0 -1,0 -1,-29 -1,-32 -1,-34 0,-31 0,-8 0,-8 0,-59 0,-31 0,-28 1,-30 1,-31 1,-13 1,0 0,0 636,0 20,0z" />
<path style="fill:#999" d="M279,194 l-46,0 -8,0 -8,0 -130,0 -15,0 -38,0 -1,0 1,0 -2,10 -1,11 -1,15 -1,9 0,9 0,10 -1,10 0,12 0,11 0,12 0,12 0,12 0,12 0,12 0,11 1,11 0,10 0,9 1,17 1,13 1,9 1,5 1,1 0,0 46,0 15,0 130,0 15,0 31,0 8,0 0,-8 0,-38 -1,-15 0,-129 1,-15 0,-38z" />
<path style="fill:#999" d="M966,194 l0,8 0,8 0,7 0,30 0,137 0,30 0,15 0,8 -21,0 -102,0 -41,0 -348,0 -41,0 -103,0 -1,-1 -2,-27 -1,-36 0,-22 0,-12 0,-12 0,-36 0,-33 1,-28 1,-30 1,-5 1,-1 1,0 0,0 0,0 655,0z" />
<path style="fill:#b2b2b2" d="M278,240 l-46,0 -7,0 -8,0 -130,0 -15,0 -38,0 0,0 -3,9 -1,13 -1,11 0,13 -1,14 0,8 0,7 0,15 1,15 0,12 1,12 1,9 1,10 1,3 1,0 7,0 39,0 15,0 130,0 15,0 31,0 7,0 0,-9 0,-19 0,-10 0,-76 0,-9 0,-28z" />
<path style="fill:#b2b2b2" d="M966,240 l0,10 0,9 0,9 -1,28 0,57 1,29 0,9 -21,0 -102,0 -41,0 -348,0 -41,0 -103,0 0,0 -3,-28 -1,-25 0,-8 0,-7 0,-30 1,-31 3,-22 1,0 0,0 0,0 655,0z" />
<path style="fill:#ccc" d="M278,286 l-244,0 0,0 -1,0 -1,2 -1,3 -1,3 0,5 -1,5 0,5 0,7 0,6 0,5 1,5 0,5 1,3 1,3 1,2 1,1 0,0 244,0 0,-60z" />
<path style="fill:#ccc" d="M966,286 l0,60 -655,0 0,0 -1,-1 -4,-18 0,-5 0,-6 3,-28 1,-2 1,0 0,0 635,0 20,0z" />
<ellipse style="fill:#7f7f7f;stroke:#000;stroke-width:2" cx="278" cy="316" rx="4" ry="167" />
<path style="fill:none;stroke:#000;stroke-width:2" d="M278,149 l-244,0 0,0 0,0 -3,29 -1,32 -1,34 0,30 0,8 0,8 0,59 0,32 1,28 0,30 2,31 2,13 0,0 0,0 244,0 0,-334" />
<path style="fill:none;stroke:#000;stroke-width:2" d="M279,149 l-245,0 0,0 -3,29 -1,32 -2,34 0,30 0,8 0,8 0,8 0,43 0,32 1,29 1,32 1,28 3,21 0,0 245,0 0,-334" />
<path style="fill:none;stroke:#000;stroke-width:2" d="M966,149 l0,334 -654,0 0,0 -2,0 -1,0 -1,-29 -1,-32 -1,-34 0,-31 0,-8 0,-8 0,-59 0,-31 0,-28 1,-30 1,-31 1,-13 1,0 0,0 636,0 20,0" />
<ellipse style="fill:#7f7f7f;stroke:#000;stroke-width:2" cx="966" cy="316" rx="4" ry="167" />
<path style="fill:#666;stroke:#000;stroke-width:2" d="M247,424 l69,0 0,8 -69,0 0,-8z" />
<path style="fill:#666;stroke:#000;stroke-width:2" d="M247,380 l4,0 65,0 0,8 -69,0 0,-8z" />
<path style="fill:#666;stroke:#000;stroke-width:2" d="M247,334 l4,0 65,0 0,8 -69,0 0,-8z" />
<path style="fill:#666;stroke:#000;stroke-width:2" d="M247,290 l4,0 65,0 0,8 -69,0 0,-8z" />
<path style="fill:#666;stroke:#000;stroke-width:2" d="M247,244 l4,0 65,0 0,10 -69,0 0,-10z" />
<path style="fill:#666;stroke:#000;stroke-width:2" d="M247,200 l69,0 0,10 -69,0 0,-10z" />
<path style="fill:#7f7f7f" d="M723,149 l0,-79 119,0 0,79 -1,9 -7,9 -12,5 -13,3 -8,1 -9,0 -10,0 -11,0 -9,0 -14,-3 -11,-2 -9,-6 -5,-9 0,-7z" />
<path style="fill:#a6a6a6;fill-rule:evenodd" d="M748,149 l0,-5 0,-5 0,-5 0,-5 0,-5 0,-5 0,-5 0,-5 0,-5 0,-5 0,-5 0,-5 0,-5 0,-5 0,-5 0,-5 5,0 4,0 4,0 4,0 4,0 5,0 4,0 4,0 4,0 4,0 5,0 4,0 4,0 4,0 4,0 5,0 0,5 0,5 0,5 -1,5 0,5 0,5 0,5 0,5 0,5 0,5 0,5 0,5 1,5 0,5 0,5 0,5 -1,5 0,4 -2,5 -2,4 -4,4 -6,3 -9,2 -10,1 -11,-1 -9,-2 -6,-3 -4,-4 -2,-5 -1,-4 -1,-4 0,-5z M816,149 l0,-5 0,-5 0,-5 -1,-5 0,-5 0,-5 0,-5 0,-5 0,-5 0,-5 0,-5 0,-5 1,-5 0,-5 0,-5 0,-5 0,80z " />
<path style="fill:#ccc" d="M774,149 l0,-80 15,0 0,80 0,5 0,5 0,4 -1,4 -1,4 -1,3 -2,2 -2,1 -3,-1 -1,-2 -2,-3 -1,-4 0,-4 -1,-5 0,-4 0,-5z" />
<path style="fill:none;stroke:#000;stroke-width:2" d="M722,149 l0,-80 120,0 0,82 -2,10 -6,6 -12,6 -13,3 -8,0 -9,1 -10,0 -11,0 -9,-1 -15,-2 -10,-3 -10,-6 -4,-9 -1,-7" />
<path style="fill:none;stroke:#000;stroke-width:2" d="M842,149 l0,-80" />
<ellipse style="fill:#7f7f7f;stroke:#000;stroke-width:2" cx="783" cy="57" rx="148" ry="5" />
<path style="fill:#7f7f7f;stroke:#000;stroke-width:2" d="M932,69 l-35,1 -28,1 -34,0 -24,1 -98,0 -31,-1 -32,-1 -14,-1 0,-37 296,0 0,37z" />
<path style="fill:#a6a6a6" d="M866,69 l-11,1 -13,0 -11,0 -13,1 -13,0 -7,0 -6,0 -48,0 -12,0 -11,-1 -9,0 -9,-1 -2,0 0,-5 0,-5 0,-4 0,-14 0,-9 31,0 5,0 5,0 87,0 11,0 20,0 6,0 0,4 -1,10 0,13 1,10z" />
<path style="fill:#ccc" d="M800,69 l-2,1 -4,0 -5,1 -6,0 -5,0 -5,0 -4,-1 -3,-1 0,-37 34,0 0,37z" />
<path style="fill:none;stroke:#000;stroke-width:2" d="M635,32 l296,0" />
<ellipse style="fill:#7f7f7f;stroke:#000;stroke-width:2" cx="783" cy="32" rx="148" ry="4" />
<ellipse style="fill:#000;stroke:#000;stroke-width:2" cx="781" cy="33" rx="58" ry="1" />
<path style="fill:#4c4c4c;stroke:#000;stroke-width:2" d="M484,479 l-130,0 0,21 130,0 0,-21z" />
<path style="fill:#4c4c4c;stroke:#000;stroke-width:2" d="M863,479 l-130,0 0,21 130,0 0,-21z" />
<path style="fill:#7f7f7f;stroke:#000;stroke-width:2" d="M498,508 l0,-13 -159,0 0,13 159,0z" />
<path style="fill:#7f7f7f;stroke:#000;stroke-width:2" d="M876,508 l0,-13 -157,0 0,13 157,0z" />
<path style="fill:#7f7f7f;stroke:#000;stroke-width:2" d="M358,405 l-13,0 0,90 13,0 0,-90z" />
<path style="fill:#7f7f7f;stroke:#000;stroke-width:2" d="M492,405 l-12,0 0,90 12,0 0,-90z" />
<path style="fill:#7f7f7f;stroke:#000;stroke-width:2" d="M738,405 l-13,0 0,90 13,0 0,-90z" />
<path style="fill:#7f7f7f;stroke:#000;stroke-width:2" d="M870,405 l-13,0 0,90 13,0 0,-90z" />

</svg>
