<?xml version="1.0" encoding="utf-8" standalone="no"?><!DOCTYPE svg PUBLIC "-//W3C//DTD SVG 1.1//EN" "http://www.w3.org/Graphics/SVG/1.1/DTD/svg11-flat-20030114.dtd"><svg width="999" height="292" version="1.1" xmlns="http://www.w3.org/2000/svg" xmlns:xlink="http://www.w3.org/1999/xlink">

<path style="fill:#ccc;stroke:#000;stroke-width:2" d="M322,65 l-175,0 0,80 175,0 0,-80z" />
<path style="fill:#ccc;stroke:#000;stroke-width:2" d="M441,86 l-119,0 0,40 119,0 0,-40z" />
<path style="fill:#ccc;stroke:#000;stroke-width:2" d="M970,224 l-942,0 0,39 942,0 0,-39z" />
<path style="fill:#ccc;stroke:#000;stroke-width:2" d="M224,224 l0,-40 -40,0 0,40 40,0z" />
<path style="fill:#ccc;stroke:#000;stroke-width:2" d="M539,224 l0,-40 -40,0 0,40 40,0z" />
<path style="fill:#ccc;stroke:#000;stroke-width:2" d="M891,224 l0,-40 -38,0 0,40 38,0z" />
<path style="fill:#ccc;stroke:#000;stroke-width:2" d="M459,184 l472,0 22,-13 13,-28 4,-30 0,-8 0,-8 -4,-29 -13,-27 -18,-13 -4,0 -472,0 -21,13 -13,27 -5,29 0,8 0,8 5,30 10,23 21,18 3,0z" />
<path style="fill:none;stroke:#000;stroke-width:2" d="M931,184 l0,-156" />
<path style="fill:none;stroke:#000;stroke-width:2" d="M459,184 l0,-156" />
<path style="fill:none;stroke:#000;stroke-width:2" d="M459,47 l472,0" />
<path style="fill:none;stroke:#000;stroke-width:2" d="M931,67 l-472,0" />
<path style="fill:none;stroke:#000;stroke-width:2" d="M459,86 l472,0" />
<path style="fill:none;stroke:#000;stroke-width:2" d="M931,105 l-472,0" />
<path style="fill:none;stroke:#000;stroke-width:2" d="M459,126 l472,0" />
<path style="fill:none;stroke:#000;stroke-width:2" d="M931,145 l-472,0" />
<path style="fill:none;stroke:#000;stroke-width:2" d="M459,165 l472,0" />
<path style="fill:#ccc;stroke:#000;stroke-width:2" d="M224,28 l-40,0 -11,3 -6,8 -2,8 0,118 3,11 8,7 8,1 40,0 11,-3 8,-8 2,-8 0,-118 -4,-11 -9,-7 -8,-1z" />
<path style="fill:#ccc;stroke:#000;stroke-width:2" d="M214,47 l-20,0 -7,2 -3,7 0,98 3,8 7,3 20,0 4,-1 3,-2 3,-8 0,-98 -1,-4 -2,-3 -3,-2 -4,0z" />
<path style="fill:#ccc" d="M775,56 l-158,0 0,79 158,0 0,-79z" />
<path style="fill:#ccc;stroke:#000;stroke-width:2" d="M754,57 l-118,0 0,78 118,0 0,-78z" />

</svg>
