<?xml version="1.0" encoding="utf-8" standalone="no"?><!DOCTYPE svg PUBLIC "-//W3C//DTD SVG 1.1//EN" "http://www.w3.org/Graphics/SVG/1.1/DTD/svg11-flat-20030114.dtd"><svg width="999" height="516" version="1.1" xmlns="http://www.w3.org/2000/svg" xmlns:xlink="http://www.w3.org/1999/xlink">

<path style="fill:#f0f0f0" d="M107,160 l-2,0 0,-44 2,0 0,44z" />
<path style="fill:#00f;stroke:#000;stroke-width:2" d="M233,412 l70,0 0,-2 192,29 0,37 -326,0 64,-64z" />
<path style="fill:#00f;stroke:#000;stroke-width:2" d="M167,476 l332,0 0,12 -332,0 0,-12z" />
<path style="fill:#00f;stroke:#000;stroke-width:2" d="M316,120 l-13,0 0,258 13,0 0,-258z" />
<path style="fill:#00f;stroke:#000;stroke-width:2" d="M169,158 l134,0 0,185 -134,0 0,-185z" />
<path style="fill:#00f;stroke:#000;stroke-width:2" d="M169,135 l-19,0 0,230 19,0 0,-230z" />
<path style="fill:#00c;stroke:#000;stroke-width:2" d="M171,341 l132,0 0,69 -132,0 0,-69z" />
<path style="fill:#7f7f7f;stroke:#000;stroke-width:2" d="M471,292 l0,-85 -21,0 0,85 21,0z" />
<path style="fill:#7f7f7f;stroke:#000;stroke-width:2" d="M450,143 l-124,0 0,213 124,0 0,-213z" />
<path style="fill:#7f7f7f;stroke:#000;stroke-width:2" d="M171,94 l-111,0 0,20 111,0 0,-20z" />
<path style="fill:#7f7f7f;stroke:#000;stroke-width:2" d="M130,160 l-29,0 0,-46 29,0 0,46z" />
<path style="fill:#7f7f7f;stroke:#000;stroke-width:2" d="M133,135 l17,0 0,230 -17,0 0,-230z" />
<path style="fill:#7f7f7f;stroke:#000;stroke-width:2" d="M133,160 l-37,0 0,181 37,0 0,-181z" />
<path style="fill:#7f7f7f;stroke:#000;stroke-width:2" d="M81,135 l15,0 0,230 -15,0 0,-230z" />
<path style="fill:#7f7f7f;stroke:#000;stroke-width:2" d="M49,197 l32,0 0,106 -32,0 0,-106z" />
<path style="fill:#7f7f7f;stroke:#000;stroke-width:2" d="M49,171 l-21,0 0,158 21,0 0,-158z" />
<path style="fill:#7f7f7f;stroke:#000;stroke-width:2" d="M71,356 l-4,0 0,-8 4,0 0,2 8,0 0,4 -8,0 0,2z" />
<path style="fill:#7f7f7f;stroke:#000;stroke-width:2" d="M179,356 l1,0 0,-8 -1,0 0,2 -10,0 0,4 10,0 0,2z" />
<path style="fill:#7f7f7f;stroke:#000;stroke-width:2" d="M290,371 l-6,0 0,-13 6,0 0,2 13,0 0,7 -13,0 0,4z" />
<path style="fill:#7f7f7f;stroke:#000;stroke-width:2" d="M290,141 l-6,0 0,-11 6,0 0,1 13,0 0,8 -13,0 0,2z" />
<path style="fill:#7f7f7f;stroke:#000;stroke-width:2" d="M179,154 l1,0 0,-7 -1,0 0,1 -10,0 0,4 10,0 0,2z" />
<path style="fill:#7f7f7f;stroke:#000;stroke-width:2" d="M71,154 l-4,0 0,-7 4,0 0,1 8,0 0,4 -8,0 0,2z" />
<path style="fill:#7f7f7f;stroke:#000;stroke-width:2" d="M490,399 l-14,-6 -5,-11 0,-266 5,-11 14,-6 346,0 10,149 -10,151 -346,0z" />
<path style="fill:#4c4c4c;stroke:#000;stroke-width:2" d="M69,354 l10,0 0,4 -10,0 0,-4z" />
<path style="fill:#4c4c4c;stroke:#000;stroke-width:2" d="M179,354 l-10,0 0,4 10,0 0,-4z" />
<path style="fill:#4c4c4c;stroke:#000;stroke-width:2" d="M288,367 l15,0 0,8 -15,0 0,-8z" />
<path style="fill:#4c4c4c;stroke:#000;stroke-width:2" d="M288,139 l15,0 0,8 -15,0 0,-8z" />
<path style="fill:#4c4c4c;stroke:#000;stroke-width:2" d="M179,152 l-10,0 0,4 10,0 0,-4z" />
<path style="fill:#4c4c4c;stroke:#000;stroke-width:2" d="M69,152 l10,0 0,4 -10,0 0,-4z" />
<path style="fill:#7f7f7f;stroke:#000;stroke-width:2" d="M133,346 l-37,0 0,4 37,0 0,-4z" />
<path style="fill:#7f7f7f;stroke:#000;stroke-width:2" d="M133,148 l-37,0 0,6 37,0 0,-6z" />
<path style="fill:#e5e5e5;stroke:#000;stroke-width:2" d="M69,344 l10,0 0,6 -10,0 0,-6z" />
<path style="fill:#e5e5e5;stroke:#000;stroke-width:2" d="M179,344 l-10,0 0,6 10,0 0,-6z" />
<path style="fill:#e5e5e5;stroke:#000;stroke-width:2" d="M288,354 l15,0 0,6 -15,0 0,-6z" />
<path style="fill:#e5e5e5;stroke:#000;stroke-width:2" d="M288,126 l15,0 0,5 -15,0 0,-5z" />
<path style="fill:#e5e5e5;stroke:#000;stroke-width:2" d="M179,143 l-10,0 0,5 10,0 0,-5z" />
<path style="fill:#e5e5e5;stroke:#000;stroke-width:2" d="M69,143 l10,0 0,5 -10,0 0,-5z" />
<path style="fill:#e0e0e0" d="M316,120 l10,0 0,258 -10,0 0,-258z" />
<path style="fill:#e0e0e0" d="M50,278 l29,0 0,-69 -29,0 0,69z" />
<path style="fill:#e0e0e0" d="M49,292 l-19,0 0,-104 19,0 0,104z" />
<path style="fill:#f0f0f0" d="M450,175 l-124,0 0,9 124,0 0,-9z" />
<path style="fill:#f0f0f0" d="M316,158 l-13,0 0,30 13,0 0,-30z" />
<path style="fill:#f0f0f0" d="M169,188 l134,0 0,13 -134,0 0,-13z" />
<path style="fill:#f0f0f0" d="M169,171 l-19,0 0,6 19,0 0,-6z" />
<path style="fill:#f0f0f0" d="M133,169 l17,0 0,15 -17,0 0,-15z" />
<path style="fill:#f0f0f0" d="M133,171 l-37,0 0,6 37,0 0,-6z" />
<path style="fill:#f0f0f0" d="M84,94 l-9,0 0,20 9,0 0,-20z" />
<path style="fill:#f0f0f0" d="M81,150 l15,0 0,10 -15,0 0,-10z" />
<path style="fill:#f0f0f0" d="M49,180 l-19,0 0,8 19,0 0,-8z" />
<path style="fill:#f0f0f0" d="M50,203 l29,0 0,6 -29,0 0,-6z" />
<path style="fill:#b2b2b2;fill-rule:evenodd" d="M682,81 l0,33 -10,0 0,-16 0,-17 -15,-10 -5,-17 7,-19 17,-7 19,7 8,19 -6,17 -15,10z M676,39 l11,4 8,13 -8,9 -11,6 -11,-6 -4,-11 4,-11 11,-4z " />
<path style="fill:none;stroke:#000;stroke-width:2" d="M682,81 l0,33 -10,0 0,-16 0,-17 -15,-10 -5,-17 7,-19 17,-7 19,7 8,19 -6,17 -15,10" />
<path style="fill:none;stroke:#000;stroke-width:2" d="M676,39 l11,4 8,13 -8,9 -11,6 -11,-6 -4,-11 4,-11 11,-4" />
<path style="fill:#e5e5e5;stroke:#000;stroke-width:2" d="M836,90 l2,28 -348,0 -8,-5 13,-19 8,-4 333,0z" />
<path style="fill:#e5e5e5;stroke:#000;stroke-width:2" d="M838,120 l2,27 -356,0 -2,-6 8,-15 15,-6 333,0z" />
<path style="fill:#d1d1d1;stroke:#000;stroke-width:2" d="M840,152 l2,21 -358,0 -2,-6 21,-15 337,0z" />
<path style="fill:#d1d1d1;stroke:#000;stroke-width:2" d="M842,182 l2,21 -360,0 -2,-6 23,-15 337,0z" />
<path style="fill:#d1d1d1;stroke:#000;stroke-width:2" d="M844,212 l0,16 -358,0 -4,-4 23,-12 339,0z" />
<path style="fill:#b2b2b2;stroke:#000;stroke-width:2" d="M846,254 l0,-6 0,-5 -343,0 -23,11 6,0 360,0z" />
<path style="fill:#b2b2b2;stroke:#000;stroke-width:2" d="M844,269 l0,17 -360,0 -2,-2 23,-15 339,0z" />
<path style="fill:#b2b2b2;stroke:#000;stroke-width:2" d="M842,295 l0,21 -356,0 -2,-2 21,-19 337,0z" />
<path style="fill:#b2b2b2;stroke:#000;stroke-width:2" d="M840,326 l0,22 -354,0 -4,-4 23,-18 335,0z" />
<path style="fill:#b2b2b2;stroke:#000;stroke-width:2" d="M840,352 l-2,26 -352,0 -4,-5 23,-21 335,0z" />
<path style="fill:#7f7f7f" d="M836,82 l44,0 32,6 30,15 4,6 -108,0 -2,-27z" />
<path style="fill:#7f7f7f" d="M961,367 l-21,23 -28,17 -32,5 -44,0 2,-45 123,0z" />
<path style="fill:#b2b2b2" d="M946,109 l17,19 2,9 -127,0 0,-28 108,0z" />
<path style="fill:#b2b2b2" d="M970,314 l0,23 -7,28 -2,2 -123,0 4,-53 128,0z" />
<path style="fill:#e5e5e5" d="M965,137 l5,21 0,11 -130,0 -2,-32 127,0z" />
<path style="fill:#e5e5e5" d="M970,245 l0,-36 -126,0 2,36 124,0z" />
<path style="fill:#f0f0f0" d="M970,209 l0,-40 -130,0 4,40 126,0z" />
<path style="fill:#e0e0e0" d="M970,245 l0,3 0,34 -126,0 2,-34 0,-3 124,0z" />
<path style="fill:#ccc" d="M970,314 l0,-32 -126,0 -2,32 128,0z" />
<path style="fill:none;stroke:#000;stroke-width:2" d="M836,82 l44,0 32,6 28,17 21,25 9,28 0,90 0,89 -9,28 -21,25 -28,17 -32,5 -44,0 10,-164 -10,-166" />

</svg>
