<?xml version="1.0" encoding="utf-8" standalone="no"?><!DOCTYPE svg PUBLIC "-//W3C//DTD SVG 1.1//EN" "http://www.w3.org/Graphics/SVG/1.1/DTD/svg11-flat-20030114.dtd"><svg width="999" height="664" version="1.1" xmlns="http://www.w3.org/2000/svg" xmlns:xlink="http://www.w3.org/1999/xlink">

<path style="fill:#999;stroke:#000;stroke-width:2" d="M216,56 l-113,0 0,52 113,0 0,-52z" />
<path style="fill:#b2b2b2" d="M254,28 l-189,0 0,29 189,0 0,-29z" />
<path style="fill:#ccc;stroke:#000;stroke-width:2" d="M839,428 l-38,0 0,132 38,0 0,-132z" />
<path style="fill:#ccc;stroke:#000;stroke-width:2" d="M310,447 l-37,0 0,113 37,0 0,-113z" />
<path style="fill:#b2b2b2;stroke:#000;stroke-width:2" d="M857,579 l-754,0 0,38 754,0 0,-38z" />
<path style="fill:#bfbfbf" d="M103,485 l151,0 0,-38 415,0 0,-19 207,0 0,-18 19,0 0,-19 38,0 0,-189 -38,0 0,-19 -19,0 0,-19 -207,0 0,-18 -415,0 0,-38 -151,0 0,94 -57,0 0,-38 -18,0 0,264 18,0 0,-37 57,0 0,94z" />
<path style="fill:#ccc" d="M103,447 l151,0 0,-30 415,0 0,-15 207,0 0,-15 19,0 0,-15 38,0 0,-151 -38,0 0,-15 -19,0 0,-15 -207,0 0,-15 -415,0 0,-30 -151,0 0,75 -57,0 0,-30 -18,0 0,211 18,0 0,-30 57,0 0,75z" />
<path style="fill:#d9d9d9" d="M103,410 l151,0 0,-23 415,0 0,-12 207,0 0,-11 19,0 0,-11 38,0 0,-113 -38,0 0,-11 -19,0 0,-12 -207,0 0,-11 -415,0 0,-23 -151,0 0,57 -57,0 0,-23 -18,0 0,158 18,0 0,-22 57,0 0,57z" />
<path style="fill:#e5e5e5" d="M103,353 l151,0 0,-11 415,0 0,-6 207,0 0,-6 19,0 0,-6 38,0 0,-56 -38,0 0,-6 -19,0 0,-5 -207,0 0,-6 -415,0 0,-11 -151,0 0,28 -57,0 0,-11 -18,0 0,79 18,0 0,-12 57,0 0,29z" />
<path style="fill:none;stroke:#000;stroke-width:2" d="M103,485 l151,0 0,-38 415,0 0,-19 207,0 0,-18 19,0 0,-19 38,0 0,-189 -38,0 0,-19 -19,0 0,-19 -207,0 0,-18 -415,0 0,-38 -151,0 0,94 -57,0 0,-38 -18,0 0,264 18,0 0,-37 57,0 0,94" />
<path style="fill:none;stroke:#000;stroke-width:2" d="M895,391 l0,-189" />
<path style="fill:none;stroke:#000;stroke-width:2" d="M876,183 l0,227" />
<path style="fill:none;stroke:#000;stroke-width:2" d="M669,428 l0,-264" />
<path style="fill:none;stroke:#000;stroke-width:2" d="M254,146 l0,301" />
<path style="fill:none;stroke:#000;stroke-width:2" d="M103,202 l0,189" />
<path style="fill:none;stroke:#000;stroke-width:2" d="M46,202 l0,189" />
<path style="fill:none;stroke:#000;stroke-width:2" d="M216,108 l0,377" />
<path style="fill:none;stroke:#000;stroke-width:2" d="M235,108 l0,377" />
<path style="fill:#d9d9d9" d="M197,28 l-75,0 0,29 75,0 0,-29z" />
<path style="fill:none;stroke:#000;stroke-width:2" d="M254,28 l-189,0 0,29 189,0 0,-29" />
<path style="fill:#b2b2b2;stroke:#000;stroke-width:2" d="M273,560 l0,-94 -38,94 38,0z" />
<path style="fill:#b2b2b2;stroke:#000;stroke-width:2" d="M801,560 l0,-94 -38,94 38,0z" />
<path style="fill:#e5e5e5;stroke:#000;stroke-width:2" d="M876,560 l-792,0 0,19 792,0 0,-19z" />
<path style="fill:#e5e5e5;stroke:#000;stroke-width:2" d="M876,617 l-792,0 0,19 792,0 0,-19z" />
<path style="fill:#f2f2f2;stroke:#000;stroke-width:2" d="M933,277 l19,0 0,-150 -679,0 0,-76 -19,0 0,-19 38,0 0,76 678,0 0,188 -37,0 0,-19z" />
<path style="fill:#b2b2b2;stroke:#000;stroke-width:2" d="M838,296 l-56,0 0,-28 -57,0 0,28 0,95 113,0 0,-95z" />
<path style="fill:#b2b2b2;stroke:#000;stroke-width:2" d="M838,485 l19,0 0,-189 -19,0 0,189z" />
<path style="fill:none;stroke:#fff;stroke-width:2" d="M857,485 l0,-189 -75,0 0,-28 -57,0" />
<path style="fill:#ccc" d="M804,394 l16,-41 -16,-41 -41,-16 -41,16 -16,41 16,41 41,16 41,-16z" />
<path style="fill:none;stroke:#fff;stroke-width:2" d="M803,393 l17,-40 -17,-40 -40,-17 -40,17" />
<path style="fill:none;stroke:#000;stroke-width:2" d="M722,312 l-16,41 16,40 41,16 40,-16" />
<path style="fill:none;stroke:#fff;stroke-width:2" d="M742,332 l-8,21 8,20 21,8 20,-8" />
<path style="fill:none;stroke:#000;stroke-width:2" d="M783,373 l9,-20 -9,-20 -20,-9 -20,9" />
<path style="fill:#b2b2b2;stroke:#000;stroke-width:2" d="M329,296 l-19,0 0,189 19,0 0,-189z" />
<path style="fill:#4c4c4c" d="M796,320 l-9,0 0,9 9,0 0,-9z" />
<path style="fill:#4c4c4c" d="M796,377 l-9,0 0,9 9,0 0,-9z" />
<path style="fill:#4c4c4c" d="M740,377 l-10,0 0,9 10,0 0,-9z" />
<path style="fill:#4c4c4c" d="M740,320 l-10,0 0,9 10,0 0,-9z" />
<path style="fill:#4c4c4c" d="M263,122 l-9,0 0,9 9,0 0,-9z" />
<path style="fill:#4c4c4c" d="M263,160 l-9,0 0,9 9,0 0,-9z" />
<path style="fill:#4c4c4c" d="M263,197 l-9,0 0,10 9,0 0,-10z" />
<path style="fill:#4c4c4c" d="M263,235 l-9,0 0,9 9,0 0,-9z" />
<path style="fill:#4c4c4c" d="M263,273 l-9,0 0,9 9,0 0,-9z" />
<path style="fill:#4c4c4c" d="M263,311 l-9,0 0,9 9,0 0,-9z" />
<path style="fill:#4c4c4c" d="M263,348 l-9,0 0,10 9,0 0,-10z" />
<path style="fill:#4c4c4c" d="M263,386 l-9,0 0,9 9,0 0,-9z" />
<path style="fill:#4c4c4c" d="M263,424 l-9,0 0,9 9,0 0,-9z" />
<path style="fill:#4c4c4c" d="M263,461 l-9,0 0,10 9,0 0,-10z" />
<path style="fill:#4c4c4c" d="M904,386 l-9,0 0,9 9,0 0,-9z" />
<path style="fill:#4c4c4c" d="M904,348 l-9,0 0,10 9,0 0,-10z" />
<path style="fill:#4c4c4c" d="M904,311 l-9,0 0,9 9,0 0,-9z" />
<path style="fill:#4c4c4c" d="M904,273 l-9,0 0,9 9,0 0,-9z" />
<path style="fill:#4c4c4c" d="M904,235 l-9,0 0,9 9,0 0,-9z" />
<path style="fill:#4c4c4c" d="M904,197 l-9,0 0,10 9,0 0,-10z" />

</svg>
