<?xml version="1.0" encoding="utf-8" standalone="no"?><!DOCTYPE svg PUBLIC "-//W3C//DTD SVG 1.1//EN" "http://www.w3.org/Graphics/SVG/1.1/DTD/svg11-flat-20030114.dtd"><svg width="882" height="999" version="1.1" xmlns="http://www.w3.org/2000/svg" xmlns:xlink="http://www.w3.org/1999/xlink">

<path style="fill:#ffff7f;stroke:#000;stroke-width:2" d="M216,571 l447,0 29,88 -509,0 33,-88z" />
<path style="fill:#bfbf00" d="M392,571 l90,0 7,88 -103,0 6,-88z" />
<path style="fill:#bfbf00" d="M854,722 l-168,0 0,238 168,0 0,-238z" />
<path style="fill:#bfbf00" d="M196,722 l-168,0 0,238 168,0 0,-238z" />
<path style="fill:#7f7f00" d="M854,921 l-168,0 0,39 168,0 0,-39z" />
<path style="fill:#7f7f00" d="M196,921 l-168,0 0,39 168,0 0,-39z" />
<path style="fill:#ffff7f" d="M854,722 l-168,0 0,64 168,0 0,-64z" />
<path style="fill:#ffff7f" d="M196,722 l-168,0 0,64 168,0 0,-64z" />
<path style="fill:none;stroke:#000;stroke-width:2" d="M854,722 l-168,0 0,238 168,0 0,-238" />
<path style="fill:#7f7f00;stroke:#000;stroke-width:2" d="M745,722 l-59,0 0,-20 59,0 0,20z" />
<path style="fill:#7f7f00;stroke:#000;stroke-width:2" d="M136,722 l60,0 0,-20 -60,0 0,20z" />
<path style="fill:#bfbf00;stroke:#000;stroke-width:2" d="M745,573 l-86,0 27,125 59,0 0,-125z" />
<path style="fill:#bfbf00;stroke:#000;stroke-width:2" d="M136,573 l86,0 -26,125 -60,0 0,-125z" />
<path style="fill:#bfbf00;stroke:#000;stroke-width:2" d="M196,702 l490,0 0,51 -490,0 0,-51z" />
<path style="fill:#ffff7f;stroke:#000;stroke-width:2" d="M196,698 l490,0 0,-39 -490,0 0,39z" />
<path style="fill:#bfbf00;stroke:#000;stroke-width:2" d="M245,571 l391,0 0,-60 -391,0 0,60z" />
<path style="fill:#217f21;stroke:#000;stroke-width:2" d="M253,159 l375,0 0,352 -375,0 0,-352z" />
<path style="fill:#217f21;stroke:#000;stroke-width:2" d="M286,159 l310,0 0,-131 -310,0 0,131z" />
<path style="fill:#217f21" d="M267,136 l-43,0 0,-86 43,0 0,86z" />
<path style="fill:#333" d="M267,109 l19,0 0,-32 -19,0 0,32z" />
<path style="fill:#fff" d="M267,72 l-43,0 0,-3 43,0 0,3z" />
<path style="fill:#43a143" d="M267,116 l-43,0 0,-2 43,0 0,2z" />
<path style="fill:#005e00" d="M267,136 l-43,0 0,-22 43,0 0,22z" />
<path style="fill:#e0e0e0;stroke:#000;stroke-width:2" d="M632,634 l35,0 0,25 -35,0 0,-25z" />
<path style="fill:#e0e0e0;stroke:#000;stroke-width:2" d="M602,144 l20,0 0,15 -20,0 0,-15z" />
<path style="fill:#e0e0e0;stroke:#000;stroke-width:2" d="M216,634 l35,0 0,25 -35,0 0,-25z" />
<path style="fill:#e0e0e0;stroke:#000;stroke-width:2" d="M261,144 l19,0 0,15 -19,0 0,-15z" />
<path style="fill:none;stroke:#000;stroke-width:2" d="M196,722 l-168,0 0,238 168,0 0,-238" />
<path style="fill:#7f7f00;stroke:#000;stroke-width:2" d="M196,753 l490,0 0,173 -76,32 -103,12 -92,-18 -72,-26 -102,0 -45,0 0,-173z" />
<path style="fill:#bfbf00" d="M196,753 l490,0 0,133 -76,33 -103,15 -92,-21 -72,-27 -102,-43 -45,0 0,-90z" />
<path style="fill:none;stroke:#000;stroke-width:2" d="M196,753 l490,0 0,173 -76,32 -103,12 -92,-18 -72,-26 -102,0 -45,0 0,-173" />
<path style="fill:#b2b2b2;stroke:#000;stroke-width:2" d="M634,753 l29,0 0,27 -29,0 0,-27z" />
<path style="fill:#b2b2b2;stroke:#000;stroke-width:2" d="M218,753 l29,0 0,27 -29,0 0,-27z" />
<path style="fill:none;stroke:#000;stroke-width:2" d="M630,175 l-379,0" />
<path style="fill:none;stroke:#000;stroke-width:2" d="M267,136 l-43,0 0,-86 43,0 0,86" />
<path style="fill:none;stroke:#000;stroke-width:2" d="M612,192 l0,301" />
<path style="fill:none;stroke:#000;stroke-width:2" d="M560,192 l0,301" />
<path style="fill:none;stroke:#000;stroke-width:2" d="M503,192 l0,301" />
<path style="fill:none;stroke:#000;stroke-width:2" d="M438,192 l0,301" />
<path style="fill:none;stroke:#000;stroke-width:2" d="M374,192 l0,301" />
<path style="fill:none;stroke:#000;stroke-width:2" d="M316,192 l0,301" />
<path style="fill:none;stroke:#fff;stroke-width:2" d="M606,192 l0,301" />
<path style="fill:none;stroke:#fff;stroke-width:2" d="M556,192 l0,301" />
<path style="fill:none;stroke:#fff;stroke-width:2" d="M499,192 l0,301" />
<path style="fill:none;stroke:#fff;stroke-width:2" d="M431,192 l0,301" />
<path style="fill:none;stroke:#fff;stroke-width:2" d="M370,192 l0,301" />
<path style="fill:none;stroke:#fff;stroke-width:2" d="M312,192 l0,301" />
<path style="fill:none;stroke:#000;stroke-width:2" d="M596,192 l0,301" />
<path style="fill:none;stroke:#000;stroke-width:2" d="M544,192 l0,301" />
<path style="fill:none;stroke:#000;stroke-width:2" d="M487,192 l0,301" />
<path style="fill:none;stroke:#000;stroke-width:2" d="M421,192 l0,301" />
<path style="fill:none;stroke:#000;stroke-width:2" d="M358,192 l0,301" />
<path style="fill:none;stroke:#000;stroke-width:2" d="M300,192 l0,301" />
<path style="fill:none;stroke:#fff;stroke-width:2" d="M589,192 l0,301" />
<path style="fill:none;stroke:#fff;stroke-width:2" d="M538,192 l0,301" />
<path style="fill:none;stroke:#fff;stroke-width:2" d="M481,192 l0,301" />
<path style="fill:none;stroke:#fff;stroke-width:2" d="M415,192 l0,301" />
<path style="fill:none;stroke:#fff;stroke-width:2" d="M353,192 l0,301" />
<path style="fill:none;stroke:#fff;stroke-width:2" d="M296,192 l0,301" />

</svg>
