<?xml version="1.0" encoding="utf-8" standalone="no"?><!DOCTYPE svg PUBLIC "-//W3C//DTD SVG 1.1//EN" "http://www.w3.org/Graphics/SVG/1.1/DTD/svg11-flat-20030114.dtd"><svg width="567" height="999" version="1.1" xmlns="http://www.w3.org/2000/svg" xmlns:xlink="http://www.w3.org/1999/xlink">

<path style="fill:#663" d="M309,970 l101,-26 102,0 27,-76 0,-203 -27,0 0,-305 27,0 0,-153 -129,0 0,24 -75,0 0,-203 -102,0 0,203 -154,0 -49,78 0,51 24,0 0,305 -24,-2 -2,219 26,51 38,37 217,0z" />
<path style="fill:#7f7f4c" d="M28,309 l428,0 -46,-78 -331,0 -51,78z" />
<path style="fill:#330" d="M531,531 l-30,0 0,89 30,0 0,-89z" />
<path style="fill:#663" d="M531,531 l-30,0 0,-64 30,0 0,64z" />
<path style="fill:none;stroke:#000;stroke-width:2" d="M531,467 l-30,0 0,153 30,0 0,-153" />
<path style="fill:#4c4c19" d="M512,360 l-458,0 0,305 458,0 0,-305z" />
<path style="fill:#330;stroke:#000;stroke-width:2" d="M512,665 l0,-305 -126,0 0,305 126,0z" />
<path style="fill:#6e6e3b" d="M382,665 l-326,0 0,268 36,37 217,0 73,-18 0,-287z" />
<path style="fill:#787845" d="M354,665 l-268,0 0,300 6,5 217,0 45,-13 0,-292z" />
<path style="fill:#7f7f4c" d="M324,665 l-209,0 0,305 194,0 15,-5 0,-300z" />
<path style="fill:#878754" d="M295,665 l-152,0 0,305 152,0 0,-305z" />
<path style="fill:#91915e" d="M267,665 l-96,0 0,305 96,0 0,-305z" />
<path style="fill:#996" d="M239,665 l-38,0 0,305 38,0 0,-305z" />
<path style="fill:#330;stroke:#000;stroke-width:2" d="M410,944 l0,-51 -37,0 0,59 37,-8z" />
<path style="fill:#330;stroke:#000;stroke-width:2" d="M340,965 l0,-72 -37,0 0,77 37,-5z" />
<path style="fill:#330;stroke:#000;stroke-width:2" d="M271,970 l0,-77 -38,0 0,77 38,0z" />
<path style="fill:#330;stroke:#000;stroke-width:2" d="M201,970 l0,-77 -37,0 0,77 37,0z" />
<path style="fill:#330;stroke:#000;stroke-width:2" d="M131,970 l0,-77 -39,0 0,77 39,0z" />
<path style="fill:#330;stroke:#000;stroke-width:2" d="M488,944 l0,-51 -40,0 0,51 40,0z" />
<path style="fill:#6e6e3b" d="M382,360 l-73,0 0,305 73,0 0,-305z" />
<path style="fill:#787845" d="M375,360 l-59,0 0,305 59,0 0,-305z" />
<path style="fill:#7f7f4c" d="M369,360 l-47,0 0,305 47,0 0,-305z" />
<path style="fill:#878754" d="M363,360 l-35,0 0,305 35,0 0,-305z" />
<path style="fill:#91915e" d="M356,360 l-21,0 0,305 21,0 0,-305z" />
<path style="fill:#996" d="M350,360 l-10,0 0,305 10,0 0,-305z" />
<path style="fill:none;stroke:#000;stroke-width:2" d="M309,970 l101,-26 102,0 27,-76 0,-203 -27,0 0,-305 27,0 0,-153 -129,0 0,24 -75,0 0,-203 -102,0 0,203 -154,0 -49,78 0,51 24,0 0,305 -24,-2 -2,219 26,51 38,37 217,0" />
<path style="fill:none;stroke:#000;stroke-width:2" d="M28,346 l511,0 0,14 -511,0 0,-14" />
<path style="fill:none;stroke:#663;stroke-width:2" d="M512,429 l-458,0" />
<path style="fill:none;stroke:#330;stroke-width:2" d="M512,442 l-458,0" />
<path style="fill:none;stroke:#663;stroke-width:2" d="M512,510 l-458,0" />
<path style="fill:none;stroke:#330;stroke-width:2" d="M512,524 l-458,0" />
<path style="fill:none;stroke:#663;stroke-width:2" d="M512,588 l-458,0" />
<path style="fill:none;stroke:#330;stroke-width:2" d="M512,601 l-458,0" />
<path style="fill:none;stroke:#663;stroke-width:2" d="M512,663 l-458,0" />
<path style="fill:none;stroke:#330;stroke-width:2" d="M539,676 l-511,0" />
<path style="fill:none;stroke:#000;stroke-width:2" d="M539,868 l-32,0 -6,14 -466,0 27,43 30,27" />
<path style="fill:none;stroke:#000;stroke-width:2" d="M226,970 l0,-292" />
<path style="fill:none;stroke:#000;stroke-width:2" d="M207,678 l0,292" />
<path style="fill:#996;stroke:#000;stroke-width:2" d="M410,231 l46,78 -32,0 -32,-78 18,0z" />
<path style="fill:#996;stroke:#000;stroke-width:2" d="M99,231 l-39,78 -32,0 51,-78 20,0z" />
<path style="fill:#996;stroke:#000;stroke-width:2" d="M150,231 l-24,78 -32,0 37,-78 19,0z" />
<path style="fill:#996;stroke:#000;stroke-width:2" d="M203,231 l-11,78 -32,0 22,-78 21,0z" />
<path style="fill:#996;stroke:#000;stroke-width:2" d="M254,231 l4,78 -32,0 9,-78 19,0z" />
<path style="fill:#996;stroke:#000;stroke-width:2" d="M307,231 l17,78 -33,0 -3,-78 19,0z" />
<path style="fill:#996;stroke:#000;stroke-width:2" d="M358,231 l32,78 -32,0 -19,-78 19,0z" />
<path style="fill:#996;stroke:#000;stroke-width:2" d="M335,28 l-45,0 0,343 45,0 0,-343z" />
<path style="fill:#996;stroke:#000;stroke-width:2" d="M277,28 l-44,0 0,343 44,0 0,-343z" />

</svg>
