<?xml version="1.0" encoding="utf-8" standalone="no"?><!DOCTYPE svg PUBLIC "-//W3C//DTD SVG 1.1//EN" "http://www.w3.org/Graphics/SVG/1.1/DTD/svg11-flat-20030114.dtd"><svg width="999" height="732" version="1.1" xmlns="http://www.w3.org/2000/svg" xmlns:xlink="http://www.w3.org/1999/xlink">

<path style="fill:#b2b2b2;stroke:#000;stroke-width:2" d="M805,549 l114,0 0,38 -7,0 0,81 7,0 0,36 -170,0 0,-36 125,0 0,-81 -58,0 0,43 -228,0 0,-54 190,0 22,-18 5,-9z" />
<path style="fill:#b2b2b2;stroke:#000;stroke-width:2" d="M440,668 l-361,0 0,36 361,0 0,-36z" />
<path style="fill:#b2b2b2;stroke:#000;stroke-width:2" d="M301,587 l-130,0 -76,81 309,0 -103,-81z" />
<path style="fill:#e0e0e0;stroke:#000;stroke-width:2" d="M245,668 l-22,0 0,-81 22,0 0,81z" />
<path style="fill:#e0e0e0;stroke:#000;stroke-width:2" d="M588,131 l0,445 190,0 22,-18 20,-47 12,-71 6,-88 -6,-85 -12,-71 -18,-47 -22,-18 -192,0z" />
<path style="fill:#e0e0e0;stroke:#000;stroke-width:2" d="M498,565 l0,-423 -103,62 0,303 36,27 40,22 27,9z" />
<path style="fill:#e0e0e0;stroke:#000;stroke-width:2" d="M352,124 l-176,0 -21,18 -11,49 -4,74 -3,90 3,89 4,74 11,49 21,20 176,0 0,-463z" />
<path style="fill:#e0e0e0;stroke:#000;stroke-width:2" d="M28,198 l36,0 0,315 -36,0 0,-315z" />
<path style="fill:#e0e0e0;stroke:#000;stroke-width:2" d="M328,57 l0,67 -139,0 0,-67 139,0z" />
<path style="fill:#e0e0e0;stroke:#000;stroke-width:2" d="M406,28 l0,29 -295,0 0,-29 295,0z" />
<path style="fill:#e0e0e0;stroke:#000;stroke-width:2" d="M903,321 l-25,0 0,-29 25,0 0,29z" />
<path style="fill:#e0e0e0;stroke:#000;stroke-width:2" d="M807,540 l13,-31 12,-69 6,-88 -2,-31 105,0 3,0 8,9 5,10 5,15 2,8 1,8 2,10 1,10 1,10 1,11 0,12 0,11 0,12 0,11 -1,11 -1,10 -1,10 -2,10 -1,9 -5,15 -4,12 -5,9 -6,5 -3,0 -134,0 0,-9z" />
<path style="fill:#e0e0e0;stroke:#000;stroke-width:2" d="M923,292 l-65,0 0,-105 65,0 0,105z" />
<path style="fill:#e0e0e0;stroke:#000;stroke-width:2" d="M588,79 l-90,0 0,551 90,0 0,-551z" />
<path style="fill:#e0e0e0;stroke:#000;stroke-width:2" d="M395,108 l-43,0 0,493 43,0 0,-493z" />
<path style="fill:#e0e0e0;stroke:#000;stroke-width:2" d="M117,263 l-9,6 -6,21 -7,29 0,36 0,35 7,30 6,20 9,6 23,0 -3,-2 0,-89 0,-90 0,-2 -20,0z" />
<path style="fill:#e0e0e0;stroke:#000;stroke-width:2" d="M104,283 l-2,7 -7,29 0,36 0,35 7,30 2,8 -40,0 0,-145 40,0z" />
<path style="fill:#f0f0f0;stroke:#000;stroke-width:2" d="M946,446 l-85,0 0,81 85,0 0,-81z" />
<path style="fill:#f0f0f0;stroke:#000;stroke-width:2" d="M603,115 l-13,0 0,-13 13,0 0,13z" />
<path style="fill:#f0f0f0;stroke:#000;stroke-width:2" d="M603,198 l-13,0 0,-14 13,0 0,14z" />
<path style="fill:#f0f0f0;stroke:#000;stroke-width:2" d="M603,281 l-13,0 0,-12 13,0 0,12z" />
<path style="fill:#f0f0f0;stroke:#000;stroke-width:2" d="M603,363 l-13,0 0,-11 13,0 0,11z" />
<path style="fill:#f0f0f0;stroke:#000;stroke-width:2" d="M603,446 l-13,0 0,-13 13,0 0,13z" />
<path style="fill:#f0f0f0;stroke:#000;stroke-width:2" d="M603,612 l-13,0 0,-13 13,0 0,13z" />
<path style="fill:#f0f0f0;stroke:#000;stroke-width:2" d="M603,529 l-13,0 0,-13 13,0 0,13z" />
<path style="fill:#000" d="M919,507 l7,-20 -7,-18 -18,-7 -20,7 -7,18 7,20 20,6 18,-6z" />
<path style="fill:#f0f0f0" d="M782,621 l-22,0 -11,-20 11,-18 22,0 9,18 -9,20z" />
<path style="fill:#f0f0f0" d="M729,621 l-23,0 -11,-20 11,-18 23,0 8,18 -8,20z" />
<path style="fill:#f2f2f2;stroke:#000;stroke-width:2" d="M352,520 l-105,0 0,-18 105,0 0,18z" />
<path style="fill:#f2f2f2;stroke:#000;stroke-width:2" d="M413,527 l-18,0 0,-16 18,0 0,16z" />
<path style="fill:#f2f2f2;stroke:#000;stroke-width:2" d="M352,346 l-105,0 0,-16 105,0 0,16z" />
<path style="fill:#f2f2f2;stroke:#000;stroke-width:2" d="M413,355 l-18,0 0,-18 18,0 0,18z" />
<path style="fill:#f2f2f2;stroke:#000;stroke-width:2" d="M352,184 l-105,0 0,-18 105,0 0,18z" />
<path style="fill:#f2f2f2;stroke:#000;stroke-width:2" d="M413,193 l-18,0 0,-17 18,0 0,17z" />
<path style="fill:#ccc;stroke:#000;stroke-width:2" d="M413,193 l-18,0 0,9 18,0 0,-9z" />
<path style="fill:#ccc;stroke:#000;stroke-width:2" d="M352,184 l-105,0 0,18 105,0 0,-18z" />
<path style="fill:#ccc;stroke:#000;stroke-width:2" d="M413,355 l-18,0 0,8 18,0 0,-8z" />
<path style="fill:#ccc;stroke:#000;stroke-width:2" d="M352,346 l-105,0 0,17 105,0 0,-17z" />
<path style="fill:#ccc;stroke:#000;stroke-width:2" d="M413,527 l-18,0 0,11 18,0 0,-11z" />
<path style="fill:#ccc;stroke:#000;stroke-width:2" d="M352,520 l-105,0 0,18 105,0 0,-18z" />
<path style="fill:#b2b2b2;stroke:#000;stroke-width:2" d="M603,115 l-13,0 0,9 13,0 0,-9z" />
<path style="fill:#b2b2b2;stroke:#000;stroke-width:2" d="M603,198 l-13,0 0,6 13,0 0,-6z" />
<path style="fill:#b2b2b2;stroke:#000;stroke-width:2" d="M603,281 l-13,0 0,6 13,0 0,-6z" />
<path style="fill:#b2b2b2;stroke:#000;stroke-width:2" d="M603,363 l-13,0 0,7 13,0 0,-7z" />
<path style="fill:#b2b2b2;stroke:#000;stroke-width:2" d="M603,446 l-13,0 0,7 13,0 0,-7z" />
<path style="fill:#b2b2b2;stroke:#000;stroke-width:2" d="M603,529 l-13,0 0,9 13,0 0,-9z" />
<path style="fill:#b2b2b2;stroke:#000;stroke-width:2" d="M603,612 l-13,0 0,7 13,0 0,-7z" />
<path style="fill:#b2b2b2;stroke:#000;stroke-width:2" d="M498,102 l-13,0 0,15 13,0 0,-15z" />
<path style="fill:#b2b2b2;stroke:#000;stroke-width:2" d="M498,184 l-13,0 0,16 13,0 0,-16z" />
<path style="fill:#b2b2b2;stroke:#000;stroke-width:2" d="M498,267 l-13,0 0,16 13,0 0,-16z" />
<path style="fill:#b2b2b2;stroke:#000;stroke-width:2" d="M498,350 l-13,0 0,16 13,0 0,-16z" />
<path style="fill:#b2b2b2;stroke:#000;stroke-width:2" d="M498,433 l-13,0 0,15 13,0 0,-15z" />
<path style="fill:#b2b2b2;stroke:#000;stroke-width:2" d="M498,516 l-13,0 0,15 13,0 0,-15z" />
<path style="fill:#b2b2b2;stroke:#000;stroke-width:2" d="M498,596 l-13,0 0,16 13,0 0,-16z" />
<path style="fill:#fff" d="M603,594 l-13,0 0,5 13,0 0,-5z" />
<path style="fill:#fff" d="M603,511 l-13,0 0,5 13,0 0,-5z" />
<path style="fill:#fff" d="M603,426 l-13,0 0,7 13,0 0,-7z" />
<path style="fill:#fff" d="M603,343 l-13,0 0,9 13,0 0,-9z" />
<path style="fill:#fff" d="M603,261 l-13,0 0,8 13,0 0,-8z" />
<path style="fill:#fff" d="M603,180 l-13,0 0,4 13,0 0,-4z" />
<path style="fill:#fff" d="M603,97 l-13,0 0,5 13,0 0,-5z" />
<path style="fill:#fff" d="M581,108 l-74,0 0,36 74,0 0,-36z" />
<path style="fill:#fff" d="M594,144 l199,0 14,38 -213,0 0,-38z" />
<path style="fill:#fff" d="M910,290 l-11,0 0,-97 11,0 0,97z" />
<path style="fill:#fff" d="M946,343 l-101,0 0,38 110,0 -9,-38z" />
<path style="fill:#fff" d="M390,131 l-33,0 0,31 33,0 0,-31z" />
<path style="fill:#fff" d="M167,131 l181,0 0,20 -190,0 9,-20z" />
<path style="fill:#fff" d="M386,32 l0,20 -49,0 0,-20 49,0z" />
<path style="fill:#fff" d="M312,61 l0,58 -22,0 0,-58 22,0z" />
<path style="fill:#fff" d="M135,281 l-29,0 -4,15 33,0 0,-15z" />
<path style="fill:#fff" d="M95,307 l-31,0 0,14 31,0 0,-14z" />
<path style="fill:#fff" d="M61,227 l-29,0 0,36 29,0 0,-36z" />
<path style="fill:#fff" d="M413,502 l-18,0 0,9 18,0 0,-9z" />
<path style="fill:#fff" d="M413,330 l-18,0 0,7 18,0 0,-7z" />
<path style="fill:#fff" d="M413,166 l-18,0 0,10 18,0 0,-10z" />
<path style="fill:none;stroke:#000;stroke-width:2" d="M543,79 l0,551" />
<path style="fill:none;stroke:#000;stroke-width:2" d="M816,587 l0,-38" />

</svg>
