<?xml version="1.0" encoding="utf-8" standalone="no"?><!DOCTYPE svg PUBLIC "-//W3C//DTD SVG 1.1//EN" "http://www.w3.org/Graphics/SVG/1.1/DTD/svg11-flat-20030114.dtd"><svg width="684" height="999" version="1.1" xmlns="http://www.w3.org/2000/svg" xmlns:xlink="http://www.w3.org/1999/xlink">

<path style="fill:#4c4c4c;stroke:#000;stroke-width:2" d="M597,715 l-353,0 0,196 353,0 0,-196z" />
<path style="fill:#666;stroke:#000;stroke-width:2" d="M283,857 l-34,113 -118,0 98,-142 54,29z" />
<path style="fill:#b2b2b2;stroke:#000;stroke-width:2" d="M111,955 l123,0 39,-103 10,5 -34,113 -138,0 0,-15z" />
<circle style="fill:#999" cx="342" cy="577" r="314" />
<circle style="fill:#b2b2b2" cx="342" cy="577" r="299" />
<circle style="fill:#ccc" cx="342" cy="577" r="265" />
<circle style="fill:#e5e5e5" cx="342" cy="577" r="231" />
<circle style="fill:none;stroke:#000;stroke-width:2" cx="342" cy="577" r="314" />
<circle style="fill:#7f7f7f;stroke:#000;stroke-width:2" cx="342" cy="577" r="196" />
<circle style="fill:#ccc" cx="342" cy="577" r="118" />
<circle style="fill:#4c4c4c;stroke:#000;stroke-width:2" cx="341" cy="577" r="78" />
<path style="fill:#bfbfbf;stroke:#000;stroke-width:2" d="M352,589 l5,-8 56,31 -5,9 -56,-32z" />
<path style="fill:#bfbfbf;stroke:#000;stroke-width:2" d="M347,563 l-10,0 0,-64 10,0 0,64z" />
<path style="fill:#bfbfbf;stroke:#000;stroke-width:2" d="M327,581 l5,8 -56,32 -5,-9 56,-31z" />
<circle style="fill:#ccc;stroke:#000;stroke-width:2" cx="341" cy="577" r="19" />
<path style="fill:#4c4c4c;stroke:#000;stroke-width:2" d="M289,736 l19,5 5,-19 -19,-5 -5,19z" />
<path style="fill:#4c4c4c;stroke:#000;stroke-width:2" d="M217,688 l14,14 14,-13 -14,-14 -14,13z" />
<path style="fill:#4c4c4c;stroke:#000;stroke-width:2" d="M178,611 l6,19 18,-5 -5,-19 -19,5z" />
<path style="fill:#4c4c4c;stroke:#000;stroke-width:2" d="M183,525 l-5,19 19,5 5,-19 -19,-5z" />
<path style="fill:#4c4c4c;stroke:#000;stroke-width:2" d="M231,453 l-14,13 14,14 14,-13 -14,-14z" />
<path style="fill:#4c4c4c;stroke:#000;stroke-width:2" d="M308,414 l-19,5 5,19 19,-5 -5,-19z" />
<path style="fill:#4c4c4c;stroke:#000;stroke-width:2" d="M394,419 l-18,-5 -5,19 18,5 5,-19z" />
<path style="fill:#4c4c4c;stroke:#000;stroke-width:2" d="M467,467 l-14,-14 -14,13 14,14 14,-13z" />
<path style="fill:#4c4c4c;stroke:#000;stroke-width:2" d="M506,544 l-6,-19 -18,5 5,19 19,-5z" />
<path style="fill:#4c4c4c;stroke:#000;stroke-width:2" d="M501,630 l5,-19 -19,-5 -5,19 19,5z" />
<path style="fill:#4c4c4c;stroke:#000;stroke-width:2" d="M453,702 l14,-13 -14,-14 -14,13 14,14z" />
<path style="fill:#4c4c4c;stroke:#000;stroke-width:2" d="M376,741 l18,-5 -5,-19 -18,5 5,19z" />
<circle style="fill:#666;stroke:#000;stroke-width:2" cx="455" cy="862" r="108" />
<circle style="fill:#4c4c4c;stroke:#000;stroke-width:2" cx="454" cy="862" r="78" />
<circle style="fill:#ccc;stroke:#000;stroke-width:2" cx="416" cy="824" r="20" />
<circle style="fill:#ccc;stroke:#000;stroke-width:2" cx="492" cy="824" r="20" />
<circle style="fill:#ccc;stroke:#000;stroke-width:2" cx="493" cy="900" r="21" />
<circle style="fill:#ccc;stroke:#000;stroke-width:2" cx="416" cy="900" r="20" />
<path style="fill:#999;stroke:#000;stroke-width:2" d="M499,28 l-314,0 0,59 314,0 0,-59z" />
<path style="fill:#999" d="M224,87 l0,59 -142,255 -15,59 315,-179 77,-135 0,-59 -235,0z" />
<path style="fill:#b2b2b2" d="M473,28 l-262,0 0,59 262,0 0,-59z" />
<path style="fill:#b2b2b2" d="M244,87 l0,59 -177,314 280,-147 93,-167 0,-59 -196,0z" />
<path style="fill:#ccc" d="M421,28 l-158,0 0,59 158,0 0,-59z" />
<path style="fill:#ccc" d="M283,87 l0,59 -177,314 176,-105 119,-209 0,-59 -118,0z" />
<path style="fill:#e5e5e5" d="M368,28 l-52,0 0,59 52,0 0,-59z" />
<path style="fill:#e5e5e5" d="M322,87 l0,59 -176,314 80,-71 135,-243 0,-59 -39,0z" />
<path style="fill:none;stroke:#000;stroke-width:2" d="M390,268 l69,-122 0,-59 -235,0 0,59 -143,257" />

</svg>
