<?xml version="1.0" encoding="utf-8" standalone="no"?><!DOCTYPE svg PUBLIC "-//W3C//DTD SVG 1.1//EN" "http://www.w3.org/Graphics/SVG/1.1/DTD/svg11-flat-20030114.dtd"><svg width="860" height="999" version="1.1" xmlns="http://www.w3.org/2000/svg" xmlns:xlink="http://www.w3.org/1999/xlink">

<path style="fill:#b2b2b2" d="M300,792 l-28,0 0,48 28,0 0,-48z" />
<path style="fill:#b2b2b2" d="M327,288 l-27,0 0,18 27,0 0,-18z" />
<path style="fill:#b2b2b2" d="M327,393 l-27,0 0,18 27,0 0,-18z" />
<path style="fill:#b2b2b2" d="M327,502 l-27,0 0,18 27,0 0,-18z" />
<path style="fill:#b2b2b2" d="M327,614 l-27,0 0,18 27,0 0,-18z" />
<path style="fill:#b2b2b2" d="M327,716 l-27,0 0,19 27,0 0,-19z" />
<path style="fill:#b2b2b2" d="M327,810 l-27,0 0,18 27,0 0,-18z" />
<path style="fill:#b2b2b2" d="M303,493 l528,0 0,79 -528,0 0,-79z" />
<path style="fill:#b2b2b2" d="M88,342 l-24,0 0,384 24,0 0,-384z" />
<path style="fill:#7f7f7f" d="M324,780 l9,0 0,36 -9,0 0,-36z" />
<path style="fill:#7f7f7f" d="M324,584 l9,0 0,36 -9,0 0,-36z" />
<path style="fill:#7f7f7f" d="M324,686 l9,0 0,37 -9,0 0,-37z" />
<path style="fill:#7f7f7f" d="M324,469 l9,0 0,39 -9,0 0,-39z" />
<path style="fill:#7f7f7f" d="M324,363 l9,0 0,36 -9,0 0,-36z" />
<path style="fill:#7f7f7f" d="M324,254 l9,0 0,40 -9,0 0,-40z" />
<path style="fill:#7f7f7f" d="M517,360 l0,-15 12,0 0,21 -3,0 0,15 -36,0 0,-21 27,0z" />
<path style="fill:#7f7f7f" d="M738,387 l9,0 0,18 -9,0 0,-18z" />
<path style="fill:#7f7f7f" d="M738,523 l9,0 0,21 -9,0 0,-21z" />
<path style="fill:#7f7f7f" d="M738,662 l9,0 0,18 -9,0 0,-18z" />
<path style="fill:#7f7f7f" d="M738,599 l9,0 0,18 -9,0 0,-18z" />
<path style="fill:#7f7f7f" d="M738,448 l9,0 0,18 -9,0 0,-18z" />
<path style="fill:#7f7f7f" d="M88,695 l-21,0 0,31 21,0 0,-31z" />
<path style="fill:#7f7f7f" d="M260,251 l12,0 0,562 -12,0 0,-562z" />
<path style="fill:#e5e5e5" d="M327,810 l-27,0 0,-30 27,0 0,30z" />
<path style="fill:#e5e5e5" d="M327,716 l-27,0 0,-30 27,0 0,30z" />
<path style="fill:#e5e5e5" d="M327,614 l-27,0 0,-30 27,0 0,30z" />
<path style="fill:#e5e5e5" d="M327,502 l-27,0 0,-30 27,0 0,30z" />
<path style="fill:#e5e5e5" d="M327,393 l-27,0 0,-30 27,0 0,30z" />
<path style="fill:#e5e5e5" d="M327,288 l-27,0 0,-31 27,0 0,31z" />
<path style="fill:#e5e5e5" d="M303,499 l522,0 0,60 -522,0 0,-60z" />
<path style="fill:#e5e5e5" d="M517,366 l0,-21 -21,0 0,21 21,0z" />
<path style="fill:#f0f0f0" d="M303,502 l522,0 0,12 -522,0 0,-12z" />
<path style="fill:#f0f0f0" d="M327,768 l-27,0 0,12 27,0 0,-12z" />
<path style="fill:#f0f0f0" d="M327,671 l-27,0 0,15 27,0 0,-15z" />
<path style="fill:#f0f0f0" d="M327,568 l-27,0 0,16 27,0 0,-16z" />
<path style="fill:#f0f0f0" d="M327,242 l-27,0 0,15 27,0 0,-15z" />
<path style="fill:#f0f0f0" d="M327,348 l-27,0 0,15 27,0 0,-15z" />
<path style="fill:#f0f0f0" d="M327,457 l-27,0 0,15 27,0 0,-15z" />
<path style="fill:#f0f0f0" d="M478,629 l18,0 9,-15 -9,-18 -18,0 -9,18 9,15z" />
<path style="fill:#f0f0f0" d="M88,351 l-21,0 0,24 21,0 0,-24z" />
<path style="fill:#f0f0f0" d="M484,366 l0,-21 12,0 0,21 -12,0z" />
<path style="fill:#43a143;stroke:#000;stroke-width:2" d="M242,67 l-136,0 0,106 9,-12 27,-19 34,-6 30,6 27,19 9,12 0,-106z" />
<path style="fill:#43a143;stroke:#000;stroke-width:2" d="M28,28 l0,39 293,0 0,-39 -293,0z" />
<path style="fill:#43a143;stroke:#000;stroke-width:2" d="M88,843 l0,-619 6,-36 21,-27 27,-19 34,-2 30,2 27,19 21,27 6,36 0,619 -6,37 -21,27 -27,15 -30,6 -34,-6 -27,-15 -21,-27 -6,-37z" />
<path style="fill:#43a143;stroke:#000;stroke-width:2" d="M300,227 l-28,0 0,613 28,0 0,-613z" />
<path style="fill:#43a143;stroke:#000;stroke-width:2" d="M723,375 l15,0 0,317 -15,0 0,-317z" />
<path style="fill:#43a143;stroke:#000;stroke-width:2" d="M723,381 l-31,0 0,302 31,0 0,-302z" />
<path style="fill:#43a143;stroke:#000;stroke-width:2" d="M665,339 l27,0 0,390 -27,0 0,-390z" />
<path style="fill:#43a143;stroke:#000;stroke-width:2" d="M457,375 l208,0 0,317 -208,0 0,-317z" />
<path style="fill:#43a143;stroke:#000;stroke-width:2" d="M430,339 l27,0 0,390 -27,0 0,-390z" />
<path style="fill:#82e082" d="M723,381 l15,0 0,6 -15,0 0,-6z" />
<path style="fill:#82e082" d="M723,387 l-31,0 0,12 31,0 0,-12z" />
<path style="fill:#82e082" d="M665,342 l27,0 0,18 -27,0 0,-18z" />
<path style="fill:#82e082" d="M460,490 l202,0 0,-9 -202,0 0,9z" />
<path style="fill:#82e082" d="M460,393 l202,0 0,6 -202,0 0,-6z" />
<path style="fill:#82e082" d="M430,357 l27,0 0,18 -27,0 0,-18z" />
<path style="fill:#82e082" d="M300,242 l-28,0 0,40 28,0 0,-40z" />
<path style="fill:#82e082" d="M115,173 l19,-18 -9,42 0,667 0,3 -4,4 -3,2 -3,4 -6,-4 -3,0 0,-6 -3,-3 0,-667 3,-12 9,-12z" />
<path style="fill:#82e082" d="M125,67 l-16,0 0,100 6,-6 10,-6 0,-88z" />
<path style="fill:#82e082" d="M34,31 l0,33 15,0 0,-33 -15,0z" />
<path style="fill:#217f21" d="M723,665 l15,0 0,27 -15,0 0,-27z" />
<path style="fill:#217f21" d="M720,665 l-28,0 0,18 28,0 0,-18z" />
<path style="fill:#217f21" d="M665,704 l27,0 0,25 -27,0 0,-25z" />
<path style="fill:#217f21" d="M297,28 l0,39 24,0 0,-39 -24,0z" />
<path style="fill:#217f21" d="M242,67 l-21,0 0,85 12,9 9,12 0,-106z" />
<path style="fill:#217f21" d="M430,342 l-16,0 0,384 16,0 0,-384z" />
<path style="fill:#217f21" d="M300,284 l72,0 0,79 0,2 1,3 2,3 1,2 2,2 3,1 3,2 3,0 27,0 0,-124 0,-3 -2,-3 -2,-3 -3,-3 -3,-2 -4,-2 -3,-2 -4,0 -93,0 0,48z" />
<path style="fill:#217f21" d="M300,460 l72,0 0,9 0,1 1,0 2,1 1,0 2,1 3,0 3,0 3,0 27,0 0,-30 0,0 -2,-1 -2,0 -3,-1 -3,0 -4,-1 -3,0 -4,0 -93,0 0,21z" />
<path style="fill:#217f21" d="M300,611 l72,0 0,-9 0,0 1,-1 2,0 1,-1 2,0 3,-1 3,0 3,0 27,0 0,30 0,1 -2,1 -2,1 -3,1 -3,1 -4,0 -3,1 -4,0 -93,0 0,-24z" />
<path style="fill:#217f21" d="M300,783 l72,0 0,-76 0,-3 1,-3 2,-3 1,-3 2,-2 3,-2 3,-1 3,-1 27,0 0,124 0,4 -2,3 -2,3 -3,3 -3,2 -4,2 -3,1 -4,0 -93,0 0,-48z" />
<path style="fill:#217f21" d="M460,375 l202,0 0,3 -202,0 0,-3z" />
<path style="fill:#005e00" d="M568,949 l0,21 94,0 0,-296 0,-45 -139,0 -18,-45 -45,0 0,108 181,0 0,257 -73,0z" />
<path style="fill:#005e00" d="M185,695 l-21,0 0,254 -58,0 0,21 58,0 21,0 139,0 0,-21 -139,0 0,-254z" />

</svg>
