<?xml version="1.0" encoding="utf-8" standalone="no"?><!DOCTYPE svg PUBLIC "-//W3C//DTD SVG 1.1//EN" "http://www.w3.org/Graphics/SVG/1.1/DTD/svg11-flat-20030114.dtd"><svg width="999" height="377" version="1.1" xmlns="http://www.w3.org/2000/svg" xmlns:xlink="http://www.w3.org/1999/xlink">

<path style="fill:#7f7f7f;stroke:#000;stroke-width:2" d="M942,90 l-454,0 0,245 454,0 0,-245z" />
<path style="fill:#7f7f7f" d="M942,301 l-454,0 0,34 454,0 0,-34z" />
<path style="fill:#5e5e5e" d="M942,307 l-14,0 -15,0 -14,0 -397,0 -14,0 0,2 0,25 0,1 14,0 426,0 14,0 0,-1 0,-27z" />
<path style="fill:#404040" d="M942,314 l-14,0 -15,0 -14,0 -397,0 -14,0 0,3 0,16 0,2 14,0 426,0 14,0 -1,-2 1,-19z" />
<path style="fill:#1f1f1f" d="M942,320 l-14,0 -15,0 -14,0 -397,0 -14,0 0,2 0,11 0,2 14,0 426,0 14,0 -1,-2 1,-13z" />
<path style="fill:#000" d="M942,326 l-454,0 0,9 454,0 0,-9z" />
<path style="fill:#7f7f7f" d="M942,96 l-454,0 0,92 454,0 0,-92z" />
<path style="fill:#8c8c8c" d="M942,107 l-14,0 -15,0 -14,0 -397,0 -14,0 0,5 0,63 0,4 14,0 426,0 14,0 0,-4 -1,-30 0,-28 1,-10z" />
<path style="fill:#999" d="M942,118 l-14,0 -15,0 -14,0 -397,0 -14,0 0,4 0,46 0,3 14,0 426,0 14,0 0,-3 -1,-29 1,-21z" />
<path style="fill:#a6a6a6" d="M942,132 l-14,0 -15,0 -14,0 -397,0 -14,0 0,2 0,26 0,2 14,0 426,0 14,0 0,-2 0,-28z" />
<path style="fill:#b2b2b2" d="M942,143 l-454,0 0,11 454,0 0,-11z" />
<path style="fill:#7f7f7f;stroke:#000;stroke-width:2" d="M33,188 l455,0 0,51 -455,0 0,-51z" />
<path style="fill:#7f7f7f;stroke:#000;stroke-width:2" d="M435,171 l23,0 0,83 -23,0 0,-83z" />
<path style="fill:#7f7f7f;stroke:#000;stroke-width:2" d="M435,171 l23,0 0,83 -23,0 0,-83z" />
<path style="fill:#999" d="M435,175 l1,0 2,0 1,0 17,0 2,0 0,4 0,58 0,4 -2,0 -20,0 -1,0 0,-4 0,-62z" />
<path style="fill:#b2b2b2" d="M435,179 l1,0 2,0 1,0 17,0 2,0 0,3 0,41 0,3 -2,0 -20,0 -1,0 0,-3 0,-44z" />
<path style="fill:#ccc" d="M435,182 l1,0 2,0 1,0 17,0 2,0 0,2 0,25 0,2 -2,0 -20,0 -1,0 0,-2 0,-27z" />
<path style="fill:#e5e5e5" d="M435,186 l23,0 0,10 -23,0 0,-10z" />
<path style="fill:#7f7f7f;stroke:#000;stroke-width:2" d="M284,171 l60,0 0,83 -60,0 0,-83z" />
<path style="fill:#ccc;stroke:#000;stroke-width:2" d="M435,130 l-91,0 -9,-12 91,0 9,12z" />
<path style="fill:#7f7f7f;stroke:#000;stroke-width:2" d="M473,111 l15,0 0,205 -15,0 0,-205z" />
<path style="fill:#7f7f7f;stroke:#000;stroke-width:2" d="M955,111 l-13,0 0,205 13,0 0,-205z" />
<path style="fill:#b2b2b2" d="M955,124 l-13,0 0,13 13,0 0,-13z" />
<path style="fill:#7f7f7f;stroke:#000;stroke-width:2" d="M473,156 l-15,0 0,115 15,0 0,-115z" />
<path style="fill:#7f7f7f;stroke:#000;stroke-width:2" d="M955,156 l15,0 0,115 -15,0 0,-115z" />
<path style="fill:#b2b2b2" d="M955,162 l15,0 0,9 -15,0 0,-9z" />
<ellipse style="fill:#000" cx="840" cy="271" rx="4" ry="55" />
<path style="fill:#ccc" d="M846,207 l60,0 2,0 2,0 4,2 3,4 -1,-2 -2,0 -2,0 -60,0 -6,-4z" />
<path style="fill:#7f7f7f;stroke:#000;stroke-width:2" d="M912,327 l-60,0 -10,-3 -2,-6 0,-98 5,-8 7,-1 60,0 9,4 2,5 0,98 -5,8 -6,1z" />
<path style="fill:#7f7f7f;stroke:#000;stroke-width:2" d="M284,171 l60,0 0,83 -60,0 0,-83z" />
<path style="fill:#999" d="M284,175 l4,0 4,0 4,0 45,0 3,0 0,4 0,58 0,4 -3,0 -53,0 -4,0 0,-4 0,-62z" />
<path style="fill:#b2b2b2" d="M284,180 l4,0 4,0 4,0 45,0 3,0 0,3 0,40 0,3 -3,0 -53,0 -4,0 0,-3 0,-43z" />
<path style="fill:#ccc" d="M284,184 l4,0 4,0 4,0 45,0 3,0 0,2 0,25 0,2 -3,0 -53,0 -4,0 0,-2 0,-27z" />
<path style="fill:#e5e5e5" d="M284,188 l60,0 0,9 -60,0 0,-9z" />
<path style="fill:#7f7f7f;stroke:#000;stroke-width:2" d="M133,188 l149,0 0,51 -149,0 0,-51z" />
<path style="fill:#999" d="M133,192 l5,0 5,0 4,0 131,0 4,0 0,2 0,35 0,2 -4,0 -140,0 -5,0 0,-2 0,-37z" />
<path style="fill:#b2b2b2" d="M133,196 l5,0 5,0 4,0 131,0 4,0 0,1 0,25 0,2 -4,0 -140,0 -5,0 0,-2 0,-26z" />
<path style="fill:#ccc" d="M133,199 l5,0 5,0 4,0 131,0 4,0 0,2 0,13 0,2 -4,0 -140,0 -5,0 0,-2 0,-15z" />
<path style="fill:#e5e5e5" d="M133,203 l149,0 0,6 -149,0 0,-6z" />
<path style="fill:#000;stroke:#000;stroke-width:2" d="M723,337 l-194,0 10,7 194,0 -10,-7z" />
<path style="fill:#000;stroke:#000;stroke-width:2" d="M723,341 l-194,0 10,7 194,0 -10,-7z" />
<path style="fill:#7f7f7f;stroke:#000;stroke-width:2" d="M917,96 l-224,0 0,-68 224,0 1,1 1,3 1,3 0,4 1,5 0,5 0,5 1,6 0,5 0,6 0,5 -1,5 0,5 -1,4 -1,3 -2,3z" />
<path style="fill:#7f7f7f" d="M919,90 l-226,0 0,-56 226,0 0,56z" />
<path style="fill:#919191" d="M921,86 l-7,0 -8,0 -7,0 -199,0 -7,0 0,-3 0,-43 0,-3 7,0 214,0 7,0 0,3 0,46z" />
<path style="fill:#a1a1a1" d="M921,81 l-7,0 -8,0 -7,0 -199,0 -7,0 0,-3 0,-36 0,-3 7,0 214,0 7,0 0,3 0,39z" />
<path style="fill:#b2b2b2" d="M921,77 l-7,0 -8,0 -7,0 -199,0 -7,0 0,-2 0,-30 0,-2 7,0 214,0 7,0 0,2 0,32z" />
<path style="fill:#c4c4c4" d="M921,71 l-7,0 -8,0 -7,0 -199,0 -7,0 0,-1 0,-23 0,-2 7,0 214,0 7,0 0,2 0,24z" />
<path style="fill:#d4d4d4" d="M921,69 l-7,0 -7,0 -7,0 -200,0 -7,0 0,-1 0,-20 0,-1 7,0 214,0 7,0 0,1 0,21z" />
<path style="fill:#e5e5e5" d="M923,65 l-230,0 0,-15 230,0 0,15z" />
<ellipse style="fill:#7f7f7f;stroke:#000;stroke-width:2" cx="339" cy="157" rx="4" ry="39" />
<path style="fill:#b2b2b2;stroke:#000;stroke-width:2" d="M435,130 l-91,0 0,124 91,0 0,-124z" />
<ellipse style="fill:#000;stroke:#000;stroke-width:2" cx="387" cy="124" rx="24" ry="4" />
<ellipse style="fill:#b2b2b2" cx="846" cy="210" rx="6" ry="3" />
<circle style="fill:#7f7f7f" cx="840" cy="214" r="4" />
<ellipse style="fill:#7f7f7f;stroke:#000;stroke-width:2" cx="691" cy="62" rx="4" ry="34" />
<path style="fill:#7f7f7f;stroke:#000;stroke-width:2" d="M33,175 l100,0 0,75 -100,0 0,-75z" />
<path style="fill:#7f7f7f;stroke:#000;stroke-width:2" d="M33,171 l100,0 1,5 1,6 1,5 0,5 1,5 0,6 0,5 1,5 -1,5 0,6 0,5 -1,5 0,5 -1,5 -1,5 -1,5 -100,0 0,-83z" />
<path style="fill:#999" d="M33,177 l3,0 3,0 3,0 91,0 2,12 1,13 0,4 0,4 0,13 -1,12 -1,4 -1,4 -3,0 -94,0 -3,0 0,-5 0,-61z" />
<path style="fill:#b2b2b2" d="M33,184 l3,0 3,0 3,0 91,0 2,12 0,2 1,3 0,3 -1,11 -1,12 -1,2 -3,0 -94,0 -3,0 0,-2 0,-43z" />
<path style="fill:#ccc" d="M33,190 l3,0 3,0 3,0 91,0 2,9 0,1 0,2 -1,10 0,3 -1,1 -3,0 -94,0 -3,0 0,-1 0,-25z" />
<path style="fill:#e5e5e5" d="M33,196 l100,0 0,9 -100,0 0,-9z" />
<ellipse style="fill:#7f7f7f;stroke:#000;stroke-width:2" cx="30" cy="212" rx="2" ry="41" />
<path style="fill:none;stroke:#000;stroke-width:2" d="M917,96 l-224,0 0,-68 224,0 1,1 1,3 1,3 0,4 1,5 1,5 0,5 0,6 1,5 0,6 -1,5 0,5 -1,5 -1,4 -1,3 -2,3" />

</svg>
