<?xml version="1.0" encoding="utf-8" standalone="no"?><!DOCTYPE svg PUBLIC "-//W3C//DTD SVG 1.1//EN" "http://www.w3.org/Graphics/SVG/1.1/DTD/svg11-flat-20030114.dtd"><svg width="999" height="950" version="1.1" xmlns="http://www.w3.org/2000/svg" xmlns:xlink="http://www.w3.org/1999/xlink">

<path style="fill:#000" d="M920,641 l-79,0 0,45 79,0 0,-45z" />
<path style="fill:#f0f0f0;stroke:#000;stroke-width:2" d="M859,538 l-605,0 -16,-16 605,0 16,16z" />
<path style="fill:#ccc;stroke:#000;stroke-width:2" d="M173,819 l107,-46 -24,98 -77,-24 -6,-28z" />
<path style="fill:#f60;stroke:#000;stroke-width:2" d="M357,476 l6,14 12,6 292,0 13,-6 4,-14 0,-382 -162,-10 -165,10 0,382z" />
<path style="fill:#e07a14;stroke:#000;stroke-width:2" d="M696,94 l-32,-2 0,384 7,8 19,-14 6,-10 0,-366z" />
<path style="fill:#e07a14;stroke:#000;stroke-width:2" d="M662,92 l-29,-2 0,392 6,2 17,-8 6,-18 0,-366z" />
<path style="fill:#f93;stroke:#000;stroke-width:2" d="M627,90 l-22,-2 0,394 4,2 18,-24 0,-370z" />
<path style="fill:#f93;stroke:#000;stroke-width:2" d="M595,88 l-22,-2 0,396 4,2 18,-26 0,-370z" />
<path style="fill:#f93;stroke:#000;stroke-width:2" d="M560,86 l-15,-2 0,396 4,4 11,-26 0,-372z" />
<path style="fill:#bf1400;stroke:#000;stroke-width:2" d="M514,84 l8,0 6,0 0,376 -14,26 0,-6 0,-396z" />
<path style="fill:#bf1400;stroke:#000;stroke-width:2" d="M498,86 l-18,0 0,396 2,2 16,-26 0,-372z" />
<path style="fill:#bf1400;stroke:#000;stroke-width:2" d="M470,86 l-23,2 0,392 2,2 21,-24 0,-372z" />
<path style="fill:#bf1400;stroke:#000;stroke-width:2" d="M436,88 l-25,2 0,390 6,4 19,-26 0,-370z" />
<path style="fill:#bf1400;stroke:#000;stroke-width:2" d="M407,90 l-28,2 0,388 6,4 22,-26 0,-368z" />
<path style="fill:#000;stroke:#000;stroke-width:2" d="M417,28 l218,0 45,6 18,14 0,46 -343,0 0,-46 18,-14 44,-6z" />
<path style="fill:#f60;stroke:#000;stroke-width:2" d="M333,514 l379,0 0,20 -379,0 0,-20z" />
<path style="fill:#f60;stroke:#000;stroke-width:2" d="M359,514 l327,0 -15,-18 -296,0 -16,18z" />
<path style="fill:#f0f0f0;stroke:#000;stroke-width:2" d="M342,504 l11,0 0,10 -11,0 0,-10z" />
<path style="fill:#f0f0f0;stroke:#000;stroke-width:2" d="M704,504 l-12,0 0,10 12,0 0,-10z" />
<path style="fill:#f0f0f0;stroke:#000;stroke-width:2" d="M613,504 l-12,0 0,10 12,0 0,-10z" />
<path style="fill:#f0f0f0;stroke:#000;stroke-width:2" d="M514,504 l-12,0 0,10 12,0 0,-10z" />
<path style="fill:#f0f0f0;stroke:#000;stroke-width:2" d="M425,504 l-12,0 0,10 12,0 0,-10z" />
<path style="fill:#f0f0f0;stroke:#000;stroke-width:2" d="M924,845 l-725,0 0,77 725,0 0,-77z" />
<path style="fill:#ccc;stroke:#000;stroke-width:2" d="M173,819 l26,26 0,77 -26,-25 0,-78z" />
<path style="fill:#e5e5e5;stroke:#000;stroke-width:2" d="M916,845 l-717,0 53,-59 619,0 45,59z" />
<path style="fill:#b2b2b2" d="M861,538 l-609,0 0,248 636,0 0,-130 -2,-35 -4,-38 -8,-30 -7,-10 -6,-5z" />
<path style="fill:#f60" d="M112,575 l89,0 0,175 -89,0 0,-175z" />
<path style="fill:#bf1400" d="M112,740 l89,0 0,10 -89,0 0,-10z" />
<path style="fill:#f93" d="M112,585 l89,0 0,8 -89,0 0,-8z" />
<path style="fill:#f60;stroke:#000;stroke-width:2" d="M135,575 l18,2 18,-2 0,-89 -36,0 0,89z" />
<path style="fill:#f00;stroke:#000;stroke-width:2" d="M112,558 l-24,0 0,209 24,0 0,-209z" />
<path style="fill:#f60;stroke:#000;stroke-width:2" d="M28,577 l60,0 0,50 -60,0 0,-50z" />
<path style="fill:#f0f0f0" d="M193,484 l59,0 0,321 -59,0 0,-321z" />
<path style="fill:#fff" d="M193,494 l59,0 0,12 -59,0 0,-12z" />
<path style="fill:#b2b2b2" d="M880,797 l-645,6 17,-17 619,0 9,11z" />
<path style="fill:#ccc" d="M193,778 l59,0 0,27 -59,0 0,-27z" />
<path style="fill:#e0e0e0" d="M254,579 l617,-23 7,25 -624,28 0,-30z" />
<path style="fill:#7f7f7f" d="M252,700 l636,-27 0,113 -636,0 0,-86z" />
<path style="fill:none;stroke:#000;stroke-width:2" d="M861,538 l-609,0 0,248 636,0 0,-130 -2,-35 -4,-38 -8,-30 -7,-10 -6,-5" />
<path style="fill:none;stroke:#000;stroke-width:2" d="M815,786 l0,-130 -2,-35 -4,-38 -8,-30 -6,-10 -7,-5" />
<path style="fill:none;stroke:#000;stroke-width:2" d="M756,786 l0,-130 -2,-35 -4,-38 -8,-30 -6,-10 -6,-5" />
<path style="fill:none;stroke:#000;stroke-width:2" d="M698,786 l0,-130 -2,-35 -4,-38 -8,-30 -7,-10 -6,-5" />
<path style="fill:none;stroke:#000;stroke-width:2" d="M639,786 l0,-130 0,-35 -6,-38 -8,-30 -4,-10 -8,-5" />
<path style="fill:none;stroke:#000;stroke-width:2" d="M583,786 l0,-130 -2,-35 -4,-38 -8,-30 -7,-10 -7,-5" />
<path style="fill:none;stroke:#000;stroke-width:2" d="M524,786 l0,-130 -2,-35 -4,-38 -8,-30 -6,-10 -6,-5" />
<path style="fill:none;stroke:#000;stroke-width:2" d="M466,786 l0,-130 -2,-35 -4,-38 -9,-30 -6,-10 -5,-5" />
<path style="fill:none;stroke:#000;stroke-width:2" d="M407,786 l0,-130 0,-35 -6,-38 -8,-30 -6,-10 -6,-5" />
<path style="fill:none;stroke:#000;stroke-width:2" d="M349,786 l0,-130 0,-35 -7,-38 -8,-30 -3,-10 -8,-5" />
<path style="fill:none;stroke:#000;stroke-width:2" d="M193,484 l59,0 0,321 -59,0 0,-321" />
<path style="fill:#000;stroke:#000;stroke-width:2" d="M942,583 l-22,0 -16,6 -7,16 7,55 -7,54 7,16 16,6 22,0 16,-6 6,-16 6,-56 -6,-53 -6,-16 -16,-6z" />
<path style="fill:#7f7f7f;stroke:#000;stroke-width:2" d="M882,843 l-53,0 0,-18 53,0 0,18z" />
<path style="fill:#7f7f7f;stroke:#000;stroke-width:2" d="M304,843 l-50,0 0,-18 50,0 0,18z" />

</svg>
