<?xml version="1.0" encoding="utf-8" standalone="no"?><!DOCTYPE svg PUBLIC "-//W3C//DTD SVG 1.1//EN" "http://www.w3.org/Graphics/SVG/1.1/DTD/svg11-flat-20030114.dtd"><svg width="999" height="840" version="1.1" xmlns="http://www.w3.org/2000/svg" xmlns:xlink="http://www.w3.org/1999/xlink">

<path style="fill:#e5e5e5" d="M778,237 l66,0 0,-17 27,0 0,-9 41,0 0,41 58,0 0,51 -58,0 0,42 -41,0 0,-8 -27,0 0,-17 -66,0 0,-83z" />
<path style="fill:#ebebeb" d="M778,245 l68,0 0,-14 25,0 0,-5 41,0 0,32 58,0 0,39 -58,0 0,32 -41,0 0,-5 -25,0 0,-13 -68,0 0,-66z" />
<path style="fill:#f2f2f2" d="M778,254 l68,0 0,-9 25,0 0,-4 41,0 0,22 58,0 0,29 -58,0 0,24 -41,0 0,-5 -25,0 0,-10 -68,0 0,-47z" />
<path style="fill:#f7f7f7" d="M778,263 l68,0 0,-5 25,0 0,-4 41,0 0,15 58,0 0,17 -58,0 0,15 -41,0 0,-4 -25,0 0,-5 -68,0 0,-29z" />
<path style="fill:#fff" d="M778,273 l66,0 0,-2 27,0 0,-2 41,0 0,6 58,0 0,5 -58,0 0,6 -41,0 -27,0 0,-2 -66,0 0,-11z" />
<path style="fill:none;stroke:#7f7f7f;stroke-width:2" d="M778,237 l66,0 0,-17 27,0 0,-9 41,0 0,41 58,0 0,51 -58,0 0,42 -41,0 0,-8 -27,0 0,-17 -66,0 0,-83" />
<path style="fill:none;stroke:#7f7f7f;stroke-width:2" d="M844,320 l0,-83" />
<path style="fill:none;stroke:#7f7f7f;stroke-width:2" d="M871,220 l0,117" />
<path style="fill:none;stroke:#7f7f7f;stroke-width:2" d="M912,303 l0,-51" />
<path style="fill:none;stroke:#7f7f7f;stroke-width:2" d="M895,345 l0,-134" />
<path style="fill:#e5e5e5" d="M695,220 l0,-68 -17,0 0,-24 -7,0 0,-42 41,0 0,-58 49,0 0,58 42,0 0,42 -8,0 0,24 -17,0 0,68 -83,0z" />
<path style="fill:#ebebeb" d="M704,220 l0,-68 -13,0 0,-24 -7,0 0,-42 34,0 0,-58 37,0 0,58 35,0 0,42 -8,0 0,24 -13,0 0,68 -65,0z" />
<path style="fill:#f2f2f2" d="M714,220 l0,-68 -10,0 0,-24 -5,0 0,-42 23,0 0,-58 28,0 0,58 24,0 0,42 -5,0 0,24 -10,0 0,68 -45,0z" />
<path style="fill:#f7f7f7" d="M722,220 l0,-68 -6,0 0,-24 -2,0 0,-42 13,0 0,-58 19,0 0,58 13,0 0,42 -2,0 0,24 -7,0 0,68 -28,0z" />
<ellipse style="fill:#fff" cx="736" cy="124" rx="7" ry="96" />
<path style="fill:none;stroke:#7f7f7f;stroke-width:2" d="M695,220 l0,-68 -17,0 0,-24 -7,0 0,-42 41,0 0,-58 49,0 0,58 42,0 0,42 -8,0 0,24 -17,0 0,68 -83,0" />
<path style="fill:none;stroke:#7f7f7f;stroke-width:2" d="M778,152 l-83,0" />
<path style="fill:none;stroke:#7f7f7f;stroke-width:2" d="M678,128 l117,0" />
<path style="fill:none;stroke:#7f7f7f;stroke-width:2" d="M761,86 l-49,0" />
<path style="fill:none;stroke:#7f7f7f;stroke-width:2" d="M803,103 l-132,0" />
<path style="fill:#7f7f7f" d="M795,28 l-34,0 0,41 34,0 0,-41z" />
<path style="fill:#999" d="M795,30 l-34,0 0,37 34,0 0,-37z" />
<path style="fill:#b2b2b2" d="M795,35 l-34,0 0,28 34,0 0,-28z" />
<path style="fill:#ccc" d="M795,39 l-34,0 0,19 34,0 0,-19z" />
<path style="fill:#e5e5e5" d="M795,43 l-34,0 0,11 34,0 0,-11z" />
<path style="fill:#fff" d="M795,47 l-34,0 0,3 34,0 0,-3z" />
<path style="fill:none;stroke:#000;stroke-width:2" d="M795,28 l-34,0 0,41 34,0 0,-41" />
<path style="fill:#000;stroke:#000;stroke-width:2" d="M678,227 l-643,0 0,585 643,0 0,-585z" />
<path style="fill:#e5e5e5" d="M629,211 l-601,0 0,584 601,0 0,-584z" />
<path style="fill:#e5e5e5" d="M729,337 l0,415 -4,13 -7,11 -10,10 -11,5 -11,4 -49,0 0,-575 166,0 0,66 0,11 -2,12 -6,9 -9,9 -12,6 -11,4 -34,0z" />
<path style="fill:#e5e5e5" d="M803,220 l-166,0 0,25 166,0 0,-25z" />
<path style="fill:#d9d9d9" d="M803,220 l-166,0 0,25 166,0 0,-25z" />
<path style="fill:#ccc" d="M803,220 l-166,0 0,17 166,0 0,-17z" />
<path style="fill:#bfbfbf" d="M803,220 l-166,0 0,13 166,0 0,-13z" />
<path style="fill:#b2b2b2" d="M803,220 l-166,0 0,9 166,0 0,-9z" />
<path style="fill:#a6a6a6" d="M803,220 l-166,0 0,6 166,0 0,-6z" />
<path style="fill:#999" d="M803,220 l-166,0 0,2 166,0 0,-2z" />
<path style="fill:#e5e5e5" d="M629,211 l-599,0 0,34 599,0 0,-34z" />
<path style="fill:#d9d9d9" d="M627,211 l-599,0 0,34 599,0 0,-34z" />
<path style="fill:#ccc" d="M627,211 l-599,0 0,24 599,0 0,-24z" />
<path style="fill:#bfbfbf" d="M627,211 l-599,0 0,18 599,0 0,-18z" />
<path style="fill:#b2b2b2" d="M627,211 l-599,0 0,15 599,0 0,-15z" />
<path style="fill:#a6a6a6" d="M627,211 l-599,0 0,9 599,0 0,-9z" />
<path style="fill:#999" d="M629,211 l-599,0 0,3 599,0 0,-3z" />
<path style="fill:none;stroke:#000;stroke-width:2" d="M729,337 l0,415 -4,13 -7,11 -10,10 -11,5 -11,4 -49,0 0,-575 166,0 0,66 0,11 -2,12 -6,9 -9,9 -12,6 -11,4 -34,0" />
<path style="fill:none;stroke:#000;stroke-width:2" d="M729,337 l-9,0 -66,-75 -17,-35" />
<circle style="fill:#b2b2b2;stroke:#000;stroke-width:2" cx="683" cy="574" r="54" />
<circle style="fill:#ccc" cx="683" cy="573" r="46" />
<path style="fill:#e0e0e0" d="M629,661 l-360,-134 -241,-166 0,434 601,0 0,-134z" />
<path style="fill:none;stroke:#000;stroke-width:2" d="M629,211 l-601,0 0,584 601,0 0,-584" />
<path style="fill:#333" d="M661,286 l-7,0 0,141 7,0 0,-141z" />
<path style="fill:#333" d="M695,478 l-24,0 0,25 24,0 0,-25z" />
<path style="fill:#b2b2b2" d="M597,771 l6,-12 -6,-11 -13,0 -6,11 6,12 13,0z" />
<path style="fill:#b2b2b2" d="M71,771 l8,-12 -8,-11 -11,0 -8,11 8,12 11,0z" />
<path style="fill:#333" d="M712,245 l-17,0 0,17 17,0 0,-17z" />

</svg>
