<?xml version="1.0" encoding="utf-8" standalone="no"?><!DOCTYPE svg PUBLIC "-//W3C//DTD SVG 1.1//EN" "http://www.w3.org/Graphics/SVG/1.1/DTD/svg11-flat-20030114.dtd"><svg width="998" height="808" version="1.1" xmlns="http://www.w3.org/2000/svg" xmlns:xlink="http://www.w3.org/1999/xlink">

<path style="fill:#000;stroke:#000;stroke-width:2" d="M789,118 l-128,0 0,45 128,0 0,-45z" />
<path style="fill:#000" d="M642,37 l0,66 49,0 0,-66 -49,0z" />
<path style="fill:#333;stroke:#000;stroke-width:2" d="M667,152 l11,2 11,0 12,-2 9,-5 8,-8 5,-11 2,-10 0,-11 -2,-11 -5,-10 -8,-7 -9,-6 -12,-2 -11,0 -11,2 -10,6 -7,7 -6,10 -2,11 0,11 2,10 6,11 7,8 10,5z" />
<path style="fill:#7f7f7f" d="M642,45 l0,17 49,0 0,-17 -49,0z" />
<path style="fill:#999" d="M644,45 l0,17 45,0 0,-17 -45,0z" />
<path style="fill:#b2b2b2" d="M650,45 l0,17 34,0 0,-17 -34,0z" />
<path style="fill:#ccc" d="M655,45 l0,17 23,0 0,-17 -23,0z" />
<path style="fill:#e5e5e5" d="M659,45 l0,17 15,0 0,-17 -15,0z" />
<path style="fill:#fff" d="M663,45 l0,17 8,0 0,-17 -8,0z" />
<path style="fill:none;stroke:#000;stroke-width:2" d="M642,45 l0,17 49,0 0,-17 -49,0" />
<path style="fill:#000" d="M708,28 l0,71 55,0 0,-71 -55,0z" />
<path style="fill:#000" d="M899,163 l-200,0 0,-18 -200,0 0,18 -462,0 0,617 862,0 0,-617z" />
<path style="fill:#f5f5f5;stroke:#000;stroke-width:2" d="M244,580 l38,0 53,-15 47,-26 40,-40 26,-47 15,-53 0,-72 36,-37 0,-127 -471,0 0,581 55,0 161,-164z" />
<path style="fill:#f5f5f5" d="M897,163 l-6,0 -7,0 -6,0 -173,0 -6,0 0,19 0,544 0,18 6,0 31,-1 31,0 68,0 31,0 25,1 6,0 0,-18 0,-563z" />
<path style="fill:#ebebeb" d="M897,163 l-49,0 0,581 49,0 0,-581z" />
<path style="fill:#e3e3e3" d="M897,163 l-42,0 0,581 42,0 0,-581z" />
<path style="fill:#d9d9d9" d="M897,163 l-36,0 0,581 36,0 0,-581z" />
<path style="fill:#cfcfcf" d="M897,163 l-29,0 0,581 29,0 0,-581z" />
<path style="fill:#c4c4c4" d="M897,163 l-23,0 0,581 23,0 0,-581z" />
<path style="fill:#bdbdbd" d="M897,163 l-15,0 0,581 15,0 0,-581z" />
<path style="fill:#b2b2b2" d="M899,163 l-10,0 0,581 10,0 0,-581z" />
<path style="fill:none;stroke:#000;stroke-width:2" d="M899,163 l-200,0 0,581 200,0 0,-581" />
<circle style="fill:#333;stroke:#000;stroke-width:2" cx="753" cy="109" r="45" />
<path style="fill:#7f7f7f" d="M390,510 l9,-15 -9,-15 -17,0 -10,15 10,15 17,0z" />
<path style="fill:#ccc" d="M970,599 l-71,0 0,17 66,0 5,-17z" />
<path style="fill:#e5e5e5" d="M970,599 l-71,0 0,-79 60,0 11,79z" />
<path style="fill:none;stroke:#000;stroke-width:2" d="M970,599 l-11,-79 -60,0 0,96 66,0 5,-17" />
<path style="fill:#7f7f7f" d="M708,37 l0,17 55,0 0,-17 -55,0z" />
<path style="fill:#999" d="M710,37 l0,17 49,0 0,-17 -49,0z" />
<path style="fill:#b2b2b2" d="M716,37 l0,17 38,0 0,-17 -38,0z" />
<path style="fill:#ccc" d="M723,37 l0,17 25,0 0,-17 -25,0z" />
<path style="fill:#e5e5e5" d="M727,37 l0,17 15,0 0,-17 -15,0z" />
<path style="fill:#fff" d="M731,37 l0,17 7,0 0,-17 -7,0z" />
<path style="fill:none;stroke:#000;stroke-width:2" d="M708,37 l0,17 55,0 0,-17 -55,0" />

</svg>
