<?xml version="1.0" encoding="utf-8" standalone="no"?><!DOCTYPE svg PUBLIC "-//W3C//DTD SVG 1.1//EN" "http://www.w3.org/Graphics/SVG/1.1/DTD/svg11-flat-20030114.dtd"><svg width="684" height="999" version="1.1" xmlns="http://www.w3.org/2000/svg" xmlns:xlink="http://www.w3.org/1999/xlink">

<path style="fill:#699;stroke:#000;stroke-width:2" d="M656,656 l-628,0 0,56 628,0 0,-56z" />
<path style="fill:#194c4c;stroke:#000;stroke-width:2" d="M542,571 l-86,0 0,-85 -228,0 0,85 -86,0 0,229 86,0 0,114 85,-44 0,-43 58,0 0,43 85,44 0,-114 86,0 0,-229z" />
<path style="fill:#194c4c" d="M627,512 l-85,0 0,344 85,0 0,-344z" />
<path style="fill:#366" d="M627,538 l-85,0 0,295 85,0 0,-295z" />
<path style="fill:#4c7f7f" d="M627,569 l-85,0 0,233 85,0 0,-233z" />
<path style="fill:#699" d="M627,600 l-85,0 0,170 85,0 0,-170z" />
<path style="fill:#7fb2b2" d="M627,646 l-85,0 0,77 85,0 0,-77z" />
<path style="fill:none;stroke:#000;stroke-width:2" d="M627,512 l-85,0 0,344 85,0 0,-344" />
<path style="fill:#194c4c" d="M142,512 l-85,0 0,344 85,0 0,-344z" />
<path style="fill:#366" d="M142,538 l-85,0 0,295 85,0 0,-295z" />
<path style="fill:#4c7f7f" d="M142,569 l-85,0 0,233 85,0 0,-233z" />
<path style="fill:#699" d="M142,600 l-85,0 0,170 85,0 0,-170z" />
<path style="fill:#7fb2b2" d="M142,646 l-85,0 0,77 85,0 0,-77z" />
<path style="fill:none;stroke:#000;stroke-width:2" d="M142,512 l-85,0 0,344 85,0 0,-344" />
<path style="fill:none;stroke:#000;stroke-width:2" d="M585,512 l0,344" />
<path style="fill:none;stroke:#000;stroke-width:2" d="M98,512 l0,344" />
<path style="fill:#194c4c" d="M171,400 l0,86 341,0 0,-86 -341,0z" />
<path style="fill:#366" d="M194,400 l0,86 296,0 0,-86 -296,0z" />
<path style="fill:#4c7f7f" d="M225,400 l0,86 233,0 0,-86 -233,0z" />
<path style="fill:#699" d="M257,400 l0,86 170,0 0,-86 -170,0z" />
<path style="fill:#7fb2b2" d="M302,400 l0,86 79,0 0,-86 -79,0z" />
<path style="fill:none;stroke:#000;stroke-width:2" d="M171,400 l0,86 341,0 0,-86 -341,0" />
<path style="fill:none;stroke:#000;stroke-width:2" d="M171,442 l341,0" />
<path style="fill:#366;stroke:#000;stroke-width:2" d="M571,970 l0,-70 -458,0 0,70 15,0 14,-43 400,0 14,43 15,0z" />
<ellipse style="fill:#699;stroke:#000;stroke-width:2" cx="341" cy="684" rx="170" ry="172" />
<path style="fill:none;stroke:#fff;stroke-width:2" d="M257,598 l-9,9 -7,10 -6,10 -5,11 -4,11 -2,12 -2,12 -1,6 0,6 0,7 2,12 2,11 4,12 4,11 6,10 6,9 8,9 8,8 9,8 9,6 11,6 10,5 12,3 12,2 12,2 6,0 6,0 11,-1 12,-3 11,-3 11,-5 11,-5 10,-7 9,-7 4,-5" />
<path style="fill:none;stroke:#000;stroke-width:2" d="M427,770 l8,-8 7,-10 6,-10 5,-11 4,-11 3,-11 2,-12 0,-6 1,-6 -1,-6 -1,-12 -2,-12 -4,-12 -4,-11 -6,-10 -6,-10 -8,-9 -8,-8 -9,-8 -10,-7 -10,-5 -11,-5 -11,-4 -12,-2 -12,-1 -6,-1 -6,1 -12,1 -12,2 -11,4 -11,5 -11,5 -10,7 -8,7 -4,4" />
<path style="fill:none;stroke:#fff;stroke-width:2" d="M350,843 l2,-1 1,-1 1,-1 1,-2 1,-2 0,-2 0,-2 0,-1 0,-4 -1,-4 -2,-3 -2,-2 -3,-3 -3,-1 -3,-2 -4,0 -2,0 -1,0 -2,1 -1,1 -2,1 -2,1 -1,1 -2,1" />
<path style="fill:none;stroke:#000;stroke-width:2" d="M325,818 l0,2 -1,1 -1,2 -1,2 0,1 -1,2 0,1 0,2 0,4 1,3 2,3 2,3 2,2 3,2 3,1 4,1 1,-1 2,0 2,0 2,-1 1,-1 2,-1 1,-1 1,-2" />
<path style="fill:none;stroke:#fff;stroke-width:2" d="M359,550 l0,-1 1,-1 1,-1 0,-2 1,-1 0,-2 0,-2 1,-2 -1,-3 -1,-4 -1,-2 -3,-3 -2,-2 -3,-2 -3,-1 -3,0 -2,0 -2,0 -2,1 -2,0 -1,1 -1,0 -2,1 0,1" />
<path style="fill:none;stroke:#000;stroke-width:2" d="M334,525 l-2,2 -1,1 -1,2 -1,1 -1,2 0,1 0,2 -1,2 1,3 1,4 2,3 2,3 3,2 3,2 3,1 4,0 2,0 1,0 2,-1 1,0 2,-1 1,-1 2,-2 2,-1" />
<path style="fill:none;stroke:#fff;stroke-width:2" d="M500,700 l1,-1 2,-1 1,-1 1,-2 0,-2 1,-1 0,-2 0,-3 0,-3 -1,-3 -2,-3 -2,-2 -3,-2 -3,-2 -4,-1 -3,0 -2,0 -2,0 -1,0 -2,1 -1,1 -2,0 -1,1 -2,1" />
<path style="fill:none;stroke:#000;stroke-width:2" d="M475,675 l-1,1 0,2 -1,2 -1,1 0,2 -1,1 0,2 0,1 0,4 1,4 2,3 2,3 3,2 3,2 3,1 3,0 1,0 2,0 2,-1 2,-1 1,0 2,-1 1,-2 1,-1" />
<path style="fill:none;stroke:#fff;stroke-width:2" d="M209,694 l0,-2 1,-2 1,-1 1,-2 0,-1 1,-2 0,-1 0,-2 0,-4 -1,-3 -2,-4 -2,-2 -3,-2 -3,-2 -3,-1 -3,-1 -2,0 -2,1 -2,0 -2,1 -1,1 -1,1 -1,1 -1,2" />
<path style="fill:none;stroke:#000;stroke-width:2" d="M184,669 l-2,0 -1,2 -1,1 -1,2 -1,2 0,2 0,1 0,2 0,4 1,3 2,4 2,2 3,3 3,1 3,1 4,1 2,0 1,-1 2,0 1,-1 2,-1 1,-1 2,-1 2,-1" />
<path style="fill:none;stroke:#fff;stroke-width:2" d="M425,827 l1,-2 1,-2 0,-1 1,-2 1,-2 0,-2 0,-2 0,-2 0,-3 -1,-3 -2,-3 -2,-2 -2,-2 -3,-2 -3,-1 -3,0 -3,0 -2,0 -2,0 -1,1 -2,0 -2,1 -1,1 -2,1" />
<path style="fill:none;stroke:#000;stroke-width:2" d="M398,800 l-1,1 -1,2 0,1 -1,2 0,2 -1,1 0,2 0,1 0,4 1,3 2,4 2,2 3,3 3,1 4,1 4,1 1,0 2,-1 1,0 2,0 1,-1 2,-1 2,-1 1,0" />
<path style="fill:none;stroke:#fff;stroke-width:2" d="M284,569 l1,-2 1,-2 2,-1 0,-2 1,-1 1,-2 0,-1 0,-2 0,-4 -2,-3 -1,-3 -3,-3 -2,-2 -3,-2 -4,-1 -4,0 -1,0 -2,0 -2,0 -1,1 -2,1 -1,1 -2,1 -1,2" />
<path style="fill:none;stroke:#000;stroke-width:2" d="M259,544 l-1,1 -1,1 -1,2 0,1 -1,2 0,2 0,2 -1,1 1,4 1,4 1,3 2,2 2,3 3,1 4,2 3,0 2,0 2,0 1,-1 2,-1 2,-1 1,-1 2,-1 1,-1" />
<path style="fill:none;stroke:#fff;stroke-width:2" d="M483,627 l1,-1 1,-1 1,-2 0,-2 1,-1 0,-2 0,-2 1,-2 -1,-3 -1,-4 -1,-3 -3,-3 -2,-2 -3,-2 -3,-1 -3,0 -2,0 -2,0 -2,1 -2,0 -1,1 -2,1 -1,2 -1,1" />
<path style="fill:none;stroke:#000;stroke-width:2" d="M458,602 l-1,2 -1,1 -1,2 -1,1 -1,2 -1,1 0,2 0,1 0,4 2,4 1,3 3,3 2,2 3,2 4,1 4,0 1,0 2,0 2,-1 1,0 2,-1 1,-1 2,-2 1,-1" />
<path style="fill:none;stroke:#fff;stroke-width:2" d="M225,766 l2,0 1,-2 1,-1 1,-1 1,-2 0,-2 0,-2 1,-2 -1,-3 -1,-3 -2,-3 -2,-3 -2,-2 -4,-1 -3,-1 -4,-1 -2,0 -1,1 -2,0 -1,1 -2,0 -1,1 -2,1 -2,0" />
<path style="fill:none;stroke:#000;stroke-width:2" d="M200,741 l0,2 -1,1 -1,2 0,2 -1,1 0,2 -1,1 0,2 1,4 0,3 2,3 2,3 2,2 3,2 3,1 4,1 2,-1 1,0 2,0 2,-1 2,-1 1,-1 1,-1 1,-2" />
<path style="fill:none;stroke:#fff;stroke-width:2" d="M277,823 l2,-2 1,-2 1,-1 1,-2 1,-1 0,-2 1,-1 0,-2 -1,-4 -1,-3 -2,-3 -2,-3 -2,-2 -4,-2 -3,-1 -4,-1 -2,1 -1,0 -2,0 -1,1 -2,1 -1,1 -2,1 -2,2" />
<path style="fill:none;stroke:#000;stroke-width:2" d="M252,798 l0,0 -1,2 -1,1 0,1 -1,2 0,2 -1,2 0,2 1,3 1,3 1,3 3,2 2,3 3,1 3,1 3,1 2,-1 2,0 2,0 2,-1 1,0 2,-1 1,-1 0,0" />
<path style="fill:none;stroke:#fff;stroke-width:2" d="M431,573 l1,-2 1,-1 1,-2 0,-1 1,-2 0,-2 0,-1 1,-2 -1,-3 -1,-4 -1,-3 -3,-3 -2,-2 -3,-2 -3,-1 -3,0 -2,0 -2,0 -2,0 -2,1 -2,1 -2,1 -1,1 -2,2" />
<path style="fill:none;stroke:#000;stroke-width:2" d="M404,548 l0,1 -1,1 -1,1 -1,2 0,1 -1,2 0,2 0,2 0,3 2,3 1,3 3,3 2,2 3,2 4,1 4,0 1,0 2,0 2,-1 1,0 2,-1 1,-1 2,0 1,-1" />
<path style="fill:none;stroke:#fff;stroke-width:2" d="M479,773 l2,-1 1,-1 1,-2 1,-1 1,-2 0,-2 0,-2 1,-2 -1,-3 -1,-3 -2,-3 -2,-2 -3,-2 -3,-2 -3,-1 -4,0 -2,0 -2,0 -2,0 -1,1 -2,0 -2,1 -1,1 -1,1" />
<path style="fill:none;stroke:#000;stroke-width:2" d="M454,748 l-1,1 -1,2 -2,1 0,2 -1,1 -1,2 0,2 0,1 0,4 1,3 2,4 2,2 3,3 3,1 4,1 4,1 1,0 2,-1 1,0 2,-1 2,-1 1,-1 2,-1 1,-1" />
<path style="fill:none;stroke:#fff;stroke-width:2" d="M230,621 l1,-1 1,-2 1,-1 0,-2 1,-2 0,-1 0,-2 0,-2 -1,-4 0,-3 -2,-3 -2,-3 -2,-2 -3,-2 -3,-1 -4,0 -1,0 -2,0 -2,0 -2,1 -2,1 -1,1 -2,1 0,2" />
<path style="fill:none;stroke:#000;stroke-width:2" d="M205,596 l-2,1 -1,2 -1,1 -1,2 -1,2 0,1 -1,2 0,1 1,4 1,4 2,3 2,2 3,3 3,1 3,2 4,0 2,0 1,0 2,-1 1,-1 2,-1 1,-1 2,-1 2,-1" />
<path style="fill:#366;stroke:#000;stroke-width:2" d="M498,400 l0,-343 -127,0 0,171 -129,0 -26,7 -22,19 -10,26 0,6 0,114 314,0z" />
<path style="fill:#194c4c" d="M471,400 l0,-314 -100,0 0,171 -140,0 -29,3 -18,21 0,5 0,114 287,0z" />
<path style="fill:#699;stroke:#000;stroke-width:2" d="M413,28 l0,29 58,0 0,-29 -58,0z" />

</svg>
