<?xml version="1.0" encoding="utf-8" standalone="no"?><!DOCTYPE svg PUBLIC "-//W3C//DTD SVG 1.1//EN" "http://www.w3.org/Graphics/SVG/1.1/DTD/svg11-flat-20030114.dtd"><svg width="999" height="999" version="1.1" xmlns="http://www.w3.org/2000/svg" xmlns:xlink="http://www.w3.org/1999/xlink">

<path style="fill:#000;stroke:#000;stroke-width:2" d="M695,812 l-138,0 0,118 138,0 0,-118z" />
<path style="fill:#333;stroke:#000;stroke-width:2" d="M263,930 l40,-589 18,0 -38,589 -20,0z" />
<path style="fill:#999;stroke:#000;stroke-width:2" d="M58,366 l-10,0 0,446 10,0 0,-446z" />
<path style="fill:#999;stroke:#000;stroke-width:2" d="M970,930 l-707,0 0,40 707,0 0,-40z" />
<path style="fill:#999;stroke:#000;stroke-width:2" d="M303,930 l38,0 0,-667 -38,0 0,667z" />
<path style="fill:#666;stroke:#000;stroke-width:2" d="M893,735 l77,-20 -40,-176 -77,18 40,178z" />
<path style="fill:#999;stroke:#000;stroke-width:2" d="M930,657 l-235,0 -38,273 273,0 0,-273z" />
<path style="fill:#666;stroke:#000;stroke-width:2" d="M557,930 l-216,0 0,-273 216,0 0,273z" />
<path style="fill:#4c4c4c;stroke:#000;stroke-width:2" d="M519,657 l38,-138 -216,-78 0,216 178,0z" />
<path style="fill:#999;stroke:#000;stroke-width:2" d="M715,353 l-15,-12 -291,371 15,13 291,-372z" />
<path style="fill:#999;stroke:#000;stroke-width:2" d="M667,296 l-15,-13 -291,371 15,13 291,-371z" />
<circle style="fill:#4c4c4c;stroke:#000;stroke-width:2" cx="322" cy="302" r="39" />
<path style="fill:#7f7f7f;stroke:#000;stroke-width:2" d="M853,735 l23,-12 13,-24 1,-14 -6,-26 -21,-20 -10,-2 -452,20 0,58 452,20z" />
<path style="fill:#7f7f7f;stroke:#000;stroke-width:2" d="M637,930 l-218,-235 -18,20 196,215 40,0z" />
<circle style="fill:#4c4c4c;stroke:#000;stroke-width:2" cx="400" cy="676" r="59" />
<path style="fill:#b2b2b2" d="M68,812 l-30,0 0,20 30,0 0,-20z" />
<path style="fill:#b2b2b2" d="M63,832 l-20,0 0,118 20,0 0,-118z" />
<path style="fill:#b2b2b2" d="M78,883 l-50,0 0,20 50,0 0,-20z" />
<path style="fill:#b2b2b2" d="M78,908 l-50,0 0,7 50,0 0,-7z" />
<path style="fill:#b2b2b2" d="M63,970 l15,-20 -50,0 15,20 20,0z" />
<circle style="fill:#999;stroke:#000;stroke-width:2" cx="401" cy="676" r="35" />
<circle style="fill:#4c4c4c;stroke:#000;stroke-width:2" cx="676" cy="322" r="59" />
<circle style="fill:#999;stroke:#000;stroke-width:2" cx="676" cy="322" r="34" />
<path style="fill:#999;stroke:#000;stroke-width:2" d="M166,166 l508,77 61,118 -610,-118 41,-77z" />
<path style="fill:#666;stroke:#000;stroke-width:2" d="M48,366 l0,-143 77,-195 78,80 -145,258 -10,0z" />
<path style="fill:#e5e5e5" d="M58,812 l-13,0 0,20 13,0 0,-20z" />
<path style="fill:#e5e5e5" d="M55,832 l-7,0 0,118 7,0 0,-118z" />
<path style="fill:#e5e5e5" d="M63,883 l-20,0 0,20 20,0 0,-20z" />
<path style="fill:#e5e5e5" d="M63,908 l-20,0 0,7 20,0 0,-7z" />
<path style="fill:#e5e5e5" d="M55,970 l8,-20 -20,0 5,20 7,0z" />
<path style="fill:none;stroke:#000;stroke-width:2" d="M68,812 l0,20 -5,0 0,51 15,0 0,20 -15,0 0,5 15,0 0,7 -15,0 0,35 15,0 -15,20 -20,0 -15,-20 15,0 0,-35 -15,0 0,-7 15,0 0,-5 -15,0 0,-20 15,0 0,-51 -5,0 0,-20 30,0" />
<path style="fill:none;stroke:#000;stroke-width:2" d="M63,832 l-20,0" />
<path style="fill:none;stroke:#000;stroke-width:2" d="M63,883 l-20,0" />
<path style="fill:none;stroke:#000;stroke-width:2" d="M63,903 l-20,0" />
<path style="fill:none;stroke:#000;stroke-width:2" d="M63,908 l-20,0" />
<path style="fill:none;stroke:#000;stroke-width:2" d="M63,915 l-20,0" />
<path style="fill:none;stroke:#000;stroke-width:2" d="M63,950 l-20,0" />

</svg>
