<?xml version="1.0" encoding="utf-8" standalone="no"?><!DOCTYPE svg PUBLIC "-//W3C//DTD SVG 1.1//EN" "http://www.w3.org/Graphics/SVG/1.1/DTD/svg11-flat-20030114.dtd"><svg width="999" height="875" version="1.1" xmlns="http://www.w3.org/2000/svg" xmlns:xlink="http://www.w3.org/1999/xlink">

<path style="fill:#405473;stroke:#000;stroke-width:2" d="M383,59 l-35,6 -31,20 -20,31 -7,35 0,93 217,0 0,-31 15,-16 247,0 0,-138 -386,0z" />
<path style="fill:#263a59" d="M487,151 l-16,2 -14,9 -9,14 -3,18 0,50 50,0 0,-35 23,-23 240,0 0,-35 -271,0z" />
<path style="fill:#405473" d="M769,321 l-77,0 0,62 -587,0 0,-62 -77,0 0,433 77,0 0,-62 587,0 0,62 77,0 0,-433z" />
<path style="fill:#4f6382" d="M769,347 l-77,0 0,55 -587,0 0,-55 -77,0 0,380 77,0 0,-54 587,0 0,54 77,0 0,-380z" />
<path style="fill:#405473" d="M615,692 l0,154 -433,0 0,-154 155,-154 -155,-155 31,-139 371,0 31,139 -155,155 155,154z" />
<path style="fill:#5c708f" d="M769,374 l-77,0 0,47 -587,0 0,-47 -77,0 0,327 77,0 0,-47 587,0 0,47 77,0 0,-327z" />
<path style="fill:#6b7f9e" d="M769,400 l-77,0 0,40 -587,0 0,-40 -77,0 0,274 77,0 0,-39 587,0 0,39 77,0 0,-274z" />
<path style="fill:#7a8ead" d="M769,427 l-77,0 0,31 -587,0 0,-31 -77,0 0,221 77,0 0,-32 587,0 0,32 77,0 0,-221z" />
<path style="fill:#8a9ebd" d="M769,454 l-77,0 0,23 -587,0 0,-23 -77,0 0,167 77,0 0,-24 587,0 0,24 77,0 0,-167z" />
<path style="fill:#96aac9" d="M769,480 l-77,0 0,16 -587,0 0,-16 -77,0 0,115 77,0 0,-17 587,0 0,17 77,0 0,-115z" />
<path style="fill:#a6bad9" d="M769,507 l-77,0 0,9 -587,0 0,-9 -77,0 0,61 77,0 0,-8 587,0 0,8 77,0 0,-61z" />
<path style="fill:#4f6382" d="M600,692 l0,154 -402,0 0,-154 139,-154 -139,-155 28,-139 345,0 29,139 -140,155 140,154z" />
<path style="fill:none;stroke:#000;stroke-width:2" d="M615,692 l77,0 0,62 77,0 0,-433 -77,0 0,62 -77,0 -31,-139 -371,0 -31,139" />
<path style="fill:none;stroke:#000;stroke-width:2" d="M615,692 l0,154 -433,0 0,-154 -77,0 0,62 -77,0 0,-433 77,0 0,62 77,0" />
<path style="fill:none;stroke:#000;stroke-width:2" d="M584,290 l-371,0" />
<path style="fill:none;stroke:#000;stroke-width:2" d="M692,692 l0,-309" />
<path style="fill:none;stroke:#000;stroke-width:2" d="M105,692 l0,-309" />
<path style="fill:#263a59" d="M275,785 l0,-78 278,0 0,109 -31,-31 -247,0z" />
<path style="fill:#7387a6" d="M553,816 l-31,-31 -247,0 0,-78 -31,0 0,109 309,0z" />
<circle style="fill:#7387a6" cx="398" cy="537" r="231" />
<circle style="fill:#405473" cx="398" cy="537" r="123" />
<circle style="fill:#596d8c" cx="398" cy="506" r="61" />
<path style="fill:none;stroke:#bfd3f2;stroke-width:2" d="M563,701 l28,-35 22,-40 13,-43 4,-46 -4,-45 -13,-43 -21,-40 -29,-36 -35,-28 -41,-22 -43,-13 -45,-4 -45,4 -44,13 -40,22 -35,29" />
<path style="fill:none;stroke:#bfd3f2;stroke-width:2" d="M432,539 l5,-7 4,-8 3,-9 1,-9 -1,-8 -3,-9 -4,-8 -5,-7 -8,-6 -8,-4 -8,-3 -9,-1 -9,1 -9,3 -8,4 -7,6" />
<path style="fill:none;stroke:#bfd3f2;stroke-width:2" d="M311,450 l-15,19 -12,21 -6,24 -3,24 2,24 7,23 12,21 15,19 19,15 21,12 23,7 25,2 24,-2 23,-7 21,-12 19,-15" />
<path style="fill:none;stroke:#000;stroke-width:2" d="M235,374 l-29,35 -21,40 -13,43 -5,46 4,45 13,44 22,39 29,36 35,29 40,21 43,13 46,4 44,-4 44,-13 40,-21 36,-30" />
<path style="fill:none;stroke:#000;stroke-width:2" d="M366,474 l-6,7 -4,8 -3,9 -1,8 1,9 3,9 4,8 6,7 7,6 8,4 9,3 9,1 9,-1 8,-3 8,-4 8,-6" />
<path style="fill:none;stroke:#000;stroke-width:2" d="M486,625 l15,-19 12,-21 7,-23 2,-25 -2,-23 -7,-24 -12,-21 -15,-19 -19,-15 -21,-12 -23,-7 -24,-2 -24,2 -24,7 -21,12 -19,15" />
<path style="fill:#8ca0bf" d="M364,86 l-17,2 -14,9 -9,13 -3,18 0,50 24,-58 11,-11 278,-23 -270,0z" />
<path style="fill:#596d8c" d="M769,28 l0,200 31,0 0,-200 -31,0z" />
<path style="fill:#7387a6" d="M769,70 l0,116 31,0 0,-116 -31,0z" />
<path style="fill:#8ca0bf" d="M769,112 l0,32 31,0 0,-32 -31,0z" />
<path style="fill:none;stroke:#000;stroke-width:2" d="M769,28 l0,200 31,0 0,-200 -31,0" />
<path style="fill:#405473" d="M800,155 l0,54 47,0 0,-54 -47,0z" />
<path style="fill:#7387a6" d="M800,74 l0,97 47,0 0,-97 -47,0z" />
<path style="fill:#8ca0bf" d="M800,47 l0,27 47,0 0,-27 -47,0z" />
<path style="fill:none;stroke:#000;stroke-width:2" d="M800,47 l0,162 47,0 0,-162 -47,0" />
<path style="fill:#596d8c" d="M847,89 l0,78 123,0 0,-78 -123,0z" />
<path style="fill:#7387a6" d="M847,106 l0,44 123,0 0,-44 -123,0z" />
<path style="fill:#8ca0bf" d="M847,122 l0,12 123,0 0,-12 -123,0z" />
<path style="fill:none;stroke:#000;stroke-width:2" d="M847,89 l0,78 123,0 0,-78 -123,0" />

</svg>
