<?xml version="1.0" encoding="utf-8" standalone="no"?><!DOCTYPE svg PUBLIC "-//W3C//DTD SVG 1.1//EN" "http://www.w3.org/Graphics/SVG/1.1/DTD/svg11-flat-20030114.dtd"><svg width="999" height="815" version="1.1" xmlns="http://www.w3.org/2000/svg" xmlns:xlink="http://www.w3.org/1999/xlink">

<path style="fill:#b2b2b2;stroke:#000;stroke-width:2" d="M787,187 l71,0 0,43 -71,0 0,-43z" />
<path style="fill:#666;stroke:#000;stroke-width:2" d="M949,230 l-7,6 -9,5 -9,3 -10,1 -10,-1 -9,-3 -8,-5 -7,-6 -22,15 0,-71 22,15 7,-6 8,-5 9,-3 10,-1 10,1 9,3 9,5 7,6 21,-15 0,71 -21,-15z" />
<path style="fill:#7f7f7f;stroke:#000;stroke-width:2" d="M886,146 l56,0 0,28 -56,0 0,-28z" />
<path style="fill:#999;stroke:#000;stroke-width:2" d="M893,146 l43,0 0,28 -43,0 0,-28z" />
<path style="fill:#b2b2b2;stroke:#000;stroke-width:2" d="M908,146 l13,0 0,28 -13,0 0,-28z" />
<ellipse style="fill:#7f7f7f" cx="914" cy="202" rx="34" ry="22" />
<ellipse style="fill:#999" cx="914" cy="198" rx="28" ry="9" />
<path style="fill:#7f7f7f;stroke:#000;stroke-width:2" d="M787,217 l71,0 0,13 -71,0 0,-13z" />
<path style="fill:#00007f;stroke:#000;stroke-width:2" d="M688,519 l-421,0 0,140 421,0 0,-140z" />
<path style="fill:#0000e0;stroke:#000;stroke-width:2" d="M871,103 l-787,0 0,21 787,0 0,-21z" />
<path style="fill:#0000bf;stroke:#000;stroke-width:2" d="M731,40 l-507,0 0,22 507,0 0,-22z" />
<path style="fill:#00f;stroke:#000;stroke-width:2" d="M176,519 l0,-28 -1,-28 -1,-28 -1,-28 -1,-28 -1,-27 -1,-41 -2,-42 -1,-41 -1,-28 -1,-27 -1,-28 -1,-28 -1,-28 0,-14 19,-6 39,-10 39,-9 40,-7 40,-6 40,-5 41,-2 41,-2 20,0 20,0 41,2 40,2 40,5 39,6 39,7 39,9 38,10 18,6 -17,444 -19,28 -21,25 -24,24 -26,21 -27,19 -30,15 -30,14 -32,10 -34,7 -34,5 -11,0 -11,0 -12,0 -34,-3 -34,-6 -32,-9 -32,-13 -30,-15 -29,-18 -27,-20 -24,-23 -22,-24 -21,-28 -6,-9z" />
<path style="fill:#0000bf;stroke:#000;stroke-width:2" d="M295,167 l-43,0 0,134 43,0 0,-134z" />
<path style="fill:#0000bf;stroke:#000;stroke-width:2" d="M394,301 l2,17 2,8 3,8 3,7 9,13 11,12 14,9 7,4 8,3 8,2 9,1 9,0 8,0 8,-1 8,-2 8,-3 7,-4 14,-9 11,-12 9,-13 4,-7 3,-8 2,-8 1,-8 1,-9 0,-134 -169,0 0,134z" />
<path style="fill:#0000bf;stroke:#000;stroke-width:2" d="M703,167 l-41,0 0,134 41,0 0,-134z" />
<path style="fill:#0000bf;stroke:#000;stroke-width:2" d="M793,75 l-631,0 0,8 631,0 0,-8z" />
<path style="fill:#0000e0;stroke:#000;stroke-width:2" d="M781,62 l-29,0 0,125 29,0 0,-125z" />
<path style="fill:#0000bf;stroke:#000;stroke-width:2" d="M752,62 l-15,0 0,125 15,0 0,-125z" />
<path style="fill:#0000e0;stroke:#000;stroke-width:2" d="M640,62 l-28,0 0,125 28,0 0,-125z" />
<path style="fill:#0000bf;stroke:#000;stroke-width:2" d="M612,62 l-15,0 0,125 15,0 0,-125z" />
<path style="fill:#0000e0;stroke:#000;stroke-width:2" d="M500,62 l-30,0 0,125 30,0 0,-125z" />
<path style="fill:#0000bf;stroke:#000;stroke-width:2" d="M470,62 l-13,0 0,125 13,0 0,-125z" />
<path style="fill:#0000e0;stroke:#000;stroke-width:2" d="M358,62 l-28,0 0,125 28,0 0,-125z" />
<path style="fill:#0000bf;stroke:#000;stroke-width:2" d="M330,62 l-13,0 0,125 13,0 0,-125z" />
<path style="fill:#0000e0;stroke:#000;stroke-width:2" d="M217,62 l-28,0 0,125 28,0 0,-125z" />
<path style="fill:#0000bf;stroke:#000;stroke-width:2" d="M189,62 l-14,0 0,125 14,0 0,-125z" />
<path style="fill:#00f;stroke:#000;stroke-width:2" d="M815,124 l-675,0 0,43 675,0 0,-43z" />
<path style="fill:#00f;stroke:#000;stroke-width:2" d="M815,83 l-675,0 0,41 675,0 0,-41z" />
<path style="fill:#0000bf;stroke:#000;stroke-width:2" d="M746,265 l0,521 -58,0 0,-323 58,-198z" />
<path style="fill:#0000bf;stroke:#000;stroke-width:2" d="M211,265 l0,521 56,0 0,-323 -56,-198z" />
<path style="fill:none;stroke:#00f;stroke-width:2" d="M688,463 l58,-198" />
<path style="fill:none;stroke:#00f;stroke-width:2" d="M267,463 l-56,-198" />
<path style="fill:#0000e0;stroke:#000;stroke-width:2" d="M407,666 l1,8 1,9 2,8 2,8 7,15 9,13 10,10 12,8 13,5 15,2 13,-2 14,-5 11,-8 11,-10 8,-13 6,-15 2,-8 2,-8 1,-9 0,-8 0,-169 -140,0 0,169z" />
<path style="fill:none;stroke:#00f;stroke-width:2" d="M547,497 l-140,0" />
<path style="fill:#b2b2b2;stroke:#000;stroke-width:2" d="M211,588 l-71,0 0,43 71,0 0,-43z" />
<path style="fill:#666;stroke:#000;stroke-width:2" d="M49,631 l8,6 8,4 9,2 10,1 10,-1 9,-2 8,-4 7,-6 22,13 0,-69 -22,15 -7,-7 -8,-5 -9,-2 -10,-1 -10,1 -9,2 -8,5 -8,7 -21,-15 0,69 21,-13z" />
<path style="fill:#7f7f7f;stroke:#000;stroke-width:2" d="M112,547 l-56,0 0,28 56,0 0,-28z" />
<path style="fill:#999;stroke:#000;stroke-width:2" d="M105,547 l-43,0 0,28 43,0 0,-28z" />
<path style="fill:#b2b2b2;stroke:#000;stroke-width:2" d="M90,547 l-13,0 0,28 13,0 0,-28z" />
<ellipse style="fill:#7f7f7f" cx="83" cy="603" rx="34" ry="21" />
<ellipse style="fill:#999" cx="84" cy="599" rx="28" ry="11" />
<path style="fill:#7f7f7f;stroke:#000;stroke-width:2" d="M211,616 l-71,0 0,15 71,0 0,-15z" />

</svg>
