<?xml version="1.0" encoding="utf-8" standalone="no"?><!DOCTYPE svg PUBLIC "-//W3C//DTD SVG 1.1//EN" "http://www.w3.org/Graphics/SVG/1.1/DTD/svg11-flat-20030114.dtd"><svg width="999" height="487" version="1.1" xmlns="http://www.w3.org/2000/svg" xmlns:xlink="http://www.w3.org/1999/xlink">

<path style="fill:#000" d="M805,450 l-306,0 0,9 306,0 0,-9z" />
<path style="fill:#333" d="M970,135 l-511,0 0,315 511,0 0,-315z" />
<path style="fill:#3d3d3d" d="M970,152 l-511,0 0,279 511,0 0,-279z" />
<path style="fill:#454545" d="M970,169 l-511,0 0,245 511,0 0,-245z" />
<path style="fill:#4f4f4f" d="M970,186 l-511,0 0,211 511,0 0,-211z" />
<path style="fill:#595959" d="M970,203 l-511,0 0,177 511,0 0,-177z" />
<path style="fill:#636363" d="M970,220 l-511,0 0,143 511,0 0,-143z" />
<path style="fill:#6b6b6b" d="M970,239 l-511,0 0,107 511,0 0,-107z" />
<path style="fill:#757575" d="M970,256 l-511,0 0,73 511,0 0,-73z" />
<path style="fill:#7f7f7f" d="M970,273 l-511,0 0,39 511,0 0,-39z" />
<path style="fill:#7f7f7f" d="M459,154 l-39,21 -236,0 0,-21 -19,0 0,275 19,0 0,-19 236,0 39,19 0,-275z" />
<path style="fill:#333" d="M165,429 l0,-275 -39,0 0,275 39,0z" />
<path style="fill:#3d3d3d" d="M165,414 l0,-243 -39,0 0,243 39,0z" />
<path style="fill:#454545" d="M165,397 l0,-211 -39,0 0,211 39,0z" />
<path style="fill:#4f4f4f" d="M165,382 l0,-181 -39,0 0,181 39,0z" />
<path style="fill:#595959" d="M165,367 l0,-149 -39,0 0,149 39,0z" />
<path style="fill:#636363" d="M165,350 l0,-117 -39,0 0,117 39,0z" />
<path style="fill:#6b6b6b" d="M165,335 l0,-85 -39,0 0,85 39,0z" />
<path style="fill:#757575" d="M165,318 l0,-53 -39,0 0,53 39,0z" />
<path style="fill:#7f7f7f" d="M165,303 l0,-21 -39,0 0,21 39,0z" />
<path style="fill:none;stroke:#000;stroke-width:2" d="M165,429 l0,-275 -39,0 0,275 39,0" />
<path style="fill:#8a8a8a" d="M459,169 l-39,17 -236,0 0,-17 -19,0 0,245 19,0 0,-17 236,0 39,17 0,-245z" />
<path style="fill:#919191" d="M459,184 l-39,15 -236,0 0,-15 -19,0 0,215 19,0 0,-15 236,0 39,15 0,-215z" />
<path style="fill:#9c9c9c" d="M459,199 l-39,13 -236,0 0,-13 -19,0 0,187 19,0 0,-13 236,0 39,13 0,-187z" />
<path style="fill:#a6a6a6" d="M459,212 l-39,12 -236,0 0,-12 -19,0 0,159 19,0 0,-11 236,0 39,11 0,-159z" />
<path style="fill:#b0b0b0" d="M459,228 l-39,9 -236,0 0,-9 -19,0 0,128 19,0 0,-10 236,0 39,10 0,-128z" />
<path style="fill:#b8b8b8" d="M459,243 l-39,7 -236,0 0,-7 -19,0 0,98 19,0 0,-6 236,0 39,6 0,-98z" />
<path style="fill:#c2c2c2" d="M459,258 l-39,3 -236,0 0,-3 -19,0 0,67 19,0 0,-3 236,0 39,3 0,-67z" />
<path style="fill:#ccc" d="M459,273 l-39,2 -236,0 0,-2 -19,0 0,39 19,0 0,-4 236,0 39,4 0,-39z" />
<path style="fill:#333" d="M126,352 l0,-119 -98,0 0,119 98,0z" />
<path style="fill:#3d3d3d" d="M126,345 l0,-105 -98,0 0,105 98,0z" />
<path style="fill:#454545" d="M126,337 l0,-91 -98,0 0,91 98,0z" />
<path style="fill:#4f4f4f" d="M126,331 l0,-77 -98,0 0,77 98,0z" />
<path style="fill:#595959" d="M126,324 l0,-64 -98,0 0,64 98,0z" />
<path style="fill:#636363" d="M126,318 l0,-51 -98,0 0,51 98,0z" />
<path style="fill:#6b6b6b" d="M126,310 l0,-35 -98,0 0,35 98,0z" />
<path style="fill:#757575" d="M126,303 l0,-23 -98,0 0,23 98,0z" />
<path style="fill:#7f7f7f" d="M126,297 l0,-9 -98,0 0,9 98,0z" />
<path style="fill:none;stroke:#000;stroke-width:2" d="M126,352 l0,-119 -98,0 0,119 98,0" />
<path style="fill:#333;stroke:#000;stroke-width:2" d="M126,233 l0,-58 -89,58 89,0z" />
<path style="fill:#000;stroke:#000;stroke-width:2" d="M126,350 l0,60 -89,-60 89,0z" />
<path style="fill:#4c4c4c;stroke:#000;stroke-width:2" d="M126,322 l0,39 -89,-39 89,0z" />
<path style="fill:#191919;stroke:#000;stroke-width:2" d="M126,263 l0,-39 -89,39 89,0z" />
<path style="fill:none;stroke:#000;stroke-width:2" d="M37,352 l0,-119" />
<path style="fill:#e5e5e5" d="M518,135 l-29,0 0,30 29,0 0,-30z" />
<path style="fill:none;stroke:#000;stroke-width:2" d="M970,135 l-511,0 0,315 511,0 0,-315" />
<path style="fill:#333" d="M922,303 l-157,0 0,156 157,0 0,-156z" />
<path style="fill:none;stroke:#ccc;stroke-width:2" d="M922,459 l0,-156 -157,0" />
<path style="fill:none;stroke:#000;stroke-width:2" d="M922,459 l-157,0 0,-156" />
<path style="fill:#000" d="M705,450 l-19,0 0,-49 19,0 0,49z" />
<path style="fill:#e5e5e5" d="M656,282 l-99,0 0,157 99,0 0,-157z" />
<path style="fill:#dedede" d="M656,390 l-99,0 0,49 99,0 0,-49z" />
<path style="fill:#d6d6d6" d="M656,420 l-99,0 0,19 99,0 0,-19z" />
<path style="fill:none;stroke:#fff;stroke-width:2" d="M656,282 l-99,0" />
<path style="fill:none;stroke:#000;stroke-width:2" d="M931,135 l0,315" />
<path style="fill:none;stroke:#000;stroke-width:2" d="M184,410 l0,-235" />
<path style="fill:#333" d="M891,46 l-235,0 0,89 235,0 0,-89z" />
<path style="fill:#454545" d="M891,46 l-235,0 0,40 235,0 0,-40z" />
<path style="fill:#595959" d="M891,46 l-235,0 0,30 235,0 0,-30z" />
<path style="fill:#6b6b6b" d="M891,46 l-235,0 0,19 235,0 0,-19z" />
<path style="fill:#7f7f7f" d="M891,46 l-235,0 0,10 235,0 0,-10z" />
<path style="fill:none;stroke:#000;stroke-width:2" d="M891,46 l-235,0 0,89 235,0 0,-89" />
<path style="fill:#333" d="M833,28 l-19,0 0,107 19,0 0,-107z" />
<path style="fill:#454545" d="M833,28 l-19,0 0,47 19,0 0,-47z" />
<path style="fill:#595959" d="M833,28 l-19,0 0,35 19,0 0,-35z" />
<path style="fill:#6b6b6b" d="M833,28 l-19,0 0,24 19,0 0,-24z" />
<path style="fill:#7f7f7f" d="M833,28 l-19,0 0,13 19,0 0,-13z" />
<path style="fill:none;stroke:#000;stroke-width:2" d="M833,28 l-19,0 0,107 19,0 0,-107" />
<path style="fill:none;stroke:#000;stroke-width:2" d="M420,410 l0,-235" />
<path style="fill:#ccc;stroke:#f00;stroke-width:2" d="M401,175 l-79,0 0,58 79,0 0,-58z" />
<path style="fill:none;stroke:#000;stroke-width:2" d="M459,154 l-39,21 -236,0 0,-21 -19,0 0,275 19,0 0,-19 236,0 39,19 0,-275" />

</svg>
