<?xml version="1.0" encoding="utf-8" standalone="no"?><!DOCTYPE svg PUBLIC "-//W3C//DTD SVG 1.1//EN" "http://www.w3.org/Graphics/SVG/1.1/DTD/svg11-flat-20030114.dtd"><svg width="999" height="868" version="1.1" xmlns="http://www.w3.org/2000/svg" xmlns:xlink="http://www.w3.org/1999/xlink">

<path style="fill:#3f1f00" d="M944,72 l-303,0 0,709 303,0 0,-709z" />
<path style="fill:#aa7f54" d="M944,72 l-303,0 0,709 303,0 0,-709z" />
<path style="fill:#b08961" d="M936,72 l-253,0 0,709 253,0 0,-709z" />
<path style="fill:#b89471" d="M930,72 l-206,0 0,709 206,0 0,-709z" />
<path style="fill:#bf9f7f" d="M924,72 l-161,0 0,709 161,0 0,-709z" />
<path style="fill:#c6a98c" d="M916,72 l-112,0 0,709 112,0 0,-709z" />
<path style="fill:#cdb49b" d="M910,72 l-64,0 0,709 64,0 0,-709z" />
<path style="fill:#d4bea9" d="M905,72 l-19,0 0,709 19,0 0,-709z" />
<path style="fill:none;stroke:#000;stroke-width:2" d="M944,72 l-303,0 0,709 303,0 0,-709" />
<path style="fill:#191919;stroke:#000;stroke-width:2" d="M136,323 l-50,0 0,501 50,0 0,-501z" />
<path style="fill:#7f7f7f;stroke:#000;stroke-width:2" d="M136,323 l-50,0 0,501 50,0 0,-501z" />
<path style="fill:#191919;stroke:#000;stroke-width:2" d="M136,323 l-52,-2 -18,-34 48,0 22,36z" />
<path style="fill:#e0e0e0;stroke:#000;stroke-width:2" d="M66,287 l18,34 0,501 -18,-39 0,-496z" />
<path style="fill:#217f21" d="M319,335 l0,-44 -92,0 -5,6 0,34 5,4 92,0z" />
<path style="fill:#217f21" d="M315,188 l-24,0 0,81 24,0 0,-81z" />
<path style="fill:#217f21" d="M217,178 l0,-10 120,0 0,10 -120,0z" />
<path style="fill:#217f21" d="M217,188 l120,0 0,-10 -120,0 0,10z" />
<path style="fill:#217f21" d="M315,168 l-24,0 0,-88 24,2 0,86z" />
<path style="fill:#217f21" d="M293,80 l-10,0 0,-23 10,0 0,23z" />
<path style="fill:#217f21" d="M281,57 l6,0 0,-17 -6,0 0,17z" />
<path style="fill:#217f21" d="M315,291 l-78,0 0,-16 0,-6 78,0 0,6 0,16z" />
<path style="fill:#43a143;stroke:#000;stroke-width:2" d="M261,80 l-2,0 0,-23 2,0 0,23z" />
<path style="fill:#43a143;stroke:#000;stroke-width:2" d="M237,168 l-2,0 0,-84 2,0 0,84z" />
<path style="fill:#43a143;stroke:#000;stroke-width:2" d="M287,57 l-10,0 -12,0 0,-17 12,0 10,0 0,17z" />
<path style="fill:#43a143;stroke:#000;stroke-width:2" d="M261,80 l16,-2 16,2 0,-23 -16,0 -16,0 0,23z" />
<path style="fill:#43a143;stroke:#000;stroke-width:2" d="M315,168 l-78,0 0,-88 40,-2 38,2 0,88z" />
<path style="fill:#43a143;stroke:#000;stroke-width:2" d="M220,178 l0,-8 83,0 0,8 -83,0z" />
<path style="fill:#43a143" d="M220,186 l83,0 0,-8 -83,0 0,8z" />
<path style="fill:#43a143" d="M315,188 l-78,0 0,81 78,0 0,-81z" />
<path style="fill:none;stroke:#000;stroke-width:2" d="M220,178 l0,8 83,0 0,-8 -83,0" />
<path style="fill:none;stroke:#000;stroke-width:2" d="M315,188 l-78,0 0,81 78,0 0,-81" />
<path style="fill:#217f21;stroke:#000;stroke-width:2" d="M237,188 l-12,0 10,81 2,0 0,-81z" />
<path style="fill:#005e00;stroke:#000;stroke-width:2" d="M277,188 l-2,0 0,81 2,0 0,-81z" />
<path style="fill:#005e00;stroke:#000;stroke-width:2" d="M327,188 l-12,0 0,81 4,0 8,-81z" />
<path style="fill:#005e00;stroke:#000;stroke-width:2" d="M277,168 l-2,0 0,-84 2,0 0,84z" />
<path style="fill:#005e00;stroke:#000;stroke-width:2" d="M319,168 l-4,0 0,-84 4,0 0,84z" />
<path style="fill:#005e00;stroke:#000;stroke-width:2" d="M295,80 l-2,0 0,-23 2,0 0,23z" />
<path style="fill:#005e00;stroke:#000;stroke-width:2" d="M275,78 l2,0 0,-21 -2,0 0,21z" />
<path style="fill:#43a143" d="M230,291 l75,0 6,6 0,32 -6,6 -75,0 -1,-6 0,-32 1,-6z" />
<path style="fill:#82e082" d="M235,291 l4,0 -2,6 0,32 2,6 -4,0 -2,-6 0,-32 2,-6z" />
<path style="fill:#82e082" d="M251,188 l-8,0 0,81 8,0 0,-81z" />
<path style="fill:#82e082" d="M225,178 l0,8 5,0 0,-8 -5,0z" />
<path style="fill:#82e082" d="M225,170 l5,0 0,8 -5,0 0,-8z" />
<path style="fill:#82e082" d="M251,168 l-8,0 0,-88 8,0 0,88z" />
<path style="fill:#82e082" d="M265,80 l-2,0 0,-23 2,0 0,23z" />
<path style="fill:#82e082" d="M267,57 l2,0 0,-17 -2,0 0,17z" />
<path style="fill:#217f21" d="M239,271 l0,4 54,0 0,-4 -54,0z" />
<path style="fill:#e5e5e5;stroke:#000;stroke-width:2" d="M251,27 l-39,0 -6,6 0,39 6,6 39,0 6,-6 0,-39 -6,-6z" />
<path style="fill:#e5e5e5;stroke:#000;stroke-width:2" d="M253,30 l-38,0 -7,5 0,39 7,6 38,0 6,-6 0,-39 -6,-5z" />
<ellipse style="fill:#000" cx="203" cy="192" rx="5" ry="138" />
<path style="fill:#ccc;stroke:#000;stroke-width:2" d="M651,140 l-296,0 0,298 10,8 296,-296 -10,-10z" />
<path style="fill:#e0e0e0;stroke:#000;stroke-width:2" d="M663,150 l-298,0 0,296 298,0 0,-296z" />
<path style="fill:#fff;stroke:#000;stroke-width:2" d="M643,168 l-149,0 0,149 149,0 0,-149z" />
<path style="fill:#000" d="M388,168 l62,0 0,50 -62,0 0,-50z" />
<path style="fill:#000" d="M631,182 l-8,0 0,8 8,0 0,-8z" />
<path style="fill:#000" d="M631,222 l-8,0 0,11 8,0 0,-11z" />
<path style="fill:#000" d="M631,265 l-8,0 0,8 8,0 0,-8z" />
<path style="fill:#000" d="M608,182 l-10,0 0,8 10,0 0,-8z" />
<path style="fill:#000" d="M608,222 l-10,0 0,11 10,0 0,-11z" />
<path style="fill:#000" d="M608,265 l-10,0 0,8 10,0 0,-8z" />
<path style="fill:#000" d="M586,182 l-10,0 0,8 10,0 0,-8z" />
<path style="fill:#000" d="M586,222 l-10,0 0,11 10,0 0,-11z" />
<path style="fill:#000" d="M586,265 l-10,0 0,8 10,0 0,-8z" />
<path style="fill:#000" d="M564,182 l-10,0 0,8 10,0 0,-8z" />
<path style="fill:#000" d="M564,222 l-10,0 0,11 10,0 0,-11z" />
<path style="fill:#000" d="M564,265 l-10,0 0,8 10,0 0,-8z" />
<path style="fill:#000" d="M542,182 l-10,0 0,8 10,0 0,-8z" />
<path style="fill:#000" d="M542,222 l-10,0 0,11 10,0 0,-11z" />
<path style="fill:#000" d="M542,265 l-10,0 0,8 10,0 0,-8z" />
<path style="fill:#000" d="M520,182 l-10,0 0,8 10,0 0,-8z" />
<path style="fill:#000" d="M520,222 l-10,0 0,11 10,0 0,-11z" />
<path style="fill:#000" d="M520,265 l-10,0 0,8 10,0 0,-8z" />
<path style="fill:#e0e0e0;stroke:#000;stroke-width:2" d="M653,448 l-18,0 0,338 18,0 0,-338z" />
<path style="fill:#e0e0e0;stroke:#000;stroke-width:2" d="M391,446 l-18,0 0,344 18,0 0,-344z" />
<path style="fill:none;stroke:#000;stroke-width:2" d="M605,448 l0,223 -2,26 -6,24 -9,22 -259,0" />
<path style="fill:none;stroke:#000;stroke-width:2" d="M603,448 l0,219 -3,26 -5,24 -9,22 -257,0" />
<path style="fill:none;stroke:#000;stroke-width:2" d="M598,448 l0,217 -1,24 -4,24 -8,22 -256,0" />
<path style="fill:none;stroke:#000;stroke-width:2" d="M597,448 l0,213 -2,26 -5,24 -5,20 -256,0" />
<path style="fill:none;stroke:#000;stroke-width:2" d="M595,448 l0,211 -2,24 -5,24 -5,22 -254,0" />
<path style="fill:none;stroke:#000;stroke-width:2" d="M590,448 l0,207 0,26 -4,22 -6,22 -251,0" />
<path style="fill:none;stroke:#000;stroke-width:2" d="M588,448 l0,205 -2,24 -1,22 -7,22 -249,0" />
<path style="fill:none;stroke:#000;stroke-width:2" d="M586,448 l0,203 -1,24 -2,20 -7,22 -247,0" />
<path style="fill:none;stroke:#000;stroke-width:2" d="M583,448 l0,199 0,24 -3,22 -6,20 -245,0" />
<path style="fill:none;stroke:#000;stroke-width:2" d="M580,448 l0,197 0,22 -2,22 -4,20 -245,0" />
<path style="fill:none;stroke:#000;stroke-width:2" d="M578,448 l0,193 -2,24 -2,20 -1,20 -244,0" />
<path style="fill:none;stroke:#000;stroke-width:2" d="M576,448 l0,191 -2,22 -1,22 -3,18 -241,0" />
<path style="fill:none;stroke:#000;stroke-width:2" d="M573,448 l0,189 0,22 -3,20 -2,20 -239,0" />
<path style="fill:none;stroke:#000;stroke-width:2" d="M570,448 l0,185 0,22 -2,20 -2,20 -237,0" />
<path style="fill:#cdb49b;stroke:#000;stroke-width:2" d="M200,788 l135,0 0,-451 -135,0 0,451z" />
<path style="fill:#b89471;stroke:#000;stroke-width:2" d="M200,788 l-10,-23 0,-450 10,22 0,451z" />
<path style="fill:#b89471;stroke:#000;stroke-width:2" d="M190,315 l133,0 12,22 -135,0 -10,-22z" />
<path style="fill:none;stroke:#000;stroke-width:2" d="M309,401 l-87,0" />
<path style="fill:none;stroke:#000;stroke-width:2" d="M309,418 l-87,0" />
<path style="fill:none;stroke:#000;stroke-width:2" d="M309,436 l-87,0" />
<path style="fill:none;stroke:#000;stroke-width:2" d="M309,454 l-87,0" />
<path style="fill:none;stroke:#000;stroke-width:2" d="M309,470 l-87,0" />
<path style="fill:none;stroke:#000;stroke-width:2" d="M309,488 l-87,0" />
<path style="fill:none;stroke:#000;stroke-width:2" d="M309,506 l-87,0" />
<path style="fill:none;stroke:#000;stroke-width:2" d="M309,522 l-87,0" />
<path style="fill:none;stroke:#000;stroke-width:2" d="M309,540 l-87,0" />
<path style="fill:none;stroke:#000;stroke-width:2" d="M309,558 l-87,0" />
<path style="fill:none;stroke:#000;stroke-width:2" d="M309,574 l-87,0" />
<path style="fill:none;stroke:#000;stroke-width:2" d="M309,593 l-87,0" />
<path style="fill:none;stroke:#000;stroke-width:2" d="M309,608 l-87,0" />
<path style="fill:none;stroke:#000;stroke-width:2" d="M309,627 l-87,0" />
<path style="fill:none;stroke:#000;stroke-width:2" d="M309,645 l-87,0" />
<path style="fill:none;stroke:#000;stroke-width:2" d="M309,661 l-87,0" />
<path style="fill:none;stroke:#000;stroke-width:2" d="M309,679 l-87,0" />
<path style="fill:none;stroke:#000;stroke-width:2" d="M309,697 l-87,0" />
<path style="fill:none;stroke:#000;stroke-width:2" d="M309,713 l-87,0" />
<path style="fill:#aa7f54;stroke:#000;stroke-width:2" d="M971,781 l-8,9 -928,0 -8,-9 944,0z" />
<path style="fill:#c6a98c" d="M963,790 l-43,42 -842,0 -43,-42 928,0z" />
<path style="fill:#aa7f54" d="M963,790 l-10,10 -908,0 -10,-10 928,0z" />
<path style="fill:#aa7f54;stroke:#000;stroke-width:2" d="M920,832 l-8,8 -826,0 -8,-8 842,0z" />
<path style="fill:none;stroke:#000;stroke-width:2" d="M963,790 l-43,42 -842,0 -43,-42 928,0" />
<path style="fill:#f0f0f0;stroke:#000;stroke-width:2" d="M737,673 l8,-4 4,-10 0,-18 -8,-2 -6,2 0,10 -4,4 -4,2 -392,0 0,16 402,0z" />
<path style="fill:#f0f0f0;stroke:#000;stroke-width:2" d="M735,144 l2,-10 10,-4 21,0 1,8 -1,8 -10,0 -7,2 -2,4 0,487 -14,0 0,-495z" />

</svg>
