<?xml version="1.0" encoding="utf-8" standalone="no"?><!DOCTYPE svg PUBLIC "-//W3C//DTD SVG 1.1//EN" "http://www.w3.org/Graphics/SVG/1.1/DTD/svg11-flat-20030114.dtd"><svg width="827" height="999" version="1.1" xmlns="http://www.w3.org/2000/svg" xmlns:xlink="http://www.w3.org/1999/xlink">

<path style="fill:#060" d="M713,28 l-21,257 -22,0 0,43 -278,-43 -22,-257 343,0z" />
<path style="fill:#007f00" d="M649,28 l-13,257 -14,0 0,43 -174,-43 -13,-257 214,0z" />
<path style="fill:none;stroke:#000;stroke-width:2" d="M713,28 l-21,257 -22,0 0,43 -278,-43 -22,-257 343,0" />
<path style="fill:none;stroke:#000;stroke-width:2" d="M670,285 l-42,0" />
<path style="fill:#007f00;stroke:#000;stroke-width:2" d="M756,542 l0,428 -128,0 0,-42 -129,-86 -171,0 -129,86 0,42 -129,0 0,-428 686,0z" />
<path style="fill:#004c00;stroke:#000;stroke-width:2" d="M713,670 l0,258 -85,0 -129,-86 -171,0 -129,86 -86,0 0,-258 600,0z" />
<path style="fill:#060;stroke:#000;stroke-width:2" d="M775,603 l24,-61 -24,-62 -62,-24 -61,24 -24,62 24,61 61,25 62,-25z" />
<path style="fill:#060;stroke:#000;stroke-width:2" d="M647,260 l-41,-52 -65,-10 -52,41 -10,66 42,51 65,10 52,-41 9,-65z" />
<path style="fill:#060;stroke:#000;stroke-width:2" d="M286,198 l-65,10 -42,52 10,65 52,41 65,-10 41,-51 -9,-66 -52,-41z" />
<path style="fill:#060;stroke:#000;stroke-width:2" d="M52,480 l-24,62 24,61 61,25 62,-25 24,-61 -24,-62 -62,-24 -61,24z" />
<path style="fill:#060;stroke:#000;stroke-width:2" d="M179,824 l42,52 65,9 52,-40 9,-66 -41,-52 -65,-9 -52,41 -10,65z" />
<path style="fill:#060;stroke:#000;stroke-width:2" d="M541,885 l65,-9 41,-52 -9,-65 -52,-41 -65,9 -42,52 10,66 52,40z" />
<circle style="fill:#090;stroke:#000;stroke-width:2" cx="413" cy="542" r="343" />
<path style="fill:#007f00" d="M628,49 l-429,0 0,64 429,0 0,-64z" />
<circle style="fill:#007f00" cx="413" cy="541" r="246" />
<path style="fill:none;stroke:#fff;stroke-width:2" d="M724,542 l-2,-32 -4,-31 -8,-29 -10,-29 -14,-27 -15,-26 -18,-24 -20,-22 -22,-20 -24,-18 -26,-15 -27,-13 -28,-11 -30,-8 -31,-4 -32,-2" />
<path style="fill:#00ad00;stroke:#000;stroke-width:2" d="M413,885 l-35,-2 -34,-5 -33,-9 -31,-11 -30,-15 -28,-17 -27,-20 -24,-22 -22,-24 -20,-27 -17,-28 -14,-30 -12,-31 -9,-33 -5,-34 -1,-17 -1,-18 1,-12 3,-37 7,-36 11,-34 14,-34 18,-31 21,-29 24,-27 27,-25 29,-22 32,-18 11,-6 60,-32 10,-53 0,-33 150,0 0,43 -11,75 -53,64 -117,61 -24,16 -21,18 -18,21 -16,24 -12,25 -9,26 -6,27 -2,29 4,43 13,40 20,37 26,31 32,26 36,20 40,13 43,4 0,129z" />
<path style="fill:#00ad00" d="M411,758 l38,8 58,-1 62,-14 67,-36 54,-47 -26,59 -36,50 -36,39 -53,33 -75,26 -53,7 0,-124z" />
<circle style="fill:#00bf00;stroke:#000;stroke-width:2" cx="413" cy="542" r="214" />
<circle style="fill:#4c4c4c;stroke:#000;stroke-width:2" cx="413" cy="542" r="107" />
<path style="fill:#4c4c4c" d="M600,526 l-15,-6 -15,6 -6,16 6,15 15,6 15,-6 6,-15 -6,-16z" />
<path style="fill:#4c4c4c" d="M556,663 l-6,-15 -15,-6 -15,6 -7,15 7,15 15,6 15,-6 6,-15z" />
<path style="fill:#4c4c4c" d="M428,728 l7,-15 -7,-15 -15,-6 -15,6 -6,15 6,15 15,7 15,-7z" />
<path style="fill:#4c4c4c" d="M292,684 l15,-6 6,-15 -6,-15 -15,-6 -15,6 -6,15 6,15 15,6z" />
<path style="fill:#4c4c4c" d="M257,526 l-15,-6 -15,6 -6,16 6,15 15,6 15,-6 6,-15 -6,-16z" />
<path style="fill:#4c4c4c" d="M314,420 l-7,-15 -15,-6 -15,6 -6,15 6,15 15,7 15,-7 7,-15z" />
<path style="fill:#4c4c4c" d="M428,385 l7,-15 -7,-15 -15,-6 -15,6 -6,15 6,15 15,6 15,-6z" />
<path style="fill:#4c4c4c" d="M535,442 l14,-7 7,-15 -7,-15 -14,-6 -15,6 -7,15 7,15 15,7z" />
<path style="fill:#009400" d="M570,49 l-314,0 0,64 314,0 0,-64z" />
<path style="fill:#00ab00" d="M513,49 l-200,0 0,64 200,0 0,-64z" />
<path style="fill:#00bf00" d="M457,49 l-87,0 0,64 87,0 0,-64z" />
<path style="fill:none;stroke:#000;stroke-width:2" d="M628,48 l-428,0 0,65 428,0 0,-65" />
<path style="fill:none;stroke:#007f00;stroke-width:2" d="M194,322 l-20,23 -19,24 -15,26 -13,28 -11,29 -7,29 -5,30 -1,16 0,15 0,16 3,31 7,30 9,29 12,28 14,27 16,24 20,24 21,21 23,19 25,17 26,14 28,12 29,9 30,6 31,3 16,0 15,0 31,-3 30,-6 29,-9 28,-12 27,-14 25,-17 24,-19 11,-11" />

</svg>
