<?xml version="1.0" encoding="utf-8" standalone="no"?><!DOCTYPE svg PUBLIC "-//W3C//DTD SVG 1.1//EN" "http://www.w3.org/Graphics/SVG/1.1/DTD/svg11-flat-20030114.dtd"><svg width="999" height="516" version="1.1" xmlns="http://www.w3.org/2000/svg" xmlns:xlink="http://www.w3.org/1999/xlink">

<path style="fill:#4c7f7f" d="M254,126 l0,318 -141,0 0,-318 141,0z" />
<path style="fill:#699" d="M254,154 l0,260 -141,0 0,-260 141,0z" />
<path style="fill:#7fb2b2" d="M254,194 l0,181 -141,0 0,-181 141,0z" />
<path style="fill:#9cc" d="M254,239 l0,90 -141,0 0,-90 141,0z" />
<path style="fill:none;stroke:#000;stroke-width:2" d="M254,126 l0,318 -141,0 0,-318 141,0" />
<path style="fill:#194c4c;stroke:#000;stroke-width:2" d="M220,126 l-89,0 0,318 89,0 0,-318z" />
<path style="fill:#366;stroke:#000;stroke-width:2" d="M946,401 l-245,0 0,13 245,0 0,-13z" />
<path style="fill:#366;stroke:#000;stroke-width:2" d="M676,216 l-24,0 0,157 24,0 0,-157z" />
<path style="fill:#4c7f7f;stroke:#000;stroke-width:2" d="M953,395 l-19,0 0,47 19,0 0,-47z" />
<path style="fill:#4c7f7f;stroke:#000;stroke-width:2" d="M884,395 l-17,0 0,47 17,0 0,-47z" />
<path style="fill:#4c7f7f;stroke:#000;stroke-width:2" d="M720,395 l-19,0 0,47 19,0 0,-47z" />
<path style="fill:#4c7f7f" d="M946,399 l-257,0 -18,-15 0,-179 18,-17 4,0 5,0 248,0 21,18 3,10 0,2 0,6 0,145 -12,25 -10,5 -2,0z" />
<path style="fill:#699" d="M946,380 l-257,0 -18,-15 0,-147 18,-9 4,0 5,0 248,0 22,15 2,4 0,5 0,5 0,118 -16,22 -4,2 -4,0z" />
<path style="fill:#7fb2b2" d="M946,354 l-257,0 -18,-11 0,-102 18,-8 4,0 5,0 248,0 22,12 2,4 0,3 0,6 0,79 -20,17 -4,0z" />
<path style="fill:#9cc" d="M946,324 l-257,0 -18,-8 0,-45 18,-8 4,0 5,0 248,0 24,8 0,2 0,3 0,40 0,2 -20,6 -4,0z" />
<path style="fill:none;stroke:#000;stroke-width:2" d="M946,399 l-257,0 -18,-15 0,-179 18,-17 4,0 5,0 248,0 21,18 3,10 0,2 0,6 0,145 -12,25 -10,5 -2,0" />
<path style="fill:#699;stroke:#000;stroke-width:2" d="M906,388 l-83,0 0,-115 83,0 0,115z" />
<path style="fill:none;stroke:#fff;stroke-width:2" d="M900,384 l0,-104 -71,0" />
<path style="fill:#9cc;stroke:#000;stroke-width:2" d="M970,441 l-899,0 0,47 899,0 0,-47z" />
<path style="fill:#9cc;stroke:#000;stroke-width:2" d="M650,182 l-396,0 0,211 396,0 0,-211z" />
<path style="fill:#b2e5e5" d="M648,188 l-388,0 0,55 388,0 0,-55z" />
<path style="fill:#4c7f7f" d="M254,28 l-140,0 0,21 140,0 0,-21z" />
<path style="fill:#699" d="M241,28 l-115,0 0,21 115,0 0,-21z" />
<path style="fill:#7fb2b2" d="M224,28 l-79,0 0,21 79,0 0,-21z" />
<path style="fill:#9cc" d="M203,28 l-40,0 0,21 40,0 0,-21z" />
<path style="fill:none;stroke:#000;stroke-width:2" d="M254,28 l-140,0 0,21 140,0 0,-21" />
<path style="fill:#4c7f7f" d="M201,47 l-34,0 0,35 34,0 0,-35z" />
<path style="fill:#699" d="M197,47 l-28,0 0,35 28,0 0,-35z" />
<path style="fill:#7fb2b2" d="M194,47 l-21,0 0,35 21,0 0,-35z" />
<path style="fill:#9cc" d="M188,47 l-9,0 0,35 9,0 0,-35z" />
<path style="fill:none;stroke:#000;stroke-width:2" d="M201,47 l-34,0 0,35 34,0 0,-35" />
<path style="fill:none;stroke:#000;stroke-width:2" d="M916,399 l0,-209" />
<path style="fill:none;stroke:#000;stroke-width:2" d="M691,399 l0,-209" />
<circle style="fill:#4c7f7f;stroke:#000;stroke-width:2" cx="806" cy="392" r="17" />
<path style="fill:#7fb2b2;stroke:#000;stroke-width:2" d="M655,390 l-401,0 0,49 401,0 0,-49z" />
<path style="fill:#366;stroke:#000;stroke-width:2" d="M520,410 l-266,0 0,29 266,0 0,-29z" />
<path style="fill:#699;stroke:#000;stroke-width:2" d="M514,212 l0,-28 15,0 0,28 0,2 0,1 -1,2 -1,1 -1,1 -2,0 -1,1 -1,0 -2,0 -1,-1 -1,0 -2,-1 -1,-1 0,-2 -1,-1 0,-2z" />
<path style="fill:#699;stroke:#000;stroke-width:2" d="M367,212 l0,-28 15,0 0,28 0,2 0,1 -1,2 -1,1 -1,1 -2,0 -1,1 -1,0 -2,0 -1,-1 -1,0 -2,-1 -1,-1 0,-2 -1,-1 0,-2z" />
<path style="fill:#7fb2b2;stroke:#000;stroke-width:2" d="M220,346 l-89,0 0,15 89,0 0,-15z" />
<path style="fill:#699;stroke:#000;stroke-width:2" d="M220,410 l-89,0 0,14 89,0 0,-14z" />
<path style="fill:#9cc;stroke:#000;stroke-width:2" d="M220,282 l-89,0 0,15 89,0 0,-15z" />
<path style="fill:#9cc;stroke:#000;stroke-width:2" d="M220,209 l-89,0 0,15 89,0 0,-15z" />
<path style="fill:#9cc;stroke:#000;stroke-width:2" d="M220,145 l-89,0 0,15 89,0 0,-15z" />
<path style="fill:#366;stroke:#000;stroke-width:2" d="M254,81 l-141,0 0,45 141,0 0,-45z" />
<path style="fill:none;stroke:#fff;stroke-width:2" d="M245,116 l0,-30 -123,0" />
<path style="fill:#366;stroke:#000;stroke-width:2" d="M113,105 l-40,0 0,202 40,0 0,-202z" />
<path style="fill:#4c7f7f" d="M73,224 l40,83 -83,0 -2,-83 45,0z" />
<path style="fill:#699" d="M77,231 l32,68 -79,0 0,-68 47,0z" />
<path style="fill:#7fb2b2" d="M82,241 l21,47 -73,0 0,-47 52,0z" />
<path style="fill:#9cc" d="M86,252 l12,25 -68,0 0,-25 56,0z" />
<path style="fill:none;stroke:#000;stroke-width:2" d="M113,307 l-83,0 0,-83 43,0" />

</svg>
