<?xml version="1.0" encoding="utf-8" standalone="no"?><!DOCTYPE svg PUBLIC "-//W3C//DTD SVG 1.1//EN" "http://www.w3.org/Graphics/SVG/1.1/DTD/svg11-flat-20030114.dtd"><svg width="819" height="998" version="1.1" xmlns="http://www.w3.org/2000/svg" xmlns:xlink="http://www.w3.org/1999/xlink">

<path style="fill:#00007f;stroke:#000;stroke-width:2" d="M624,899 l-20,71 -34,0 -27,-68 81,-3z" />
<path style="fill:#00007f;stroke:#000;stroke-width:2" d="M141,899 l-22,71 -33,0 -26,-68 81,-3z" />
<path style="fill:#00007f;stroke:#000;stroke-width:2" d="M374,899 l-17,53 -24,0 -20,-50 61,-3z" />
<path style="fill:#0000bf;fill-rule:evenodd" d="M323,40 l-22,10 -10,22 10,22 22,10 22,-10 10,-22 -10,-22 -22,-10z M323,28 l-30,14 -14,30 9,28 29,17 0,38 14,0 0,-38 26,-17 10,-28 -12,-30 -32,-14z " />
<path style="fill:none;stroke:#000;stroke-width:2" d="M323,40 l-22,10 -10,22 10,22 22,10 22,-10 10,-22 -10,-22 -22,-10" />
<path style="fill:none;stroke:#000;stroke-width:2" d="M323,28 l-30,14 -14,30 9,28 29,17 0,38 14,0 0,-38 26,-17 10,-28 -12,-30 -32,-14" />
<path style="fill:#00007f;stroke:#000;stroke-width:2" d="M487,117 l-53,0 -54,0 -13,4 -6,12 0,28 144,0 0,-28 -6,-12 -12,-4z" />
<path style="fill:#0000ad" d="M48,653 l570,0 23,28 0,202 -23,29 -570,0 -20,-29 0,-202 20,-28z" />
<path style="fill:#0000ad" d="M641,744 l0,135 101,0 0,-135 -101,0z" />
<path style="fill:#0000ad" d="M742,942 l48,0 0,-263 -48,0 0,263z" />
<path style="fill:#0000bf" d="M746,932 l40,0 0,-180 -40,0 0,180z" />
<path style="fill:#0000bf" d="M641,780 l0,93 101,0 0,-93 -101,0z" />
<path style="fill:#0000bf" d="M78,657 l498,0 28,26 0,198 -28,27 -498,0 -20,-27 0,-198 20,-26z" />
<path style="fill:#0000bf;stroke:#000;stroke-width:2" d="M131,598 l427,0 -15,6 69,43 -2,6 -558,0 -2,-6 93,-43 -12,-6z" />
<path style="fill:#7f7fff" d="M556,657 l-21,0 15,26 0,198 -15,27 21,0 22,-27 0,-198 -22,-26z" />
<path style="fill:#7f7fff" d="M641,861 l0,8 101,0 0,-8 -101,0z" />
<path style="fill:#7f7fff" d="M746,924 l40,0 0,-16 -40,0 0,16z" />
<path style="fill:#f0f0f0;stroke:#000;stroke-width:2" d="M442,631 l22,0 0,18 -22,0 0,-18z" />
<path style="fill:#f0f0f0;stroke:#000;stroke-width:2" d="M208,631 l22,0 0,18 -22,0 0,-18z" />
<path style="fill:#f0f0f0;stroke:#000;stroke-width:2" d="M329,631 l22,0 0,18 -22,0 0,-18z" />
<path style="fill:#f0f0f0;stroke:#000;stroke-width:2" d="M580,631 l22,0 0,18 -22,0 0,-18z" />
<path style="fill:none;stroke:#000;stroke-width:2" d="M48,653 l570,0 23,28 0,202 -23,29 -570,0 -20,-29 0,-202 20,-28" />
<path style="fill:none;stroke:#000;stroke-width:2" d="M641,744 l0,135 101,0 0,-135 -101,0" />
<path style="fill:none;stroke:#000;stroke-width:2" d="M742,942 l48,0 0,-263 -48,0 0,263" />
<path style="fill:#f0f0f0;stroke:#000;stroke-width:2" d="M84,631 l23,0 0,18 -23,0 0,-18z" />
<path style="fill:#0000ad" d="M507,159 l24,116 19,113 8,113 4,115 -433,0 4,-115 8,-113 18,-113 24,-116 84,-16 78,-6 81,6 81,16z" />
<path style="fill:#0000bf" d="M499,157 l22,115 18,114 8,115 4,115 -368,0 5,-117 8,-117 12,-118 18,-115 69,-8 66,-4 69,6 69,14z" />
<path style="fill:#7f7fff" d="M493,155 l22,116 16,115 11,115 4,115 -17,0 -4,-117 -8,-115 -16,-116 -18,-115 10,2z" />
<path style="fill:none;stroke:#000;stroke-width:2" d="M507,159 l24,116 19,113 8,113 4,115 -433,0 4,-115 8,-113 18,-113 24,-116 84,-16 78,-6 81,6 81,16" />

</svg>
