<?xml version="1.0" encoding="utf-8" standalone="no"?><!DOCTYPE svg PUBLIC "-//W3C//DTD SVG 1.1//EN" "http://www.w3.org/Graphics/SVG/1.1/DTD/svg11-flat-20030114.dtd"><svg width="684" height="999" version="1.1" xmlns="http://www.w3.org/2000/svg" xmlns:xlink="http://www.w3.org/1999/xlink">

<path style="fill:#0ff;stroke:#000;stroke-width:2" d="M536,730 l20,-21 19,-24 17,-26 15,-27 13,-29 11,-30 10,-32 7,-32 5,-33 2,-33 1,-11 0,-12 -1,-39 -5,-39 -8,-38 -11,-36 -13,-34 -16,-33 -18,-30 -20,-28 -22,-25 -24,-23 -27,-20 -27,-16 -29,-14 -30,-9 -31,-6 -16,-2 -16,0 -16,0 -32,4 -30,8 -30,12 -28,15 -27,18 -25,21 -23,24 -22,27 -19,29 -17,31 -14,34 -12,35 -9,36 -6,39 -4,39 0,20 0,12 2,33 4,33 7,33 8,31 11,31 13,30 15,28 16,26 19,24 19,22 7,7 -121,240 628,0 -120,-240z" />
<path style="fill:none;stroke:#000;stroke-width:2" d="M149,730 l21,19 23,16 23,14 24,12 25,10 25,6 39,6 13,0 39,-3 26,-5 25,-8 25,-11 24,-13 23,-15 21,-18 11,-10" />

</svg>
