<?xml version="1.0" encoding="utf-8" standalone="no"?><!DOCTYPE svg PUBLIC "-//W3C//DTD SVG 1.1//EN" "http://www.w3.org/Graphics/SVG/1.1/DTD/svg11-flat-20030114.dtd"><svg width="999" height="999" version="1.1" xmlns="http://www.w3.org/2000/svg" xmlns:xlink="http://www.w3.org/1999/xlink">

<path style="fill:#0ff;stroke:#000;stroke-width:2" d="M343,735 l-27,-22 -25,-24 -23,-26 -19,-28 -18,-29 -15,-31 -12,-32 -9,-33 -7,-33 -3,-34 -1,-23 -156,0 0,-392 550,0 40,2 39,6 37,10 36,13 34,17 33,19 30,23 28,25 25,28 23,30 19,33 17,34 13,36 10,37 6,39 2,20 0,20 0,11 -3,35 -5,34 -9,33 -11,32 -14,31 -17,30 -19,29 -21,26 -24,24 -26,23 -9,7 119,235 -707,0 119,-235z" />
<path style="fill:none;stroke:#000;stroke-width:2" d="M341,735 l26,18 27,16 29,13 30,11 31,9 31,6 31,5 16,0 8,1 8,0 32,-1 31,-5 30,-6 30,-10 30,-11 28,-13 27,-16 20,-13 6,-4" />

</svg>
