<?xml version="1.0" encoding="utf-8" standalone="no"?><!DOCTYPE svg PUBLIC "-//W3C//DTD SVG 1.1//EN" "http://www.w3.org/Graphics/SVG/1.1/DTD/svg11-flat-20030114.dtd"><svg width="841" height="999" version="1.1" xmlns="http://www.w3.org/2000/svg" xmlns:xlink="http://www.w3.org/1999/xlink">

<path style="fill:#0ff" d="M735,813 l29,-6 25,-18 18,-25 6,-22 0,-7 0,-20 0,-609 -6,-29 -18,-25 -25,-18 -22,-6 -7,0 -20,0 -609,0 -29,6 -25,18 -18,25 -6,22 0,7 0,20 0,609 6,29 18,25 25,18 29,6 157,0 -39,137 -39,20 471,0 -39,-20 -39,-137 157,0z" />
<path style="fill:none;stroke:#000;stroke-width:2" d="M735,894 l0,-81 29,-6 25,-18 18,-25 6,-22 0,-7 0,-20 0,-609 -6,-29 -18,-25 -25,-18 -22,-6 -7,0 -20,0 -609,0 -29,6 -25,18 -18,25 -6,22 0,7 0,20 0,609 6,29 18,25 25,18 29,6 157,0 -39,137 -39,20 471,0 -39,-20 -39,-137 157,0" />
<circle style="fill:none;stroke:#000;stroke-width:2" cx="420" cy="420" r="392" />
<circle style="fill:none;stroke:#000;stroke-width:2" cx="420" cy="106" r="59" />
<circle style="fill:none;stroke:#000;stroke-width:2" cx="692" cy="263" r="58" />
<circle style="fill:none;stroke:#000;stroke-width:2" cx="692" cy="577" r="58" />
<circle style="fill:none;stroke:#000;stroke-width:2" cx="420" cy="735" r="59" />
<circle style="fill:none;stroke:#000;stroke-width:2" cx="148" cy="577" r="58" />
<circle style="fill:none;stroke:#000;stroke-width:2" cx="148" cy="263" r="58" />
<path style="fill:none;stroke:#000;stroke-width:2" d="M578,813 l-315,0" />

</svg>
