<?xml version="1.0" encoding="utf-8" standalone="no"?><!DOCTYPE svg PUBLIC "-//W3C//DTD SVG 1.1//EN" "http://www.w3.org/Graphics/SVG/1.1/DTD/svg11-flat-20030114.dtd"><svg width="915" height="999" version="1.1" xmlns="http://www.w3.org/2000/svg" xmlns:xlink="http://www.w3.org/1999/xlink">

<path style="fill:#43a143;stroke:#000;stroke-width:2" d="M846,645 l27,-158 9,-165 5,-172 0,-122 -290,0 0,268 -31,-29 -60,-31 -64,-19 -70,-8 -69,8 -65,19 -57,31 -50,43 -43,50 -32,60 -21,65 -7,69 7,69 21,65 32,58 43,50 50,43 57,31 65,21 67,17 84,-2 78,-12 106,-39 91,-52 62,-74 55,-84z" />
<path style="fill:#217f21" d="M35,499 l215,376 -12,-5 -57,-31 -50,-43 -43,-50 -32,-58 -21,-65 -7,-69 7,-55z" />
<circle style="fill:none;stroke:#000;stroke-width:2" cx="373" cy="552" r="307" />
<path style="fill:#217f21" d="M205,580 l-93,-55 -32,-62 -9,29 -5,62 5,62 19,58 29,50 36,48 47,36 51,29 57,18 62,5 63,-5 57,-18 19,-10 -266,-129 -40,-118z" />
<path style="fill:none;stroke:#000;stroke-width:2" d="M372,329 l-45,5 -41,12 -38,21 -34,27 -26,33 -21,39 -15,42 -5,46 5,45 15,41 21,38 26,34 34,26 38,22 41,14 45,5 46,-5 43,-14 38,-22 33,-26 27,-34 21,-38 12,-41 5,-45 -5,-46 -12,-42 -21,-39 -27,-33 -33,-27 -38,-21 -43,-12 -46,-5" />
<circle style="fill:#f0f0f0" cx="372" cy="554" r="155" />
<path style="fill:#217f21;stroke:#000;stroke-width:2" d="M652,425 l-24,-43 -38,-46 -46,-38 -52,-29 -38,-12 -41,-45 29,5 64,19 60,31 31,29 0,-268 55,0 0,397z" />
<path style="fill:#217f21;stroke:#000;stroke-width:2" d="M291,561 l-72,0 0,237 60,0 96,-29 93,29 60,0 0,-237 -72,0 0,41 -41,41 -81,0 -43,-41 0,-41z" />
<path style="fill:#217f21;stroke:#000;stroke-width:2" d="M568,798 l-377,0 0,156 377,0 0,-156z" />
<circle style="fill:#217f21" cx="373" cy="553" r="140" />
<path style="fill:#82e082;stroke:#000;stroke-width:2" d="M372,475 l-31,5 -24,16 -17,27 -7,31 7,31 17,24 24,17 31,7 31,-7 27,-17 17,-24 4,-31 -4,-31 -17,-27 -27,-16 -31,-5z" />
<circle style="fill:#b2b2b2;stroke:#000;stroke-width:2" cx="373" cy="553" r="53" />
<path style="fill:#e5e5e5;stroke:#000;stroke-width:2" d="M372,513 l-14,3 -14,9 -8,12 -2,17 2,14 8,15 14,7 14,2 17,-2 12,-7 10,-15 2,-14 -2,-17 -10,-12 -12,-9 -17,-3z" />
<path style="fill:#43a143" d="M35,597 l2,12 115,-12 -2,-12 -115,12z" />
<path style="fill:#43a143" d="M114,774 l7,10 88,-77 -7,-7 -88,74z" />
<path style="fill:#82e082" d="M327,334 l-7,2 14,67 7,-2 -14,-67z" />
<path style="fill:#82e082" d="M454,343 l-7,-2 -22,65 7,2 22,-65z" />
<path style="fill:#82e082" d="M552,420 l-5,-5 -53,41 5,5 53,-41z" />
<path style="fill:#82e082" d="M595,537 l0,-7 -67,7 0,7 67,-7z" />
<path style="fill:#82e082" d="M568,659 l3,-7 -43,-21 0,7 40,21z" />
<path style="fill:#82e082" d="M164,631 l3,7 54,-19 -4,-8 -53,20z" />
<path style="fill:#82e082" d="M155,506 l-3,7 67,15 0,-8 -64,-14z" />
<path style="fill:#82e082" d="M214,394 l-5,7 51,48 5,-7 -51,-48z" />
<path style="fill:#82e082" d="M66,411 l-5,9 103,48 5,-10 -103,-47z" />
<path style="fill:#82e082" d="M193,267 l-10,5 62,95 10,-4 -62,-96z" />
<path style="fill:#82e082" d="M379,214 l-12,0 0,122 12,0 0,-122z" />
<path style="fill:#82e082" d="M561,272 l-9,-5 -65,100 12,8 62,-103z" />
<path style="fill:#82e082" d="M655,434 l-5,-12 -74,34 4,12 75,-34z" />
<path style="fill:#82e082" d="M676,604 l0,-12 -81,-9 0,12 81,9z" />
<path style="fill:#82e082" d="M600,760 l7,-10 -60,-52 -9,7 62,55z" />
<path style="fill:#82e082" d="M870,30 l-124,0 -3,436 -2,143 -29,84 -29,67 -38,53 67,-20 65,-76 50,-82 31,-213 12,-392z" />
<path style="fill:#82e082;stroke:#000;stroke-width:2" d="M623,729 l5,-5 5,-7 86,74 -9,10 -87,-72z" />
<path style="fill:#82e082;stroke:#000;stroke-width:2" d="M669,635 l-5,12 120,63 7,-12 -122,-63z" />
<path style="fill:#82e082;stroke:#000;stroke-width:2" d="M676,516 l3,14 153,36 2,-12 -158,-38z" />
<path style="fill:#82e082;stroke:#000;stroke-width:2" d="M640,406 l7,14 208,17 0,-15 -215,-16z" />
<path style="fill:#82e082;stroke:#000;stroke-width:2" d="M853,327 l-220,-7 0,14 220,7 0,-14z" />
<path style="fill:#82e082;stroke:#000;stroke-width:2" d="M853,233 l-220,0 0,15 220,0 0,-15z" />
<path style="fill:#82e082;stroke:#000;stroke-width:2" d="M853,126 l-220,0 0,14 220,0 0,-14z" />
<path style="fill:#82e082;stroke:#000;stroke-width:2" d="M853,37 l-220,0 0,15 220,0 0,-15z" />
<path style="fill:#7f7f7f;stroke:#000;stroke-width:2" d="M85,707 l-12,0 -5,-9 5,-10 12,0 5,10 -5,9z" />
<path style="fill:#7f7f7f;stroke:#000;stroke-width:2" d="M183,822 l-9,0 -7,-7 7,-10 9,0 5,10 -5,7z" />
<path style="fill:#000" d="M614,970 l-129,0 0,-16 129,0 0,16z" />
<path style="fill:#000" d="M274,970 l-131,0 0,-16 131,0 0,16z" />
<path style="fill:#000" d="M461,817 l-163,0 -72,60 72,57 163,0 71,-57 -71,-60z" />
<circle style="fill:#000" cx="178" cy="815" r="4" />
<path style="fill:#000" d="M78,693 l-2,2 -3,3 3,2 2,2 2,0 3,-2 0,-2 0,-3 -3,-2 -2,0z" />
<path style="fill:#000" d="M394,525 l-3,0 0,3 3,-3z" />
<path style="fill:#000" d="M406,542 l-3,0 0,2 3,-2z" />
<path style="fill:#000" d="M394,580 l0,-2 -3,0 0,2 3,0z" />
<path style="fill:#000" d="M375,587 l0,-2 -3,0 0,2 3,0z" />
<path style="fill:#000" d="M353,580 l3,0 0,-2 -3,0 0,2z" />
<path style="fill:#000" d="M341,564 l0,2 3,0 0,-2 -3,0z" />
<path style="fill:#000" d="M341,542 l0,2 3,0 0,-2 -3,0z" />
<path style="fill:#000" d="M353,525 l0,3 3,0 0,-3 -3,0z" />
<path style="fill:#000" d="M413,499 l-2,0 0,3 -3,0 3,2 2,0 0,-2 0,-3z" />
<path style="fill:#000" d="M437,532 l-2,-2 0,5 2,0 0,-3z" />
<path style="fill:#000" d="M437,573 l-5,-2 0,2 3,3 2,-3z" />
<path style="fill:#000" d="M413,607 l0,-3 -2,0 0,3 2,0z" />
<path style="fill:#000" d="M375,487 l-3,0 0,3 3,2 0,-2 2,0 -2,-3z" />
<path style="fill:#000" d="M375,621 l2,-5 -2,0 -3,0 3,5z" />
<path style="fill:#000" d="M334,607 l2,2 3,-2 0,-3 -3,0 -2,0 0,3z" />
<path style="fill:#000" d="M310,573 l0,3 2,0 3,0 0,-3 -5,0z" />
<path style="fill:#000" d="M310,532 l0,3 2,2 3,-2 -3,-3 -2,0z" />
<path style="fill:#000" d="M334,499 l0,3 -2,0 2,2 2,0 0,-2 -2,-3z" />
<path style="fill:#005e00;stroke:#000;stroke-width:2" d="M293,549 l0,5 3,7 -89,0 0,-12 86,0z" />
<path style="fill:#005e00;stroke:#000;stroke-width:2" d="M451,561 l0,-7 0,-5 89,0 0,12 -89,0z" />
<path style="fill:#7f7f7f" d="M518,561 l-7,0 0,10 7,0 0,-10z" />
<path style="fill:#7f7f7f" d="M528,561 l-5,0 0,10 5,0 0,-10z" />
<path style="fill:#7f7f7f" d="M528,540 l-5,0 0,9 5,0 0,-9z" />
<path style="fill:#7f7f7f" d="M518,540 l-7,0 0,9 7,0 0,-9z" />
<path style="fill:#7f7f7f" d="M226,540 l-5,0 0,9 5,0 0,-9z" />
<path style="fill:#7f7f7f" d="M238,540 l-7,0 0,9 7,0 0,-9z" />
<path style="fill:#7f7f7f" d="M238,561 l-7,0 0,10 7,0 0,-10z" />
<path style="fill:#7f7f7f" d="M226,561 l-5,0 0,10 5,0 0,-10z" />
<path style="fill:#f0f0f0;stroke:#000;stroke-width:2" d="M191,523 l-8,0 -4,-5 4,-7 8,0 2,7 -2,5z" />
<path style="fill:#f0f0f0;stroke:#000;stroke-width:2" d="M616,54 l-9,0 -7,-7 7,-10 9,0 5,10 -5,7z" />
<path style="fill:#f0f0f0;stroke:#000;stroke-width:2" d="M616,176 l-12,0 -4,-7 4,-10 12,0 5,10 -5,7z" />
<path style="fill:#f0f0f0;stroke:#000;stroke-width:2" d="M614,329 l-12,0 -5,-7 5,-10 12,0 5,10 -5,7z" />
<path style="fill:#f0f0f0;stroke:#000;stroke-width:2" d="M528,446 l-8,0 -4,-4 4,-8 8,0 2,8 -2,4z" />
<path style="fill:#f0f0f0;stroke:#000;stroke-width:2" d="M334,377 l-7,0 -3,-7 3,-5 7,0 5,5 -5,7z" />
<path style="fill:#f0f0f0;stroke:#000;stroke-width:2" d="M470,250 l-12,0 -4,-9 4,-8 12,0 5,8 -5,9z" />
<path style="fill:#f0f0f0;stroke:#000;stroke-width:2" d="M284,250 l-10,0 -5,-7 5,-10 10,0 4,10 -4,7z" />
<path style="fill:#f0f0f0;stroke:#000;stroke-width:2" d="M135,346 l-12,0 -4,-10 4,-9 12,0 5,9 -5,10z" />
<path style="fill:#f0f0f0;stroke:#000;stroke-width:2" d="M56,504 l-9,0 -5,-10 5,-9 9,0 5,9 -5,10z" />
<path style="fill:#f0f0f0;stroke:#000;stroke-width:2" d="M635,853 l-9,0 -5,-10 5,-9 9,0 8,9 -8,10z" />
<path style="fill:#f0f0f0;stroke:#000;stroke-width:2" d="M760,765 l-10,0 -4,-10 4,-9 10,0 7,9 -7,10z" />
<path style="fill:#f0f0f0;stroke:#000;stroke-width:2" d="M839,650 l-10,0 -4,-10 4,-7 10,0 7,7 -7,10z" />
<path style="fill:#f0f0f0;stroke:#000;stroke-width:2" d="M870,413 l-9,0 -6,-10 6,-9 9,0 7,9 -7,10z" />
<path style="fill:#f0f0f0;stroke:#000;stroke-width:2" d="M877,248 l-10,0 -6,-7 6,-10 10,0 5,10 -5,7z" />
<path style="fill:#f0f0f0;stroke:#000;stroke-width:2" d="M877,54 l-10,0 -4,-7 4,-10 10,0 7,10 -7,7z" />
<path style="fill:#f0f0f0;stroke:#000;stroke-width:2" d="M226,540 l5,0 0,9 -5,0 0,-9z" />
<path style="fill:#f0f0f0;stroke:#000;stroke-width:2" d="M226,561 l5,0 0,10 -5,0 0,-10z" />
<path style="fill:#f0f0f0;stroke:#000;stroke-width:2" d="M518,540 l5,0 0,9 -5,0 0,-9z" />
<path style="fill:#f0f0f0;stroke:#000;stroke-width:2" d="M518,561 l5,0 0,10 -5,0 0,-10z" />
<path style="fill:#7f7f7f" d="M185,513 l-2,3 0,2 0,2 2,0 3,0 3,-2 0,-2 -3,0 0,-3 -3,0z" />
<circle style="fill:#7f7f7f" cx="611" cy="47" r="4" />
<ellipse style="fill:#7f7f7f" cx="609" cy="167" rx="5" ry="3" />
<ellipse style="fill:#7f7f7f" cx="609" cy="320" rx="5" ry="3" />
<circle style="fill:#7f7f7f" cx="465" cy="240" r="4" />
<path style="fill:#7f7f7f" d="M279,238 l-3,0 -2,3 0,2 2,2 3,3 2,-3 3,-2 0,-2 -3,-3 -2,0z" />
<path style="fill:#7f7f7f" d="M128,331 l-2,3 0,2 0,3 2,2 3,0 2,-2 0,-3 0,-2 -2,-3 -3,0z" />
<circle style="fill:#7f7f7f" cx="51" cy="494" r="4" />
<circle style="fill:#7f7f7f" cx="630" cy="843" r="4" />
<path style="fill:#7f7f7f" d="M755,750 l-2,3 -3,2 3,2 2,3 3,0 2,-3 0,-2 0,-2 -2,-3 -3,0z" />
<circle style="fill:#7f7f7f" cx="834" cy="640" r="5" />
<path style="fill:#7f7f7f" d="M865,399 l-2,0 0,2 -2,2 0,3 2,2 2,0 2,0 3,0 0,-2 0,-3 0,-2 -3,-2 -2,0z" />
<ellipse style="fill:#7f7f7f" cx="872" cy="239" rx="5" ry="3" />
<circle style="fill:#7f7f7f" cx="872" cy="47" r="5" />
<path style="fill:#7f7f7f" d="M523,437 l-3,2 0,3 0,2 3,0 3,0 2,-2 0,-3 -2,0 0,-2 -3,0z" />
<path style="fill:#7f7f7f" d="M332,367 l-3,0 -2,3 0,2 2,0 0,3 3,0 2,-3 0,-2 0,-3 -2,0z" />

</svg>
