<?xml version="1.0" encoding="utf-8" standalone="no"?><!DOCTYPE svg PUBLIC "-//W3C//DTD SVG 1.1//EN" "http://www.w3.org/Graphics/SVG/1.1/DTD/svg11-flat-20030114.dtd"><svg width="999" height="273" version="1.1" xmlns="http://www.w3.org/2000/svg" xmlns:xlink="http://www.w3.org/1999/xlink">

<path style="fill:#7f7f7f;stroke:#000;stroke-width:2" d="M644,245 l0,-55 236,0 0,55 -55,0 -26,-46 -74,0 -26,46 -55,0z" />
<path style="fill:#8c8c8c" d="M227,99 l-163,0 0,74 163,0 0,-74z" />
<path style="fill:#999" d="M227,103 l-163,0 0,64 163,0 0,-64z" />
<path style="fill:#b2b2b2" d="M227,111 l-163,0 0,51 163,0 0,-51z" />
<path style="fill:#ccc" d="M227,120 l-163,0 0,32 163,0 0,-32z" />
<path style="fill:#d9d9d9" d="M227,130 l-163,0 0,13 163,0 0,-13z" />
<path style="fill:none;stroke:#000;stroke-width:2" d="M227,99 l-163,0 0,74 163,0 0,-74" />
<path style="fill:#7f7f7f" d="M118,181 l55,0 0,64 -55,0 0,-64z" />
<path style="fill:#8c8c8c" d="M118,90 l55,0 0,100 -55,0 0,-100z" />
<path style="fill:#999" d="M118,96 l55,0 0,79 -55,0 0,-79z" />
<path style="fill:#b2b2b2" d="M118,105 l55,0 0,62 -55,0 0,-62z" />
<path style="fill:#ccc" d="M118,116 l55,0 0,40 -55,0 0,-40z" />
<path style="fill:#d9d9d9" d="M118,128 l55,0 0,17 -55,0 0,-17z" />
<path style="fill:none;stroke:#000;stroke-width:2" d="M118,90 l55,0 0,155 -55,0 0,-155" />
<path style="fill:#8c8c8c" d="M28,64 l36,0 0,145 -36,0 0,-145z" />
<path style="fill:#999" d="M28,73 l36,0 0,126 -36,0 0,-126z" />
<path style="fill:#b2b2b2" d="M28,86 l36,0 0,100 -36,0 0,-100z" />
<path style="fill:#ccc" d="M28,105 l36,0 0,62 -36,0 0,-62z" />
<path style="fill:#d9d9d9" d="M28,122 l36,0 0,28 -36,0 0,-28z" />
<path style="fill:none;stroke:#000;stroke-width:2" d="M28,64 l36,0 0,145 -36,0 0,-145" />
<path style="fill:#8c8c8c" d="M227,64 l36,0 0,145 -36,0 0,-145z" />
<path style="fill:#999" d="M227,73 l36,0 0,126 -36,0 0,-126z" />
<path style="fill:#b2b2b2" d="M227,86 l36,0 0,100 -36,0 0,-100z" />
<path style="fill:#ccc" d="M227,105 l36,0 0,62 -36,0 0,-62z" />
<path style="fill:#d9d9d9" d="M227,122 l36,0 0,28 -36,0 0,-28z" />
<path style="fill:none;stroke:#000;stroke-width:2" d="M227,64 l36,0 0,145 -36,0 0,-145" />
<path style="fill:#666;stroke:#000;stroke-width:2" d="M114,231 l63,0 0,14 -63,0 0,-14z" />
<path style="fill:#8c8c8c" d="M463,190 l145,-17 0,-74 -145,-18 -200,0 0,109 200,0z" />
<path style="fill:#999" d="M463,182 l145,-15 0,-64 -145,-15 -200,0 0,94 200,0z" />
<path style="fill:#b2b2b2" d="M463,173 l145,-13 0,-49 -145,-13 -200,0 0,75 200,0z" />
<path style="fill:#ccc" d="M463,160 l145,-8 0,-32 -145,-7 -200,0 0,47 200,0z" />
<path style="fill:#d9d9d9" d="M463,145 l145,-2 0,-13 -145,-4 -200,0 0,19 200,0z" />
<path style="fill:none;stroke:#000;stroke-width:2" d="M463,190 l145,-17 0,-74 -145,-18 -200,0 0,109 200,0" />
<path style="fill:#999;stroke:#000;stroke-width:2" d="M608,64 l17,0 0,145 -17,0 0,-145z" />
<path style="fill:#e5e5e5;stroke:#7f7f7f;stroke-width:2" d="M473,122 l9,4 4,9 -4,10 -9,3 -8,-2 -7,-8 0,-3 4,-9 8,-4 3,0z" />
<path style="fill:#999;stroke:#000;stroke-width:2" d="M273,90 l100,0 0,91 -100,0 0,-91z" />
<path style="fill:none;stroke:#fff;stroke-width:2" d="M273,181 l0,-91 100,0" />
<circle style="fill:#b2b2b2;stroke:#000;stroke-width:2" cx="286" cy="104" r="4" />
<circle style="fill:#b2b2b2;stroke:#000;stroke-width:2" cx="358" cy="104" r="4" />
<circle style="fill:#b2b2b2;stroke:#000;stroke-width:2" cx="322" cy="104" r="4" />
<circle style="fill:#b2b2b2;stroke:#000;stroke-width:2" cx="286" cy="168" r="4" />
<circle style="fill:#b2b2b2;stroke:#000;stroke-width:2" cx="358" cy="168" r="4" />
<circle style="fill:#b2b2b2;stroke:#000;stroke-width:2" cx="322" cy="168" r="4" />
<path style="fill:#7f7f7f;stroke:#000;stroke-width:2" d="M518,90 l-4,8 -10,6 -10,3 -12,2 -5,0 -9,0 -9,-1 -12,-2 -10,-4 -8,-6 -2,-6 0,-45 91,0 0,45z" />
<path style="fill:#999" d="M508,90 l-2,8 -8,6 -9,3 -9,2 -4,0 -11,0 -10,-2 -9,-3 -8,-6 -3,-8 0,-45 73,0 0,45z" />
<path style="fill:#b2b2b2" d="M495,90 l0,4 -2,4 -2,3 -3,3 -3,2 -4,2 -4,1 -4,0 -5,0 -4,-1 -4,-2 -4,-2 -2,-3 -2,-3 -2,-4 0,-4 0,-45 45,0 0,45z" />
<ellipse style="fill:#bfbfbf" cx="471" cy="77" rx="4" ry="32" />
<path style="fill:#8c8c8c" d="M373,45 l0,-17 198,0 0,17 -198,0z" />
<path style="fill:#999" d="M384,45 l0,-17 175,0 0,17 -175,0z" />
<path style="fill:#b2b2b2" d="M403,45 l0,-17 137,0 0,17 -137,0z" />
<path style="fill:#ccc" d="M429,45 l0,-17 87,0 0,17 -87,0z" />
<path style="fill:#d9d9d9" d="M454,45 l0,-17 37,0 0,17 -37,0z" />
<path style="fill:none;stroke:#000;stroke-width:2" d="M373,45 l0,-17 198,0 0,17 -198,0" />
<path style="fill:#a6a6a6;stroke:#000;stroke-width:2" d="M644,209 l10,0 0,26 45,0 0,10 -55,0 0,-36z" />
<path style="fill:#7f7f7f" d="M899,122 l71,0 0,26 -71,0 0,-26z" />
<path style="fill:#b2b2b2" d="M899,126 l71,0 0,19 -71,0 0,-19z" />
<path style="fill:#f2f2f2" d="M899,133 l71,0 0,4 -71,0 0,-4z" />
<path style="fill:none;stroke:#000;stroke-width:2" d="M899,122 l71,0 0,26 -71,0 0,-26" />
<path style="fill:#8c8c8c" d="M897,190 l-144,0 0,-109 144,0 0,109z" />
<path style="fill:#999" d="M897,184 l-144,0 0,-96 144,0 0,96z" />
<path style="fill:#b2b2b2" d="M897,173 l-144,0 0,-75 144,0 0,75z" />
<path style="fill:#ccc" d="M897,160 l-144,0 0,-47 144,0 0,47z" />
<path style="fill:#d9d9d9" d="M897,146 l-144,0 0,-20 144,0 0,20z" />
<path style="fill:none;stroke:#000;stroke-width:2" d="M897,190 l-144,0 0,-109 144,0 0,109" />
<path style="fill:#a6a6a6;stroke:#000;stroke-width:2" d="M880,145 l-10,0 0,90 -45,0 0,10 55,0 0,-100z" />
<path style="fill:#b2b2b2;stroke:#000;stroke-width:2" d="M625,64 l128,0 0,145 -128,0 0,-145z" />
<path style="fill:#ccc;stroke:#000;stroke-width:2" d="M648,90 l83,0 0,91 -83,0 0,-91z" />
<path style="fill:#7f7f7f" d="M708,122 l23,0 0,26 -23,0 0,-26z" />
<path style="fill:#b2b2b2" d="M708,126 l23,0 0,19 -23,0 0,-19z" />
<path style="fill:#f2f2f2" d="M708,133 l23,0 0,4 -23,0 0,-4z" />
<path style="fill:none;stroke:#000;stroke-width:2" d="M708,122 l23,0 0,26 -23,0 0,-26" />
<path style="fill:#4c4c4c;stroke:#000;stroke-width:2" d="M648,99 l41,0 0,74 -41,0 0,-74z" />
<path style="fill:#666;stroke:#000;stroke-width:2" d="M689,113 l19,0 0,45 -19,0 0,-45z" />
<path style="fill:none;stroke:#000;stroke-width:2" d="M50,64 l0,145" />
<path style="fill:none;stroke:#000;stroke-width:2" d="M241,64 l0,145" />

</svg>
