<?xml version="1.0" encoding="utf-8" standalone="no"?><!DOCTYPE svg PUBLIC "-//W3C//DTD SVG 1.1//EN" "http://www.w3.org/Graphics/SVG/1.1/DTD/svg11-flat-20030114.dtd"><svg width="755" height="999" version="1.1" xmlns="http://www.w3.org/2000/svg" xmlns:xlink="http://www.w3.org/1999/xlink">

<path style="fill:#666;stroke:#000;stroke-width:2" d="M297,808 l-26,-66 -217,0 -26,66 269,0z" />
<path style="fill:#333" d="M727,808 l-26,-107 -377,0 -27,107 430,0z" />
<path style="fill:#7f7f7f" d="M324,111 l0,590 377,0 0,-590 -377,0z" />
<path style="fill:#8a8a8a" d="M346,109 l0,592 332,0 0,-592 -332,0z" />
<path style="fill:#919191" d="M367,109 l0,592 290,0 0,-592 -290,0z" />
<path style="fill:#9c9c9c" d="M390,109 l0,592 245,0 0,-592 -245,0z" />
<path style="fill:#a6a6a6" d="M411,109 l0,592 203,0 0,-592 -203,0z" />
<path style="fill:#b0b0b0" d="M433,109 l0,592 158,0 0,-592 -158,0z" />
<path style="fill:#b8b8b8" d="M454,109 l0,592 117,0 0,-592 -117,0z" />
<path style="fill:#c2c2c2" d="M476,109 l0,592 72,0 0,-592 -72,0z" />
<path style="fill:#ccc" d="M497,111 l0,590 30,0 0,-590 -30,0z" />
<path style="fill:none;stroke:#000;stroke-width:2" d="M324,111 l0,590 377,0 0,-590 -377,0" />
<path style="fill:#7f7f7f" d="M297,177 l0,39 430,0 0,-39 -430,0z" />
<path style="fill:#8a8a8a" d="M322,177 l0,39 381,0 0,-39 -381,0z" />
<path style="fill:#919191" d="M346,177 l0,39 332,0 0,-39 -332,0z" />
<path style="fill:#9c9c9c" d="M371,177 l0,39 282,0 0,-39 -282,0z" />
<path style="fill:#a6a6a6" d="M397,177 l0,39 232,0 0,-39 -232,0z" />
<path style="fill:#b0b0b0" d="M422,177 l0,39 181,0 0,-39 -181,0z" />
<path style="fill:#b8b8b8" d="M446,177 l0,39 132,0 0,-39 -132,0z" />
<path style="fill:#c2c2c2" d="M471,177 l0,39 83,0 0,-39 -83,0z" />
<path style="fill:#ccc" d="M495,177 l0,39 34,0 0,-39 -34,0z" />
<path style="fill:none;stroke:#000;stroke-width:2" d="M297,177 l0,39 430,0 0,-39 -430,0" />
<path style="fill:#999;stroke:#000;stroke-width:2" d="M727,808 l-26,-107 -27,0 27,107 26,0z" />
<path style="fill:#999;stroke:#000;stroke-width:2" d="M627,808 l-2,-13 -2,-14 -2,-13 -1,-14 -2,-13 -1,-13 -2,-14 -1,-13 -28,0 1,13 2,14 2,13 1,13 2,14 2,13 1,14 2,13 28,0z" />
<path style="fill:#999;stroke:#000;stroke-width:2" d="M576,808 l-1,-13 -1,-14 -1,-13 -1,-14 -1,-13 -1,-13 0,-14 -1,-13 -27,0 1,13 1,14 0,13 1,13 1,14 1,13 1,14 2,13 26,0z" />
<path style="fill:#999;stroke:#000;stroke-width:2" d="M525,808 l0,-6 0,-101 -26,0 0,107 26,0z" />
<path style="fill:#999;stroke:#000;stroke-width:2" d="M474,808 l1,-13 1,-14 1,-13 1,-14 0,-13 1,-13 1,-14 2,-13 -26,0 -2,13 -1,14 -1,13 -1,13 -1,14 0,13 -1,14 -1,13 26,0z" />
<path style="fill:#999;stroke:#000;stroke-width:2" d="M424,808 l2,-13 2,-14 1,-13 2,-14 2,-13 2,-13 2,-14 2,-13 -28,0 -2,13 -2,14 -1,13 -2,13 -2,14 -2,13 -1,14 -2,13 27,0z" />
<path style="fill:#999;stroke:#000;stroke-width:2" d="M324,808 l28,-107 -28,0 -27,107 27,0z" />
<path style="fill:#999;stroke:#000;stroke-width:2" d="M375,808 l2,-13 2,-14 3,-13 2,-14 3,-13 3,-13 3,-14 2,-13 -28,0 -3,13 -2,14 -3,13 -2,13 -3,14 -2,13 -3,14 -3,13 29,0z" />
<path style="fill:#999;stroke:#000;stroke-width:2" d="M676,808 l-3,-13 -2,-14 -3,-13 -2,-14 -2,-13 -2,-13 -3,-14 -2,-13 -28,0 3,13 3,14 2,13 2,13 3,14 2,13 3,14 3,13 26,0z" />
<path style="fill:#7f7f7f" d="M54,674 l0,134 217,0 0,-134 -217,0z" />
<path style="fill:#8a8a8a" d="M67,674 l0,134 191,0 0,-134 -191,0z" />
<path style="fill:#919191" d="M79,674 l0,134 165,0 0,-134 -165,0z" />
<path style="fill:#9c9c9c" d="M92,674 l0,134 141,0 0,-134 -141,0z" />
<path style="fill:#a6a6a6" d="M105,674 l0,134 115,0 0,-134 -115,0z" />
<path style="fill:#b0b0b0" d="M116,674 l0,134 93,0 0,-134 -93,0z" />
<path style="fill:#b8b8b8" d="M130,674 l0,134 66,0 0,-134 -66,0z" />
<path style="fill:#c2c2c2" d="M141,674 l0,134 41,0 0,-134 -41,0z" />
<path style="fill:#ccc" d="M154,674 l0,134 17,0 0,-134 -17,0z" />
<path style="fill:none;stroke:#000;stroke-width:2" d="M54,674 l0,134 217,0 0,-134 -217,0" />
<path style="fill:#e5e5e5" d="M674,337 l-215,0 0,136 215,0 0,-136z" />
<path style="fill:#e5e5e5" d="M674,324 l-215,0 0,-27 215,0 0,27z" />
<path style="fill:#b2b2b2" d="M674,216 l-39,0 0,-53 39,0 0,53z" />
<path style="fill:#7f7f7f" d="M606,216 l29,0 0,-53 -29,0 0,53z" />
<path style="fill:none;stroke:#000;stroke-width:2" d="M674,216 l-68,0 0,-53 68,0 0,53" />
<path style="fill:#b2b2b2" d="M418,216 l-40,0 0,-53 40,0 0,53z" />
<path style="fill:#7f7f7f" d="M352,216 l26,0 0,-53 -26,0 0,53z" />
<path style="fill:none;stroke:#000;stroke-width:2" d="M418,216 l-66,0 0,-53 66,0 0,53" />
<path style="fill:#999;stroke:#000;stroke-width:2" d="M163,808 l0,-66 -15,66 15,0z" />
<path style="fill:#7f7f7f" d="M28,808 l0,162 699,0 0,-162 -699,0z" />
<path style="fill:#8a8a8a" d="M67,808 l0,162 620,0 0,-162 -620,0z" />
<path style="fill:#919191" d="M109,808 l0,162 537,0 0,-162 -537,0z" />
<path style="fill:#9c9c9c" d="M148,808 l0,162 458,0 0,-162 -458,0z" />
<path style="fill:#a6a6a6" d="M188,808 l0,162 377,0 0,-162 -377,0z" />
<path style="fill:#b0b0b0" d="M230,808 l0,162 295,0 0,-162 -295,0z" />
<path style="fill:#b8b8b8" d="M269,808 l0,162 217,0 0,-162 -217,0z" />
<path style="fill:#c2c2c2" d="M309,808 l0,162 135,0 0,-162 -135,0z" />
<path style="fill:#ccc" d="M350,808 l0,162 55,0 0,-162 -55,0z" />
<path style="fill:none;stroke:#e5e5e5;stroke-width:2" d="M727,863 l-699,0" />
<path style="fill:none;stroke:#000;stroke-width:2" d="M727,855 l-699,0" />
<path style="fill:none;stroke:#000;stroke-width:2" d="M28,808 l0,162 699,0 0,-162 -699,0" />
<path style="fill:#7f7f7f" d="M593,41 l0,68 81,0 0,-68 -81,0z" />
<path style="fill:#999" d="M599,41 l0,68 70,0 0,-68 -70,0z" />
<path style="fill:#b2b2b2" d="M606,41 l0,68 55,0 0,-68 -55,0z" />
<path style="fill:#ccc" d="M616,41 l0,68 36,0 0,-68 -36,0z" />
<path style="fill:#e5e5e5" d="M621,41 l0,68 25,0 0,-68 -25,0z" />
<path style="fill:#fff" d="M629,41 l0,68 10,0 0,-68 -10,0z" />
<path style="fill:none;stroke:#000;stroke-width:2" d="M593,41 l0,68 81,0 0,-68 -81,0" />
<path style="fill:#666;stroke:#000;stroke-width:2" d="M708,28 l-162,0 0,13 162,0 0,-13z" />

</svg>
