<?xml version="1.0" encoding="utf-8" standalone="no"?><!DOCTYPE svg PUBLIC "-//W3C//DTD SVG 1.1//EN" "http://www.w3.org/Graphics/SVG/1.1/DTD/svg11-flat-20030114.dtd"><svg width="503" height="999" version="1.1" xmlns="http://www.w3.org/2000/svg" xmlns:xlink="http://www.w3.org/1999/xlink">

<path style="fill:#7f7f7f" d="M280,222 l-58,0 0,-194 58,0 0,194z" />
<path style="fill:#b2b2b2" d="M268,222 l-34,0 0,-194 34,0 0,194z" />
<path style="fill:#e5e5e5" d="M255,222 l-8,0 0,-194 8,0 0,194z" />
<path style="fill:none;stroke:#000;stroke-width:2" d="M280,222 l-58,0 0,-194 58,0 0,194" />
<path style="fill:#000" d="M414,149 l-15,3 -14,9 -9,14 -3,15 3,16 9,14 14,8 15,4 16,-4 14,-8 8,-14 4,-16 -4,-15 -8,-14 -14,-9 -16,-3 0,10 12,2 10,7 7,11 2,11 -2,12 -7,10 -10,7 -12,2 -11,-2 -11,-7 -7,-10 -2,-12 2,-11 7,-11 11,-7 11,-2 0,-10z" />
<path style="fill:#000" d="M88,149 l-15,3 -14,9 -9,14 -3,15 3,16 9,14 14,8 15,4 16,-4 14,-8 9,-14 3,-16 -3,-15 -9,-14 -14,-9 -16,-3 0,10 12,2 11,7 6,10 3,12 -3,12 -6,10 -11,7 -12,2 -11,-2 -11,-7 -6,-10 -3,-12 3,-12 6,-10 11,-7 11,-2 0,-10z" />
<path style="fill:#7f7f7f" d="M475,961 l0,-39 -20,0 0,-253 20,0 0,-39 -59,0 0,-369 59,0 0,-39 -447,0 0,39 58,0 0,369 -58,0 0,39 19,0 0,253 -19,0 0,39 447,0z" />
<path style="fill:#999" d="M426,961 l0,-39 -15,0 0,-253 15,0 0,-39 -46,0 0,-369 46,0 0,-39 -350,0 0,39 46,0 0,369 -46,0 0,39 15,0 0,253 -15,0 0,39 350,0z" />
<path style="fill:#b2b2b2" d="M378,961 l0,-39 -12,0 0,-253 12,0 0,-39 -34,0 0,-369 34,0 0,-39 -253,0 0,39 33,0 0,369 -33,0 0,39 10,0 0,253 -10,0 0,39 253,0z" />
<path style="fill:#ccc" d="M329,961 l0,-39 -7,0 0,-253 7,0 0,-39 -21,0 0,-369 21,0 0,-39 -156,0 0,39 21,0 0,369 -21,0 0,39 7,0 0,253 -7,0 0,39 156,0z" />
<path style="fill:#e5e5e5" d="M280,961 l0,-39 -2,0 0,-253 2,0 0,-39 -7,0 0,-369 7,0 0,-39 -58,0 0,39 8,0 0,369 -8,0 0,39 2,0 0,253 -2,0 0,39 58,0z" />
<path style="fill:none;stroke:#000;stroke-width:2" d="M475,961 l0,-39 -20,0 0,-253 20,0 0,-39 -59,0 0,-369 59,0 0,-39 -447,0 0,39 58,0 0,369 -58,0 0,39 19,0 0,253 -19,0 0,39 447,0" />
<path style="fill:none;stroke:#000;stroke-width:2" d="M475,241 l-447,0" />
<path style="fill:none;stroke:#000;stroke-width:2" d="M416,261 l-330,0" />
<path style="fill:none;stroke:#000;stroke-width:2" d="M416,630 l-330,0" />
<path style="fill:none;stroke:#000;stroke-width:2" d="M475,650 l-447,0" />
<path style="fill:none;stroke:#000;stroke-width:2" d="M475,941 l-447,0" />
<path style="fill:#4c4c4c" d="M455,669 l-408,0 0,253 408,0 0,-253z" />
<path style="fill:#666" d="M411,669 l-320,0 0,253 320,0 0,-253z" />
<path style="fill:#7f7f7f" d="M366,669 l-230,0 0,253 230,0 0,-253z" />
<path style="fill:#999" d="M322,669 l-142,0 0,253 142,0 0,-253z" />
<path style="fill:#b2b2b2" d="M278,669 l-54,0 0,253 54,0 0,-253z" />
<path style="fill:none;stroke:#000;stroke-width:2" d="M337,922 l-291,-253" />
<path style="fill:none;stroke:#000;stroke-width:2" d="M298,922 l-252,-219" />
<path style="fill:none;stroke:#000;stroke-width:2" d="M260,922 l-214,-185" />
<path style="fill:none;stroke:#000;stroke-width:2" d="M221,922 l-175,-152" />
<path style="fill:none;stroke:#000;stroke-width:2" d="M182,922 l-136,-118" />
<path style="fill:none;stroke:#000;stroke-width:2" d="M143,922 l-97,-84" />
<path style="fill:none;stroke:#000;stroke-width:2" d="M104,922 l-58,-50" />
<path style="fill:none;stroke:#000;stroke-width:2" d="M65,922 l-19,-17" />
<path style="fill:none;stroke:#000;stroke-width:2" d="M377,922 l-292,-253" />
<path style="fill:none;stroke:#000;stroke-width:2" d="M416,922 l-292,-253" />
<path style="fill:none;stroke:#000;stroke-width:2" d="M455,922 l-292,-253" />
<path style="fill:none;stroke:#000;stroke-width:2" d="M454,887 l-251,-218" />
<path style="fill:none;stroke:#000;stroke-width:2" d="M454,853 l-212,-184" />
<path style="fill:none;stroke:#000;stroke-width:2" d="M454,819 l-173,-150" />
<path style="fill:none;stroke:#000;stroke-width:2" d="M454,785 l-134,-116" />
<path style="fill:none;stroke:#000;stroke-width:2" d="M454,751 l-95,-82" />
<path style="fill:none;stroke:#000;stroke-width:2" d="M454,717 l-55,-48" />
<path style="fill:none;stroke:#000;stroke-width:2" d="M454,683 l-16,-14" />
<path style="fill:none;stroke:#000;stroke-width:2" d="M164,922 l291,-253" />
<path style="fill:none;stroke:#000;stroke-width:2" d="M203,922 l252,-219" />
<path style="fill:none;stroke:#000;stroke-width:2" d="M242,922 l213,-185" />
<path style="fill:none;stroke:#000;stroke-width:2" d="M280,922 l175,-152" />
<path style="fill:none;stroke:#000;stroke-width:2" d="M319,922 l136,-118" />
<path style="fill:none;stroke:#000;stroke-width:2" d="M358,922 l97,-84" />
<path style="fill:none;stroke:#000;stroke-width:2" d="M397,922 l58,-50" />
<path style="fill:none;stroke:#000;stroke-width:2" d="M436,922 l19,-17" />
<path style="fill:none;stroke:#000;stroke-width:2" d="M125,922 l291,-253" />
<path style="fill:none;stroke:#000;stroke-width:2" d="M85,922 l292,-253" />
<path style="fill:none;stroke:#000;stroke-width:2" d="M46,922 l292,-253" />
<path style="fill:none;stroke:#000;stroke-width:2" d="M47,887 l251,-218" />
<path style="fill:none;stroke:#000;stroke-width:2" d="M47,853 l212,-184" />
<path style="fill:none;stroke:#000;stroke-width:2" d="M47,819 l173,-150" />
<path style="fill:none;stroke:#000;stroke-width:2" d="M47,785 l134,-116" />
<path style="fill:none;stroke:#000;stroke-width:2" d="M47,751 l95,-82" />
<path style="fill:none;stroke:#000;stroke-width:2" d="M47,717 l55,-48" />
<path style="fill:none;stroke:#000;stroke-width:2" d="M47,683 l16,-14" />
<circle style="fill:#000" cx="144" cy="824" r="58" />
<circle style="fill:#e5e5e5" cx="144" cy="824" r="48" />
<circle style="fill:#4c4c4c" cx="144" cy="824" r="34" />
<path style="fill:#000" d="M460,961 l-29,0 0,9 29,0 0,-9z" />
<path style="fill:#000" d="M71,961 l-29,0 0,9 29,0 0,-9z" />
<path style="fill:#000" d="M266,961 l-29,0 0,9 29,0 0,-9z" />
<path style="fill:#000" d="M164,961 l-29,0 0,9 29,0 0,-9z" />
<path style="fill:#000" d="M368,961 l-29,0 0,9 29,0 0,-9z" />
<path style="fill:#000" d="M460,620 l-29,0 0,10 29,0 0,-10z" />
<path style="fill:#000" d="M71,620 l-29,0 0,10 29,0 0,-10z" />
<path style="fill:#000" d="M266,620 l-29,0 0,10 29,0 0,-10z" />
<path style="fill:#000" d="M164,620 l-29,0 0,10 29,0 0,-10z" />
<path style="fill:#000" d="M368,620 l-29,0 0,10 29,0 0,-10z" />
<path style="fill:#000" d="M460,261 l-29,0 0,9 29,0 0,-9z" />
<path style="fill:#000" d="M71,261 l-29,0 0,9 29,0 0,-9z" />
<path style="fill:#000" d="M266,261 l-29,0 0,9 29,0 0,-9z" />
<path style="fill:#000" d="M164,261 l-29,0 0,9 29,0 0,-9z" />
<path style="fill:#000" d="M368,261 l-29,0 0,9 29,0 0,-9z" />
<path style="fill:#000" d="M460,212 l-29,0 0,10 29,0 0,-10z" />
<path style="fill:#000" d="M71,212 l-29,0 0,10 29,0 0,-10z" />
<path style="fill:#000" d="M266,212 l-29,0 0,10 29,0 0,-10z" />
<path style="fill:#000" d="M164,212 l-29,0 0,10 29,0 0,-10z" />
<path style="fill:#000" d="M368,212 l-29,0 0,10 29,0 0,-10z" />

</svg>
