<?xml version="1.0" encoding="utf-8" standalone="no"?><!DOCTYPE svg PUBLIC "-//W3C//DTD SVG 1.1//EN" "http://www.w3.org/Graphics/SVG/1.1/DTD/svg11-flat-20030114.dtd"><svg width="425" height="999" version="1.1" xmlns="http://www.w3.org/2000/svg" xmlns:xlink="http://www.w3.org/1999/xlink">

<path style="fill:#4c7f7f" d="M348,884 l-21,-21 42,-44 21,21 -42,44z" />
<path style="fill:#699" d="M346,882 l-17,-17 42,-44 17,17 -42,44z" />
<path style="fill:#7fb2b2" d="M344,878 l-13,-11 44,-42 11,11 -42,42z" />
<path style="fill:#9cc" d="M341,876 l-6,-6 41,-43 6,6 -41,43z" />
<path style="fill:none;stroke:#000;stroke-width:2" d="M348,884 l-21,-21 42,-44 21,21 -42,44" />
<path style="fill:#4c7f7f" d="M318,887 l0,-30 -70,0 0,30 70,0z" />
<path style="fill:#699" d="M318,885 l0,-24 -70,0 0,24 70,0z" />
<path style="fill:#7fb2b2" d="M318,882 l0,-17 -70,0 0,17 70,0z" />
<path style="fill:#9cc" d="M318,878 l0,-10 -70,0 0,10 70,0z" />
<path style="fill:none;stroke:#000;stroke-width:2" d="M318,887 l0,-30 -70,0 0,30 70,0" />
<path style="fill:#699;stroke:#000;stroke-width:2" d="M94,344 l-21,0 0,57 21,0 0,-57z" />
<path style="fill:#699;stroke:#000;stroke-width:2" d="M260,344 l-21,0 0,57 21,0 0,-57z" />
<path style="fill:#194c4c;stroke:#000;stroke-width:2" d="M239,45 l-145,0 0,13 145,0 0,-13z" />
<path style="fill:#4c7f7f" d="M260,81 l0,263 -14,21 -160,0 -13,-21 0,-3 0,-5 0,-255 14,-22 8,-4 4,-1 10,0 124,0 24,17 2,5 1,5z" />
<path style="fill:#699" d="M243,81 l0,263 -14,21 -130,0 -9,-21 0,-3 0,-5 0,-255 14,-25 5,-1 4,-1 7,0 100,0 21,17 1,5 1,5z" />
<path style="fill:#7fb2b2" d="M220,81 l0,263 -11,21 -89,0 -6,-21 0,-3 0,-5 0,-255 10,-25 3,-1 3,-1 5,0 70,0 15,22 0,5z" />
<path style="fill:#9cc" d="M194,81 l0,263 -8,21 -39,0 -6,-21 0,-3 0,-5 0,-255 5,-25 1,-1 1,-1 6,0 32,0 3,2 4,20 1,5z" />
<path style="fill:none;stroke:#000;stroke-width:2" d="M260,81 l0,263 -14,21 -160,0 -13,-21 0,-3 0,-5 0,-255 14,-22 8,-4 4,-1 10,0 124,0 24,17 2,5 1,5" />
<path style="fill:#4c7f7f" d="M260,32 l0,13 -187,0 0,-13 10,-3 12,-1 143,0 9,0 10,2 2,1 1,1z" />
<path style="fill:#699" d="M243,32 l0,13 -153,0 0,-13 10,-4 9,0 115,0 11,1 8,3z" />
<path style="fill:#7fb2b2" d="M220,32 l0,13 -106,0 0,-13 1,-1 9,-3 3,0 81,0 9,2 3,1 0,1z" />
<path style="fill:#9cc" d="M194,32 l0,13 -53,0 0,-13 0,-2 7,-2 38,0 7,2 1,2z" />
<path style="fill:none;stroke:#000;stroke-width:2" d="M260,32 l0,13 -187,0 0,-13 10,-3 12,-1 143,0 9,0 10,2 2,1 1,1" />
<path style="fill:#699;stroke:#000;stroke-width:2" d="M226,45 l-19,0 0,13 19,0 0,-13z" />
<path style="fill:#194c4c;stroke:#000;stroke-width:2" d="M260,186 l0,132 -187,0 0,-132 187,0z" />
<path style="fill:#9cc;stroke:#000;stroke-width:2" d="M98,186 l0,132 -6,0 0,-132 6,0z" />
<path style="fill:#9cc;stroke:#000;stroke-width:2" d="M116,186 l0,132 -5,0 0,-132 5,0z" />
<path style="fill:#9cc;stroke:#000;stroke-width:2" d="M135,186 l0,132 -7,0 0,-132 7,0z" />
<path style="fill:#9cc;stroke:#000;stroke-width:2" d="M152,186 l0,132 -5,0 0,-132 5,0z" />
<path style="fill:#9cc;stroke:#000;stroke-width:2" d="M169,186 l0,132 -6,0 0,-132 6,0z" />
<path style="fill:#9cc;stroke:#000;stroke-width:2" d="M188,186 l0,132 -6,0 0,-132 6,0z" />
<path style="fill:#9cc;stroke:#000;stroke-width:2" d="M205,186 l0,132 -6,0 0,-132 6,0z" />
<path style="fill:#9cc;stroke:#000;stroke-width:2" d="M224,186 l0,132 -6,0 0,-132 6,0z" />
<path style="fill:#9cc;stroke:#000;stroke-width:2" d="M241,186 l0,132 -6,0 0,-132 6,0z" />
<path style="fill:#9cc;stroke:#000;stroke-width:2" d="M260,186 l0,132 -6,0 0,-132 6,0z" />
<path style="fill:#9cc;stroke:#000;stroke-width:2" d="M81,186 l0,132 -6,0 0,-132 6,0z" />
<path style="fill:#699;stroke:#000;stroke-width:2" d="M84,318 l-17,0 -39,4 0,-89 39,4 0,9 17,0 0,72z" />
<path style="fill:none;stroke:#000;stroke-width:2" d="M67,250 l0,66" />
<path style="fill:none;stroke:#000;stroke-width:2" d="M37,237 l0,81" />
<path style="fill:none;stroke:#000;stroke-width:2" d="M260,344 l-187,0" />
<path style="fill:#4c7f7f" d="M260,401 l-187,0 0,13 187,0 0,-13z" />
<path style="fill:#699" d="M243,401 l-153,0 0,13 153,0 0,-13z" />
<path style="fill:#7fb2b2" d="M220,401 l-106,0 0,13 106,0 0,-13z" />
<path style="fill:#9cc" d="M192,401 l-51,0 0,13 51,0 0,-13z" />
<path style="fill:none;stroke:#000;stroke-width:2" d="M260,401 l-187,0 0,13 187,0 0,-13" />
<path style="fill:#9cc;stroke:#000;stroke-width:2" d="M177,344 l-21,0 0,57 21,0 0,-57z" />
<path style="fill:#333;stroke:#000;stroke-width:2" d="M273,414 l-213,0 0,25 213,0 0,-25z" />
<path style="fill:#4c7f7f" d="M207,439 l-81,0 0,382 81,0 0,-382z" />
<path style="fill:#699" d="M199,439 l-66,0 0,382 66,0 0,-382z" />
<path style="fill:#7fb2b2" d="M188,439 l-43,0 0,382 43,0 0,-382z" />
<path style="fill:#9cc" d="M177,439 l-21,0 0,382 21,0 0,-382z" />
<path style="fill:none;stroke:#000;stroke-width:2" d="M207,439 l-81,0 0,382 81,0 0,-382" />
<path style="fill:#4c7f7f" d="M220,821 l-106,0 0,14 106,0 0,-14z" />
<path style="fill:#699" d="M209,821 l-85,0 0,14 85,0 0,-14z" />
<path style="fill:#7fb2b2" d="M196,821 l-59,0 0,14 59,0 0,-14z" />
<path style="fill:#9cc" d="M180,821 l-28,0 0,14 28,0 0,-14z" />
<path style="fill:none;stroke:#000;stroke-width:2" d="M220,821 l-106,0 0,14 106,0 0,-14" />
<path style="fill:#4c7f7f" d="M248,848 l-164,0 0,52 164,0 0,-52z" />
<path style="fill:#699" d="M235,848 l-136,0 0,52 136,0 0,-52z" />
<path style="fill:#7fb2b2" d="M214,848 l-96,0 0,52 96,0 0,-52z" />
<path style="fill:#9cc" d="M190,848 l-47,0 0,52 47,0 0,-52z" />
<path style="fill:none;stroke:#000;stroke-width:2" d="M248,848 l-164,0 0,52 164,0 0,-52" />
<path style="fill:#699;stroke:#000;stroke-width:2" d="M248,900 l-164,0 0,70 164,0 0,-70z" />
<path style="fill:#9cc;stroke:#000;stroke-width:2" d="M243,900 l-14,0 0,-75 14,0 0,75z" />
<path style="fill:#9cc;stroke:#000;stroke-width:2" d="M103,900 l-13,0 0,-75 13,0 0,75z" />
<path style="fill:#9cc;stroke:#000;stroke-width:2" d="M196,900 l-14,0 0,-75 14,0 0,75z" />
<path style="fill:#9cc;stroke:#000;stroke-width:2" d="M150,900 l-13,0 0,-75 13,0 0,75z" />
<path style="fill:#4c7f7f" d="M260,835 l-187,0 0,13 187,0 0,-13z" />
<path style="fill:#699" d="M243,835 l-153,0 0,13 153,0 0,-13z" />
<path style="fill:#7fb2b2" d="M220,835 l-106,0 0,13 106,0 0,-13z" />
<path style="fill:#9cc" d="M192,835 l-51,0 0,13 51,0 0,-13z" />
<path style="fill:none;stroke:#000;stroke-width:2" d="M260,835 l-187,0 0,13 187,0 0,-13" />
<circle style="fill:#333" cx="240" cy="922" r="5" />
<circle style="fill:#333" cx="240" cy="935" r="5" />
<circle style="fill:#333" cx="240" cy="909" r="5" />
<circle style="fill:#333" cx="240" cy="948" r="5" />
<circle style="fill:#333" cx="230" cy="929" r="4" />
<circle style="fill:#333" cx="230" cy="943" r="4" />
<circle style="fill:#333" cx="230" cy="916" r="4" />
<circle style="fill:#333" cx="230" cy="956" r="4" />
<circle style="fill:#333" cx="240" cy="961" r="5" />
<circle style="fill:#333" cx="221" cy="922" r="5" />
<circle style="fill:#333" cx="221" cy="935" r="5" />
<circle style="fill:#333" cx="221" cy="909" r="5" />
<circle style="fill:#333" cx="221" cy="948" r="5" />
<circle style="fill:#333" cx="211" cy="929" r="4" />
<circle style="fill:#333" cx="211" cy="943" r="4" />
<circle style="fill:#333" cx="211" cy="916" r="4" />
<circle style="fill:#333" cx="211" cy="956" r="4" />
<circle style="fill:#333" cx="221" cy="961" r="5" />
<circle style="fill:#333" cx="201" cy="922" r="5" />
<circle style="fill:#333" cx="201" cy="935" r="5" />
<circle style="fill:#333" cx="201" cy="909" r="5" />
<circle style="fill:#333" cx="201" cy="948" r="5" />
<circle style="fill:#333" cx="191" cy="929" r="5" />
<circle style="fill:#333" cx="191" cy="943" r="5" />
<circle style="fill:#333" cx="191" cy="916" r="5" />
<circle style="fill:#333" cx="191" cy="956" r="5" />
<circle style="fill:#333" cx="201" cy="961" r="5" />
<circle style="fill:#333" cx="181" cy="922" r="4" />
<circle style="fill:#333" cx="181" cy="935" r="4" />
<circle style="fill:#333" cx="181" cy="909" r="4" />
<circle style="fill:#333" cx="181" cy="948" r="4" />
<circle style="fill:#333" cx="172" cy="929" r="5" />
<circle style="fill:#333" cx="172" cy="943" r="5" />
<circle style="fill:#333" cx="172" cy="916" r="5" />
<circle style="fill:#333" cx="172" cy="956" r="5" />
<circle style="fill:#333" cx="181" cy="961" r="4" />
<circle style="fill:#333" cx="161" cy="922" r="5" />
<circle style="fill:#333" cx="161" cy="935" r="5" />
<circle style="fill:#333" cx="161" cy="909" r="5" />
<circle style="fill:#333" cx="161" cy="948" r="5" />
<circle style="fill:#333" cx="151" cy="929" r="4" />
<circle style="fill:#333" cx="151" cy="943" r="4" />
<circle style="fill:#333" cx="151" cy="916" r="4" />
<circle style="fill:#333" cx="151" cy="956" r="4" />
<circle style="fill:#333" cx="161" cy="961" r="5" />
<circle style="fill:#333" cx="142" cy="922" r="5" />
<circle style="fill:#333" cx="142" cy="935" r="5" />
<circle style="fill:#333" cx="142" cy="909" r="5" />
<circle style="fill:#333" cx="142" cy="948" r="5" />
<circle style="fill:#333" cx="131" cy="929" r="5" />
<circle style="fill:#333" cx="131" cy="943" r="5" />
<circle style="fill:#333" cx="131" cy="916" r="5" />
<circle style="fill:#333" cx="131" cy="956" r="5" />
<circle style="fill:#333" cx="142" cy="961" r="5" />
<circle style="fill:#333" cx="122" cy="922" r="6" />
<ellipse style="fill:#333" cx="122" cy="935" rx="6" ry="4" />
<circle style="fill:#333" cx="122" cy="909" r="6" />
<ellipse style="fill:#333" cx="122" cy="948" rx="6" ry="4" />
<circle style="fill:#333" cx="111" cy="929" r="4" />
<circle style="fill:#333" cx="111" cy="943" r="4" />
<circle style="fill:#333" cx="111" cy="916" r="4" />
<circle style="fill:#333" cx="111" cy="956" r="4" />
<ellipse style="fill:#333" cx="122" cy="961" rx="6" ry="4" />
<circle style="fill:#333" cx="102" cy="922" r="4" />
<circle style="fill:#333" cx="102" cy="935" r="4" />
<circle style="fill:#333" cx="102" cy="909" r="4" />
<circle style="fill:#333" cx="102" cy="948" r="4" />
<ellipse style="fill:#333" cx="92" cy="929" rx="6" ry="4" />
<circle style="fill:#333" cx="92" cy="943" r="6" />
<ellipse style="fill:#333" cx="92" cy="916" rx="6" ry="4" />
<circle style="fill:#333" cx="92" cy="956" r="6" />
<circle style="fill:#333" cx="102" cy="961" r="4" />
<path style="fill:#4c7f7f" d="M395,439 l-30,0 0,377 30,0 0,-377z" />
<path style="fill:#699" d="M392,439 l-25,0 0,377 25,0 0,-377z" />
<path style="fill:#7fb2b2" d="M388,439 l-17,0 0,377 17,0 0,-377z" />
<path style="fill:#9cc" d="M384,439 l-9,0 0,377 9,0 0,-377z" />
<path style="fill:none;stroke:#000;stroke-width:2" d="M395,439 l-30,0 0,377 30,0 0,-377" />
<path style="fill:#4c7f7f" d="M390,844 l-34,-9 7,-31 34,10 -7,30z" />
<path style="fill:#699" d="M388,842 l-30,-7 7,-29 30,8 -7,28z" />
<path style="fill:#7fb2b2" d="M382,842 l-19,-6 8,-28 19,4 -8,30z" />
<path style="fill:#9cc" d="M378,840 l-11,-2 8,-30 11,4 -8,28z" />
<path style="fill:none;stroke:#000;stroke-width:2" d="M390,844 l-34,-9 7,-31 34,10 -7,30" />
<path style="fill:#4c7f7f" d="M318,891 l-9,-36 28,-7 9,36 -28,7z" />
<path style="fill:#699" d="M318,887 l-7,-28 28,-8 7,29 -28,7z" />
<path style="fill:#7fb2b2" d="M316,884 l-5,-21 28,-8 5,21 -28,8z" />
<path style="fill:#9cc" d="M314,878 l-2,-10 29,-7 3,9 -30,8z" />
<path style="fill:none;stroke:#000;stroke-width:2" d="M318,891 l-9,-36 28,-7 9,36 -28,7" />

</svg>
