<?xml version="1.0" encoding="utf-8" standalone="no"?><!DOCTYPE svg PUBLIC "-//W3C//DTD SVG 1.1//EN" "http://www.w3.org/Graphics/SVG/1.1/DTD/svg11-flat-20030114.dtd"><svg width="999" height="491" version="1.1" xmlns="http://www.w3.org/2000/svg" xmlns:xlink="http://www.w3.org/1999/xlink">

<path style="fill:#7f7f7f" d="M478,34 l-22,0 0,30 22,0 0,-30z" />
<path style="fill:#7f7f7f" d="M733,104 l-32,0 0,144 32,0 0,-144z" />
<path style="fill:#7f7f7f" d="M733,140 l237,0 0,72 -237,0 0,-72z" />
<path style="fill:#0000ad;stroke:#000;stroke-width:2" d="M646,282 l0,-10 -5,-17 -10,-17 -15,-17 -24,-15 -25,-15 -34,-13 -36,-10 -41,-9 0,-89 245,0 0,212 -55,0z" />
<path style="fill:#0000ad;stroke:#000;stroke-width:2" d="M456,408 l41,-11 36,-11 34,-12 28,-13 14,-13 13,15 13,26 6,29 0,11 -185,0 0,-21z" />
<path style="fill:#0000ad;stroke:#000;stroke-width:2" d="M414,28 l-223,0 0,418 223,0 0,-418z" />
<path style="fill:#0000ad;stroke:#000;stroke-width:2" d="M151,189 l-123,0 0,95 123,0 0,-95z" />
<path style="fill:#0000ad;stroke:#000;stroke-width:2" d="M191,299 l0,-125 -15,0 -4,2 -4,6 -5,7 0,10 0,75 0,10 5,7 4,6 4,2 15,0z" />
<path style="fill:#0000ad;stroke:#000;stroke-width:2" d="M149,212 l14,0 0,49 -14,0 0,-49z" />
<path style="fill:#e0e0e0" d="M730,140 l-27,0 0,-21 27,0 0,21z" />
<path style="fill:#e0e0e0" d="M733,144 l235,0 0,55 -235,0 0,-55z" />
<path style="fill:#e0e0e0" d="M476,55 l-17,0 0,-13 17,0 0,13z" />
<path style="fill:#fff" d="M733,146 l235,0 0,11 -235,0 0,-11z" />
<path style="fill:#fff" d="M730,106 l-27,0 0,13 27,0 0,-13z" />
<path style="fill:#fff" d="M476,36 l-17,0 0,6 17,0 0,-6z" />
<path style="fill:#ccc" d="M730,140 l-27,0 0,38 27,0 0,-38z" />
<path style="fill:#00f" d="M531,178 l-34,-10 -41,-9 0,-40 240,0 0,59 -165,0z" />
<path style="fill:#00f" d="M412,79 l-219,0 0,103 219,0 0,-103z" />
<path style="fill:#00f" d="M189,206 l0,-30 -9,0 -12,6 -2,20 12,4 11,0z" />
<path style="fill:#00f" d="M151,193 l-123,0 0,15 123,0 0,-15z" />
<path style="fill:#0000bf" d="M456,408 l41,-11 36,-11 34,-12 28,-13 21,-17 17,-15 13,-36 -5,-38 -25,-34 -21,-15 -28,-15 -34,-13 -36,-10 -41,-9 0,-131 -42,0 0,435 236,0 0,-34 -194,0 0,-21z" />
<path style="fill:#0000bf" d="M412,346 l-217,0 0,-164 217,0 0,164z" />
<path style="fill:#0000bf" d="M189,267 l0,-65 -13,0 -8,4 -5,8 0,41 5,8 8,4 13,0z" />
<path style="fill:#0000bf" d="M151,263 l-123,0 0,-55 123,0 0,55z" />
<path style="fill:#7f7fff" d="M412,40 l-219,0 0,66 219,0 0,-66z" />
<path style="fill:#7f7fff" d="M456,89 l0,47 240,0 0,-47 -240,0z" />
<path style="fill:#00f;stroke:#000;stroke-width:2" d="M81,189 l23,0 0,95 -23,0 0,-95z" />
<path style="fill:#7f7fff;stroke:#000;stroke-width:2" d="M81,189 l23,0 0,19 -23,0 0,-19z" />
<path style="fill:#0000bf;stroke:#000;stroke-width:2" d="M81,244 l23,0 0,40 -23,0 0,-40z" />
<circle style="fill:#000" cx="542" cy="281" r="47" />

</svg>
