<?xml version="1.0" encoding="utf-8" standalone="no"?><!DOCTYPE svg PUBLIC "-//W3C//DTD SVG 1.1//EN" "http://www.w3.org/Graphics/SVG/1.1/DTD/svg11-flat-20030114.dtd"><svg width="842" height="999" version="1.1" xmlns="http://www.w3.org/2000/svg" xmlns:xlink="http://www.w3.org/1999/xlink">

<path style="fill:#333;stroke:#000;stroke-width:2" d="M382,774 l-13,40 -100,-28 -89,-51 -73,-74 -51,-88 -28,-101 0,-103 28,-100 51,-91 73,-71 89,-53 100,-26 103,0 101,26 88,53 74,71 53,91 26,100 0,103 -26,101 -53,88 -74,74 -88,51 -101,26 -13,-38 2,-39 81,-23 72,-41 59,-57 41,-72 21,-81 0,-83 -21,-79 -41,-72 -251,202 192,-260 -72,-41 -79,-21 -83,0 -81,21 123,301 -195,-260 -58,58 -41,72 -21,79 0,83 21,80 41,73 58,59 72,39 81,23 2,39z" />
<path style="fill:#98b2e5;stroke:#000;stroke-width:2" d="M735,541 l-19,-70 -36,-62 -51,-51 -62,-36 -70,-19 -469,0 0,511 79,0 0,156 628,0 0,-429z" />
<path style="fill:#4c4c4c;stroke:#000;stroke-width:2" d="M28,735 l0,39 458,0 51,-13 43,-26 38,-36 26,-45 14,-51 0,-51 -14,-51 -26,-44 -38,-37 -43,-26 -51,-14 -458,0 0,40 311,0 -36,37 -26,44 -14,51 0,51 14,51 26,43 37,38 -312,0z" />
<path style="fill:#191919" d="M392,742 l-364,2 0,21 422,0 79,-23 40,-22 34,-34 22,-40 12,-45 0,-47 -12,-45 -24,-40 -32,-34 -40,-23 -79,-22 -422,0 0,20 364,2 -40,23 -34,34 -23,40 -11,45 0,47 11,45 23,40 34,34 40,22z" />
<path style="fill:#e5e5e5;stroke:#000;stroke-width:2" d="M469,731 l21,0 20,-4 19,-11 15,-15 12,-19 5,-21 0,-20 -45,-169 -11,-18 -15,-15 -18,-12 -20,-5 -23,0 -20,5 -19,12 -15,15 -10,18 -6,21 0,21 46,168 9,19 15,15 19,11 21,4z" />
<path style="fill:#7f7f7f" d="M442,480 l8,-13 -4,-17 -13,-8 -17,4 -7,15 3,15 15,8 15,-4z" />
<path style="fill:#7f7f7f" d="M503,708 l9,-15 -5,-15 -14,-7 -15,3 -9,15 5,15 14,8 15,-4z" />
<path style="fill:#7f7f7f" d="M472,593 l10,-13 -6,-15 -13,-8 -15,4 -9,13 5,15 13,10 15,-6z" />
<path style="fill:#7f99cc;stroke:#000;stroke-width:2" d="M107,814 l441,0 58,-21 50,-39 50,-68 29,-98 0,382 -628,0 0,-156z" />
<path style="fill:#333" d="M541,803 l7,-8 0,-13 -7,-8 -14,0 -7,8 0,13 7,8 14,0z" />
<path style="fill:#333" d="M541,380 l7,-7 0,-14 -7,-7 -14,0 -7,7 0,14 7,7 14,0z" />
<path style="fill:#333" d="M97,597 l10,-8 0,-13 -10,-9 -11,0 -9,9 0,13 9,8 11,0z" />

</svg>
