<?xml version="1.0" encoding="utf-8" standalone="no"?><!DOCTYPE svg PUBLIC "-//W3C//DTD SVG 1.1//EN" "http://www.w3.org/Graphics/SVG/1.1/DTD/svg11-flat-20030114.dtd"><svg width="488" height="999" version="1.1" xmlns="http://www.w3.org/2000/svg" xmlns:xlink="http://www.w3.org/1999/xlink">

<path style="fill:#4c4c4c;stroke:#000;stroke-width:2" d="M361,970 l-19,-216 -196,0 -20,216 235,0z" />
<path style="fill:#7f7f7f" d="M376,802 l11,-2 0,-18 -11,-2 0,22z" />
<path style="fill:#7f7f7f" d="M376,854 l11,-3 0,-17 -11,-3 0,23z" />
<path style="fill:#7f7f7f" d="M376,906 l11,-3 0,-17 -11,-3 0,23z" />
<path style="fill:#7f7f7f" d="M376,774 l-34,0 0,137 34,0 0,-137z" />
<path style="fill:#999" d="M376,782 l-34,0 0,121 34,0 0,-121z" />
<path style="fill:#b2b2b2" d="M376,797 l-34,0 0,91 34,0 0,-91z" />
<path style="fill:#ccc" d="M376,811 l-34,0 0,63 34,0 0,-63z" />
<path style="fill:#e5e5e5" d="M376,822 l-34,0 0,40 34,0 0,-40z" />
<path style="fill:#fff" d="M376,834 l-34,0 0,17 34,0 0,-17z" />
<path style="fill:none;stroke:#000;stroke-width:2" d="M376,774 l-34,0 0,137 34,0 0,-137" />
<path style="fill:#b2b2b2" d="M376,798 l11,-1 0,-15 -11,-2 0,18z" />
<path style="fill:#b2b2b2" d="M376,850 l11,-2 0,-14 -11,-3 0,19z" />
<path style="fill:#b2b2b2" d="M376,901 l11,-1 0,-14 -11,-3 0,18z" />
<path style="fill:#e5e5e5" d="M387,786 l0,-4 -11,-2 0,4 11,2z" />
<path style="fill:#e5e5e5" d="M387,837 l0,-3 -11,-3 0,4 11,2z" />
<path style="fill:#e5e5e5" d="M387,888 l0,-2 -11,-3 0,4 11,1z" />
<path style="fill:none;stroke:#000;stroke-width:2" d="M376,906 l11,-3 0,-17 -11,-3 0,23" />
<path style="fill:none;stroke:#000;stroke-width:2" d="M376,854 l11,-3 0,-17 -11,-3 0,23" />
<path style="fill:none;stroke:#000;stroke-width:2" d="M376,802 l12,-3 -1,-17 -11,-2 0,22" />
<path style="fill:#ccc" d="M361,754 l20,-59 0,-353 1,0 -276,0 0,353 20,59 235,0z" />
<path style="fill:#d9d9d9" d="M345,754 l17,-59 0,-353 0,0 -236,0 0,353 16,59 203,0z" />
<path style="fill:#e5e5e5" d="M311,754 l11,-59 0,-353 1,0 -158,0 0,353 11,59 135,0z" />
<path style="fill:#f2f2f2" d="M261,754 l3,-59 0,-353 0,0 -40,0 0,353 3,59 34,0z" />
<path style="fill:none;stroke:#000;stroke-width:2" d="M361,754 l20,-59 0,-353 1,0 -276,0 0,353 20,59 235,0" />
<path style="fill:#d9d9d9" d="M361,126 l0,-59 -39,-39 -157,0 -39,39 0,59 235,0z" />
<path style="fill:#e5e5e5" d="M345,126 l0,-59 -34,-39 -135,0 -34,39 0,59 203,0z" />
<path style="fill:#f2f2f2" d="M311,126 l0,-59 -22,-39 -90,0 -23,39 0,59 135,0z" />
<path style="fill:#fff" d="M260,126 l0,-59 -5,-39 -22,0 -6,39 0,59 33,0z" />
<path style="fill:none;stroke:#000;stroke-width:2" d="M361,126 l0,-59 -39,-39 -157,0 -39,39 0,59 235,0" />
<path style="fill:#bfbfbf;stroke:#000;stroke-width:2" d="M302,646 l-19,0 0,-147 19,0 0,147z" />
<path style="fill:#f2f2f2;stroke:#000;stroke-width:2" d="M302,499 l99,0 0,137 -98,10 -1,-147z" />
<path style="fill:#333" d="M342,695 l-79,0 0,40 79,0 0,-40z" />
<path style="fill:#333" d="M146,695 l78,0 0,40 -78,0 0,-40z" />
<path style="fill:none;stroke:#000;stroke-width:2" d="M381,695 l-275,0" />
<path style="fill:#000" d="M263,793 l-39,0 0,157 39,0 0,-157z" />
<path style="fill:#bfbfbf" d="M371,342 l-255,0 0,15 255,0 0,-15z" />
<path style="fill:#d9d9d9" d="M401,126 l-314,0 0,216 314,0 0,-216z" />
<path style="fill:#e5e5e5" d="M378,126 l-269,0 0,216 269,0 0,-216z" />
<path style="fill:#f2f2f2" d="M333,126 l-179,0 0,216 179,0 0,-216z" />
<path style="fill:#fff" d="M266,126 l-45,0 0,216 45,0 0,-216z" />
<path style="fill:none;stroke:#000;stroke-width:2" d="M401,126 l-314,0 0,216 314,0 0,-216" />
<path style="fill:#999;stroke:#000;stroke-width:2" d="M391,298 l-152,0 0,34 152,0 0,-34z" />
<path style="fill:#999;stroke:#000;stroke-width:2" d="M219,293 l-132,0 0,39 132,0 0,-39z" />
<path style="fill:#bfbfbf;stroke:#000;stroke-width:2" d="M401,165 l39,20 20,39 -20,0 -39,-20 0,-39z" />
<path style="fill:#bfbfbf;stroke:#000;stroke-width:2" d="M87,165 l-39,20 -20,39 20,0 39,-20 0,-39z" />
<path style="fill:none;stroke:#000;stroke-width:2" d="M283,622 l-177,0" />
<path style="fill:none;stroke:#000;stroke-width:2" d="M283,610 l-177,0" />
<path style="fill:none;stroke:#000;stroke-width:2" d="M106,597 l177,0" />
<path style="fill:none;stroke:#000;stroke-width:2" d="M283,585 l-177,0" />
<path style="fill:none;stroke:#000;stroke-width:2" d="M283,573 l-177,0" />
<circle style="fill:#d9d9d9" cx="273" cy="96" r="15" />
<path style="fill:none;stroke:#7f7f7f;stroke-width:2" d="M386,617 l-64,10 0,-113" />
<path style="fill:#7f7f7f;stroke:#000;stroke-width:2" d="M371,656 l-71,0 0,20 71,0 0,-20z" />
<path style="fill:#7f7f7f;stroke:#000;stroke-width:2" d="M280,656 l-72,0 0,20 72,0 0,-20z" />
<path style="fill:#7f7f7f;stroke:#000;stroke-width:2" d="M188,656 l-72,0 0,20 72,0 0,-20z" />

</svg>
