<?xml version="1.0" encoding="utf-8" standalone="no"?><!DOCTYPE svg PUBLIC "-//W3C//DTD SVG 1.1//EN" "http://www.w3.org/Graphics/SVG/1.1/DTD/svg11-flat-20030114.dtd"><svg width="621" height="999" version="1.1" xmlns="http://www.w3.org/2000/svg" xmlns:xlink="http://www.w3.org/1999/xlink">

<path style="fill:#9cc" d="M529,92 l0,-3 0,-3 0,-3 0,-33 -16,-21 -4,-1 -2,0 -14,0 -413,0 -21,16 -1,4 0,2 0,42 471,0z" />
<path style="fill:#9cc" d="M552,156 l-23,-23 -471,0 -23,23 517,0z" />
<path style="fill:#9cc" d="M552,884 l-517,0 0,-728 517,0 0,728z" />
<path style="fill:#0ff" d="M495,92 l0,-3 0,-3 0,-3 0,-33 -15,-22 -2,0 -2,0 -13,0 -318,0 -22,16 -1,4 0,2 0,42 373,0z" />
<path style="fill:#0ff" d="M518,156 l-23,-23 -373,0 -23,23 419,0z" />
<path style="fill:#0ff" d="M518,884 l-419,0 0,-728 419,0 0,728z" />
<path style="fill:#9ff" d="M454,92 l0,-3 0,-3 0,-3 0,-33 -3,-10 -6,-7 -8,-4 -4,-1 -2,0 -12,0 -188,0 -10,3 -7,5 -4,8 -1,4 0,2 0,42 245,0z" />
<path style="fill:#9ff" d="M476,156 l-22,-23 -245,0 -23,23 290,0z" />
<path style="fill:#9ff" d="M476,884 l-290,0 0,-728 290,0 0,728z" />
<path style="fill:#699;stroke:#000;stroke-width:2" d="M35,884 l23,22 471,0 23,-22 -517,0z" />
<path style="fill:#699;stroke:#000;stroke-width:2" d="M99,133 l389,0 -22,-13 8,-24 11,-4 3,0 -389,0 22,14 -10,25 -9,2 -3,0z" />
<path style="fill:#366;stroke:#000;stroke-width:2" d="M122,970 l343,0 30,-8 23,-21 11,-29 0,-6 -471,0 8,30 21,23 29,11 6,0z" />
<path style="fill:#366;stroke:#000;stroke-width:2" d="M495,167 l-19,0 0,64 19,0 0,-64z" />
<path style="fill:#366;stroke:#000;stroke-width:2" d="M197,167 l-34,0 0,64 34,0 0,-64z" />
<path style="fill:none;stroke:#000;stroke-width:2" d="M529,92 l0,-3 0,-3 0,-3 0,-33 -16,-21 -4,-1 -2,0 -14,0 -413,0 -21,16 -1,4 0,2 0,42 471,0" />
<path style="fill:none;stroke:#000;stroke-width:2" d="M99,133 l389,0 -22,-13 8,-24 11,-4 3,0 -389,0 22,14 -10,25 -9,2 -3,0" />
<path style="fill:none;stroke:#000;stroke-width:2" d="M552,156 l-23,-23 -471,0 -23,23 517,0" />
<path style="fill:none;stroke:#000;stroke-width:2" d="M552,884 l-517,0 0,-728 517,0 0,728" />
<path style="fill:none;stroke:#000;stroke-width:2" d="M552,235 l41,0 0,-75 -41,0 0,75" />
<path style="fill:#366" d="M465,114 l15,-21 5,-1 3,0 -389,0 22,14 1,6 0,2 1,0 342,0z" />
<path style="fill:#699" d="M563,243 l-535,0 0,11 535,0 0,-11z" />
<path style="fill:#9cc" d="M529,243 l-437,0 0,11 437,0 0,-11z" />
<path style="fill:#0ff" d="M488,243 l-313,0 0,11 313,0 0,-11z" />
<path style="fill:none;stroke:#000;stroke-width:2" d="M563,243 l-535,0 0,11 535,0 0,-11" />
<path style="fill:#0ff;stroke:#000;stroke-width:2" d="M529,819 l-87,0 0,-233 87,0 0,233z" />
<path style="fill:#9cc;stroke:#000;stroke-width:2" d="M552,235 l41,0 0,-75 -41,0 0,75z" />
<path style="fill:#9cc;stroke:#000;stroke-width:2" d="M529,819 l0,-233 -87,0 6,0 11,-1 11,-1 10,-1 10,-1 9,-2 9,-2 8,-3 11,-4 9,-4 7,-5 7,-7 2,-5 0,-2 41,0 0,234 -3,12 -5,6 -7,6 -9,6 -10,3 -11,3 -13,1 -6,0z" />
<path style="fill:#0ff" d="M593,235 l0,-75 -41,0 0,7 37,0 0,68 4,0z" />
<path style="fill:none;stroke:#000;stroke-width:2" d="M593,548 l0,4 -1,3 -2,3 -2,4 -3,3 -3,3 -4,3 -4,3 -5,3 -5,2 -5,2 -6,2 -5,1 -6,1 -7,0 -6,1" />

</svg>
