<?xml version="1.0" encoding="utf-8" standalone="no"?><!DOCTYPE svg PUBLIC "-//W3C//DTD SVG 1.1//EN" "http://www.w3.org/Graphics/SVG/1.1/DTD/svg11-flat-20030114.dtd"><svg width="602" height="999" version="1.1" xmlns="http://www.w3.org/2000/svg" xmlns:xlink="http://www.w3.org/1999/xlink">

<path style="fill:#666" d="M49,114 l-21,0 0,685 21,0 0,-685z" />
<path style="fill:#666" d="M574,114 l-22,0 0,685 22,0 0,-685z" />
<path style="fill:#7f7f7f" d="M43,799 l6,34 10,25 16,23 19,21 25,18 28,16 31,13 34,11 37,7 38,3 13,0 13,0 39,-3 36,-7 35,-11 31,-13 28,-16 24,-18 20,-21 16,-23 10,-25 5,-25 0,-9 0,-707 -21,-43 -43,-21 -386,0 -42,21 -22,43 0,707z" />
<path style="fill:#949494" d="M82,799 l5,34 13,32 20,29 26,26 32,21 37,16 41,10 44,3 44,-3 41,-10 37,-16 32,-21 27,-26 20,-29 13,-32 4,-34 0,-707 -18,-43 -37,-21 -326,0 -37,21 -18,43 0,707z" />
<path style="fill:#ababab" d="M122,799 l3,34 11,32 16,29 22,26 26,21 31,16 33,10 36,3 36,-3 33,-10 31,-16 26,-21 22,-26 17,-29 10,-32 4,-34 0,-707 -15,-43 -30,-21 -268,0 -30,21 -14,43 0,707z" />
<path style="fill:#bfbfbf" d="M161,799 l3,34 8,32 13,29 17,26 20,21 24,16 26,10 28,3 28,-3 26,-10 24,-16 20,-21 18,-26 13,-29 8,-32 3,-34 0,-707 -12,-43 -23,-21 -209,0 -24,21 -11,43 0,707z" />
<path style="fill:#d4d4d4" d="M200,799 l2,34 6,32 9,29 12,26 15,21 26,21 30,8 30,-8 26,-21 15,-21 12,-26 9,-29 6,-32 2,-34 0,-707 -8,-43 -17,-21 -150,0 -17,21 -8,43 0,707z" />
<path style="fill:#ebebeb" d="M239,799 l2,34 3,32 6,29 7,26 14,29 23,20 6,1 24,-13 15,-26 12,-37 5,-29 4,-32 1,-34 0,-707 -5,-43 -10,-21 -92,0 -10,21 -5,43 0,707z" />
<path style="fill:#fff" d="M279,799 l0,18 1,33 2,31 2,27 4,33 8,26 4,3 5,-3 7,-26 5,-33 2,-27 2,-31 1,-33 0,-725 -2,-43 -3,-21 -33,0 -3,21 -2,43 0,707z" />
<path style="fill:none;stroke:#000;stroke-width:2" d="M43,799 l6,34 10,25 16,23 19,21 25,18 28,16 31,13 34,11 37,7 38,3 13,0 13,0 39,-3 36,-7 35,-11 31,-13 28,-16 24,-18 20,-21 16,-23 10,-25 5,-25 0,-9 0,-707 -21,-43 -43,-21 -386,0 -42,21 -22,43 0,707" />
<path style="fill:#999;stroke:#000;stroke-width:2" d="M289,114 l-21,0 0,685 21,0 0,-685z" />
<path style="fill:#999;stroke:#000;stroke-width:2" d="M332,114 l-21,0 0,685 21,0 0,-685z" />
<path style="fill:#7f7f7f;stroke:#000;stroke-width:2" d="M204,114 l-21,0 0,685 21,0 0,-685z" />
<path style="fill:#7f7f7f;stroke:#000;stroke-width:2" d="M247,114 l-22,0 0,685 22,0 0,-685z" />
<path style="fill:#7f7f7f;stroke:#000;stroke-width:2" d="M418,114 l-21,0 0,685 21,0 0,-685z" />
<path style="fill:#7f7f7f;stroke:#000;stroke-width:2" d="M375,114 l-21,0 0,685 21,0 0,-685z" />
<path style="fill:#666;stroke:#000;stroke-width:2" d="M92,114 l-22,0 0,685 22,0 0,-685z" />
<path style="fill:#666;stroke:#000;stroke-width:2" d="M124,114 l-22,0 0,685 22,0 0,-685z" />
<path style="fill:#666;stroke:#000;stroke-width:2" d="M161,114 l-21,0 0,685 21,0 0,-685z" />
<path style="fill:#666;stroke:#000;stroke-width:2" d="M530,114 l-21,0 0,685 21,0 0,-685z" />
<path style="fill:#666;stroke:#000;stroke-width:2" d="M498,114 l-21,0 0,685 21,0 0,-685z" />
<path style="fill:#666;stroke:#000;stroke-width:2" d="M461,114 l-21,0 0,685 21,0 0,-685z" />
<path style="fill:#4c4c4c;stroke:#000;stroke-width:2" d="M65,114 l-22,0 0,685 22,0 0,-685z" />
<path style="fill:#4c4c4c;stroke:#000;stroke-width:2" d="M557,114 l-21,0 0,685 21,0 0,-685z" />

</svg>
