<?xml version="1.0" encoding="utf-8" standalone="no"?><!DOCTYPE svg PUBLIC "-//W3C//DTD SVG 1.1//EN" "http://www.w3.org/Graphics/SVG/1.1/DTD/svg11-flat-20030114.dtd"><svg width="410" height="999" version="1.1" xmlns="http://www.w3.org/2000/svg" xmlns:xlink="http://www.w3.org/1999/xlink">

<path style="fill:#000;stroke:#000;stroke-width:2" d="M329,578 l0,-354 -294,0 0,354 294,0z" />
<path style="fill:#9cc;stroke:#000;stroke-width:2" d="M341,145 l-12,-8 -294,0 -7,8 313,0z" />
<path style="fill:#366;stroke:#000;stroke-width:2" d="M329,65 l-30,-7 -234,0 -30,7 294,0z" />
<path style="fill:#9cc;stroke:#000;stroke-width:2" d="M329,58 l-30,-30 -234,0 -30,30 294,0z" />
<path style="fill:#699;stroke:#000;stroke-width:2" d="M329,137 l0,-72 -294,0 0,72 294,0z" />
<path style="fill:#699;stroke:#000;stroke-width:2" d="M341,145 l-313,0 0,79 313,0 0,-79z" />
<path style="fill:#699;stroke:#000;stroke-width:2" d="M111,529 l-8,0 0,-301 8,0 0,301z" />
<path style="fill:#699;stroke:#000;stroke-width:2" d="M228,529 l-12,0 0,-301 12,0 0,301z" />
<path style="fill:#699;stroke:#000;stroke-width:2" d="M322,529 l-12,0 0,-301 12,0 0,301z" />
<path style="fill:#9cc" d="M99,224 l38,0 4,-9 -2,-9 -5,-7 -8,-4 -8,-1 -10,2 -7,6 -5,7 0,3 3,9 0,3z" />
<path style="fill:#9cc" d="M318,224 l19,0 0,-12 -2,-9 -4,-8 -5,-1 -7,6 -4,9 -1,3 3,9 1,3z" />
<path style="fill:#366" d="M103,224 l30,0 4,-7 -3,-11 -8,-4 -8,-1 -10,3 -4,8 -1,4 0,8z" />
<path style="fill:#366" d="M318,224 l15,0 4,-8 -2,-10 -7,-5 -2,0 -2,0 -5,8 -1,7 0,8z" />
<path style="fill:#033;stroke:#000;stroke-width:2" d="M341,529 l-12,0 0,-301 12,0 0,301z" />
<path style="fill:#033;stroke:#000;stroke-width:2" d="M303,529 l-11,0 0,-301 11,0 0,301z" />
<path style="fill:#033;stroke:#000;stroke-width:2" d="M284,529 l-11,0 0,-301 11,0 0,301z" />
<path style="fill:#033;stroke:#000;stroke-width:2" d="M265,529 l-11,0 0,-301 11,0 0,301z" />
<path style="fill:#033;stroke:#000;stroke-width:2" d="M246,529 l-11,0 0,-301 11,0 0,301z" />
<path style="fill:#033;stroke:#000;stroke-width:2" d="M209,529 l-12,0 0,-301 12,0 0,301z" />
<path style="fill:#033;stroke:#000;stroke-width:2" d="M190,529 l-11,0 0,-301 11,0 0,301z" />
<path style="fill:#033;stroke:#000;stroke-width:2" d="M167,529 l-7,0 0,-301 7,0 0,301z" />
<path style="fill:#033;stroke:#000;stroke-width:2" d="M148,529 l-7,0 0,-301 7,0 0,301z" />
<path style="fill:#033;stroke:#000;stroke-width:2" d="M130,529 l-8,0 0,-301 8,0 0,301z" />
<path style="fill:#033;stroke:#000;stroke-width:2" d="M92,529 l-8,0 0,-301 8,0 0,301z" />
<path style="fill:#033;stroke:#000;stroke-width:2" d="M73,529 l-8,0 0,-301 8,0 0,301z" />
<path style="fill:#033;stroke:#000;stroke-width:2" d="M54,529 l-7,0 0,-301 7,0 0,301z" />
<path style="fill:#033;stroke:#000;stroke-width:2" d="M35,529 l-7,0 0,-301 7,0 0,301z" />
<path style="fill:#033;stroke:#000;stroke-width:2" d="M111,220 l19,0 -2,-11 -7,-4 -3,0 -7,6 0,5 0,4z" />
<path style="fill:#033;stroke:#000;stroke-width:2" d="M322,220 l11,0 -1,-11 -6,-4 -4,9 0,2 0,4z" />
<path style="fill:none;stroke:#366;stroke-width:2" d="M28,529 l0,-301" />
<path style="fill:#699;stroke:#000;stroke-width:2" d="M299,473 l42,-4 0,-155 -42,-4 0,163z" />
<path style="fill:#366;stroke:#000;stroke-width:2" d="M299,473 l-4,0 0,-163 4,0 0,163z" />
<path style="fill:#699;stroke:#000;stroke-width:2" d="M322,450 l56,-4 4,-7 -4,-87 -64,0 12,90 -4,8z" />
<path style="fill:#9cc;stroke:#000;stroke-width:2" d="M314,352 l-37,-8 67,0 34,8 -64,0z" />
<path style="fill:#366;stroke:#000;stroke-width:2" d="M378,446 l4,-7 -56,3 -12,-90 -37,-8 0,8 3,4 0,86 0,4 42,4 56,-4z" />
<path style="fill:#033" d="M322,446 l56,-4 4,-3 -56,3 -46,-94 -3,0 45,98z" />
<path style="fill:#9cc;stroke:#000;stroke-width:2" d="M111,250 l-12,0 0,249 12,0 0,-249z" />
<path style="fill:#b2b2b2;stroke:#000;stroke-width:2" d="M114,303 l-18,0 0,132 18,0 0,-132z" />
<path style="fill:#900;stroke:#000;stroke-width:2" d="M114,307 l-18,0 0,49 18,0 0,-49z" />
<path style="fill:#b2b2b2;stroke:#000;stroke-width:2" d="M337,597 l-306,0 0,151 306,0 0,-151z" />
<path style="fill:#b2b2b2;stroke:#000;stroke-width:2" d="M341,578 l-313,0 0,19 313,0 0,-19z" />
<path style="fill:#b2b2b2;stroke:#000;stroke-width:2" d="M341,748 l-313,0 0,22 313,0 0,-22z" />
<path style="fill:#b2b2b2;stroke:#000;stroke-width:2" d="M337,770 l-306,0 0,181 306,0 0,-181z" />
<path style="fill:#b2b2b2;stroke:#000;stroke-width:2" d="M341,951 l-313,0 0,19 313,0 0,-19z" />
<path style="fill:#366;stroke:#000;stroke-width:2" d="M273,940 l19,-19 0,-124 -19,-19 -177,0 -19,19 0,124 19,19 177,0z" />
<path style="fill:#366;stroke:#000;stroke-width:2" d="M273,740 l19,-19 0,-94 -19,-19 -177,0 -19,19 0,94 19,19 177,0z" />
<path style="fill:#9cc" d="M261,729 l19,-19 0,-71 -19,-23 -158,0 -19,23 0,71 19,19 158,0z" />
<path style="fill:#9cc" d="M261,933 l19,-23 0,-102 -19,-19 -158,0 -19,19 0,102 19,23 158,0z" />
<path style="fill:#699" d="M258,725 l19,-19 0,-64 -19,-19 -147,0 -23,19 0,64 23,19 147,0z" />
<path style="fill:#699" d="M258,925 l19,-19 0,-94 -19,-19 -147,0 -23,19 0,94 23,19 147,0z" />

</svg>
