<?xml version="1.0" encoding="utf-8" standalone="no"?><!DOCTYPE svg PUBLIC "-//W3C//DTD SVG 1.1//EN" "http://www.w3.org/Graphics/SVG/1.1/DTD/svg11-flat-20030114.dtd"><svg width="402" height="998" version="1.1" xmlns="http://www.w3.org/2000/svg" xmlns:xlink="http://www.w3.org/1999/xlink">

<path style="fill:#4c4c4c;stroke:#000;stroke-width:2" d="M119,151 l-23,0 0,105 23,0 0,-105z" />
<path style="fill:#7f7f7f" d="M227,770 l0,-63 -50,0 0,45 -17,0 0,45 41,0 26,-27z" />
<path style="fill:#7f7f7f" d="M141,811 l19,0 0,-73 -19,0 0,73z" />
<path style="fill:#999" d="M223,768 l0,-62 -41,0 0,47 -2,4 -20,0 0,37 38,0 25,-26z" />
<path style="fill:#999" d="M141,805 l19,0 0,-61 -19,0 0,61z" />
<path style="fill:#b2b2b2" d="M218,767 l0,-61 -31,0 0,49 -4,7 -23,0 0,27 36,0 22,-22z" />
<path style="fill:#b2b2b2" d="M141,797 l19,0 0,-45 -19,0 0,45z" />
<path style="fill:#ccc" d="M213,764 l0,-58 -21,0 0,51 -7,8 -25,0 0,19 33,0 20,-20z" />
<path style="fill:#ccc" d="M141,791 l19,0 0,-33 -19,0 0,33z" />
<path style="fill:#e5e5e5" d="M208,763 l0,-56 -11,0 0,51 -10,12 -27,0 0,10 32,0 16,-17z" />
<path style="fill:#e5e5e5" d="M141,784 l19,0 0,-19 -19,0 0,19z" />
<path style="fill:#7f7f7f" d="M370,608 l-20,0 0,12 -69,0 0,49 69,0 0,14 20,0 0,-75z" />
<path style="fill:#999" d="M370,614 l-20,0 0,11 -70,0 0,39 70,0 0,11 20,0 0,-61z" />
<path style="fill:#b2b2b2" d="M370,621 l-20,0 0,9 -70,0 0,31 70,0 0,7 20,0 0,-47z" />
<path style="fill:#ccc" d="M370,628 l-20,0 0,5 -70,0 0,21 70,0 0,8 20,0 0,-34z" />
<path style="fill:#e5e5e5" d="M370,635 l-20,0 0,5 -69,0 0,11 69,0 0,3 20,0 0,-19z" />
<path style="fill:none;stroke:#000;stroke-width:2" d="M370,608 l-20,0 0,12 -69,0 0,49 69,0 0,14 20,0 0,-75" />
<path style="fill:#333" d="M278,706 l82,255 -319,0 82,-255 27,0 -76,251 250,0 -73,-251 27,0z" />
<path style="fill:#4c4c4c" d="M246,561 l-91,0 0,32 91,0 0,-32z" />
<path style="fill:#999;stroke:#000;stroke-width:2" d="M255,346 l-109,0 0,-9 109,0 0,9z" />
<path style="fill:#999;stroke:#000;stroke-width:2" d="M246,346 l-91,0 0,215 91,0 0,-215z" />
<path style="fill:#7f7f7f" d="M255,337 l18,-13 0,-22 9,-19 0,-145 -9,-19 0,-81 -8,-10 -129,0 -8,10 0,81 -9,19 0,145 9,19 0,22 18,13 109,0z" />
<path style="fill:#666" d="M282,283 l0,-145 -163,0 0,145 163,0z" />
<path style="fill:#ccc" d="M160,119 l-9,19 0,145 9,17 0,33 2,0 0,-33 -8,-17 0,-145 8,-19 -2,0z" />
<path style="fill:#ccc" d="M171,119 l-6,19 0,145 6,17 0,33 2,0 0,-33 -6,-17 0,-145 6,-19 -2,0z" />
<path style="fill:#ccc" d="M183,119 l-3,19 0,145 3,17 0,33 2,0 0,-33 -5,-17 0,-145 5,-19 -2,0z" />
<path style="fill:#ccc" d="M229,119 l6,19 0,145 -6,17 0,33 -2,0 0,-33 6,-17 0,-145 -6,-19 2,0z" />
<path style="fill:#ccc" d="M241,119 l9,19 0,145 -9,17 0,33 -3,0 0,-33 8,-17 0,-145 -8,-19 3,0z" />
<path style="fill:#fff;stroke:#fff;stroke-width:2" d="M194,119 l-1,19 0,145 1,17 0,33 0,-33 -1,-17 0,-145 1,-19z" />
<path style="fill:#fff;stroke:#fff;stroke-width:2" d="M206,119 l1,19 0,145 -1,17 0,33 0,-33 1,-17 0,-145 -1,-19z" />
<path style="fill:#fff;stroke:#fff;stroke-width:2" d="M218,119 l4,19 0,145 -4,17 0,33 -1,0 0,-33 3,-17 0,-145 -3,-19 1,0z" />
<path style="fill:#b2b2b2" d="M136,119 l-13,19 0,145 13,19 0,32 5,0 0,-32 -13,-19 0,-145 13,-19 -5,0z" />
<path style="fill:#b2b2b2" d="M148,119 l-12,19 0,145 12,17 0,33 3,0 0,-33 -11,-17 0,-145 11,-19 -3,0z" />
<path style="fill:#b2b2b2" d="M265,119 l13,19 0,145 -13,19 0,32 -5,0 0,-32 13,-19 0,-145 -13,-19 5,0z" />
<path style="fill:#b2b2b2" d="M252,119 l12,19 0,145 -12,17 0,33 -3,0 0,-33 11,-17 0,-145 -11,-19 3,0z" />
<path style="fill:#919191" d="M257,119 l0,-82 -7,-9 -100,0 -6,9 0,82 113,0z" />
<path style="fill:#a6a6a6" d="M241,119 l0,-82 -5,-9 -71,0 -5,9 0,82 81,0z" />
<path style="fill:#b8b8b8" d="M225,119 l0,-82 -3,-9 -44,0 -3,9 0,82 50,0z" />
<path style="fill:#ccc" d="M209,119 l0,-81 -1,-10 -15,0 -1,10 0,81 17,0z" />
<path style="fill:none;stroke:#000;stroke-width:2" d="M255,337 l18,-13 0,-22 9,-19 0,-145 -9,-19 0,-81 -8,-10 -129,0 -8,10 0,81 -9,19 0,145 9,19 0,22 18,13 109,0" />
<path style="fill:#7f7f7f" d="M209,561 l0,-124 19,0 0,-35 -19,0 0,-14 10,0 0,-14 -10,0 0,-23 -17,0 0,23 -10,0 0,14 10,0 0,14 -19,0 0,35 19,0 0,124 17,0z" />
<path style="fill:#b2b2b2" d="M241,442 l-81,0 0,4 81,0 0,-4z" />
<path style="fill:#b2b2b2" d="M241,451 l-81,0 0,5 81,0 0,-5z" />
<path style="fill:#b2b2b2" d="M241,552 l-81,0 0,4 81,0 0,-4z" />
<path style="fill:#b2b2b2" d="M241,351 l-81,0 0,5 81,0 0,-5z" />
<path style="fill:#b2b2b2" d="M228,442 l0,-86 -4,0 0,86 4,0z" />
<path style="fill:#b2b2b2" d="M169,442 l0,-86 -5,0 0,86 5,0z" />
<path style="fill:#b2b2b2" d="M182,552 l0,-96 -4,0 0,96 4,0z" />
<path style="fill:#b2b2b2" d="M241,456 l-3,0 0,96 3,0 0,-96z" />
<path style="fill:#7f7f7f;stroke:#000;stroke-width:2" d="M169,561 l-14,0 0,32 14,0 0,-32z" />
<path style="fill:#7f7f7f;stroke:#000;stroke-width:2" d="M191,561 l-13,0 0,32 13,0 0,-32z" />
<path style="fill:#7f7f7f;stroke:#000;stroke-width:2" d="M223,561 l-14,0 0,32 14,0 0,-32z" />
<path style="fill:#7f7f7f;stroke:#000;stroke-width:2" d="M246,561 l-13,0 0,32 13,0 0,-32z" />
<path style="fill:#7f7f7f" d="M292,698 l0,-19 -10,0 0,-68 10,0 0,-18 -183,0 0,18 10,0 0,68 -10,0 0,19 183,0z" />
<path style="fill:#949494" d="M276,696 l0,-17 -8,0 0,-68 8,0 0,-18 -151,0 0,18 8,0 0,68 -8,0 0,17 151,0z" />
<path style="fill:#a8a8a8" d="M261,696 l0,-17 -7,0 0,-68 7,0 0,-18 -121,0 0,18 6,0 0,68 -6,0 0,17 121,0z" />
<path style="fill:#bdbdbd" d="M245,696 l0,-17 -5,0 0,-68 5,0 0,-18 -89,0 0,18 4,0 0,68 -4,0 0,17 89,0z" />
<path style="fill:#d1d1d1" d="M229,696 l0,-17 -2,0 0,-68 2,0 0,-18 -58,0 0,18 4,0 0,68 -4,0 0,17 58,0z" />
<path style="fill:#e5e5e5" d="M214,698 l0,-19 -1,0 0,-68 1,0 0,-18 -27,0 0,18 1,0 0,68 -1,0 0,19 27,0z" />
<path style="fill:none;stroke:#000;stroke-width:2" d="M292,698 l0,-19 -10,0 0,-68 10,0 0,-18 -183,0 0,18 10,0 0,68 -10,0 0,19 183,0" />
<path style="fill:#7f7f7f;stroke:#000;stroke-width:2" d="M292,698 l-183,0 0,8 183,0 0,-8z" />
<path style="fill:#7f7f7f;stroke:#000;stroke-width:2" d="M292,706 l81,264 -345,0 81,-264 27,0 -76,259 278,0 -73,-259 27,0z" />
<path style="fill:none;stroke:#000;stroke-width:2" d="M282,611 l-163,0" />
<path style="fill:none;stroke:#000;stroke-width:2" d="M119,679 l163,0" />
<path style="fill:none;stroke:#000;stroke-width:2" d="M350,669 l0,-48" />
<path style="fill:none;stroke:#000;stroke-width:2" d="M141,811 l19,0 0,-73 -19,0 0,73" />
<path style="fill:none;stroke:#000;stroke-width:2" d="M227,770 l0,-63 -50,0 0,45 -17,0 0,45 41,0 26,-27" />
<path style="fill:#ccc" d="M119,201 l-23,0 0,5 23,0 0,-5z" />
<path style="fill:#ccc" d="M96,151 l-4,0 0,105 4,0 0,-105z" />
<path style="fill:#4c4c4c;stroke:#000;stroke-width:2" d="M305,183 l-41,0 0,59 41,0 0,-59z" />

</svg>
