<?xml version="1.0" encoding="utf-8" standalone="no"?><!DOCTYPE svg PUBLIC "-//W3C//DTD SVG 1.1//EN" "http://www.w3.org/Graphics/SVG/1.1/DTD/svg11-flat-20030114.dtd"><svg width="369" height="999" version="1.1" xmlns="http://www.w3.org/2000/svg" xmlns:xlink="http://www.w3.org/1999/xlink">

<path style="fill:#ccc;stroke:#000;stroke-width:2" d="M254,410 l7,-5 7,-6 7,-6 8,-5 7,-6 7,-5 8,-5 7,-5 7,-10 0,-4 -1,-7 -2,-3 -4,0 -64,0 6,67z" />
<path style="fill:#ccc;stroke:#000;stroke-width:2" d="M114,410 l-7,-5 -7,-6 -7,-6 -7,-5 -7,-6 -8,-5 -7,-5 -8,-5 -7,-10 0,-4 2,-7 2,-3 3,0 64,0 -6,67z" />
<path style="fill:#999;stroke:#000;stroke-width:2" d="M263,343 l59,608 -59,0 -30,-608 30,0z" />
<path style="fill:#999;stroke:#000;stroke-width:2" d="M105,343 l-58,608 58,0 30,-608 -30,0z" />
<path style="fill:#b2b2b2" d="M258,343 l54,608 -39,0 -34,-608 19,0z" />
<path style="fill:#b2b2b2" d="M111,343 l-55,608 40,0 34,-608 -19,0z" />
<path style="fill:#ccc" d="M254,343 l49,608 -21,0 -39,-608 11,0z" />
<path style="fill:#ccc" d="M114,343 l-49,608 21,0 40,-608 -12,0z" />
<path style="fill:#7f7f7f" d="M282,56 l0,287 -196,0 0,-5 0,-282 14,-23 9,-5 5,0 11,0 129,0 23,13 5,10 0,5z" />
<path style="fill:#999" d="M263,56 l2,287 -162,0 0,-5 0,-282 12,-23 9,-5 4,0 8,0 105,0 21,18 1,10z" />
<path style="fill:#b2b2b2" d="M241,56 l0,287 -113,0 0,-5 0,-282 11,-26 3,-2 3,0 6,0 73,0 3,0 13,23 1,5z" />
<path style="fill:#ccc" d="M212,56 l0,287 -56,0 0,-5 0,-282 5,-26 1,-2 1,0 6,0 36,0 1,0 6,23 0,5z" />
<path style="fill:none;stroke:#000;stroke-width:2" d="M282,56 l0,287 -196,0 0,-5 0,-282 14,-23 9,-5 5,0 11,0 129,0 23,13 5,10 0,5" />
<path style="fill:none;stroke:#000;stroke-width:2" d="M282,316 l-196,0" />
<path style="fill:none;stroke:#000;stroke-width:2" d="M282,84 l-196,0" />
<path style="fill:#7f7f7f" d="M341,951 l-313,0 0,19 313,0 0,-19z" />
<path style="fill:#999" d="M312,951 l-256,0 0,19 256,0 0,-19z" />
<path style="fill:#b2b2b2" d="M263,951 l-158,0 0,19 158,0 0,-19z" />
<path style="fill:#ccc" d="M224,951 l-79,0 0,19 79,0 0,-19z" />
<path style="fill:none;stroke:#000;stroke-width:2" d="M341,951 l-313,0 0,19 313,0 0,-19" />
<path style="fill:#7f7f7f" d="M199,343 l-30,0 0,608 30,0 0,-608z" />
<path style="fill:#999" d="M196,343 l-23,0 0,608 23,0 0,-608z" />
<path style="fill:#b2b2b2" d="M192,343 l-15,0 0,608 15,0 0,-608z" />
<path style="fill:#ccc" d="M188,343 l-8,0 0,608 8,0 0,-608z" />
<path style="fill:none;stroke:#000;stroke-width:2" d="M199,343 l-30,0 0,608 30,0 0,-608" />
<path style="fill:#7f7f7f" d="M233,863 l-98,0 0,43 98,0 0,-43z" />
<path style="fill:#999" d="M224,863 l-79,0 0,43 79,0 0,-43z" />
<path style="fill:#b2b2b2" d="M209,863 l-49,0 0,43 49,0 0,-43z" />
<path style="fill:#ccc" d="M197,863 l-26,0 0,43 26,0 0,-43z" />
<path style="fill:none;stroke:#000;stroke-width:2" d="M233,863 l-98,0 0,43 98,0 0,-43" />
<path style="fill:#7f7f7f" d="M233,508 l-98,0 0,46 98,0 0,-46z" />
<path style="fill:#999" d="M224,508 l-79,0 0,46 79,0 0,-46z" />
<path style="fill:#b2b2b2" d="M209,508 l-49,0 0,46 49,0 0,-46z" />
<path style="fill:#ccc" d="M197,508 l-26,0 0,46 26,0 0,-46z" />
<path style="fill:none;stroke:#000;stroke-width:2" d="M233,508 l-98,0 0,46 98,0 0,-46" />
<path style="fill:#7f7f7f" d="M233,401 l-98,0 0,43 98,0 0,-43z" />
<path style="fill:#999" d="M224,401 l-79,0 0,43 79,0 0,-43z" />
<path style="fill:#b2b2b2" d="M209,401 l-49,0 0,43 49,0 0,-43z" />
<path style="fill:#ccc" d="M197,401 l-26,0 0,43 26,0 0,-43z" />
<path style="fill:none;stroke:#000;stroke-width:2" d="M233,401 l-98,0 0,43 98,0 0,-43" />
<path style="fill:#7f7f7f" d="M218,450 l-68,0 0,55 68,0 0,-55z" />
<path style="fill:#999" d="M212,450 l-56,0 0,55 56,0 0,-55z" />
<path style="fill:#b2b2b2" d="M201,450 l-34,0 0,55 34,0 0,-55z" />
<path style="fill:#ccc" d="M194,450 l-19,0 0,55 19,0 0,-55z" />
<path style="fill:none;stroke:#000;stroke-width:2" d="M218,450 l-68,0 0,55 68,0 0,-55" />
<path style="fill:#999;stroke:#000;stroke-width:2" d="M341,107 l-59,0 0,77 59,0 0,-77z" />
<path style="fill:none;stroke:#fff;stroke-width:2" d="M337,180 l0,-69 -49,0" />

</svg>
