<?xml version="1.0" encoding="utf-8" standalone="no"?><!DOCTYPE svg PUBLIC "-//W3C//DTD SVG 1.1//EN" "http://www.w3.org/Graphics/SVG/1.1/DTD/svg11-flat-20030114.dtd"><svg width="516" height="999" version="1.1" xmlns="http://www.w3.org/2000/svg" xmlns:xlink="http://www.w3.org/1999/xlink">

<path style="fill:#b2b2b2;stroke:#000;stroke-width:2" d="M84,496 l-40,0 0,14 40,0 0,-14z" />
<path style="fill:#b2b2b2;stroke:#000;stroke-width:2" d="M96,403 l-19,0 -20,93 39,0 0,-93z" />
<path style="fill:#b2b2b2;stroke:#000;stroke-width:2" d="M28,457 l49,-54 -20,93 -23,0 -6,-39z" />
<path style="fill:#b2b2b2;stroke:#000;stroke-width:2" d="M247,948 l0,14 102,0 0,-14 16,0 19,-384 -172,0 14,384 21,0z" />
<path style="fill:#b2b2b2;stroke:#000;stroke-width:2" d="M220,817 l6,116 -78,0 0,-116 72,0z" />
<path style="fill:#b2b2b2;stroke:#000;stroke-width:2" d="M371,817 l-4,116 77,0 0,-116 -73,0z" />
<path style="fill:#b2b2b2;stroke:#000;stroke-width:2" d="M108,577 l48,4 147,6 184,-10 0,-535 -379,0 0,535z" />
<path style="fill:#7f7f7f" d="M224,906 l2,27 -78,0 0,-27 76,0z" />
<path style="fill:#7f7f7f" d="M367,906 l0,27 77,0 0,-27 -77,0z" />
<path style="fill:#ccc;stroke:#000;stroke-width:2" d="M384,570 l-17,0 -16,380 16,0 17,-380z" />
<path style="fill:#ccc;stroke:#000;stroke-width:2" d="M210,570 l14,0 19,380 -17,0 -16,-380z" />
<path style="fill:#ccc;stroke:#000;stroke-width:2" d="M119,780 l14,0 0,190 -14,0 0,-190z" />
<path style="fill:#ccc;stroke:#000;stroke-width:2" d="M150,780 l-17,0 0,190 17,0 0,-190z" />
<path style="fill:#ccc;stroke:#000;stroke-width:2" d="M475,780 l-17,0 0,190 17,0 0,-190z" />
<path style="fill:#ccc;stroke:#000;stroke-width:2" d="M444,780 l14,0 0,190 -14,0 0,-190z" />
<path style="fill:#d4d4d4" d="M154,581 l327,-4 0,-535 -327,0 0,539z" />
<path style="fill:#e3e3e3" d="M241,587 l230,-8 0,-537 -230,0 0,545z" />
<path style="fill:#e8e8e8" d="M284,587 l181,-8 0,-537 -181,0 0,545z" />
<path style="fill:#f7f7f7" d="M371,585 l83,-4 0,-539 -83,0 0,543z" />
<path style="fill:#fff" d="M415,583 l35,0 0,-541 -35,0 0,541z" />
<path style="fill:#fff" d="M444,790 l14,0 0,13 -14,0 0,-13z" />
<path style="fill:#fff" d="M150,790 l-15,0 0,13 15,0 0,-13z" />
<path style="fill:#fff" d="M473,790 l-15,0 0,13 15,0 0,-13z" />
<path style="fill:#fff" d="M119,790 l14,0 0,13 -14,0 0,-13z" />
<path style="fill:none;stroke:#000;stroke-width:2" d="M108,575 l23,4 44,4 60,2 66,2 66,-2 58,-2 42,-4 20,-4 0,-533 -379,0 0,533" />
<path style="fill:#e5e5e5;stroke:#000;stroke-width:2" d="M299,28 l-135,4 -56,8 56,10 135,5 133,-5 55,-10 -55,-8 -133,-4z" />
<path style="fill:none;stroke:#000;stroke-width:2" d="M108,110 l56,9 135,4 133,-4 55,-9" />
<path style="fill:none;stroke:#000;stroke-width:2" d="M108,303 l56,9 135,4 133,-4 55,-9" />
<path style="fill:#b2b2b2" d="M119,962 l-4,0 0,2 4,0 0,-2z" />
<path style="fill:#b2b2b2" d="M119,933 l-4,0 0,4 4,0 0,-4z" />
<path style="fill:#b2b2b2" d="M119,906 l-4,0 0,2 4,0 0,-2z" />
<path style="fill:#b2b2b2" d="M119,877 l-4,0 0,2 4,0 0,-2z" />
<path style="fill:#b2b2b2" d="M119,848 l-4,0 0,2 4,0 0,-2z" />
<path style="fill:#b2b2b2" d="M119,792 l-4,0 0,2 4,0 0,-2z" />
<path style="fill:#b2b2b2" d="M119,819 l-4,0 0,4 4,0 0,-4z" />
<path style="fill:#b2b2b2" d="M475,962 l4,0 0,2 -4,0 0,-2z" />
<path style="fill:#b2b2b2" d="M475,933 l4,0 0,4 -4,0 0,-4z" />
<path style="fill:#b2b2b2" d="M475,906 l4,0 0,2 -4,0 0,-2z" />
<path style="fill:#b2b2b2" d="M475,877 l4,0 0,2 -4,0 0,-2z" />
<path style="fill:#b2b2b2" d="M475,848 l4,0 0,2 -4,0 0,-2z" />
<path style="fill:#b2b2b2" d="M475,792 l4,0 0,2 -4,0 0,-2z" />
<path style="fill:#b2b2b2" d="M475,819 l4,0 0,4 -4,0 0,-4z" />
<path style="fill:#e0e0e0" d="M119,962 l-4,0 0,-4 4,0 0,4z" />
<path style="fill:#e0e0e0" d="M119,933 l-4,0 0,-2 4,0 0,2z" />
<path style="fill:#e0e0e0" d="M119,904 l-4,0 0,-2 4,0 0,2z" />
<path style="fill:#e0e0e0" d="M119,877 l-4,0 0,-4 4,0 0,4z" />
<path style="fill:#e0e0e0" d="M119,848 l-4,0 0,-4 4,0 0,4z" />
<path style="fill:#e0e0e0" d="M119,819 l-4,0 0,-2 4,0 0,2z" />
<path style="fill:#e0e0e0" d="M119,790 l-4,0 0,-2 4,0 0,2z" />
<path style="fill:#e0e0e0" d="M475,962 l4,0 0,-4 -4,0 0,4z" />
<path style="fill:#e0e0e0" d="M475,933 l4,0 0,-2 -4,0 0,2z" />
<path style="fill:#e0e0e0" d="M475,904 l4,0 0,-2 -4,0 0,2z" />
<path style="fill:#e0e0e0" d="M475,877 l4,0 0,-4 -4,0 0,4z" />
<path style="fill:#e0e0e0" d="M475,848 l4,0 0,-4 -4,0 0,4z" />
<path style="fill:#e0e0e0" d="M475,819 l4,0 0,-2 -4,0 0,2z" />
<path style="fill:#e0e0e0" d="M475,790 l4,0 0,-2 -4,0 0,2z" />
<path style="fill:#7f7f7f" d="M214,612 l-12,2 -13,0 -8,2 -17,2 -6,4 -2,0 2,2 8,4 15,3 16,2 21,0 25,2 122,0 11,-2 20,0 0,70 4,11 13,6 12,-6 4,-5 0,-83 11,-2 0,-2 -2,0 -6,-4 -17,-2 -21,-2 -12,-2 -13,2 -20,2 -25,2 -54,0 -25,-2 -19,0 -12,-4z" />
<path style="fill:#7f7f7f" d="M444,788 l-4,0 0,4 4,0 0,-4z" />
<path style="fill:#7f7f7f" d="M444,815 l-4,0 0,6 4,0 0,-6z" />
<path style="fill:#7f7f7f" d="M444,844 l-4,0 0,6 4,0 0,-6z" />
<path style="fill:#7f7f7f" d="M444,873 l-4,0 0,6 4,0 0,-6z" />
<path style="fill:#7f7f7f" d="M444,902 l-4,0 0,4 4,0 0,-4z" />
<path style="fill:#7f7f7f" d="M444,929 l-4,0 0,6 4,0 0,-6z" />
<path style="fill:#7f7f7f" d="M444,958 l-4,0 0,6 4,0 0,-6z" />
<path style="fill:#7f7f7f" d="M475,786 l4,0 0,8 -4,0 0,-8z" />
<path style="fill:#7f7f7f" d="M475,813 l4,0 0,10 -4,0 0,-10z" />
<path style="fill:#7f7f7f" d="M475,842 l4,0 0,10 -4,0 0,-10z" />
<path style="fill:#7f7f7f" d="M475,871 l4,0 0,10 -4,0 0,-10z" />
<path style="fill:#7f7f7f" d="M475,900 l4,0 0,8 -4,0 0,-8z" />
<path style="fill:#7f7f7f" d="M475,929 l4,0 0,8 -4,0 0,-8z" />
<path style="fill:#7f7f7f" d="M475,956 l4,0 0,10 -4,0 0,-10z" />
<path style="fill:#7f7f7f" d="M150,788 l2,0 0,4 -2,0 0,-4z" />
<path style="fill:#7f7f7f" d="M150,815 l2,0 0,6 -2,0 0,-6z" />
<path style="fill:#7f7f7f" d="M150,844 l2,0 0,6 -2,0 0,-6z" />
<path style="fill:#7f7f7f" d="M150,873 l2,0 0,6 -2,0 0,-6z" />
<path style="fill:#7f7f7f" d="M150,902 l2,0 0,4 -2,0 0,-4z" />
<path style="fill:#7f7f7f" d="M150,929 l2,0 0,6 -2,0 0,-6z" />
<path style="fill:#7f7f7f" d="M150,958 l2,0 0,6 -2,0 0,-6z" />
<path style="fill:#7f7f7f" d="M119,786 l-4,0 0,8 4,0 0,-8z" />
<path style="fill:#7f7f7f" d="M119,813 l-4,0 0,10 4,0 0,-10z" />
<path style="fill:#7f7f7f" d="M119,842 l-4,0 0,10 4,0 0,-10z" />
<path style="fill:#7f7f7f" d="M119,871 l-4,0 0,10 4,0 0,-10z" />
<path style="fill:#7f7f7f" d="M119,900 l-4,0 0,8 4,0 0,-8z" />
<path style="fill:#7f7f7f" d="M119,929 l-4,0 0,8 4,0 0,-8z" />
<path style="fill:#7f7f7f" d="M119,956 l-4,0 0,10 4,0 0,-10z" />
<path style="fill:#7f7f7f" d="M110,407 l-14,0 0,68 14,0 0,-68z" />
<path style="fill:#000;stroke:#000;stroke-width:2" d="M75,510 l-20,0 0,75 0,6 1,12 3,11 5,9 5,10 8,8 8,8 9,7 11,6 12,6 13,6 13,5 15,4 16,4 16,3 9,2 8,1 9,2 -2,-25 -13,-2 -13,-3 -13,-3 -12,-3 -12,-4 -12,-4 -11,-5 -10,-5 -9,-6 -8,-7 -8,-7 -6,-9 -5,-8 -4,-10 -2,-10 -1,-11 0,-63z" />
<path style="fill:#000;stroke:#000;stroke-width:2" d="M475,67 l-52,2 0,31 52,-2 0,-31z" />
<path style="fill:#000;stroke:#000;stroke-width:2" d="M171,69 l-50,-4 0,31 50,6 0,-33z" />
<path style="fill:#000;stroke:#000;stroke-width:2" d="M330,73 l-68,0 0,31 68,0 0,-31z" />
<path style="fill:#000;stroke:#000;stroke-width:2" d="M247,73 l-62,-2 0,31 62,2 0,-31z" />
<path style="fill:#000;stroke:#000;stroke-width:2" d="M407,71 l-62,2 0,31 62,-2 0,-31z" />

</svg>
