<?xml version="1.0" encoding="utf-8" standalone="no"?><!DOCTYPE svg PUBLIC "-//W3C//DTD SVG 1.1//EN" "http://www.w3.org/Graphics/SVG/1.1/DTD/svg11-flat-20030114.dtd"><svg width="495" height="999" version="1.1" xmlns="http://www.w3.org/2000/svg" xmlns:xlink="http://www.w3.org/1999/xlink">

<path style="fill:#00f;fill-rule:evenodd" d="M293,837 l-85,0 -2,37 -6,35 -14,33 -23,28 89,0 82,0 -19,-30 -14,-33 -6,-35 -2,-35z M295,872 l6,35 14,33 13,20 -13,-160 -2,4 -8,10 -15,10 3,13 2,35z M293,824 l-44,0 0,13 44,0 0,-13z M249,796 l5,0 0,28 39,0 12,-10 8,-10 6,-12 2,-15 -72,0 0,19z M332,777 l-165,0 0,-10 165,0 0,10z M332,718 l-165,0 0,47 165,0 0,-47z M254,644 l39,0 12,-9 8,-12 2,-4 0,64 -8,-13 -14,-12 -39,0 0,2 0,-16z M249,615 l5,0 0,29 39,0 12,-9 8,-12 6,-12 2,-14 -72,0 0,18z M254,714 l-7,0 0,-7 -4,5 -2,6 89,0 -5,-17 -8,-16 -10,-15 -14,-12 -39,0 0,56z M332,597 l-165,0 0,-11 165,0 0,11z M332,539 l-165,0 0,47 165,0 0,-47z M254,465 l39,0 12,-8 8,-12 2,-5 0,62 -8,-10 -14,-13 -39,0 0,2 0,-16z M249,436 l5,0 0,29 39,0 12,-8 8,-12 6,-13 2,-14 -72,0 0,18z M254,535 l-7,0 0,-6 -4,4 -2,6 89,0 -5,-16 -8,-17 -10,-14 -14,-13 -39,0 0,56z M332,418 l-165,0 0,-10 165,0 0,10z M332,399 l-165,0 0,9 165,0 0,-9z M293,399 l-85,0 0,-61 85,0 0,61z M408,311 l-315,0 0,19 315,0 0,-19z M457,178 l0,139 10,0 0,-139 -10,0z M28,178 l0,139 10,0 0,-139 -10,0z M134,210 l0,74 -96,0 0,-74 96,0z M365,284 l0,-74 92,0 0,74 -92,0z M365,67 l0,28 22,0 4,-4 0,-20 -4,-4 -22,0z M377,73 l-8,8 8,6 8,-6 -8,-8z M134,95 l0,-28 -22,0 -4,4 0,20 4,4 22,0z M122,73 l8,8 -8,6 -8,-6 8,-8z M134,311 l231,0 0,-275 -231,0 0,275z M387,28 l-273,0 0,8 273,0 0,-8z M332,340 l-165,0 0,-10 165,0 0,10z " />
<path style="fill:none;stroke:#000;stroke-width:2" d="M293,837 l-85,0 -2,37 -6,35 -14,33 -23,28 89,0 82,0 -19,-30 -14,-33 -6,-35 -2,-35" />
<path style="fill:none;stroke:#000;stroke-width:2" d="M293,837 l2,35 6,35 14,33 13,20 -13,-160 -2,4 -8,10 -15,10 3,13" />
<path style="fill:none;stroke:#000;stroke-width:2" d="M293,824 l-44,0 0,13 44,0 0,-13" />
<path style="fill:none;stroke:#000;stroke-width:2" d="M249,796 l5,0 0,28 39,0 12,-10 8,-10 6,-12 2,-15 -72,0 0,19" />
<path style="fill:none;stroke:#000;stroke-width:2" d="M332,777 l-165,0 0,-10 165,0 0,10" />
<path style="fill:none;stroke:#000;stroke-width:2" d="M332,718 l-165,0 0,47 165,0 0,-47" />
<path style="fill:none;stroke:#000;stroke-width:2" d="M254,644 l39,0 12,-9 8,-12 2,-4 0,64 -8,-13 -14,-12 -39,0 0,2 0,-16" />
<path style="fill:none;stroke:#000;stroke-width:2" d="M249,615 l5,0 0,29 39,0 12,-9 8,-12 6,-12 2,-14 -72,0 0,18" />
<path style="fill:none;stroke:#000;stroke-width:2" d="M254,714 l-7,0 0,-7 -4,5 -2,6 89,0 -5,-17 -8,-16 -10,-15 -14,-12 -39,0 0,56" />
<path style="fill:none;stroke:#000;stroke-width:2" d="M332,597 l-165,0 0,-11 165,0 0,11" />
<path style="fill:none;stroke:#000;stroke-width:2" d="M332,539 l-165,0 0,47 165,0 0,-47" />
<path style="fill:none;stroke:#000;stroke-width:2" d="M254,465 l39,0 12,-8 8,-12 2,-5 0,62 -8,-10 -14,-13 -39,0 0,2 0,-16" />
<path style="fill:none;stroke:#000;stroke-width:2" d="M249,436 l5,0 0,29 39,0 12,-8 8,-12 6,-13 2,-14 -72,0 0,18" />
<path style="fill:none;stroke:#000;stroke-width:2" d="M254,535 l-7,0 0,-6 -4,4 -2,6 89,0 -5,-16 -8,-17 -10,-14 -14,-13 -39,0 0,56" />
<path style="fill:none;stroke:#000;stroke-width:2" d="M332,418 l-165,0 0,-10 165,0 0,10" />
<path style="fill:none;stroke:#000;stroke-width:2" d="M332,399 l-165,0 0,9 165,0 0,-9" />
<path style="fill:none;stroke:#000;stroke-width:2" d="M293,399 l-85,0 0,-61 85,0 0,61" />
<path style="fill:none;stroke:#000;stroke-width:2" d="M408,311 l-315,0 0,19 315,0 0,-19" />
<path style="fill:none;stroke:#000;stroke-width:2" d="M457,178 l0,139 10,0 0,-139 -10,0" />
<path style="fill:none;stroke:#000;stroke-width:2" d="M28,178 l0,139 10,0 0,-139 -10,0" />
<path style="fill:none;stroke:#000;stroke-width:2" d="M134,210 l0,74 -96,0 0,-74 96,0" />
<path style="fill:none;stroke:#000;stroke-width:2" d="M365,284 l0,-74 92,0 0,74 -92,0" />
<path style="fill:none;stroke:#000;stroke-width:2" d="M365,67 l0,28 22,0 4,-4 0,-20 -4,-4 -22,0" />
<path style="fill:none;stroke:#000;stroke-width:2" d="M377,73 l-8,8 8,6 8,-6 -8,-8" />
<path style="fill:none;stroke:#000;stroke-width:2" d="M134,95 l0,-28 -22,0 -4,4 0,20 4,4 22,0" />
<path style="fill:none;stroke:#000;stroke-width:2" d="M122,73 l8,8 -8,6 -8,-6 8,-8" />
<path style="fill:none;stroke:#000;stroke-width:2" d="M134,311 l231,0 0,-275 -231,0 0,275" />
<path style="fill:none;stroke:#000;stroke-width:2" d="M387,28 l-273,0 0,8 273,0 0,-8" />
<path style="fill:none;stroke:#000;stroke-width:2" d="M332,340 l-165,0 0,-10 165,0 0,10" />
<path style="fill:#7f7fff" d="M371,28 l-27,0 0,6 27,0 0,-6z" />
<path style="fill:#7f7fff" d="M134,214 l0,9 -96,0 0,-9 96,0z" />
<path style="fill:#7f7fff" d="M365,223 l0,-9 92,0 0,9 -92,0z" />
<path style="fill:#7f7fff" d="M350,309 l-20,0 0,-273 20,0 0,273z" />
<path style="fill:#7f7fff" d="M387,311 l-29,0 0,16 29,0 0,-16z" />
<path style="fill:#7f7fff" d="M323,338 l-16,0 0,-6 16,0 0,6z" />
<path style="fill:#7f7fff" d="M290,399 l-6,0 0,-61 6,0 0,61z" />
<path style="fill:#7f7fff" d="M323,399 l-16,0 0,9 16,0 0,-9z" />
<path style="fill:#7f7fff" d="M330,541 l-21,0 0,43 21,0 0,-43z" />
<path style="fill:#7f7fff" d="M290,479 l-6,0 0,-12 6,0 0,12z" />
<path style="fill:#7f7fff" d="M288,465 l9,-4 6,-6 4,-6 4,-4 2,-7 2,-6 2,-6 0,-8 -12,0 0,8 0,6 -2,6 -2,5 -4,6 -4,6 -5,6 -6,4 6,0z" />
<path style="fill:#7f7fff" d="M307,539 l21,0 -3,-8 -2,-8 -4,-9 -2,-6 -6,-8 -4,-6 -8,-6 -6,-9 -7,2 2,7 5,8 4,6 4,8 2,6 2,9 0,8 2,6z" />
<path style="fill:#7f7fff" d="M330,720 l-21,0 0,43 21,0 0,-43z" />
<path style="fill:#7f7fff" d="M290,658 l-6,0 0,-12 6,0 0,12z" />
<path style="fill:#7f7fff" d="M288,644 l9,-4 6,-7 4,-6 4,-4 2,-6 2,-6 2,-6 0,-8 -12,0 0,8 0,6 -2,6 -2,4 -4,6 -4,6 -5,7 -6,4 6,0z" />
<path style="fill:#7f7fff" d="M307,718 l21,0 -3,-8 -2,-9 -4,-8 -2,-6 -6,-8 -4,-6 -8,-7 -6,-8 -7,2 2,6 5,9 4,6 4,8 2,6 2,8 0,9 2,6z" />
<path style="fill:#7f7fff" d="M323,775 l-16,0 0,-6 16,0 0,6z" />
<path style="fill:#7f7fff" d="M288,822 l9,-4 6,-6 4,-4 4,-6 2,-6 2,-6 2,-7 0,-6 -12,0 0,6 0,7 -2,6 -2,6 -4,6 -4,4 -5,6 -6,4 6,0z" />
<path style="fill:#7f7fff" d="M288,824 l-4,0 0,11 4,0 0,-11z" />
<path style="fill:#7f7fff" d="M332,968 l-17,-26 -14,-33 -8,-35 -3,-23 0,-14 -6,0 0,22 0,43 4,33 9,25 6,8 29,0z" />
<path style="fill:#7f7fff" d="M323,597 l-16,0 0,-9 16,0 0,9z" />
<path style="fill:#7f7fff" d="M323,418 l-16,0 0,-8 16,0 0,8z" />
<path style="fill:#7f7fff" d="M30,186 l0,14 6,0 0,-14 -6,0z" />
<path style="fill:#7f7fff" d="M457,186 l0,14 10,0 0,-14 -10,0z" />
<path style="fill:#0000bf" d="M208,824 l41,0 0,13 -41,0 0,-13z" />
<path style="fill:#0000bf" d="M208,837 l-2,37 -6,35 -14,33 -12,14 12,-154 0,2 10,10 12,10 0,13z" />
<path style="fill:#0000bf" d="M249,796 l-2,0 0,28 -39,0 -12,-10 -10,-10 -4,-12 -2,-15 69,0 0,19z" />
<path style="fill:#0000bf" d="M227,777 l-60,0 0,-10 60,0 0,10z" />
<path style="fill:#0000bf" d="M241,718 l-74,0 0,47 74,0 0,-47z" />
<path style="fill:#0000bf" d="M247,644 l-39,0 -12,-9 -10,-12 -2,-4 0,64 10,-13 14,-12 39,0 0,2 0,-16z" />
<path style="fill:#0000bf" d="M247,707 l-4,5 -2,6 -70,0 5,-17 6,-16 12,-15 14,-12 39,0 0,49z" />
<path style="fill:#0000bf" d="M249,615 l-2,0 0,29 -39,0 -12,-9 -10,-12 -4,-12 -2,-14 69,0 0,18z" />
<path style="fill:#0000bf" d="M227,597 l-60,0 0,-9 60,0 0,9z" />
<path style="fill:#0000bf" d="M241,539 l-74,0 0,47 74,0 0,-47z" />
<path style="fill:#0000bf" d="M247,465 l-39,0 -12,-8 -10,-12 -2,-5 0,62 10,-10 14,-13 39,0 0,-14z" />
<path style="fill:#0000bf" d="M247,529 l-4,4 -2,6 -70,0 5,-16 6,-17 12,-14 14,-13 39,0 0,50z" />
<path style="fill:#0000bf" d="M249,436 l-2,0 0,29 -39,0 -12,-8 -10,-12 -4,-13 -2,-14 69,0 0,18z" />
<path style="fill:#0000bf" d="M227,418 l-60,0 0,-8 60,0 0,8z" />
<path style="fill:#0000bf" d="M227,399 l-60,0 0,9 60,0 0,-9z" />
<path style="fill:#0000bf" d="M241,399 l-33,0 0,-61 33,0 0,61z" />
<path style="fill:#0000bf" d="M227,340 l-60,0 0,-10 60,0 0,10z" />
<path style="fill:#0000bf" d="M457,268 l0,49 10,0 0,-49 -10,0z" />
<path style="fill:#0000bf" d="M28,268 l0,49 10,0 0,-49 -10,0z" />
<path style="fill:#0000bf" d="M134,258 l0,26 -96,0 0,-26 96,0z" />
<path style="fill:#0000bf" d="M365,284 l0,-26 92,0 0,26 -92,0z" />
<path style="fill:#0000bf" d="M134,311 l85,0 0,-275 -85,0 0,275z" />
<path style="fill:#0000bf" d="M212,28 l-98,0 0,8 98,0 0,-8z" />
<path style="fill:#0000bf" d="M206,311 l-113,0 0,16 113,0 0,-16z" />
<path style="fill:#000;stroke:#000;stroke-width:2" d="M276,93 l-53,0 -15,13 0,100 15,13 53,0 14,-13 0,-100 -14,-13z" />
<path style="fill:#0000ad" d="M254,962 l-7,0 0,-168 7,0 0,168z" />
<path style="fill:#0000ad" d="M254,714 l-7,0 0,-99 7,0 0,99z" />
<path style="fill:#0000ad" d="M254,535 l-7,0 0,-99 7,0 0,99z" />
<path style="fill:#0000ad" d="M134,311 l21,0 0,-275 -21,0 0,275z" />
<path style="fill:#0000ad" d="M139,28 l-25,0 0,8 25,0 0,-8z" />
<path style="fill:#0000ad" d="M120,311 l-27,0 0,19 27,0 0,-19z" />
<path style="fill:#0000ad" d="M182,777 l-15,0 0,-10 15,0 0,10z" />
<path style="fill:#0000ad" d="M182,597 l-15,0 0,-11 15,0 0,11z" />
<path style="fill:#0000ad" d="M182,418 l-15,0 0,-10 15,0 0,10z" />
<path style="fill:#0000ad" d="M182,399 l-15,0 0,9 15,0 0,-9z" />
<path style="fill:#0000ad" d="M182,340 l-15,0 0,-10 15,0 0,10z" />
<path style="fill:#0000ad" d="M457,305 l0,12 10,0 0,-12 -10,0z" />
<path style="fill:#0000ad" d="M28,305 l0,12 10,0 0,-12 -10,0z" />
<path style="fill:#0000ad" d="M134,278 l0,6 -96,0 0,-6 96,0z" />
<path style="fill:#0000ad" d="M365,284 l0,-6 92,0 0,6 -92,0z" />
<path style="fill:#7f7f7f" d="M184,783 l-8,0 -2,0 0,-6 14,0 0,6 -4,0z" />
<path style="fill:#7f7f7f" d="M219,783 l-9,0 -2,0 0,-6 15,0 0,6 -4,0z" />
<path style="fill:#7f7f7f" d="M256,783 l-9,0 -4,0 0,-6 15,0 0,6 -2,0z" />
<path style="fill:#7f7f7f" d="M290,783 l-8,0 -4,0 0,-6 15,0 0,6 -3,0z" />
<path style="fill:#7f7f7f" d="M325,783 l-8,0 -2,0 0,-6 15,0 0,6 -5,0z" />
<path style="fill:#7f7f7f" d="M184,603 l0,2 -8,0 0,-2 -2,0 0,-6 14,0 0,6 -4,0z" />
<path style="fill:#7f7f7f" d="M219,603 l0,2 -9,0 0,-2 -2,0 0,-6 15,0 0,6 -4,0z" />
<path style="fill:#7f7f7f" d="M256,603 l0,2 -9,0 0,-2 -4,0 0,-6 15,0 0,6 -2,0z" />
<path style="fill:#7f7f7f" d="M290,603 l0,2 -8,0 0,-2 -4,0 0,-6 15,0 0,6 -3,0z" />
<path style="fill:#7f7f7f" d="M325,603 l0,2 -8,0 0,-2 -2,0 0,-6 15,0 0,6 -5,0z" />
<path style="fill:#7f7f7f" d="M184,424 l0,2 -8,0 0,-2 -2,0 0,-6 14,0 0,6 -4,0z" />
<path style="fill:#7f7f7f" d="M219,424 l0,2 -9,0 0,-2 -2,0 0,-6 15,0 0,6 -4,0z" />
<path style="fill:#7f7f7f" d="M256,424 l0,2 -9,0 0,-2 -4,0 0,-6 15,0 0,6 -2,0z" />
<path style="fill:#7f7f7f" d="M290,424 l0,2 -8,0 0,-2 -4,0 0,-6 15,0 0,6 -3,0z" />
<path style="fill:#7f7f7f" d="M325,424 l0,2 -8,0 0,-2 -2,0 0,-6 15,0 0,6 -5,0z" />
<path style="fill:#7f7f7f" d="M184,393 l0,-2 -8,0 0,2 -2,0 0,6 14,0 0,-6 -4,0z" />
<path style="fill:#7f7f7f" d="M219,393 l0,-2 -9,0 0,2 -2,0 0,6 15,0 0,-6 -4,0z" />
<path style="fill:#7f7f7f" d="M256,393 l0,-2 -9,0 0,2 -4,0 0,6 15,0 0,-6 -2,0z" />
<path style="fill:#7f7f7f" d="M290,393 l0,-2 -8,0 0,2 -4,0 0,6 15,0 0,-6 -3,0z" />
<path style="fill:#7f7f7f" d="M325,393 l0,-2 -8,0 0,2 -2,0 0,6 15,0 0,-6 -5,0z" />
<path style="fill:#7f7f7f" d="M184,346 l-8,0 -2,0 0,-6 14,0 0,6 -4,0z" />
<path style="fill:#7f7f7f" d="M219,346 l-9,0 -2,0 0,-6 15,0 0,6 -4,0z" />
<path style="fill:#7f7f7f" d="M256,346 l-9,0 -4,0 0,-6 15,0 0,6 -2,0z" />
<path style="fill:#7f7f7f" d="M290,346 l-8,0 -4,0 0,-6 15,0 0,6 -3,0z" />
<path style="fill:#7f7f7f" d="M325,346 l-8,0 -2,0 0,-6 15,0 0,6 -5,0z" />
<path style="fill:#b2b2b2" d="M178,346 l0,-6 6,0 0,6 -6,0z" />
<path style="fill:#b2b2b2" d="M212,346 l0,-6 7,0 0,6 -7,0z" />
<path style="fill:#b2b2b2" d="M247,346 l0,-6 9,0 0,6 -9,0z" />
<path style="fill:#b2b2b2" d="M282,346 l0,-6 8,0 0,6 -8,0z" />
<path style="fill:#b2b2b2" d="M319,346 l0,-6 6,0 0,6 -6,0z" />
<path style="fill:#b2b2b2" d="M178,393 l0,4 6,0 0,-4 -6,0z" />
<path style="fill:#b2b2b2" d="M212,393 l0,4 7,0 0,-4 -7,0z" />
<path style="fill:#b2b2b2" d="M247,393 l0,4 9,0 0,-4 -9,0z" />
<path style="fill:#b2b2b2" d="M282,393 l0,4 8,0 0,-4 -8,0z" />
<path style="fill:#b2b2b2" d="M319,393 l0,4 6,0 0,-4 -6,0z" />
<path style="fill:#b2b2b2" d="M178,424 l0,-4 6,0 0,4 -6,0z" />
<path style="fill:#b2b2b2" d="M212,424 l0,-4 7,0 0,4 -7,0z" />
<path style="fill:#b2b2b2" d="M247,424 l0,-4 9,0 0,4 -9,0z" />
<path style="fill:#b2b2b2" d="M282,424 l0,-4 8,0 0,4 -8,0z" />
<path style="fill:#b2b2b2" d="M319,424 l0,-4 6,0 0,4 -6,0z" />
<path style="fill:#b2b2b2" d="M178,603 l0,-4 6,0 0,4 -6,0z" />
<path style="fill:#b2b2b2" d="M212,603 l0,-4 7,0 0,4 -7,0z" />
<path style="fill:#b2b2b2" d="M247,603 l0,-4 9,0 0,4 -9,0z" />
<path style="fill:#b2b2b2" d="M282,603 l0,-4 8,0 0,4 -8,0z" />
<path style="fill:#b2b2b2" d="M319,603 l0,-4 6,0 0,4 -6,0z" />
<path style="fill:#b2b2b2" d="M178,781 l0,-4 6,0 0,4 -6,0z" />
<path style="fill:#b2b2b2" d="M212,781 l0,-4 7,0 0,4 -7,0z" />
<path style="fill:#b2b2b2" d="M247,781 l0,-4 9,0 0,4 -9,0z" />
<path style="fill:#b2b2b2" d="M282,781 l0,-4 8,0 0,4 -8,0z" />
<path style="fill:#b2b2b2" d="M319,781 l0,-4 6,0 0,4 -6,0z" />
<path style="fill:#fff" d="M328,781 l0,-4 -3,0 0,4 3,0z" />
<path style="fill:#fff" d="M293,781 l0,-4 -3,0 0,4 3,0z" />
<path style="fill:#fff" d="M258,781 l0,-4 -2,0 0,4 2,0z" />
<path style="fill:#fff" d="M223,781 l0,-4 -4,0 0,4 4,0z" />
<path style="fill:#fff" d="M186,781 l0,-4 -2,0 0,4 2,0z" />
<path style="fill:#fff" d="M328,603 l0,-4 -3,0 0,4 3,0z" />
<path style="fill:#fff" d="M293,603 l0,-4 -3,0 0,4 3,0z" />
<path style="fill:#fff" d="M258,603 l0,-4 -2,0 0,4 2,0z" />
<path style="fill:#fff" d="M223,603 l0,-4 -4,0 0,4 4,0z" />
<path style="fill:#fff" d="M186,603 l0,-4 -2,0 0,4 2,0z" />
<path style="fill:#fff" d="M328,424 l0,-4 -3,0 0,4 3,0z" />
<path style="fill:#fff" d="M293,424 l0,-4 -3,0 0,4 3,0z" />
<path style="fill:#fff" d="M258,424 l0,-4 -2,0 0,4 2,0z" />
<path style="fill:#fff" d="M223,424 l0,-4 -4,0 0,4 4,0z" />
<path style="fill:#fff" d="M186,424 l0,-4 -2,0 0,4 2,0z" />
<path style="fill:#fff" d="M328,393 l0,4 -3,0 0,-4 3,0z" />
<path style="fill:#fff" d="M293,393 l0,4 -3,0 0,-4 3,0z" />
<path style="fill:#fff" d="M258,393 l0,4 -2,0 0,-4 2,0z" />
<path style="fill:#fff" d="M223,393 l0,4 -4,0 0,-4 4,0z" />
<path style="fill:#fff" d="M186,393 l0,4 -2,0 0,-4 2,0z" />
<path style="fill:#fff" d="M328,346 l0,-6 -3,0 0,6 3,0z" />
<path style="fill:#fff" d="M293,346 l0,-6 -3,0 0,6 3,0z" />
<path style="fill:#fff" d="M258,346 l0,-6 -2,0 0,6 2,0z" />
<path style="fill:#fff" d="M223,346 l0,-6 -4,0 0,6 4,0z" />
<path style="fill:#fff" d="M186,346 l0,-6 -2,0 0,6 2,0z" />
<path style="fill:none;stroke:#000;stroke-width:2" d="M332,718 l-165,0 0,47 165,0 0,-47" />
<path style="fill:none;stroke:#000;stroke-width:2" d="M332,539 l-165,0 0,47 165,0 0,-47" />

</svg>
