<?xml version="1.0" encoding="utf-8" standalone="no"?><!DOCTYPE svg PUBLIC "-//W3C//DTD SVG 1.1//EN" "http://www.w3.org/Graphics/SVG/1.1/DTD/svg11-flat-20030114.dtd"><svg width="399" height="999" version="1.1" xmlns="http://www.w3.org/2000/svg" xmlns:xlink="http://www.w3.org/1999/xlink">

<path style="fill:#999;stroke:#000;stroke-width:2" d="M344,639 l-290,0 0,331 290,0 0,-331z" />
<path style="fill:#999;stroke:#000;stroke-width:2" d="M359,307 l-320,0 0,320 320,0 0,-320z" />
<path style="fill:#999;stroke:#000;stroke-width:2" d="M199,178 l151,0 -3,-30 -9,-28 -14,-26 -18,-22 -23,-19 -25,-13 -28,-9 -31,-3 -30,3 -28,9 -25,13 -22,19 -19,22 -13,26 -9,28 -3,30 149,0z" />
<path style="fill:#999;stroke:#000;stroke-width:2" d="M28,231 l343,0 -6,-29 -15,-24 -301,0 -16,24 -5,25 0,4z" />
<path style="fill:#999;stroke:#000;stroke-width:2" d="M39,307 l320,0 3,-1 9,-22 -9,-20 -3,-1 -320,0 -2,1 -9,20 9,22 2,1z" />
<path style="fill:#4c4c4c;stroke:#000;stroke-width:2" d="M359,231 l-320,0 0,32 320,0 0,-32z" />
<path style="fill:#4c4c4c;stroke:#000;stroke-width:2" d="M359,499 l-320,0 0,44 320,0 0,-44z" />
<path style="fill:#333;stroke:#000;stroke-width:2" d="M354,580 l-64,0 0,10 64,0 0,-10z" />
<path style="fill:#333;stroke:#000;stroke-width:2" d="M252,580 l-64,0 0,10 64,0 0,-10z" />
<path style="fill:#333;stroke:#000;stroke-width:2" d="M150,580 l-64,0 0,10 64,0 0,-10z" />
<path style="fill:#333;stroke:#000;stroke-width:2" d="M50,580 l-11,0 0,10 11,0 0,-10z" />
<path style="fill:#333;stroke:#000;stroke-width:2" d="M359,516 l-320,0 0,9 320,0 0,-9z" />
<path style="fill:#666" d="M114,397 l-54,0 0,53 54,0 0,-53z" />
<path style="fill:#666" d="M350,328 l-300,0 0,5 300,0 0,-5z" />
<path style="fill:#333;stroke:#000;stroke-width:2" d="M359,627 l-320,0 0,12 320,0 0,-12z" />
<path style="fill:#4c4c4c;stroke:#000;stroke-width:2" d="M307,691 l-12,0 0,215 12,0 0,-215z" />
<path style="fill:#4c4c4c;stroke:#000;stroke-width:2" d="M109,691 l-11,0 0,215 11,0 0,-215z" />
<path style="fill:#4c4c4c;stroke:#000;stroke-width:2" d="M173,691 l-11,0 0,215 11,0 0,-215z" />
<path style="fill:#4c4c4c;stroke:#000;stroke-width:2" d="M243,691 l-12,0 0,215 12,0 0,-215z" />
<path style="fill:#666;stroke:#000;stroke-width:2" d="M318,773 l-6,-6 0,-117 38,0 4,4 -36,119z" />
<ellipse style="fill:#666;stroke:#000;stroke-width:2" cx="73" cy="204" rx="13" ry="16" />
<path style="fill:#666;stroke:#000;stroke-width:2" d="M318,312 l-6,-5 0,-44 38,0 4,6 -36,43z" />
<path style="fill:none;stroke:#000;stroke-width:2" d="M49,622 l37,0 0,-64" />
<path style="fill:none;stroke:#000;stroke-width:2" d="M150,622 l38,0 0,-64" />
<path style="fill:none;stroke:#000;stroke-width:2" d="M252,622 l38,0 0,-64" />
<path style="fill:none;stroke:#000;stroke-width:2" d="M354,558 l-85,0" />
<path style="fill:none;stroke:#000;stroke-width:2" d="M252,558 l-85,0" />
<path style="fill:none;stroke:#000;stroke-width:2" d="M152,558 l-87,0" />
<path style="fill:none;stroke:#000;stroke-width:2" d="M50,558 l-11,0" />
<path style="fill:none;stroke:#000;stroke-width:2" d="M318,269 l-6,-6" />
<path style="fill:none;stroke:#000;stroke-width:2" d="M318,654 l-6,-4" />
<path style="fill:#666;stroke:#000;stroke-width:2" d="M205,178 l-11,0 0,-22 11,0 0,22z" />
<path style="fill:#999;stroke:#000;stroke-width:2" d="M354,654 l-36,0 0,119 36,0 0,-119z" />
<ellipse style="fill:#999;stroke:#000;stroke-width:2" cx="68" cy="204" rx="14" ry="16" />
<path style="fill:#999;stroke:#000;stroke-width:2" d="M354,269 l-36,0 0,43 36,0 0,-43z" />

</svg>
