<?xml version="1.0" encoding="utf-8" standalone="no"?><!DOCTYPE svg PUBLIC "-//W3C//DTD SVG 1.1//EN" "http://www.w3.org/Graphics/SVG/1.1/DTD/svg11-flat-20030114.dtd"><svg width="556" height="999" version="1.1" xmlns="http://www.w3.org/2000/svg" xmlns:xlink="http://www.w3.org/1999/xlink">

<path style="fill:#000;stroke:#000;stroke-width:2" d="M371,941 l11,8 38,8 0,13 -312,0 0,-27 72,2 20,6 22,6 21,2 24,2 33,-2 32,-8 29,-10 2,0 8,0z" />
<path style="fill:#f0f0f0" d="M55,763 l-27,0 0,23 27,0 0,-23z" />
<path style="fill:#b2b2b2;stroke:#000;stroke-width:2" d="M455,525 l-208,0 0,-52 208,0 0,52z" />
<path style="fill:#b2b2b2;stroke:#000;stroke-width:2" d="M55,757 l-27,0 0,211 27,0 0,-74 51,0 29,10 34,8 37,7 37,4 39,4 40,2 31,-2 -4,-2 -23,-33 -8,-41 8,-41 23,-34 33,-21 4,0 4,-2 4,0 4,-2 -27,-14 -20,-6 0,2 -259,0 -6,32 -4,13 -11,8 -16,0 0,-29z" />
<path style="fill:#b2b2b2;stroke:#000;stroke-width:2" d="M486,545 l-405,0 0,167 405,0 0,-167z" />
<path style="fill:#b2b2b2;stroke:#000;stroke-width:2" d="M351,712 l-270,0 0,21 270,0 0,-21z" />
<path style="fill:#b2b2b2;stroke:#000;stroke-width:2" d="M486,525 l-272,0 0,22 272,0 0,-22z" />
<path style="fill:#f0f0f0" d="M333,733 l-3,0 47,26 5,-4 -49,-22z" />
<path style="fill:#7f7f7f" d="M369,939 l-16,-12 -31,2 -40,-2 -39,-2 -37,-6 -37,-7 -34,-10 -29,-10 -78,2 0,12 0,62 27,0 0,-27 125,4 20,6 22,6 21,2 24,2 33,-2 32,-8 29,-10 8,-2z" />
<path style="fill:#f0f0f0" d="M478,545 l-21,0 0,167 21,0 0,-167z" />
<path style="fill:#f0f0f0" d="M449,525 l-12,0 0,-52 12,0 0,52z" />
<path style="fill:#7f7f7f" d="M139,712 l-58,0 0,21 58,0 0,-21z" />
<path style="fill:#7f7f7f" d="M139,545 l-58,0 0,167 58,0 0,-167z" />
<path style="fill:#7f7f7f" d="M292,525 l-45,0 0,-52 45,0 0,52z" />
<path style="fill:#f0f0f0" d="M478,525 l-19,0 0,22 19,0 0,-22z" />
<path style="fill:none;stroke:#000;stroke-width:2" d="M455,525 l-208,0 0,-52 208,0 0,52" />
<path style="fill:#7f7f7f;stroke:#000;stroke-width:2" d="M498,431 l-294,0 37,47 216,0 41,-47z" />
<path style="fill:#7f7f7f" d="M275,525 l-61,0 0,22 61,0 0,-22z" />
<path style="fill:#e0e0e0;stroke:#000;stroke-width:2" d="M486,435 l-13,0 -40,43 16,0 37,-43z" />
<circle style="fill:#e5e5e5;stroke:#000;stroke-width:2" cx="422" cy="852" r="104" />
<path style="fill:#fff;stroke:#000;stroke-width:2" d="M422,794 l-40,18 -17,39 17,41 40,18 41,-18 17,-41 -17,-39 -41,-18z" />
<path style="fill:#666;stroke:#000;stroke-width:2" d="M422,800 l-36,16 -15,35 15,37 36,16 37,-16 16,-37 -16,-35 -37,-16z" />
<path style="fill:#000;stroke:#000;stroke-width:2" d="M422,759 l-8,4 -2,7 2,8 8,4 9,-4 4,-8 -4,-7 -9,-4z" />
<path style="fill:#000;stroke:#000;stroke-width:2" d="M463,770 l-8,4 -4,8 4,8 8,2 8,-2 4,-8 -4,-8 -8,-4z" />
<path style="fill:#000;stroke:#000;stroke-width:2" d="M494,800 l-10,4 -4,8 4,7 10,2 6,-2 4,-7 -4,-8 -6,-4z" />
<path style="fill:#000;stroke:#000;stroke-width:2" d="M504,839 l-8,4 -4,8 4,10 8,2 8,-2 2,-10 -2,-8 -8,-4z" />
<path style="fill:#000;stroke:#000;stroke-width:2" d="M494,880 l-10,4 -4,8 4,8 10,4 6,-4 4,-8 -4,-8 -6,-4z" />
<path style="fill:#000;stroke:#000;stroke-width:2" d="M463,910 l-8,4 -4,7 4,8 8,4 8,-4 4,-8 -4,-7 -8,-4z" />
<path style="fill:#000;stroke:#000;stroke-width:2" d="M422,919 l-8,4 -2,10 2,8 8,2 9,-2 4,-8 -4,-10 -9,-4z" />
<path style="fill:#000;stroke:#000;stroke-width:2" d="M382,910 l-7,4 -4,7 4,8 7,4 8,-4 4,-8 -4,-7 -8,-4z" />
<path style="fill:#000;stroke:#000;stroke-width:2" d="M353,880 l-10,4 -2,8 2,8 10,4 8,-4 4,-8 -4,-8 -8,-4z" />
<path style="fill:#000;stroke:#000;stroke-width:2" d="M341,841 l-8,4 -3,6 3,10 8,2 8,-2 4,-10 -4,-6 -8,-4z" />
<path style="fill:#000;stroke:#000;stroke-width:2" d="M353,800 l-10,4 -2,8 2,7 10,2 8,-2 4,-7 -4,-8 -8,-4z" />
<path style="fill:#000;stroke:#000;stroke-width:2" d="M382,770 l-7,4 -4,8 4,8 7,2 8,-2 4,-8 -4,-8 -8,-4z" />
<path style="fill:#7f7f7f;stroke:#000;stroke-width:2" d="M198,416 l6,12 12,3 268,0 12,-3 6,-12 0,-281 -151,-7 -153,7 0,281z" />
<path style="fill:#e5e5e5;stroke:#000;stroke-width:2" d="M512,135 l-30,-2 0,283 6,8 20,-12 4,-8 0,-269z" />
<path style="fill:#e5e5e5;stroke:#000;stroke-width:2" d="M480,133 l-25,0 0,289 6,2 14,-8 5,-12 0,-271z" />
<path style="fill:#d1d1d1;stroke:#000;stroke-width:2" d="M449,133 l-21,-2 0,291 3,2 18,-20 0,-271z" />
<path style="fill:#d1d1d1;stroke:#000;stroke-width:2" d="M418,131 l-20,-1 0,292 4,2 16,-20 0,-273z" />
<path style="fill:#d1d1d1;stroke:#000;stroke-width:2" d="M388,130 l-17,0 0,290 4,4 13,-20 0,-274z" />
<path style="fill:#b2b2b2;stroke:#000;stroke-width:2" d="M345,128 l6,0 6,0 0,276 -12,20 0,-4 0,-292z" />
<path style="fill:#b2b2b2;stroke:#000;stroke-width:2" d="M330,130 l-18,0 0,292 2,2 16,-20 0,-274z" />
<path style="fill:#b2b2b2;stroke:#000;stroke-width:2" d="M302,130 l-20,1 0,289 2,2 18,-18 0,-274z" />
<path style="fill:#b2b2b2;stroke:#000;stroke-width:2" d="M273,131 l-24,2 0,287 4,4 20,-20 0,-273z" />
<path style="fill:#b2b2b2;stroke:#000;stroke-width:2" d="M245,133 l-25,0 0,287 6,4 19,-20 0,-271z" />
<path style="fill:#7f7f7f" d="M520,135 l0,-35 -6,-25 -16,-24 -6,-4 0,88 28,0z" />
<path style="fill:#7f7f7f" d="M230,36 l-22,17 -18,22 -6,25 0,35 46,-2 0,-97z" />
<path style="fill:#b2b2b2" d="M492,47 l-19,-13 -10,-2 0,101 29,2 0,-88z" />
<path style="fill:#b2b2b2" d="M284,28 l-21,0 -32,6 -1,2 0,97 54,-2 0,-103z" />
<path style="fill:#e5e5e5" d="M463,32 l-20,-4 -12,0 0,103 32,2 0,-101z" />
<path style="fill:#e5e5e5" d="M355,28 l35,0 0,102 -35,-2 0,-100z" />
<path style="fill:#f0f0f0" d="M390,28 l41,0 0,103 -41,-1 0,-102z" />
<path style="fill:#e0e0e0" d="M355,28 l-4,0 -33,0 0,102 33,-2 4,0 0,-100z" />
<path style="fill:#ccc" d="M284,28 l34,0 0,102 -34,1 0,-103z" />
<path style="fill:none;stroke:#000;stroke-width:2" d="M520,135 l0,-35 -6,-25 -18,-24 -23,-15 -30,-8 -92,0 -90,0 -30,8 -23,15 -18,24 -6,25 0,35 167,-7 169,7" />
<path style="fill:none;stroke:#000;stroke-width:2" d="M55,757 l-27,0 0,211 27,0 0,-211" />

</svg>
