<?xml version="1.0" encoding="utf-8" standalone="no"?><!DOCTYPE svg PUBLIC "-//W3C//DTD SVG 1.1//EN" "http://www.w3.org/Graphics/SVG/1.1/DTD/svg11-flat-20030114.dtd"><svg width="483" height="999" version="1.1" xmlns="http://www.w3.org/2000/svg" xmlns:xlink="http://www.w3.org/1999/xlink">

<path style="fill:#090" d="M336,28 l12,48 36,11 0,36 71,0 0,47 -24,0 0,285 24,0 0,48 -71,0 0,35 -285,0 0,-35 -71,0 0,-48 24,0 0,-285 -24,0 0,-47 71,0 0,-36 36,-11 12,-48 189,0z" />
<path style="fill:#00ab00" d="M316,28 l6,30 4,18 24,10 4,1 0,36 28,0 25,0 3,0 0,6 0,29 0,12 -18,0 0,285 18,0 0,30 0,17 -56,0 0,32 0,4 -7,0 -218,0 0,-36 -57,0 0,-6 0,-5 0,-6 0,-30 19,0 0,-53 0,-36 0,-133 0,-36 0,-27 -19,0 0,-29 0,-18 28,0 29,0 0,-36 24,-10 4,-1 6,-30 3,-18 28,0 9,0 10,0 66,0 28,0 9,0z" />
<path style="fill:#1ebf1e" d="M297,28 l4,30 3,18 20,11 0,36 31,0 6,0 5,0 0,6 0,29 0,12 -14,0 0,285 14,0 0,30 0,17 -42,0 0,32 0,4 -10,0 -156,0 0,-36 -36,0 -5,0 0,-6 0,-41 14,0 0,-285 -14,0 0,-47 31,0 10,0 0,-36 21,-11 4,-30 3,-18 21,0 6,0 7,0 49,0 28,0z" />
<path style="fill:#61d161" d="M277,28 l2,30 2,18 13,11 0,36 24,0 4,0 0,6 -1,29 1,12 -10,0 0,285 10,0 -1,30 1,17 -28,0 0,32 0,4 -6,0 -100,0 0,-36 -27,0 0,-6 0,-5 0,-6 0,-30 9,0 0,-53 0,-36 0,-133 0,-36 0,-27 -9,0 0,-29 0,-18 27,0 0,-36 13,-11 3,-30 2,-18 13,0 4,0 5,0 31,0 18,0z" />
<path style="fill:#a5e5a5" d="M257,28 l2,48 6,11 0,36 12,0 0,47 -4,0 0,285 4,0 0,48 -12,0 0,35 -47,0 0,-35 -12,0 0,-48 4,0 0,-285 -4,0 0,-47 12,0 0,-36 5,-11 2,-48 32,0z" />
<path style="fill:none;stroke:#000;stroke-width:2" d="M336,28 l12,48 36,11 0,36 71,0 0,47 -24,0 0,285 24,0 0,48 -71,0 0,35 -285,0 0,-35 -71,0 0,-48 24,0 0,-285 -24,0 0,-47 71,0 0,-36 36,-11 12,-48 189,0" />
<path style="fill:none;stroke:#000;stroke-width:2" d="M384,123 l-285,0" />
<path style="fill:none;stroke:#000;stroke-width:2" d="M431,170 l-379,0" />
<path style="fill:none;stroke:#000;stroke-width:2" d="M431,455 l-379,0" />
<path style="fill:none;stroke:#000;stroke-width:2" d="M384,503 l-285,0" />
<path style="fill:none;stroke:#000;stroke-width:2" d="M348,76 l-213,0" />
<path style="fill:#d9d9d9;stroke:#7f7f7f;stroke-width:2" d="M265,242 l-154,0 0,47 154,0 0,-47z" />
<path style="fill:#4c4c4c" d="M431,384 l-379,0 0,59 379,0 0,-59z" />
<path style="fill:#666" d="M372,384 l-261,0 0,59 261,0 0,-59z" />
<path style="fill:#f00;stroke:#000;stroke-width:2" d="M301,87 l-24,0 0,12 24,0 0,-12z" />
<path style="fill:#ccc;stroke:#000;stroke-width:2" d="M145,950 l193,0 19,-412 -231,0 19,412z" />
<path style="fill:#a6a6a6" d="M338,950 l-193,0 0,-412 193,0 0,412z" />
<path style="fill:#bfbfbf" d="M318,950 l-153,0 0,-412 153,0 0,412z" />
<path style="fill:#d9d9d9" d="M289,950 l-95,0 0,-412 95,0 0,412z" />
<path style="fill:#f2f2f2" d="M251,950 l-19,0 0,-412 19,0 0,412z" />
<path style="fill:none;stroke:#000;stroke-width:2" d="M338,950 l-193,0 0,-412 193,0 0,412" />
<path style="fill:#7f7f7f;stroke:#000;stroke-width:2" d="M382,950 l-280,0 0,20 280,0 0,-20z" />
<path style="fill:#bfbfbf;stroke:#000;stroke-width:2" d="M301,607 l-119,0 0,231 119,0 0,-231z" />
<path style="fill:#666;stroke:#000;stroke-width:2" d="M292,616 l-18,0 0,46 18,0 0,-46z" />
<path style="fill:#666;stroke:#000;stroke-width:2" d="M265,616 l-19,0 0,46 19,0 0,-46z" />
<path style="fill:#666;stroke:#000;stroke-width:2" d="M237,616 l-19,0 0,46 19,0 0,-46z" />
<path style="fill:#666;stroke:#000;stroke-width:2" d="M209,616 l-18,0 0,46 18,0 0,-46z" />
<path style="fill:#666;stroke:#000;stroke-width:2" d="M292,672 l-18,0 0,46 18,0 0,-46z" />
<path style="fill:#666;stroke:#000;stroke-width:2" d="M265,672 l-19,0 0,46 19,0 0,-46z" />
<path style="fill:#666;stroke:#000;stroke-width:2" d="M237,672 l-19,0 0,46 19,0 0,-46z" />
<path style="fill:#666;stroke:#000;stroke-width:2" d="M209,672 l-18,0 0,46 18,0 0,-46z" />
<path style="fill:#666;stroke:#000;stroke-width:2" d="M292,727 l-18,0 0,46 18,0 0,-46z" />
<path style="fill:#666;stroke:#000;stroke-width:2" d="M265,727 l-19,0 0,46 19,0 0,-46z" />
<path style="fill:#666;stroke:#000;stroke-width:2" d="M237,727 l-19,0 0,46 19,0 0,-46z" />
<path style="fill:#666;stroke:#000;stroke-width:2" d="M209,727 l-18,0 0,46 18,0 0,-46z" />
<path style="fill:#b2b2b2;stroke:#000;stroke-width:2" d="M293,784 l-103,0 0,44 103,0 0,-44z" />

</svg>
