<?xml version="1.0" encoding="utf-8" standalone="no"?><!DOCTYPE svg PUBLIC "-//W3C//DTD SVG 1.1//EN" "http://www.w3.org/Graphics/SVG/1.1/DTD/svg11-flat-20030114.dtd"><svg width="465" height="999" version="1.1" xmlns="http://www.w3.org/2000/svg" xmlns:xlink="http://www.w3.org/1999/xlink">

<path style="fill:#7f7f7f;stroke:#000;stroke-width:2" d="M437,356 l-61,0 0,113 61,0 0,-113z" />
<path style="fill:#7f7f7f" d="M150,109 l0,-30 2,-11 4,-10 6,-9 7,-7 10,-6 10,-4 12,-3 11,-1 12,1 10,3 11,4 9,6 8,7 5,9 5,10 1,11 0,30 -123,0z" />
<path style="fill:#999" d="M156,109 l0,-30 1,-11 4,-10 5,-9 8,-7 8,-6 10,-4 10,-3 10,-1 11,1 10,3 9,4 9,6 6,7 5,9 4,10 1,11 0,30 -111,0z" />
<path style="fill:#b2b2b2" d="M165,109 l0,-30 1,-11 3,-10 5,-9 6,-7 8,-6 8,-4 8,-3 8,-1 13,2 8,3 7,6 7,6 5,9 4,9 1,10 1,6 0,30 -93,0z" />
<path style="fill:#ccc" d="M182,109 l0,-30 1,-11 2,-10 3,-9 4,-7 7,-9 8,-4 5,-1 9,2 8,6 6,9 4,9 2,9 1,10 1,6 0,30 -61,0z" />
<path style="fill:#e5e5e5" d="M201,109 l0,-30 0,-11 1,-10 2,-13 3,-9 3,-7 2,-1 2,1 4,10 2,10 1,14 1,10 0,36 -21,0z" />
<path style="fill:none;stroke:#000;stroke-width:2" d="M150,109 l0,-30 2,-11 4,-10 6,-9 7,-7 10,-6 10,-4 12,-3 11,-1 12,1 10,3 11,4 9,6 8,7 5,9 5,10 1,11 0,30 -123,0" />
<path style="fill:#7f7f7f" d="M69,887 l-20,0 0,-60 20,0 0,-62 -20,0 0,-368 -21,-2 0,-81 41,0 0,-20 -20,0 0,-42 41,0 0,-60 6,-33 16,-27 25,-22 30,-14 34,-7 11,-1 12,1 33,7 30,14 25,22 17,27 6,33 0,60 41,0 0,42 -20,0 0,20 41,0 0,81 -21,2 0,368 -20,0 0,62 20,0 0,60 -20,0 -10,32 -19,21 -29,16 -25,8 -28,5 -16,1 -17,0 -16,0 -30,-4 -27,-6 -32,-14 -23,-19 -12,-23 -3,-17z" />
<path style="fill:#999" d="M84,887 l-19,0 0,-60 19,0 0,-62 -19,0 2,-368 -18,-2 0,-81 35,0 0,-20 -19,0 0,-42 38,0 0,-60 6,-33 14,-27 22,-22 27,-14 30,-7 10,-1 11,1 30,7 27,14 22,22 14,27 6,33 0,60 36,0 0,42 -17,0 0,20 35,0 0,81 -18,2 0,368 -17,0 0,62 17,0 0,60 -17,0 -9,32 -17,21 -26,16 -35,10 -27,4 -15,0 -14,0 -27,-4 -35,-10 -26,-16 -17,-21 -9,-32z" />
<path style="fill:#b2b2b2" d="M101,887 l-17,0 0,-60 17,0 0,-62 -17,0 0,-368 -15,-2 0,-81 32,0 0,-20 -17,0 0,-42 32,0 0,-60 5,-33 13,-27 20,-22 24,-14 26,-7 8,-1 9,1 26,7 23,14 19,22 13,27 5,33 0,60 32,0 0,42 -15,0 0,20 32,0 0,81 -17,2 0,368 -15,0 0,62 15,0 0,60 -15,0 -8,32 -22,27 -25,14 -32,9 -12,1 -13,0 -12,0 -34,-6 -28,-13 -20,-18 -15,-29 -2,-17z" />
<path style="fill:#ccc" d="M133,887 l-11,0 0,-60 11,0 0,-62 -11,0 0,-368 -11,-2 0,-81 22,0 0,-20 -11,0 0,-42 23,0 0,-60 3,-33 9,-27 14,-22 23,-18 12,-3 6,-1 7,1 24,11 21,24 10,25 6,31 0,12 0,60 23,0 0,42 -11,0 0,20 22,0 0,81 -11,2 0,368 -11,0 0,62 11,0 0,60 -11,0 -6,32 -16,27 -25,18 -23,6 -10,0 -9,0 -31,-10 -23,-20 -13,-28 -3,-25z" />
<path style="fill:#e5e5e5" d="M180,887 l-3,0 0,-60 3,0 0,-62 -3,0 0,-368 -6,-2 0,-81 9,0 0,-20 -3,0 0,-42 9,0 0,-72 2,-31 6,-32 11,-25 5,-3 2,-1 3,1 14,21 6,30 3,29 1,23 0,60 9,0 0,42 -3,0 0,20 9,0 0,81 -6,2 0,368 -3,0 0,62 3,0 0,60 -3,0 -3,32 -6,27 -16,23 -4,1 -4,0 -3,0 -20,-24 -6,-27 -3,-32z" />
<path style="fill:none;stroke:#000;stroke-width:2" d="M69,887 l-20,0 0,-60 20,0 0,-62 -20,0 0,-368 -21,-2 0,-81 41,0 0,-20 -20,0 0,-42 41,0 0,-60 6,-33 16,-27 25,-22 30,-14 34,-7 11,-1 12,1 33,7 30,14 25,22 17,27 6,33 0,60 41,0 0,42 -20,0 0,20 41,0 0,81 -21,2 0,368 -20,0 0,62 20,0 0,60 -20,0 -10,32 -19,21 -29,16 -25,8 -28,5 -16,1 -17,0 -16,0 -30,-4 -27,-6 -32,-14 -23,-19 -12,-23 -3,-17" />
<path style="fill:none;stroke:#000;stroke-width:2" d="M376,827 l-327,0 0,30 327,0 0,-30" />
<path style="fill:none;stroke:#000;stroke-width:2" d="M376,857 l-327,0 0,30 327,0 0,-30" />
<path style="fill:none;stroke:#000;stroke-width:2" d="M397,314 l-369,0 0,81 369,0 0,-81" />
<path style="fill:none;stroke:#000;stroke-width:2" d="M376,252 l-327,0 0,42 327,0 0,-42" />
<path style="fill:none;stroke:#000;stroke-width:2" d="M376,395 l-327,0 0,370 327,0 0,-370" />
<path style="fill:#666;stroke:#000;stroke-width:2" d="M418,469 l-42,0 0,30 42,0 0,-30z" />
<path style="fill:#999;stroke:#000;stroke-width:2" d="M397,499 l-21,0 0,72 21,0 0,-72z" />

</svg>
