<?xml version="1.0" encoding="utf-8" standalone="no"?><!DOCTYPE svg PUBLIC "-//W3C//DTD SVG 1.1//EN" "http://www.w3.org/Graphics/SVG/1.1/DTD/svg11-flat-20030114.dtd"><svg width="507" height="999" version="1.1" xmlns="http://www.w3.org/2000/svg" xmlns:xlink="http://www.w3.org/1999/xlink">

<path style="fill:#217f21" d="M64,778 l-36,0 0,192 36,0 0,-192z" />
<path style="fill:#217f21" d="M136,925 l0,-101 -72,0 0,101 72,0z" />
<path style="fill:#217f21" d="M447,807 l-299,0 -12,13 0,107 12,15 299,0 11,-15 0,-107 -11,-13z" />
<path style="fill:#217f21" d="M170,485 l77,0 0,253 -77,0 0,-253z" />
<path style="fill:#217f21" d="M479,456 l0,-28 -373,0 0,28 373,0z" />
<path style="fill:#217f21" d="M479,485 l-373,0 0,-29 373,0 0,29z" />
<path style="fill:#217f21" d="M170,428 l77,0 0,-278 -77,5 0,273z" />
<path style="fill:#217f21" d="M241,150 l30,-2 0,-65 -30,2 0,65z" />
<path style="fill:#217f21" d="M277,83 l-21,0 0,-54 21,-1 0,55z" />
<path style="fill:#217f21" d="M170,807 l242,0 0,-50 2,0 0,-19 -244,0 0,19 0,50z" />
<path style="fill:#43a143;stroke:#000;stroke-width:2" d="M329,83 l-2,0 0,-52 2,0 0,52z" />
<path style="fill:#43a143;stroke:#000;stroke-width:2" d="M342,150 l4,0 0,-65 -4,0 0,65z" />
<path style="fill:#43a143;stroke:#000;stroke-width:2" d="M412,428 l8,0 0,-267 -8,0 0,267z" />
<path style="fill:#43a143;stroke:#000;stroke-width:2" d="M256,83 l34,0 37,0 0,-54 -37,-1 -34,1 0,54z" />
<path style="fill:#43a143;stroke:#000;stroke-width:2" d="M342,150 l-50,-2 -51,2 0,-67 49,0 52,0 0,67z" />
<path style="fill:#43a143;stroke:#000;stroke-width:2" d="M170,428 l242,0 0,-277 -120,-3 -122,3 0,277z" />
<path style="fill:#43a143;stroke:#000;stroke-width:2" d="M466,454 l0,-25 -259,0 0,25 259,0z" />
<path style="fill:#43a143;stroke:#000;stroke-width:2" d="M466,458 l0,25 -259,0 0,-25 259,0z" />
<path style="fill:#43a143;stroke:#000;stroke-width:2" d="M170,485 l242,0 0,253 -242,0 0,-253z" />
<path style="fill:#43a143;stroke:#000;stroke-width:2" d="M136,896 l0,-68 -72,0 0,68 72,0z" />
<path style="fill:#43a143;stroke:#000;stroke-width:2" d="M60,786 l-31,0 0,133 31,0 0,-133z" />
<path style="fill:#217f21;stroke:#000;stroke-width:2" d="M412,485 l40,0 -32,253 -8,0 0,-253z" />
<path style="fill:#005e00;stroke:#000;stroke-width:2" d="M287,485 l9,0 0,253 -9,0 0,-253z" />
<path style="fill:#005e00;stroke:#000;stroke-width:2" d="M136,485 l34,0 0,253 -9,0 -25,-253z" />
<path style="fill:#005e00;stroke:#000;stroke-width:2" d="M287,428 l9,0 0,-267 -9,0 0,267z" />
<path style="fill:#005e00;stroke:#000;stroke-width:2" d="M161,428 l9,0 0,-267 -9,0 0,267z" />
<path style="fill:#005e00;stroke:#000;stroke-width:2" d="M235,150 l4,0 0,-65 -4,0 0,65z" />
<path style="fill:#005e00;stroke:#000;stroke-width:2" d="M292,148 l-2,0 0,-63 2,0 0,63z" />
<path style="fill:#005e00;stroke:#000;stroke-width:2" d="M290,83 l2,0 0,-52 -2,0 0,52z" />
<path style="fill:#005e00;stroke:#000;stroke-width:2" d="M256,83 l-4,0 0,-52 4,0 0,52z" />
<path style="fill:#43a143" d="M429,808 l-228,0 -15,14 0,103 15,15 228,0 12,-15 0,-103 -12,-14z" />
<path style="fill:#82e082" d="M60,791 l-31,0 0,12 31,0 0,-12z" />
<path style="fill:#82e082" d="M136,837 l0,-6 -72,0 0,6 72,0z" />
<path style="fill:#82e082" d="M418,808 l-10,0 6,14 0,103 -6,15 10,0 11,-15 0,-103 -11,-14z" />
<path style="fill:#82e082" d="M371,485 l24,0 0,253 -24,0 0,-253z" />
<path style="fill:#82e082" d="M454,458 l0,25 -25,0 0,-25 25,0z" />
<path style="fill:#82e082" d="M454,454 l0,-25 -25,0 0,25 25,0z" />
<path style="fill:#82e082" d="M371,428 l24,0 0,-275 -24,-3 0,278z" />
<path style="fill:#82e082" d="M325,148 l9,2 0,-67 -9,0 0,65z" />
<path style="fill:#82e082" d="M321,83 l-6,0 0,-55 6,1 0,54z" />
<path style="fill:#217f21" d="M406,740 l0,17 -169,0 0,-17 169,0z" />
<path style="fill:#000" d="M184,766 l0,8 9,0 0,-8 6,0 0,-9 -21,0 0,9 6,0z" />
<path style="fill:#000" d="M241,766 l0,8 9,0 0,-8 6,0 0,-9 -21,0 0,9 6,0z" />
<path style="fill:#000" d="M289,766 l0,8 9,0 0,-8 6,0 0,-9 -21,0 0,9 6,0z" />
<path style="fill:#000" d="M340,766 l0,8 9,0 0,-8 6,0 0,-9 -21,0 0,9 6,0z" />
<path style="fill:#000" d="M391,766 l0,8 10,0 0,-8 5,0 0,-9 -20,0 0,9 5,0z" />
<path style="fill:#7f7f7f" d="M365,500 l0,10 15,0 0,-10 8,0 0,-15 -31,0 0,15 8,0z" />
<path style="fill:#7f7f7f" d="M287,500 l0,10 15,0 0,-10 7,0 0,-15 -30,0 0,15 8,0z" />
<path style="fill:#7f7f7f" d="M214,500 l0,10 15,0 0,-10 8,0 0,-15 -30,0 0,15 7,0z" />
<path style="fill:#7f7f7f" d="M125,500 l0,10 17,0 0,-10 8,0 0,-15 -33,0 0,15 8,0z" />
<path style="fill:#7f7f7f" d="M125,412 l0,-9 17,0 0,9 8,0 0,16 -33,0 0,-16 8,0z" />
<path style="fill:#7f7f7f" d="M214,412 l0,-9 15,0 0,9 8,0 0,16 -30,0 0,-16 7,0z" />
<path style="fill:#7f7f7f" d="M287,412 l0,-9 15,0 0,9 7,0 0,16 -30,0 0,-16 8,0z" />
<path style="fill:#7f7f7f" d="M365,412 l0,-9 15,0 0,9 8,0 0,16 -31,0 0,-16 8,0z" />
<path style="fill:#7f7f7f" d="M443,412 l0,-9 17,0 0,9 8,0 0,16 -31,0 0,-16 6,0z" />
<path style="fill:#7f7f7f" d="M443,500 l0,10 17,0 0,-10 8,0 0,-15 -31,0 0,15 6,0z" />
<path style="fill:#f0f0f0" d="M460,498 l-15,0 0,-11 15,0 0,11z" />
<path style="fill:#f0f0f0" d="M380,498 l-15,0 0,-11 15,0 0,11z" />
<path style="fill:#f0f0f0" d="M302,498 l-15,0 0,-11 15,0 0,11z" />
<path style="fill:#f0f0f0" d="M229,498 l-15,0 0,-11 15,0 0,11z" />
<path style="fill:#f0f0f0" d="M142,498 l-15,0 0,-11 15,0 0,11z" />
<path style="fill:#f0f0f0" d="M142,414 l-15,0 0,12 15,0 0,-12z" />
<path style="fill:#f0f0f0" d="M229,414 l-15,0 0,12 15,0 0,-12z" />
<path style="fill:#f0f0f0" d="M302,414 l-15,0 0,12 15,0 0,-12z" />
<path style="fill:#f0f0f0" d="M380,414 l-15,0 0,12 15,0 0,-12z" />
<path style="fill:#f0f0f0" d="M460,414 l-15,0 0,12 15,0 0,-12z" />
<path style="fill:#f0f0f0" d="M401,766 l-10,0 0,-7 10,0 0,7z" />
<path style="fill:#f0f0f0" d="M193,766 l-9,0 0,-7 9,0 0,7z" />
<path style="fill:#f0f0f0" d="M298,766 l-9,0 0,-7 9,0 0,7z" />
<path style="fill:#f0f0f0" d="M349,766 l-9,0 0,-7 9,0 0,7z" />
<path style="fill:#f0f0f0" d="M250,766 l-9,0 0,-7 9,0 0,7z" />

</svg>
