<?xml version="1.0" encoding="utf-8" standalone="no"?><!DOCTYPE svg PUBLIC "-//W3C//DTD SVG 1.1//EN" "http://www.w3.org/Graphics/SVG/1.1/DTD/svg11-flat-20030114.dtd"><svg width="365" height="530" version="1.1" xmlns="http://www.w3.org/2000/svg" xmlns:xlink="http://www.w3.org/1999/xlink">

<path style="fill:#7f7f7f;stroke:#000;stroke-width:2" d="M135,131 l0,-116 -107,0 0,268 1,16 2,16 4,16 6,14 6,14 8,14 10,12 10,11 11,11 13,9 13,8 14,7 15,6 15,4 16,2 16,1 16,-1 17,-2 15,-4 15,-6 14,-7 13,-8 13,-9 11,-11 11,-11 9,-12 8,-14 7,-14 6,-14 4,-16 2,-16 1,-16 -1,-16 -2,-16 -4,-16 -6,-14 -7,-14 -8,-14 -9,-12 -11,-12 -11,-10 -13,-9 -13,-8 -14,-7 -15,-6 -15,-4 -17,-2 -16,-1 -20,1 -13,3 -14,3 -6,2z" />
<path style="fill:#999" d="M37,283 l0,-268 89,0 0,268 -89,0z" />
<path style="fill:#b2b2b2" d="M48,283 l0,-268 68,0 0,268 -68,0z" />
<path style="fill:#ccc" d="M59,283 l0,-268 46,0 0,268 -46,0z" />
<path style="fill:#e5e5e5" d="M67,283 l0,-268 30,0 0,268 -30,0z" />
<path style="fill:#fff" d="M76,283 l0,-268 12,0 0,268 -12,0z" />
<circle style="fill:#b2b2b2" cx="189" cy="283" r="152" />
<path style="fill:#7f7f7f" d="M243,283 l0,196 -108,0 0,-196 1,-11 3,-10 5,-9 7,-8 8,-7 9,-5 10,-3 11,-1 11,1 10,3 9,5 8,7 7,8 5,9 3,10 1,11z" />
<path style="fill:#999" d="M236,257 l-4,-6 -5,-6 -5,-4 -6,-4 -6,-4 -7,-2 -7,-1 -7,-1 -7,1 -7,1 -7,2 -6,4 -6,4 -6,4 -4,6 -4,6 0,222 94,0 0,-222z" />
<path style="fill:#b2b2b2" d="M225,243 l-4,-3 -4,-3 -4,-2 -5,-2 -5,-2 -4,-1 -5,-1 -5,0 -5,0 -5,1 -4,1 -5,2 -5,2 -4,2 -4,3 -4,3 0,236 72,0 0,-236z" />
<path style="fill:#ccc" d="M213,235 l-6,-3 -6,-2 -6,-1 -6,0 -6,0 -7,1 -6,2 -6,3 0,244 50,0 -1,-244z" />
<path style="fill:#e5e5e5" d="M205,232 l-4,-1 -4,-1 -4,-1 -4,0 -5,0 -4,1 -5,1 -4,1 0,247 34,0 0,-247z" />
<path style="fill:#fff" d="M196,230 l-2,-1 -2,0 -1,0 -2,0 -2,0 -2,0 -1,0 -2,1 0,249 14,0 0,-249z" />
<path style="fill:none;stroke:#000;stroke-width:2" d="M135,479 l0,-196 1,-11 3,-10 5,-9 7,-8 8,-7 9,-5 10,-3 11,-1 11,1 10,3 9,5 8,7 7,8 5,9 3,10 1,11 0,196" />
<path style="fill:#7f7f7f" d="M15,51 l0,-36 134,0 0,36 -134,0z" />
<path style="fill:#999" d="M23,51 l0,-36 118,0 0,36 -118,0z" />
<path style="fill:#b2b2b2" d="M37,51 l0,-36 90,0 0,36 -90,0z" />
<path style="fill:#ccc" d="M51,51 l0,-36 62,0 0,36 -62,0z" />
<path style="fill:#e5e5e5" d="M62,51 l0,-36 39,0 0,36 -39,0z" />
<path style="fill:#fff" d="M74,51 l0,-36 16,0 0,36 -16,0z" />
<path style="fill:none;stroke:#000;stroke-width:2" d="M15,51 l0,-36 134,0 0,36 -134,0" />
<path style="fill:#7f7f7f" d="M122,515 l0,-36 134,0 0,36 -134,0z" />
<path style="fill:#999" d="M130,515 l0,-36 118,0 0,36 -118,0z" />
<path style="fill:#b2b2b2" d="M145,515 l0,-36 89,0 0,36 -89,0z" />
<path style="fill:#ccc" d="M158,515 l0,-36 62,0 0,36 -62,0z" />
<path style="fill:#e5e5e5" d="M169,515 l0,-36 40,0 0,36 -40,0z" />
<path style="fill:#fff" d="M181,515 l0,-36 16,0 0,36 -16,0z" />
<path style="fill:none;stroke:#000;stroke-width:2" d="M122,515 l0,-36 134,0 0,36 -134,0" />

</svg>
