<?xml version="1.0" encoding="utf-8" standalone="no"?><!DOCTYPE svg PUBLIC "-//W3C//DTD SVG 1.1//EN" "http://www.w3.org/Graphics/SVG/1.1/DTD/svg11-flat-20030114.dtd"><svg width="802" height="999" version="1.1" xmlns="http://www.w3.org/2000/svg" xmlns:xlink="http://www.w3.org/1999/xlink">

<path style="fill:#4c4c4c" d="M681,759 l-560,0 0,152 560,0 0,-152z" />
<path style="fill:#d9d9d9;stroke:#000;stroke-width:2" d="M322,146 l0,-59 157,0 0,59 18,13 29,10 29,11 27,14 26,16 24,18 23,19 21,22 19,23 18,24 15,27 14,27 11,28 9,29 6,30 4,31 1,15 1,16 -1,19 -4,37 -7,37 -11,35 -14,33 -17,32 -21,30 -23,27 -25,26 -27,23 -30,20 -32,17 -33,14 -35,11 -37,7 -37,4 -19,1 -19,-1 -38,-4 -36,-7 -36,-11 -33,-14 -32,-17 -29,-20 -28,-23 -25,-26 -23,-27 -20,-30 -17,-32 -15,-33 -11,-35 -7,-37 -4,-37 0,-19 0,-16 3,-31 5,-30 8,-30 10,-28 12,-28 15,-27 16,-25 18,-24 21,-22 22,-21 23,-19 26,-17 26,-14 28,-13 29,-10 15,-4 17,-14z" />
<path style="fill:#bfbfbf" d="M617,774 l59,157 0,39 -98,0 -20,-39 -98,-98 -118,0 -98,98 -20,39 -98,0 0,-39 59,-157 432,0z" />
<path style="fill:#a6a6a6" d="M244,931 l-118,0 0,39 98,0 20,-39z" />
<path style="fill:#a6a6a6" d="M676,931 l-118,0 20,39 98,0 0,-39z" />
<path style="fill:none;stroke:#000;stroke-width:2" d="M617,774 l59,157 0,39 -98,0 -20,-39 -98,-98 -118,0 -98,98 -20,39 -98,0 0,-39 59,-157 432,0" />
<circle style="fill:#f2f2f2" cx="400" cy="518" r="333" />
<circle style="fill:#d9d9d9" cx="400" cy="518" r="235" />
<circle style="fill:#fff;stroke:#000;stroke-width:2" cx="400" cy="518" r="196" />
<circle style="fill:#4c4c4c" cx="400" cy="518" r="117" />
<circle style="fill:#000" cx="400" cy="519" r="78" />
<path style="fill:#ccc" d="M474,87 l-147,0 0,44 147,0 0,-44z" />
<path style="fill:#bfbfbf" d="M474,87 l-147,0 0,19 147,0 0,-19z" />
<path style="fill:#ccc" d="M538,87 l-275,0 0,-59 275,0 0,59z" />
<path style="fill:#e5e5e5" d="M503,87 l-206,0 0,-59 206,0 0,59z" />
<path style="fill:#f2f2f2" d="M469,87 l-137,0 0,-59 137,0 0,59z" />
<path style="fill:#fff" d="M434,87 l-68,0 0,-59 68,0 0,59z" />
<path style="fill:none;stroke:#000;stroke-width:2" d="M538,87 l-275,0 0,-59 275,0 0,59" />
<path style="fill:#666" d="M512,649 l14,-5 6,-14 -6,-14 -14,-6 -14,6 -6,13 6,15 14,5z" />
<path style="fill:#666" d="M290,427 l14,-6 6,-13 -6,-14 -14,-6 -14,6 -6,14 6,13 14,6z" />
<path style="fill:#666" d="M270,629 l5,15 15,5 14,-5 6,-15 -6,-13 -14,-6 -14,6 -6,13z" />
<path style="fill:#666" d="M492,407 l6,14 14,6 14,-6 6,-14 -6,-14 -14,-6 -14,6 -6,14z" />
<path style="fill:none;stroke:#7f7f7f;stroke-width:2" d="M111,686 l18,27 21,26 23,23 24,21 27,19 29,15 30,13 31,10 32,8 32,4 12,0 11,0 11,0 33,-3 32,-6 31,-9 31,-12 29,-15 27,-18 26,-20 23,-22 22,-25 18,-27 6,-9" />

</svg>
