<?xml version="1.0" encoding="utf-8" standalone="no"?><!DOCTYPE svg PUBLIC "-//W3C//DTD SVG 1.1//EN" "http://www.w3.org/Graphics/SVG/1.1/DTD/svg11-flat-20030114.dtd"><svg width="889" height="999" version="1.1" xmlns="http://www.w3.org/2000/svg" xmlns:xlink="http://www.w3.org/1999/xlink">

<circle style="fill:#e5b200;stroke:#000;stroke-width:2" cx="444" cy="553" r="416" />
<path style="fill:#d9a600;stroke:#000;stroke-width:2" d="M576,187 l-44,-72 -6,55 50,17z" />
<circle style="fill:#f2bf00" cx="444" cy="554" r="395" />
<circle style="fill:#e5b200" cx="444" cy="554" r="285" />
<path style="fill:#fc0;stroke:#000;stroke-width:2" d="M356,137 l0,-44 176,0 0,44 -4,35 -12,32 -18,31 -24,27 -30,22 -11,6 -57,10 -31,10 -29,14 -27,18 -24,20 -22,23 -19,26 -16,28 -12,30 -9,31 -5,32 -1,35 3,27 5,26 8,24 10,24 12,22 14,21 25,29 29,25 21,14 22,12 24,10 24,8 26,5 27,3 13,0 0,132 -20,-1 -40,-4 -39,-8 -36,-11 -36,-15 -33,-19 -32,-21 -29,-24 -27,-27 -24,-29 -21,-32 -19,-33 -15,-36 -11,-36 -8,-39 -4,-40 -1,-20 1,-13 3,-39 4,-26 6,-25 8,-25 9,-24 11,-23 12,-23 14,-22 14,-21 17,-19 27,-29 19,-17 21,-16 21,-14 11,-7 76,-36 24,-17 9,-21z" />
<circle style="fill:#fc0;stroke:#000;stroke-width:2" cx="444" cy="554" r="197" />
<path style="fill:#fc0" d="M597,93 l-307,0 0,-65 307,0 0,65z" />
<path style="fill:#ffde54" d="M558,93 l-230,0 0,-65 230,0 0,65z" />
<path style="fill:#ffedab" d="M520,93 l-153,0 0,-65 153,0 0,65z" />
<path style="fill:#fff" d="M482,93 l-76,0 0,-65 76,0 0,65z" />
<path style="fill:none;stroke:#000;stroke-width:2" d="M597,93 l-307,0 0,-65 307,0 0,65" />
<circle style="fill:#4c4c4c" cx="444" cy="553" r="109" />
<circle style="fill:#000" cx="444" cy="554" r="66" />
<path style="fill:#fc0" d="M438,947 l88,-20 72,-33 71,-60 60,-116 -66,61 -65,32 -83,17 -76,-10 -1,129z" />
<path style="fill:#b27f00" d="M565,675 l5,-13 -5,-13 -13,-5 -13,5 -5,13 5,13 13,5 13,-5z" />
<path style="fill:#b27f00" d="M565,459 l5,-13 -5,-13 -13,-5 -13,5 -5,13 5,13 13,5 13,-5z" />
<path style="fill:#b27f00" d="M349,459 l5,-13 -5,-13 -13,-5 -13,5 -5,13 5,13 13,5 13,-5z" />
<path style="fill:#b27f00" d="M349,675 l5,-13 -5,-13 -13,-5 -13,5 -5,13 5,13 13,5 13,-5z" />
<path style="fill:#d9a600" d="M491,886 l18,-47 -18,-47 -47,-18 -47,18 -19,47 19,47 47,19 47,-19z" />
<path style="fill:#fc0;stroke:#000;stroke-width:2" d="M491,859 l18,-47 -18,-47 -47,-19 -47,19 -19,47 19,47 47,18 47,-18z" />
<path style="fill:#fc0;stroke:#000;stroke-width:2" d="M751,970 l0,-65 -241,0 0,27 -132,0 0,-27 -241,0 0,65 614,0z" />
<path style="fill:#d9a600;stroke:#000;stroke-width:2" d="M247,905 l-44,0 0,65 44,0 0,-65z" />
<path style="fill:#d9a600;stroke:#000;stroke-width:2" d="M685,905 l-44,0 0,65 44,0 0,-65z" />
<path style="fill:#d9a600;stroke:#000;stroke-width:2" d="M510,932 l-132,0 0,38 132,0 0,-38z" />

</svg>
