<?xml version="1.0" encoding="utf-8" standalone="no"?><!DOCTYPE svg PUBLIC "-//W3C//DTD SVG 1.1//EN" "http://www.w3.org/Graphics/SVG/1.1/DTD/svg11-flat-20030114.dtd"><svg width="530" height="383" version="1.1" xmlns="http://www.w3.org/2000/svg" xmlns:xlink="http://www.w3.org/1999/xlink">

<path style="fill:#7f7f7f;stroke:#000;stroke-width:2" d="M125,368 l276,-103 -287,0 -18,74 29,29z" />
<path style="fill:#7f7f7f;stroke:#000;stroke-width:2" d="M74,15 l367,0 21,8 12,10 11,13 10,17 9,19 5,22 2,25 -2,26 -5,24 -9,23 -10,21 -11,17 -12,13 -11,9 -10,3 -345,26 -15,-4 -13,-10 -11,-16 -9,-20 -8,-23 -5,-25 -4,-27 -1,-26 1,-25 2,-24 4,-21 6,-18 6,-16 8,-11 8,-7 9,-3z" />
<path style="fill:#b2b2b2;stroke:#000;stroke-width:2" d="M449,368 l-18,-74 -287,0 -19,74 324,0z" />
<path style="fill:#b2b2b2;stroke:#000;stroke-width:2" d="M103,44 l368,0 9,3 8,7 7,12 7,15 5,19 4,21 3,23 1,25 -1,25 -3,24 -4,21 -5,18 -7,16 -7,11 -8,7 -9,3 -368,0 -9,-3 -8,-7 -7,-11 -7,-16 -5,-18 -5,-21 -2,-24 -1,-25 1,-25 2,-23 5,-21 5,-19 7,-15 7,-12 8,-7 9,-3z" />
<path style="fill:none;stroke:#000;stroke-width:2" d="M471,44 l0,250" />
<path style="fill:none;stroke:#000;stroke-width:2" d="M103,44 l0,250" />
<path style="fill:none;stroke:#000;stroke-width:2" d="M471,44 l-30,-29" />
<path style="fill:none;stroke:#000;stroke-width:2" d="M103,44 l-29,-29" />
<path style="fill:#7f7f7f;stroke:#000;stroke-width:2" d="M59,169 l-29,-29 -15,0 29,29 15,0z" />
<path style="fill:#7f7f7f;stroke:#000;stroke-width:2" d="M44,184 l0,-29 -29,-30 0,30 29,29z" />

</svg>
