<?xml version="1.0" encoding="utf-8" standalone="no"?><!DOCTYPE svg PUBLIC "-//W3C//DTD SVG 1.1//EN" "http://www.w3.org/Graphics/SVG/1.1/DTD/svg11-flat-20030114.dtd"><svg width="530" height="380" version="1.1" xmlns="http://www.w3.org/2000/svg" xmlns:xlink="http://www.w3.org/1999/xlink">

<ellipse style="fill:#7f7f7f;stroke:#000;stroke-width:2" cx="24" cy="153" rx="9" ry="29" />
<path style="fill:#7f7f7f;stroke:#000;stroke-width:2" d="M128,365 l274,-102 -285,0 -18,73 29,29z" />
<path style="fill:#7f7f7f;stroke:#000;stroke-width:2" d="M70,15 l408,0 8,3 7,8 6,13 5,16 5,21 3,23 2,26 1,28 -1,28 -2,26 -3,24 -5,20 -5,17 -6,13 -7,8 -8,3 -410,0 -7,-3 -6,-8 -6,-13 -5,-17 -5,-20 -3,-24 -2,-26 -1,-28 1,-28 2,-26 3,-23 5,-21 6,-16 6,-13 7,-8 7,-3z" />
<path style="fill:none;stroke:#000;stroke-width:2" d="M48,153 l-15,0" />
<ellipse style="fill:none;stroke:#000;stroke-width:2" cx="69" cy="153" rx="36" ry="138" />
<path style="fill:#b2b2b2;stroke:#000;stroke-width:2" d="M478,292 l-408,0 7,-3 7,-8 6,-13 5,-17 5,-20 3,-24 2,-26 1,-28 0,-16 -1,-16 -1,-15 -2,-15 -2,-14 -5,-24 -3,-10 386,1 8,3 13,18 5,15 5,19 3,21 2,23 1,25 -1,25 -2,23 -3,21 -5,18 -5,16 -13,18 -8,3z" />
<path style="fill:#b2b2b2;stroke:#000;stroke-width:2" d="M449,365 l-18,-73 -285,0 -18,73 321,0z" />

</svg>
