<?xml version="1.0" encoding="utf-8" standalone="no"?><!DOCTYPE svg PUBLIC "-//W3C//DTD SVG 1.1//EN" "http://www.w3.org/Graphics/SVG/1.1/DTD/svg11-flat-20030114.dtd"><svg width="530" height="333" version="1.1" xmlns="http://www.w3.org/2000/svg" xmlns:xlink="http://www.w3.org/1999/xlink">

<path style="fill:#7f7f7f;stroke:#000;stroke-width:2" d="M30,98 l-15,0 0,61 15,0 0,-61z" />
<path style="fill:#7f7f7f;stroke:#000;stroke-width:2" d="M515,113 l-485,0 0,31 485,0 0,-31z" />
<path style="fill:#999" d="M30,102 l-15,0 0,53 15,0 0,-53z" />
<path style="fill:#999" d="M515,115 l-485,0 0,27 485,0 0,-27z" />
<path style="fill:#b2b2b2" d="M30,108 l-15,0 0,41 15,0 0,-41z" />
<path style="fill:#b2b2b2" d="M515,118 l-485,0 0,21 485,0 0,-21z" />
<path style="fill:#ccc" d="M30,115 l-15,0 0,27 15,0 0,-27z" />
<path style="fill:#ccc" d="M515,122 l-485,0 0,13 485,0 0,-13z" />
<path style="fill:#e5e5e5" d="M30,122 l-15,0 0,13 15,0 0,-13z" />
<path style="fill:#e5e5e5" d="M515,125 l-485,0 0,7 485,0 0,-7z" />
<path style="fill:#fff" d="M30,128 l-15,0 0,2 15,0 0,-2z" />
<path style="fill:#fff" d="M515,128 l-485,0 0,1 485,0 0,-1z" />
<path style="fill:#7f7f7f;stroke:#000;stroke-width:2" d="M106,129 l0,113 -12,-2 -11,-7 -11,-10 -9,-14 -7,-17 -6,-19 -4,-21 -1,-23 1,-23 4,-21 6,-20 7,-17 9,-14 11,-10 11,-7 12,-2 0,114z" />
<path style="fill:#7f7f7f" d="M121,318 l303,0 -57,-76 -189,0 -57,76z" />
<path style="fill:#7f7f7f" d="M439,16 l-333,0 0,226 333,0 0,-226z" />
<path style="fill:#7f7f7f;stroke:#000;stroke-width:2" d="M439,129 l0,113 12,-2 12,-7 10,-10 9,-14 8,-17 5,-19 4,-21 1,-23 -1,-23 -4,-21 -5,-20 -8,-17 -9,-14 -10,-10 -12,-7 -12,-2 0,114z" />
<path style="fill:#999" d="M145,318 l255,0 -48,-76 -159,0 -48,76z" />
<path style="fill:#999" d="M106,129 l0,99 -12,-2 -11,-6 -11,-9 -9,-12 -7,-15 -6,-17 -4,-18 -1,-20 1,-20 4,-19 6,-17 7,-15 9,-12 11,-9 11,-6 12,-2 0,100z" />
<path style="fill:#999" d="M439,30 l-333,0 0,198 333,0 0,-198z" />
<path style="fill:#999" d="M439,129 l0,99 12,-2 12,-6 10,-9 9,-12 8,-15 5,-17 4,-18 1,-20 -1,-20 -4,-19 -5,-17 -8,-15 -9,-12 -10,-9 -12,-6 -12,-2 0,100z" />
<path style="fill:#b2b2b2" d="M173,318 l199,0 -37,-76 -124,0 -38,76z" />
<path style="fill:#b2b2b2" d="M439,51 l-333,0 0,156 333,0 0,-156z" />
<path style="fill:#b2b2b2" d="M106,129 l0,78 -12,-2 -11,-4 -11,-7 -9,-10 -7,-11 -6,-14 -4,-14 -1,-16 1,-16 4,-14 6,-14 7,-12 9,-9 11,-8 11,-4 12,-2 0,79z" />
<path style="fill:#b2b2b2" d="M439,129 l0,78 12,-2 12,-4 10,-7 9,-10 8,-11 5,-14 4,-14 1,-16 -1,-16 -4,-14 -5,-14 -8,-12 -9,-9 -10,-8 -12,-4 -12,-2 0,79z" />
<path style="fill:#ccc" d="M211,318 l123,0 -23,-76 -77,0 -23,76z" />
<path style="fill:#ccc" d="M106,129 l0,49 -12,-1 -11,-3 -11,-4 -9,-6 -7,-8 -6,-8 -4,-9 -1,-10 1,-10 4,-10 6,-8 7,-8 9,-6 11,-4 11,-3 12,-1 0,50z" />
<path style="fill:#ccc" d="M439,80 l-333,0 0,98 333,0 0,-98z" />
<path style="fill:#ccc" d="M439,129 l0,49 12,-1 12,-3 10,-4 9,-6 8,-8 5,-8 4,-9 1,-10 -1,-10 -4,-10 -5,-8 -8,-8 -9,-6 -10,-4 -12,-3 -12,-1 0,50z" />
<path style="fill:#e5e5e5" d="M244,318 l57,0 -11,-76 -35,0 -11,76z" />
<path style="fill:#e5e5e5" d="M106,129 l0,25 -12,-1 -11,-1 -11,-2 -9,-4 -7,-3 -6,-5 -4,-4 -1,-5 1,-5 4,-5 6,-4 7,-4 9,-3 11,-2 11,-2 12,0 0,25z" />
<path style="fill:#e5e5e5" d="M439,104 l-333,0 0,50 333,0 0,-50z" />
<path style="fill:#e5e5e5" d="M439,129 l0,25 12,-1 12,-1 10,-2 9,-4 8,-3 5,-5 4,-4 1,-5 -1,-5 -4,-5 -5,-4 -8,-4 -9,-3 -10,-2 -12,-2 -12,0 0,25z" />
<path style="fill:#fff" d="M268,318 l9,0 -2,-76 -5,0 -2,76z" />
<ellipse style="fill:#fff" cx="75" cy="128" rx="30" ry="3" />
<path style="fill:#fff" d="M439,125 l-333,0 0,7 333,0 0,-7z" />
<ellipse style="fill:#fff" cx="469" cy="128" rx="30" ry="3" />
<path style="fill:none;stroke:#000;stroke-width:2" d="M439,15 l-333,0 0,227 333,0 0,-227" />
<path style="fill:none;stroke:#000;stroke-width:2" d="M121,318 l303,0 -57,-76 -189,0 -57,76" />

</svg>
