<?xml version="1.0" encoding="utf-8" standalone="no"?><!DOCTYPE svg PUBLIC "-//W3C//DTD SVG 1.1//EN" "http://www.w3.org/Graphics/SVG/1.1/DTD/svg11-flat-20030114.dtd"><svg width="998" height="606" version="1.1" xmlns="http://www.w3.org/2000/svg" xmlns:xlink="http://www.w3.org/1999/xlink">

<path style="fill:#999" d="M970,278 l-942,0 0,49 942,0 0,-49z" />
<path style="fill:#b2b2b2" d="M970,282 l-942,0 0,42 942,0 0,-42z" />
<path style="fill:#ccc" d="M970,288 l-942,0 0,30 942,0 0,-30z" />
<path style="fill:#e5e5e5" d="M970,295 l-942,0 0,17 942,0 0,-17z" />
<path style="fill:#fff" d="M970,301 l-942,0 0,4 942,0 0,-4z" />
<path style="fill:none;stroke:#000;stroke-width:2" d="M970,278 l-942,0 0,49 942,0 0,-49" />
<path style="fill:#999" d="M814,28 l-630,0 0,550 630,0 0,-550z" />
<path style="fill:#b2b2b2" d="M814,67 l-630,0 0,472 630,0 0,-472z" />
<path style="fill:#ccc" d="M814,131 l-630,0 0,344 630,0 0,-344z" />
<path style="fill:#e5e5e5" d="M814,211 l-630,0 0,186 630,0 0,-186z" />
<path style="fill:#fff" d="M814,288 l-630,0 0,30 630,0 0,-30z" />
<path style="fill:none;stroke:#000;stroke-width:2" d="M814,28 l-630,0 0,550 630,0 0,-550" />
<path style="fill:none;stroke:#000;stroke-width:2" d="M239,28 l-55,0 0,550 55,0 0,-550" />
<path style="fill:#999;stroke:#000;stroke-width:2" d="M209,107 l-25,0 0,58 25,0 0,-58z" />
<path style="fill:#999;stroke:#000;stroke-width:2" d="M209,303 l-25,0 0,58 25,0 0,-58z" />
<path style="fill:#7f7f7f;stroke:#000;stroke-width:2" d="M209,499 l-25,0 0,58 25,0 0,-58z" />
<path style="fill:none;stroke:#000;stroke-width:2" d="M759,578 l55,0 0,-550 -55,0 0,550" />
<path style="fill:#999;stroke:#000;stroke-width:2" d="M789,499 l25,0 0,-58 -25,0 0,58z" />
<path style="fill:#b2b2b2;stroke:#000;stroke-width:2" d="M789,303 l25,0 0,-59 -25,0 0,59z" />
<path style="fill:#b2b2b2;stroke:#000;stroke-width:2" d="M789,107 l25,0 0,-59 -25,0 0,59z" />
<path style="fill:#fc0" d="M184,254 l-19,0 0,98 19,0 0,-98z" />
<path style="fill:#d9a600" d="M184,333 l-19,0 0,19 19,0 0,-19z" />
<path style="fill:#ffe500" d="M184,254 l-19,0 0,30 19,0 0,-30z" />
<path style="fill:none;stroke:#000;stroke-width:2" d="M184,254 l-19,0 0,98 19,0 0,-98" />

</svg>
