<?xml version="1.0" encoding="utf-8" standalone="no"?><!DOCTYPE svg PUBLIC "-//W3C//DTD SVG 1.1//EN" "http://www.w3.org/Graphics/SVG/1.1/DTD/svg11-flat-20030114.dtd"><svg width="999" height="553" version="1.1" xmlns="http://www.w3.org/2000/svg" xmlns:xlink="http://www.w3.org/1999/xlink">

<path style="fill:#217f21;stroke:#000;stroke-width:2" d="M419,36 l0,364 416,2 0,-366 -416,0z" />
<path style="fill:#43a143;stroke:#000;stroke-width:2" d="M505,499 l-334,0 0,26 334,0 0,-26z" />
<path style="fill:#43a143;stroke:#000;stroke-width:2" d="M336,28 l-30,0 0,471 30,0 0,-471z" />
<path style="fill:#43a143;stroke:#000;stroke-width:2" d="M179,62 l127,0 0,437 -127,0 0,-437z" />
<path style="fill:#43a143;stroke:#000;stroke-width:2" d="M181,74 l-18,0 0,280 18,0 0,-280z" />
<path style="fill:#43a143;stroke:#000;stroke-width:2" d="M142,114 l21,-12 0,226 -21,-14 0,-200z" />
<path style="fill:#43a143;stroke:#000;stroke-width:2" d="M960,38 l-123,0 0,324 129,0 2,-34 2,-37 0,-38 0,-32 0,-50 -2,-53 -4,-48 -4,-32z" />
<path style="fill:#43a143;stroke:#000;stroke-width:2" d="M419,128 l0,-92 416,0 0,92 -416,0z" />
<path style="fill:#43a143" d="M419,28 l0,372 -83,0 0,-372 83,0z" />
<path style="fill:none;stroke:#000;stroke-width:2" d="M336,28 l83,0 0,372 -83,0 0,-372" />
<path style="fill:none;stroke:#000;stroke-width:2" d="M419,62 l416,0 -416,0" />
<path style="fill:none;stroke:#000;stroke-width:2" d="M419,68 l416,0 -416,0" />
<path style="fill:none;stroke:#000;stroke-width:2" d="M419,106 l416,0 -416,0" />
<path style="fill:none;stroke:#000;stroke-width:2" d="M419,110 l416,0 -416,0" />
<path style="fill:none;stroke:#000;stroke-width:2" d="M419,151 l416,0 -416,0" />
<path style="fill:none;stroke:#000;stroke-width:2" d="M419,153 l416,0 -416,0" />
<path style="fill:none;stroke:#000;stroke-width:2" d="M419,324 l416,0 -416,0" />
<path style="fill:none;stroke:#000;stroke-width:2" d="M419,328 l416,0 -416,0" />
<path style="fill:none;stroke:#000;stroke-width:2" d="M419,366 l416,0 -416,0" />
<path style="fill:none;stroke:#000;stroke-width:2" d="M419,372 l416,0 -416,0" />
<path style="fill:none;stroke:#000;stroke-width:2" d="M419,283 l416,0 -416,0" />
<path style="fill:none;stroke:#000;stroke-width:2" d="M419,282 l416,0 -416,0" />
<path style="fill:none;stroke:#000;stroke-width:2" d="M419,239 l416,0 -416,0" />
<path style="fill:none;stroke:#000;stroke-width:2" d="M419,239 l416,0 -416,0" />
<path style="fill:none;stroke:#000;stroke-width:2" d="M419,197 l416,0 -416,0" />
<path style="fill:none;stroke:#000;stroke-width:2" d="M419,195 l416,0 -416,0" />
<path style="fill:none;stroke:#fff;stroke-width:2" d="M419,116 l416,0 -416,0" />
<path style="fill:none;stroke:#fff;stroke-width:2" d="M419,157 l416,0 -416,0" />
<path style="fill:none;stroke:#fff;stroke-width:2" d="M419,197 l416,0 -416,0" />
<path style="fill:none;stroke:#fff;stroke-width:2" d="M419,76 l416,0" />
<path style="fill:none;stroke:#fff;stroke-width:2" d="M419,237 l416,0 -416,0" />
<path style="fill:none;stroke:#fff;stroke-width:2" d="M419,277 l416,0 -416,0" />
<path style="fill:none;stroke:#fff;stroke-width:2" d="M419,318 l416,0 -416,0" />
<path style="fill:none;stroke:#fff;stroke-width:2" d="M419,358 l416,0" />
<path style="fill:#43a143;stroke:#000;stroke-width:2" d="M767,215 l-119,0 -12,6 -6,14 0,155 6,14 12,6 119,0 14,-6 4,-14 0,-155 -4,-14 -14,-6z" />
<path style="fill:#82e082" d="M960,44 l-123,0 0,38 129,0 -2,-22 -4,-16z" />
<path style="fill:#82e082" d="M179,78 l-16,0 0,20 16,0 0,-20z" />
<path style="fill:#82e082" d="M183,72 l123,0 0,30 -123,0 0,-30z" />
<path style="fill:#82e082" d="M340,34 l74,0 0,42 -74,0 0,-42z" />
<path style="fill:#82e082" d="M334,38 l-26,0 0,34 26,0 0,-34z" />
<path style="fill:#005e00;stroke:#000;stroke-width:2" d="M342,358 l74,0 0,42 -74,0 0,-42z" />
<path style="fill:#005e00;stroke:#000;stroke-width:2" d="M837,38 l121,0 0,-8 -121,0 0,8z" />
<path style="fill:#005e00;stroke:#000;stroke-width:2" d="M966,362 l-129,0 0,48 121,0 6,-28 2,-20z" />
<path style="fill:#005e00;stroke:#000;stroke-width:2" d="M179,324 l-16,0 0,30 16,0 0,-30z" />
<path style="fill:#7f7f7f;stroke:#000;stroke-width:2" d="M306,54 l-16,0 0,8 16,0 0,-8z" />
<path style="fill:#7f7f7f;stroke:#000;stroke-width:2" d="M161,92 l-8,0 0,4 8,0 0,-4z" />
<path style="fill:#7f7f7f;stroke:#000;stroke-width:2" d="M161,304 l-8,0 0,4 8,0 0,-4z" />
<path style="fill:#7f7f7f;stroke:#000;stroke-width:2" d="M306,358 l-16,0 0,8 16,0 0,-8z" />
<path style="fill:#7f7f7f;stroke:#000;stroke-width:2" d="M161,195 l-8,0 0,6 8,0 0,-6z" />
<path style="fill:#7f7f7f;stroke:#000;stroke-width:2" d="M306,209 l-16,0 0,8 16,0 0,-8z" />
<path style="fill:#b2b2b2;stroke:#000;stroke-width:2" d="M141,171 l-113,0 0,78 113,0 0,-78z" />
<path style="fill:#b2b2b2;stroke:#000;stroke-width:2" d="M306,54 l-16,0 0,-14 16,0 0,14z" />
<path style="fill:#b2b2b2;stroke:#000;stroke-width:2" d="M161,92 l-8,0 0,-8 8,0 0,8z" />
<path style="fill:#b2b2b2;stroke:#000;stroke-width:2" d="M161,304 l-8,0 0,-8 8,0 0,8z" />
<path style="fill:#b2b2b2;stroke:#000;stroke-width:2" d="M306,358 l-16,0 0,-14 16,0 0,14z" />
<path style="fill:#b2b2b2;stroke:#000;stroke-width:2" d="M161,195 l-8,0 0,-8 8,0 0,8z" />
<path style="fill:#b2b2b2;stroke:#000;stroke-width:2" d="M306,209 l-16,0 0,-14 16,0 0,14z" />
<path style="fill:#f0f0f0" d="M142,175 l-112,0 0,60 112,0 0,-60z" />
<path style="fill:#f0f0f0" d="M161,80 l-8,0 0,4 8,0 0,-4z" />
<path style="fill:#f0f0f0" d="M161,183 l-8,0 0,4 8,0 0,-4z" />
<path style="fill:#f0f0f0" d="M306,187 l-16,0 0,8 16,0 0,-8z" />
<path style="fill:#f0f0f0" d="M161,291 l-8,0 0,5 8,0 0,-5z" />
<path style="fill:#f0f0f0" d="M306,338 l-16,0 0,6 16,0 0,-6z" />
<path style="fill:#f0f0f0" d="M306,34 l-16,0 0,6 16,0 0,-6z" />
<path style="fill:#fff" d="M142,179 l-112,0 0,12 112,0 0,-12z" />

</svg>
