<?xml version="1.0" encoding="utf-8" standalone="no"?><!DOCTYPE svg PUBLIC "-//W3C//DTD SVG 1.1//EN" "http://www.w3.org/Graphics/SVG/1.1/DTD/svg11-flat-20030114.dtd"><svg width="999" height="332" version="1.1" xmlns="http://www.w3.org/2000/svg" xmlns:xlink="http://www.w3.org/1999/xlink">

<path style="fill:#ccc;stroke:#000;stroke-width:2" d="M833,48 l-658,0 0,235 658,0 0,-235z" />
<path style="fill:#e5e5e5;stroke:#000;stroke-width:2" d="M175,28 l-29,0 0,276 29,0 0,-276z" />
<path style="fill:#999;stroke:#000;stroke-width:2" d="M833,274 l137,-10 0,-197 -137,-9 0,216z" />
<path style="fill:#000;stroke:#000;stroke-width:2" d="M833,254 l49,-10 0,-49 -49,-10 0,69z" />
<path style="fill:#000;stroke:#000;stroke-width:2" d="M833,146 l49,-10 0,-49 -49,-10 0,69z" />
<path style="fill:#000;stroke:#000;stroke-width:2" d="M175,303 l658,0 0,-20 -658,0 0,20z" />
<path style="fill:#e5e5e5;stroke:#000;stroke-width:2" d="M146,156 l-118,0 0,19 118,0 0,-19z" />
<path style="fill:#fff" d="M813,67 l-618,0 0,20 618,0 0,-20z" />
<path style="fill:#fff" d="M170,48 l-19,0 0,19 19,0 0,-19z" />
<path style="fill:#7f7f7f" d="M813,229 l-618,0 0,40 618,0 0,-40z" />
<path style="fill:#7f7f7f" d="M170,249 l-19,0 0,40 19,0 0,-40z" />
<path style="fill:#7f7f7f" d="M141,170 l-108,0 0,5 108,0 0,-5z" />
<path style="fill:#fff" d="M141,161 l-108,0 0,-5 108,0 0,5z" />
<path style="fill:none;stroke:#000;stroke-width:2" d="M146,156 l-118,0" />

</svg>
