<?xml version="1.0" encoding="utf-8" standalone="no"?><!DOCTYPE svg PUBLIC "-//W3C//DTD SVG 1.1//EN" "http://www.w3.org/Graphics/SVG/1.1/DTD/svg11-flat-20030114.dtd"><svg width="999" height="487" version="1.1" xmlns="http://www.w3.org/2000/svg" xmlns:xlink="http://www.w3.org/1999/xlink">

<path style="fill:#000;stroke:#000;stroke-width:2" d="M362,435 l418,0 0,23 -418,0 0,-23z" />
<path style="fill:#7f7f7f;stroke:#000;stroke-width:2" d="M310,51 l-120,0 0,374 120,0 0,-374z" />
<path style="fill:#919191" d="M310,90 l-23,0 -8,0 -7,0 -53,0 -30,0 0,55 0,9 0,10 0,157 0,37 0,18 0,10 8,0 30,-1 52,0 23,1 8,0 0,-10 0,-46 0,-37 0,-139 0,-36 0,-28z" />
<path style="fill:#a6a6a6" d="M310,129 l-23,0 -8,0 -7,0 -53,0 -15,0 -15,0 0,41 0,7 0,6 0,116 0,13 0,27 0,7 8,0 15,0 15,0 52,0 15,0 8,0 8,0 0,-7 0,-34 -1,-13 0,-115 1,-14 0,-34z" />
<path style="fill:#b8b8b8" d="M310,168 l-23,0 -8,0 -7,0 -53,0 -15,0 -15,0 0,26 0,9 0,9 0,60 0,18 0,9 0,8 7,0 16,0 14,0 53,0 15,0 8,0 8,0 0,-8 0,-18 -1,-17 0,-61 1,-18 0,-17z" />
<path style="fill:#ccc" d="M310,207 l-121,0 0,61 121,0 0,-61z" />
<path style="fill:#999" d="M28,213 l147,0 0,50 -147,0 0,-50z" />
<path style="fill:#ccc" d="M28,228 l146,0 0,21 -146,0 0,-21z" />
<path style="fill:#7f7f7f;stroke:#000;stroke-width:2" d="M911,43 l-603,0 0,392 603,0 0,-392z" />
<path style="fill:none;stroke:#000;stroke-width:2" d="M28,213 l147,0 0,50 -147,0 0,-50" />
<path style="fill:#7f7f7f;stroke:#000;stroke-width:2" d="M802,441 l2,-3 1,-2 1,-3 1,-3 1,-3 1,-3 0,-4 1,-3 -2,0 -2,0 -2,0 -2,0 -1,0 -2,0 -1,0 -1,0 0,3 0,4 0,3 0,3 1,4 1,2 1,3 2,2z" />
<ellipse style="fill:#7f7f7f;stroke:#000;stroke-width:2" cx="802" cy="38" rx="5" ry="10" />
<path style="fill:#e5e5e5;stroke:#000;stroke-width:2" d="M352,30 l478,0 10,2 2,2 -1,24 -1,1 -3,3 -7,1 -499,0 -2,1 -8,0 -1,-2 0,-2 2,-3 20,-23 0,-1 10,-3z" />
<path style="fill:#dbdbdb;stroke:#000;stroke-width:2" d="M350,67 l15,0 16,0 15,0 442,0 3,1 4,3 1,2 0,3 -1,20 -4,2 -3,1 -16,0 -494,0 -3,-1 -4,-2 -1,-3 1,-2 13,-20 16,-4z" />
<path style="fill:#d1d1d1;stroke:#000;stroke-width:2" d="M348,107 l15,0 16,0 15,0 446,0 5,1 2,2 1,3 0,2 -1,18 -4,3 -3,0 -16,0 -496,0 -3,0 -4,-3 -1,-2 2,-2 21,-19 5,-3z" />
<path style="fill:#c7c7c7;stroke:#000;stroke-width:2" d="M352,148 l15,0 15,0 16,0 444,0 7,3 1,1 0,2 0,14 -1,1 -4,3 -3,0 -16,0 -498,0 -7,-3 -1,-1 1,-3 21,-15 10,-2z" />
<path style="fill:#bdbdbd;stroke:#000;stroke-width:2" d="M352,188 l15,0 16,0 15,0 444,0 6,1 1,1 1,2 0,1 -1,14 -1,1 -2,1 -4,1 -16,0 -498,0 -7,-3 -1,-1 2,-2 22,-14 8,-2z" />
<path style="fill:#ccc;stroke:#000;stroke-width:2" d="M498,208 l81,0 79,0 22,83 -22,134 -79,0 -81,0 -26,-130 26,-87z" />
<path style="fill:#f0f0f0;stroke:#000;stroke-width:2" d="M504,285 l10,3 3,1 3,5 1,11 -4,8 -10,4 -3,0 0,95 144,0 0,-95 -10,-3 -6,-7 -1,-9 1,-4 3,-5 9,-3 4,-1 0,-65 -144,0 0,65z" />
<circle style="fill:#fff;stroke:#000;stroke-width:2" cx="505" cy="301" r="7" />
<circle style="fill:#fff;stroke:#000;stroke-width:2" cx="643" cy="301" r="7" />
<path style="fill:none;stroke:#000;stroke-width:2" d="M500,297 l8,8" />
<path style="fill:none;stroke:#000;stroke-width:2" d="M638,297 l10,8" />
<path style="fill:#fff" d="M506,234 l142,0 0,14 -142,0 0,-14z" />
<path style="fill:#7f7f7f" d="M888,445 l-83,0 0,-412 83,0 32,5 26,16 18,25 6,31 0,253 -6,32 -18,26 -26,17 -32,7z" />
<path style="fill:#919191" d="M888,401 l-6,0 -5,0 -5,0 -31,-1 -31,1 -5,0 0,-61 0,-10 0,-11 0,-172 0,-30 0,-41 31,0 5,0 5,0 5,0 31,0 30,3 28,10 20,18 10,24 0,6 0,12 0,38 0,99 0,37 -4,32 -15,22 -24,16 -31,7 -8,1z" />
<path style="fill:#a6a6a6" d="M888,357 l-6,0 -5,0 -5,0 -10,0 -37,0 -10,0 -10,0 0,-44 0,-8 0,-7 0,-126 0,-15 0,-37 15,0 5,0 5,0 37,0 10,0 11,0 16,1 16,2 13,4 13,5 10,7 7,8 5,8 2,5 0,4 0,10 0,17 0,10 0,72 0,9 0,28 -2,9 -5,9 -7,8 -10,7 -13,6 -13,5 -16,2 -16,1z" />
<path style="fill:#b8b8b8" d="M888,313 l-6,0 -5,0 -5,0 -10,0 -37,0 -10,0 -10,0 0,-28 0,-9 0,-9 0,-66 0,-9 0,-28 15,0 5,-1 5,0 37,0 10,1 19,0 16,1 15,2 13,3 11,4 9,4 8,8 2,3 0,3 0,5 0,12 0,11 0,40 0,12 0,11 -4,9 -10,8 -10,5 -13,3 -13,3 -16,2 -16,0z" />
<path style="fill:#ccc" d="M888,270 l-83,0 0,-62 91,0 16,0 15,1 13,1 11,2 9,2 9,3 1,1 0,1 0,38 0,2 -10,4 -9,2 -11,2 -13,1 -15,1 -16,1 -8,0z" />
<path style="fill:none;stroke:#000;stroke-width:2" d="M888,445 l-83,0 0,-412 83,0 32,5 26,16 18,25 6,31 0,253 -6,32 -18,26 -26,17 -32,7" />
<path style="fill:#7f7f7f;stroke:#000;stroke-width:2" d="M175,81 l15,0 0,314 -15,0 0,-314z" />

</svg>
