<?xml version="1.0" encoding="utf-8" standalone="no"?><!DOCTYPE svg PUBLIC "-//W3C//DTD SVG 1.1//EN" "http://www.w3.org/Graphics/SVG/1.1/DTD/svg11-flat-20030114.dtd"><svg width="642" height="461" version="1.1" xmlns="http://www.w3.org/2000/svg" xmlns:xlink="http://www.w3.org/1999/xlink">

<path style="fill:#808080" d="M89,337 l-12,-15 -11,-17 -9,-18 -8,-20 -6,-21 -4,-22 -3,-23 -1,-23 1,-23 3,-24 4,-22 7,-21 8,-20 9,-19 11,-16 12,-15 -1,319z" />
<path style="fill:#808080" d="M571,337 l12,-15 11,-17 9,-18 7,-20 6,-21 4,-22 3,-23 1,-23 -1,-23 -3,-24 -4,-22 -7,-21 -7,-20 -10,-19 -10,-16 -12,-15 1,319z" />
<path style="fill:#808080" d="M572,18 l-484,0 0,320 484,0 0,-320z" />
<path style="fill:none;stroke:#000;stroke-width:2" d="M89,337 l-12,-15 -11,-17 -9,-18 -8,-20 -6,-21 -4,-22 -3,-23 -1,-23 0,-12 1,-11 1,-12 2,-12 2,-11 2,-11 3,-11 4,-10 4,-10 4,-10 4,-10 5,-9 5,-8 6,-8 6,-8 6,-7" />
<path style="fill:none;stroke:#000;stroke-width:2" d="M571,337 l12,-15 11,-17 9,-18 7,-20 6,-21 4,-22 3,-23 1,-23 0,-12 -1,-11 -1,-12 -2,-12 -2,-11 -2,-11 -3,-11 -4,-10 -3,-10 -4,-10 -5,-10 -5,-9 -5,-8 -5,-8 -6,-8 -6,-7" />
<path style="fill:none;stroke:#000;stroke-width:2" d="M572,18 l-484,0 0,320 484,0 0,-320" />
<path style="fill:#808080;stroke:#000;stroke-width:2" d="M542,443 l-30,-105 -364,0 -30,105 424,0z" />
<path style="fill:none;stroke:#000;stroke-width:2" d="M18,160 l0,35" />
<path style="fill:none;stroke:#000;stroke-width:2" d="M18,177 l18,0" />

</svg>
