<?xml version="1.0" encoding="utf-8" standalone="no"?><!DOCTYPE svg PUBLIC "-//W3C//DTD SVG 1.1//EN" "http://www.w3.org/Graphics/SVG/1.1/DTD/svg11-flat-20030114.dtd"><svg width="999" height="501" version="1.1" xmlns="http://www.w3.org/2000/svg" xmlns:xlink="http://www.w3.org/1999/xlink">

<path style="fill:#4c7f7f" d="M28,222 l247,0 0,49 -247,0 0,-49z" />
<path style="fill:#699" d="M28,226 l247,0 0,41 -247,0 0,-41z" />
<path style="fill:#7fb2b2" d="M28,235 l247,0 0,23 -247,0 0,-23z" />
<path style="fill:#9cc" d="M28,243 l247,0 0,5 -247,0 0,-5z" />
<path style="fill:none;stroke:#000;stroke-width:2" d="M28,222 l247,0 0,49 -247,0 0,-49" />
<path style="fill:#4c7f7f" d="M211,197 l32,0 0,97 -32,0 0,-97z" />
<path style="fill:#699" d="M211,207 l32,0 0,79 -32,0 0,-79z" />
<path style="fill:#7fb2b2" d="M211,224 l32,0 0,45 -32,0 0,-45z" />
<path style="fill:#9cc" d="M211,239 l32,0 0,13 -32,0 0,-13z" />
<path style="fill:none;stroke:#000;stroke-width:2" d="M211,197 l32,0 0,97 -32,0 0,-97" />
<path style="fill:#4c7f7f" d="M923,463 l-473,0 -34,-30 0,-371 34,-32 7,0 8,0 458,0 24,12 16,22 7,22 0,6 0,11 0,298 -6,29 -16,22 -21,11 -4,0z" />
<path style="fill:#699" d="M923,424 l-473,2 -34,-33 0,-301 34,-23 7,0 8,0 458,0 24,10 18,23 5,13 0,5 0,10 0,243 -9,28 -21,19 -17,4z" />
<path style="fill:#7fb2b2" d="M923,371 l-473,0 -34,-23 0,-209 34,-15 7,0 8,0 458,0 28,8 19,23 0,3 0,6 0,171 -12,23 -22,11 -9,2 -4,0z" />
<path style="fill:#9cc" d="M923,309 l-473,0 -34,-15 0,-95 34,-15 7,0 8,0 458,0 28,5 19,12 0,2 0,6 0,83 0,1 -22,12 -21,3 -4,1z" />
<path style="fill:none;stroke:#000;stroke-width:2" d="M923,463 l-473,0 -34,-30 0,-371 34,-32 7,0 8,0 458,0 24,12 16,22 7,22 0,6 0,11 0,298 -6,29 -16,22 -21,11 -4,0" />
<ellipse style="fill:#4c7f7f;stroke:#000;stroke-width:2" cx="410" cy="247" rx="188" ry="206" />
<ellipse style="fill:#699" cx="410" cy="246" rx="188" ry="166" />
<ellipse style="fill:#7fb2b2" cx="410" cy="246" rx="188" ry="96" />
<ellipse style="fill:#9cc" cx="410" cy="247" rx="188" ry="27" />
<path style="fill:#194c4c;stroke:#000;stroke-width:2" d="M835,35 l-425,0 0,385 425,0 0,-385z" />
<path style="fill:#366;stroke:#000;stroke-width:2" d="M835,412 l-425,0 0,55 425,0 0,-55z" />
<path style="fill:#7fb2b2;stroke:#000;stroke-width:2" d="M835,365 l-449,0 0,13 449,0 0,-13z" />
<path style="fill:#7fb2b2;stroke:#000;stroke-width:2" d="M835,328 l-449,0 0,13 449,0 0,-13z" />
<path style="fill:#7fb2b2;stroke:#000;stroke-width:2" d="M835,290 l-449,0 0,13 449,0 0,-13z" />
<path style="fill:#9cc;stroke:#000;stroke-width:2" d="M835,252 l-449,0 0,13 449,0 0,-13z" />
<path style="fill:#9cc;stroke:#000;stroke-width:2" d="M835,214 l-449,0 0,14 449,0 0,-14z" />
<path style="fill:#9cc;stroke:#000;stroke-width:2" d="M835,177 l-449,0 0,13 449,0 0,-13z" />
<path style="fill:#9cc;stroke:#000;stroke-width:2" d="M835,139 l-449,0 0,13 449,0 0,-13z" />
<path style="fill:#9cc;stroke:#000;stroke-width:2" d="M835,101 l-449,0 0,14 449,0 0,-14z" />
<path style="fill:#9cc;stroke:#000;stroke-width:2" d="M835,64 l-449,0 0,13 449,0 0,-13z" />
<path style="fill:#9cc;stroke:#000;stroke-width:2" d="M835,28 l-449,0 0,13 449,0 0,-13z" />
<path style="fill:#7fb2b2;stroke:#000;stroke-width:2" d="M835,403 l-449,0 0,13 449,0 0,-13z" />
<path style="fill:#699;stroke:#000;stroke-width:2" d="M772,473 l-222,0 0,-310 222,0 0,310z" />
<path style="fill:none;stroke:#fff;stroke-width:2" d="M748,454 l0,-266 -174,0" />

</svg>
