<?xml version="1.0" encoding="utf-8" standalone="no"?><!DOCTYPE svg PUBLIC "-//W3C//DTD SVG 1.1//EN" "http://www.w3.org/Graphics/SVG/1.1/DTD/svg11-flat-20030114.dtd"><svg width="999" height="352" version="1.1" xmlns="http://www.w3.org/2000/svg" xmlns:xlink="http://www.w3.org/1999/xlink">

<path style="fill:none;stroke:#000;stroke-width:2" d="M831,324 l0,-296" />
<path style="fill:#7f7f7f;stroke:#000;stroke-width:2" d="M970,104 l-18,0 0,139 18,0 0,-139z" />
<path style="fill:#7f7f7f;stroke:#000;stroke-width:2" d="M952,153 l-27,0 0,50 27,0 0,-50z" />
<path style="fill:#7f7f7f;stroke:#000;stroke-width:2" d="M925,162 l-62,0 0,32 62,0 0,-32z" />
<path style="fill:#7f7f7f;stroke:#000;stroke-width:2" d="M829,324 l-321,0 0,-296 320,0 25,17 12,26 9,34 4,27 2,29 0,15 -1,30 -3,27 -8,37 -11,29 -18,22 -10,3 -1,0 1,0z" />
<path style="fill:#7f7f7f;stroke:#000;stroke-width:2" d="M508,64 l-63,0 0,233 63,0 0,-233z" />
<path style="fill:#7f7f7f;stroke:#000;stroke-width:2" d="M445,37 l-18,0 0,287 18,0 0,-287z" />
<path style="fill:#7f7f7f;stroke:#000;stroke-width:2" d="M454,86 l-49,0 0,171 49,0 0,-171z" />
<path style="fill:#7f7f7f;stroke:#000;stroke-width:2" d="M405,247 l-41,-26 0,-90 41,-32 0,148z" />
<path style="fill:#000;stroke:#000;stroke-width:2" d="M364,140 l-336,0 0,45 336,0 0,-45z" />
<path style="fill:#7f7f7f;stroke:#000;stroke-width:2" d="M364,185 l-53,0 0,26 53,0 0,-26z" />
<path style="fill:#7f7f7f;stroke:#000;stroke-width:2" d="M364,140 l-53,0 0,-18 53,0 0,18z" />
<path style="fill:#7f7f7f;stroke:#000;stroke-width:2" d="M351,140 l-323,0 0,45 323,0 0,-45z" />

</svg>
