<?xml version="1.0" encoding="utf-8" standalone="no"?><!DOCTYPE svg PUBLIC "-//W3C//DTD SVG 1.1//EN" "http://www.w3.org/Graphics/SVG/1.1/DTD/svg11-flat-20030114.dtd"><svg width="999" height="665" version="1.1" xmlns="http://www.w3.org/2000/svg" xmlns:xlink="http://www.w3.org/1999/xlink">

<path style="fill:#7f7f7f;stroke:#000;stroke-width:2" d="M316,614 l-20,-8 -8,-17 0,-422 8,-18 20,-8 551,0 15,235 -15,238 -551,0z" />
<path style="fill:#7f7f7f;stroke:#000;stroke-width:2" d="M288,445 l0,-134 -33,0 0,134 33,0z" />
<path style="fill:#7f7f7f;stroke:#000;stroke-width:2" d="M28,414 l0,-73 224,0 0,73 -224,0z" />
<path style="fill:#b2b2b2" d="M28,404 l0,-43 224,0 0,43 -224,0z" />
<path style="fill:#f0f0f0" d="M28,351 l0,10 224,0 0,-10 -224,0z" />
<path style="fill:#b2b2b2;fill-rule:evenodd" d="M622,111 l0,53 -16,0 0,-25 0,-28 -22,-15 -10,-25 10,-31 30,-12 30,12 13,31 -10,25 -25,15z M614,45 l18,5 10,21 -10,17 -18,5 -18,-5 -7,-17 7,-21 18,-5z " />
<path style="fill:none;stroke:#000;stroke-width:2" d="M622,111 l0,53 -16,0 0,-25 0,-28 -22,-15 -10,-25 10,-31 30,-12 30,12 13,31 -10,25 -25,15" />
<path style="fill:none;stroke:#000;stroke-width:2" d="M614,45 l18,5 10,21 -10,17 -18,5 -18,-5 -7,-17 7,-21 18,-5" />
<path style="fill:#e5e5e5;stroke:#000;stroke-width:2" d="M867,126 l2,43 -553,0 -13,-7 23,-31 12,-5 529,0z" />
<path style="fill:#e5e5e5;stroke:#000;stroke-width:2" d="M869,174 l3,41 -564,0 -5,-10 13,-21 25,-10 528,0z" />
<path style="fill:#d1d1d1;stroke:#000;stroke-width:2" d="M872,225 l2,30 -566,0 -5,-5 35,-25 534,0z" />
<path style="fill:#d1d1d1;stroke:#000;stroke-width:2" d="M874,273 l3,30 -569,0 -5,-5 38,-25 533,0z" />
<path style="fill:#d1d1d1;stroke:#000;stroke-width:2" d="M879,318 l0,26 -568,0 -8,-6 38,-20 538,0z" />
<path style="fill:#b2b2b2;stroke:#000;stroke-width:2" d="M882,387 l0,-11 0,-10 -544,0 -37,21 10,0 571,0z" />
<path style="fill:#b2b2b2;stroke:#000;stroke-width:2" d="M879,412 l-2,25 -569,0 -5,-5 38,-20 538,0z" />
<path style="fill:#b2b2b2;stroke:#000;stroke-width:2" d="M877,452 l-3,33 -563,0 -3,-5 33,-28 536,0z" />
<path style="fill:#b2b2b2;stroke:#000;stroke-width:2" d="M874,500 l-2,36 -561,0 -8,-8 38,-28 533,0z" />
<path style="fill:#b2b2b2;stroke:#000;stroke-width:2" d="M872,541 l-3,40 -558,0 -8,-7 38,-33 531,0z" />
<path style="fill:#7f7f7f" d="M867,114 l33,0 25,10 23,25 5,7 -86,0 0,-42z" />
<path style="fill:#7f7f7f" d="M963,566 l-15,35 -23,26 -25,10 -33,0 0,-71 96,0z" />
<path style="fill:#b2b2b2" d="M953,156 l12,31 0,13 -96,0 -2,-44 86,0z" />
<path style="fill:#b2b2b2" d="M970,480 l0,35 -5,49 -2,2 -96,0 2,-86 101,0z" />
<path style="fill:#e5e5e5" d="M965,200 l5,32 0,21 -101,0 0,-53 96,0z" />
<path style="fill:#e5e5e5" d="M970,369 l0,-56 -98,0 2,56 96,0z" />
<path style="fill:#f0f0f0" d="M970,313 l0,-60 -101,0 3,60 98,0z" />
<path style="fill:#e0e0e0" d="M970,369 l0,7 0,53 -98,0 2,-53 0,-7 96,0z" />
<path style="fill:#ccc" d="M970,480 l0,-51 -98,0 -3,51 101,0z" />
<path style="fill:none;stroke:#000;stroke-width:2" d="M864,114 l36,0 25,10 23,25 15,38 7,48 0,141 0,142 -7,46 -15,37 -23,26 -25,10 -36,0 10,-261 -10,-262" />
<path style="fill:#000;stroke:#000;stroke-width:2" d="M705,346 l-33,0 -33,0 -33,0 -32,0 -18,53 -5,53 5,53 18,53 32,0 33,0 33,0 33,0 8,-53 5,-53 -5,-53 -8,-53z" />
<path style="fill:#f0f0f0;stroke:#000;stroke-width:2" d="M692,354 l-32,0 -33,0 -33,0 -33,0 -18,53 -7,53 7,53 18,53 33,0 33,0 33,0 32,0 8,-53 2,-53 -2,-53 -8,-53z" />

</svg>
