<?xml version="1.0" encoding="utf-8" standalone="no"?><!DOCTYPE svg PUBLIC "-//W3C//DTD SVG 1.1//EN" "http://www.w3.org/Graphics/SVG/1.1/DTD/svg11-flat-20030114.dtd"><svg width="999" height="398" version="1.1" xmlns="http://www.w3.org/2000/svg" xmlns:xlink="http://www.w3.org/1999/xlink">

<path style="fill:#ccc;stroke:#000;stroke-width:2" d="M856,313 l0,-57 -57,0 0,57 57,0z" />
<path style="fill:#ccc;stroke:#000;stroke-width:2" d="M342,313 l0,-57 -57,0 0,57 57,0z" />
<path style="fill:#ccc;stroke:#000;stroke-width:2" d="M971,313 l-801,0 0,57 801,0 0,-57z" />
<path style="fill:#ccc;stroke:#000;stroke-width:2" d="M199,113 l-172,0 0,57 172,0 0,-57z" />
<path style="fill:#ccc;stroke:#000;stroke-width:2" d="M228,256 l685,0 28,-14 16,-28 9,-28 4,-32 1,-12 -1,-12 -4,-33 -9,-28 -12,-22 -20,-17 -6,-2 -6,-1 -685,0 -28,14 -16,28 -9,28 -4,33 -1,12 1,12 4,32 9,28 12,22 20,18 6,2 6,0z" />
<path style="fill:none;stroke:#000;stroke-width:2" d="M913,256 l0,-229" />
<path style="fill:none;stroke:#000;stroke-width:2" d="M228,256 l0,-229" />
<path style="fill:none;stroke:#000;stroke-width:2" d="M228,56 l685,0" />
<path style="fill:none;stroke:#000;stroke-width:2" d="M913,85 l-685,0" />
<path style="fill:none;stroke:#000;stroke-width:2" d="M228,113 l685,0" />
<path style="fill:none;stroke:#000;stroke-width:2" d="M913,142 l-685,0" />
<path style="fill:none;stroke:#000;stroke-width:2" d="M228,170 l685,0" />
<path style="fill:none;stroke:#000;stroke-width:2" d="M913,199 l-685,0" />
<path style="fill:none;stroke:#000;stroke-width:2" d="M228,227 l685,0" />
<path style="fill:#ccc" d="M685,70 l-229,0 0,115 229,0 0,-115z" />
<path style="fill:#ccc;stroke:#000;stroke-width:2" d="M657,70 l-172,0 0,115 172,0 0,-115z" />

</svg>
