<?xml version="1.0" encoding="utf-8" standalone="no"?><!DOCTYPE svg PUBLIC "-//W3C//DTD SVG 1.1//EN" "http://www.w3.org/Graphics/SVG/1.1/DTD/svg11-flat-20030114.dtd"><svg width="861" height="610" version="1.1" xmlns="http://www.w3.org/2000/svg" xmlns:xlink="http://www.w3.org/1999/xlink">

<path style="fill:#000" d="M71,149 l-47,0 0,250 47,0 0,-250z" />
<path style="fill:#000" d="M648,586 l0,-62 -436,0 0,62 436,0z" />
<path style="fill:#7f7f7f" d="M149,524 l563,0 125,-31 0,-438 -125,-31 -563,0 0,47 -78,47 0,312 78,47 0,47z" />
<path style="fill:#999" d="M148,472 l563,0 125,-24 0,-349 -125,-25 -563,0 0,37 -78,38 0,248 78,38 0,37z" />
<path style="fill:#b2b2b2" d="M148,422 l563,0 125,-19 0,-260 -125,-18 -563,0 0,28 -78,28 0,185 78,28 0,28z" />
<path style="fill:#ccc" d="M148,371 l563,0 125,-12 0,-171 -125,-13 -563,0 0,19 -78,18 0,122 78,18 0,19z" />
<path style="fill:#e5e5e5" d="M149,321 l563,0 125,-6 0,-82 -125,-6 -563,0 0,9 -78,9 0,58 78,9 0,9z" />
<path style="fill:none;stroke:#000;stroke-width:2" d="M149,524 l563,0 125,-31 0,-438 -125,-31 -563,0 0,47 -78,47 0,312 78,47 0,47" />
<path style="fill:#b2b2b2;stroke:#000;stroke-width:2" d="M618,586 l0,-250 -219,0 0,250 219,0z" />
<path style="fill:none;stroke:#fff;stroke-width:2" d="M587,555 l0,-187 -156,0" />
<path style="fill:#000" d="M603,555 l-16,0 0,16 16,0 0,-16z" />
<path style="fill:#000" d="M431,555 l-16,0 0,16 16,0 0,-16z" />
<path style="fill:#000" d="M431,352 l-16,0 0,16 16,0 0,-16z" />
<path style="fill:#000" d="M603,352 l-16,0 0,16 16,0 0,-16z" />
<path style="fill:none;stroke:#000;stroke-width:2" d="M149,477 l0,-406" />
<path style="fill:#4c4c4c" d="M649,24 l-468,0 0,266 468,0 0,-266z" />
<path style="fill:#ccc" d="M649,211 l-484,0 0,16 484,0 0,-16z" />
<path style="fill:#ccc" d="M649,258 l-484,0 0,16 484,0 0,-16z" />
<path style="fill:#b2b2b2" d="M649,118 l-484,0 0,16 484,0 0,-16z" />
<path style="fill:#b2b2b2" d="M649,165 l-484,0 0,16 484,0 0,-16z" />
<path style="fill:#999" d="M649,86 l-484,0 0,16 484,0 0,-16z" />
<path style="fill:#999" d="M649,55 l-484,0 0,16 484,0 0,-16z" />
<path style="fill:#999" d="M649,24 l-484,0 0,16 484,0 0,-16z" />

</svg>
