<?xml version="1.0" encoding="utf-8" standalone="no"?><!DOCTYPE svg PUBLIC "-//W3C//DTD SVG 1.1//EN" "http://www.w3.org/Graphics/SVG/1.1/DTD/svg11-flat-20030114.dtd"><svg width="998" height="537" version="1.1" xmlns="http://www.w3.org/2000/svg" xmlns:xlink="http://www.w3.org/1999/xlink">

<path style="fill:#666;stroke:#000;stroke-width:2" d="M175,37 l-10,0 0,451 10,0 0,-451z" />
<path style="fill:#666" d="M852,37 l3,0 4,0 4,0 32,1 29,4 26,8 19,20 1,3 0,4 0,12 0,380 -13,23 -27,11 -28,4 -30,1 -4,0 -4,0 -601,0 0,-20 -29,-1 -30,-3 -19,-12 -1,-3 0,-12 0,-380 25,-19 32,-2 22,0 0,-19 589,0z" />
<path style="fill:#7f7f7f" d="M852,67 l3,0 4,0 4,0 32,1 29,3 26,7 20,20 0,3 0,11 0,332 -16,22 -28,8 -29,3 -25,1 -4,0 -4,0 -601,0 0,-17 -29,0 -30,-3 -19,-11 -1,-3 0,-10 0,-333 25,-15 32,-2 22,0 0,-17 589,0z" />
<path style="fill:#999" d="M852,150 l3,0 4,0 4,0 32,1 29,2 30,5 16,11 0,2 0,6 0,198 -23,14 -31,5 -29,1 -10,0 -5,0 -4,0 -605,0 0,-9 -29,0 -30,-2 -19,-7 -1,-2 0,-7 0,-197 1,-2 24,-8 32,-1 22,0 0,-10 589,0z" />
<path style="fill:#b2b2b2" d="M852,228 l3,0 4,0 4,0 32,0 29,1 30,1 16,4 0,1 0,5 0,70 0,1 -27,4 -32,1 -24,0 -5,0 -5,0 -614,0 0,-2 -29,0 -30,0 -19,-3 -1,-1 0,-4 0,-71 1,-1 30,-2 34,-1 14,0 0,-3 589,0z" />
<path style="fill:none;stroke:#000;stroke-width:2" d="M852,37 l3,0 4,0 4,0 32,1 29,4 26,8 19,20 1,3 0,4 0,12 0,380 -13,23 -27,11 -28,4 -30,1 -4,0 -4,0 -601,0 0,-20 -29,-1 -30,-3 -19,-12 -1,-3 0,-12 0,-380 25,-19 32,-2 22,0 0,-19 589,0" />
<path style="fill:none;stroke:#000;stroke-width:2" d="M852,508 l0,-471" />
<path style="fill:none;stroke:#000;stroke-width:2" d="M263,56 l0,432" />
<path style="fill:#7f7f7f" d="M184,252 l-156,0 0,40 156,0 0,-40z" />
<path style="fill:#b2b2b2" d="M184,260 l-156,0 0,26 156,0 0,-26z" />
<path style="fill:#fff" d="M184,267 l-156,0 0,11 156,0 0,-11z" />
<path style="fill:none;stroke:#000;stroke-width:2" d="M184,252 l-156,0 0,40 156,0 0,-40" />
<path style="fill:#4c4c4c;stroke:#000;stroke-width:2" d="M852,96 l-589,0 0,18 589,0 0,-18z" />
<path style="fill:#4c4c4c;stroke:#000;stroke-width:2" d="M852,135 l-589,0 0,19 589,0 0,-19z" />
<path style="fill:#4c4c4c;stroke:#000;stroke-width:2" d="M852,175 l-589,0 0,19 589,0 0,-19z" />
<path style="fill:#4c4c4c;stroke:#000;stroke-width:2" d="M852,214 l-589,0 0,19 589,0 0,-19z" />
<path style="fill:#4c4c4c;stroke:#000;stroke-width:2" d="M852,252 l-589,0 0,21 589,0 0,-21z" />
<path style="fill:#4c4c4c;stroke:#000;stroke-width:2" d="M852,292 l-589,0 0,20 589,0 0,-20z" />
<path style="fill:#4c4c4c;stroke:#000;stroke-width:2" d="M852,331 l-589,0 0,19 589,0 0,-19z" />
<path style="fill:#4c4c4c;stroke:#000;stroke-width:2" d="M852,371 l-589,0 0,19 589,0 0,-19z" />
<path style="fill:#4c4c4c;stroke:#000;stroke-width:2" d="M852,410 l-589,0 0,19 589,0 0,-19z" />
<path style="fill:#999;stroke:#000;stroke-width:2" d="M578,233 l-296,0 0,275 296,0 0,-275z" />
<path style="fill:#b2b2b2;stroke:#000;stroke-width:2" d="M548,263 l-236,0 0,215 236,0 0,-215z" />
<path style="fill:none;stroke:#fff;stroke-width:2" d="M548,478 l0,-215 -236,0" />
<path style="fill:#b2b2b2;stroke:#000;stroke-width:2" d="M814,96 l-60,0 0,-59 60,0 0,59z" />
<circle style="fill:#333;stroke:#000;stroke-width:2" cx="784" cy="66" r="19" />
<path style="fill:#999;stroke:#000;stroke-width:2" d="M735,28 l-453,0 0,49 453,0 0,-49z" />
<path style="fill:#4c4c4c;stroke:#000;stroke-width:2" d="M852,401 l30,-11 0,-38 -30,-21 0,70z" />

</svg>
