<?xml version="1.0" encoding="utf-8" standalone="no"?><!DOCTYPE svg PUBLIC "-//W3C//DTD SVG 1.1//EN" "http://www.w3.org/Graphics/SVG/1.1/DTD/svg11-flat-20030114.dtd"><svg width="999" height="416" version="1.1" xmlns="http://www.w3.org/2000/svg" xmlns:xlink="http://www.w3.org/1999/xlink">

<path style="fill:#4c7f7f" d="M28,192 l196,0 0,37 -196,0 0,-37z" />
<path style="fill:#699" d="M28,194 l196,0 0,34 -196,0 0,-34z" />
<path style="fill:#7fb2b2" d="M28,201 l196,0 0,19 -196,0 0,-19z" />
<path style="fill:#9cc" d="M28,209 l196,0 0,3 -196,0 0,-3z" />
<path style="fill:none;stroke:#000;stroke-width:2" d="M28,192 l196,0 0,37 -196,0 0,-37" />
<ellipse style="fill:#4c7f7f;stroke:#000;stroke-width:2" cx="332" cy="211" rx="150" ry="164" />
<ellipse style="fill:#699" cx="332" cy="211" rx="150" ry="132" />
<ellipse style="fill:#7fb2b2" cx="332" cy="211" rx="150" ry="76" />
<ellipse style="fill:#9cc" cx="332" cy="211" rx="150" ry="21" />
<path style="fill:#194c4c;stroke:#000;stroke-width:2" d="M770,43 l-439,0 0,305 439,0 0,-305z" />
<path style="fill:#9cc;stroke:#000;stroke-width:2" d="M929,28 l-159,0 0,358 159,0 0,-358z" />
<path style="fill:#7fb2b2;stroke:#000;stroke-width:2" d="M929,386 l41,-40 0,-280 -41,-38 0,358z" />
<path style="fill:#4c7f7f;stroke:#000;stroke-width:2" d="M770,343 l-439,0 0,45 439,0 0,-45z" />
<path style="fill:#7fb2b2;stroke:#000;stroke-width:2" d="M770,305 l-458,0 0,11 458,0 0,-11z" />
<path style="fill:#7fb2b2;stroke:#000;stroke-width:2" d="M770,275 l-458,0 0,11 458,0 0,-11z" />
<path style="fill:#7fb2b2;stroke:#000;stroke-width:2" d="M770,245 l-458,0 0,11 458,0 0,-11z" />
<path style="fill:#9cc;stroke:#000;stroke-width:2" d="M770,216 l-458,0 0,10 458,0 0,-10z" />
<path style="fill:#9cc;stroke:#000;stroke-width:2" d="M770,186 l-458,0 0,9 458,0 0,-9z" />
<path style="fill:#9cc;stroke:#000;stroke-width:2" d="M770,156 l-458,0 0,11 458,0 0,-11z" />
<path style="fill:#9cc;stroke:#000;stroke-width:2" d="M770,126 l-458,0 0,11 458,0 0,-11z" />
<path style="fill:#9cc;stroke:#000;stroke-width:2" d="M770,96 l-458,0 0,11 458,0 0,-11z" />
<path style="fill:#9cc;stroke:#000;stroke-width:2" d="M770,66 l-458,0 0,11 458,0 0,-11z" />
<path style="fill:#9cc;stroke:#000;stroke-width:2" d="M770,37 l-458,0 0,10 458,0 0,-10z" />
<path style="fill:#7fb2b2;stroke:#000;stroke-width:2" d="M770,335 l-458,0 0,11 458,0 0,-11z" />

</svg>
