<?xml version="1.0" encoding="utf-8" standalone="no"?><!DOCTYPE svg PUBLIC "-//W3C//DTD SVG 1.1//EN" "http://www.w3.org/Graphics/SVG/1.1/DTD/svg11-flat-20030114.dtd"><svg width="998" height="558" version="1.1" xmlns="http://www.w3.org/2000/svg" xmlns:xlink="http://www.w3.org/1999/xlink">

<path style="fill:#000;stroke:#000;stroke-width:2" d="M933,519 l-237,0 0,11 237,0 0,-11z" />
<path style="fill:#e5e5e5;stroke:#000;stroke-width:2" d="M156,519 l30,0 0,-391 -30,0 0,391z" />
<path style="fill:none;stroke:#000;stroke-width:2" d="M970,126 l-784,0 0,393 784,0 0,-393" />
<path style="fill:#ccc;stroke:#000;stroke-width:2" d="M156,475 l30,0 0,-304 -30,0 0,304z" />
<path style="fill:#e5e5e5;stroke:#000;stroke-width:2" d="M156,441 l30,0 0,-236 -30,0 0,236z" />
<path style="fill:#999;stroke:#000;stroke-width:2" d="M141,472 l15,0 0,-297 -15,0 0,297z" />
<path style="fill:#ccc" d="M28,338 l113,0 0,-29 -113,0 0,29z" />
<path style="fill:#999" d="M28,338 l113,0 0,-10 -113,0 0,10z" />
<path style="fill:#fff" d="M28,319 l113,0 0,-6 -113,0 0,6z" />
<path style="fill:none;stroke:#000;stroke-width:2" d="M28,338 l113,0 0,-29 -113,0 0,29" />
<path style="fill:#d9d9d9" d="M966,515 l-776,0 0,-30 776,0 0,30z" />
<path style="fill:#e5e5e5" d="M966,432 l-776,0 0,53 776,0 0,-53z" />
<path style="fill:#f2f2f2" d="M966,432 l-776,0 0,-110 776,0 0,110z" />
<path style="fill:#f2f2f2" d="M966,166 l-776,0 0,-34 776,0 0,34z" />
<path style="fill:#fff;stroke:#000;stroke-width:2" d="M485,122 l-182,0 0,113 182,0 0,-113z" />
<path style="fill:#000;stroke:#000;stroke-width:2" d="M485,239 l-182,0 0,-4 182,0 0,4z" />
<path style="fill:#f60;stroke:#000;stroke-width:2" d="M377,122 l-55,0 0,108 55,0 0,-108z" />
<path style="fill:#f60;stroke:#000;stroke-width:2" d="M475,122 l-54,0 0,98 54,0 0,-98z" />
<path style="fill:#e5e5e5;stroke:#000;stroke-width:2" d="M417,122 l-34,0 0,89 34,0 0,-89z" />
<path style="fill:#f2f2f2;stroke:#000;stroke-width:2" d="M829,205 l-250,0 0,-157 250,0 0,157z" />
<path style="fill:#ccc;stroke:#000;stroke-width:2" d="M887,126 l-43,0 0,393 43,0 0,-393z" />
<path style="fill:#4c4c4c;stroke:#000;stroke-width:2" d="M883,126 l-15,0 0,109 15,0 0,-109z" />
<path style="fill:#4c4c4c;stroke:#000;stroke-width:2" d="M863,126 l-16,0 0,109 16,0 0,-109z" />
<path style="fill:#333;stroke:#000;stroke-width:2" d="M883,249 l-15,0 0,153 15,0 0,-153z" />
<path style="fill:#333;stroke:#000;stroke-width:2" d="M863,249 l-16,0 0,153 16,0 0,-153z" />
<path style="fill:#191919;stroke:#000;stroke-width:2" d="M883,417 l-15,0 0,102 15,0 0,-102z" />
<path style="fill:#191919;stroke:#000;stroke-width:2" d="M863,417 l-16,0 0,102 16,0 0,-102z" />
<path style="fill:#f2f2f2;stroke:#000;stroke-width:2" d="M451,519 l-2,-12 -1,-12 -1,-12 -1,-13 -1,-12 -1,-12 -1,-13 -2,-12 -3,-9 -3,-1 -2,0 -1,0 -189,0 -7,7 -1,9 -2,13 -1,12 -1,12 -2,13 -1,12 -2,12 -1,12 -1,6 -9,11 245,0 -6,-7 -3,-4z" />
<path style="fill:#d9d9d9" d="M436,441 l0,11 0,10 -1,16 -1,14 -2,10 -3,11 -6,6 -2,0 -5,0 -162,0 -1,0 -8,-9 -3,-13 -1,-12 -1,-15 0,-8 -1,-10 0,-11 0,-24 197,0 0,3 0,21z" />
<path style="fill:#fff;stroke:#000;stroke-width:2" d="M829,353 l-59,0 0,-59 59,0 0,59z" />
<path style="fill:#b2b2b2;stroke:#000;stroke-width:2" d="M798,298 l-7,5 -2,6 5,8 4,2 8,-4 4,-6 -4,-8 -8,-3z" />
<path style="fill:#fff;stroke:#000;stroke-width:2" d="M834,39 l-260,0 0,9 260,0 0,-9z" />
<path style="fill:#fff;stroke:#000;stroke-width:2" d="M813,28 l-221,0 0,11 221,0 0,-11z" />
<ellipse style="fill:#ccc;stroke:#000;stroke-width:2" cx="733" cy="124" rx="21" ry="23" />
<path style="fill:#7f7f7f;stroke:#000;stroke-width:2" d="M749,107 l-34,0 0,34 34,0 0,-34z" />

</svg>
