<?xml version="1.0" encoding="utf-8" standalone="no"?><!DOCTYPE svg PUBLIC "-//W3C//DTD SVG 1.1//EN" "http://www.w3.org/Graphics/SVG/1.1/DTD/svg11-flat-20030114.dtd"><svg width="999" height="535" version="1.1" xmlns="http://www.w3.org/2000/svg" xmlns:xlink="http://www.w3.org/1999/xlink">

<path style="fill:#7f7f7f;stroke:#000;stroke-width:2" d="M805,491 l99,0 42,-9 24,-21 0,-404 -25,-22 -41,-7 -99,0 0,463z" />
<path style="fill:#000;stroke:#000;stroke-width:2" d="M805,36 l-8,0 0,455 8,0 0,-455z" />
<path style="fill:#7f7f7f;stroke:#000;stroke-width:2" d="M805,491 l99,-1 42,-8 24,-22 0,-404 -25,-21 -41,-7 -99,0 0,463z" />
<path style="fill:#7f7f7f;stroke:#000;stroke-width:2" d="M342,474 l-99,0 -42,-8 -24,-20 0,-375 25,-20 41,-7 99,0 0,430z" />
<path style="fill:#7f7f7f;stroke:#000;stroke-width:2" d="M797,28 l-455,0 0,463 455,0 0,-463z" />
<path style="fill:#000;stroke:#000;stroke-width:2" d="M350,482 l207,0 0,-256 -207,0 0,256z" />
<path style="fill:#7f7f7f;stroke:#000;stroke-width:2" d="M549,466 l-9,-174 -173,0 -9,174 191,0z" />
<path style="fill:#fff;stroke:#000;stroke-width:2" d="M540,292 l-9,-50 -155,0 -9,50 173,0z" />
<path style="fill:#f00;stroke:#000;stroke-width:2" d="M466,251 l8,16 -41,0 8,-16 25,0z" />
<circle style="fill:#7f7f7f;stroke:#000;stroke-width:2" cx="544" cy="238" r="4" />
<path style="fill:none;stroke:#000;stroke-width:2" d="M540,242 l9,-8" />
<circle style="fill:#7f7f7f;stroke:#000;stroke-width:2" cx="362" cy="238" r="4" />
<path style="fill:none;stroke:#000;stroke-width:2" d="M359,242 l8,-8" />
<circle style="fill:#7f7f7f;stroke:#000;stroke-width:2" cx="544" cy="470" r="4" />
<path style="fill:none;stroke:#000;stroke-width:2" d="M540,474 l9,-8" />
<circle style="fill:#7f7f7f;stroke:#000;stroke-width:2" cx="362" cy="470" r="4" />
<path style="fill:none;stroke:#000;stroke-width:2" d="M359,474 l8,-8" />
<path style="fill:#000;stroke:#000;stroke-width:2" d="M788,151 l-438,0 0,17 438,0 0,-17z" />
<path style="fill:#000;stroke:#000;stroke-width:2" d="M788,176 l-438,0 0,17 438,0 0,-17z" />
<path style="fill:#000;stroke:#000;stroke-width:2" d="M788,201 l-438,0 0,17 438,0 0,-17z" />
<path style="fill:#000;stroke:#000;stroke-width:2" d="M788,226 l-222,0 0,16 222,0 0,-16z" />
<path style="fill:#000;stroke:#000;stroke-width:2" d="M788,251 l-223,0 0,16 223,0 0,-16z" />
<path style="fill:#000;stroke:#000;stroke-width:2" d="M788,276 l-223,0 0,16 223,0 0,-16z" />
<path style="fill:#000;stroke:#000;stroke-width:2" d="M788,300 l-223,0 0,17 223,0 0,-17z" />
<path style="fill:#000;stroke:#000;stroke-width:2" d="M788,325 l-223,0 0,17 223,0 0,-17z" />
<path style="fill:#000;stroke:#000;stroke-width:2" d="M788,350 l-223,0 0,17 223,0 0,-17z" />
<path style="fill:#000;stroke:#000;stroke-width:2" d="M788,383 l-223,0 0,8 223,0 0,-8z" />
<path style="fill:#000;stroke:#000;stroke-width:2" d="M788,408 l-223,0 0,8 223,0 0,-8z" />
<path style="fill:#000;stroke:#000;stroke-width:2" d="M788,433 l-223,0 0,8 223,0 0,-8z" />
<path style="fill:#000;stroke:#000;stroke-width:2" d="M788,458 l-223,0 0,0 223,0 0,0z" />
<path style="fill:#000;stroke:#000;stroke-width:2" d="M789,135 l-439,0 0,-8 439,0 0,8z" />
<path style="fill:#000;stroke:#000;stroke-width:2" d="M789,110 l-439,0 0,-8 439,0 0,8z" />
<path style="fill:#000;stroke:#000;stroke-width:2" d="M789,85 l-439,0 0,-8 439,0 0,8z" />
<path style="fill:#f00;stroke:#7f7f7f;stroke-width:2" d="M631,152 l-41,0 0,24 41,0 0,-24z" />
<path style="fill:#f00;stroke:#7f7f7f;stroke-width:2" d="M573,152 l-41,0 0,24 41,0 0,-24z" />
<path style="fill:#000;stroke:#000;stroke-width:2" d="M342,151 l-165,0 0,17 165,0 0,-17z" />
<path style="fill:#000;stroke:#000;stroke-width:2" d="M342,176 l-165,0 0,17 165,0 0,-17z" />
<path style="fill:#000;stroke:#000;stroke-width:2" d="M342,201 l-165,0 0,17 165,0 0,-17z" />
<path style="fill:#000;stroke:#000;stroke-width:2" d="M342,226 l-165,0 0,16 165,0 0,-16z" />
<path style="fill:#000;stroke:#000;stroke-width:2" d="M342,251 l-165,0 0,16 165,0 0,-16z" />
<path style="fill:#000;stroke:#000;stroke-width:2" d="M342,276 l-165,0 0,16 165,0 0,-16z" />
<path style="fill:#000;stroke:#000;stroke-width:2" d="M342,300 l-165,0 0,17 165,0 0,-17z" />
<path style="fill:#000;stroke:#000;stroke-width:2" d="M342,325 l-165,0 0,17 165,0 0,-17z" />
<path style="fill:#000;stroke:#000;stroke-width:2" d="M342,350 l-165,0 0,17 165,0 0,-17z" />
<path style="fill:#000;stroke:#000;stroke-width:2" d="M342,383 l-165,0 0,8 165,0 0,-8z" />
<path style="fill:#000;stroke:#000;stroke-width:2" d="M342,408 l-165,0 0,8 165,0 0,-8z" />
<path style="fill:#000;stroke:#000;stroke-width:2" d="M342,135 l-165,0 0,-8 165,0 0,8z" />
<path style="fill:#000;stroke:#000;stroke-width:2" d="M342,110 l-165,0 0,-8 165,0 0,8z" />
<path style="fill:#000;stroke:#000;stroke-width:2" d="M838,491 l-529,0 0,16 529,0 0,-16z" />
<path style="fill:#fff;stroke:#000;stroke-width:2" d="M177,284 l-149,0 0,-50 149,0 0,50z" />
<path style="fill:#7f7f7f;stroke:#7f7f7f;stroke-width:2" d="M168,267 l-132,0 0,9 132,0 0,-9z" />

</svg>
