<?xml version="1.0" encoding="utf-8" standalone="no"?><!DOCTYPE svg PUBLIC "-//W3C//DTD SVG 1.1//EN" "http://www.w3.org/Graphics/SVG/1.1/DTD/svg11-flat-20030114.dtd"><svg width="998" height="556" version="1.1" xmlns="http://www.w3.org/2000/svg" xmlns:xlink="http://www.w3.org/1999/xlink">

<path style="fill:#7f7f7f;stroke:#000;stroke-width:2" d="M955,484 l-116,-50 -572,-8 0,44 130,57 558,0 0,-43z" />
<path style="fill:none;stroke:#000;stroke-width:2" d="M955,484 l-558,0 -130,-58" />
<path style="fill:none;stroke:#000;stroke-width:2" d="M397,484 l0,44" />
<path style="fill:#7f7f7f;stroke:#000;stroke-width:2" d="M375,462 l-1,0 0,0 -1,0 -30,-10 -25,-27 -15,-26 -12,-33 -9,-36 -6,-41 -1,-22 -1,-22 1,-22 4,-42 7,-39 11,-35 13,-29 16,-24 27,-22 10,-3 9,-1 1,0 -5,0 515,0 -11,0 29,10 26,27 14,27 12,32 9,37 6,40 2,22 0,22 0,22 -4,43 -8,39 -10,34 -13,30 -16,23 -27,22 -22,4 -495,0z" />
<ellipse style="fill:none;stroke:#000;stroke-width:2" cx="364" cy="244" rx="83" ry="195" />
<path style="fill:none;stroke:#000;stroke-width:2" d="M374,462 l0,0 -31,-10 -25,-27 -15,-26 -12,-33 -9,-36 -6,-41 -2,-44 2,-44 6,-40 9,-37 12,-32 15,-27 16,-20 29,-16 9,-1" />
<path style="fill:#fff;stroke:#000;stroke-width:2" d="M883,216 l-94,0 0,94 94,0 0,-94z" />
<path style="fill:#000;stroke:#000;stroke-width:2" d="M368,230 l-340,0 0,44 340,0 0,-44z" />
<path style="fill:#fff;stroke:#000;stroke-width:2" d="M368,230 l-340,0 0,37 340,0 0,-37z" />
<path style="fill:none;stroke:#000;stroke-width:2" d="M370,462 l0,0 31,-10 26,-27 14,-26 12,-33 9,-36 6,-41 2,-44 -2,-44 -6,-40 -9,-37 -12,-32 -14,-27 -17,-20 -28,-16 -10,-1" />
<path style="fill:#000;stroke:#000;stroke-width:2" d="M883,216 l-14,-7 -88,0 0,93 8,8 0,-94 94,0z" />
<path style="fill:#000;stroke:#000;stroke-width:2" d="M818,115 l-355,0 0,7 355,0 0,-7z" />
<path style="fill:#000;stroke:#000;stroke-width:2" d="M767,93 l-319,0 0,7 319,0 0,-7z" />
<path style="fill:#000;stroke:#000;stroke-width:2" d="M687,71 l-246,0 0,7 246,0 0,-7z" />
<path style="fill:#000;stroke:#000;stroke-width:2" d="M760,418 l-305,0 0,-6 305,0 0,6z" />

</svg>
