<?xml version="1.0" encoding="utf-8" standalone="no"?><!DOCTYPE svg PUBLIC "-//W3C//DTD SVG 1.1//EN" "http://www.w3.org/Graphics/SVG/1.1/DTD/svg11-flat-20030114.dtd"><svg width="999" height="527" version="1.1" xmlns="http://www.w3.org/2000/svg" xmlns:xlink="http://www.w3.org/1999/xlink">

<path style="fill:#000;stroke:#000;stroke-width:2" d="M892,489 l-589,0 0,10 589,0 0,-10z" />
<path style="fill:#fff;stroke:#000;stroke-width:2" d="M185,263 l-157,0 0,40 157,0 0,-40z" />
<path style="fill:#000;stroke:#000;stroke-width:2" d="M892,67 l-589,0 0,177 589,0 0,-177z" />
<path style="fill:#7f7f7f;stroke:#000;stroke-width:2" d="M970,57 l-78,0 0,40 78,0 0,-40z" />
<path style="fill:#7f7f7f;stroke:#000;stroke-width:2" d="M892,244 l-590,0 0,245 590,0 0,-245z" />
<path style="fill:#e5e5e5;stroke:#000;stroke-width:2" d="M195,106 l-10,0 0,354 10,0 0,-354z" />
<path style="fill:#e5e5e5;stroke:#000;stroke-width:2" d="M578,263 l-158,0 0,157 158,0 0,-157z" />
<path style="fill:#000;stroke:#000;stroke-width:2" d="M882,254 l-206,0 0,215 206,0 0,-215z" />
<path style="fill:none;stroke:#7f7f7f;stroke-width:2" d="M892,224 l-589,0" />
<path style="fill:none;stroke:#7f7f7f;stroke-width:2" d="M892,204 l-589,0" />
<path style="fill:none;stroke:#7f7f7f;stroke-width:2" d="M892,185 l-589,0" />
<path style="fill:none;stroke:#7f7f7f;stroke-width:2" d="M892,165 l-589,0" />
<path style="fill:none;stroke:#7f7f7f;stroke-width:2" d="M892,146 l-589,0" />
<path style="fill:none;stroke:#7f7f7f;stroke-width:2" d="M892,131 l-589,0" />
<path style="fill:none;stroke:#7f7f7f;stroke-width:2" d="M892,116 l-589,0" />
<path style="fill:none;stroke:#7f7f7f;stroke-width:2" d="M892,101 l-589,0" />
<path style="fill:none;stroke:#7f7f7f;stroke-width:2" d="M892,92 l-589,0" />
<path style="fill:none;stroke:#7f7f7f;stroke-width:2" d="M892,82 l-589,0" />
<path style="fill:none;stroke:#7f7f7f;stroke-width:2" d="M892,72 l-589,0" />
<path style="fill:#b2b2b2" d="M180,288 l-147,0 0,10 147,0 0,-10z" />
<path style="fill:#e5e5e5" d="M180,268 l-147,0 0,5 147,0 0,-5z" />
<path style="fill:#666;stroke:#000;stroke-width:2" d="M892,67 l-10,0 0,-39 10,0 0,39z" />
<path style="fill:#666;stroke:#000;stroke-width:2" d="M303,77 l-89,0 0,412 89,0 0,-412z" />
<path style="fill:#666;stroke:#000;stroke-width:2" d="M214,87 l-19,0 0,393 19,0 0,-393z" />
<path style="fill:#666;stroke:#000;stroke-width:2" d="M518,450 l-215,0 0,49 215,0 0,-49z" />
<path style="fill:#666;stroke:#000;stroke-width:2" d="M882,263 l-206,0 0,197 206,0 0,-197z" />
<path style="fill:#666;stroke:#000;stroke-width:2" d="M892,97 l78,0 0,382 -78,10 0,-392z" />
<path style="fill:#666;stroke:#000;stroke-width:2" d="M303,126 l-10,0 0,-98 10,0 0,98z" />

</svg>
