<?xml version="1.0" encoding="utf-8" standalone="no"?><!DOCTYPE svg PUBLIC "-//W3C//DTD SVG 1.1//EN" "http://www.w3.org/Graphics/SVG/1.1/DTD/svg11-flat-20030114.dtd"><svg width="999" height="527" version="1.1" xmlns="http://www.w3.org/2000/svg" xmlns:xlink="http://www.w3.org/1999/xlink">

<path style="fill:#4c4c4c" d="M719,429 l-392,0 0,15 392,0 0,-15z" />
<path style="fill:#333;stroke:#000;stroke-width:2" d="M687,498 l40,-31 8,-31 31,0 8,31 39,31 -126,0z" />
<path style="fill:#333;stroke:#000;stroke-width:2" d="M319,498 l39,-31 8,-31 31,0 8,31 39,31 -125,0z" />
<path style="fill:#7f7f7f" d="M719,467 l251,-31 0,-377 -251,-31 0,31 -377,0 -125,31 0,-31 -32,0 0,126 -157,0 0,126 157,0 0,125 32,0 0,-31 125,31 377,0 0,31z" />
<path style="fill:#999" d="M719,420 l251,-25 0,-296 -251,-25 0,25 -377,0 -126,25 0,-25 -32,0 0,99 -156,0 0,98 156,0 0,99 32,0 0,-25 126,25 377,0 0,25z" />
<path style="fill:#b2b2b2" d="M719,373 l251,-18 0,-216 -251,-18 0,18 -377,0 -126,18 0,-18 -32,0 0,72 -156,0 0,72 156,0 0,72 32,0 0,-18 126,18 377,0 0,18z" />
<path style="fill:#ccc" d="M719,326 l251,-11 0,-136 -251,-11 0,11 -377,0 -126,11 0,-11 -32,0 0,46 -156,0 0,44 156,0 0,46 32,0 0,-12 126,12 377,0 0,11z" />
<path style="fill:#e5e5e5" d="M719,279 l251,-5 0,-54 -251,-4 0,4 -377,0 -125,5 0,-5 -32,0 0,18 -157,0 0,18 157,0 0,18 32,0 0,-4 125,4 377,0 0,5z" />
<path style="fill:none;stroke:#000;stroke-width:2" d="M719,467 l251,-31 0,-377 -251,-31 0,31 -377,0 -125,31 0,-31 -32,0 0,126 -157,0 0,126 157,0 0,125 32,0 0,-31 125,31 377,0 0,31" />
<path style="fill:#4c4c4c" d="M719,59 l-377,0 0,189 377,0 0,-189z" />
<path style="fill:#e5e5e5" d="M719,201 l-392,0 0,15 392,0 0,-15z" />
<path style="fill:#ccc" d="M719,161 l-392,0 0,16 392,0 0,-16z" />
<path style="fill:#b2b2b2" d="M719,130 l-392,0 0,16 392,0 0,-16z" />
<path style="fill:#b2b2b2" d="M719,98 l-392,0 0,16 392,0 0,-16z" />
<path style="fill:#999" d="M719,67 l-392,0 0,16 392,0 0,-16z" />
<path style="fill:#999" d="M719,44 l-392,0 0,15 392,0 0,-15z" />
<path style="fill:#4c4c4c;stroke:#000;stroke-width:2" d="M704,436 l-338,0 0,-117 338,0 0,117z" />
<path style="fill:#666" d="M719,397 l-392,0 0,16 392,0 0,-16z" />
<path style="fill:#666" d="M719,421 l-392,0 0,15 392,0 0,-15z" />
<path style="fill:#b2b2b2;stroke:#000;stroke-width:2" d="M633,350 l-196,0 0,133 196,0 0,-133z" />
<path style="fill:#ccc;stroke:#000;stroke-width:2" d="M633,350 l-16,-24 -173,0 -8,24 197,0z" />
<path style="fill:none;stroke:#000;stroke-width:2" d="M719,436 l0,-377" />
<path style="fill:none;stroke:#000;stroke-width:2" d="M217,405 l0,-315" />
<path style="fill:none;stroke:#000;stroke-width:2" d="M185,311 l0,-126" />

</svg>
