<?xml version="1.0" encoding="utf-8" standalone="no"?><!DOCTYPE svg PUBLIC "-//W3C//DTD SVG 1.1//EN" "http://www.w3.org/Graphics/SVG/1.1/DTD/svg11-flat-20030114.dtd"><svg width="998" height="532" version="1.1" xmlns="http://www.w3.org/2000/svg" xmlns:xlink="http://www.w3.org/1999/xlink">

<path style="fill:#000;stroke:#000;stroke-width:2" d="M865,504 l-555,0 0,-10 555,0 0,10z" />
<path style="fill:#7f7f7f;stroke:#000;stroke-width:2" d="M865,494 l105,-11 0,-440 -105,-10 -544,0 -105,10 0,440 94,11 555,0z" />
<path style="fill:#7f7f7f;stroke:#000;stroke-width:2" d="M583,232 l-262,0 0,272 262,0 0,-272z" />
<path style="fill:none;stroke:#000;stroke-width:2" d="M865,494 l0,-461" />
<path style="fill:none;stroke:#000;stroke-width:2" d="M310,494 l0,-461" />
<path style="fill:#7f7f7f;stroke:#000;stroke-width:2" d="M216,54 l-21,0 0,419 21,0 0,-419z" />
<path style="fill:#7f7f7f;stroke:#000;stroke-width:2" d="M834,28 l-492,0 0,162 492,0 0,-162z" />
<path style="fill:none;stroke:#000;stroke-width:2" d="M834,169 l-492,0" />
<path style="fill:none;stroke:#000;stroke-width:2" d="M834,148 l-492,0" />
<path style="fill:none;stroke:#000;stroke-width:2" d="M834,127 l-492,0" />
<path style="fill:none;stroke:#000;stroke-width:2" d="M834,113 l-492,0" />
<path style="fill:none;stroke:#000;stroke-width:2" d="M834,97 l-492,0" />
<path style="fill:none;stroke:#000;stroke-width:2" d="M834,81 l-492,0" />
<path style="fill:none;stroke:#000;stroke-width:2" d="M834,70 l-492,0" />
<path style="fill:none;stroke:#000;stroke-width:2" d="M834,59 l-492,0" />
<path style="fill:none;stroke:#000;stroke-width:2" d="M834,49 l-492,0" />
<path style="fill:none;stroke:#000;stroke-width:2" d="M834,38 l-492,0" />
<path style="fill:none;stroke:#000;stroke-width:2" d="M834,43 l-492,0" />
<path style="fill:#fff;stroke:#000;stroke-width:2" d="M567,253 l-141,0 0,115 141,0 0,-115z" />
<path style="fill:#7f7f7f;stroke:#000;stroke-width:2" d="M865,232 l-219,0 0,256 219,0 0,-256z" />
<path style="fill:#7f7f7f;stroke:#000;stroke-width:2" d="M855,253 l-167,0 0,230 167,0 0,-230z" />
<path style="fill:#fff;stroke:#000;stroke-width:2" d="M892,258 l-21,0 0,52 21,0 0,-52z" />
<path style="fill:#7f7f7f;stroke:#000;stroke-width:2" d="M970,49 l-105,0 0,-21 105,0 0,21z" />
<path style="fill:none;stroke:#000;stroke-width:2" d="M834,33 l-492,0" />
<path style="fill:#e5e5e5;stroke:#000;stroke-width:2" d="M174,242 l-146,0 0,37 146,0 0,-37z" />
<path style="fill:#7f7f7f" d="M173,270 l-143,0 0,7 143,0 0,-7z" />
<path style="fill:#fff" d="M173,251 l-143,0 0,7 143,0 0,-7z" />
<path style="fill:#e5e5e5;stroke:#000;stroke-width:2" d="M196,85 l-22,0 0,356 22,0 0,-356z" />
<path style="fill:#7f7f7f" d="M193,379 l-16,0 0,58 16,0 0,-58z" />
<path style="fill:#fff" d="M193,191 l-16,0 0,47 16,0 0,-47z" />
<path style="fill:#000" d="M193,417 l-16,0 0,20 16,0 0,-20z" />
<path style="fill:#000" d="M173,275 l-143,0 0,2 143,0 0,-2z" />
<path style="fill:#000;stroke:#000;stroke-width:2" d="M666,347 l-8,5 -2,6 1,4 5,5 4,1 4,-1 6,-5 0,-4 -4,-9 -6,-2z" />
<path style="fill:none;stroke:#7f7f7f;stroke-width:2" d="M677,357 l-21,0" />
<path style="fill:none;stroke:#7f7f7f;stroke-width:2" d="M667,368 l0,-21" />
<path style="fill:#000;stroke:#000;stroke-width:2" d="M562,473 l-9,4 -2,6 1,4 6,6 4,0 4,0 5,-6 1,-4 -4,-8 -6,-2z" />
<path style="fill:none;stroke:#7f7f7f;stroke-width:2" d="M573,483 l-22,0" />
<path style="fill:none;stroke:#7f7f7f;stroke-width:2" d="M562,494 l0,-21" />
<path style="fill:#000;stroke:#000;stroke-width:2" d="M342,473 l-9,4 -1,6 0,4 6,6 4,0 4,0 5,-6 1,-4 -4,-8 -6,-2z" />
<path style="fill:none;stroke:#7f7f7f;stroke-width:2" d="M353,483 l-21,0" />
<path style="fill:none;stroke:#7f7f7f;stroke-width:2" d="M342,494 l0,-21" />

</svg>
