<?xml version="1.0" encoding="utf-8" standalone="no"?><!DOCTYPE svg PUBLIC "-//W3C//DTD SVG 1.1//EN" "http://www.w3.org/Graphics/SVG/1.1/DTD/svg11-flat-20030114.dtd"><svg width="998" height="434" version="1.1" xmlns="http://www.w3.org/2000/svg" xmlns:xlink="http://www.w3.org/1999/xlink">

<path style="fill:#7f7f7f;stroke:#000;stroke-width:2" d="M970,406 l0,-37 -260,-118 -676,0 -6,37 241,118 701,0z" />
<path style="fill:none;stroke:#000;stroke-width:2" d="M970,369 l-701,0 -235,-118" />
<path style="fill:none;stroke:#000;stroke-width:2" d="M269,369 l0,37" />
<path style="fill:#7f7f7f;stroke:#000;stroke-width:2" d="M599,74 l271,0 22,23 10,31 5,29 1,21 0,11 0,11 -2,32 -6,27 -10,27 -13,14 -3,1 -279,-1 -18,-21 -10,-30 -5,-28 -1,-21 0,-11 0,-11 3,-31 6,-27 11,-28 14,-16 4,-2z" />
<path style="fill:none;stroke:#000;stroke-width:2" d="M604,301 l7,-4 8,-7 6,-10 6,-14 2,-8 2,-8 2,-9 2,-10 1,-10 1,-10 0,-11 1,-11 -1,-11 0,-11 -1,-11 -2,-10 -1,-10 -2,-9 -3,-9 -2,-8 -6,-14 -7,-10 -8,-6 -8,-3 -2,0" />
<path style="fill:#fff;stroke:#000;stroke-width:2" d="M853,158 l-93,0 0,99 93,0 0,-99z" />
<path style="fill:#fff;stroke:#000;stroke-width:2" d="M822,28 l-193,0 0,43 193,0 0,-43z" />
<path style="fill:#fff;stroke:#000;stroke-width:2" d="M598,158 l-105,0 0,49 105,0 0,-49z" />
<path style="fill:#7f7f7f;stroke:#000;stroke-width:2" d="M147,59 l320,0 21,18 13,32 7,31 3,35 0,13 0,12 -3,35 -6,31 -9,24 -18,22 -4,1 -328,0 -22,-24 -9,-24 -6,-31 -4,-34 0,-12 0,-13 4,-34 6,-31 10,-25 16,-22 4,-2 5,-2z" />
<path style="fill:none;stroke:#000;stroke-width:2" d="M152,313 l9,-4 8,-8 7,-12 4,-7 3,-8 2,-9 3,-10 2,-10 2,-10 1,-11 1,-12 1,-12 0,-12 0,-13 -1,-12 -1,-12 -1,-12 -2,-11 -2,-10 -3,-10 -3,-9 -3,-8 -4,-8 -8,-11 -9,-8 -9,-2 -2,0" />
<path style="fill:#000;stroke:#000;stroke-width:2" d="M493,90 l-273,0 0,6 273,0 0,-6z" />
<path style="fill:#fff;stroke:#fff;stroke-width:2" d="M493,96 l-255,0 0,6 255,0 0,-6z" />
<path style="fill:#000;stroke:#000;stroke-width:2" d="M505,145 l-241,0 0,7 241,0 0,-7z" />
<path style="fill:#fff;stroke:#fff;stroke-width:2" d="M505,152 l-217,0 0,6 217,0 0,-6z" />
<path style="fill:#000;stroke:#000;stroke-width:2" d="M505,233 l-254,0 0,6 254,0 0,-6z" />
<path style="fill:#fff;stroke:#fff;stroke-width:2" d="M505,239 l-217,0 0,6 217,0 0,-6z" />
<path style="fill:#000;stroke:#000;stroke-width:2" d="M474,307 l-273,0 0,6 273,0 0,-6z" />
<path style="fill:#000;stroke:#000;stroke-width:2" d="M871,301 l-267,0 0,6 267,0 0,-6z" />

</svg>
