<?xml version="1.0" encoding="utf-8" standalone="no"?><!DOCTYPE svg PUBLIC "-//W3C//DTD SVG 1.1//EN" "http://www.w3.org/Graphics/SVG/1.1/DTD/svg11-flat-20030114.dtd"><svg width="999" height="410" version="1.1" xmlns="http://www.w3.org/2000/svg" xmlns:xlink="http://www.w3.org/1999/xlink">

<path style="fill:#e04700;stroke:#000;stroke-width:2" d="M465,130 l371,0 0,235 -371,0 0,-235z" />
<path style="fill:#eb5200" d="M465,150 l371,0 0,193 -371,0 0,-193z" />
<path style="fill:#f55c00" d="M465,184 l371,0 0,127 -371,0 0,-127z" />
<path style="fill:#f60" d="M465,218 l371,0 0,59 -371,0 0,-59z" />
<path style="fill:#f60;stroke:#000;stroke-width:2" d="M212,116 l253,0 0,260 -253,0 0,-260z" />
<path style="fill:#ff7f19" d="M212,137 l253,0 0,221 -253,0 0,-221z" />
<path style="fill:#f93" d="M212,169 l253,0 0,155 -253,0 0,-155z" />
<path style="fill:#f60;stroke:#000;stroke-width:2" d="M212,113 l17,0 0,66 102,0 0,-66 34,0 0,66 17,0 0,-66 32,0 0,66 17,0 0,-66 34,0 0,269 -34,0 0,-68 -17,0 0,68 -32,0 0,-68 -17,0 0,68 -34,0 0,-68 -102,0 0,68 -17,0 0,-269z" />
<path style="fill:#f60" d="M448,113 l17,0 0,-51 -17,0 0,51z" />
<path style="fill:#f60;stroke:#000;stroke-width:2" d="M836,130 l66,0 0,235 -66,0 0,-235z" />
<path style="fill:#000;stroke:#000;stroke-width:2" d="M465,365 l437,0 0,17 -437,0 0,-17z" />
<path style="fill:#e54c00;stroke:#000;stroke-width:2" d="M769,45 l201,0 0,85 -201,0 0,-85z" />
<circle style="fill:#f60;stroke:#000;stroke-width:2" cx="811" cy="87" r="25" />
<circle style="fill:#f60;stroke:#000;stroke-width:2" cx="877" cy="87" r="24" />
<path style="fill:#f60;stroke:#000;stroke-width:2" d="M769,45 l3,-17 194,0 4,17 -201,0z" />
<path style="fill:#f60;stroke:#000;stroke-width:2" d="M902,147 l17,0 0,201 -17,0 0,-201z" />
<path style="fill:#f60;stroke:#000;stroke-width:2" d="M465,137 l388,0 0,17 -388,0 0,-17z" />
<path style="fill:#ff7f19;stroke:#000;stroke-width:2" d="M465,171 l388,0 0,17 -388,0 0,-17z" />
<path style="fill:#f93;stroke:#000;stroke-width:2" d="M465,205 l388,0 0,17 -388,0 0,-17z" />
<path style="fill:#ffb24c;stroke:#000;stroke-width:2" d="M465,239 l388,0 0,17 -388,0 0,-17z" />
<path style="fill:#f93;stroke:#000;stroke-width:2" d="M465,273 l388,0 0,15 -388,0 0,-15z" />
<path style="fill:#ff7f19;stroke:#000;stroke-width:2" d="M465,305 l388,0 0,17 -388,0 0,-17z" />
<path style="fill:#f60;stroke:#000;stroke-width:2" d="M465,339 l388,0 0,17 -388,0 0,-17z" />
<path style="fill:#f60;stroke:#000;stroke-width:2" d="M260,205 l7,4 4,9 -4,8 -7,3 -10,-3 -4,-8 4,-9 10,-4z" />
<ellipse style="fill:#7f7f7f;stroke:#000;stroke-width:2" cx="259" cy="217" rx="3" ry="5" />
<path style="fill:#e04700" d="M448,113 l17,0 0,-14 -17,0 0,14z" />
<path style="fill:none;stroke:#000;stroke-width:2" d="M448,113 l17,0 0,-51 -17,0 0,51" />
<path style="fill:#b2b2b2" d="M162,130 l50,0 0,235 -50,0 0,-235z" />
<path style="fill:#ccc" d="M162,158 l50,0 0,177 -50,0 0,-177z" />
<path style="fill:#e5e5e5" d="M162,201 l50,0 0,93 -50,0 0,-93z" />
<path style="fill:#fff" d="M162,233 l50,0 0,27 -50,0 0,-27z" />
<path style="fill:none;stroke:#000;stroke-width:2" d="M162,130 l50,0 0,235 -50,0 0,-235" />
<path style="fill:#b2b2b2" d="M28,229 l135,0 0,34 -135,0 0,-34z" />
<path style="fill:#ccc" d="M28,233 l135,0 0,27 -135,0 0,-27z" />
<path style="fill:#e5e5e5" d="M28,241 l135,0 0,13 -135,0 0,-13z" />
<path style="fill:#fff" d="M28,245 l135,0 0,3 -135,0 0,-3z" />
<path style="fill:none;stroke:#000;stroke-width:2" d="M28,229 l135,0 0,34 -135,0 0,-34" />

</svg>
