<?xml version="1.0" encoding="utf-8" standalone="no"?><!DOCTYPE svg PUBLIC "-//W3C//DTD SVG 1.1//EN" "http://www.w3.org/Graphics/SVG/1.1/DTD/svg11-flat-20030114.dtd"><svg width="844" height="999" version="1.1" xmlns="http://www.w3.org/2000/svg" xmlns:xlink="http://www.w3.org/1999/xlink">

<path style="fill:#7f7f7f;stroke:#000;stroke-width:2" d="M816,263 l-530,0 0,472 530,0 0,-472z" />
<path style="fill:#7f7f7f;stroke:#000;stroke-width:2" d="M175,477 l-147,0 0,44 147,0 0,-44z" />
<path style="fill:#b2b2b2;stroke:#000;stroke-width:2" d="M286,28 l-89,0 0,942 89,0 0,-942z" />
<path style="fill:#000;stroke:#000;stroke-width:2" d="M712,221 l-147,0 0,-111 147,0 0,111z" />
<path style="fill:#000;stroke:#000;stroke-width:2" d="M727,221 l-177,0 0,22 177,0 0,-22z" />
<path style="fill:#b2b2b2;stroke:#000;stroke-width:2" d="M573,221 l-15,0 0,-8 15,0 0,8z" />
<path style="fill:#b2b2b2;stroke:#000;stroke-width:2" d="M720,221 l-15,0 0,-8 15,0 0,8z" />
<path style="fill:none;stroke:#7f7f7f;stroke-width:2" d="M727,221 l-177,0" />
<path style="fill:none;stroke:#7f7f7f;stroke-width:2" d="M712,110 l-147,0" />
<path style="fill:#666;stroke:#000;stroke-width:2" d="M757,720 l-471,0 0,37 471,0 0,-37z" />
<path style="fill:#666;stroke:#000;stroke-width:2" d="M757,241 l-471,0 0,37 471,0 0,-37z" />
<path style="fill:#ccc;stroke:#000;stroke-width:2" d="M197,308 l-22,0 0,383 22,0 0,-383z" />

</svg>
