<?xml version="1.0" encoding="utf-8" standalone="no"?><!DOCTYPE svg PUBLIC "-//W3C//DTD SVG 1.1//EN" "http://www.w3.org/Graphics/SVG/1.1/DTD/svg11-flat-20030114.dtd"><svg width="999" height="763" version="1.1" xmlns="http://www.w3.org/2000/svg" xmlns:xlink="http://www.w3.org/1999/xlink">

<path style="fill:#808080;stroke:#000;stroke-width:2" d="M852,735 l0,-118 -59,-20 138,0 0,-59 39,-20 0,-372 -39,-20 0,-59 -196,0 -40,-39 -314,0 -39,39 -157,0 0,59 -39,20 0,157 -118,0 0,78 118,0 0,137 39,20 0,59 78,0 -39,20 0,118 628,0z" />
<path style="fill:none;stroke:#000;stroke-width:2" d="M852,656 l-628,0" />
<path style="fill:none;stroke:#000;stroke-width:2" d="M793,597 l-58,-19 -393,0 -79,19" />
<path style="fill:none;stroke:#000;stroke-width:2" d="M931,126 l0,412" />
<path style="fill:none;stroke:#000;stroke-width:2" d="M185,538 l0,-412" />
<path style="fill:none;stroke:#000;stroke-width:2" d="M342,67 l0,511" />
<path style="fill:none;stroke:#000;stroke-width:2" d="M735,578 l0,-511" />
<path style="fill:none;stroke:#000;stroke-width:2" d="M146,381 l0,-78" />

</svg>
