<?xml version="1.0" encoding="utf-8" standalone="no"?><!DOCTYPE svg PUBLIC "-//W3C//DTD SVG 1.1//EN" "http://www.w3.org/Graphics/SVG/1.1/DTD/svg11-flat-20030114.dtd"><svg width="998" height="736" version="1.1" xmlns="http://www.w3.org/2000/svg" xmlns:xlink="http://www.w3.org/1999/xlink">

<path style="fill:#e0e0e0;stroke:#000;stroke-width:2" d="M28,306 l79,0 0,79 -79,0 0,-79z" />
<path style="fill:#e0e0e0;stroke:#000;stroke-width:2" d="M638,663 l0,-28 -190,0 0,28 -22,0 0,45 -152,0 0,-45 -14,0 -61,-10 -48,-24 -33,-36 -12,-45 0,-405 12,-46 33,-37 48,-24 61,-8 552,0 61,8 51,24 32,37 14,46 0,405 -14,45 -32,36 -51,24 -58,10 0,45 -152,0 0,-45 -25,0z" />
<path style="fill:#e0e0e0" d="M663,671 l152,0 0,31 -152,0 0,-31z" />
<path style="fill:#e0e0e0" d="M274,671 l152,0 0,31 -152,0 0,-31z" />
<path style="fill:none;stroke:#000;stroke-width:2" d="M819,28 l0,633" />
<path style="fill:none;stroke:#000;stroke-width:2" d="M256,28 l0,633" />
<path style="fill:none;stroke:#000;stroke-width:2" d="M970,345 l-151,0" />
<path style="fill:none;stroke:#000;stroke-width:2" d="M107,345 l149,0" />
<path style="fill:none;stroke:#000;stroke-width:2" d="M663,671 l152,0 0,31 -152,0 0,-31" />
<path style="fill:none;stroke:#000;stroke-width:2" d="M274,671 l152,0 0,31 -152,0 0,-31" />

</svg>
