<?xml version="1.0" encoding="utf-8" standalone="no"?><!DOCTYPE svg PUBLIC "-//W3C//DTD SVG 1.1//EN" "http://www.w3.org/Graphics/SVG/1.1/DTD/svg11-flat-20030114.dtd"><svg width="993" height="556" version="1.1" xmlns="http://www.w3.org/2000/svg" xmlns:xlink="http://www.w3.org/1999/xlink">

<path style="fill:#7f7f7f" d="M28,403 l250,62 0,63 625,0 62,-63 0,-375 -62,-62 -625,0 0,62 -250,63 0,250z" />
<path style="fill:#b2b2b2" d="M28,372 l250,46 0,47 625,0 62,-47 0,-281 -62,-46 -625,0 0,46 -250,47 0,188z" />
<path style="fill:#e5e5e5" d="M28,309 l250,16 0,15 625,0 62,-15 0,-94 -62,-15 -625,0 0,15 -250,16 0,62z" />
<path style="fill:none;stroke:#000;stroke-width:2" d="M28,403 l250,62 0,63 625,0 62,-63 0,-375 -62,-62 -625,0 0,62 -250,63 0,250" />
<path style="fill:none;stroke:#000;stroke-width:2" d="M278,465 l0,-375" />
<path style="fill:none;stroke:#000;stroke-width:2" d="M903,528 l0,-500" />
<path style="fill:none;stroke:#000;stroke-width:2" d="M340,528 l0,-500" />
<path style="fill:#7f7f7f;stroke:#000;stroke-width:2" d="M590,528 l0,-313 250,0 0,313 -250,0z" />
<path style="fill:none;stroke:#fff;stroke-width:2" d="M840,528 l0,-313 -250,0" />

</svg>
