<?xml version="1.0" encoding="utf-8" standalone="no"?><!DOCTYPE svg PUBLIC "-//W3C//DTD SVG 1.1//EN" "http://www.w3.org/Graphics/SVG/1.1/DTD/svg11-flat-20030114.dtd"><svg width="999" height="940" version="1.1" xmlns="http://www.w3.org/2000/svg" xmlns:xlink="http://www.w3.org/1999/xlink">

<path style="fill:#0ff;stroke:#000;stroke-width:2" d="M369,866 l33,15 35,12 36,9 36,6 24,2 13,1 12,0 42,-2 41,-6 39,-10 38,-14 36,-18 34,-20 32,-24 29,-27 27,-29 24,-32 20,-33 18,-37 14,-37 10,-40 6,-41 2,-21 0,-21 0,-15 -2,-29 -4,-30 -6,-28 -9,-28 -10,-27 -12,-26 -14,-26 -15,-24 -17,-23 -19,-22 -20,-21 -22,-20 -23,-17 -25,-16 -26,-15 -13,-7 -87,-43 -24,-12 -24,-11 -25,-10 -26,-7 -27,-6 -27,-4 -26,-3 -14,-1 -13,0 -42,2 -41,6 -39,10 -38,14 -36,18 -34,20 -32,24 -29,27 -27,29 -24,32 -20,34 -18,36 -14,38 -10,39 -6,41 -2,21 0,21 0,14 2,27 3,27 6,26 7,27 9,25 10,25 12,24 13,23 16,22 16,22 17,20 19,19 20,18 21,16 22,15 12,7 136,69z" />
<path style="fill:#000" d="M394,779 l59,-101 -25,-17 -22,-21 -19,-24 -16,-26 -11,-28 -7,-30 -3,-30 2,-31 6,-29 10,-28 10,-18 -102,-59 -7,14 -13,28 -11,30 -7,32 -4,31 -1,16 0,16 0,16 4,31 6,31 10,31 13,29 16,28 18,26 20,24 23,23 25,19 13,9 13,8z" />
<path style="fill:#000" d="M394,218 l60,102 27,-13 28,-9 31,-4 30,-1 30,4 29,9 28,13 25,16 23,20 20,23 5,9 6,8 101,-58 -17,-26 -20,-25 -22,-23 -25,-20 -25,-19 -28,-15 -29,-13 -31,-10 -31,-6 -31,-4 -16,-1 -16,0 -32,3 -31,6 -31,8 -29,12 -15,7 -14,7z" />
<path style="fill:#000" d="M880,499 l-117,0 -2,30 -7,29 -11,29 -15,26 -19,24 -22,21 -25,18 -27,13 -29,10 -30,5 -10,1 -10,0 0,118 32,-2 31,-5 31,-7 30,-11 29,-14 27,-16 26,-19 24,-21 21,-24 19,-25 16,-28 13,-29 11,-30 8,-30 5,-31 1,-16 0,-16z" />
<circle style="fill:none;stroke:#000;stroke-width:2" cx="558" cy="499" r="118" />
<path style="fill:#0ff;stroke:#000;stroke-width:2" d="M571,609 l10,5 10,3 11,2 6,0 5,0 9,0 9,-2 9,-2 9,-3 8,-4 7,-4 7,-6 7,-6 6,-6 5,-7 5,-8 4,-8 3,-8 2,-9 1,-9 1,-10 -1,-6 -1,-13 -4,-13 -5,-11 -7,-11 -8,-10 -10,-8 -11,-8 -6,-3 -46,-21 -10,-6 -11,-3 -12,-3 -6,-1 -6,0 -9,1 -9,1 -9,3 -9,2 -8,5 -7,4 -7,6 -7,5 -6,7 -5,7 -5,7 -4,8 -2,8 -3,9 -1,9 -1,9 0,6 2,13 3,12 5,10 6,11 7,9 9,9 9,7 5,3 56,28z" />
<path style="fill:none;stroke:#000;stroke-width:2" d="M261,786 l-115,-58" />
<path style="fill:none;stroke:#000;stroke-width:2" d="M569,87 l-115,-58" />
<path style="fill:none;stroke:#000;stroke-width:2" d="M432,106 l-117,-58" />
<path style="fill:none;stroke:#000;stroke-width:2" d="M341,149 l-117,-59" />
<path style="fill:none;stroke:#000;stroke-width:2" d="M272,203 l-116,-58" />
<path style="fill:none;stroke:#000;stroke-width:2" d="M220,265 l-116,-58" />
<path style="fill:none;stroke:#000;stroke-width:2" d="M180,334 l-116,-59" />
<path style="fill:none;stroke:#000;stroke-width:2" d="M155,409 l-117,-58" />
<path style="fill:none;stroke:#000;stroke-width:2" d="M146,492 l-118,-59" />
<path style="fill:none;stroke:#000;stroke-width:2" d="M154,584 l-116,-57" />
<path style="fill:none;stroke:#000;stroke-width:2" d="M193,693 l-114,-57" />
<path style="fill:none;stroke:#000;stroke-width:2" d="M743,130 l-32,-14 -34,-12 -35,-8 -37,-6 -24,-2 -11,-1 -12,0 -42,2 -41,6 -40,10 -37,14 -37,18 -34,20 -31,24 -29,27 -27,29 -24,32 -20,33 -18,37 -14,37 -10,40 -6,41 -2,21 0,21 0,14 1,27 4,27 6,27 7,27 9,25 10,25 13,24 13,24 15,22 16,21 18,21 20,19 20,17 22,17 23,15 12,7" />
<circle style="fill:none;stroke:#000;stroke-width:2" cx="613" cy="527" r="91" />

</svg>
