<?xml version="1.0" encoding="utf-8" standalone="no"?><!DOCTYPE svg PUBLIC "-//W3C//DTD SVG 1.1//EN" "http://www.w3.org/Graphics/SVG/1.1/DTD/svg11-flat-20030114.dtd"><svg width="999" height="656" version="1.1" xmlns="http://www.w3.org/2000/svg" xmlns:xlink="http://www.w3.org/1999/xlink">

<path style="fill:#999" d="M213,365 l-185,0 0,45 185,0 0,-45z" />
<path style="fill:#ccc" d="M213,377 l-185,0 0,20 185,0 0,-20z" />
<path style="fill:none;stroke:#000;stroke-width:2" d="M29,363 l184,0 0,47 -184,0 -1,-1 0,-1 0,-2 0,-3 0,-3 0,-4 0,-5 0,-5 0,-4 0,-4 0,-4 0,-4 0,-3 0,-2 0,-1 1,-1" />
<path style="fill:#7f7f7f" d="M212,202 l-1,1 -2,30 -1,30 -1,28 0,32 0,17 -1,9 0,9 0,66 1,35 0,32 1,27 1,32 2,22 1,1 0,0 0,0 2,0 662,0 0,-371 -662,0 -1,0 0,0 -1,0z" />
<path style="fill:#999" d="M212,242 l-1,0 -3,33 -1,31 -1,38 0,13 0,15 0,44 1,40 1,34 2,31 1,11 1,0 0,0 1,0 0,0 0,0 124,0 42,0 352,0 41,0 83,0 21,0 0,-9 0,-45 0,-37 0,-136 0,-36 0,-27 -124,0 -21,-1 -21,0 -352,0 -41,1 -105,0z" />
<path style="fill:#b2b2b2" d="M212,282 l-1,0 -3,31 -2,33 0,10 0,10 0,10 0,32 1,29 1,31 3,24 1,0 0,0 1,0 0,0 0,0 124,0 42,0 352,0 41,0 83,0 21,0 0,-6 0,-33 0,-33 0,-92 0,-33 0,-13 -124,0 -21,-1 -21,0 -352,0 -41,1 -105,0z" />
<path style="fill:#ccc" d="M212,322 l-1,0 -4,29 -1,23 0,6 0,7 1,31 3,29 1,5 1,0 0,0 1,0 0,0 0,0 124,0 41,0 353,0 41,0 83,0 21,0 0,-8 0,-33 0,-57 0,-32 -125,0 -20,0 -21,0 -352,0 -42,0 -104,0z" />
<path style="fill:#e5e5e5" d="M213,362 l-2,1 -1,1 -1,2 -1,3 -1,4 -1,4 0,5 0,5 0,5 0,5 1,4 1,4 1,3 1,2 1,2 2,0 0,0 663,0 0,-50 -663,0 0,0z" />
<path style="fill:none;stroke:#000;stroke-width:2" d="M213,201 l-1,1 -3,31 -1,29 -1,29 -1,32 0,27 0,9 0,9 0,47 0,36 1,32 1,29 1,29 2,28 1,3 1,1 0,0 0,0 0,0 663,0 0,-372 -663,0 0,0 0,0" />
<path style="fill:#7f7f7f;stroke:#000;stroke-width:2" d="M873,190 l0,0 -4,29 -1,29 -1,29 -1,34 0,36 -1,10 0,10 0,49 1,29 0,35 1,31 2,33 2,30 2,8 0,1 0,2 68,0 21,-19 1,-5 0,-348 -18,-23 -4,0 -68,0z" />
<path style="fill:#e5e5e5;stroke:#000;stroke-width:2" d="M443,318 l-3,0 -4,0 -4,0 -111,0 -10,2 -8,6 -5,7 -2,9 -1,13 0,13 -1,13 0,13 0,4 0,5 0,4 0,13 0,13 1,14 0,13 1,13 0,14 4,8 7,6 9,3 5,1 4,0 118,0 10,-2 7,-5 5,-7 1,-4 1,-5 -1,-5 0,-13 -1,-13 0,-13 0,-53 0,-13 1,-13 0,-13 -1,-13 -5,-7 -7,-6 -10,-2z" />
<path style="fill:#999" d="M873,231 l-1,0 -3,27 -2,30 -1,32 -1,28 0,7 0,8 0,8 0,39 1,30 1,33 1,28 2,28 2,12 1,1 0,0 0,1 0,0 4,0 30,0 29,0 25,-12 1,-3 1,-3 0,-9 0,-43 -1,-34 0,-130 1,-34 -1,-29 -21,-15 -13,0 -4,0 -5,0 -29,0 -17,0 0,0 0,0z" />
<path style="fill:#b2b2b2" d="M873,272 l-3,9 -1,11 -1,14 -1,17 -1,10 0,9 0,11 0,11 -1,11 0,12 0,11 1,12 0,11 0,10 0,10 1,10 1,16 1,14 1,11 2,8 1,1 0,0 0,0 0,1 4,0 13,0 33,0 13,0 13,-1 10,-6 3,-4 1,-3 0,-6 0,-32 0,-13 0,-107 0,-13 0,-31 -7,-9 -11,-4 -13,-1 -4,0 -5,0 -4,0 -29,0 -13,0 -4,0 0,0 0,0z" />
<path style="fill:#ccc" d="M873,313 l-1,2 -3,11 -1,9 -1,11 -1,12 0,14 -1,7 0,8 1,14 0,14 1,13 1,10 1,9 2,10 1,2 1,1 0,0 0,0 0,0 4,0 13,0 33,0 13,0 13,0 10,-4 4,-3 0,-1 0,-8 0,-17 0,-16 0,-57 0,-16 0,-16 0,-1 -10,-6 -13,-2 -12,0 -5,0 -4,0 -29,0 -13,0 -4,0 0,0 0,0z" />
<path style="fill:#e5e5e5" d="M873,355 l-1,1 -4,8 -2,11 0,12 0,13 2,10 4,9 1,0 72,0 12,-1 6,-2 0,0 0,-57 0,-1 -10,-2 -8,-1 -72,0z" />
<ellipse style="fill:#b2b2b2;stroke:#000;stroke-width:2" cx="963" cy="387" rx="6" ry="176" />
<path style="fill:#7f7f7f;stroke:#000;stroke-width:2" d="M649,573 l-290,0 0,43 290,0 0,-43z" />
<path style="fill:#7f7f7f;stroke:#000;stroke-width:2" d="M645,628 l-288,0 2,-12 290,0 -4,12z" />
<path style="fill:#ccc;stroke:#000;stroke-width:2" d="M844,28 l-454,0 0,224 454,0 0,-224z" />
<path style="fill:none;stroke:#fff;stroke-width:2" d="M821,221 l0,-169 -411,0" />
<path style="fill:none;stroke:#000;stroke-width:2" d="M230,200 l-1,1 -3,27 -1,28 -1,28 -1,32 0,35 -1,9 0,9 0,48 1,36 1,33 0,29 2,30 2,28 1,4 1,0" />

</svg>
