<?xml version="1.0" encoding="utf-8" standalone="no"?><!DOCTYPE svg PUBLIC "-//W3C//DTD SVG 1.1//EN" "http://www.w3.org/Graphics/SVG/1.1/DTD/svg11-flat-20030114.dtd"><svg width="999" height="821" version="1.1" xmlns="http://www.w3.org/2000/svg" xmlns:xlink="http://www.w3.org/1999/xlink">

<path style="fill:#43a143;fill-rule:evenodd" d="M687,750 l-417,0 0,43 417,0 0,-43z M221,176 l33,-23 0,382 -33,-23 0,-336z M286,106 l-32,0 0,476 32,0 0,-476z M283,88 l216,0 0,662 -216,0 0,-662z M551,28 l-52,0 0,722 52,0 0,-722z M687,28 l0,633 -136,0 0,-633 136,0z M735,28 l-48,0 0,633 48,0 0,-633z M735,342 l188,0 0,-211 -188,0 0,211z M885,174 l-117,0 -6,2 -7,2 -2,5 -3,4 0,72 3,4 2,5 7,2 6,0 117,0 7,0 6,-2 5,-5 2,-4 0,-72 -2,-4 -5,-5 -6,-2 -7,-2z M970,50 l-47,0 0,588 47,0 0,-588z " />
<path style="fill:none;stroke:#000;stroke-width:2" d="M687,750 l-417,0 0,43 417,0 0,-43" />
<path style="fill:none;stroke:#000;stroke-width:2" d="M221,176 l33,-23 0,382 -33,-23 0,-336" />
<path style="fill:none;stroke:#000;stroke-width:2" d="M286,106 l-32,0 0,476 32,0 0,-476" />
<path style="fill:none;stroke:#000;stroke-width:2" d="M283,88 l216,0 0,662 -216,0 0,-662" />
<path style="fill:none;stroke:#000;stroke-width:2" d="M551,28 l-52,0 0,722 52,0 0,-722" />
<path style="fill:none;stroke:#000;stroke-width:2" d="M551,28 l136,0 0,633 -136,0 0,-633" />
<path style="fill:none;stroke:#000;stroke-width:2" d="M735,28 l-48,0 0,633 48,0 0,-633" />
<path style="fill:none;stroke:#000;stroke-width:2" d="M735,342 l188,0 0,-211 -188,0 0,211" />
<path style="fill:none;stroke:#000;stroke-width:2" d="M885,174 l-117,0 -6,2 -7,2 -2,5 -3,4 0,72 3,4 2,5 7,2 6,0 117,0 7,0 6,-2 5,-5 2,-4 0,-72 -2,-4 -5,-5 -6,-2 -7,-2" />
<path style="fill:none;stroke:#000;stroke-width:2" d="M970,50 l-47,0 0,588 47,0 0,-588" />
<path style="fill:#005e00;fill-rule:evenodd" d="M968,535 l-45,0 0,103 45,0 0,-103z M923,353 l-188,0 0,204 188,0 0,-204z M885,407 l-117,0 -6,2 -7,2 -2,5 -3,4 0,72 3,5 2,4 7,2 6,3 117,0 7,-3 6,-2 5,-4 2,-5 0,-72 -2,-4 -5,-5 -6,-2 -7,-2z M730,589 l-40,0 0,72 40,0 0,-72z M557,589 l124,0 0,72 -124,0 0,-72z M286,530 l-29,0 0,52 29,0 0,-52z " />
<path style="fill:#82e082" d="M283,113 l-22,0 0,34 22,0 0,-34z" />
<path style="fill:#82e082" d="M290,104 l204,0 0,52 -204,0 0,-52z" />
<path style="fill:#82e082" d="M548,46 l-47,0 0,58 47,0 0,-58z" />
<path style="fill:#82e082" d="M555,39 l128,0 0,72 -128,0 0,-72z" />
<path style="fill:#82e082" d="M730,39 l-40,0 0,72 40,0 0,-72z" />
<path style="fill:#82e082" d="M735,326 l188,0 0,36 -188,0 0,-36z" />
<path style="fill:#82e082" d="M968,63 l-45,0 0,75 45,0 0,-75z" />
<path style="fill:#7f7f7f;stroke:#000;stroke-width:2" d="M254,138 l-15,0 0,6 15,0 0,-6z" />
<path style="fill:#7f7f7f;stroke:#000;stroke-width:2" d="M254,313 l-15,0 0,6 15,0 0,-6z" />
<path style="fill:#7f7f7f;stroke:#000;stroke-width:2" d="M254,497 l-15,0 0,9 15,0 0,-9z" />
<path style="fill:#7f7f7f;stroke:#000;stroke-width:2" d="M497,72 l-25,0 0,14 25,0 0,-14z" />
<path style="fill:#7f7f7f;stroke:#000;stroke-width:2" d="M497,335 l-25,0 0,14 25,0 0,-14z" />
<path style="fill:#7f7f7f;stroke:#000;stroke-width:2" d="M497,589 l-25,0 0,13 25,0 0,-13z" />
<path style="fill:#7f7f7f;stroke:#000;stroke-width:2" d="M759,72 l-24,0 0,14 24,0 0,-14z" />
<path style="fill:#7f7f7f;stroke:#000;stroke-width:2" d="M759,335 l-24,0 0,14 24,0 0,-14z" />
<path style="fill:#7f7f7f;stroke:#000;stroke-width:2" d="M759,589 l-24,0 0,13 24,0 0,-13z" />
<path style="fill:#7f7f7f;stroke:#000;stroke-width:2" d="M221,272 l-193,0 0,130 193,0 0,-130z" />
<path style="fill:#f0f0f0" d="M221,279 l-191,0 0,101 191,0 0,-101z" />
<path style="fill:#f0f0f0" d="M254,117 l-15,0 0,5 15,0 0,-5z" />
<path style="fill:#f0f0f0" d="M254,292 l-15,0 0,7 15,0 0,-7z" />
<path style="fill:#f0f0f0" d="M254,476 l-15,0 0,7 15,0 0,-7z" />
<path style="fill:#f0f0f0" d="M497,553 l-25,0 0,11 25,0 0,-11z" />
<path style="fill:#f0f0f0" d="M759,553 l-24,0 0,11 24,0 0,-11z" />
<path style="fill:#f0f0f0" d="M497,299 l-25,0 0,12 25,0 0,-12z" />
<path style="fill:#f0f0f0" d="M759,299 l-24,0 0,12 24,0 0,-12z" />
<path style="fill:#f0f0f0" d="M497,37 l-25,0 0,11 25,0 0,-11z" />
<path style="fill:#f0f0f0" d="M759,37 l-24,0 0,11 24,0 0,-11z" />
<path style="fill:#fff" d="M221,286 l-191,0 0,18 191,0 0,-18z" />
<path style="fill:#b2b2b2;stroke:#000;stroke-width:2" d="M254,138 l-15,0 0,-16 15,0 0,16z" />
<path style="fill:#b2b2b2;stroke:#000;stroke-width:2" d="M254,313 l-15,0 0,-14 15,0 0,14z" />
<path style="fill:#b2b2b2;stroke:#000;stroke-width:2" d="M254,497 l-15,0 0,-14 15,0 0,14z" />
<path style="fill:#b2b2b2;stroke:#000;stroke-width:2" d="M497,589 l-25,0 0,-25 25,0 0,25z" />
<path style="fill:#b2b2b2;stroke:#000;stroke-width:2" d="M759,589 l-24,0 0,-25 24,0 0,25z" />
<path style="fill:#b2b2b2;stroke:#000;stroke-width:2" d="M497,335 l-25,0 0,-24 25,0 0,24z" />
<path style="fill:#b2b2b2;stroke:#000;stroke-width:2" d="M759,335 l-24,0 0,-24 24,0 0,24z" />
<path style="fill:#b2b2b2;stroke:#000;stroke-width:2" d="M497,72 l-25,0 0,-24 25,0 0,24z" />
<path style="fill:#b2b2b2;stroke:#000;stroke-width:2" d="M759,72 l-24,0 0,-24 24,0 0,24z" />

</svg>
