<?xml version="1.0" encoding="utf-8" standalone="no"?><!DOCTYPE svg PUBLIC "-//W3C//DTD SVG 1.1//EN" "http://www.w3.org/Graphics/SVG/1.1/DTD/svg11-flat-20030114.dtd"><svg width="998" height="712" version="1.1" xmlns="http://www.w3.org/2000/svg" xmlns:xlink="http://www.w3.org/1999/xlink">

<path style="fill:#000;stroke:#000;stroke-width:2" d="M909,28 l-553,0 0,655 553,0 20,-20 0,-62 41,-41 0,-410 -41,-41 0,-61 -20,-20z" />
<path style="fill:#333;stroke:#000;stroke-width:2" d="M458,151 l512,0 0,409 -512,0 0,123 -102,0 0,-655 102,0 0,123z" />
<path style="fill:none;stroke:#7f7f7f;stroke-width:2" d="M929,110 l-471,0" />
<path style="fill:none;stroke:#7f7f7f;stroke-width:2" d="M929,601 l-471,0" />
<path style="fill:#e5e5e5;stroke:#000;stroke-width:2" d="M356,683 l-41,-41 0,-573 41,-41 0,655z" />
<path style="fill:#7f7f7f;stroke:#000;stroke-width:2" d="M315,540 l10,0 2,-1 10,-31 4,-35 2,-30 1,-33 1,-17 0,-19 0,-18 0,-37 -1,-35 -2,-31 -3,-28 -4,-32 -8,-21 -2,-1 -10,0 -2,1 -10,31 -4,36 -2,29 -2,33 -1,18 0,18 0,19 0,36 2,35 2,31 2,27 5,32 8,22 2,1z" />
<ellipse style="fill:#333;stroke:#000;stroke-width:2" cx="314" cy="355" rx="20" ry="184" />
<ellipse style="fill:#000;stroke:#000;stroke-width:2" cx="314" cy="355" rx="5" ry="51" />
<path style="fill:#ccc;stroke:#000;stroke-width:2" d="M264,403 l49,0 1,-1 2,-13 2,-15 0,-9 0,-19 0,-9 -2,-16 -1,-10 -1,-2 -1,-1 -49,0 -1,1 -3,13 -1,15 0,9 0,19 0,9 1,15 2,10 1,3 1,1z" />
<path style="fill:none;stroke:#000;stroke-width:2" d="M264,403 l1,-2 1,-2 1,-5 1,-6 0,-7 1,-8 0,-9 0,-9 0,-9 0,-9 -1,-8 0,-8 -1,-5 -1,-5 -1,-2 -1,-1" />
<path style="fill:#7f7f7f;stroke:#000;stroke-width:2" d="M33,402 l231,0 1,-1 1,-1 0,-2 1,-2 0,-3 1,-4 0,-4 0,-4 -231,0 -1,4 -1,4 0,4 -1,3 0,2 0,2 -1,1 0,1z" />
<path style="fill:#e5e5e5;stroke:#000;stroke-width:2" d="M38,381 l230,0 1,-9 0,-6 0,-22 0,-11 -1,-6 -230,0 0,13 0,12 0,14 0,9 0,6z" />
<path style="fill:#b2b2b2;stroke:#000;stroke-width:2" d="M38,327 l230,0 0,-5 -1,-3 0,-3 -1,-3 0,-2 -1,-2 0,-1 -1,0 -230,0 0,0 1,1 0,2 1,2 0,3 1,3 0,3 1,5z" />
<ellipse style="fill:#ccc;stroke:#000;stroke-width:2" cx="33" cy="355" rx="5" ry="47" />
<path style="fill:#000;stroke:#000;stroke-width:2" d="M33,334 l-2,10 0,7 0,9 0,11 2,7 3,-10 0,-8 0,-9 -1,-11 -2,-6z" />
<path style="fill:#b2b2b2" d="M270,400 l1,0 0,0 1,-2 1,-4 1,-5 0,-6 1,-6 0,-8 0,-8 40,0 -1,8 0,8 -1,6 0,6 -1,5 -1,4 0,2 -1,0 -40,0z" />
<ellipse style="fill:#000;stroke:#000;stroke-width:2" cx="322" cy="636" rx="3" ry="6" />
<path style="fill:#000;stroke:#000;stroke-width:2" d="M345,663 l-2,-1 -3,-7 2,-10 1,-2 2,-1 2,1 3,8 -1,9 -2,2 -2,1z" />
<ellipse style="fill:#000;stroke:#000;stroke-width:2" cx="322" cy="74" rx="3" ry="5" />
<path style="fill:#000;stroke:#000;stroke-width:2" d="M345,48 l-2,1 -3,7 2,9 1,3 2,0 2,0 3,-8 -1,-9 -2,-2 -2,-1z" />
<ellipse style="fill:#c93;stroke:#000;stroke-width:2" cx="322" cy="100" rx="2" ry="6" />
<path style="fill:#c93;stroke:#000;stroke-width:2" d="M345,79 l-2,0 -3,8 2,9 1,2 2,1 2,-1 3,-7 -1,-10 -2,-2 -2,0z" />
<ellipse style="fill:#c93;stroke:#000;stroke-width:2" cx="322" cy="611" rx="2" ry="6" />
<path style="fill:#c93;stroke:#000;stroke-width:2" d="M345,632 l-2,0 -3,-8 2,-9 1,-2 2,-1 2,1 3,7 -1,9 -2,3 -2,0z" />

</svg>
