<?xml version="1.0" encoding="utf-8" standalone="no"?><!DOCTYPE svg PUBLIC "-//W3C//DTD SVG 1.1//EN" "http://www.w3.org/Graphics/SVG/1.1/DTD/svg11-flat-20030114.dtd"><svg width="697" height="999" version="1.1" xmlns="http://www.w3.org/2000/svg" xmlns:xlink="http://www.w3.org/1999/xlink">

<path style="fill:#7f7f7f" d="M171,970 l498,-859 -144,-83 -497,859 143,83z" />
<path style="fill:#999" d="M162,965 l497,-860 -126,-73 -496,861 125,72z" />
<path style="fill:#b2b2b2" d="M147,955 l497,-859 -96,-55 -496,859 95,55z" />
<path style="fill:#ccc" d="M133,948 l496,-860 -66,-38 -496,860 66,38z" />
<path style="fill:#e5e5e5" d="M120,940 l498,-859 -44,-25 -495,860 41,24z" />
<path style="fill:#fff" d="M109,933 l496,-860 -17,-9 -496,859 17,10z" />
<path style="fill:none;stroke:#000;stroke-width:2" d="M28,887 l497,-859" />
<path style="fill:none;stroke:#000;stroke-width:2" d="M669,111 l-498,859" />

</svg>
