<?xml version="1.0" encoding="utf-8" standalone="no"?><!DOCTYPE svg PUBLIC "-//W3C//DTD SVG 1.1//EN" "http://www.w3.org/Graphics/SVG/1.1/DTD/svg11-flat-20030114.dtd"><svg width="843" height="999" version="1.1" xmlns="http://www.w3.org/2000/svg" xmlns:xlink="http://www.w3.org/1999/xlink">

<path style="fill:#7f7f7f" d="M392,970 l423,-731 -366,-211 -421,731 364,211z" />
<path style="fill:#999" d="M370,958 l422,-731 -320,-187 -423,731 321,187z" />
<path style="fill:#b2b2b2" d="M331,935 l422,-731 -243,-141 -422,731 243,141z" />
<path style="fill:#ccc" d="M294,914 l423,-733 -170,-97 -421,733 168,97z" />
<path style="fill:#e5e5e5" d="M264,896 l423,-731 -108,-63 -423,733 108,61z" />
<path style="fill:#fff" d="M232,879 l423,-733 -46,-25 -421,731 44,27z" />
<path style="fill:none;stroke:#000;stroke-width:2" d="M28,759 l421,-731" />
<path style="fill:none;stroke:#000;stroke-width:2" d="M815,239 l-423,731" />

</svg>
