<?xml version="1.0" encoding="utf-8" standalone="no"?><!DOCTYPE svg PUBLIC "-//W3C//DTD SVG 1.1//EN" "http://www.w3.org/Graphics/SVG/1.1/DTD/svg11-flat-20030114.dtd"><svg width="530" height="530" version="1.1" xmlns="http://www.w3.org/2000/svg" xmlns:xlink="http://www.w3.org/1999/xlink">

<path style="fill:#7f7f7f" d="M410,15 l-395,395 105,105 395,-395 -105,-105z" />
<path style="fill:#999" d="M416,21 l-395,396 92,92 395,-395 -92,-93z" />
<path style="fill:#b2b2b2" d="M428,33 l-396,395 70,70 395,-396 -69,-69z" />
<path style="fill:#ccc" d="M438,43 l-395,396 48,48 395,-395 -48,-49z" />
<path style="fill:#e5e5e5" d="M447,52 l-395,395 30,31 396,-395 -31,-31z" />
<path style="fill:#fff" d="M456,61 l-395,395 13,13 395,-395 -13,-13z" />
<path style="fill:none;stroke:#000;stroke-width:2" d="M515,120 l-395,395" />
<path style="fill:none;stroke:#000;stroke-width:2" d="M15,410 l395,-395" />

</svg>
