<?xml version="1.0" encoding="utf-8" standalone="no"?><!DOCTYPE svg PUBLIC "-//W3C//DTD SVG 1.1//EN" "http://www.w3.org/Graphics/SVG/1.1/DTD/svg11-flat-20030114.dtd"><svg width="999" height="695" version="1.1" xmlns="http://www.w3.org/2000/svg" xmlns:xlink="http://www.w3.org/1999/xlink">

<path style="fill:#7f7f7f" d="M111,667 l859,-496 -83,-143 -859,496 83,143z" />
<path style="fill:#999" d="M105,659 l860,-497 -72,-125 -860,496 72,126z" />
<path style="fill:#b2b2b2" d="M96,644 l861,-497 -57,-95 -859,496 55,96z" />
<path style="fill:#ccc" d="M88,629 l860,-498 -38,-64 -860,496 38,66z" />
<path style="fill:#e5e5e5" d="M81,618 l861,-498 -25,-41 -859,495 23,44z" />
<path style="fill:#fff" d="M75,605 l859,-496 -11,-19 -859,498 11,17z" />
<path style="fill:none;stroke:#000;stroke-width:2" d="M28,524 l859,-496" />
<path style="fill:none;stroke:#000;stroke-width:2" d="M970,171 l-859,496" />

</svg>
