<?xml version="1.0" encoding="utf-8" standalone="no"?><!DOCTYPE svg PUBLIC "-//W3C//DTD SVG 1.1//EN" "http://www.w3.org/Graphics/SVG/1.1/DTD/svg11-flat-20030114.dtd"><svg width="999" height="844" version="1.1" xmlns="http://www.w3.org/2000/svg" xmlns:xlink="http://www.w3.org/1999/xlink">

<path style="fill:#7f7f7f" d="M239,816 l731,-423 -211,-365 -731,422 211,366z" />
<path style="fill:#999" d="M226,793 l731,-422 -185,-321 -731,423 185,320z" />
<path style="fill:#b2b2b2" d="M203,753 l731,-422 -141,-243 -729,422 139,243z" />
<path style="fill:#ccc" d="M182,718 l732,-423 -98,-169 -732,422 98,170z" />
<path style="fill:#e5e5e5" d="M165,687 l730,-422 -60,-107 -732,422 62,107z" />
<path style="fill:#fff" d="M147,655 l731,-422 -27,-45 -731,422 27,45z" />
<path style="fill:none;stroke:#000;stroke-width:2" d="M28,450 l731,-422" />
<path style="fill:none;stroke:#000;stroke-width:2" d="M970,393 l-731,423" />

</svg>
