<?xml version="1.0" encoding="utf-8" standalone="no"?><!DOCTYPE svg PUBLIC "-//W3C//DTD SVG 1.1//EN" "http://www.w3.org/Graphics/SVG/1.1/DTD/svg11-flat-20030114.dtd"><svg width="332" height="378" version="1.1" xmlns="http://www.w3.org/2000/svg" xmlns:xlink="http://www.w3.org/1999/xlink">

<path style="fill:#7f7f7f" d="M10,243 l0,125 250,0 0,-125 -250,0z" />
<path style="fill:#999" d="M25,243 l0,125 220,0 0,-125 -220,0z" />
<path style="fill:#b2b2b2" d="M52,243 l0,125 166,0 0,-125 -166,0z" />
<path style="fill:#ccc" d="M77,243 l0,125 115,0 0,-125 -115,0z" />
<path style="fill:#e5e5e5" d="M98,243 l0,125 73,0 0,-125 -73,0z" />
<path style="fill:#fff" d="M119,243 l0,125 31,0 0,-125 -31,0z" />
<path style="fill:none;stroke:#000;stroke-width:2" d="M260,243 l0,125" />
<path style="fill:none;stroke:#000;stroke-width:2" d="M10,368 l0,-125" />
<path style="fill:#7f7f7f" d="M260,243 l-217,-124 -8,14 -6,15 -6,15 -5,16 -3,16 -3,16 -1,16 -1,16 250,0z" />
<path style="fill:#999" d="M260,243 l-204,-117 -7,13 -6,14 -6,15 -4,15 -3,15 -3,15 -1,15 -1,15 235,0z" />
<path style="fill:#b2b2b2" d="M260,243 l-181,-104 -6,12 -6,12 -5,13 -4,13 -3,14 -2,13 -2,14 0,13 209,0z" />
<path style="fill:#ccc" d="M260,243 l-158,-91 -6,10 -5,11 -4,11 -4,12 -2,12 -2,11 -2,12 0,12 183,0z" />
<path style="fill:#e5e5e5" d="M260,243 l-140,-80 -5,9 -4,10 -4,10 -3,10 -3,10 -2,10 -1,11 0,10 162,0z" />
<path style="fill:#fff" d="M260,243 l-122,-70 -4,8 -4,8 -3,9 -3,9 -2,9 -2,9 -1,9 0,9 141,0z" />
<path style="fill:#e5e5e5" d="M260,243 l-95,-54 -4,6 -3,7 -2,6 -2,7 -2,7 -1,7 -1,7 0,7 110,0z" />
<path style="fill:#ccc" d="M260,243 l-77,-44 -3,5 -2,5 -2,6 -2,5 -1,6 -1,6 -1,5 0,6 89,0z" />
<path style="fill:#b2b2b2" d="M260,243 l-59,-33 -2,4 -2,4 -1,4 -2,4 -1,4 0,5 -1,4 0,4 68,0z" />
<path style="fill:#999" d="M260,243 l-37,-20 -2,5 -2,5 -1,5 0,5 42,0z" />
<path style="fill:#7f7f7f" d="M260,243 l-14,-7 -1,2 0,1 -1,2 0,2 16,0z" />
<path style="fill:#7f7f7f" d="M105,10 l-62,108 217,126 62,-109 -217,-125z" />
<path style="fill:#999" d="M119,18 l-63,108 190,110 63,-108 -190,-110z" />
<path style="fill:#b2b2b2" d="M142,31 l-63,108 145,84 62,-108 -144,-84z" />
<path style="fill:#ccc" d="M164,44 l-62,108 99,58 63,-108 -100,-58z" />
<path style="fill:#e5e5e5" d="M182,54 l-63,108 64,37 62,-108 -63,-37z" />
<path style="fill:#fff" d="M200,65 l-62,108 26,16 63,-109 -27,-15z" />
<path style="fill:none;stroke:#000;stroke-width:2" d="M322,135 l-62,109" />
<path style="fill:none;stroke:#000;stroke-width:2" d="M43,118 l62,-108" />
<path style="fill:none;stroke:#000;stroke-width:2" d="M43,119 l-8,14 -6,15 -6,15 -5,16 -3,16 -3,16 -1,16 -1,16" />

</svg>
