<?xml version="1.0" encoding="utf-8" standalone="no"?><!DOCTYPE svg PUBLIC "-//W3C//DTD SVG 1.1//EN" "http://www.w3.org/Graphics/SVG/1.1/DTD/svg11-flat-20030114.dtd"><svg width="333" height="378" version="1.1" xmlns="http://www.w3.org/2000/svg" xmlns:xlink="http://www.w3.org/1999/xlink">

<path style="fill:#7f7f7f" d="M323,135 l0,-125 -251,0 0,125 251,0z" />
<path style="fill:#999" d="M307,135 l0,-125 -220,0 0,125 220,0z" />
<path style="fill:#b2b2b2" d="M280,135 l0,-125 -166,0 0,125 166,0z" />
<path style="fill:#ccc" d="M255,135 l0,-125 -115,0 0,125 115,0z" />
<path style="fill:#e5e5e5" d="M234,135 l0,-125 -73,0 0,125 73,0z" />
<path style="fill:#fff" d="M213,135 l0,-125 -31,0 0,125 31,0z" />
<path style="fill:none;stroke:#000;stroke-width:2" d="M72,135 l0,-125" />
<path style="fill:none;stroke:#000;stroke-width:2" d="M323,10 l0,125" />
<path style="fill:#7f7f7f" d="M73,135 l216,125 8,-14 7,-15 5,-15 5,-16 4,-16 3,-17 1,-16 1,-16 -250,0z" />
<path style="fill:#999" d="M73,135 l203,117 7,-13 6,-14 6,-15 4,-15 3,-15 3,-15 1,-15 1,-15 -234,0z" />
<path style="fill:#b2b2b2" d="M73,135 l180,104 6,-12 6,-12 5,-13 4,-13 3,-13 2,-14 2,-13 0,-14 -208,0z" />
<path style="fill:#ccc" d="M73,135 l158,91 5,-10 5,-11 4,-11 4,-12 2,-12 2,-12 2,-11 0,-12 -182,0z" />
<path style="fill:#e5e5e5" d="M73,135 l140,80 5,-9 4,-10 4,-9 3,-11 2,-10 2,-10 1,-11 0,-10 -161,0z" />
<path style="fill:#fff" d="M73,135 l122,70 4,-8 4,-8 3,-9 2,-9 2,-9 2,-9 1,-9 0,-9 -140,0z" />
<path style="fill:#e5e5e5" d="M73,135 l94,54 4,-6 3,-7 2,-6 2,-7 2,-7 1,-7 1,-7 0,-7 -109,0z" />
<path style="fill:#ccc" d="M73,135 l76,44 3,-5 2,-5 2,-6 2,-5 1,-6 1,-6 1,-5 0,-6 -88,0z" />
<path style="fill:#b2b2b2" d="M73,135 l58,34 2,-4 2,-4 1,-4 2,-5 1,-4 0,-4 1,-5 0,-4 -67,0z" />
<path style="fill:#999" d="M73,135 l36,21 2,-5 2,-6 1,-5 0,-5 -41,0z" />
<path style="fill:#7f7f7f" d="M73,135 l13,8 1,-2 1,-2 0,-2 0,-2 -15,0z" />
<path style="fill:#7f7f7f" d="M227,368 l62,-108 -216,-125 -63,108 217,125z" />
<path style="fill:#999" d="M214,360 l62,-108 -190,-110 -63,109 191,109z" />
<path style="fill:#b2b2b2" d="M190,347 l63,-108 -145,-84 -62,109 144,83z" />
<path style="fill:#ccc" d="M168,334 l63,-108 -100,-58 -62,109 99,57z" />
<path style="fill:#e5e5e5" d="M151,324 l62,-108 -64,-37 -62,108 64,37z" />
<path style="fill:#fff" d="M132,313 l62,-108 -26,-15 -63,108 27,15z" />
<path style="fill:none;stroke:#000;stroke-width:2" d="M10,243 l63,-108" />
<path style="fill:none;stroke:#000;stroke-width:2" d="M289,260 l-62,108" />
<path style="fill:none;stroke:#000;stroke-width:2" d="M289,260 l8,-14 7,-15 5,-15 5,-16 4,-16 3,-17 1,-16 1,-16" />

</svg>
