<?xml version="1.0" encoding="utf-8" standalone="no"?><!DOCTYPE svg PUBLIC "-//W3C//DTD SVG 1.1//EN" "http://www.w3.org/Graphics/SVG/1.1/DTD/svg11-flat-20030114.dtd"><svg width="999" height="697" version="1.1" xmlns="http://www.w3.org/2000/svg" xmlns:xlink="http://www.w3.org/1999/xlink">

<path style="fill:#7f7f7f" d="M970,525 l-859,-497 -83,143 859,498 83,-144z" />
<path style="fill:#999" d="M965,535 l-860,-498 -73,126 861,496 72,-124z" />
<path style="fill:#b2b2b2" d="M955,550 l-859,-498 -55,96 859,496 55,-94z" />
<path style="fill:#ccc" d="M948,563 l-860,-496 -38,66 860,496 38,-66z" />
<path style="fill:#e5e5e5" d="M940,576 l-859,-497 -25,43 860,496 24,-42z" />
<path style="fill:#fff" d="M933,588 l-860,-496 -9,17 859,496 10,-17z" />
<path style="fill:none;stroke:#000;stroke-width:2" d="M887,669 l-859,-498" />
<path style="fill:none;stroke:#000;stroke-width:2" d="M111,28 l859,497" />

</svg>
