<?xml version="1.0" encoding="utf-8" standalone="no"?><!DOCTYPE svg PUBLIC "-//W3C//DTD SVG 1.1//EN" "http://www.w3.org/Graphics/SVG/1.1/DTD/svg11-flat-20030114.dtd"><svg width="999" height="843" version="1.1" xmlns="http://www.w3.org/2000/svg" xmlns:xlink="http://www.w3.org/1999/xlink">

<path style="fill:#7f7f7f" d="M970,451 l-731,-423 -211,366 731,421 211,-364z" />
<path style="fill:#999" d="M958,473 l-731,-422 -187,320 731,423 187,-321z" />
<path style="fill:#b2b2b2" d="M935,512 l-731,-423 -141,244 731,422 141,-243z" />
<path style="fill:#ccc" d="M914,549 l-733,-423 -97,170 733,421 97,-168z" />
<path style="fill:#e5e5e5" d="M896,579 l-731,-423 -63,108 733,423 61,-108z" />
<path style="fill:#fff" d="M879,611 l-733,-423 -25,46 731,421 27,-44z" />
<path style="fill:none;stroke:#000;stroke-width:2" d="M759,815 l-731,-421" />
<path style="fill:none;stroke:#000;stroke-width:2" d="M239,28 l731,423" />

</svg>
