<?xml version="1.0" encoding="utf-8" standalone="no"?><!DOCTYPE svg PUBLIC "-//W3C//DTD SVG 1.1//EN" "http://www.w3.org/Graphics/SVG/1.1/DTD/svg11-flat-20030114.dtd"><svg width="412" height="361" version="1.1" xmlns="http://www.w3.org/2000/svg" xmlns:xlink="http://www.w3.org/1999/xlink">

<path style="fill:#7f7f7f" d="M401,261 l-125,0 0,-250 125,0 0,250z" />
<path style="fill:#999" d="M401,245 l-125,0 0,-219 125,0 0,219z" />
<path style="fill:#b2b2b2" d="M401,218 l-125,0 0,-166 125,0 0,166z" />
<path style="fill:#ccc" d="M401,193 l-125,0 0,-115 125,0 0,115z" />
<path style="fill:#e5e5e5" d="M401,173 l-125,0 0,-74 125,0 0,74z" />
<path style="fill:#fff" d="M401,151 l-125,0 0,-31 125,0 0,31z" />
<path style="fill:none;stroke:#000;stroke-width:2" d="M401,11 l-125,0" />
<path style="fill:none;stroke:#000;stroke-width:2" d="M276,261 l125,0" />
<path style="fill:#7f7f7f" d="M276,261 l-177,-177 9,-8 9,-8 10,-8 10,-7 10,-6 11,-6 11,-6 11,-5 12,-4 12,-4 11,-3 12,-3 12,-2 13,-2 12,-1 12,0 0,250z" />
<path style="fill:#999" d="M276,261 l-166,-166 8,-8 9,-7 9,-7 9,-7 10,-6 10,-6 11,-5 10,-5 11,-4 11,-4 11,-3 11,-2 12,-2 11,-2 12,-1 11,0 0,235z" />
<path style="fill:#b2b2b2" d="M276,261 l-147,-147 15,-14 16,-12 18,-11 18,-9 19,-7 20,-5 20,-3 21,-1 0,209z" />
<path style="fill:#ccc" d="M276,261 l-129,-129 13,-12 15,-11 15,-9 16,-7 17,-6 17,-5 18,-2 18,-1 0,182z" />
<path style="fill:#e5e5e5" d="M276,261 l-114,-114 12,-11 12,-9 14,-8 14,-7 15,-6 16,-4 15,-2 16,-1 0,162z" />
<path style="fill:#fff" d="M276,261 l-100,-100 10,-9 11,-8 12,-7 13,-6 13,-5 13,-3 14,-2 14,-1 0,141z" />
<path style="fill:#e5e5e5" d="M276,261 l-77,-77 8,-7 8,-6 10,-6 9,-5 10,-3 11,-3 10,-1 11,-1 0,109z" />
<path style="fill:#ccc" d="M276,261 l-63,-63 7,-6 7,-5 7,-4 8,-4 8,-3 9,-2 8,-2 9,0 0,89z" />
<path style="fill:#b2b2b2" d="M276,261 l-48,-48 5,-4 5,-4 6,-4 6,-3 6,-2 7,-2 6,-1 7,0 0,68z" />
<path style="fill:#999" d="M276,261 l-29,-29 6,-5 7,-5 8,-2 8,-1 0,42z" />
<path style="fill:#7f7f7f" d="M276,261 l-11,-11 2,-2 3,-2 3,-1 3,0 0,16z" />
<path style="fill:none;stroke:#000;stroke-width:2" d="M99,84 l9,-8 9,-8 10,-8 10,-7 10,-6 11,-6 11,-6 11,-5 12,-4 12,-4 11,-3 12,-3 12,-2 13,-2 12,-1 12,0" />
<path style="fill:#7f7f7f" d="M276,261 l-88,89 -177,-177 88,-89 177,177z" />
<path style="fill:#999" d="M265,250 l-88,89 -155,-155 88,-89 155,155z" />
<path style="fill:#b2b2b2" d="M246,231 l-88,89 -118,-118 89,-88 117,117z" />
<path style="fill:#ccc" d="M228,213 l-88,89 -81,-81 88,-89 81,81z" />
<path style="fill:#e5e5e5" d="M214,199 l-89,88 -52,-52 89,-88 52,52z" />
<path style="fill:#fff" d="M198,184 l-88,88 -22,-22 89,-88 21,22z" />
<path style="fill:none;stroke:#000;stroke-width:2" d="M99,84 l-88,89" />
<path style="fill:none;stroke:#000;stroke-width:2" d="M188,350 l88,-89" />

</svg>
