<?xml version="1.0" encoding="utf-8" standalone="no"?><!DOCTYPE svg PUBLIC "-//W3C//DTD SVG 1.1//EN" "http://www.w3.org/Graphics/SVG/1.1/DTD/svg11-flat-20030114.dtd"><svg width="358" height="400" version="1.1" xmlns="http://www.w3.org/2000/svg" xmlns:xlink="http://www.w3.org/1999/xlink">

<path style="fill:#7f7f7f" d="M11,272 l0,117 234,0 0,-117 -234,0z" />
<path style="fill:#999" d="M25,272 l0,117 206,0 0,-117 -206,0z" />
<path style="fill:#b2b2b2" d="M50,272 l0,117 157,0 0,-117 -157,0z" />
<path style="fill:#ccc" d="M74,272 l0,117 108,0 0,-117 -108,0z" />
<path style="fill:#e5e5e5" d="M93,272 l0,117 69,0 0,-117 -69,0z" />
<path style="fill:#fff" d="M114,272 l0,117 28,0 0,-117 -28,0z" />
<path style="fill:none;stroke:#000;stroke-width:2" d="M245,272 l0,117" />
<path style="fill:none;stroke:#000;stroke-width:2" d="M11,389 l0,-117" />
<path style="fill:#7f7f7f" d="M245,272 l-117,-203 -13,8 -12,9 -12,10 -11,10 -11,12 -9,11 -9,13 -8,13 -7,13 -7,14 -5,14 -5,15 -3,15 -3,15 -1,15 -1,16 234,0z" />
<path style="fill:#999" d="M245,272 l-110,-190 -12,8 -12,8 -11,9 -10,10 -10,10 -9,11 -9,12 -7,12 -7,13 -6,13 -5,13 -4,14 -4,14 -2,14 -2,14 0,15 220,0z" />
<path style="fill:#b2b2b2" d="M245,272 l-98,-169 -11,7 -10,7 -10,8 -9,9 -9,9 -8,10 -7,11 -7,10 -6,12 -5,11 -4,12 -4,12 -3,13 -2,12 -2,13 0,13 195,0z" />
<path style="fill:#ccc" d="M245,272 l-85,-148 -19,13 -16,14 -15,17 -13,19 -10,20 -7,21 -4,22 -2,22 171,0z" />
<path style="fill:#e5e5e5" d="M245,272 l-76,-131 -16,11 -15,13 -13,15 -11,16 -8,18 -7,19 -4,19 -1,20 151,0z" />
<path style="fill:#fff" d="M245,272 l-66,-114 -14,10 -13,11 -11,13 -10,14 -8,15 -5,17 -4,17 -1,17 132,0z" />
<path style="fill:#e5e5e5" d="M245,272 l-51,-89 -11,8 -10,8 -9,11 -7,11 -6,12 -4,12 -3,14 -1,13 102,0z" />
<path style="fill:#ccc" d="M245,272 l-41,-72 -9,6 -9,7 -7,9 -6,9 -5,9 -3,11 -2,10 -1,11 83,0z" />
<path style="fill:#b2b2b2" d="M245,272 l-32,-55 -7,5 -6,5 -5,6 -5,7 -3,8 -3,8 -1,8 -1,8 63,0z" />
<path style="fill:#999" d="M245,272 l-20,-34 -4,3 -4,3 -3,4 -3,4 -2,5 -2,5 -1,5 0,5 39,0z" />
<path style="fill:none;stroke:#000;stroke-width:2" d="M128,69 l-13,8 -12,9 -12,10 -11,10 -11,12 -9,11 -9,13 -8,13 -7,13 -7,14 -5,14 -5,15 -3,15 -3,15 -1,15 -1,16" />
<path style="fill:#7f7f7f" d="M245,272 l-7,-13 -3,3 -3,3 -1,3 -1,4 15,0z" />
<path style="fill:#7f7f7f" d="M229,11 l-101,58 117,204 102,-59 -118,-203z" />
<path style="fill:#999" d="M237,23 l-102,59 103,178 102,-58 -103,-179z" />
<path style="fill:#b2b2b2" d="M249,45 l-101,59 78,135 101,-59 -78,-135z" />
<path style="fill:#ccc" d="M261,66 l-101,58 54,94 101,-59 -54,-93z" />
<path style="fill:#e5e5e5" d="M271,82 l-102,59 35,60 101,-59 -34,-60z" />
<path style="fill:#fff" d="M281,100 l-102,58 15,25 101,-58 -14,-25z" />
<path style="fill:none;stroke:#000;stroke-width:2" d="M347,214 l-102,59" />
<path style="fill:none;stroke:#000;stroke-width:2" d="M128,69 l101,-58" />

</svg>
