<?xml version="1.0" encoding="utf-8" standalone="no"?><!DOCTYPE svg PUBLIC "-//W3C//DTD SVG 1.1//EN" "http://www.w3.org/Graphics/SVG/1.1/DTD/svg11-flat-20030114.dtd"><svg width="358" height="400" version="1.1" xmlns="http://www.w3.org/2000/svg" xmlns:xlink="http://www.w3.org/1999/xlink">

<path style="fill:#7f7f7f" d="M347,272 l0,117 -235,0 0,-117 235,0z" />
<path style="fill:#999" d="M332,272 l0,117 -206,0 0,-117 206,0z" />
<path style="fill:#b2b2b2" d="M307,272 l0,117 -156,0 0,-117 156,0z" />
<path style="fill:#ccc" d="M283,272 l0,117 -108,0 0,-117 108,0z" />
<path style="fill:#e5e5e5" d="M264,272 l0,117 -69,0 0,-117 69,0z" />
<path style="fill:#fff" d="M244,272 l0,117 -29,0 0,-117 29,0z" />
<path style="fill:none;stroke:#000;stroke-width:2" d="M112,272 l0,117" />
<path style="fill:none;stroke:#000;stroke-width:2" d="M347,389 l0,-117" />
<path style="fill:#7f7f7f" d="M113,272 l117,-203 13,8 12,9 12,10 11,10 11,12 9,11 9,13 8,13 7,13 7,14 5,14 5,15 3,15 3,15 1,15 1,16 -234,0z" />
<path style="fill:#999" d="M113,272 l109,-190 12,8 12,8 11,9 10,10 10,10 9,11 9,12 7,12 7,13 6,13 5,13 4,14 4,14 2,14 2,14 0,15 -219,0z" />
<path style="fill:#b2b2b2" d="M113,272 l97,-169 11,7 10,7 10,8 10,9 8,9 8,10 8,11 6,10 7,12 5,11 4,12 4,12 3,13 2,12 2,13 0,13 -195,0z" />
<path style="fill:#ccc" d="M113,272 l85,-148 19,13 16,14 15,17 12,19 10,20 7,21 4,22 2,22 -170,0z" />
<path style="fill:#e5e5e5" d="M113,272 l75,-131 16,11 15,13 13,15 11,16 9,18 7,19 4,19 1,20 -151,0z" />
<path style="fill:#fff" d="M113,272 l65,-114 15,10 13,11 11,13 9,14 8,15 5,17 4,17 1,17 -131,0z" />
<path style="fill:#e5e5e5" d="M113,272 l51,-89 11,8 10,8 9,11 7,11 6,12 4,12 3,14 1,13 -102,0z" />
<path style="fill:#ccc" d="M113,272 l41,-72 9,6 8,7 7,9 6,9 5,9 3,11 2,10 1,11 -82,0z" />
<path style="fill:#b2b2b2" d="M113,272 l31,-55 7,5 6,5 6,6 4,7 4,8 3,8 1,8 1,8 -63,0z" />
<path style="fill:#999" d="M113,272 l19,-34 4,3 4,3 4,4 2,4 3,5 2,5 1,5 0,5 -39,0z" />
<path style="fill:none;stroke:#000;stroke-width:2" d="M230,69 l13,8 12,9 12,10 11,10 11,12 9,11 9,13 8,13 7,13 7,14 5,14 5,15 3,15 3,15 1,15 1,16" />
<path style="fill:#7f7f7f" d="M113,272 l7,-13 3,3 2,3 1,3 1,4 -14,0z" />
<path style="fill:#7f7f7f" d="M128,11 l102,58 -118,204 -101,-59 117,-203z" />
<path style="fill:#999" d="M121,23 l101,59 -103,178 -101,-58 103,-179z" />
<path style="fill:#b2b2b2" d="M108,45 l102,59 -78,135 -102,-59 78,-135z" />
<path style="fill:#ccc" d="M96,66 l102,58 -54,94 -101,-59 53,-93z" />
<path style="fill:#e5e5e5" d="M87,82 l101,59 -34,60 -102,-59 35,-60z" />
<path style="fill:#fff" d="M77,100 l101,58 -14,25 -102,-58 15,-25z" />
<path style="fill:none;stroke:#000;stroke-width:2" d="M11,214 l101,59" />
<path style="fill:none;stroke:#000;stroke-width:2" d="M230,69 l-102,-58" />

</svg>
