<?xml version="1.0" encoding="utf-8" standalone="no"?><!DOCTYPE svg PUBLIC "-//W3C//DTD SVG 1.1//EN" "http://www.w3.org/Graphics/SVG/1.1/DTD/svg11-flat-20030114.dtd"><svg width="695" height="999" version="1.1" xmlns="http://www.w3.org/2000/svg" xmlns:xlink="http://www.w3.org/1999/xlink">

<path style="fill:#7f7f7f" d="M667,887 l-496,-859 -143,83 496,859 143,-83z" />
<path style="fill:#999" d="M659,893 l-497,-860 -125,72 496,860 126,-72z" />
<path style="fill:#b2b2b2" d="M644,902 l-497,-861 -95,57 496,859 96,-55z" />
<path style="fill:#ccc" d="M629,910 l-498,-860 -64,38 496,860 66,-38z" />
<path style="fill:#e5e5e5" d="M618,917 l-498,-861 -41,25 495,859 44,-23z" />
<path style="fill:#fff" d="M605,923 l-496,-859 -19,11 498,859 17,-11z" />
<path style="fill:none;stroke:#000;stroke-width:2" d="M524,970 l-496,-859" />
<path style="fill:none;stroke:#000;stroke-width:2" d="M171,28 l496,859" />

</svg>
