<?xml version="1.0" encoding="utf-8" standalone="no"?><!DOCTYPE svg PUBLIC "-//W3C//DTD SVG 1.1//EN" "http://www.w3.org/Graphics/SVG/1.1/DTD/svg11-flat-20030114.dtd"><svg width="844" height="999" version="1.1" xmlns="http://www.w3.org/2000/svg" xmlns:xlink="http://www.w3.org/1999/xlink">

<path style="fill:#7f7f7f" d="M816,759 l-423,-731 -365,211 422,731 366,-211z" />
<path style="fill:#999" d="M793,772 l-422,-731 -321,185 423,731 320,-185z" />
<path style="fill:#b2b2b2" d="M753,795 l-422,-731 -243,141 422,729 243,-139z" />
<path style="fill:#ccc" d="M718,816 l-423,-732 -169,98 422,732 170,-98z" />
<path style="fill:#e5e5e5" d="M687,833 l-422,-730 -107,60 422,732 107,-62z" />
<path style="fill:#fff" d="M655,851 l-422,-731 -45,27 422,731 45,-27z" />
<path style="fill:none;stroke:#000;stroke-width:2" d="M450,970 l-422,-731" />
<path style="fill:none;stroke:#000;stroke-width:2" d="M393,28 l423,731" />

</svg>
