<?xml version="1.0" encoding="utf-8" standalone="no"?><!DOCTYPE svg PUBLIC "-//W3C//DTD SVG 1.1//EN" "http://www.w3.org/Graphics/SVG/1.1/DTD/svg11-flat-20030114.dtd"><svg width="530" height="531" version="1.1" xmlns="http://www.w3.org/2000/svg" xmlns:xlink="http://www.w3.org/1999/xlink">

<path style="fill:#7f7f7f" d="M515,15 l-500,0 0,501 500,0 0,-501z" />
<path style="fill:#999" d="M515,46 l-500,0 0,439 500,0 0,-439z" />
<path style="fill:#b2b2b2" d="M515,99 l-500,0 0,334 500,0 0,-334z" />
<path style="fill:#ccc" d="M515,150 l-500,0 0,231 500,0 0,-231z" />
<path style="fill:#e5e5e5" d="M515,191 l-500,0 0,147 500,0 0,-147z" />
<path style="fill:#fff" d="M515,235 l-500,0 0,61 500,0 0,-61z" />
<path style="fill:none;stroke:#000;stroke-width:2" d="M515,516 l-500,0" />
<path style="fill:none;stroke:#000;stroke-width:2" d="M15,15 l500,0" />
<path style="fill:none;stroke:#000;stroke-width:2" d="M223,515 l73,-125 -31,-99 -68,-52 -99,-5 -47,-68 36,-57" />
<path style="fill:none;stroke:#000;stroke-width:2" d="M197,239 l-31,-52 151,-42 -52,-36 15,-16" />
<path style="fill:none;stroke:#000;stroke-width:2" d="M160,515 l-20,-73 83,-10 73,-42" />
<path style="fill:none;stroke:#000;stroke-width:2" d="M275,327 l31,-57 99,-47 63,52" />
<path style="fill:none;stroke:#000;stroke-width:2" d="M405,223 l31,-47 -15,-57" />
<path style="fill:#000;stroke:#000;stroke-width:2" d="M275,327 l-10,-36 41,-21 -31,57z" />
<path style="fill:#000;stroke:#000;stroke-width:2" d="M270,432 l-5,-21 31,-21 -26,42z" />

</svg>
