<?xml version="1.0" encoding="utf-8" standalone="no"?><!DOCTYPE svg PUBLIC "-//W3C//DTD SVG 1.1//EN" "http://www.w3.org/Graphics/SVG/1.1/DTD/svg11-flat-20030114.dtd"><svg width="999" height="725" version="1.1" xmlns="http://www.w3.org/2000/svg" xmlns:xlink="http://www.w3.org/1999/xlink">

<path style="fill:#7f7f7f" d="M970,697 l0,-550 -942,0 0,550 942,0z" />
<path style="fill:#999" d="M912,697 l0,-550 -826,0 0,550 826,0z" />
<path style="fill:#b2b2b2" d="M810,697 l0,-550 -626,0 0,550 626,0z" />
<path style="fill:#ccc" d="M714,697 l0,-550 -432,0 0,550 432,0z" />
<path style="fill:#e5e5e5" d="M638,697 l0,-550 -277,0 0,550 277,0z" />
<path style="fill:#fff" d="M558,697 l0,-550 -115,0 0,550 115,0z" />
<path style="fill:none;stroke:#000;stroke-width:2" d="M28,697 l0,-550" />
<path style="fill:none;stroke:#000;stroke-width:2" d="M970,147 l0,550" />
<path style="fill:#ccc;stroke:#000;stroke-width:2" d="M28,147 l40,156 18,-40 40,198 98,-118 119,118 58,197 117,-178 40,-177 97,119 61,-58 98,116 58,-177 0,-58 59,58 39,-156 -79,0 -58,-79 -79,60 -78,-100 -79,79 -117,-59 -60,138 -59,-138 -58,80 -98,-100 -58,60 -61,-20 -58,79z" />
<path style="fill:#666;stroke:#000;stroke-width:2" d="M68,147 l18,116 21,-37 40,196 98,-119 116,98 59,198 79,-119 59,-235 118,137 59,-58 79,98 40,-119 0,-98 77,58 20,-97 -60,20 -58,-98 -59,78 -79,-98 -77,79 -119,-59 -79,157 -59,-138 -39,59 -98,-98 -40,60 -77,-40 -39,59z" />

</svg>
