<?xml version="1.0" encoding="utf-8" standalone="no"?><!DOCTYPE svg PUBLIC "-//W3C//DTD SVG 1.1//EN" "http://www.w3.org/Graphics/SVG/1.1/DTD/svg11-flat-20030114.dtd"><svg width="385" height="530" version="1.1" xmlns="http://www.w3.org/2000/svg" xmlns:xlink="http://www.w3.org/1999/xlink">

<path style="fill:#7f7f7f" d="M370,15 l-292,0 0,500 292,0 0,-500z" />
<path style="fill:#999" d="M370,46 l-292,0 0,438 292,0 0,-438z" />
<path style="fill:#b2b2b2" d="M370,100 l-292,0 0,332 292,0 0,-332z" />
<path style="fill:#ccc" d="M370,151 l-292,0 0,229 292,0 0,-229z" />
<path style="fill:#e5e5e5" d="M370,191 l-292,0 0,147 292,0 0,-147z" />
<path style="fill:#fff" d="M370,234 l-292,0 0,61 292,0 0,-61z" />
<path style="fill:none;stroke:#000;stroke-width:2" d="M370,515 l-292,0" />
<path style="fill:none;stroke:#000;stroke-width:2" d="M78,15 l292,0" />
<path style="fill:#ccc;stroke:#000;stroke-width:2" d="M78,515 l83,-21 -21,-10 105,-21 -63,-52 63,-63 104,-31 -94,-62 -94,-21 63,-52 -31,-32 62,-52 -94,-31 -31,0 31,-31 -83,-21 0,42 -42,31 32,42 -53,41 42,42 -31,62 73,32 -73,31 42,31 -53,52 32,31 -11,32 42,31z" />
<path style="fill:#666;stroke:#000;stroke-width:2" d="M78,494 l62,-10 -20,-11 104,-21 -63,-52 52,-62 105,-31 -63,-42 -125,-31 73,-63 -31,-31 52,-42 -63,-21 -52,0 31,-41 -52,-11 11,32 -52,31 41,31 -52,42 42,41 -31,63 83,42 -73,31 31,21 -52,52 32,21 -21,41 31,21z" />

</svg>
