<?xml version="1.0" encoding="utf-8" standalone="no"?><!DOCTYPE svg PUBLIC "-//W3C//DTD SVG 1.1//EN" "http://www.w3.org/Graphics/SVG/1.1/DTD/svg11-flat-20030114.dtd"><svg width="530" height="363" version="1.1" xmlns="http://www.w3.org/2000/svg" xmlns:xlink="http://www.w3.org/1999/xlink">

<path style="fill:#7f7f7f;stroke:#000;stroke-width:2" d="M410,56 l11,-41 62,0 11,41 -84,0z" />
<path style="fill:#7f7f7f;stroke:#000;stroke-width:2" d="M223,56 l10,-41 63,0 10,41 -83,0z" />
<path style="fill:#7f7f7f;stroke:#000;stroke-width:2" d="M35,56 l11,-41 62,0 11,41 -84,0z" />
<path style="fill:#7f7f7f;stroke:#000;stroke-width:2" d="M410,306 l11,42 62,0 11,-42 -84,0z" />
<path style="fill:#7f7f7f;stroke:#000;stroke-width:2" d="M223,306 l10,42 63,0 10,-42 -83,0z" />
<path style="fill:#7f7f7f;stroke:#000;stroke-width:2" d="M35,306 l11,42 62,0 11,-42 -84,0z" />
<path style="fill:#b2b2b2;stroke:#000;stroke-width:2" d="M426,56 l5,-41 52,0 11,41 -68,0z" />
<path style="fill:#b2b2b2;stroke:#000;stroke-width:2" d="M239,56 l5,-41 52,0 10,41 -67,0z" />
<path style="fill:#b2b2b2;stroke:#000;stroke-width:2" d="M51,56 l5,-41 52,0 11,41 -68,0z" />
<path style="fill:#b2b2b2;stroke:#000;stroke-width:2" d="M426,306 l5,42 52,0 11,-42 -68,0z" />
<path style="fill:#b2b2b2;stroke:#000;stroke-width:2" d="M239,306 l5,42 52,0 10,-42 -67,0z" />
<path style="fill:#b2b2b2;stroke:#000;stroke-width:2" d="M51,306 l5,42 52,0 11,-42 -68,0z" />
<path style="fill:#7f7f7f" d="M514,306 l0,-125 -499,0 0,125 499,0z" />
<path style="fill:#999" d="M484,306 l0,-125 -439,0 0,125 439,0z" />
<path style="fill:#b2b2b2" d="M430,306 l0,-125 -332,0 0,125 332,0z" />
<path style="fill:#ccc" d="M379,306 l0,-125 -230,0 0,125 230,0z" />
<path style="fill:#e5e5e5" d="M338,306 l0,-125 -146,0 0,125 146,0z" />
<path style="fill:#fff" d="M295,306 l0,-125 -61,0 0,125 61,0z" />
<path style="fill:none;stroke:#000;stroke-width:2" d="M515,306 l0,-125 -500,0 0,125 500,0" />
<path style="fill:#e5e5e5;stroke:#000;stroke-width:2" d="M473,348 l10,0 11,-42 -16,0 -5,42z" />
<path style="fill:#e5e5e5;stroke:#000;stroke-width:2" d="M285,348 l11,0 10,-42 -15,0 -6,42z" />
<path style="fill:#e5e5e5;stroke:#000;stroke-width:2" d="M98,348 l10,0 11,-42 -16,0 -5,42z" />
<path style="fill:#e5e5e5;stroke:#000;stroke-width:2" d="M473,15 l10,0 11,41 -16,0 -5,-41z" />
<path style="fill:#e5e5e5;stroke:#000;stroke-width:2" d="M285,15 l11,0 10,41 -15,0 -6,-41z" />
<path style="fill:#e5e5e5;stroke:#000;stroke-width:2" d="M98,15 l10,0 11,41 -16,0 -5,-41z" />
<path style="fill:#7f7f7f" d="M514,56 l0,125 -499,0 0,-125 499,0z" />
<path style="fill:#999" d="M484,56 l0,125 -439,0 0,-125 439,0z" />
<path style="fill:#b2b2b2" d="M430,56 l0,125 -332,0 0,-125 332,0z" />
<path style="fill:#ccc" d="M379,56 l0,125 -230,0 0,-125 230,0z" />
<path style="fill:#e5e5e5" d="M338,56 l0,125 -146,0 0,-125 146,0z" />
<path style="fill:#fff" d="M295,56 l0,125 -61,0 0,-125 61,0z" />
<path style="fill:none;stroke:#000;stroke-width:2" d="M515,56 l0,125 -500,0 0,-125 500,0" />

</svg>
