<?xml version="1.0" encoding="utf-8" standalone="no"?><!DOCTYPE svg PUBLIC "-//W3C//DTD SVG 1.1//EN" "http://www.w3.org/Graphics/SVG/1.1/DTD/svg11-flat-20030114.dtd"><svg width="196" height="530" version="1.1" xmlns="http://www.w3.org/2000/svg" xmlns:xlink="http://www.w3.org/1999/xlink">

<path style="fill:#7f7f7f;stroke:#000;stroke-width:2" d="M140,119 l41,-10 0,-63 -41,-10 0,83z" />
<path style="fill:#7f7f7f;stroke:#000;stroke-width:2" d="M140,307 l41,-10 0,-63 -41,-10 0,83z" />
<path style="fill:#7f7f7f;stroke:#000;stroke-width:2" d="M140,494 l41,-10 0,-62 -41,-11 0,83z" />
<path style="fill:#7f7f7f" d="M140,15 l-125,0 0,500 125,0 0,-500z" />
<path style="fill:#999" d="M140,46 l-125,0 0,439 125,0 0,-439z" />
<path style="fill:#b2b2b2" d="M140,100 l-125,0 0,332 125,0 0,-332z" />
<path style="fill:#ccc" d="M140,151 l-125,0 0,229 125,0 0,-229z" />
<path style="fill:#e5e5e5" d="M140,191 l-125,0 0,147 125,0 0,-147z" />
<path style="fill:#fff" d="M140,235 l-125,0 0,61 125,0 0,-61z" />
<path style="fill:none;stroke:#000;stroke-width:2" d="M140,15 l-125,0 0,500 125,0 0,-500" />
<path style="fill:#b2b2b2;stroke:#000;stroke-width:2" d="M140,104 l41,-6 0,-52 -41,-10 0,68z" />
<path style="fill:#b2b2b2;stroke:#000;stroke-width:2" d="M140,291 l41,-5 0,-52 -41,-10 0,67z" />
<path style="fill:#b2b2b2;stroke:#000;stroke-width:2" d="M140,479 l41,-5 0,-52 -41,-11 0,68z" />
<path style="fill:#e5e5e5;stroke:#000;stroke-width:2" d="M181,57 l0,-11 -41,-10 0,16 41,5z" />
<path style="fill:#e5e5e5;stroke:#000;stroke-width:2" d="M181,244 l0,-10 -41,-10 0,15 41,5z" />
<path style="fill:#e5e5e5;stroke:#000;stroke-width:2" d="M181,432 l0,-10 -41,-11 0,16 41,5z" />

</svg>
