<?xml version="1.0" encoding="utf-8" standalone="no"?><!DOCTYPE svg PUBLIC "-//W3C//DTD SVG 1.1//EN" "http://www.w3.org/Graphics/SVG/1.1/DTD/svg11-flat-20030114.dtd"><svg width="197" height="530" version="1.1" xmlns="http://www.w3.org/2000/svg" xmlns:xlink="http://www.w3.org/1999/xlink">

<path style="fill:#7f7f7f;stroke:#000;stroke-width:2" d="M57,119 l-42,-10 0,-63 42,-10 0,83z" />
<path style="fill:#7f7f7f;stroke:#000;stroke-width:2" d="M57,307 l-42,-10 0,-63 42,-10 0,83z" />
<path style="fill:#7f7f7f;stroke:#000;stroke-width:2" d="M57,494 l-42,-10 0,-62 42,-11 0,83z" />
<path style="fill:#7f7f7f" d="M57,15 l125,0 0,500 -125,0 0,-500z" />
<path style="fill:#999" d="M57,46 l125,0 0,439 -125,0 0,-439z" />
<path style="fill:#b2b2b2" d="M57,100 l125,0 0,332 -125,0 0,-332z" />
<path style="fill:#ccc" d="M57,151 l125,0 0,229 -125,0 0,-229z" />
<path style="fill:#e5e5e5" d="M57,191 l125,0 0,147 -125,0 0,-147z" />
<path style="fill:#fff" d="M57,235 l125,0 0,61 -125,0 0,-61z" />
<path style="fill:none;stroke:#000;stroke-width:2" d="M57,15 l125,0 0,500 -125,0 0,-500" />
<path style="fill:#b2b2b2;stroke:#000;stroke-width:2" d="M57,104 l-42,-6 0,-52 42,-10 0,68z" />
<path style="fill:#b2b2b2;stroke:#000;stroke-width:2" d="M57,291 l-42,-5 0,-52 42,-10 0,67z" />
<path style="fill:#b2b2b2;stroke:#000;stroke-width:2" d="M57,479 l-42,-5 0,-52 42,-11 0,68z" />
<path style="fill:#e5e5e5;stroke:#000;stroke-width:2" d="M15,57 l0,-11 42,-10 0,16 -42,5z" />
<path style="fill:#e5e5e5;stroke:#000;stroke-width:2" d="M15,244 l0,-10 42,-10 0,15 -42,5z" />
<path style="fill:#e5e5e5;stroke:#000;stroke-width:2" d="M15,432 l0,-10 42,-11 0,16 -42,5z" />

</svg>
