<?xml version="1.0" encoding="utf-8" standalone="no"?><!DOCTYPE svg PUBLIC "-//W3C//DTD SVG 1.1//EN" "http://www.w3.org/Graphics/SVG/1.1/DTD/svg11-flat-20030114.dtd"><svg width="840" height="999" version="1.1" xmlns="http://www.w3.org/2000/svg" xmlns:xlink="http://www.w3.org/1999/xlink">

<circle style="fill:#ccc;stroke:#000;stroke-width:2" cx="419" cy="419" r="392" />
<path style="fill:none;stroke:#fff;stroke-width:2" d="M465,762 l8,-11 7,-11 4,-13 1,-13 -1,-13 -4,-12 -6,-11 -9,-10 -9,-8 -11,-6 -12,-4 -13,-1 -13,1 -12,4 -11,6 -10,9" />
<path style="fill:none;stroke:#7f7f7f;stroke-width:2" d="M374,669 l-8,10 -7,11 -3,11 -2,13 2,13 3,12 7,11 8,10 9,8 12,6 12,4 13,1 13,-1 12,-4 11,-5 9,-7" />
<path style="fill:none;stroke:#fff;stroke-width:2" d="M467,171 l7,-10 6,-12 4,-12 1,-12 -1,-13 -4,-13 -6,-12 -7,-10 -10,-8 -11,-6 -12,-4 -14,-1 -13,1 -13,4 -11,6 -9,9" />
<path style="fill:none;stroke:#7f7f7f;stroke-width:2" d="M374,78 l-8,10 -7,12 -3,12 -2,13 2,13 3,12 7,12 8,9 9,8 12,7 12,3 13,2 13,-2 12,-3 12,-7 10,-8" />
<path style="fill:none;stroke:#fff;stroke-width:2" d="M762,468 l8,-11 5,-12 3,-12 1,-13 -1,-13 -4,-12 -6,-12 -7,-9 -10,-8 -11,-7 -12,-3 -14,-2 -13,2 -12,4 -11,6 -9,8" />
<path style="fill:none;stroke:#7f7f7f;stroke-width:2" d="M669,374 l-9,11 -6,11 -4,12 -1,12 1,14 4,12 6,12 8,10 10,8 11,6 12,4 13,2 13,-2 13,-4 11,-6 11,-8" />
<path style="fill:none;stroke:#fff;stroke-width:2" d="M171,468 l8,-11 5,-11 3,-12 1,-12 -1,-14 -4,-12 -5,-11 -8,-10 -9,-7 -11,-6 -12,-4 -13,-1 -13,1 -12,4 -12,5 -10,7" />
<path style="fill:none;stroke:#7f7f7f;stroke-width:2" d="M78,374 l-7,11 -6,11 -3,13 -2,13 1,13 4,12 6,10 8,10 9,8 11,5 13,4 13,1 12,-1 12,-4 12,-5 10,-7" />
<path style="fill:none;stroke:#fff;stroke-width:2" d="M679,679 l8,-9 6,-11 4,-12 2,-14 -2,-13 -4,-12 -6,-11 -8,-9 -10,-9 -12,-6 -12,-3 -14,-2 -12,2 -12,3 -11,6 -10,7" />
<path style="fill:none;stroke:#7f7f7f;stroke-width:2" d="M586,586 l-9,10 -6,12 -4,12 -1,13 1,14 4,11 6,12 8,9 10,9 11,6 12,3 13,2 13,-2 13,-3 11,-7 11,-8" />
<path style="fill:none;stroke:#fff;stroke-width:2" d="M679,254 l8,-11 6,-11 4,-13 2,-13 -2,-13 -4,-12 -6,-11 -8,-10 -10,-8 -12,-6 -12,-4 -14,-1 -12,1 -12,4 -11,6 -10,9" />
<path style="fill:none;stroke:#7f7f7f;stroke-width:2" d="M586,161 l-9,10 -6,11 -4,11 -1,13 1,14 4,12 6,12 8,10 10,8 11,6 12,4 13,2 13,-2 13,-4 11,-6 11,-8" />
<path style="fill:none;stroke:#fff;stroke-width:2" d="M254,679 l6,-9 6,-11 4,-12 1,-14 -1,-13 -4,-12 -6,-11 -8,-9 -10,-9 -11,-6 -12,-3 -13,-2 -13,2 -12,4 -11,6 -9,8" />
<path style="fill:none;stroke:#7f7f7f;stroke-width:2" d="M161,588 l-9,10 -6,11 -4,12 -1,12 1,14 4,11 6,12 8,9 10,9 11,6 12,3 13,2 13,-2 13,-3 11,-7 11,-8" />
<path style="fill:none;stroke:#fff;stroke-width:2" d="M254,256 l6,-10 6,-12 4,-12 1,-13 -1,-14 -4,-12 -6,-11 -7,-9 -10,-9 -11,-6 -12,-3 -14,-2 -13,2 -12,4 -11,6 -9,8" />
<path style="fill:none;stroke:#7f7f7f;stroke-width:2" d="M161,163 l-9,9 -6,11 -4,12 -1,14 1,13 4,12 6,11 8,9 10,9 11,6 12,3 13,2 13,-2 13,-3 11,-6 11,-7" />
<circle style="fill:#7f7f7f;stroke:#000;stroke-width:2" cx="421" cy="422" r="195" />
<circle style="fill:#999" cx="420" cy="421" r="171" />
<circle style="fill:#b2b2b2" cx="419" cy="421" r="128" />
<ellipse style="fill:#ccc" cx="419" cy="421" rx="85" ry="87" />
<circle style="fill:#e5e5e5" cx="419" cy="421" r="55" />
<ellipse style="fill:#fff" cx="419" cy="421" rx="22" ry="24" />
<path style="fill:#7f7f7f" d="M616,971 l0,-551 -390,0 0,551 390,0z" />
<path style="fill:#999" d="M588,971 l0,-551 -337,0 0,551 337,0z" />
<path style="fill:#b2b2b2" d="M548,971 l0,-551 -257,0 0,551 257,0z" />
<path style="fill:#ccc" d="M510,971 l0,-551 -178,0 0,551 178,0z" />
<path style="fill:#e5e5e5" d="M477,971 l0,-551 -113,0 0,551 113,0z" />
<path style="fill:#fff" d="M442,971 l0,-551 -45,0 0,551 45,0z" />
<path style="fill:none;stroke:#000;stroke-width:2" d="M226,971 l0,-551" />
<path style="fill:none;stroke:#000;stroke-width:2" d="M616,420 l0,551" />

</svg>
