<?xml version="1.0" encoding="utf-8" standalone="no"?><!DOCTYPE svg PUBLIC "-//W3C//DTD SVG 1.1//EN" "http://www.w3.org/Graphics/SVG/1.1/DTD/svg11-flat-20030114.dtd"><svg width="530" height="197" version="1.1" xmlns="http://www.w3.org/2000/svg" xmlns:xlink="http://www.w3.org/1999/xlink">

<path style="fill:#7f7f7f;stroke:#000;stroke-width:2" d="M411,140 l10,42 62,0 11,-42 -83,0z" />
<path style="fill:#7f7f7f;stroke:#000;stroke-width:2" d="M223,140 l10,42 63,0 10,-42 -83,0z" />
<path style="fill:#7f7f7f;stroke:#000;stroke-width:2" d="M35,140 l11,42 62,0 11,-42 -84,0z" />
<path style="fill:#7f7f7f" d="M515,140 l0,-125 -500,0 0,125 500,0z" />
<path style="fill:#999" d="M484,140 l0,-125 -439,0 0,125 439,0z" />
<path style="fill:#b2b2b2" d="M430,140 l0,-125 -332,0 0,125 332,0z" />
<path style="fill:#ccc" d="M379,140 l0,-125 -229,0 0,125 229,0z" />
<path style="fill:#e5e5e5" d="M338,140 l0,-125 -146,0 0,125 146,0z" />
<path style="fill:#fff" d="M295,140 l0,-125 -61,0 0,125 61,0z" />
<path style="fill:none;stroke:#000;stroke-width:2" d="M515,140 l0,-125 -500,0 0,125 500,0" />
<path style="fill:#b2b2b2;stroke:#000;stroke-width:2" d="M426,140 l5,42 52,0 11,-42 -68,0z" />
<path style="fill:#b2b2b2;stroke:#000;stroke-width:2" d="M239,140 l5,42 52,0 10,-42 -67,0z" />
<path style="fill:#b2b2b2;stroke:#000;stroke-width:2" d="M51,140 l5,42 52,0 11,-42 -68,0z" />
<path style="fill:#e5e5e5;stroke:#000;stroke-width:2" d="M473,182 l10,0 11,-42 -16,0 -5,42z" />
<path style="fill:#e5e5e5;stroke:#000;stroke-width:2" d="M286,182 l10,0 10,-42 -15,0 -5,42z" />
<path style="fill:#e5e5e5;stroke:#000;stroke-width:2" d="M98,182 l10,0 11,-42 -16,0 -5,42z" />

</svg>
