<?xml version="1.0" encoding="utf-8" standalone="no"?><!DOCTYPE svg PUBLIC "-//W3C//DTD SVG 1.1//EN" "http://www.w3.org/Graphics/SVG/1.1/DTD/svg11-flat-20030114.dtd"><svg width="530" height="196" version="1.1" xmlns="http://www.w3.org/2000/svg" xmlns:xlink="http://www.w3.org/1999/xlink">

<path style="fill:#7f7f7f;stroke:#000;stroke-width:2" d="M411,56 l10,-41 62,0 11,41 -83,0z" />
<path style="fill:#7f7f7f;stroke:#000;stroke-width:2" d="M223,56 l10,-41 63,0 10,41 -83,0z" />
<path style="fill:#7f7f7f;stroke:#000;stroke-width:2" d="M36,56 l10,-41 62,0 11,41 -83,0z" />
<path style="fill:#7f7f7f" d="M515,56 l0,125 -500,0 0,-125 500,0z" />
<path style="fill:#999" d="M484,56 l0,125 -439,0 0,-125 439,0z" />
<path style="fill:#b2b2b2" d="M430,56 l0,125 -332,0 0,-125 332,0z" />
<path style="fill:#ccc" d="M379,56 l0,125 -229,0 0,-125 229,0z" />
<path style="fill:#e5e5e5" d="M339,56 l0,125 -147,0 0,-125 147,0z" />
<path style="fill:#fff" d="M295,56 l0,125 -61,0 0,-125 61,0z" />
<path style="fill:none;stroke:#000;stroke-width:2" d="M515,56 l0,125 -500,0 0,-125 500,0" />
<path style="fill:#b2b2b2;stroke:#000;stroke-width:2" d="M426,56 l5,-41 52,0 11,41 -68,0z" />
<path style="fill:#b2b2b2;stroke:#000;stroke-width:2" d="M239,56 l5,-41 52,0 10,41 -67,0z" />
<path style="fill:#b2b2b2;stroke:#000;stroke-width:2" d="M51,56 l5,-41 52,0 11,41 -68,0z" />
<path style="fill:#e5e5e5;stroke:#000;stroke-width:2" d="M473,15 l10,0 11,41 -16,0 -5,-41z" />
<path style="fill:#e5e5e5;stroke:#000;stroke-width:2" d="M286,15 l10,0 10,41 -15,0 -5,-41z" />
<path style="fill:#e5e5e5;stroke:#000;stroke-width:2" d="M98,15 l10,0 11,41 -16,0 -5,-41z" />

</svg>
