<?xml version="1.0" encoding="utf-8" standalone="no"?><!DOCTYPE svg PUBLIC "-//W3C//DTD SVG 1.1//EN" "http://www.w3.org/Graphics/SVG/1.1/DTD/svg11-flat-20030114.dtd"><svg width="155" height="530" version="1.1" xmlns="http://www.w3.org/2000/svg" xmlns:xlink="http://www.w3.org/1999/xlink">

<path style="fill:#7f7f7f" d="M140,15 l-125,0 0,500 125,0 0,-500z" />
<path style="fill:#999" d="M140,46 l-125,0 0,439 125,0 0,-439z" />
<path style="fill:#b2b2b2" d="M140,100 l-125,0 0,332 125,0 0,-332z" />
<path style="fill:#ccc" d="M140,151 l-125,0 0,229 125,0 0,-229z" />
<path style="fill:#e5e5e5" d="M140,191 l-125,0 0,147 125,0 0,-147z" />
<path style="fill:#fff" d="M140,235 l-125,0 0,61 125,0 0,-61z" />
<path style="fill:none;stroke:#000;stroke-width:2" d="M140,15 l-125,0 0,500 125,0 0,-500" />

</svg>
