<?xml version="1.0" encoding="utf-8" standalone="no"?><!DOCTYPE svg PUBLIC "-//W3C//DTD SVG 1.1//EN" "http://www.w3.org/Graphics/SVG/1.1/DTD/svg11-flat-20030114.dtd"><svg width="530" height="155" version="1.1" xmlns="http://www.w3.org/2000/svg" xmlns:xlink="http://www.w3.org/1999/xlink">

<path style="fill:#7f7f7f" d="M515,140 l0,-125 -500,0 0,125 500,0z" />
<path style="fill:#999" d="M484,140 l0,-125 -439,0 0,125 439,0z" />
<path style="fill:#b2b2b2" d="M430,140 l0,-125 -332,0 0,125 332,0z" />
<path style="fill:#ccc" d="M379,140 l0,-125 -229,0 0,125 229,0z" />
<path style="fill:#e5e5e5" d="M339,140 l0,-125 -147,0 0,125 147,0z" />
<path style="fill:#fff" d="M295,140 l0,-125 -61,0 0,125 61,0z" />
<path style="fill:none;stroke:#000;stroke-width:2" d="M515,140 l0,-125 -500,0 0,125 500,0" />

</svg>
