<?xml version="1.0" encoding="utf-8" standalone="no"?><!DOCTYPE svg PUBLIC "-//W3C//DTD SVG 1.1//EN" "http://www.w3.org/Graphics/SVG/1.1/DTD/svg11-flat-20030114.dtd"><svg width="530" height="284" version="1.1" xmlns="http://www.w3.org/2000/svg" xmlns:xlink="http://www.w3.org/1999/xlink">

<circle style="fill:#7f7f7f;stroke:#000;stroke-width:2" cx="140" cy="140" r="125" />
<circle style="fill:#999" cx="139" cy="140" r="113" />
<circle style="fill:#b2b2b2" cx="140" cy="140" r="93" />
<circle style="fill:#ccc" cx="140" cy="140" r="74" />
<circle style="fill:#e5e5e5" cx="140" cy="140" r="58" />
<path style="fill:#7f7f7f" d="M515,15 l-376,0 0,191 376,0 0,-191z" />
<path style="fill:#999" d="M515,28 l-376,0 0,167 376,0 0,-167z" />
<path style="fill:#b2b2b2" d="M515,48 l-376,0 0,127 376,0 0,-127z" />
<path style="fill:#ccc" d="M515,67 l-376,0 0,88 376,0 0,-88z" />
<path style="fill:#e5e5e5" d="M515,83 l-376,0 0,56 376,0 0,-56z" />
<path style="fill:#fff" d="M515,100 l-376,0 0,23 376,0 0,-23z" />
<path style="fill:none;stroke:#000;stroke-width:2" d="M515,206 l-376,0" />
<path style="fill:none;stroke:#000;stroke-width:2" d="M139,15 l376,0" />
<path style="fill:#fff" d="M142,131 l0,-53 -11,1 -10,3 -9,5 -8,6 -6,8 -5,9 -3,10 -1,11 1,11 3,9 5,9 6,8 8,6 9,5 10,3 11,1 0,-52z" />
<path style="fill:#e5e5e5" d="M142,119 l0,-41 -8,1 -8,2 -7,4 -6,5 -5,6 -4,7 -2,8 -1,8 1,8 2,8 4,7 5,6 6,5 7,4 8,2 8,1 0,-41z" />
<path style="fill:#ccc" d="M142,111 l0,-33 -7,1 -6,2 -6,3 -5,4 -4,5 -3,5 -1,6 -1,7 1,7 1,6 3,5 4,5 5,4 6,3 6,2 7,1 0,-33z" />
<path style="fill:#b2b2b2" d="M142,103 l0,-25 -10,2 -8,5 -6,8 -2,10 2,10 6,8 8,6 10,2 0,-26z" />
<path style="fill:#999" d="M143,94 l0,-16 -6,1 -5,4 -4,5 -1,6 1,6 4,4 5,4 6,1 0,-15z" />
<path style="fill:#7f7f7f" d="M144,84 l0,-6 -3,1 -2,1 -1,2 -1,2 1,3 1,2 2,1 3,1 0,-7z" />
<path style="fill:#7f7f7f" d="M328,78 l-189,0 0,191 189,0 0,-191z" />
<path style="fill:#999" d="M328,91 l-189,0 0,167 189,0 0,-167z" />
<path style="fill:#b2b2b2" d="M328,111 l-189,0 0,127 189,0 0,-127z" />
<path style="fill:#ccc" d="M328,130 l-189,0 0,88 189,0 0,-88z" />
<path style="fill:#e5e5e5" d="M328,146 l-189,0 0,56 189,0 0,-56z" />
<path style="fill:#fff" d="M328,163 l-189,0 0,23 189,0 0,-23z" />
<path style="fill:none;stroke:#000;stroke-width:2" d="M328,269 l-189,0" />
<path style="fill:none;stroke:#000;stroke-width:2" d="M139,78 l189,0" />

</svg>
