<?xml version="1.0" encoding="utf-8" standalone="no"?><!DOCTYPE svg PUBLIC "-//W3C//DTD SVG 1.1//EN" "http://www.w3.org/Graphics/SVG/1.1/DTD/svg11-flat-20030114.dtd"><svg width="999" height="119" version="1.1" xmlns="http://www.w3.org/2000/svg" xmlns:xlink="http://www.w3.org/1999/xlink">

<path style="fill:#7f7f7f" d="M970,28 l-942,0 0,62 942,0 0,-62z" />
<path style="fill:#999" d="M970,32 l-942,0 0,55 942,0 0,-55z" />
<path style="fill:#b2b2b2" d="M970,39 l-942,0 0,41 942,0 0,-41z" />
<path style="fill:#ccc" d="M970,45 l-942,0 0,28 942,0 0,-28z" />
<path style="fill:#e5e5e5" d="M970,50 l-942,0 0,18 942,0 0,-18z" />
<path style="fill:#fff" d="M970,56 l-942,0 0,7 942,0 0,-7z" />
<path style="fill:none;stroke:#000;stroke-width:2" d="M970,90 l-942,0" />
<path style="fill:none;stroke:#000;stroke-width:2" d="M28,28 l942,0" />

</svg>
