<?xml version="1.0" encoding="utf-8" standalone="no"?><!DOCTYPE svg PUBLIC "-//W3C//DTD SVG 1.1//EN" "http://www.w3.org/Graphics/SVG/1.1/DTD/svg11-flat-20030114.dtd"><svg width="119" height="999" version="1.1" xmlns="http://www.w3.org/2000/svg" xmlns:xlink="http://www.w3.org/1999/xlink">

<path style="fill:#7f7f7f" d="M28,28 l0,942 62,0 0,-942 -62,0z" />
<path style="fill:#999" d="M32,28 l0,942 55,0 0,-942 -55,0z" />
<path style="fill:#b2b2b2" d="M39,28 l0,942 41,0 0,-942 -41,0z" />
<path style="fill:#ccc" d="M45,28 l0,942 28,0 0,-942 -28,0z" />
<path style="fill:#e5e5e5" d="M50,28 l0,942 18,0 0,-942 -18,0z" />
<path style="fill:#fff" d="M56,28 l0,942 7,0 0,-942 -7,0z" />
<path style="fill:none;stroke:#000;stroke-width:2" d="M90,28 l0,942" />
<path style="fill:none;stroke:#000;stroke-width:2" d="M28,970 l0,-942" />

</svg>
