<?xml version="1.0" encoding="utf-8" standalone="no"?><!DOCTYPE svg PUBLIC "-//W3C//DTD SVG 1.1//EN" "http://www.w3.org/Graphics/SVG/1.1/DTD/svg11-flat-20030114.dtd"><svg width="530" height="530" version="1.1" xmlns="http://www.w3.org/2000/svg" xmlns:xlink="http://www.w3.org/1999/xlink">

<path style="fill:#7f7f7f" d="M515,515 l0,-500 -500,94 0,312 500,94z" />
<path style="fill:#999" d="M515,476 l0,-422 -500,79 0,264 500,79z" />
<path style="fill:#b2b2b2" d="M515,429 l0,-328 -500,61 0,206 500,61z" />
<path style="fill:#ccc" d="M515,367 l0,-204 -500,38 0,128 500,38z" />
<path style="fill:#e5e5e5" d="M515,312 l0,-94 -500,18 0,58 500,18z" />
<path style="fill:#fff" d="M515,273 l0,-16 -500,3 0,10 500,3z" />
<path style="fill:none;stroke:#000;stroke-width:2" d="M515,515 l0,-500 -500,94 0,312 500,94" />

</svg>
