<?xml version="1.0" encoding="utf-8" standalone="no"?><!DOCTYPE svg PUBLIC "-//W3C//DTD SVG 1.1//EN" "http://www.w3.org/Graphics/SVG/1.1/DTD/svg11-flat-20030114.dtd"><svg width="999" height="469" version="1.1" xmlns="http://www.w3.org/2000/svg" xmlns:xlink="http://www.w3.org/1999/xlink">

<path style="fill:#fff;stroke:#000;stroke-width:2" d="M942,147 l-443,0 -428,-59 0,294 428,-58 443,0 0,-177z" />
<path style="fill:#e5e5e5" d="M936,320 l0,-45 -437,0 -424,22 0,81 424,-58 437,0z" />
<path style="fill:#e5e5e5;stroke:#000;stroke-width:2" d="M970,88 l-28,0 0,294 28,0 0,-294z" />
<path style="fill:#e5e5e5;stroke:#000;stroke-width:2" d="M73,28 l-45,0 0,413 45,0 0,-413z" />
<path style="fill:#666;stroke:#000;stroke-width:2" d="M522,88 l-46,0 0,294 46,0 0,-294z" />
<path style="fill:#ccc" d="M69,316 l-37,0 0,121 37,0 0,-121z" />
<path style="fill:#ccc" d="M966,297 l-22,0 0,81 22,0 0,-81z" />
<path style="fill:#fff" d="M69,32 l-37,0 0,84 37,0 0,-84z" />
<path style="fill:#fff" d="M966,92 l-22,0 0,55 22,0 0,-55z" />
<path style="fill:#4c4c4c" d="M518,297 l-38,0 0,81 38,0 0,-81z" />
<path style="fill:#999" d="M518,92 l-38,0 0,70 38,0 0,-70z" />
<path style="fill:#ccc;stroke:#000;stroke-width:2" d="M940,341 l-13,0 0,11 13,0 0,-11z" />
<path style="fill:#ccc;stroke:#000;stroke-width:2" d="M940,101 l-13,0 0,12 13,0 0,-12z" />
<path style="fill:#ccc;stroke:#000;stroke-width:2" d="M940,212 l-13,0 0,12 13,0 0,-12z" />
<path style="fill:#ccc;stroke:#000;stroke-width:2" d="M86,397 l-15,0 0,10 15,0 0,-10z" />
<path style="fill:#ccc;stroke:#000;stroke-width:2" d="M86,278 l-15,0 0,12 15,0 0,-12z" />
<path style="fill:#ccc;stroke:#000;stroke-width:2" d="M86,158 l-15,0 0,11 15,0 0,-11z" />
<path style="fill:#ccc;stroke:#000;stroke-width:2" d="M86,43 l-15,0 0,11 15,0 0,-11z" />
<path style="fill:#999;stroke:#000;stroke-width:2" d="M86,54 l-15,0 0,19 15,0 0,-19z" />
<path style="fill:#999;stroke:#000;stroke-width:2" d="M86,169 l-15,0 0,17 15,0 0,-17z" />
<path style="fill:#999;stroke:#000;stroke-width:2" d="M86,290 l-15,0 0,19 15,0 0,-19z" />
<path style="fill:#999;stroke:#000;stroke-width:2" d="M86,407 l-15,0 0,18 15,0 0,-18z" />
<path style="fill:#999;stroke:#000;stroke-width:2" d="M940,224 l-13,0 0,19 13,0 0,-19z" />
<path style="fill:#999;stroke:#000;stroke-width:2" d="M940,113 l-13,0 0,18 13,0 0,-18z" />
<path style="fill:#999;stroke:#000;stroke-width:2" d="M940,352 l-13,0 0,19 13,0 0,-19z" />

</svg>
