<?xml version="1.0" encoding="utf-8" standalone="no"?><!DOCTYPE svg PUBLIC "-//W3C//DTD SVG 1.1//EN" "http://www.w3.org/Graphics/SVG/1.1/DTD/svg11-flat-20030114.dtd"><svg width="999" height="469" version="1.1" xmlns="http://www.w3.org/2000/svg" xmlns:xlink="http://www.w3.org/1999/xlink">

<path style="fill:#7f7f7f" d="M970,322 l0,-177 -471,0 -432,-59 0,294 432,-58 471,0z" />
<path style="fill:#999" d="M970,311 l0,-153 -471,0 -432,-53 0,256 432,-50 471,0z" />
<path style="fill:#b2b2b2" d="M970,294 l0,-119 -471,0 -432,-40 0,196 432,-37 471,0z" />
<path style="fill:#ccc" d="M970,275 l0,-83 -471,0 -432,-27 0,138 432,-28 471,0z" />
<path style="fill:#e5e5e5" d="M970,260 l0,-53 -471,0 -432,-17 0,89 432,-19 471,0z" />
<path style="fill:#fff" d="M970,243 l0,-19 -471,0 -432,-6 0,30 432,-5 471,0z" />
<path style="fill:none;stroke:#000;stroke-width:2" d="M970,322 l0,-177 -471,0 -432,-59 0,294 432,-58 471,0" />
<path style="fill:#ccc;stroke:#000;stroke-width:2" d="M940,341 l-13,0 0,11 13,0 0,-11z" />
<path style="fill:#ccc;stroke:#000;stroke-width:2" d="M940,101 l-13,0 0,12 13,0 0,-12z" />
<path style="fill:#ccc;stroke:#000;stroke-width:2" d="M940,213 l-13,0 0,11 13,0 0,-11z" />
<path style="fill:#ccc;stroke:#000;stroke-width:2" d="M86,397 l-15,0 0,10 15,0 0,-10z" />
<path style="fill:#ccc;stroke:#000;stroke-width:2" d="M86,279 l-15,0 0,11 15,0 0,-11z" />
<path style="fill:#ccc;stroke:#000;stroke-width:2" d="M86,158 l-15,0 0,11 15,0 0,-11z" />
<path style="fill:#ccc;stroke:#000;stroke-width:2" d="M86,43 l-15,0 0,11 15,0 0,-11z" />
<path style="fill:#999;stroke:#000;stroke-width:2" d="M86,54 l-15,0 0,19 15,0 0,-19z" />
<path style="fill:#999;stroke:#000;stroke-width:2" d="M86,169 l-15,0 0,17 15,0 0,-17z" />
<path style="fill:#999;stroke:#000;stroke-width:2" d="M86,290 l-15,0 0,19 15,0 0,-19z" />
<path style="fill:#999;stroke:#000;stroke-width:2" d="M86,407 l-15,0 0,19 15,0 0,-19z" />
<path style="fill:#999;stroke:#000;stroke-width:2" d="M940,224 l-13,0 0,19 13,0 0,-19z" />
<path style="fill:#999;stroke:#000;stroke-width:2" d="M940,113 l-13,0 0,18 13,0 0,-18z" />
<path style="fill:#999;stroke:#000;stroke-width:2" d="M940,352 l-13,0 0,19 13,0 0,-19z" />
<path style="fill:#7f7f7f" d="M970,88 l-30,0 0,294 30,0 0,-294z" />
<path style="fill:#999" d="M970,107 l-30,0 0,256 30,0 0,-256z" />
<path style="fill:#b2b2b2" d="M970,139 l-30,0 0,194 30,0 0,-194z" />
<path style="fill:#ccc" d="M970,167 l-30,0 0,134 30,0 0,-134z" />
<path style="fill:#e5e5e5" d="M970,192 l-30,0 0,85 30,0 0,-85z" />
<path style="fill:#fff" d="M970,218 l-30,0 0,34 30,0 0,-34z" />
<path style="fill:none;stroke:#000;stroke-width:2" d="M970,86 l-28,0 0,296 28,0 0,-296" />
<path style="fill:#7f7f7f" d="M520,88 l-40,0 0,294 40,0 0,-294z" />
<path style="fill:#999" d="M520,107 l-40,0 0,256 40,0 0,-256z" />
<path style="fill:#b2b2b2" d="M520,139 l-40,0 0,194 40,0 0,-194z" />
<path style="fill:#ccc" d="M520,167 l-40,0 0,134 40,0 0,-134z" />
<path style="fill:#e5e5e5" d="M520,192 l-40,0 0,85 40,0 0,-85z" />
<path style="fill:#fff" d="M520,218 l-40,0 0,34 40,0 0,-34z" />
<path style="fill:none;stroke:#000;stroke-width:2" d="M520,86 l-40,0 0,296 40,0 0,-296" />
<path style="fill:#7f7f7f" d="M73,30 l-45,0 0,411 45,0 0,-411z" />
<path style="fill:#999" d="M73,56 l-45,0 0,360 45,0 0,-360z" />
<path style="fill:#b2b2b2" d="M73,99 l-45,0 0,274 45,0 0,-274z" />
<path style="fill:#ccc" d="M73,141 l-45,0 0,189 45,0 0,-189z" />
<path style="fill:#e5e5e5" d="M73,175 l-45,0 0,121 45,0 0,-121z" />
<path style="fill:#fff" d="M73,211 l-45,0 0,49 45,0 0,-49z" />
<path style="fill:none;stroke:#000;stroke-width:2" d="M73,28 l-45,0 0,413 45,0 0,-413" />

</svg>
