<?xml version="1.0" encoding="utf-8" standalone="no"?><!DOCTYPE svg PUBLIC "-//W3C//DTD SVG 1.1//EN" "http://www.w3.org/Graphics/SVG/1.1/DTD/svg11-flat-20030114.dtd"><svg width="530" height="530" version="1.1" xmlns="http://www.w3.org/2000/svg" xmlns:xlink="http://www.w3.org/1999/xlink">

<path style="fill:#7f7f7f" d="M515,265 l0,-250 -500,0 250,250 250,0z" />
<path style="fill:#7f7f7f" d="M265,515 l-250,0 0,-500 250,250 0,250z" />
<path style="fill:#999" d="M515,31 l0,218 -266,0 -219,-218 485,0z" />
<path style="fill:#999" d="M30,515 l219,0 0,-266 -219,-218 0,484z" />
<path style="fill:#b2b2b2" d="M515,57 l0,166 -292,0 -167,-166 459,0z" />
<path style="fill:#b2b2b2" d="M56,515 l167,0 0,-292 -167,-166 0,458z" />
<path style="fill:#ccc" d="M515,83 l0,114 -318,0 -115,-114 433,0z" />
<path style="fill:#ccc" d="M82,515 l115,0 0,-318 -115,-114 0,432z" />
<path style="fill:#e5e5e5" d="M515,104 l0,72 -339,0 -73,-72 412,0z" />
<path style="fill:#e5e5e5" d="M103,515 l73,0 0,-339 -73,-73 0,412z" />
<path style="fill:#fff" d="M515,124 l0,32 -360,0 -31,-32 391,0z" />
<path style="fill:#fff" d="M124,515 l31,0 0,-359 -31,-32 0,391z" />
<path style="fill:none;stroke:#000;stroke-width:2" d="M15,515 l0,-500" />
<path style="fill:none;stroke:#000;stroke-width:2" d="M265,265 l0,250" />
<path style="fill:none;stroke:#000;stroke-width:2" d="M515,15 l-500,0" />
<path style="fill:none;stroke:#000;stroke-width:2" d="M265,265 l250,0" />

</svg>
