<?xml version="1.0" encoding="utf-8" standalone="no"?><!DOCTYPE svg PUBLIC "-//W3C//DTD SVG 1.1//EN" "http://www.w3.org/Graphics/SVG/1.1/DTD/svg11-flat-20030114.dtd"><svg width="530" height="530" version="1.1" xmlns="http://www.w3.org/2000/svg" xmlns:xlink="http://www.w3.org/1999/xlink">

<path style="fill:#7f7f7f" d="M265,515 l249,0 0,-500 -249,250 0,250z" />
<path style="fill:#7f7f7f" d="M15,265 l0,-250 500,0 -250,250 -250,0z" />
<path style="fill:#999" d="M499,515 l-218,0 0,-266 218,-218 0,484z" />
<path style="fill:#999" d="M15,31 l0,218 265,0 219,-218 -484,0z" />
<path style="fill:#b2b2b2" d="M473,515 l-166,0 0,-292 166,-166 0,458z" />
<path style="fill:#b2b2b2" d="M15,57 l0,166 291,0 167,-166 -458,0z" />
<path style="fill:#ccc" d="M447,515 l-114,0 0,-318 114,-114 0,432z" />
<path style="fill:#ccc" d="M15,83 l0,114 317,0 115,-114 -432,0z" />
<path style="fill:#e5e5e5" d="M426,515 l-73,0 0,-339 73,-73 0,412z" />
<path style="fill:#e5e5e5" d="M15,103 l0,73 338,0 73,-73 -411,0z" />
<path style="fill:#fff" d="M405,515 l-31,0 0,-359 31,-32 0,391z" />
<path style="fill:#fff" d="M15,124 l0,32 359,0 31,-32 -390,0z" />
<path style="fill:none;stroke:#000;stroke-width:2" d="M15,15 l500,0" />
<path style="fill:none;stroke:#000;stroke-width:2" d="M265,265 l-250,0" />
<path style="fill:none;stroke:#000;stroke-width:2" d="M515,515 l0,-500" />
<path style="fill:none;stroke:#000;stroke-width:2" d="M265,265 l0,250" />

</svg>
