<?xml version="1.0" encoding="utf-8" standalone="no"?><!DOCTYPE svg PUBLIC "-//W3C//DTD SVG 1.1//EN" "http://www.w3.org/Graphics/SVG/1.1/DTD/svg11-flat-20030114.dtd"><svg width="530" height="163" version="1.1" xmlns="http://www.w3.org/2000/svg" xmlns:xlink="http://www.w3.org/1999/xlink">

<path style="fill:#7f7f7f" d="M515,15 l-500,0 0,133 500,0 0,-133z" />
<path style="fill:#999" d="M515,24 l-500,0 0,116 500,0 0,-116z" />
<path style="fill:#b2b2b2" d="M515,38 l-500,0 0,88 500,0 0,-88z" />
<path style="fill:#ccc" d="M515,51 l-500,0 0,61 500,0 0,-61z" />
<path style="fill:#e5e5e5" d="M515,62 l-500,0 0,39 500,0 0,-39z" />
<path style="fill:#fff" d="M515,74 l-500,0 0,16 500,0 0,-16z" />
<path style="fill:none;stroke:#000;stroke-width:2" d="M515,148 l-500,0" />
<path style="fill:none;stroke:#000;stroke-width:2" d="M15,15 l500,0" />

</svg>
