<?xml version="1.0" encoding="utf-8" standalone="no"?><!DOCTYPE svg PUBLIC "-//W3C//DTD SVG 1.1//EN" "http://www.w3.org/Graphics/SVG/1.1/DTD/svg11-flat-20030114.dtd"><svg width="530" height="530" version="1.1" xmlns="http://www.w3.org/2000/svg" xmlns:xlink="http://www.w3.org/1999/xlink">

<path style="fill:#7f7f7f" d="M390,15 l0,250 125,0 0,250 -500,0 0,-250 125,0 0,-250 250,0z" />
<path style="fill:#999" d="M374,15 l0,266 141,0 0,218 -500,0 0,-218 140,0 0,-266 219,0z" />
<path style="fill:#b2b2b2" d="M348,15 l0,292 167,0 0,166 -500,0 0,-166 166,0 0,-292 167,0z" />
<path style="fill:#ccc" d="M322,15 l0,318 193,0 0,114 -500,0 0,-114 192,0 0,-318 115,0z" />
<path style="fill:#e5e5e5" d="M301,15 l0,339 214,0 0,73 -500,0 0,-73 208,0 0,-339 78,0z" />
<path style="fill:#fff" d="M280,15 l0,359 235,0 0,32 -500,0 0,-32 234,0 0,-359 31,0z" />
<path style="fill:none;stroke:#000;stroke-width:2" d="M390,15 l0,250 125,0" />
<path style="fill:none;stroke:#000;stroke-width:2" d="M140,15 l0,250 -125,0" />
<path style="fill:none;stroke:#000;stroke-width:2" d="M15,515 l500,0" />

</svg>
