<?xml version="1.0" encoding="utf-8" standalone="no"?><!DOCTYPE svg PUBLIC "-//W3C//DTD SVG 1.1//EN" "http://www.w3.org/Graphics/SVG/1.1/DTD/svg11-flat-20030114.dtd"><svg width="530" height="530" version="1.1" xmlns="http://www.w3.org/2000/svg" xmlns:xlink="http://www.w3.org/1999/xlink">

<path style="fill:#7f7f7f" d="M15,140 l250,0 0,-125 250,0 0,500 -250,0 0,-125 -250,0 0,-250z" />
<path style="fill:#999" d="M15,156 l265,0 0,-141 219,0 0,500 -219,0 0,-141 -265,0 0,-218z" />
<path style="fill:#b2b2b2" d="M15,182 l291,0 0,-167 167,0 0,500 -167,0 0,-167 -291,0 0,-166z" />
<path style="fill:#ccc" d="M15,208 l317,0 0,-193 115,0 0,500 -115,0 0,-193 -317,0 0,-114z" />
<path style="fill:#e5e5e5" d="M15,229 l338,0 0,-214 73,0 0,500 -73,0 0,-208 -338,0 0,-78z" />
<path style="fill:#fff" d="M15,249 l359,0 0,-234 31,0 0,500 -31,0 0,-234 -359,0 0,-32z" />
<path style="fill:none;stroke:#000;stroke-width:2" d="M15,140 l250,0 0,-125" />
<path style="fill:none;stroke:#000;stroke-width:2" d="M15,390 l250,0 0,125" />
<path style="fill:none;stroke:#000;stroke-width:2" d="M515,515 l0,-500" />

</svg>
