<?xml version="1.0" encoding="utf-8" standalone="no"?><!DOCTYPE svg PUBLIC "-//W3C//DTD SVG 1.1//EN" "http://www.w3.org/Graphics/SVG/1.1/DTD/svg11-flat-20030114.dtd"><svg width="530" height="530" version="1.1" xmlns="http://www.w3.org/2000/svg" xmlns:xlink="http://www.w3.org/1999/xlink">

<path style="fill:#7f7f7f" d="M15,265 l500,0 0,-250 -500,0 0,250z" />
<path style="fill:#999" d="M15,249 l500,0 0,-219 -500,0 0,219z" />
<path style="fill:#b2b2b2" d="M15,223 l500,0 0,-166 -500,0 0,166z" />
<path style="fill:#ccc" d="M15,197 l500,0 0,-114 -500,0 0,114z" />
<path style="fill:#e5e5e5" d="M15,177 l500,0 0,-73 -500,0 0,73z" />
<path style="fill:#fff" d="M15,155 l500,0 0,-30 -500,0 0,30z" />
<path style="fill:none;stroke:#000;stroke-width:2" d="M15,15 l500,0" />
<path style="fill:none;stroke:#000;stroke-width:2" d="M515,265 l-500,0" />
<path style="fill:#7f7f7f" d="M140,265 l0,250 250,0 0,-250 -3,-25 -7,-24 -11,-21 -16,-18 -18,-16 -21,-11 -24,-7 -25,-3 -25,3 -24,7 -21,11 -18,16 -16,18 -11,21 -7,24 -3,25z" />
<path style="fill:#999" d="M156,204 l9,-14 11,-13 12,-11 14,-9 15,-7 15,-6 16,-3 17,-1 17,1 16,4 16,5 14,7 14,10 12,11 11,12 9,14 0,311 -218,0 0,-311z" />
<path style="fill:#b2b2b2" d="M182,172 l9,-7 9,-7 10,-5 10,-5 11,-3 11,-3 11,-1 12,-1 11,1 11,1 11,3 11,3 11,5 10,5 9,7 9,7 0,343 -166,0 0,-343z" />
<path style="fill:#ccc" d="M208,154 l7,-3 6,-3 7,-2 7,-2 8,-2 7,-1 8,-1 7,0 7,0 8,1 7,1 7,2 8,2 7,2 6,3 7,3 0,361 -114,0 0,-361z" />
<path style="fill:#e5e5e5" d="M229,146 l4,-1 5,-2 4,-1 5,-1 4,0 5,-1 4,0 5,0 5,0 6,1 5,0 5,1 6,1 5,1 5,2 5,1 0,368 -79,0 1,-369z" />
<path style="fill:#fff" d="M249,141 l4,0 4,-1 4,0 4,0 4,0 4,0 5,1 3,0 0,374 -32,0 0,-374z" />
<path style="fill:none;stroke:#000;stroke-width:2" d="M390,515 l0,-250 -3,-25 -7,-24 -11,-21 -16,-18 -18,-16 -21,-11 -24,-7 -25,-3 -25,3 -24,7 -21,11 -18,16 -16,18 -11,21 -7,24 -3,25 0,250" />

</svg>
