<?xml version="1.0" encoding="utf-8" standalone="no"?><!DOCTYPE svg PUBLIC "-//W3C//DTD SVG 1.1//EN" "http://www.w3.org/Graphics/SVG/1.1/DTD/svg11-flat-20030114.dtd"><svg width="530" height="530" version="1.1" xmlns="http://www.w3.org/2000/svg" xmlns:xlink="http://www.w3.org/1999/xlink">

<path style="fill:#7f7f7f" d="M515,390 l-250,0 0,125 -250,0 0,-500 250,0 0,125 250,0 0,250z" />
<path style="fill:#999" d="M515,374 l-266,0 0,141 -219,0 0,-500 219,0 0,141 266,0 0,218z" />
<path style="fill:#b2b2b2" d="M515,348 l-292,0 0,167 -167,0 0,-500 167,0 0,167 292,0 0,166z" />
<path style="fill:#ccc" d="M515,322 l-318,0 0,193 -115,0 0,-500 115,0 0,193 318,0 0,114z" />
<path style="fill:#e5e5e5" d="M515,302 l-339,0 0,213 -73,0 0,-500 73,0 0,208 339,0 0,79z" />
<path style="fill:#fff" d="M515,281 l-360,0 0,234 -31,0 0,-500 31,0 0,234 360,0 0,32z" />
<path style="fill:none;stroke:#000;stroke-width:2" d="M515,390 l-250,0 0,125" />
<path style="fill:none;stroke:#000;stroke-width:2" d="M515,140 l-250,0 0,-125" />
<path style="fill:none;stroke:#000;stroke-width:2" d="M15,15 l0,500" />

</svg>
