<?xml version="1.0" encoding="utf-8" standalone="no"?><!DOCTYPE svg PUBLIC "-//W3C//DTD SVG 1.1//EN" "http://www.w3.org/Graphics/SVG/1.1/DTD/svg11-flat-20030114.dtd"><svg width="530" height="530" version="1.1" xmlns="http://www.w3.org/2000/svg" xmlns:xlink="http://www.w3.org/1999/xlink">

<path style="fill:#7f7f7f" d="M265,515 l0,-500 -250,0 0,500 250,0z" />
<path style="fill:#999" d="M249,515 l0,-500 -219,0 0,500 219,0z" />
<path style="fill:#b2b2b2" d="M222,515 l0,-500 -166,0 0,500 166,0z" />
<path style="fill:#ccc" d="M197,515 l0,-500 -115,0 0,500 115,0z" />
<path style="fill:#e5e5e5" d="M177,515 l0,-500 -74,0 0,500 74,0z" />
<path style="fill:#fff" d="M155,515 l0,-500 -30,0 0,500 30,0z" />
<path style="fill:none;stroke:#000;stroke-width:2" d="M15,515 l0,-500" />
<path style="fill:none;stroke:#000;stroke-width:2" d="M265,15 l0,500" />
<path style="fill:#7f7f7f" d="M265,390 l250,0 0,-250 -250,0 -25,3 -24,7 -21,11 -18,16 -16,18 -11,21 -7,24 -3,25 3,25 7,24 11,21 16,18 18,16 21,11 24,7 25,3z" />
<path style="fill:#999" d="M203,374 l-14,-9 -12,-11 -11,-12 -9,-14 -7,-15 -6,-15 -3,-16 -1,-17 1,-17 4,-16 5,-16 7,-15 10,-13 11,-12 12,-11 14,-9 311,0 0,218 -312,0z" />
<path style="fill:#b2b2b2" d="M172,348 l-7,-9 -7,-9 -5,-10 -5,-10 -3,-11 -3,-11 -1,-11 -1,-12 1,-11 1,-11 3,-11 3,-11 5,-11 5,-10 7,-9 7,-9 343,0 0,166 -343,0z" />
<path style="fill:#ccc" d="M154,322 l-3,-7 -3,-6 -2,-7 -2,-7 -2,-8 -1,-7 -1,-8 0,-7 0,-7 1,-8 1,-7 2,-7 2,-8 2,-7 3,-6 3,-7 361,0 0,114 -361,0z" />
<path style="fill:#e5e5e5" d="M146,301 l-1,-4 -2,-5 -1,-4 -1,-5 0,-4 -1,-5 0,-4 0,-5 0,-5 1,-6 0,-5 1,-5 1,-6 1,-5 1,-5 1,-5 369,0 0,79 -369,-1z" />
<path style="fill:#fff" d="M141,281 l-1,-4 0,-4 0,-4 0,-4 0,-4 0,-4 0,-5 1,-3 374,0 0,32 -374,0z" />
<path style="fill:none;stroke:#000;stroke-width:2" d="M515,140 l-250,0 -25,3 -24,7 -21,11 -18,16 -16,18 -11,21 -7,24 -3,25 3,25 7,24 11,21 16,18 18,16 21,11 24,7 25,3 250,0" />

</svg>
