<?xml version="1.0" encoding="utf-8" standalone="no"?><!DOCTYPE svg PUBLIC "-//W3C//DTD SVG 1.1//EN" "http://www.w3.org/Graphics/SVG/1.1/DTD/svg11-flat-20030114.dtd"><svg width="530" height="530" version="1.1" xmlns="http://www.w3.org/2000/svg" xmlns:xlink="http://www.w3.org/1999/xlink">

<path style="fill:#7f7f7f" d="M515,265 l-500,0 0,250 500,0 0,-250z" />
<path style="fill:#999" d="M515,281 l-500,0 0,219 500,0 0,-219z" />
<path style="fill:#b2b2b2" d="M515,307 l-500,0 0,167 500,0 0,-167z" />
<path style="fill:#ccc" d="M515,333 l-500,0 0,115 500,0 0,-115z" />
<path style="fill:#e5e5e5" d="M515,353 l-500,0 0,74 500,0 0,-74z" />
<path style="fill:#fff" d="M515,375 l-500,0 0,30 500,0 0,-30z" />
<path style="fill:none;stroke:#000;stroke-width:2" d="M515,515 l-500,0" />
<path style="fill:none;stroke:#000;stroke-width:2" d="M15,265 l500,0" />
<path style="fill:#7f7f7f" d="M390,265 l0,-250 -250,0 0,250 3,25 7,24 11,21 16,18 18,16 21,11 24,7 25,3 25,-3 24,-7 21,-11 18,-16 16,-18 11,-21 7,-24 3,-25z" />
<path style="fill:#999" d="M374,326 l-9,14 -11,13 -12,11 -14,9 -15,7 -15,6 -16,3 -17,1 -17,-1 -16,-4 -16,-5 -15,-7 -13,-10 -12,-11 -11,-12 -9,-14 0,-311 218,0 0,311z" />
<path style="fill:#b2b2b2" d="M348,358 l-9,7 -9,7 -10,5 -11,5 -10,3 -11,3 -11,1 -12,1 -11,-1 -12,-1 -11,-3 -11,-3 -10,-5 -10,-5 -9,-7 -9,-7 0,-343 166,0 0,343z" />
<path style="fill:#ccc" d="M322,376 l-7,3 -6,3 -7,2 -8,2 -7,2 -7,1 -8,1 -7,0 -7,0 -8,-1 -7,-1 -8,-2 -7,-2 -7,-2 -6,-3 -7,-3 0,-361 114,0 0,361z" />
<path style="fill:#e5e5e5" d="M301,384 l-4,1 -5,2 -4,1 -5,0 -4,1 -5,1 -4,0 -5,0 -5,0 -6,-1 -5,0 -5,-1 -6,-1 -5,-1 -5,-2 -5,-1 0,-368 78,0 0,369z" />
<path style="fill:#fff" d="M281,389 l-4,1 -4,0 -4,0 -4,0 -4,0 -4,0 -5,0 -3,-1 0,-374 32,0 0,374z" />
<path style="fill:none;stroke:#000;stroke-width:2" d="M140,15 l0,250 3,25 7,24 11,21 16,18 18,16 21,11 24,7 25,3 25,-3 24,-7 21,-11 18,-16 16,-18 11,-21 7,-24 3,-25 0,-250" />

</svg>
